<svg xmlns="http://www.w3.org/2000/svg" viewBox="0 0 322.79 176.79"><defs><style>.cls-1{fill:#66edff;}.cls-2{fill:#231f20;}</style></defs><title> </title><g id="Layer_2" data-name="Layer 2"><g id="Layer_2-2" data-name="Layer 2"><path class="cls-1" d="M40.2,135.27C59.78,106.78,90,86.08,117.51,65.87,132.25,55,147.2,44.51,162.2,34c14-9.79,28.05-21.39,44.45-27L167.17,8.16c-23,26.2-48,50.56-71.19,76.61a466.76,466.76,0,0,0-32.32,40.08c-4.88,6.88-9.5,13.93-13.8,21.19-4.47,7.55-9.81,15.59-9.52,24.68.07,2.05,14.23,1.61,14.84,1.6,7.53-.12,15.26-.39,22.64-2,15.15-3.39,28.17-12.8,40.39-22,12-9,23.27-18.89,34.44-28.87C174.92,99.51,197,79,223,63.93L183.48,65l-36.14,48.27c-5.82,7.78-11.66,15.54-17.3,23.45-4.87,6.84-11.36,14.24-11.09,23.11.1,3.39,36.14,1.59,39.48-1.08L256,80.93,216.51,82l-29.58,40.33c-4.58,6.24-9.91,12.37-13.8,19.07-3.53,6.07-3,12.38,4.69,13.94,12.73,2.57,27.32,1.14,40.05-.91A66.29,66.29,0,0,0,240,146.7c12.08-6.8,22.73-15.86,33.47-24.54,12.13-9.81,24.57-19.34,39-25.45l-39.48,1.08c1,4.57-1.49,8.32-3.85,12-2.66,4.2-5.5,8.27-8.35,12.35-5.49,7.86-11.06,15.75-15.32,24.37a69.8,69.8,0,0,0-5,12.9c-1.32,5,.3,7.85,5.4,8.86,9.44,1.88,19.81,1.26,29.32.53,7.59-.58,15.22-1.46,22.35-4.26,2.46-1-2.43-1.76-2.1-1.7a65.09,65.09,0,0,0-12-.55c-7.82.12-17.2-.25-24.64,2.68q-12.79,5,22.11-.85l-.67-1.25a16.59,16.59,0,0,1,.45-5.19A64.91,64.91,0,0,1,284,148.5a117.68,117.68,0,0,1,10-17.82c3.65-5.53,7.55-10.9,11.28-16.38,3.49-5.13,9.34-11.63,7.94-18.24-.57-2.71-16.13-1.57-17.51-1.53-6.93.19-15.45-.14-22,2.61-28.06,11.84-47.45,36.56-74,50.81a69.81,69.81,0,0,1-9.53,4.15q-14.31,3.48,22.89-.66a4.7,4.7,0,0,1-1.86-2.41,7.55,7.55,0,0,1-.18-3.89c.6-3.58,2.92-6.64,5-9.5,2.69-3.71,5.41-7.38,8.12-11.07l32.48-44.29c.58-.78-7.08-1.47-6-1.39-3.85-.27-7.71-.25-11.56-.14-4.26.12-8.56.31-12.79.83-2.55.31-7.14.16-9.17,1.78L119.63,159.2l39.48-1.08c-.26-8.6,5.82-15.68,10.53-22.32,5.81-8.19,11.85-16.21,17.86-24.24l36.14-48.27c.58-.78-7.09-1.47-6-1.39-3.85-.27-7.71-.25-11.56-.14-4.26.12-8.56.31-12.79.83-2.84.34-6.66.33-9.17,1.78-25.5,14.81-47.22,34.82-69.08,54.39-10.75,9.63-21.59,19.18-33,28s-24.63,19.49-39,22.71L80.5,169c-.29-9.1,5-17.14,9.52-24.68,4.3-7.26,8.92-14.31,13.8-21.19A466.77,466.77,0,0,1,136.14,83c23.18-26,48.18-50.41,71.19-76.61.62-.71-7.16-1.47-6-1.39-3.85-.27-7.71-.25-11.56-.14-7.22.2-15.06.26-22,2.61-16.39,5.57-30.41,17.18-44.45,27-15.53,10.82-31,21.73-46.24,33C49.72,87.69,19.6,108.52,0,137c-.55.8,7.05,1.47,6,1.39a112.87,112.87,0,0,0,14.23.07,122.41,122.41,0,0,0,14.17-1.29c1.67-.28,4.77-.38,5.81-1.89Z"/></g><g id="Layer_1-2" data-name="Layer 1"><path class="cls-2" d="M268.48,174.13c-2,0-5.66.91-5.66-1.09V115.65c.07-.32.63-2.42,2.68-2.42,1.85,0,3.87,2.58,4.57,3.71v52.55C270.08,171.49,270.48,174.13,268.48,174.13Z"/><path class="cls-2" d="M270.08,97.52a9.26,9.26,0,0,0-3.74-.82,8,8,0,0,0-3.51.8V43.93c0-2,.94-.93,2.94-.93s4.32-1.07,4.32.93Z"/><path class="cls-2" d="M106.49,164.22c-2,0-3.63,2.94-3.63.94v-38.5s.83.23,2.61-1.2l4.64-3.73V163C110.11,165,108.49,164.22,106.49,164.22Z"/><path class="cls-2" d="M239.37,174.13c-2,0-3.63-.61-3.63-2.61V122.78c0-5.91-5.58-12.78-12.78-12.78-3.5,0-8.63,3.92-12.37,6.78l-.23.17a92.15,92.15,0,0,1-8,4.8,6,6,0,0,1-1.3.15A10.27,10.27,0,0,1,191,111.77c0-5,5.11-10.12,10.12-10.12,2.31,0,5.23,1.56,7.11,3.75l-5.42,4.48a2,2,0,0,0-1.64-1h-.08a2.78,2.78,0,0,0-2.85,2.87,2.53,2.53,0,0,0,2.59,2.85h.11l.1,0a10.41,10.41,0,0,0,1.74-1l7.37-5.48c3.51-2.49,8.15-5.34,12.84-5.34,9.45,0,20,8.57,20,20V173C243,175,241.37,174.13,239.37,174.13Zm-32.81-8.4c-2,0-3.63-.11-3.63-2.11v-37l7.25-5.36v43.41C210.19,166.65,208.56,165.74,206.56,165.74Z"/><path class="cls-2" d="M101.07,121.9a10.27,10.27,0,0,1-10.12-10.12c0-5,5.11-10.12,10.12-10.12a9.08,9.08,0,0,1,6.74,3.47l-5.72,4.39a1.84,1.84,0,0,0-1.54-.61h-.29a2.64,2.64,0,0,0-2.56,2.87c0,1.82,1.15,2.86,3.15,2.86h.08l.08,0a11.63,11.63,0,0,0,2-1.18l7.16-5.33c.63-.44,1.22-.85,1.79-1.22,4.3-2.81,7.82-4.12,11.05-4.12a19.94,19.94,0,0,1,14.43,6c1.38,1.45-.51,1.63-2,3-.68.64-2.6,2.72-3.29,2A12.65,12.65,0,0,0,123,110c-3.5,0-8.63,3.92-12.37,6.78S103.89,121.9,101.07,121.9Z"/><path class="cls-2" d="M59.82,170.25c-.72,0-1.79-.23-2.41-.18-1.1.09-1.56.32-1.56-1V115.35a4.75,4.75,0,0,1,3.63-2.22,4.75,4.75,0,0,1,3.63,2.22v53.46c0,1.5-.35,1.05-1.56,1C61.14,169.78,60.32,170.25,59.82,170.25Z"/><path class="cls-2" d="M55.85,60.88a3.63,3.63,0,0,1,7.25,0V97a8.19,8.19,0,0,0-3.48-.76,9.49,9.49,0,0,0-3.77.81Z"/><path class="cls-2" d="M68.35,115.15l-.22.27a9.83,9.83,0,0,0-1,1.67l.14,9.19a33.07,33.07,0,0,0,5-4.53l.39-.43.3.5c.93,1.52,1.79,3.06,2.56,4.57.62,1.22,1.44-.69,2.81-.69a3.58,3.58,0,0,0,1.64-.4c1.78-.91,2.91-.43,2-2.21a82.91,82.91,0,0,0-4.51-7.71l-.16-.24.16-.24A83,83,0,0,0,82,107.2c.91-1.78-.81-1.42-2.6-2.33a3.58,3.58,0,0,0-1.65-.4c-1.37,0-1.6-1.79-2.22-.57-.8,1.56-1.66,3.1-2.55,4.58l-.3.5Z"/><path class="cls-2" d="M65.84,112.25c-2-2.07-4.36-4.09-6.27-4.09-3.43,0-7.49,3.78-7.49,7v.76l.08,10.71c-4.48-3-7.34-7.42-7.34-11.47,0-7.18,7.3-14.23,14.74-14.23,3.3,0,6.85,1.82,10.58,5.41"/><path class="cls-2" d="M59.47,65.46c-2.14,0-3.63-1.31-3.63-3.19A29.16,29.16,0,0,1,85,33.15a3.63,3.63,0,1,1,0,7.25A21.89,21.89,0,0,0,63.1,62.27C63.1,64.15,61.61,65.46,59.47,65.46Z"/><path class="cls-2" d="M99.8,46.2A21.8,21.8,0,0,0,85,40.4a3.63,3.63,0,0,1,0-7.25,29,29,0,0,1,19.75,7.72c.71.66.44.48.48,1.44s-1.14.94-1.79,1.65S100.47,46.82,99.8,46.2Z"/><path class="cls-2" d="M178.18,167.26c-1.94,0-3.53,1-3.62-.92l7.25-8.23v8.06C181.81,168.17,180.18,167.26,178.18,167.26Z"/><path class="cls-2" d="M174.56,123.38c0-7.8-5.23-13.46-12.45-13.46-8.05,0-10.92,7-10.92,13.46,0,2-1.6.57-3.6.57s-3.65,1.43-3.65-.57c0-12.2,7.47-20.71,18.18-20.71,11.23,0,19.7,8.9,19.7,20.71v10.43l-7.25,10.73Z"/><path class="cls-2" d="M158.8,169.1a18.42,18.42,0,0,1,0-36.84,17.32,17.32,0,0,1,11.54,4.2l.07,9.39c-1.08-.77-3.14-2.24-3.79-2.75-3-2.34-5.66-3.58-7.82-3.58a11.16,11.16,0,0,0,0,22.33c4.3,0,10.51-4.87,17-13.37a120.63,120.63,0,0,0,9.34-14.3c.63-1.18,2.53,1.25,3.06,1.53,1.76.95,4.28.14,3.33,1.9a126.63,126.63,0,0,1-10,15.28C173.33,163.65,165.66,169.1,158.8,169.1Z"/><path class="cls-2" d="M281.2,111.38l.31-.32c3.58-3.62,7.65-8,12.09-13.15,10.73-12.34,15.58-18,15.71-18.21.69-.91,2.56.78,3.2,1.26,1.59,1.21,3.79,1.54,2.58,3.13-.16.21-5,6-16.15,18.74-4.62,5.31-8.87,9.91-12.62,13.68l-.28.28.26.3c3.75,4.43,8.07,9.94,12.83,16.39,8.81,11.93,17.52,22.23,21,26.79l1.52,2c.52.8,2.88,2.49-1,4-1.24,0-2.93,3-3.6,1.94l-1.19-1.57c-3-4-13.29-16.31-22.11-28.29-4.66-6.34-8.93-11.8-12.67-16.24l-.29-.34-.33.29a39.06,39.06,0,0,1-5.87,4.47l0-9,.27-.21.2-.17.6-.54.33-.3Z"/><path class="cls-2" d="M273.84,114.23c-4.75-4.72-6.71-5.38-7.24-5.46h-.07c-3.44,0-7.44,3.08-7.44,7a5.57,5.57,0,0,0,.15,1.29l-.59,9.05-.49-.15c-4.49-2.76-6.32-5.72-6.32-10.19,0-7.58,6.89-14.23,14.74-14.23,2.22,0,5.59.9,12.29,7.49Z"/><path class="cls-2" d="M257,124.47"/><path class="cls-2" d="M190.3,10A18.25,18.25,0,0,0,192,7.91c.87-1.54,1.86.19,3.4,1.06s3.06.55,2.19,2.09a10.55,10.55,0,0,1-6.49,5A9.57,9.57,0,0,0,190.3,10Z"/><path class="cls-2" d="M158.29,18.57a22.73,22.73,0,0,1,.92-8.16C162.17,1.73,169.7-2,178.39,1c8.37,2.86,12.36,11.81,9.28,20.83a3.21,3.21,0,1,1-6.07-2.07c2.29-6.7-1.13-11.27-5.28-12.68-5.38-1.84-9.2,0-11,5.4-.68,2-.53,6.48-.47,7.36Z"/><path class="cls-2" d="M168.49,31.24a3.21,3.21,0,1,1,2.07-6.07c5.68,1.94,9.9-2.09,11.55-6.94l6.07,2.07C185.06,29.47,176.78,34.07,168.49,31.24Z"/><path class="cls-2" d="M154,42.23a13.11,13.11,0,0,0-9,8.42c-2.26,6.61,1.9,14.5,8.9,16.89l6.56,2.24a3.21,3.21,0,1,1-2.07,6.07l-6.56-2.24c-10.41-3.55-16.32-15-12.9-25a19.48,19.48,0,0,1,10.85-11.66Z"/><path class="cls-2" d="M169.62,44.94,159,41.3A3.21,3.21,0,1,1,161,35.23l10.65,3.64a3.21,3.21,0,1,1-2.07,6.07Z"/><path class="cls-2" d="M178.66,65.53a3.21,3.21,0,0,1-2-4.07c2.3-6.74-1.26-14.55-7.62-16.72a3.21,3.21,0,1,1,2.07-6.07c9.76,3.33,15.08,14.72,11.62,24.87A3.21,3.21,0,0,1,178.66,65.53Z"/><path class="cls-2" d="M157.22,75.46a3.21,3.21,0,0,1,2.07-6.07c7,2.39,15.12-1.31,17.37-7.92a3.21,3.21,0,0,1,6.07,2.07C179.31,73.55,167.63,79,157.22,75.46Z"/><path class="cls-2" d="M157.71,40.87a9.51,9.51,0,1,1,6.15-18l8.21,2.8A3.21,3.21,0,1,1,170,31.75l-8.21-2.8a3.09,3.09,0,0,0-2,5.86,3.21,3.21,0,1,1-2.07,6.07Z"/><path class="cls-2" d="M202.32,61.13C193.16,58,189,48.36,192.5,38.19a3.18,3.18,0,0,1,6,2.05c-2,5.73-.9,12.55,5.86,14.86a12.19,12.19,0,0,0,15.45-7.59l.83-2.74c1.06.29,4.82-.27,5.45-.23.37,0,1.3-.53,1.31-.28,0,.78-.74,2.86-1.68,5.62A18.63,18.63,0,0,1,202.32,61.13Z"/><path class="cls-2" d="M194.77,41.37a3.18,3.18,0,0,1-2-4l3.34-9.78c3.41-10,13.16-15.09,22.66-11.84s14.87,14.69,10.9,22.61c-.79,1.57-2.59,3.17-4.25,2.6a3.18,3.18,0,0,1-2-4c2.28-6.67-.55-13-6.72-15.16s-12.31,1.21-14.59,7.88l-3.34,9.78A3.18,3.18,0,0,1,194.77,41.37Z"/><path class="cls-2" d="M220.2,27.55c-.29-.34-.86.22-1.24.42a7.83,7.83,0,0,0-3.46,10.36c1.71,3.42,6.94,5.17,10.36,3.46a7.21,7.21,0,0,0,3.86-4.89L224,35.41c.12.76-1.17,1.23-1.31,1.33a1.61,1.61,0,0,1-2.19-.9A2.26,2.26,0,0,1,221.78,33,7.58,7.58,0,0,0,220.2,27.55Z"/><path class="cls-2" d="M232.44,32.29s6.68.37,7.51-.25.23-5.05,0-6-8.34.09-8.34.09A20,20,0,0,1,232.44,32.29Z"/><path class="cls-2" d="M110.11,160.25v7.65c0,1.41-.45,1.56-1.41,1.52-.4,0-.89-.06-1.48-.06s-1,.05-1.53.1-.7-.28-1-.27-.61.34-.87.29a1.13,1.13,0,0,1-1-1.27v-7.95"/><path class="cls-2" d="M210.22,160.25v7.65c0,2-1.63,1.45-3.63,1.45s-3.63.85-3.63-1.15v-7.95"/><path class="cls-2" d="M243,167.52v7.65c0,.89-.32,1.27-.85,1.42-.31.09-.7-.25-1.13-.26s-1.05.28-1.64.28c-2,0-3.63.86-3.63-1.14v-7.95"/><path class="cls-2" d="M270.1,167.52v7.65c0,2-1.63,1.44-3.63,1.44s-3.63.86-3.63-1.14v-7.95"/><path class="cls-2" d="M181.81,160.25v7.65c0,2-1.3,1.45-3.3,1.45s-4,.85-4-1.15v-1.86"/></g></g></svg>