<?xml version="1.0" encoding="UTF-8"?>
<svg width="38px" height="70px" viewBox="0 0 38 70" version="1.1" xmlns="http://www.w3.org/2000/svg" xmlns:xlink="http://www.w3.org/1999/xlink">
    <!-- Generator: Sketch 42 (36781) - http://www.bohemiancoding.com/sketch -->
    <title></title>
    <desc>Created with Sketch.</desc>
    <defs></defs>
    <g id="Page-1" stroke="none" stroke-width="1" fill="none" fill-rule="evenodd">
        <path d="M24.46875,70 L24.46875,38.0078125 L35.1328125,38.0078125 L36.7734375,25.5664062 L24.46875,25.5664062 L24.46875,17.6367188 C24.46875,15.6315004 24.9016884,14.1276092 25.7675781,13.125 C26.6334679,12.1223908 28.2512902,11.6210938 30.6210938,11.6210938 L37.1835938,11.6210938 L37.1835938,0.546875 C35.7252531,0.182289844 32.5351809,0 27.6132812,0 C22.6913816,0 18.7949362,1.43553252 15.9238281,4.30664062 C13.05272,7.17774873 11.6171875,11.2109115 11.6171875,16.40625 L11.6171875,25.5664062 L0.81640625,25.5664062 L0.81640625,38.0078125 L11.6171875,38.0078125 L11.6171875,70 L24.46875,70 Z" id="" fill="#363ED3"></path>
    </g>
</svg>