<svg xmlns="http://www.w3.org/2000/svg" viewBox="0 0 367.79 206.36"><defs><style>.cls-1{fill:#99f3ff;}.cls-2{fill:#59ecff;}</style></defs><title>gf-logo-17</title><g id="Layer_2" data-name="Layer 2"><g id="Layer_1-2" data-name="Layer 1"><path class="cls-1" d="M45.68,164.23A177.45,177.45,0,0,1,71,135.18l-.79.74c18.95-17.73,40-33.36,60.85-48.75,21.79-16.09,44-31.58,66.27-47,11.83-8.22,23.64-17,37.47-21.57L190,19.78c-20.31,23.15-42,45-63,67.51S85.73,132.67,68.45,158c-4.87,7.13-9.49,14.44-13.8,21.92s-9.36,15.63-8.82,24.63l.85.67a17.67,17.67,0,0,0,4.12.72,98.78,98.78,0,0,0,11.9.44c8.59-.13,17.3-.55,25.72-2.32,14-2.95,26.2-10.93,37.77-19.06,10.82-7.6,21.11-15.93,31.14-24.54,20-17.18,39-35.52,59.63-52a293.2,293.2,0,0,1,36.41-25.25l-44.86,1.22L177,126.5c-10.4,13.89-21,27.68-30.95,41.86-4.91,7-11.44,14.75-10.86,23.81.09,1.33,7,1.59,6.77,1.58,4.37.3,8.76.28,13.14.16,4.85-.13,9.73-.36,14.54-.94l4.6-.61a25.29,25.29,0,0,0,5.82-1.42l86.28-68.84,24.6-19.63L246,103.7,214,147.43c-5.25,7.15-10.65,14.21-15.74,21.48-3.48,5-6.9,12.53-.5,16.66a15.84,15.84,0,0,0,6.51,1.89,130.24,130.24,0,0,0,22.56.52c9.32-.4,18.95-1.1,28-3.43A81.38,81.38,0,0,0,278.08,174c12.52-7.92,23.81-17.56,35.33-26.81,12.93-10.39,26.35-20.41,41.76-26.82l-44.86,1.22c1.09,3.94-.68,7.64-2.69,11s-4.09,6.45-6.24,9.61c-4.31,6.34-8.82,12.54-13,18.93a134.59,134.59,0,0,0-11.11,19.76,79,79,0,0,0-3.82,10.63c-1,3.63-1.43,7.22,2.45,9.22,2.79,1.44,7,1.59,10,1.84a166.07,166.07,0,0,0,20.5.16c10.58-.44,21.95-1.08,31.85-5.22,2.72-1.14-2.63-2-2.39-1.93a74,74,0,0,0-13.69-.63,169.09,169.09,0,0,0-17.58,1c-3.46.42-7.18.67-10.42,2l-1.46.59c-.86.33-.8.17,0,0-.38.08-1.15.47-1.53.38l2-.39a73.19,73.19,0,0,1,12.59-.81c4.63-.2,9.06-.65,13.63-.18q1.67.2.71.06-.74-.12.27.08c1,.64.1,0-.28-.18a6.2,6.2,0,0,1-1.26-.77l.85.67c-2.58-2.61-1-6.64-.11-9.67a82,82,0,0,1,3.91-10.19,141.93,141.93,0,0,1,11.12-19.35c4.11-6.17,8.46-12.18,12.63-18.32,2.08-3.06,4.13-6.14,6-9.3,2-3.33,3.78-7,2.69-11-.39-1.41-6.56-1.56-6.77-1.58-4.37-.3-8.76-.28-13.14-.16-4.85.13-9.73.36-14.54.94-3.46.42-7.18.68-10.42,2-30.3,12.59-51.91,38.5-79.65,55.21a79.75,79.75,0,0,1-13.26,6.58l-1.46.52c1.22-.44.51-.16-.31.07l-1.49.39c-2.23.55.09.23.91-.12a8.94,8.94,0,0,1-1.52.25A62.62,62.62,0,0,1,222,183a112.21,112.21,0,0,1,20.87,0c.41.09,1.68.69.33,0a15.22,15.22,0,0,1-1.78-1l.85.67c-5.32-4.42-1.18-11.9,2-16.31,5.22-7.28,10.61-14.46,15.91-21.69l31.55-43c.65-.89-8.05-1.67-6.77-1.58-4.37-.3-8.76-.28-13.14-.16-4.85.13-9.73.36-14.54.94l-4.6.61a25.29,25.29,0,0,0-5.82,1.42L160.56,171.8,136,191.43l44.86-1.22c-.51-8,4.55-14.75,8.88-21,4.92-7.08,10-14,15.17-21q15.65-21,31.42-42l17.87-23.87c.66-.88-8.06-1.67-6.77-1.58-4.37-.3-8.76-.28-13.14-.16-4.85.13-9.73.36-14.54.94-3.23.39-7.56.38-10.42,2-22.6,13-42.66,29.85-62.11,47.13-19.61,17.42-38.78,35.45-60,51-5.92,4.35-12,8.52-18.26,12.35a100.93,100.93,0,0,1-10.07,5.5c-1.79.83-3.61,1.56-5.46,2.25-.13,0-1.37.48-.35.14s-.9.25-1.12.32c-1,.28-2,.51-3.07.73l42.59-.5c-.48-8,3.52-15.23,7.33-22s7.74-13.18,11.94-19.56a431.44,431.44,0,0,1,27.3-36.71c19.55-23.74,41-45.82,62.18-68.09,12-12.61,23.91-25.29,35.39-38.38.71-.81-8.13-1.67-6.77-1.58-4.37-.3-8.76-.28-13.14-.16-8.24.23-17.07.36-25,3C176,23.91,163.45,33.56,150.83,42.33c-13.47,9.36-26.92,18.73-40.26,28.26-26.05,18.59-52.17,37.5-76.32,58.54C21.54,140.19,9.55,152.22,0,166.19c-.62.92,8,1.68,6.77,1.58a128.26,128.26,0,0,0,16.17.08,128.34,128.34,0,0,0,16.11-1.46c1.89-.33,5.43-.42,6.61-2.15Z"/><path class="cls-2" d="M214.53,183.78c-1.45.39.36.13,1.19-.17h-.08A9.14,9.14,0,0,1,214.53,183.78Z"/><path class="cls-2" d="M310.31,121.63c1.09,3.94-.68,7.64-2.69,11s-4.09,6.45-6.24,9.61c-4.31,6.34-8.82,12.54-13,18.93-2.22,3.37-4.37,6.81-6.35,10.33,11-7.39,21.11-16,31.42-24.25,12.93-10.39,26.35-20.41,41.76-26.82Z"/><path class="cls-2" d="M319.4,197.61l.68.08c-.37-.08-.36-.09,0,0l.24,0-.25-.13a5.2,5.2,0,0,1-.59-.31l.18.21-.85-.67a7.82,7.82,0,0,0,.66.45,4.77,4.77,0,0,1-1.1-2.21c-4.62.13-9.25.39-13.84.94-3.46.42-7.18.67-10.42,2l-1.46.59h0l-.09,0-.45.15-.09,0,1.09-.21a73.19,73.19,0,0,1,12.59-.81C310.4,197.59,314.84,197.14,319.4,197.61Z"/><path class="cls-2" d="M320.35,197.71l0,0C320.49,197.73,320.48,197.73,320.35,197.71Z"/><path class="cls-2" d="M320.39,197.75c.79.51.38.2,0,0l-.3,0Z"/><path class="cls-2" d="M126.94,87.29q-4.39,4.69-8.74,9.44,6.44-4.81,12.9-9.57c21.79-16.09,44-31.58,66.27-47,11.83-8.22,23.64-17,37.47-21.57L190,19.78C169.67,42.93,148,64.81,126.94,87.29Z"/><path class="cls-2" d="M70.65,135.55l.39-.37-.79.74Z"/><path class="cls-2" d="M157.33,160.42c20-17.18,39-35.52,59.63-52a293.21,293.21,0,0,1,36.41-25.25l-44.86,1.22L177,126.5c-10.4,13.89-21,27.68-30.95,41.86-.82,1.17-1.69,2.36-2.57,3.58Q150.5,166.31,157.33,160.42Z"/><path class="cls-2" d="M290.91,102.47,246,103.7,214,147.43c-5.25,7.15-10.65,14.21-15.74,21.48-2.15,3.07-4.28,7.13-4.08,10.77l72.16-57.57Z"/><path class="cls-2" d="M107.84,165.5c-6.71,5.62-13.55,11.09-20.62,16.28-5.92,4.35-12,8.52-18.26,12.35a101,101,0,0,1-10.07,5.5c-1.79.83-3.61,1.56-5.46,2.25l-.15.05c.22-.06.25-.07-.2.08-.84.28-.14,0,.2-.08l-1.32.4c-1,.28-2,.51-3.07.73l42.59-.5c-.48-8,3.52-15.23,7.33-22Q103.11,172.9,107.84,165.5Z"/><path class="cls-2" d="M242.81,168.58c-3.69,2.65-7.47,5.18-11.36,7.53a79.76,79.76,0,0,1-13.26,6.58l-1.06.38h0l-.21.07-.22.08.22-.08.18-.06-.71.22-1.49.39-.4.1,1.11-.16.2-.06-.12,0A62.62,62.62,0,0,1,222,183a112.22,112.22,0,0,1,20.87,0c.41.09,1.68.69.33,0-.49-.24-1-.46-1.43-.74.16.15.32.3.5.45l-.85-.67.35.21C237.9,178.52,240.17,172.83,242.81,168.58Z"/><path class="cls-2" d="M189.7,169.23c4.92-7.08,10-14,15.17-21q10.94-14.7,21.94-29.34L160.56,171.8,136,191.43l44.86-1.22C180.31,182.21,185.37,175.46,189.7,169.23Z"/><path d="M200,18.85a3.86,3.86,0,0,1,2.73-7.22A2.88,2.88,0,0,0,206.41,10a3.86,3.86,0,1,1,7.22,2.73A10.61,10.61,0,0,1,200,18.85Z"/><path d="M167.47,23.11c0-.55-.18-6.79,1.45-11.1C172.82,1.68,182-2.46,192.36,1.45c10,3.77,14.4,14.7,10.34,25.42a3.86,3.86,0,1,1-7.22-2.73c3-8-.92-13.6-5.85-15.47-6.4-2.42-11.06-.33-13.48,6.06-.9,2.38-.9,7.78-.85,8.83a24.67,24.67,0,0,0-5.61-1.2C167.69,22.37,167.47,23.11,167.47,23.11Z"/><path d="M179.26,37.42A3.86,3.86,0,0,1,182,30.2c6.76,2.56,12-2.12,14.17-7.89L203.39,25C199.26,35.95,189.11,41.15,179.26,37.42Z"/><path d="M161.37,50.08a15.78,15.78,0,0,0-11.14,9.77c-3,7.86,1.72,17.52,10,20.67l7.81,3a3.86,3.86,0,1,1-2.73,7.22l-7.81-3C145.15,83.05,138.49,69,143,57.11a23.45,23.45,0,0,1,13.52-13.59Z"/><path d="M180.07,53.95l-12.66-4.79a3.86,3.86,0,0,1,2.73-7.22l12.66,4.79a3.86,3.86,0,1,1-2.73,7.22Z"/><path d="M190.14,79.08a3.86,3.86,0,0,1-2.24-5c3-8-.94-17.55-8.51-20.42a3.86,3.86,0,0,1,2.73-7.22c11.61,4.4,17.56,18.3,13,30.37A3.86,3.86,0,0,1,190.14,79.08Z"/><path d="M164,90.17a3.86,3.86,0,0,1,2.73-7.22c8.32,3.15,18.24-1,21.21-8.84a3.86,3.86,0,1,1,7.22,2.73C190.61,88.75,176.34,94.86,164,90.17Z"/><path d="M165.91,48.58A11.45,11.45,0,1,1,174,27.17l9.77,3.7A3.86,3.86,0,0,1,181,38.09l-9.77-3.7a3.72,3.72,0,0,0-2.64,7,3.86,3.86,0,1,1-2.73,7.22Z"/><path d="M299.2,201.54a4.35,4.35,0,0,1-4.35-4.35V136.65c.09-.38.75-2.9,3.21-2.9,2.21,0,4.63,3.1,5.48,4.44v59A4.35,4.35,0,0,1,299.2,201.54Z"/><path d="M303.55,114.92a11.09,11.09,0,0,0-4.48-1,9.61,9.61,0,0,0-4.21,1V61.06a4.35,4.35,0,0,1,8.69,0Z"/><path d="M106.92,201.52a4.35,4.35,0,0,1-4.35-4.35V150.66l8.69-5.91v52.43A4.35,4.35,0,0,1,106.92,201.52Z"/><path d="M266.75,201.54a4.35,4.35,0,0,1-4.35-4.35v-52c0-7.08-6.69-15.31-15.31-15.31-4.19,0-10.33,4.7-14.82,8.13l-.27.21c-.05,0-7.44,4.9-9.57,5.75a7.24,7.24,0,0,1-1.55.17A12.3,12.3,0,0,1,208.74,132c0-6,6.12-12.13,12.13-12.13,2.76,0,6.27,1.87,8.52,4.5l-6.49,5.37a2.39,2.39,0,0,0-2-1.17h-.09a3.33,3.33,0,0,0-3.41,3.44c0,2.12,1,3.2,3.11,3.42h.13l.12,0a12.47,12.47,0,0,0,2.08-1.24l8.83-6.56c4.2-3,9.76-6.4,15.39-6.4,11.33,0,24,10.26,24,24v52A4.35,4.35,0,0,1,266.75,201.54Zm-39.31-.63a4.35,4.35,0,0,1-4.35-4.35V149.76l8.69-6.43v53.23A4.35,4.35,0,0,1,227.44,200.91Z"/><path d="M100.43,144.13A12.3,12.3,0,0,1,88.3,132c0-6,6.12-12.13,12.13-12.13A10.88,10.88,0,0,1,108.5,124l-6.86,5.26a2.21,2.21,0,0,0-1.84-.73h-.35A3.16,3.16,0,0,0,96.38,132c0,2.17,1.37,3.42,3.77,3.42h.1l.09,0a13.93,13.93,0,0,0,2.34-1.42l8.58-6.38c.75-.53,1.46-1,2.15-1.46,5.16-3.37,9.37-4.94,13.24-4.94a23.89,23.89,0,0,1,17.29,7.21,4.35,4.35,0,1,1-6.3,6,15.16,15.16,0,0,0-11-4.51c-4.19,0-10.34,4.7-14.83,8.13C107.17,141.56,103.81,144.13,100.43,144.13Z"/><path d="M50.59,201.52a4.35,4.35,0,0,1-4.35-4.35V136.29c.34-.52,1.92-2.66,4.35-2.66s4,2.14,4.35,2.66v60.89A4.35,4.35,0,0,1,50.59,201.52Z"/><path d="M46.25,71a4.35,4.35,0,0,1,8.69,0v43.32a9.81,9.81,0,0,0-4.17-.91,11.37,11.37,0,0,0-4.52,1Z"/><path d="M73.69,151.88a4.33,4.33,0,0,1-3.87-2.37c-.93-1.81-2-3.65-3.07-5.47l-.36-.6-.46.52a39.62,39.62,0,0,1-6,5.43l-.17-11a11.77,11.77,0,0,1,1.18-2l.26-.32-.26-.33c-2.41-3-7-8.05-10.25-8.05-4.11,0-9,4.53-9,8.36v.91l.1,12.84c-5.37-3.57-8.79-8.89-8.79-13.75,0-8.61,8.75-17.05,17.66-17.05,4.7,0,9.83,3.08,15.22,9.15l.47.52.36-.6c1.07-1.77,2.1-3.61,3.05-5.49a4.35,4.35,0,0,1,7.74,4,99.48,99.48,0,0,1-5.4,9.23L72,136l.19.28a99.34,99.34,0,0,1,5.4,9.23,4.35,4.35,0,0,1-1.9,5.85A4.29,4.29,0,0,1,73.69,151.88Z"/><path d="M50.59,76.5c-2.56,0-4.35-1.57-4.35-3.82A34.93,34.93,0,0,1,81.14,37.79a4.35,4.35,0,0,1,0,8.69,26.23,26.23,0,0,0-26.2,26.2C54.94,74.94,53.15,76.5,50.59,76.5Z"/><path d="M101.86,54.58a4.33,4.33,0,0,1-2.95-1.15,26.12,26.12,0,0,0-17.77-6.95,4.35,4.35,0,1,1,0-8.69A34.79,34.79,0,0,1,104.81,47a4.35,4.35,0,0,1-2.95,7.54Z"/><path d="M194,201.52a4.35,4.35,0,0,1-4.34-4.14l8.69-9v8.83A4.35,4.35,0,0,1,194,201.52Z"/><path d="M189.7,145.9c0-9.34-6.27-16.13-14.91-16.13-9.65,0-13.09,8.33-13.09,16.13a4.35,4.35,0,0,1-8.69,0c0-14.61,9-24.82,21.78-24.82,13.46,0,23.6,10.67,23.6,24.82v13.33l-8.69,12.85Z"/><path d="M170.82,201.52a22.07,22.07,0,0,1,0-44.14c5.24,0,9.26,1.46,13.82,5l.08,11.25c-1.3-.92-3.76-2.68-4.54-3.3-3.54-2.81-6.78-4.29-9.37-4.29a13.38,13.38,0,0,0,0,26.76c5.15,0,12.59-5.84,20.42-16a144.54,144.54,0,0,0,11.19-17.13,4.35,4.35,0,1,1,7.66,4.11,151.73,151.73,0,0,1-12,18.31C188.23,195,179,201.52,170.82,201.52Z"/><path d="M363.45,201.68a4.33,4.33,0,0,1-3.66-2l-1.42-1.89c-3.61-4.77-15.93-19.54-26.49-33.9-5.59-7.59-10.7-14.14-15.19-19.46l-.34-.4-.4.35a46.8,46.8,0,0,1-7,5.36l0-10.74.33-.25.24-.21.72-.65.4-.35-.37-.39c-7.28-7.68-10.13-8.65-10.84-8.76h-.09c-4.12,0-8.91,3.69-8.91,8.36a6.67,6.67,0,0,0,.18,1.55l-.71,10.84-.58-.18c-5.38-3.31-7.58-6.85-7.58-12.21,0-9.09,8.25-17.05,17.66-17.05,2.91,0,7.49,1.3,17.16,11.45l.37.39.37-.38c4.3-4.34,9.17-9.64,14.49-15.75,12.86-14.78,18.66-21.61,18.82-21.82a4.35,4.35,0,0,1,6.92,5.27c-.19.25-6,7.16-19.35,22.45-5.54,6.36-10.63,11.88-15.12,16.39l-.34.34.31.36c4.49,5.3,9.66,11.91,15.37,19.64,10.55,14.29,22.82,29.07,26.93,34.53L367.1,195a4.35,4.35,0,0,1-3.66,6.69Z"/><path d="M287.89,147.22"/><path d="M218.35,71.16c-10.09-4.23-14-15.43-9.3-26.61a3.59,3.59,0,0,1,6.63,2.78c-2.65,6.31-2,14.08,5.46,17.21a13.77,13.77,0,0,0,18-7.36l1.15-3c1.18.41,5.45.07,6.16.16.42.05,1.51-.5,1.5-.21,0,.89-1.06,3.17-2.33,6.21A21,21,0,0,1,218.35,71.16Z"/><path d="M211.37,48.3a3.6,3.6,0,0,1-1.92-4.7L214,32.84c4.62-11,16-16,26.46-11.6S256.05,38.95,251,47.57c-1,1.71-3.17,3.37-5,2.6a3.6,3.6,0,0,1-1.92-4.7c3.08-7.35.39-14.75-6.41-17.6s-14,.41-17.05,7.76l-4.52,10.76A3.6,3.6,0,0,1,211.37,48.3Z"/><path d="M241.09,34.69c-.3-.41-1,.18-1.43.37A8.85,8.85,0,0,0,235,46.47c1.66,4,7.42,6.36,11.41,4.7A8.15,8.15,0,0,0,251.1,46l-6.36-2.12c.08.87-1.41,1.3-1.57,1.4a1.82,1.82,0,0,1-2.4-1.18,2.55,2.55,0,0,1,1.7-3.12A8.56,8.56,0,0,0,241.09,34.69Z"/><path d="M254.52,41s5,.07,6.17.28c3.69.66,5.13-6.48.43-6.71C260.07,34.49,254,34,254,34A22.61,22.61,0,0,1,254.52,41Z"/></g></g></svg>