<svg xmlns="http://www.w3.org/2000/svg" viewBox="0 0 375.5 132.94"><defs><style>.cls-1{fill:#00e2ff;}</style></defs><title>gf-logo-14</title><g id="Layer_2" data-name="Layer 2"><g id="Layer_1-2" data-name="Layer 1"><path d="M34.35,45.2H24.81c2.84-4.36,5.89-7.79,11.46-7.64,2.67.07,5.34,0,8.11,0-.46,5.91-1.21,11.54-1.26,17.17s.62,11.12,1,16.78L34.8,73l-1.94-6.34c-1.1.72-2.17,1.4-3.22,2.11a23.42,23.42,0,0,1-7.81,3.74c-7.55,1.78-14.9-1.22-18.19-9.36A40.06,40.06,0,0,1,1.05,49.68,77.52,77.52,0,0,1,6,17.46C10.17,7.07,18.51,2,29,.15c3.14-.57,6.2.57,8.92,2.28,4,2.5,6.75,6.12,9.2,10.41l-8.86,4.8c-1.89-2.17-3.62-4.36-5.58-6.34A15.79,15.79,0,0,0,24.5,7c-4-.82-6.69.36-8.75,3.89a35.91,35.91,0,0,0-3.9,11c-2,10-2.6,20-.24,30a40.31,40.31,0,0,0,3.32,8.35,12,12,0,0,0,5.45,5.3c4.19,2.16,7.95,1.1,10.38-2.9a11.35,11.35,0,0,0,.91-1.79C33.58,55.81,34,50.62,34.35,45.2Z"/><path d="M318.83,1.53,329.34.2c-1.19,9.23-2.15,18.39-2.49,28,2.64-1.52,4.94-2.89,7.27-4.18,3.23-1.79,6.5-3.5,10.21-4.06,4.12-.62,6.65,1.18,7.37,5.29A13.63,13.63,0,0,1,348,37.54a52.73,52.73,0,0,1-10.63,8.14l-4.67,2.92C337,56,342.87,62,348.59,68.28l-7.71,5.41c-6-5.46-11-12-16.07-19.11-1.57,5.84-1.29,11.37-1.48,16.89l-10.73,1.14c.34-7.71,1.66-15.51,2.21-23.37.56-8,1.45-16,2.14-24.06S318.2,9.4,318.83,1.53Zm6,48.28C332,47,337.61,42.94,340.59,36a14.49,14.49,0,0,0,1-6.18c-.18-3.9-2.55-5-5.85-2.95A21.9,21.9,0,0,0,327.57,36,25,25,0,0,0,324.83,49.81Z"/><path d="M299.11,71.49,288.8,72.8a9.49,9.49,0,0,1-.36-2c.12-5.36.22-10.72.47-16.08.28-5.92.79-11.83,1.07-17.75a16.32,16.32,0,0,0-1.46-8.17c-1.7-3.44-3.53-3.82-6.08-1a32,32,0,0,0-8,15.62c-.95,5-1.5,10.16-2.06,15.26-.46,4.21-.66,8.44-1,12.76L261,72.71l4.62-51.81c1.71-.08,3.46-.06,5.19-.26s3.47-.62,5.39-1l-.59,6.74c1.54-.78,2.62-1.31,3.69-1.86,3.76-2,7.57-3.84,11.8-4.59,3.64-.65,5.72.33,7.47,3.57a16.11,16.11,0,0,1,2,8.38c-.22,5.36-.68,10.7-1,16.05s-.79,10.48-1,15.72A72.2,72.2,0,0,0,299.11,71.49Z"/><path d="M243,22.91l8.42-3.62c-.26,2-.42,3.67-.68,5.29a241.6,241.6,0,0,0-2.67,26c-.24,5-.56,10.06.09,15.08.24,1.88.5,3.75.77,5.78l-11.26,1.33-1.28-5.25c-1.7.89-3.36,1.81-5.06,2.62-1.51.72-3,1.4-4.62,2-6.64,2.4-10.42-.64-13.14-4.85a23.17,23.17,0,0,1-3.47-10.41c-1-10.05.94-19.38,7.68-27.28a31.16,31.16,0,0,1,13.73-9.27,9.69,9.69,0,0,1,8.37.77C240.8,21.62,241.75,22.2,243,22.91Zm-3.4,9.24a25.47,25.47,0,0,0-10.54-5c-2.2-.5-3.65,0-4.77,1.93-5.81,9.9-6.95,20.12-1.91,30.66a17.21,17.21,0,0,0,3.54,4.81c2.77,2.68,5.82,2.48,8-.66a15.6,15.6,0,0,0,2.77-6.34C237.81,49.17,238.61,40.73,239.57,32.15Z"/><path d="M143.35,34.45h21.83l-3.1,7.74H143c-.52,5.11-.33,10-.57,14.9s-.48,9.57-.73,14.38l-10.66,1.18L134.41,6c1.77-1.25,3.84-2.76,6-4.18a3.54,3.54,0,0,1,1.85-.53c9,0,17.9,0,27.14,0l-2.9,7.3H144.79Z"/><path d="M55.52,48.55A52.51,52.51,0,0,1,58.7,32.11a15.73,15.73,0,0,1,9-9.87A32.9,32.9,0,0,1,79,19.63,11.33,11.33,0,0,1,87.51,23a18.48,18.48,0,0,1,5.3,10.27c2.4,13-1.2,24.12-10.84,33.18a38.66,38.66,0,0,1-6.08,4.72c-4.39,2.71-8.76,2.21-12.65-1.18-3.72-3.23-5.56-7.54-6.55-12.19C56,54.8,55.9,51.65,55.52,48.55Zm10-5.86c.38,3.43.56,6.89,1.18,10.27a16.6,16.6,0,0,0,6.84,11.1c3,2.11,5.47,1.39,7-2a11.82,11.82,0,0,0,.61-1.55,47.36,47.36,0,0,0,1.33-22.49,28.85,28.85,0,0,0-3.18-8A10.22,10.22,0,0,0,73,25c-2.08-.58-3.11-.14-4.17,1.74a16.87,16.87,0,0,0-.89,2.15C66.17,33.29,65.87,38,65.57,42.69Z"/><path d="M184.82,71.54,174.29,72.6l3.63-51.65,10.29-1v4.89c2-1,3.61-1.87,5.27-2.66s3.07-1.33,4.6-2a3.92,3.92,0,0,1,5.3,1.42,51.81,51.81,0,0,1,3.51,6.79,22.88,22.88,0,0,1,1,3.62l-9.22,4.93c-.5-1.06-.93-2-1.43-3a45.86,45.86,0,0,0-3.05-5.55c-1.26-1.75-2.94-1.6-4,.3a15.24,15.24,0,0,0-1.78,4.65c-.78,4.39-1.55,8.81-1.91,13.25-.64,7.91-1,15.85-1.44,23.78C185,70.73,184.89,71.06,184.82,71.54Z"/><path d="M364.42,2.25,375,.44c-.07.45-.2,1.15-.3,1.85-1,6.74-2.07,13.47-2.84,20.23s-1.28,13.36-3.39,19.77c-.8,2.43-2,4.73-2.87,7.13s-2.62,3.18-4.84,3.48l-2.77.36C362.44,36.5,363.41,19.41,364.42,2.25Z"/><path d="M362.18,73.93l-6-6.4,7.37-7.06c.92,1.1,1.89,2.4,3,3.56s2.28,2.06,3.33,3Z"/><path class="cls-1" d="M374.59,100.79a283.79,283.79,0,0,1-20.4,20.69c-1.34,1.23-15.91,12.41-16.68,11a89.29,89.29,0,0,1-8-19.18l18.82-13.22-9.16,15.72c-1.11,1.91-17.85,14.75-18.82,13.22L311,114.37l18.82-13.22a72.54,72.54,0,0,1-6.62,11.66c-4.68,6.67-12.23,11.88-19.26,15.74-1.62.89-3.49,2-5.35,1.08-1.62-.81-2.41-2.93-3.16-4.43l-6.8-13.47,18-12.31c-3.31,3.73-4.93,9-7.52,13.19a31,31,0,0,1-5.79,6.86A79.1,79.1,0,0,1,276,131.66c-3,1.48-4.93,1.3-6.44-1.8-1-2.08-1.93-4.21-2.89-6.31-2.21-4.83-4.4-9.67-6.63-14.49l18.82-13.22-12,19.43c-1.16,1.88-18.12,14.57-18.82,13.22l-5.54-10.63c-.84-1.6-3.14-8.15-6-6.73l6-3.66q12.38-10.75,7.86-6l-.73.83-2.19,2.48-4.75,5.38-9.13,10.34c-1.34,1.52-17.27,13.71-18,12.31-2.2-4.07-1.74-8.66-2.19-13.11-.39-3.9-2.06-9.88-6.83-9.86l-.58.14,14.16-10.25c.06-.12.51-.81,0,0-.29.5-.64,1-.93,1.48a28.25,28.25,0,0,0-1.6,3.52c-1,2.54-1.75,5.15-2.68,7.71a17.52,17.52,0,0,1-3.47,6.28,60.56,60.56,0,0,1-9.76,7.88c-2.58,1.81-6.06,4.87-9.31,5.46-3.68.66-6-4-7.77-6.53L176,113.19c-1.07-1.55,18.06-15,19-13.72l7.42,10.75c2.1,3,4,6.85,7.6,8.19,0,0,.27,0,.25,0l.24-.07-16.77,12c.23-.4.54-.76.77-1.16a21.78,21.78,0,0,0,1.47-3.3c.95-2.53,1.7-5.13,2.65-7.66a22,22,0,0,1,3.7-6.83,45.41,45.41,0,0,1,6.85-6.06A68.73,68.73,0,0,1,222,97c2.39-1.11,4.94-1.57,6.92.49a12.62,12.62,0,0,1,3.07,6.42c1,5.08-.08,10.47,2.48,15.18l-18,12.31c8.74-9.91,16.87-20.42,27.76-28.07,3.81-2.68,11.49-9.73,15.06-3.43,2.75,4.85,5.17,9.91,7.75,14.85L248.23,128l12-19.43c1.18-1.91,18.27-14.42,18.82-13.22q2.51,5.43,5,10.88c1.64,3.6,3,7.8,5.15,11.11,2.51,3.82,5.62-1.25-4.65,6.44q-9.42,7.91-6.26,4.62a1.36,1.36,0,0,0,.28-.31c.3-.4.6-.8.88-1.21a50.63,50.63,0,0,0,3.2-5.52c2-3.92,3.95-7.72,6.9-11,1.34-1.52,17.35-13.65,18-12.31l5.54,11c.57,1.13,3.35,8.4,5.67,7.2l-13.23,9c-4.57,3.7-1.55,1-.47-.54q1.17-1.71,2.23-3.49a74,74,0,0,0,3.8-7.31c1-2.09,17.94-14.61,18.82-13.22l9.34,14.69-18.82,13.22,9.16-15.72c.79-1.36,2.82-2.81,3.95-3.72,1.93-1.57,3.93-3.06,6-4.49.7-.49,8.72-5.64,8.9-5a89.29,89.29,0,0,0,8,19.18l-16.68,11a248,248,0,0,0,17.71-18.16c3.44-3.89,8.37-7,12.73-9.73,1.26-.79,3.27-2.55,4.77-2.58,1.15,0-.05,1-.43,1.42Z"/><path class="cls-1" d="M198.59,100.79a283.79,283.79,0,0,1-20.4,20.69c-1.34,1.23-15.91,12.41-16.68,11a89.29,89.29,0,0,1-8-19.18l18.82-13.22-9.16,15.72c-1.11,1.91-17.85,14.75-18.82,13.22L135,114.37l18.82-13.22a72.54,72.54,0,0,1-6.62,11.66c-4.68,6.67-12.23,11.88-19.26,15.74-1.62.89-3.49,2-5.35,1.08-1.62-.81-2.41-2.93-3.16-4.43l-6.8-13.47,18-12.31c-3.31,3.73-4.93,9-7.52,13.19a31,31,0,0,1-5.79,6.86A79.1,79.1,0,0,1,100,131.66c-3,1.48-4.93,1.3-6.44-1.8-1-2.08-1.93-4.21-2.89-6.31-2.21-4.83-4.4-9.67-6.63-14.49l18.82-13.22-12,19.43c-1.16,1.88-18.12,14.57-18.82,13.22l-5.54-10.63c-.84-1.6-3.14-8.15-6-6.73l6-3.66q12.38-10.75,7.86-6l-.73.83-2.19,2.48-4.75,5.38-9.13,10.34c-1.34,1.52-17.27,13.71-18,12.31-2.2-4.07-1.74-8.66-2.19-13.11-.39-3.9-2.06-9.88-6.83-9.86l-.58.14L44.09,99.75c.06-.12.51-.81,0,0-.29.5-.64,1-.93,1.48a28.25,28.25,0,0,0-1.6,3.52c-1,2.54-1.75,5.15-2.68,7.71a17.52,17.52,0,0,1-3.47,6.28,60.56,60.56,0,0,1-9.76,7.88c-2.58,1.81-6.06,4.87-9.31,5.46-3.68.66-6-4-7.77-6.53L0,113.19c-1.07-1.55,18.06-15,19-13.72l7.42,10.75c2.1,3,4,6.85,7.6,8.19,0,0,.27,0,.25,0l.24-.07-16.77,12c.23-.4.54-.76.77-1.16a21.78,21.78,0,0,0,1.47-3.3c.95-2.53,1.7-5.13,2.65-7.66a22,22,0,0,1,3.7-6.83,45.41,45.41,0,0,1,6.85-6.06A68.73,68.73,0,0,1,46,97C48.43,95.9,51,95.43,53,97.5A12.62,12.62,0,0,1,56,103.92c1,5.08-.08,10.47,2.48,15.18l-18,12.31c8.74-9.91,16.87-20.42,27.76-28.07,3.81-2.68,11.49-9.73,15.06-3.43,2.75,4.85,5.17,9.91,7.75,14.85L72.23,128l12-19.43c1.18-1.91,18.27-14.42,18.82-13.22q2.51,5.43,5,10.88c1.64,3.6,3,7.8,5.15,11.11,2.51,3.82,5.62-1.25-4.65,6.44q-9.42,7.91-6.26,4.62a1.36,1.36,0,0,0,.28-.31c.3-.4.6-.8.88-1.21a50.63,50.63,0,0,0,3.2-5.52c2-3.92,3.95-7.72,6.9-11,1.34-1.52,17.35-13.65,18-12.31l5.54,11c.57,1.13,3.35,8.4,5.67,7.2l-13.23,9c-4.57,3.7-1.55,1-.47-.54q1.17-1.71,2.23-3.49a74,74,0,0,0,3.8-7.31c1-2.09,17.94-14.61,18.82-13.22l9.34,14.69-18.82,13.22,9.16-15.72c.79-1.36,2.82-2.81,3.95-3.72,1.93-1.57,3.93-3.06,6-4.49.7-.49,8.72-5.64,8.9-5a89.29,89.29,0,0,0,8,19.18l-16.68,11a248,248,0,0,0,17.71-18.16c3.44-3.89,8.37-7,12.73-9.73,1.26-.79,3.27-2.55,4.77-2.58,1.15,0-.05,1-.43,1.42Z"/></g></g></svg>