<svg xmlns="http://www.w3.org/2000/svg" viewBox="0 0 270.26 157.12"><defs><style>.cls-1{fill:#00e2ff;}</style></defs><title>gf-logo-11</title><g id="Layer_2" data-name="Layer 2"><g id="Layer_1-2" data-name="Layer 1"><path class="cls-1" d="M.25,129.14A66.74,66.74,0,0,0,16.5,151c1.86,1.65,8.7-5.58,9.45-6.33,3.84-3.85,8.19-8.44,10.26-13.55l8.93-22L25.42,129a76.65,76.65,0,0,0,23.29,22.26c2.13,1.32,7.18-4.17,8.15-5.09,3.81-3.62,8-7.94,10.45-12.64a76,76,0,0,1,9.42-14.34L62,131.45A40.58,40.58,0,0,0,81.24,151c3,1.44,9.39-6.25,10.82-7.78,3.35-3.58,8.56-8.6,9.38-13.69.7-4.37,1.86-8.72,4.49-12.33L89,132.36a108.28,108.28,0,0,0,25.19,23.13c2.58,1.71,9.67-6.56,10.82-7.78,3.62-3.86,8-8.44,9.38-13.69a33,33,0,0,1,2-5.58c.7-1.5,2.35-3.35-.62.07l-12.18,9.23A37.57,37.57,0,0,0,144.13,157c3.19,1.25,9.21-6.06,10.82-7.78,3.43-3.66,8.41-8.54,9.38-13.69a86,86,0,0,1,7.27-21.87l-19.71,19.87a73.26,73.26,0,0,0,29.59,19.77c3.27,1.18,9.14-6,10.82-7.78,3.05-3.26,9.12-8.87,9.38-13.69a32.25,32.25,0,0,1,4.82-16.19l-18.6,17.73A42.79,42.79,0,0,0,211.58,156c2.72,1.07,8-4.89,9.45-6.33,3.91-3.93,8-8.44,10.26-13.55l10.29-22.92-19.71,19.87A50.66,50.66,0,0,0,250,153.31c3.88,1.11,10-6.79,12.18-9.23.69-.77,9.87-12.56,7.78-13.16a50.66,50.66,0,0,1-28.12-20.2c-2.44-3.55-18.66,17.53-19.71,19.87l-10.29,22.92,19.71-19.87A42.79,42.79,0,0,1,207.85,111c-.76-1.71-8.12,5.06-8.15,5.09a67.66,67.66,0,0,0-10.45,12.64,48.63,48.63,0,0,0-8,23.68l20.19-21.47a73.26,73.26,0,0,1-29.59-19.77c-3.3-3.62-18.51,17.39-19.71,19.87a99.2,99.2,0,0,0-8.23,25.06l20.19-21.47a37.57,37.57,0,0,1-20.53-19.24c-1.09-2.31-12.1,9.13-12.18,9.23-7.76,8.95-14.34,18.43-17.41,30l20.19-21.47A108.28,108.28,0,0,1,109,110c-2.39-3-15.82,13.65-16.92,15.15-5.5,7.54-9.55,15.71-11,25l20.19-21.47a40.58,40.58,0,0,1-19.27-19.56c-1.21-2.58-14.56,12-14.76,12.28a140.85,140.85,0,0,0-17.1,25.23l18.6-17.73a76.65,76.65,0,0,1-23.29-22.26C43,103.11,26.67,124,25.67,126.46l-8.93,22,19.71-19.87a66.74,66.74,0,0,1-16.24-21.83C19.17,104.5,8.81,115.11,8,116,6,118.29-1.46,125.47.25,129.14Z"/><path d="M103.18,69c-2.62-.29-5.65-.55-8.66-1a14.92,14.92,0,0,1-3.31-1.28c-4-1.7-7.29-4.36-8.79-8.53s-3.16-8.12-3.18-12.58c0-1-.29-2.05-.3-3.08,0-2,0-4,.12-6a24.53,24.53,0,0,1,.64-3.33,26.69,26.69,0,0,1,5.39-11.55,18.68,18.68,0,0,0,2.24-3.28,13.82,13.82,0,0,1,3.18-3.85c2-1.88,4-3.81,6-5.68.61-.57,1.32-1,2-1.56,1.11-.89,2.2-1.79,3.31-2.67.5-.4,1-.75,1.54-1.13s.93-.49,1.18-.87C105.62.91,107.39.53,109.13.25A15.55,15.55,0,0,1,119.74,2a29.62,29.62,0,0,1,4.72,4,1.54,1.54,0,0,1,.28,1.34,3.48,3.48,0,0,1-4.86,1.85,22.37,22.37,0,0,0-4.75-1.52,6.12,6.12,0,0,0-5.72,2.05c-1.45,1.45-3.26,2.52-4.85,3.82-1.9,1.56-3.79,3.15-5.61,4.8a17.55,17.55,0,0,0-2.43,2.77Q94.46,24,92.6,27c-1,1.67-2,3.41-2.89,5.14-1.37,2.53-1.24,5.36-1.45,8.09a54.54,54.54,0,0,0-.1,8,25.84,25.84,0,0,0,1.27,5.14,38,38,0,0,0,1.4,4.22,5.93,5.93,0,0,0,3.27,3.63,15.07,15.07,0,0,0,9.41.42,60.3,60.3,0,0,0,8.13-2.69A7,7,0,0,0,114,57.37c2-2.1,4-4.25,5.81-6.49,1.67-2,.95-4.46-1.29-5.89a14.33,14.33,0,0,0-6.05-1.77,1.87,1.87,0,0,0-1.37.3c-1.4,1.32-3.15,1.21-4.86,1.41s-3.18-.77-4.6-1.62c-.42-.25-.83-.53-1.27-.77a1.77,1.77,0,0,1-.47-3c1.49-1.51,3-2.89,5.35-3.14,1.46-.16,2.85-.82,4.31-1,2.62-.39,5.06.62,7.51,1.32a35.12,35.12,0,0,1,5.68,2c2.68,1.29,5.21,2.84,6.59,5.71a11.75,11.75,0,0,1,.89,7.77,5.34,5.34,0,0,1-1.27,2.14c-1.69,2-3.45,3.91-5.19,5.85-1.21,1.35-2.4,2.73-3.7,4a5.51,5.51,0,0,1-2.17,1.23c-2.87.87-5.78,1.63-8.67,2.44-.6.17-1.18.46-1.79.58C106.17,68.58,104.91,68.76,103.18,69Z"/><path d="M138.59,45.12c-.49-3.62,1.17-6.65,2.61-9.73.59-1.26.89-2.79,2.34-3.39a18.89,18.89,0,0,1,4.07-1.32c2.66-.45,5.07.6,7.49,1.54a8.08,8.08,0,0,0,1.84.44,9,9,0,0,1,6.9,4.55,60.57,60.57,0,0,1,3,5.35,10.39,10.39,0,0,1,.68,6.14c-.68,4.27-3.11,7.23-6.74,9.4-1.69,1-3.32,2.08-5.34,2.27-3.19.3-6.47.44-9.36-1a12.08,12.08,0,0,1-7-9.36C138.85,48.38,138.75,46.75,138.59,45.12Zm8.49-.49c-.37,2.55.58,4.94,1,7.38a2.31,2.31,0,0,0,2.32,2,6.15,6.15,0,0,0,4.84-1.79l1.51-1.58a7.89,7.89,0,0,0,0-10.79,1.56,1.56,0,0,0-.69-.41,13.34,13.34,0,0,0-5.41-.8c-1.81.25-2.85.92-3.18,2.76C147.21,42.45,147.18,43.55,147.08,44.64Z"/><path d="M204.62,80.44c3-2.32,5.88-4.88,8.9-7.22A15.64,15.64,0,0,1,217.41,71a4.74,4.74,0,0,1,4,.55,8.55,8.55,0,0,1,3,3.22,1.07,1.07,0,0,1-.31,1.49c-1.07.89-2.19,1.72-3.31,2.55-2.35,1.74-4.74,3.43-7.06,5.21s-4.44,3.53-6.64,5.33c-.64.52-1.19,1.15-1.8,1.72L201,95.22c-.4.38-.94.73-1.13,1.2a2.86,2.86,0,0,0-.06,1.68,3.44,3.44,0,0,0,.8,1.3c1.72,2,3.49,4,5.19,6,.83,1,1.49,2.11,2.3,3.12,2.14,2.69,5.28,6.28,7.41,9,.51.65.83,1.45,1.29,2.14s1.08,1.28,1.47,2c.8,1.45,1.52,2.94,2.22,4.45.38.82-.1,1.38-.71,1.92-1.83,1.6-4.79,1.12-6.55-.05a5.85,5.85,0,0,1-2.74-3.53,16.21,16.21,0,0,0-3.88-6.5c-1.52-1.75-3.81-4.59-5.22-6.44-2.14-2.81-4.25-5.64-6.39-8.45-.68-.9-1.2-.92-2.1-.18s-1.75,1.39-2.61,2.1a5.86,5.86,0,0,0-2.15,5.17c.12,2.36-.07,4.74,0,7.1,0,1.52.12,6.84.41,8.33a4.83,4.83,0,0,1-.7,3.47,1.92,1.92,0,0,1-.69.67,6,6,0,0,1-6.93-1.28,3.82,3.82,0,0,1-.82-1.88,12.11,12.11,0,0,1,.29-5c.3-.93.14-5.8.14-6.81q0-8.87,0-17.73c0-.37,0-.75,0-1.12q.35-7,.7-14c.13-2.73.3-5.45.34-8.18,0-1.2-.23-2.4-.31-3.6a1.82,1.82,0,0,1,.18-.94c.55-1,3.75-1.85,4.7-1.15a16.44,16.44,0,0,1,2.82,2.49,4.46,4.46,0,0,1,1,2.39c.12,1.62,0,3.26-.08,4.89,0,.74,0,1.48,0,2.23-.09,3.71-.19,7.42-.28,11.13,0,1,0,2,0,3.46,1.2-1,2.23-1.66,3.12-2.51,4.13-4,8-8.18,12.6-11.68"/><path d="M35.77,70.88c0,.74,0,1.48.06,2.21q.45,3.88,1,7.76c.26,2,.59,3.9.85,5.86.29,2.15.51,4.31.81,6.45.18,1.33.55,1.51,1.92,1.25a48.42,48.42,0,0,1,4.82-.77c2.62-.24,4.5,1.25,6.16,3,.76.81.06,3-1.19,3.52a19.31,19.31,0,0,1-4.24,1.21,14,14,0,0,0-5,2,2.39,2.39,0,0,0-1.06,2.69c.53,3.31.73,6.69,1.49,9.93.64,2.7-.06,7.63,1.46,10.13a2.89,2.89,0,0,1-2.29,4.16c-1.63.09-3.23.28-4.81-.8a5.65,5.65,0,0,1-2.65-4c-.35-2.23,0-6.5-.33-8.73s-.63-4.2-.94-6.29c-.05-.34-.09-.69-.16-1-.18-.86-.63-1.19-1.49-.75-.39.2-.85.29-1.23.51-2.69,1.57-5.33,1-7.95-.15a3,3,0,0,1-1.78-3.14,2.06,2.06,0,0,1,1.29-2c2.5-1.16,5-2.37,7.48-3.55,2.06-1,2.32-1.39,2.2-3.66-.13-2.46-.17-4.94-.43-7.39-.31-2.88-.85-5.73-1.24-8.6q-.5-3.75-.88-7.51c-.35-3.59-1.12-3.21-3.92-2.61a39.14,39.14,0,0,0-6.94,2.05,10.18,10.18,0,0,1-5.45,1,10.07,10.07,0,0,1-3.58-1.22A3.12,3.12,0,0,1,6.39,69c.18-1.2,1.16-1.56,2.06-1.9,2.72-1,5.43-2.1,8.2-3,2-.65,4.07-1.09,6.12-1.56q4.62-1,9.26-2c3.72-.76,7.46-1.45,11.19-2.2S50.38,56.79,54,56.12a8,8,0,0,1,6.87,2c1.95,1.68,1.61,3.67-.81,4.53a54.72,54.72,0,0,1-5.54,1.52c-2.19.53-4.41,1-6.61,1.48-.43.09-.88.13-1.31.22-3.33.68-6.65,1.38-10,2a1.19,1.19,0,0,0-1.06,1.48c0,.49.07,1,.11,1.48Z"/><path d="M140.54,111c.17,3.86.35,12.45.51,16.32A2.49,2.49,0,0,1,139,130.2a7.9,7.9,0,0,1-3.44.2c-1.57-.26-2.38-1.39-3.33-2.37a2,2,0,0,1-.32-1.45,95.94,95.94,0,0,0,.09-13.19,20.86,20.86,0,0,1,.37-4,17.7,17.7,0,0,0,0-2c-.07-2.65-.1-5.31-.23-8-.08-1.58-.33-3.15-.46-4.74-.09-1.11-.28-2.25.57-3.2a3.29,3.29,0,0,1,4.65-.13c1.19,1,2.29,2.08,2.4,3.78.05.77.57,1,1.19.68a6.43,6.43,0,0,0,1.49-1,20.3,20.3,0,0,1,8-4.48,8.06,8.06,0,0,1,6.86.81c1.77,1.19,3.8,2.08,4.64,4.28,2.67,2.27,3.51,5.64,5,8.57a14.81,14.81,0,0,1,1.21,4.43c.35,2.16.48,4.35.76,6.52s.53,8.77.94,10.76c.62,3-.53,4.43-3.59,4.53-2.13.07-4-.35-5.33-2.11a3.49,3.49,0,0,1-.69-1.75c-.24-3.43-.42-11.59-.57-15-.19-4.39-1.82-8.34-3.75-12.17-1.05-2.09-2.86-2.36-4.87-.83-1.74,1.32-3.44,2.69-5.18,4-.89.67-1.82,1.29-2.75,1.9-1.13.75-2,1.56-2,3.12a25.74,25.74,0,0,1-.36,3.6Z"/><path d="M113.55,103.73A10.69,10.69,0,0,0,112,98.78a.88.88,0,0,0-.8-.29,22.17,22.17,0,0,0-2.85,1.41c-.83.51-1.57,1.18-2.36,1.74a6.19,6.19,0,0,1-5.05,1,2.28,2.28,0,0,1-2-2.59,6.68,6.68,0,0,1,1.81-3.87c2.46-3,5.57-5,9.59-4.91a10,10,0,0,1,8.09,4.17c2.21,2.85,2.82,9.89,3.58,13.29a49.12,49.12,0,0,1,.89,12.2,22.49,22.49,0,0,0,.24,6.12c.42,1.72-1.48,3.52-3.45,3.53a1.11,1.11,0,0,1-.28,0c-2.79-.72-5.51-.1-8.28.22a25.05,25.05,0,0,1-10.79-.89c-4.3-1.42-5.79-4.24-6.19-8.38a11.92,11.92,0,0,1,0-3.59c1-4.53,4.27-7.15,8-9.32,2.85-1.64,5.94-1.7,9.08-1.18.46.08.92.16,1.38.21C112.76,107.68,113.24,103.83,113.55,103.73ZM101.67,120c-.36,3.39.42,4.3,3.64,4.2,2.37-.07,4.79-.07,6.85-1.57a2.92,2.92,0,0,1,.79-.28c1.13-.38,1.37-.77,1.31-2s-.09-2.32-.09-3.48a2.22,2.22,0,0,0-1-2.18,6.07,6.07,0,0,0-4.53-1,13,13,0,0,0-5.43,3.3A3.86,3.86,0,0,0,101.67,120Z"/><path d="M61.51,114.16c-.23-3.88-.41-7.77-.7-11.64-.1-1.37-.53-2.71-.7-4.08a23.14,23.14,0,0,1-.19-3.54,1.54,1.54,0,0,1,1.86-1.61,5.09,5.09,0,0,1,2,.45c1.43.77,2.43.38,3.52-.72a15.93,15.93,0,0,1,3.82-3c2.56-1.32,5.42-2.34,8.24-1.44a11.37,11.37,0,0,1,5.12,3.35c1.61,1.87,3.17,3.77,4.75,5.67a2.94,2.94,0,0,1,.47,3.06c-1.12,3.2-3.17,4.44-6.38,3.85-1.86-.34-2.77-1.24-2.75-3.1a7.51,7.51,0,0,0-2-4.67,1.3,1.3,0,0,0-1.7-.42,7.85,7.85,0,0,0-4.51,4,6.36,6.36,0,0,1-2,2.34c-1.67,1.17-1.64,2.74-1.44,4.45.22,1.86.39,3.73.62,5.58s.53,12,.86,14a2.2,2.2,0,0,1-1.69,2.67,6.71,6.71,0,0,1-3.92.05,4.38,4.38,0,0,1-3.4-4.13c-.09-1-.14-10.07-.21-11.1Z"/><path d="M253.78,70.61c-.5,4-.9,6.74-1.2,9.53-.33,3.07-.55,6.15-.87,9.22a16,16,0,0,1-.55,2.25,6.06,6.06,0,0,0-.23.85c-.25,2.43-.5,4.87-.72,7.3a7.06,7.06,0,0,0,0,1.62,9.09,9.09,0,0,1-.89,4.75c-.16.39-.5.92-.83,1a15.32,15.32,0,0,1-4.49.41,5.72,5.72,0,0,1-2.75-1.8,3.15,3.15,0,0,1-.51-1.9c-.07-1.07.1-2.15,0-3.22a8.72,8.72,0,0,1,.56-3.73A23.91,23.91,0,0,0,242.44,92c.43-3.67.67-7.36,1-11a27,27,0,0,0,.6-3.14,31,31,0,0,1,.76-6.55,21.56,21.56,0,0,0-.08-4A9.61,9.61,0,0,1,245,65a2,2,0,0,1,2.61-1.49c.71.14,1.46,0,2.18.13a2,2,0,0,1,1.26.49C252.7,66.37,254.42,68.66,253.78,70.61Z"/><circle cx="246.16" cy="125.03" r="5.5"/></g></g></svg>