<svg xmlns="http://www.w3.org/2000/svg" viewBox="0 0 362.53 149.87"><defs><style>.cls-1{fill:#59ecff;}</style></defs><title>gf-logo-20</title><g id="Layer_2" data-name="Layer 2"><g id="Layer_1-2" data-name="Layer 1"><path class="cls-1" d="M227.09,42.47h0Z"/><path class="cls-1" d="M11.21,128.3h0Z"/><path class="cls-1" d="M261.4,58.88h0Z"/><path class="cls-1" d="M325.64,71.11c-.35-1-5.91-.85-6.09-.86-3.94,0-7.9.2-11.85.5-4.37.33-8.77.73-13.12,1.39-3.12.47-6.48.84-9.41,2-23.55,9.3-41.36,25.63-61.84,38.78.43-.59.87-1.15,1.29-1.65,4.75-5.68,9.64-11.28,14.46-16.92l28.68-33.57c.56-.65-6.29-.84-6.21-.85-3.9,0-7.82.21-11.73.5-4.37.33-8.78.73-13.12,1.39l-4.15.67a27.88,27.88,0,0,0-5.26,1.33L209.14,76.66l8.62-9.88L234,48.15c.56-.65-6.31-.84-6.21-.85-3.9,0-7.82.21-11.73.5-4.37.33-8.78.73-13.12,1.39-2.92.44-6.82.64-9.41,2C173.07,62,154.89,75.45,137.25,89.26,125.42,98.52,113.74,108,101.61,117q1.3-1.74,2.63-3.47a365.18,365.18,0,0,1,24.82-28.66c17.75-18.63,37.21-36.1,56.44-53.7,10.88-10,21.7-20,32.12-30.28.64-.64-7.33-.86-6.09-.86-3.94,0-7.9.2-11.85.5-7.43.56-15.4,1.07-22.53,3.39C163.8,8.22,152.42,16,141,23.13q-18.29,11.42-36.47,23C80.94,61.19,57.28,76.53,35.38,93.35,23.86,102.21,13,111.74,4.33,122.61c-.52.65,6,.84,6.18.86a140.91,140.91,0,0,0,14.5-.7,142,142,0,0,0,14.54-1.85c1.71-.34,4.9-.57,6-1.92A156.3,156.3,0,0,1,68.17,96.45c13.55-11.1,28.25-21.29,43.11-31.2-16.14,15.31-31.69,31.08-45.2,48-4.43,5.55-8.63,11.21-12.56,17S45,142.34,45.45,149l.76.46a18.6,18.6,0,0,0,3.72.34c3.55.12,7.16,0,10.73-.24a149.81,149.81,0,0,0,23.22-2.94c12.68-2.86,23.69-9.39,34.17-16,5.35-3.38,10.56-6.92,15.67-10.55l0,0h0c-3.94,4.71-8,9.88-7.59,15.48.07,1,6.29.86,6.09.86,3.94,0,7.9-.2,11.85-.5,4.37-.33,8.77-.73,13.12-1.39l4.15-.67a27.88,27.88,0,0,0,5.26-1.33l12.79-9.07h0c.1,1.67,1,3.17,3.19,4.23a16,16,0,0,0,5.87,1.1,142.17,142.17,0,0,0,20.35-.68c8.41-.74,17.1-1.71,25.3-3.88a86.74,86.74,0,0,0,21-8.94c1.2-.69,2.38-1.39,3.55-2.11h0a81.75,81.75,0,0,0-4.35,7.26,56.14,56.14,0,0,0-3.5,8.1c-.93,2.76-1.33,5.45,2.17,6.76,2.51.94,6.31.85,9,.9a181.79,181.79,0,0,0,18.5-.85c9.54-.82,19.8-1.85,28.76-5.4,2.46-1-2.37-1.35-2.14-1.33a80.41,80.41,0,0,0-12.35.18l-3.37.24h0c-.43-1.71.47-3.79,1.09-5.46a59,59,0,0,1,3.58-7.78,111.89,111.89,0,0,1,10.13-15c3.74-4.8,7.7-9.48,11.49-14.25,1.89-2.38,3.75-4.77,5.49-7.22S326.6,74,325.64,71.11ZM268.13,133h0l0,0-.36.12C267.5,133.16,267.66,133.07,268.13,133Zm-1.33.34.81-.17A2.11,2.11,0,0,1,266.8,133.31Z"/><path d="M33.58,93.53l-9.51-.72c3.16-4.14,6.46-7.32,12-6.76,2.65.27,5.32.41,8.08.62-.9,5.86-2.07,11.41-2.54,17s-.21,11.13-.28,16.81l-9.4.73-1.46-6.47c-1.15.64-2.27,1.23-3.37,1.86A23.42,23.42,0,0,1,19,119.78c-7.66,1.21-14.77-2.34-17.43-10.7A40.06,40.06,0,0,1,0,95.49a77.52,77.52,0,0,1,7.4-31.75C12.33,53.69,21,49.31,31.63,48.2c3.18-.33,6.14,1,8.73,2.94,3.8,2.8,6.27,6.61,8.39,11.08l-9.2,4.12c-1.72-2.3-3.28-4.62-5.09-6.74a15.79,15.79,0,0,0-7.83-4.94c-3.88-1.11-6.7-.15-9,3.22a35.91,35.91,0,0,0-4.71,10.69C10.11,78.34,8.8,88.3,10.4,98.42A40.31,40.31,0,0,0,13.09,107a12,12,0,0,0,5,5.7c4,2.46,7.84,1.7,10.57-2.12a11.35,11.35,0,0,0,1-1.71C32,104.06,32.83,98.9,33.58,93.53Z"/><path d="M306.13,49.66l10.58-.54c-1.88,9.11-3.52,18.18-4.58,27.69,2.75-1.32,5.14-2.51,7.57-3.62,3.35-1.54,6.74-3,10.49-3.29,4.15-.31,6.54,1.67,7,5.83a13.63,13.63,0,0,1-4.64,12,52.73,52.73,0,0,1-11.21,7.32l-4.88,2.56c3.73,7.71,9.15,14.1,14.39,20.83l-8.1,4.82c-5.57-5.89-10.07-12.78-14.59-20.26-2,5.7-2.14,11.24-2.74,16.73l-10.79.33c.91-7.66,2.82-15.34,4-23.13,1.17-8,2.65-15.88,3.94-23.83S304.92,57.46,306.13,49.66Zm2.36,48.59c7.32-2.25,13.25-5.89,16.75-12.61a14.49,14.49,0,0,0,1.43-6.09c.12-3.9-2.17-5.18-5.61-3.38a21.9,21.9,0,0,0-8.8,8.48A25,25,0,0,0,308.5,98.26Z"/><path d="M283.92,121.93l-10.38.54a9.49,9.49,0,0,1-.21-2c.52-5.34,1-10.68,1.68-16,.73-5.88,1.67-11.73,2.4-17.61a16.32,16.32,0,0,0-.84-8.26c-1.44-3.56-3.23-4.08-6-1.46a32,32,0,0,0-9.16,15c-1.32,5-2.26,10-3.2,15.07-.77,4.16-1.29,8.37-1.94,12.65l-10.49.48L254.29,69c1.71.05,3.46.2,5.19.13s3.51-.36,5.45-.58l-1.1,6.68c1.6-.66,2.71-1.11,3.82-1.58,3.9-1.68,7.84-3.26,12.11-3.69,3.67-.37,5.68.76,7.18,4.12a16.11,16.11,0,0,1,1.39,8.51c-.62,5.32-1.48,10.62-2.24,15.93s-1.58,10.39-2.15,15.61A72.2,72.2,0,0,0,283.92,121.93Z"/><path d="M232.27,73.26l8.67-3c-.41,2-.7,3.63-1.07,5.22a241.6,241.6,0,0,0-4.62,25.73c-.62,5-1.32,10-1,15,.1,1.89.22,3.78.33,5.82l-11.33.48-.88-5.33c-1.76.76-3.48,1.55-5.24,2.24-1.56.61-3.14,1.17-4.75,1.61-6.8,1.9-10.34-1.42-12.74-5.83a23.17,23.17,0,0,1-2.68-10.64c-.23-10.1,2.39-19.26,9.71-26.62A31.16,31.16,0,0,1,221,69.79a9.69,9.69,0,0,1,8.28,1.4C230.22,71.81,231.12,72.46,232.27,73.26Zm-4.08,9a25.47,25.47,0,0,0-10.14-5.76c-2.16-.67-3.64-.25-4.9,1.57-6.54,9.44-8.44,19.54-4.21,30.43a17.21,17.21,0,0,0,3.17,5.06c2.56,2.89,5.62,2.91,8-.06a15.6,15.6,0,0,0,3.24-6.11C225.17,99.06,226.6,90.7,228.19,82.22Z"/><path d="M133.55,84.26l21.77,1.64-3.67,7.49-19-1.43c-.9,5.06-1.08,10-1.69,14.82s-1.2,9.5-1.81,14.29l-10.72.37,8.33-66.26c1.86-1.12,4-2.46,6.27-3.72a3.54,3.54,0,0,1,1.89-.39c8.93.64,17.85,1.32,27.07,2l-3.45,7.06-21.62-1.63Z"/><path d="M52.66,95.47a52.51,52.51,0,0,1,4.4-16.15,15.73,15.73,0,0,1,9.67-9.17A32.9,32.9,0,0,1,78.27,68.4a11.33,11.33,0,0,1,8.2,4A18.48,18.48,0,0,1,91,83.07c1.42,13.14-3,24-13.3,32.28a38.66,38.66,0,0,1-6.41,4.25c-4.58,2.38-8.9,1.54-12.53-2.13-3.46-3.5-5-7.93-5.62-12.64C52.71,101.74,52.8,98.59,52.66,95.47Zm10.46-5.09c.12,3.45,0,6.91.4,10.33a16.6,16.6,0,0,0,6,11.58c2.87,2.33,5.35,1.8,7.13-1.42a11.82,11.82,0,0,0,.73-1.5,47.36,47.36,0,0,0,3-22.33,28.85,28.85,0,0,0-2.57-8.23,10.22,10.22,0,0,0-6-5.56c-2-.74-3.09-.37-4.29,1.43a16.87,16.87,0,0,0-1.05,2.08C64.43,81.06,63.77,85.68,63.12,90.38Z"/><path d="M169.34,121.37l-10.57.27,7.5-51.23,10.33-.2-.37,4.87c2.05-.85,3.74-1.59,5.45-2.25,1.56-.6,3.16-1.09,4.74-1.67A3.92,3.92,0,0,1,191.6,73a51.81,51.81,0,0,1,3,7,22.88,22.88,0,0,1,.68,3.68l-9.57,4.23c-.42-1.09-.78-2.09-1.2-3.06a45.86,45.86,0,0,0-2.63-5.77c-1.12-1.84-2.82-1.81-4,0a15.24,15.24,0,0,0-2.13,4.51c-1.11,4.32-2.21,8.67-2.9,13.07-1.23,7.84-2.16,15.73-3.23,23.6C169.56,120.58,169.45,120.9,169.34,121.37Z"/><path d="M351.84,49.81l10.69-1c-.11.44-.29,1.13-.44,1.82-1.47,6.65-3.07,13.27-4.35,20S355.46,83.8,352.87,90c-1,2.36-2.32,4.57-3.4,6.89s-2.85,3-5.09,3.11l-2.79.15C347.3,83.82,349.54,66.85,351.84,49.81Z"/><path d="M344.23,121.12l-5.51-6.83,7.88-6.49c.84,1.17,1.71,2.54,2.73,3.78s2.12,2.23,3.1,3.24Z"/></g></g></svg>