<svg xmlns="http://www.w3.org/2000/svg" viewBox="0 0 374.03 114.03"><defs><style>.cls-1{fill:#6ef;}</style></defs><title>gf-logo-15</title><g id="Layer_2" data-name="Layer 2"><g id="Layer_1-2" data-name="Layer 1"><path class="cls-1" d="M5.91,84.79A397.68,397.68,0,0,1,111.14,41.1c11-2.8,22.21-5.22,33.61-5.55L141.9,0A217,217,0,0,0,100,50.52q-4.77,7.95-8.83,16.29A14.3,14.3,0,0,0,90.8,70a44.11,44.11,0,0,0-.11,5c.07,3.79.32,7.58.68,11.35.13,1.33,1.86,15.73,3.17,15.25L201.69,63.32,232.21,52.4l-2.86-35.55C216.25,33,199,45.62,188,63.49a60.77,60.77,0,0,0-6.89,15.65c-.7,2.53-.57,5.71-.52,8.26.07,3.79.32,7.58.68,11.35a92.39,92.39,0,0,0,1.36,10.16c.11.51,1.17,5.49,1.81,5.09A630.9,630.9,0,0,1,306.58,56.25Q324.62,50,343,44.82c1-.29,1-5.26,1-5.32a104.18,104.18,0,0,0-.44-12.61c-.11-1.33-1.77-18.07-3.4-17.61A630.9,630.9,0,0,0,214.73,59.53q-16.86,9-33.15,18.93l3.33,34.87a64.17,64.17,0,0,1,9.37-19.43l-.47.68c11-15.65,26.4-27.39,38.4-42.18,1-1.29.92-3.88,1-5.32a104.18,104.18,0,0,0-.44-12.61c-.11-1.29-2-18.11-3.4-17.61L122.2,55.21,91.68,66.13,95,101a216.17,216.17,0,0,1,16.67-28.39l-.47.68a215.47,215.47,0,0,1,33.55-37.74c1.09-1,.94-4.32,1-5.32a104.18,104.18,0,0,0-.44-12.61,104.29,104.29,0,0,0-1.59-12.52C143.54,4.28,143,0,141.9,0c-10.34.3-20.5,2.31-30.52,4.78Q97.62,8.16,84.14,12.52A397.12,397.12,0,0,0,31.2,34Q16.82,41,3.05,49.24c-1.09.65-1,4.76-1,5.32a104.18,104.18,0,0,0,.44,12.61A104.29,104.29,0,0,0,4.1,79.69c.11.51,1.16,5.48,1.81,5.09Z"/><path d="M33.39,56.15H23.85c2.84-4.36,5.89-7.79,11.46-7.64,2.67.07,5.34,0,8.11,0-.46,5.91-1.21,11.54-1.26,17.17s.62,11.12,1,16.78l-9.32,1.44-1.94-6.34c-1.1.72-2.17,1.4-3.22,2.11a23.42,23.42,0,0,1-7.81,3.74C13.32,85.2,6,82.2,2.68,74.06A40.06,40.06,0,0,1,.09,60.63a77.52,77.52,0,0,1,5-32.22C9.2,18,17.54,13,28,11.1c3.14-.57,6.2.57,8.92,2.28,4,2.5,6.75,6.12,9.2,10.41l-8.86,4.8c-1.89-2.17-3.62-4.36-5.58-6.34a15.79,15.79,0,0,0-8.18-4.34c-4-.82-6.69.36-8.75,3.89a35.91,35.91,0,0,0-3.9,11c-2,10-2.6,20-.24,30A40.31,40.31,0,0,0,14,71.11a12,12,0,0,0,5.45,5.3c4.19,2.16,7.95,1.1,10.38-2.9a11.35,11.35,0,0,0,.91-1.79C32.62,66.76,33,61.56,33.39,56.15Z"/><path d="M317.86,12.48l10.51-1.34c-1.19,9.23-2.15,18.39-2.49,28,2.64-1.52,4.94-2.89,7.27-4.18,3.23-1.79,6.5-3.5,10.21-4.06,4.12-.62,6.65,1.18,7.37,5.29A13.63,13.63,0,0,1,347,48.48a52.73,52.73,0,0,1-10.63,8.14l-4.67,2.92C336,67,341.9,72.92,347.63,79.23l-7.71,5.41c-6-5.46-11-12-16.07-19.11-1.57,5.84-1.29,11.37-1.48,16.89l-10.73,1.14c.34-7.71,1.66-15.51,2.21-23.37.56-8,1.45-16,2.14-24.06S317.23,20.35,317.86,12.48Zm6,48.28c7.13-2.8,12.77-6.87,15.75-13.83a14.49,14.49,0,0,0,1-6.18c-.18-3.9-2.55-5-5.85-2.95a21.9,21.9,0,0,0-8.13,9.12A25,25,0,0,0,323.87,60.76Z"/><path d="M298.14,82.44l-10.31,1.31a9.49,9.49,0,0,1-.36-2c.12-5.36.22-10.72.47-16.08.28-5.92.79-11.83,1.07-17.75a16.32,16.32,0,0,0-1.46-8.17c-1.7-3.44-3.53-3.82-6.08-1a32,32,0,0,0-8,15.62c-.95,5-1.5,10.16-2.06,15.26-.46,4.21-.66,8.44-1,12.76L260,83.66l4.62-51.81c1.71-.08,3.46-.06,5.19-.26s3.47-.62,5.39-1l-.59,6.74c1.54-.78,2.62-1.31,3.69-1.86,3.76-2,7.57-3.84,11.8-4.59,3.64-.65,5.72.33,7.47,3.57a16.11,16.11,0,0,1,2,8.38c-.22,5.36-.68,10.7-1,16.05s-.79,10.48-1,15.72A72.2,72.2,0,0,0,298.14,82.44Z"/><path d="M242,33.86l8.42-3.62c-.26,2-.42,3.67-.68,5.29a241.6,241.6,0,0,0-2.67,26c-.24,5-.56,10.06.09,15.08.24,1.88.5,3.75.77,5.78l-11.26,1.33-1.28-5.25c-1.7.89-3.36,1.81-5.06,2.62-1.51.72-3,1.4-4.62,2-6.64,2.4-10.42-.64-13.14-4.85a23.17,23.17,0,0,1-3.47-10.41c-1-10.05.94-19.38,7.68-27.28a31.16,31.16,0,0,1,13.73-9.27,9.69,9.69,0,0,1,8.37.77C239.83,32.57,240.79,33.15,242,33.86Zm-3.4,9.24a25.47,25.47,0,0,0-10.54-5c-2.2-.5-3.65,0-4.77,1.93-5.81,9.9-6.95,20.12-1.91,30.66a17.21,17.21,0,0,0,3.54,4.81c2.77,2.68,5.82,2.48,8-.66a15.6,15.6,0,0,0,2.77-6.34C236.85,60.12,237.64,51.68,238.6,43.1Z"/><path d="M142.38,45.4h21.83l-3.1,7.74h-19c-.52,5.11-.33,10-.57,14.9s-.48,9.57-.73,14.38L130.12,83.6l3.33-66.7c1.77-1.25,3.84-2.76,6-4.18a3.54,3.54,0,0,1,1.85-.53c9,0,17.9,0,27.14,0l-2.9,7.3H143.82Z"/><path d="M54.56,59.5a52.51,52.51,0,0,1,3.17-16.44,15.73,15.73,0,0,1,9-9.87,32.9,32.9,0,0,1,11.38-2.6A11.33,11.33,0,0,1,86.54,34a18.48,18.48,0,0,1,5.3,10.27c2.4,13-1.2,24.12-10.84,33.18a38.66,38.66,0,0,1-6.08,4.72c-4.39,2.71-8.76,2.21-12.65-1.18-3.72-3.23-5.56-7.54-6.55-12.19C55.07,65.75,54.93,62.6,54.56,59.5Zm10-5.86c.38,3.43.56,6.89,1.18,10.27A16.6,16.6,0,0,0,72.62,75c3,2.11,5.47,1.39,7-2a11.82,11.82,0,0,0,.61-1.55A47.36,47.36,0,0,0,81.57,49a28.85,28.85,0,0,0-3.18-8A10.22,10.22,0,0,0,72,35.9c-2.08-.58-3.11-.14-4.17,1.74a16.87,16.87,0,0,0-.89,2.15C65.21,44.24,64.9,48.9,64.6,53.63Z"/><path d="M183.85,82.49l-10.52,1.06L177,31.9l10.29-1v4.89c2-1,3.61-1.87,5.27-2.66s3.07-1.33,4.6-2a3.92,3.92,0,0,1,5.3,1.42,51.81,51.81,0,0,1,3.51,6.79,22.88,22.88,0,0,1,1,3.62l-9.22,4.93c-.5-1.06-.93-2-1.43-3a45.86,45.86,0,0,0-3.05-5.55c-1.26-1.75-2.94-1.6-4,.3a15.24,15.24,0,0,0-1.78,4.65c-.78,4.39-1.55,8.81-1.91,13.25-.64,7.91-1,15.85-1.44,23.78C184,81.68,183.93,82,183.85,82.49Z"/><path d="M363.45,13.2,374,11.39c-.07.45-.2,1.15-.3,1.85-1,6.74-2.07,13.47-2.84,20.23s-1.28,13.36-3.39,19.77c-.8,2.43-2,4.73-2.87,7.13s-2.62,3.18-4.84,3.48L357,64.2C361.48,47.45,362.44,30.35,363.45,13.2Z"/><path d="M361.21,84.88l-6-6.4,7.37-7.06c.92,1.1,1.89,2.4,3,3.56s2.28,2.06,3.33,3Z"/></g></g></svg>