<svg xmlns="http://www.w3.org/2000/svg" viewBox="0 0 262.88 148.55"><defs><style>.cls-1{fill:#59ecff;}</style></defs><title>gf-logo-01</title><g id="Layer_2" data-name="Layer 2"><g id="Layer_1-2" data-name="Layer 1"><path class="cls-1" d="M183.21,51.79l.09,0Z"/><path class="cls-1" d="M4.77,96.81h0Z"/><path class="cls-1" d="M208.17,69.41l.09,0Z"/><path class="cls-1" d="M257,90c-.15-1.09-4.52-1.72-4.67-1.75A92.19,92.19,0,0,0,243,87c-3.45-.31-6.94-.55-10.41-.51-2.49,0-5.16-.09-7.58.65-19.46,5.93-35.22,19.77-52.72,30,.4-.53.81-1,1.2-1.47,4.35-5,8.81-9.95,13.22-14.92l26.21-29.6c.51-.57-4.82-1.76-4.76-1.76a92.66,92.66,0,0,0-9.23-1.21c-3.45-.31-6.94-.55-10.41-.51l-3.32.07a17.32,17.32,0,0,0-4.26.57L165.31,78.62l7.85-8.68L188,53.56c.51-.57-4.84-1.76-4.76-1.76A92.66,92.66,0,0,0,174,50.59c-3.45-.31-6.94-.55-10.41-.51-2.33,0-5.41-.35-7.58.65C138.78,58.6,123,69.51,107.7,80.83c-10.3,7.6-20.49,15.4-31,22.69q1.21-1.56,2.45-3.1A325,325,0,0,1,101.79,75.2C117.77,59,135,44.3,152,29.39c9.63-8.44,19.22-16.95,28.53-25.79.57-.55-5.63-1.93-4.67-1.75A92.21,92.21,0,0,0,166.52.63c-5.87-.52-12.16-1.16-18,.13-10.91,2.41-20.68,8.59-30.42,14.1C107.71,20.74,97.33,26.64,87,32.66,66.86,44.41,46.63,56.39,27.61,70.13,17.6,77.36,8,85.37,0,95c-.48.58,4.57,1.71,4.73,1.76a87.27,87.27,0,0,0,11.41,1.4,87.17,87.17,0,0,0,11.57.25c1.37-.09,3.89.14,4.88-1.06A131.47,131.47,0,0,1,52.89,78C64.74,68.82,77.38,60.71,90.12,52.9c-14.35,13-28.28,26.66-40.75,41.71q-6.13,7.4-11.74,15.27c-3.73,5.27-8,10.92-8.44,17.72l.54.57a12,12,0,0,0,2.87.89A67,67,0,0,0,41,130.38a92,92,0,0,0,18.48.42c10.24-1,19.58-6,28.51-11.12,4.57-2.62,9-5.42,13.44-8.33l0,0h0c-3.61,4.16-7.36,8.77-7.68,14.46-.06,1,4.82,1.78,4.67,1.75a92.21,92.21,0,0,0,9.32,1.22c3.45.31,6.94.55,10.41.51l3.32-.07a17.32,17.32,0,0,0,4.26-.57l11-7.26h0a5.5,5.5,0,0,0,2,4.72,10.89,10.89,0,0,0,4.46,2,88.35,88.35,0,0,0,16,2.28c6.66.48,13.56.76,20.22-.22a56.81,56.81,0,0,0,17.45-5.93c1-.52,2-1.06,3-1.6h0c-1.5,2.16-2.93,4.37-4.22,6.67a61.75,61.75,0,0,0-3.66,7.64c-1,2.64-1.66,5.29.93,7.12,1.86,1.31,4.83,1.78,6.95,2.21a112.65,112.65,0,0,0,14.55,1.84c7.55.56,15.69,1,23.09-1.25,2-.62-1.7-1.7-1.53-1.65a50.2,50.2,0,0,0-9.67-1.62l-2.66-.25h0c-.14-1.78.8-3.74,1.47-5.33a64,64,0,0,1,3.68-7.31,108.71,108.71,0,0,1,9.61-13.57c3.46-4.28,7.09-8.42,10.59-12.67,1.74-2.12,3.47-4.25,5.11-6.47S257.42,93,257,90Zm-51.94,53.85H205l-.29.07C204.54,143.95,204.67,143.89,205.05,143.84ZM204,144l.65-.06A1.31,1.31,0,0,1,204,144Z"/><path d="M200.85,71.47c-1.27,10.55-2.57,21.15-2.47,31.8a96.83,96.83,0,0,0,1.38,15.79c1.06,6,2.29,11.68,1.31,17.82-.66,4.12,8.62,11.24,9.28,7.11,1.71-10.78-1.92-21-2.38-31.78-.48-11.25.82-22.48,2.16-33.63.33-2.71-1.53-5.21-3.62-6.79-.94-.71-5.33-3-5.66-.32Z"/><path d="M210,110.06c2.75-1.31,6.28-1.4,9.27-1.74,2.32-.26,4-1.72,3,1a8.07,8.07,0,0,1-2.46,2.92,27,27,0,0,1-17.52,6.15c-5.54,0,1.08,9.58,5,9.59,8.8,0,26.5-4.63,24.63-16.54-.85-5.42-5.5-10.48-10.63-12.27-2.67-.93-5.34-.7-8.08-.37-3.26.39-7.13.43-10.11,1.85-4.36,2.08,3.29,11.15,6.92,9.42Z"/><path d="M217.14,120.69a63.33,63.33,0,0,1,5.56,9.26c1.35,2.77,2.22,5.82,3.9,8.41,2.61,4,9.79,9.7,13.9,4.26,2.71-3.58-6-11.78-8.4-8.57-1.07,1.42-2.12.58.16,2.27,2.55,1.89,1.28,1,.93-.21a36.49,36.49,0,0,0-2.74-6.18,81.82,81.82,0,0,0-6.81-11.14c-1.2-1.67-4.36-4.72-6.71-3.76s-.82,4.24.21,5.66Z"/><path d="M24.94,84.25c9,.84,18-1.79,26.7-3.89q14.06-3.41,27.87-7.72c4.35-1.35-2.94-10.65-6.92-9.42q-12.93,4-26.06,7.28c-8.57,2.12-17.72,5-26.61,4.17-2.77-.26-2.31,2.87-1.52,4.51,1.13,2.34,3.84,4.83,6.54,5.09Z"/><path d="M55.87,141.15A602.14,602.14,0,0,0,49,79.91a9.55,9.55,0,0,0-4.95-6.64c-1.42-.74-5-1.43-4.54,1.43a602.14,602.14,0,0,1,6.87,61.23c.17,2.73,2.62,5.43,4.95,6.64,1.64.86,4.71,1.37,4.54-1.43Z"/><path d="M42.71,115.21c7.54-2.89,14.32-7.44,22.13-9.65,4.33-1.22-2.9-10.56-6.92-9.42-7.81,2.21-14.59,6.76-22.13,9.65-4.38,1.68,3.08,10.89,6.92,9.42Z"/><path d="M75.95,101.44A114.14,114.14,0,0,0,77.5,119c.42,2.76.89,5.51,1.3,8.27.18,1.23.37,2.45.53,3.68.14,1,.31,3.37.35,3.33-3.19,2.62,5,11.4,8.4,8.57,1.73-1.42,1.11-3.8.86-5.77-.43-3.38-1-6.75-1.51-10.12a128.36,128.36,0,0,1-2-20.28c0-3.89-9.48-10.76-9.49-5.21Z"/><path d="M86.42,118a96.49,96.49,0,0,1,8.21-6.07A25.94,25.94,0,0,1,99,110.12q3.46.39,0-1.77a11.69,11.69,0,0,1,.05,2.25c-.09,3.89,9.35,10.79,9.49,5.21.17-7-4.5-13.9-11.64-15.2-7.36-1.34-13.51,4.75-18.89,8.83-3.22,2.44,4.82,11.29,8.4,8.57Z"/><path d="M145.12,141.13c-.54-7.06-1.3-14.1-2.35-21.11-.77-5.13-.9-11.84-3.8-16.29-5.35-8.19-17.91-7.19-22.79.88-2.36,3.91,6.45,11.8,8.4,8.57a11.25,11.25,0,0,1,4.95-4.71,9.8,9.8,0,0,1,2.49-.77c1.18-.18,3.71.64,2.3-.4l-3-3.52c1.06,1.91,1,5.06,1.39,7.22q.7,4.29,1.27,8.6c.72,5.43,1.26,10.87,1.67,16.33.21,2.74,2.6,5.41,4.95,6.64,1.61.84,4.75,1.38,4.54-1.43Z"/><path d="M133.2,114.66c-10.76-2.08-27.19,5-22.65,18.38a17.27,17.27,0,0,0,13.3,11c6.4.93,12.81-2,17.73-5.91,3.21-2.53-4.88-11.34-8.4-8.57a23.71,23.71,0,0,1-8.93,4.54,13.47,13.47,0,0,1-3.82.51q-2.55-1-1.39.3.74,1.39.22-.72a7.24,7.24,0,0,1,.59-2.59c2.82-6.85,11.94-8.62,18.36-7.38,2.8.54,2.23-3.06,1.52-4.51a9.54,9.54,0,0,0-6.54-5.09Z"/><path d="M151.73,105c3.39,2.28,1.57,12,2,15.56.6,5.54,2,10.85,1.46,16.47-.32,3.64,8.46,10.22,8.93,4.9.72-8.24-1.6-16.68-1.69-25-.08-7.21-2.56-13.88-8.74-18s-6.49,3-1.92,6.08Z"/><path d="M163.86,113.57a34.65,34.65,0,0,1,10.09-4.67c.75-.19,3-.9,3.59-.63,1.12.48,1.25,5.33,1.36,6.48.66,7.54-.58,15.11-.61,22.65,0,3.67,8.94,10.16,9,4.92,0-11.64,3.52-25.57-3.52-35.94-7.25-10.69-18.65-6.8-27.79-.91-3.07,2,4.3,10.43,7.93,8.09Z"/><path d="M127.76,4.61c-7.79.88-16.57,4.15-17.93,12.94-1.32,8.48,6.46,15.63,13.77,18.38s17-3.57,17.35-11.48c.39-8.66-8.52-13.61-15.79-15.14-6-1.27-1,7.47,2.52,8.22.89.19,4.31.52,4.8,1.32.92,1.5-2.14,4.78-3,5.59-2.59,2.51-8.73,6-11,1.25-1.54-3.15,1.82-7.38,4.19-9.1,3.26-2.37,7.44-3.05,11.35-3.5,2.42-.27.47-4.18-.19-5.1-1.35-1.9-3.61-3.66-6-3.38Z"/><path d="M130.47,16.16c5.88,1,10-3.38,13.1-7.7,1.36-1.87-.45-4.45-1.79-5.81-.89-.91-4.45-3.72-5.77-1.9C133.61,4,130.58,8.28,126,7.53c-2.49-.41-2.06,2.71-1.37,4.06a8.57,8.57,0,0,0,5.89,4.58Z"/><path d="M118.37,47.23c3.6.73,7.32,1.16,10.81,2.32s5.12,2.41,2.39,5.58C128.25,59,123,59.8,118.26,60.32a34.16,34.16,0,0,1-6.93.31,3.39,3.39,0,0,1-1.82-.31q-1.59-.18.11-1a6.4,6.4,0,0,1,2-3c3.39-3.5,7.46-5.93,11.38-8.73,2.91-2.09-4.25-10.08-7.56-7.72-6.25,4.47-17.23,9.86-13.82,19.28,3.58,9.88,14.1,10.61,22.89,9.62,7-.79,20.62-5.2,17.12-15-4-11.28-17.77-13.16-27.74-15.19-2.53-.51-2,2.77-1.37,4.06a8.6,8.6,0,0,0,5.89,4.58Z"/><path d="M111.87,24.59c-2.56,1.84-6.07,3.6-8.14,6-1.88,2.17-1,5.49.24,7.73,1.53,2.74,4.06,4.4,6.65,6,3.17,2,6.33,2.24,9.91,2.91,2.5.46,2-2.74,1.37-4.06A8.64,8.64,0,0,0,116,38.6c-1.48-.28-3.21-.23-4.61-.81-.69-.29-1.24-1-2-1.25l0,0q1.7,4,1.84,2.09c-.08,0,1.11-1.22,1.13-1.24.71-.56,1.47-1.06,2.2-1.58l4.85-3.48c2.91-2.09-4.25-10.09-7.56-7.72Z"/><path d="M150.66,20.43c-8,3.68-10.43,15.43-6.22,22.8,4.32,7.56,14.31,11.92,22,6.68,7.43-5,8.68-16.93,3.45-23.95a16.44,16.44,0,0,0-10.5-6.33c-2.63-.45-8.48-1.18-9.56,2.11-1.16,3.52,7.06,10.33,8.35,6.4A19.1,19.1,0,0,1,162,28c2.54.24,2.72.17,2.44,2.64-.49,4.22-.77,7.82-4.42,10.73-3.22,2.57-9,4.09-9.06-1.64,0-4.06,2.13-9.1,5.93-10.84s-2.92-10-6.23-8.48Z"/><path d="M245.67,54.37V97.69c0,3.5,8.54,9.68,8.54,4.69V59.06c0-3.5-8.54-9.68-8.54-4.69Z"/><path d="M256.22,129.52a15.06,15.06,0,0,0,6.16-4.39,2.56,2.56,0,0,0,.3-2.51c-1.41-3.43-4.7-7.1-8.76-7a4.2,4.2,0,0,0-4.47,4.12,6.08,6.08,0,0,0,1.34,3.2,9.52,9.52,0,0,0,3.11,2.78c1.71.86,3.94,1.17,4.08-1.29-.07,1.14.08.14.07.08,0,.26-.41.43,0,.11a2.57,2.57,0,0,0,.37-.31c-.31.38-.36.13.06,0a2.69,2.69,0,0,0,.5-.12c.31-.15-.69,0-.14,0,.74.06-.9-.29-.21-.06a7.44,7.44,0,0,1-4.12-4.27l.3-2.51A11.65,11.65,0,0,1,250,121c-2.17.86-.8,3.82.19,5.1a9.52,9.52,0,0,0,3.11,2.78c.82.42,2,1,2.93.61Z"/></g></g></svg>