<svg xmlns="http://www.w3.org/2000/svg" viewBox="0 0 237.04 181.24"><defs><style>.cls-1{fill:#6ef;}</style></defs><title>gf-logo-03</title><g id="Layer_2" data-name="Layer 2"><g id="Layer_1-2" data-name="Layer 1"><path d="M33.4,89.13c-.06,1-.19,2.08-.18,3.11.07,5.63-.06,6.94,0,12.57,0,1.36,0,8,.28,10.56.5-.27,14.53-5.66,15.81-4.81,1.15,3.45,2.57,4.44,3.1,5.6.92,1.57-13.71,9.21-15.43,10S34.42,132,34.52,134c.23,4.57.3,9.16.53,13.73.12,2.31.66,4.62.62,6.92a125.91,125.91,0,0,0,1.39,17c.49,2.4-.18,3-.39,5.52-.28,3.4-2.3,2.3-6.92,3.54-3.42,1.05-3.6.43-4.08-1.85-.17-.79-.57-1.52-.66-2.32s-.27-1.67-.4-2.5c-.22-1.43-.49-9.74-.66-11.17q-.48-4-.87-8.09c-.09-1,0-2-.09-3-.24-2.42-.55-8.28-.81-10.7a21.4,21.4,0,0,1-.17-2.24c0-1.21-.31-8.33-1.42-8.82-2.14.27-11.16,4.85-12.64,3.45-1.05-1-3.45-6.89-1.15-8,1.34-1.71,12.7-6,13.24-5.9.91-.26.58-8.39.55-10.18-.07-4.69-.31-7.5-.43-12.2-.08-3-.25-5.92-.24-8.88,0-1.59.49-5.48.47-7.06a44.17,44.17,0,0,1,1.24-12c.8-3.82,2.74-7.12,4.06-10.7.5-1.35,1-2.69,1.58-4a2.46,2.46,0,0,1,.19-.48c1.28-1.91,2.57-3.81,4-6a32.4,32.4,0,0,0,3.27-2.51c2.17-2.09,5-2.9,7.61-4.1a38.4,38.4,0,0,1,6.28-2,7.58,7.58,0,0,1,8.89,5c0,.92,0,1.84,0,2.75,0,2.45-1.59,3.73-3.65,4.38-2.83.53-5.69.92-8.46,1.67-1.08.29-1.93,1.42-2.91,2.13-2.1,1.52-4,3.2-4.86,5.75a.69.69,0,0,1-.18.29c-1.87,1.59-1.93,3.85-2.27,6A7.58,7.58,0,0,1,34.75,69c-.49,1.29-1,2.56-1.51,3.86a15.45,15.45,0,0,0-.27,8,37.89,37.89,0,0,1,.08,5C33.1,87,33.28,88.07,33.4,89.13Z"/><path d="M174.66,68c-.65.82-1.15,1.38-1.57,2-.86,1.29-1.5,2.67-3.08,3.43-1.94.94-3.1-.23-4.36-1.21a2.83,2.83,0,0,1-.72-3.51c1.64-3.71,3.36-7.4,6.38-10.26a6.19,6.19,0,0,1,.87-.55,28.18,28.18,0,0,0,3.24-2.21c1.6-1.43,3.54-1.73,5.19-.35a24.66,24.66,0,0,1,2.89,3.2,14.45,14.45,0,0,0,2.12,2.33c.15,4.8.45,9.61.41,14.41,0,4.58-.56,9.16-.62,13.74-.07,4.82.16,9.64.26,14.47,0,1.43.09,2.86.15,4.65,1.48-.19,2.72-.28,3.93-.52a15.6,15.6,0,0,1,11.7,2.13,11.91,11.91,0,0,1,5.56,9.83,22.19,22.19,0,0,1-1.21,8.55c-1.55,4.61-4.49,8.07-9.27,9.69-.44.15-.87.32-1.29.51a2.07,2.07,0,0,0-.43.38,3.23,3.23,0,0,0,1.06,2.78c2.48,3,5.07,5.9,7.45,9,1.26,1.62,2.12,3.55,3.24,5.29,1.38,2.13,4.81,8.23,6.28,10.3,1.59,2.25,1.63,5.6-.25,6.76-1.28.79-2.94.22-4.41.19-1.86,0-3.94.71-5.25-.82a19.37,19.37,0,0,1-2.24-4c-.64-1.29-3.11-6.67-3.8-7.93a58.59,58.59,0,0,0-3.79-6.42c-2-2.81-4.34-5.43-6.55-8.12a8.78,8.78,0,0,0-.93-.85c-1.18.85-.76,2-.77,3.06,0,4.34,0,9.39,0,13.73,0,1.86,0,5.42,0,7.4-1.46,2.85-7.23,6-9.89,3.31-.93-1-1.67.42-2-1-.76-3.18-.74-13.33-.13-16.45.73-3.75.44-7.51.62-11.27.14-2.88.5-5.76.73-8.64.11-1.39.14-2.78.21-4.18.13-3,.34-5.91.36-8.86,0-2.36-.22-4.73-.29-7.09q-.13-4.62-.16-9.23c0-4.13-.07-8.25,0-12.38a115.11,115.11,0,0,1,.82-13.87c.45-3.42.09-6.95.08-10.43C175.17,68.84,175,68.69,174.66,68Zm11.54,61.11c3.35.79,6.44-.4,7.47-3.2,4.37-2.71,2.37-8.71,1.82-8.1.07-.33-.23-.73-.33-1a6.1,6.1,0,0,0-6,1.12,3.74,3.74,0,0,1-1.24.61,2.67,2.67,0,0,0-1.92,2.62c0,.64-.07,1.28-.06,1.91C186,125.1,186.12,127.11,186.2,129.15Z"/><path d="M108.6,173a15.72,15.72,0,0,0-2.06,1.51c-2.72,2.78-5.78,5.13-9.6,6-2.92.65-5.94.49-8.38-1.74a8.35,8.35,0,0,1-1.16-1.47c-.23-.33-.29-.79-.56-1.08-2.46-2.63-2.09-5.86-1.58-8.91.37-2.24,1.56-4.34,2.39-6.5a11.82,11.82,0,0,0,.72-2c.53-2.85,2.15-5.11,4-7.26,2.19-2.62,5.16-4.08,8.21-5.43,1.32-.59,2.57-1.36,3.92-1.87a34.14,34.14,0,0,1,3.69-.92c.44-.11.87-.27,1.4-.44a12.72,12.72,0,0,0-2.08-9.4c-1.64-.35-2.78.42-3.91,1.27-2.18,1.62-4.28,3.38-6.6,4.78-1.12.68-2.65.67-3.86.95a4.91,4.91,0,0,1-.94-6.19,2.47,2.47,0,0,0,.28-.44c2-5.83,6.88-8.71,11.7-11.6a7.06,7.06,0,0,1,7,.1,16.22,16.22,0,0,1,6.39,6c2.38,3.7,3.29,7.76,3.89,11.94a29.52,29.52,0,0,1-.11,5c-.11,3.41-.41,6.84-.26,10.24.13,3.17.76,6.31,1.13,9.47.16,1.38.26,2.78.33,4.17a34.73,34.73,0,0,1,.08,4.48c-.2,2.47-1.23,3.74-3.39,4-2.72.31-5.51.57-7.78-1.45A36.23,36.23,0,0,1,108.6,173Zm.77-19.66c-.58-.09-1.2-.4-1.63-.22a27,27,0,0,0-5.52,2.55c-2.87,2-6,3.66-6.62,7.21-.16.88-.55,4.12.45,5.09.43-.23,5.93.47,7.64-1.8C111.35,164.56,109.43,155.4,109.37,153.35Z"/><path d="M148.63,127.86a7,7,0,0,0-6.48,2.48,3.46,3.46,0,0,0-.54,2.47c.52,4.84,1.18,9.66,1.74,14.49.23,2,.28,3.94.47,5.9.38,3.93.74,11.86,1.24,15.77.19,1.51-.53,2.69-1,4a1.7,1.7,0,0,1-.73.72c-1,.63-9.25,3.38-9.82,2.82-2.5-2.42-1.68-5-1.33-7.62.52-3.84.31-16.26,0-20.07-.39-4.44-1.11-8.86-1.55-13.3-.22-2.19-.07-4.41-.21-6.61s-.43-4.62-.64-6.93a3.43,3.43,0,0,1,2.4-4,2.26,2.26,0,0,1,2.59.38c.46.44,1,.82,1.48,1.22s1,.78,1.69,1.31a7,7,0,0,0,2-.56c2.49-1.57,5.29-1.63,8.07-1.83a.94.94,0,0,1,.35,0c2.85.94,5.76,1.76,8.19,3.65,3.72,2.88,5.41,6.86,6,11.36.29,2.11.31,4.26.46,6.39a7.58,7.58,0,0,0,.17,1.73c.9,2.86.29,5.75.23,8.63-.07,3.19-.1,4.09,0,7.28.08,2.9.33,6.35.5,9.25.17,3.06-2.19,6.54-5.21,6.18-1.26-.15-2.49,1.73-3.72,1.42-2.27-.58-3.29,0-3.3-2.64,0-8,.21-19.92.19-27.88a81.71,81.71,0,0,0-.71-8.15,17.44,17.44,0,0,0-.62-3.77A37.46,37.46,0,0,0,148.63,127.86Z"/><path d="M52.5,131.47l4.69,2.47a6.56,6.56,0,0,0,1.35-.75,15.54,15.54,0,0,1,7.77-3.73c4-.78,7.53.61,10.45,3.48a18.32,18.32,0,0,1,4.46,7.67,41,41,0,0,1,1.38,6.63,3.79,3.79,0,0,1-2.81,3.92,18.88,18.88,0,0,1-4.48.39c-2.85-.16-2.66-2.53-2.77-5.35-.06-1.63-.2-3.25-.37-4.87-.11-1.08-2.76-2.08-3.9-2.5s-2,.24-2.72,1.07c-1.14,1.31-2.32,2.59-3.43,3.93a6.4,6.4,0,0,0-1.32,4.59c.19,3.71.43,7.42.68,11.12q.33,4.76.76,9.51c.08.86.35,1.7.48,2.56.26,1.72.61,3.43.71,5.16s-2.57,1.81-4.71,1.91c-2.91.14-5.29,3.49-7.19,1.34a2.7,2.7,0,0,1-.52-1.6c-.1-3.24-.09-8.78-.2-12-.14-3.93-.39-7.86-.53-11.79-.11-3.19,0-6.38-.2-9.56-.13-2.72-.49-5.42-.7-8.14C49.15,134,49.8,132.84,52.5,131.47Z"/><path class="cls-1" d="M2.69,125.85A275.63,275.63,0,0,1,75.63,95.57C83.26,93.63,91,92,98.92,91.72l-2-24.64a150.41,150.41,0,0,0-29,35q-3.31,5.51-6.12,11.29a9.91,9.91,0,0,0-.29,2.24,30.57,30.57,0,0,0-.07,3.48c.05,2.63.22,5.25.47,7.87.09.92,1.29,10.9,2.2,10.57L138.38,111l21.15-7.57-2-24.64C148.47,90,136.5,98.7,128.89,111.09a42.12,42.12,0,0,0-4.78,10.84,21.31,21.31,0,0,0-.36,5.73c.05,2.63.22,5.25.47,7.87a64,64,0,0,0,.94,7c.07.35.81,3.8,1.26,3.53a437.27,437.27,0,0,1,84.66-40q12.5-4.34,25.25-7.92c.73-.2.67-3.65.67-3.69a72.21,72.21,0,0,0-.3-8.74c-.08-.92-1.23-12.53-2.36-12.21a437.27,437.27,0,0,0-86.93,34.83q-11.69,6.21-23,13.12l2.31,24.17a44.48,44.48,0,0,1,6.5-13.47l-.33.47c7.6-10.84,18.3-19,26.61-29.23.73-.89.64-2.69.67-3.69a72.21,72.21,0,0,0-.3-8.74c-.08-.89-1.39-12.55-2.36-12.21L83.29,105.35l-21.15,7.57,2.31,24.17A149.83,149.83,0,0,1,76,117.41l-.33.47A149.34,149.34,0,0,1,98.92,91.72c.76-.67.65-3,.67-3.69a72.21,72.21,0,0,0-.3-8.74,72.28,72.28,0,0,0-1.1-8.68c-.12-.56-.49-3.55-1.26-3.53A101.26,101.26,0,0,0,75.78,70.4q-9.53,2.34-18.87,5.37A275.24,275.24,0,0,0,20.22,90.62q-10,4.9-19.51,10.59c-.76.45-.66,3.3-.67,3.69a72.21,72.21,0,0,0,.3,8.74,72.28,72.28,0,0,0,1.1,8.68c.07.35.8,3.8,1.26,3.53Z"/><path d="M87.45,25.09A18.35,18.35,0,0,1,89,22.53c.94-1.16,2-2.18,3.09-3.26.6-.61,1.19-1.23,1.83-1.8a35.15,35.15,0,0,0,3.22-2.84c2.11-2.44,4.93-3.83,7.63-5.37a5.41,5.41,0,0,1,2.86-.4,13,13,0,0,1,2.87.7,6.25,6.25,0,0,0,6.23-1c3.4-2.78,6.9-5.44,10.3-8.25a3,3,0,0,1,3.49.57c1.11.93,2.25,1.82,3.32,2.79a9.37,9.37,0,0,1,1.08,1.36c-.22,2.53-1.6,4.1-3.14,5.8-3.12,3.43-7.16,5.06-11.3,6.57-1.71.62-3.51,1-5.27,1.45a9.94,9.94,0,0,0,.46,4.89,44.13,44.13,0,0,1,2.3,13.31c.08,2.3-1.07,4.24-1.68,6.34s-1.24,4-2,5.95c-.77,2.12-1.61,4.22-2.48,6.3s-3,2.87-4.8,3.8A18.88,18.88,0,0,1,94.3,60.88c-.9-.19-1.84-.2-3-.32a74.38,74.38,0,0,0-5.17,9.18,16.44,16.44,0,0,0,1.74.72,66.08,66.08,0,0,1,7.4,1.95,46.62,46.62,0,0,1,10.15,5.18c2.45,1.74,4.83,3.54,6.38,6.06a21,21,0,0,1,2.81,6.88c.34,1.76-.38,3.76-.78,5.62a14.26,14.26,0,0,1-1.17,3.28c-.94,1.92-1.85,3.81-3.74,5.13a29.09,29.09,0,0,0-3.58,3.55,14.82,14.82,0,0,1-6.51,3.85,2.51,2.51,0,0,0-.82.28c-2,1.48-4.38,1.4-6.66,1.67a50.09,50.09,0,0,1-6.93.52,18.87,18.87,0,0,1-8.79-2.57c-3.53-2-5.75-5.24-5.58-9.42s.87-8.64,3.55-12.19a37.85,37.85,0,0,1,5.62-5.67C81,83,83.05,81.79,85,80.41a3.73,3.73,0,0,0,.57-.67,2.53,2.53,0,0,0-2.49-1.61c-3.52.15-5.93-2.05-8.49-3.94a.83.83,0,0,1-.12-.13c-1.22-1.39-1.44-6.31-.38-7.82,1.52-2.19,3-4.43,4.54-6.58.85-1.16,1.88-2.19,2.83-3.29,1.74-2,2.4-4,1.32-6.83a20.86,20.86,0,0,1-.09-15.33c.64-1.67,1.2-3.37,1.85-5A5.75,5.75,0,0,1,85.32,28Zm15.19-2.4a37.89,37.89,0,0,0-4,4.24c-1.59,2.31-3.4,4.52-4.35,7.22s-2.2,5-2.11,7.83a15.07,15.07,0,0,1,.1,2.06A10.5,10.5,0,0,0,93.83,51a3.37,3.37,0,0,0,3.82,1.73,33,33,0,0,0,3.25-1c1.24-2.9,5-5.86,6.09-9,2.1-6,1.46-12.08-.38-18.25C106.13,22.86,104.59,22.55,102.63,22.68Zm-3.2,61.73a13.23,13.23,0,0,0-2.79.9c-2.75,1.69-5.37,3.62-8.17,5.22a14.74,14.74,0,0,0-4.89,5.09,10.69,10.69,0,0,0-1.88,6.22c.06,2.18,1.56,3.82,3.74,3.6s4.67-.16,6.76-1.35A29.65,29.65,0,0,0,95.58,102c2.42-1.85,4.71-3.82,5.32-7.06a3.61,3.61,0,0,1,.65-1.41A4.4,4.4,0,0,0,102,89,44.53,44.53,0,0,0,99.44,84.41Z"/><path d="M152.36,60.12c-.26,4.2-.2,7.42-.7,10.56-.91,5.7-3.3,10.46-10.06,11.83a28.56,28.56,0,0,1-10.52.34c-3.78-.65-7.58-1.78-9.8-5.31A14,14,0,0,1,119,72c-.39-3.5-.17-7.06-.23-10.59,0-2.18,1.12-4,1.85-5.92,1-2.7,2.35-5.3,3.63-7.9a15.4,15.4,0,0,1,1.81-2.77c1.65-2.07,2.53-4.69,4.84-6.3a7.57,7.57,0,0,1,6.78-1c1.25.37,2.29,1.48,3.44,2.22a15.4,15.4,0,0,0,1.53.8c1.45.72,3.63,4.34,5.6,5.35,2.16,1.12,2.83,6.23,3.28,8.38S152.59,58.78,152.36,60.12ZM138.78,48.86a4.31,4.31,0,0,0-3.47,1.74c-1.93,2.2-2.8,4.91-3.86,7.5a26.33,26.33,0,0,0-1.26,14.6c2.74,3.15,6.39,3,8.76-.53a9.75,9.75,0,0,0,1.79-5c.11-2.46.57-4.86.57-7.36a59.94,59.94,0,0,0-.57-7.95A3.51,3.51,0,0,0,138.78,48.86Z"/></g></g></svg>