<svg xmlns="http://www.w3.org/2000/svg" viewBox="0 0 280.41 205.61"><defs><style>.cls-1{isolation:isolate;}.cls-2{mix-blend-mode:overlay;}.cls-3{fill:#00e2ff;}</style></defs><title>gf-logo-04</title><g class="cls-1"><g id="Layer_2" data-name="Layer 2"><g id="Layer_1-2" data-name="Layer 1"><g class="cls-2"><path class="cls-3" d="M107.37,111a17.44,17.44,0,0,1,6.54-6.07L87.33,87.37C88,91.82,89,96.09,92.16,99.46c3.6,3.89,8.26,7,12.64,9.85s9.48,6.46,14.76,8c11.57,3.34,13.63-12.42,20-18.09L113,81.63a42,42,0,0,0,3.86,17.47c4.18,8.95,14.82,14.57,23,19.16,2.37,1.33,6.86,4.54,9.72,2.75,2.1-1.31,3.28-5,4.48-7.18l10.39-18.57L137.9,77.7a31.41,31.41,0,0,0,7.94,14.78c7.65,8.12,18.49,15.38,28.56,19.94,3,1.37,5.8,2.43,8.78.43,2.66-1.79,5-4.35,7.28-6.58a176.78,176.78,0,0,0,14.1-15.52L179.29,75.15c3.29,3,1.56,10.43,3.15,14.49,1.38,3.51,4.84,6,7.7,8.25a94.81,94.81,0,0,0,20.28,12.4c5.87,2.48-2.68-4.74-3.37-5.27-5.71-4.32-11.91-8.66-18.55-11.47l-.93-.39,12,6.82-.81-.54,11,8.35c-2.33-2.24-1.79-6.8-2.08-9.72a13.43,13.43,0,0,0-4.38-9.31,91.39,91.39,0,0,0-14.54-10.63c-1.23-.75-9.55-6.43-10.74-5a175.71,175.71,0,0,1-17.25,18.51,35.62,35.62,0,0,1-4.13,3.59c-6.86,4.6-2.41-7.54,14.05,11.69-.43-.51-.9-1-1.31-1.48a26.24,26.24,0,0,1-4.88-10.21c-.92-3.93-25.4-19.67-26.57-17.57l-8.17,14.59L126,98.92c-.94,1.68-2.07,5.2-4.5,4.69l6.72,3.11-.87-.5,15.94,10.89-.79-.71,3,2.94c-4.43-5.43-5.87-13.32-5.93-20.14,0-1.29-2.53-3.12-3.17-3.67a88.8,88.8,0,0,0-9.1-6.66,96.3,96.3,0,0,0-9.69-5.76c-.84-.42-3.75-2.25-4.61-1.48-5.51,4.89-8.51,21.13-18.51,17.89l3.87,1.58,18.33,12.49a9.18,9.18,0,0,1-.72-1.23c-.27-.77-.7-1.48-1-2.26a29.48,29.48,0,0,1-1.09-5.16c-.21-1.42-2.28-2.91-3.17-3.67a88.8,88.8,0,0,0-9.1-6.66,96.3,96.3,0,0,0-9.69-5.76c-1-.52-3.45-2.12-4.61-1.48a17.44,17.44,0,0,0-6.54,6.07c-1.53,2.37,25.12,19.83,26.57,17.57Z"/></g><g class="cls-2"><path class="cls-3" d="M1.29,161A398.82,398.82,0,0,0,30,190c1.89,1.73,22.41,17.38,23.48,15.46a125.48,125.48,0,0,0,11.24-27L38.25,159.95,51.19,182c1.57,2.68,25.14,20.66,26.49,18.52l13.07-20.68L64.26,161.32a101.94,101.94,0,0,0,9.35,16.36c6.6,9.36,17.23,16.66,27.12,22,2.29,1.25,4.92,2.81,7.52,1.5,2.28-1.15,3.37-4.13,4.43-6.24l9.51-19L96.81,158.81c4.67,5.24,7,12.59,10.62,18.51a43.55,43.55,0,0,0,8.16,9.62c7.2,6.44,15.59,12.83,24.31,17.08,4.23,2.06,6.93,1.81,9-2.55,1.42-2.92,2.7-5.92,4-8.88,3.08-6.8,6.15-13.6,9.27-20.39l-26.49-18.52,16.93,27.26c1.64,2.64,25.51,20.41,26.49,18.52l7.75-15c1.17-2.26,4.39-11.46,8.44-9.48l-8.43-5.13q-17.43-15.07-11.07-8.36l1,1.16c1,1.15,2.06,2.32,3.09,3.48l6.69,7.54,12.86,14.5c1.89,2.14,24.31,19.21,25.38,17.23,3.08-5.73,2.42-12.17,3-18.43.54-5.48,2.86-13.89,9.57-13.88l.81.19L218.4,159c-.08-.17-.72-1.14,0,0,.41.71.91,1.36,1.31,2.08a39.7,39.7,0,0,1,2.27,4.95c1.4,3.56,2.48,7.23,3.79,10.83a24.62,24.62,0,0,0,4.9,8.82c3.95,4.25,9,7.73,13.75,11,3.63,2.54,8.54,6.83,13.11,7.64,5.17.92,8.45-5.64,10.9-9.21l12-17.44c1.5-2.18-25.43-21.09-26.72-19.22l-10.39,15.14c-2.94,4.28-5.6,9.64-10.66,11.54,0,0-.39-.05-.35-.06l-.34-.1,23.6,16.86c-.32-.56-.76-1.06-1.08-1.62a30.61,30.61,0,0,1-2.07-4.63c-1.34-3.55-2.41-7.2-3.75-10.76a30.87,30.87,0,0,0-5.23-9.58,63.82,63.82,0,0,0-9.64-8.5c-5.61-4.33-11.61-8.68-18.07-11.65-3.36-1.55-6.95-2.19-9.73.72a17.73,17.73,0,0,0-4.29,9c-1.32,7.15.14,14.71-3.43,21.35l25.38,17.23c-12.32-13.89-23.78-28.63-39.11-39.35-5.37-3.75-16.18-13.63-21.18-4.76-3.85,6.82-7.23,13.95-10.83,20.9L179,198.76,162,171.5c-1.67-2.68-25.72-20.21-26.49-18.52q-3.51,7.64-7,15.31c-2.29,5.06-4.16,11-7.2,15.63-3.51,5.38-7.9-1.74,6.55,9q13.26,11.08,8.81,6.47a1.92,1.92,0,0,1-.39-.43c-.42-.57-.84-1.12-1.25-1.7a71.16,71.16,0,0,1-4.52-7.74c-2.88-5.5-5.58-10.83-9.73-15.5-1.89-2.13-24.43-19.12-25.38-17.23l-7.75,15.44c-.8,1.59-4.67,11.82-7.95,10.14l18.62,12.67c6.43,5.19,2.18,1.47.66-.76q-1.64-2.4-3.15-4.9a104,104,0,0,1-5.37-10.27c-1.34-2.93-25.27-20.46-26.49-18.52L51,181.3l26.49,18.52L64.53,177.77c-1.12-1.9-4-3.93-5.56-5.22-2.72-2.2-5.53-4.28-8.4-6.29-1-.69-12.28-7.89-12.53-7a125.48,125.48,0,0,1-11.24,27l23.48,15.46a348.55,348.55,0,0,1-25-25.46c-4.85-5.45-11.78-9.8-17.93-13.63C5.62,161.49,2.79,159,.68,159c-1.61,0,.08,1.41.6,2Z"/></g><path d="M125.84,23.2a18.35,18.35,0,0,1,1.64-2.49c1-1.11,2.14-2.09,3.24-3.11.62-.59,1.25-1.18,1.91-1.72A35.15,35.15,0,0,0,136,13.19c2.22-2.34,5.1-3.6,7.87-5a5.41,5.41,0,0,1,2.88-.27,13,13,0,0,1,2.83.83A6.25,6.25,0,0,0,155.82,8C159.35,5.43,163,2.92,166.48.28a3,3,0,0,1,3.46.73c1.06,1,2.16,1.92,3.19,2.93a9.37,9.37,0,0,1,1,1.41c-.33,2.52-1.79,4-3.41,5.65-3.28,3.28-7.38,4.73-11.59,6-1.73.54-3.55.81-5.33,1.21a9.94,9.94,0,0,0,.24,4.91,44.13,44.13,0,0,1,1.69,13.4c0,2.3-1.27,4.19-2,6.25s-1.42,3.92-2.23,5.85c-.87,2.08-1.8,4.14-2.77,6.18s-3.09,2.73-5,3.58a18.88,18.88,0,0,1-12.78.84c-.89-.23-1.83-.29-3-.46a74.38,74.38,0,0,0-5.59,8.94,16.44,16.44,0,0,0,1.71.8,66.08,66.08,0,0,1,7.3,2.29,46.62,46.62,0,0,1,9.91,5.63c2.37,1.85,4.66,3.76,6.1,6.35a21,21,0,0,1,2.49,7c.26,1.78-.55,3.74-1,5.58a14.26,14.26,0,0,1-1.32,3.22c-1,1.87-2,3.73-4,5a29.09,29.09,0,0,0-3.74,3.38,14.82,14.82,0,0,1-6.68,3.55,2.51,2.51,0,0,0-.83.24c-2.06,1.39-4.44,1.2-6.73,1.36a50.09,50.09,0,0,1-6.94.2,18.87,18.87,0,0,1-8.66-3c-3.44-2.16-5.51-5.5-5.14-9.67s1.26-8.59,4.11-12a37.85,37.85,0,0,1,5.88-5.41c1.86-1.45,4-2.58,6-3.87a3.73,3.73,0,0,0,.6-.65A2.53,2.53,0,0,0,119,76c-3.53,0-5.83-2.32-8.3-4.32a.83.83,0,0,1-.12-.13c-1.16-1.45-1.16-6.36,0-7.83,1.62-2.11,3.17-4.28,4.84-6.36.9-1.12,2-2.11,3-3.16,1.84-1.94,2.58-3.92,1.63-6.77a20.86,20.86,0,0,1,.6-15.31c.71-1.64,1.35-3.31,2.08-4.95a5.75,5.75,0,0,1,.86-1.08Zm15.28-1.71A37.89,37.89,0,0,0,137,25.54c-1.7,2.23-3.6,4.36-4.68,7s-2.43,4.9-2.47,7.73a15.07,15.07,0,0,1,0,2.07,10.5,10.5,0,0,0,1.23,7,3.37,3.37,0,0,0,3.73,1.9,33,33,0,0,0,3.3-.85c1.37-2.84,5.27-5.63,6.49-8.67,2.37-5.87,2-12,.45-18.25C144.6,21.83,143.08,21.45,141.12,21.49Zm-6,61.52a13.23,13.23,0,0,0-2.82.77c-2.83,1.57-5.53,3.37-8.4,4.84a14.74,14.74,0,0,0-5.12,4.87,10.69,10.69,0,0,0-2.16,6.12c0,2.18,1.39,3.89,3.57,3.77s4.67.05,6.82-1a29.65,29.65,0,0,0,3.46-2c2.5-1.73,4.88-3.6,5.63-6.81a3.61,3.61,0,0,1,.72-1.38,4.4,4.4,0,0,0,.62-4.46A44.53,44.53,0,0,0,135.11,83Z"/><path d="M68.93,84.71c-.11,1-.29,2.07-.32,3.1-.19,5.63-.37,6.93-.57,12.56,0,1.36-.37,8-.2,10.56.51-.25,14.78-5,16-4.09,1,3.5,2.37,4.56,2.84,5.73.84,1.61-14.12,8.57-15.87,9.31S68,127.57,68,129.61c0,4.58-.12,9.16-.1,13.74,0,2.32.45,4.64.3,6.94a125.91,125.91,0,0,0,.62,17c.38,2.42-.32,3-.64,5.5-.43,3.39-2.4,2.19-7.08,3.23-3.46.89-3.61.27-4-2-.13-.79-.5-1.54-.55-2.35s-.19-1.68-.29-2.51c-.16-1.43,0-9.75-.15-11.19q-.3-4.06-.5-8.12c0-1,.09-2,0-3-.13-2.43-.17-8.3-.33-10.73a21.4,21.4,0,0,1-.07-2.25c0-1.21.07-8.34-1-8.87-2.15.17-11.37,4.33-12.78,2.87-1-1-3.13-7-.78-8.09,1.41-1.65,13-5.44,13.5-5.29.92-.22,1-8.35,1-10.14.14-4.69,0-7.51.13-12.2.06-3,0-5.93.16-8.88.08-1.59.74-5.45.79-7a44.17,44.17,0,0,1,1.78-11.9c1-3.78,3.06-7,4.55-10.5.56-1.33,1.17-2.64,1.76-4a2.46,2.46,0,0,1,.22-.48l4.3-5.77a32.4,32.4,0,0,0,3.38-2.36c2.26-2,5.13-2.67,7.79-3.74a38.4,38.4,0,0,1,6.37-1.72,7.58,7.58,0,0,1,8.66,5.39C95,42.14,95,43.05,95,44c-.14,2.45-1.76,3.65-3.84,4.21-2.85.4-5.73.66-8.53,1.28-1.1.24-2,1.33-3,2-2.16,1.42-4.12,3-5.12,5.52a.69.69,0,0,1-.2.29c-1.94,1.5-2.1,3.76-2.54,5.91a7.58,7.58,0,0,1-.52,1.47c-.55,1.27-1.16,2.51-1.68,3.79a15.45,15.45,0,0,0-.64,8,37.89,37.89,0,0,1-.14,5C68.72,82.56,68.86,83.65,68.93,84.71Z"/><path d="M211,70.08c-.68.79-1.21,1.33-1.66,1.93-.92,1.25-1.62,2.6-3.23,3.29-2,.85-3.08-.38-4.3-1.4a2.83,2.83,0,0,1-.56-3.54c1.8-3.63,3.7-7.23,6.84-10a6.19,6.19,0,0,1,.89-.51,28.18,28.18,0,0,0,3.34-2.06c1.67-1.36,3.62-1.57,5.2-.11A24.66,24.66,0,0,1,220.27,61a14.45,14.45,0,0,0,2,2.43c-.07,4.81,0,9.62-.25,14.42-.25,4.58-1,9.13-1.25,13.7-.29,4.81-.28,9.64-.4,14.46,0,1.43,0,2.86-.06,4.66,1.49-.12,2.73-.16,4-.34A15.6,15.6,0,0,1,235.87,113,11.91,11.91,0,0,1,241,123.1a22.19,22.19,0,0,1-1.6,8.49c-1.76,4.53-4.86,7.86-9.7,9.26-.45.13-.89.28-1.32.45a2.07,2.07,0,0,0-.44.36,3.23,3.23,0,0,0,.93,2.82c2.34,3.11,4.8,6.13,7,9.31,1.18,1.68,2,3.64,3,5.43,1.28,2.19,4.43,8.44,5.8,10.57,1.49,2.32,1.38,5.67-.56,6.75-1.32.73-2.95.09-4.42,0-1.85-.13-4,.53-5.2-1.06a19.37,19.37,0,0,1-2.06-4.11c-.58-1.32-2.81-6.8-3.44-8.09a58.59,58.59,0,0,0-3.5-6.59c-1.91-2.9-4.09-5.62-6.17-8.41a8.78,8.78,0,0,0-.89-.89c-1.22.79-.85,2-.91,3-.23,4.34-.43,9.38-.62,13.71-.08,1.86-.25,5.41-.34,7.39-1.59,2.78-7.5,5.69-10,2.85-.89-1-1.69.35-2-1.11-.61-3.21-.13-13.35.62-16.44.9-3.71.78-7.49,1.13-11.23.27-2.87.76-5.73,1.12-8.59.17-1.38.27-2.77.4-4.16.27-2.94.61-5.89.77-8.84.13-2.36,0-4.73,0-7.1q.08-4.62.26-9.23c.15-4.12.3-8.25.54-12.37a115.11,115.11,0,0,1,1.45-13.82c.61-3.4.41-6.94.56-10.41C211.47,70.9,211.33,70.75,211,70.08Zm8.74,61.58c3.31.94,6.46-.1,7.61-2.86,4.49-2.51,2.77-8.6,2.19-8,.08-.32-.2-.74-.28-1a6.1,6.1,0,0,0-6,.85,3.74,3.74,0,0,1-1.27.55,2.67,2.67,0,0,0-2,2.53c-.07.63-.13,1.27-.14,1.91C219.76,127.6,219.75,129.61,219.74,131.66Z"/><path d="M140.22,171.94a15.72,15.72,0,0,0-2.13,1.41c-2.85,2.65-6,4.86-9.87,5.54-2.95.52-6,.22-8.29-2.12a8.35,8.35,0,0,1-1.09-1.52c-.21-.34-.26-.8-.51-1.1-2.33-2.74-1.82-6-1.17-9,.47-2.22,1.76-4.26,2.68-6.39a11.82,11.82,0,0,0,.81-1.92c.66-2.83,2.38-5,4.28-7.07,2.31-2.51,5.34-3.84,8.45-5,1.35-.53,2.63-1.24,4-1.69a34.14,34.14,0,0,1,3.73-.75c.44-.09.88-.23,1.42-.37a12.72,12.72,0,0,0-1.65-9.48c-1.62-.43-2.79.3-4,1.09-2.25,1.52-4.43,3.18-6.81,4.47-1.15.62-2.67.55-3.9.77a4.91,4.91,0,0,1-.66-6.23,2.47,2.47,0,0,0,.3-.43c2.22-5.73,7.27-8.38,12.22-11.06a7.06,7.06,0,0,1,7,.42,16.22,16.22,0,0,1,6.11,6.25c2.21,3.8,2.93,7.9,3.34,12.11a29.52,29.52,0,0,1-.34,5c-.26,3.41-.72,6.81-.73,10.22,0,3.17.47,6.34.7,9.51.1,1.39.14,2.79.14,4.18a34.73,34.73,0,0,1-.12,4.48c-.31,2.46-1.4,3.68-3.57,3.83-2.73.19-5.53.32-7.71-1.8A36.23,36.23,0,0,1,140.22,171.94Zm1.67-19.6c-.57-.12-1.18-.45-1.62-.3a27,27,0,0,0-5.63,2.3c-3,1.88-6.13,3.39-6.94,6.9-.2.87-.74,4.09.22,5.11.44-.21,5.91.74,7.71-1.45C143.35,163.61,141.86,154.38,141.89,152.33Z"/><path d="M182.27,128.65a7,7,0,0,0-6.58,2.19,3.46,3.46,0,0,0-.65,2.44c.3,4.85.74,9.7,1.07,14.55.14,2,.1,3.95.2,5.92.2,3.94.2,11.88.52,15.81.12,1.52-.65,2.66-1.18,3.92a1.7,1.7,0,0,1-.77.69c-1.08.59-9.39,2.95-9.94,2.37-2.39-2.53-1.45-5.07-1-7.67.7-3.81,1.05-16.23.89-20-.19-4.46-.7-8.9-.94-13.36-.12-2.2.13-4.41.09-6.62s-.22-4.64-.33-7a3.43,3.43,0,0,1,2.58-3.84,2.26,2.26,0,0,1,2.57.5c.44.46.94.87,1.42,1.29s1,.83,1.63,1.38a7,7,0,0,0,2.05-.47c2.56-1.46,5.36-1.39,8.14-1.46a.94.94,0,0,1,.35,0c2.81,1.07,5.67,2,8,4,3.58,3,5.09,7.1,5.5,11.62.2,2.12.12,4.27.17,6.4a7.58,7.58,0,0,0,.09,1.74c.77,2.9,0,5.75-.17,8.63-.21,3.19-.28,4.08-.35,7.28-.06,2.9,0,6.36.07,9.26,0,3.06-2.48,6.43-5.49,5.94-1.25-.2-2.56,1.62-3.78,1.25-2.24-.68-3.29-.11-3.17-2.79.36-8,1.12-19.89,1.46-27.84a81.71,81.71,0,0,0-.33-8.17,17.44,17.44,0,0,0-.45-3.79A37.46,37.46,0,0,0,182.27,128.65Z"/><path d="M189.08,61.15c-.45,4.19-.54,7.41-1.18,10.51C186.74,77.32,184.13,82,177.31,83a28.56,28.56,0,0,1-10.52-.14c-3.74-.82-7.49-2.12-9.55-5.75a14,14,0,0,1-2-5.66c-.23-3.51.16-7.06.25-10.59.06-2.18,1.3-3.95,2.12-5.83,1.15-2.65,2.59-5.19,4-7.73a15.4,15.4,0,0,1,1.93-2.69c1.74-2,2.74-4.57,5.12-6.07a7.57,7.57,0,0,1,6.82-.67c1.24.43,2.22,1.58,3.33,2.38a15.4,15.4,0,0,0,1.49.87c1.41.78,3.43,4.5,5.35,5.6,2.11,1.21,2.54,6.35,2.89,8.52S189.37,59.83,189.08,61.15ZM176,49.29a4.31,4.31,0,0,0-3.54,1.58c-2,2.11-3,4.78-4.2,7.31a26.33,26.33,0,0,0-1.93,14.53c2.59,3.27,6.24,3.26,8.78-.13a9.75,9.75,0,0,0,2-4.94c.23-2.45.79-4.83.9-7.32a59.94,59.94,0,0,0-.2-8A3.51,3.51,0,0,0,176,49.29Z"/><path d="M86.07,127.87l4.57,2.68a6.56,6.56,0,0,0,1.38-.69A15.54,15.54,0,0,1,100,126.5c4.08-.6,7.49,1,10.29,3.95a18.32,18.32,0,0,1,4.11,7.87,41,41,0,0,1,1.08,6.69,3.79,3.79,0,0,1-3,3.78,18.88,18.88,0,0,1-4.49.19c-2.84-.29-2.54-2.65-2.52-5.47,0-1.63-.06-3.26-.15-4.88-.06-1.08-2.66-2.21-3.78-2.67s-2,.15-2.76.95c-1.2,1.26-2.43,2.48-3.61,3.77a6.4,6.4,0,0,0-1.53,4.53c0,3.71.09,7.43.18,11.14q.11,4.77.33,9.53c0,.86.27,1.72.36,2.58.19,1.73.45,3.46.47,5.19s-2.65,1.69-4.79,1.69c-2.92,0-5.45,3.24-7.25,1a2.7,2.7,0,0,1-.44-1.63c0-3.24.31-8.77.35-12,0-3.93,0-7.87,0-11.8,0-3.19.25-6.37.24-9.56,0-2.72-.24-5.44-.33-8.16C82.61,130.26,83.32,129.12,86.07,127.87Z"/></g></g></g></svg>