<svg xmlns="http://www.w3.org/2000/svg" viewBox="0 0 360.99 127.79"><title>gf-logo-07</title><g id="Layer_2" data-name="Layer 2"><g id="Layer_1-2" data-name="Layer 1"><path d="M76.56,53.81c-10.34-.74-15.68,12.21-17,20.67-.71,4.63-.88,10.54,1.31,14.84C63,93.37,68.35,95.5,72.61,96c10.83,1.2,16.54-9.64,17.28-19,.81-10.22-4.72-19.57-14.79-22.38C71,53.44,68,65,72.15,66.21A15.36,15.36,0,0,1,82,73.75c2.8,5.42.43,10.91-6.1,10.59-4.41-.22-9.46-2.13-10-6.93-.48-4.57,1.84-12.38,7.65-12,4.5.32,6.9-11.35,3-11.63Z"/><path d="M48.68,32.39C43,27.66,36.84,22.93,29.06,23.68c-6.93.66-13,5.27-17.81,10A32.29,32.29,0,0,0,1.94,53.33C1,61.25.5,70.28,2,78.13c2.77,14.55,19.53,22.11,33.1,18.16,15.19-4.42,13.84-23,12-35.43-.1-.67-.8-2.19-1.69-2.24-5.28-.33-9.88.59-15,1.55-4,.75-5.85,12.48-1.25,11.62S37.75,70,42.43,70.24L40.73,68c.52,3.47,1.9,9.55.62,12.92C39.63,85.44,32,85.78,28,85.59,17.55,85.11,8.43,77.92,8,67.26a89,89,0,0,1,.52-15.55c.73-5.26,4.7-9.06,8.86-12.07,3.89-2.82,8.51-4.92,13.41-4.18,5.28.81,9.49,4.41,13.45,7.74,3.53,3,7.62-8.15,4.45-10.81Z"/><path d="M99.08,37.33c9,.84,17.91-1.7,26.6-3.81q14.06-3.41,27.87-7.72c4-1.23,5.47-12.93,1.25-11.62q-12.93,4-26.06,7.28c-8.55,2.11-17.83,5.08-26.71,4.25-4.47-.42-6.95,11.26-3,11.63Z"/><path d="M132.59,88.33a615,615,0,0,0-7-62.53c-.42-2.55-2.67-2.66-4.25-1.08-2,2-2.53,5.56-2.09,8.22a589.28,589.28,0,0,1,6.69,59.94c.13,2.17,1.22,4.3,3.58,3.13s3.23-5.43,3.1-7.68Z"/><path d="M116.75,68.37c7.54-2.89,14.33-7.45,22.13-9.65,4-1.13,5.57-12.84,1.25-11.62-7.82,2.21-14.59,6.76-22.13,9.65-3.9,1.49-5.22,13.14-1.25,11.62Z"/><path d="M155.48,58.38a112.13,112.13,0,0,0,1.31,16.06c.35,2.45.75,4.9,1.14,7.35.43,2.74,1.61,6.39,1.33,9.16l3-6.22-.55.45a9.46,9.46,0,0,0-3.1,7.68c.11,1.65,1.36,5,3.58,3.13,5.39-4.44,3.5-11.66,2.6-17.68-1.23-8.16-2.7-16.21-2.69-24.5,0-2.2-1.3-4.25-3.58-3.13s-3.1,5.39-3.1,7.68Z"/><path d="M160.58,71.19c3.18-2.41,18.26-14.58,18-3.65-.05,2.13,1.35,4.35,3.58,3.13,2.42-1.33,3-5.27,3.1-7.68.14-5.77-2.19-11.63-8.77-11.53-6.33.09-11.66,5.33-16.4,8.92-2.21,1.67-3.28,5-3.1,7.68.11,1.75,1.31,4.85,3.58,3.13Z"/><path d="M221.84,88.31q-.71-9.32-2-18.58-.65-4.78-1.46-9.55c-.45-2.62-.55-5.9-1.91-8.25-1.91-3.27-6.52-3.35-9.83-2.54-4.41,1.07-7.73,4.17-10,8-1.21,2-2.47,6.08-.94,8.23s3.5.84,4.64-1a8.56,8.56,0,0,1,7-3.86c4.92-.22,4.23,3.65,4.89,7.6,1.36,8.15,2.3,16.35,2.93,24.58.16,2.15,1.19,4.31,3.58,3.13s3.27-5.45,3.1-7.68Z"/><path d="M215.31,65.7c-12.58-2.43-25.85,5.94-26,19.52-.05,5.61,2.78,10.84,8.66,11.92,6.25,1.15,13-2,17.75-5.81a9.37,9.37,0,0,0,3.1-7.68c-.11-1.7-1.33-4.9-3.58-3.13-3.88,3.05-14.85,8.92-18.59,2.6a.86.86,0,0,0-.83-.7A7.87,7.87,0,0,1,198,80.19,14.41,14.41,0,0,1,202.09,78a19,19,0,0,1,10.27-.64c4.3.83,7.09-10.83,3-11.63Z"/><path d="M228.73,59.14c5.36,3.61,3.92,9.89,4.19,15.5.29,5.92,2.25,11.75,1.73,17.7-.16,1.84.05,4.85,2.51,4.71,2.29-.14,3.54-4.57,3.69-6.23.71-8.06-1.65-15.79-1.66-23.83,0-6.56-.26-14-6.27-18-3.75-2.53-7.34,8-4.18,10.17Z"/><path d="M238.24,66.69c3.45-2.22,7.29-4.32,11.39-5,5-.89,7.21,2.1,8.23,6.58,1.9,8.31-.1,17.42-.14,25.85,0,2.08,1.23,4,3.38,3S264,92,264,89.78c0-10.77,3.11-23.42-1.94-33.55-5.13-10.3-17.09-4.4-24.32.25-3.08,2-3.91,13,.46,10.21Z"/><path d="M271.73,18.84q3,35.55,5.56,71.13c.19,2.74,2.61,5.42,4.95,6.64,1.62.85,4.74,1.38,4.54-1.43q-2.53-35.58-5.56-71.13c-.23-2.75-2.58-5.41-4.95-6.64-1.59-.83-4.78-1.39-4.54,1.43Z"/><path d="M281.54,65c7.46-7.85,15.81-14.68,24.31-21.35a9.36,9.36,0,0,0,3.1-7.68c-.11-1.71-1.33-4.9-3.58-3.13-9.09,7.13-18,14.48-26,22.86a9.57,9.57,0,0,0-2.09,8.22c.67,2.4,2.51,2.91,4.25,1.08Z"/><path d="M284,68.17c8.05,10.71,19.58,18.25,26.93,29.52,3.06,4.69,7.73-6,5.58-9.27-7.73-11.85-19.62-19.82-28.07-31.06-1.63-2.17-4.24,2-4.73,3.12-1,2.41-1.36,5.51.28,7.69Z"/><path d="M7.28,127.78c22.44-2,45-2.1,67.47-2.65,22.32-.55,44.53-2.77,66.84-3.33s44.66-.57,67,.65c22.61,1.23,45.08,1.6,67.72.88,25.19-.8,50.37-2.24,75.58-2.36,5.63,0-1.1-9.74-5.08-9.73-44.48.2-89,4.63-133.43,2.06-22.4-1.29-44.74-2-67.17-1.46s-45,2.61-67.61,3.32c-25.48.81-51,.69-76.4,2.9-5.73.5,1.13,10.07,5.08,9.73Z"/><path d="M351,2.09c-.31,22.06,0,44.07.55,66.12.11,3.88,9.64,10.7,9.49,5.21-.6-22.05-.87-44.06-.55-66.12C360.49,3.41,351-3.48,351,2.09Z"/><path d="M357.19,90l-2.85-2.43a5.83,5.83,0,0,0-4-1.52,1.57,1.57,0,0,0-1.22.47,2.12,2.12,0,0,0-.54,1.68,7.69,7.69,0,0,0,1.14,4.12,14,14,0,0,0,5.37,5.37,4.67,4.67,0,0,0,3.25.67,2,2,0,0,0,1.28-2.1,6.94,6.94,0,0,0-1.49-3.56,11.07,11.07,0,0,0-3.46-3.08l-.28-.16,1.23.81-.26-.2,1.2,1.06a4.22,4.22,0,0,1-.34-.35l1,1.22a3,3,0,0,1-.2-.26l.78,1.24a4.43,4.43,0,0,1-.24-.43l.5,1.21a3.85,3.85,0,0,1-.2-.62l.21,1.11a3.3,3.3,0,0,1,0-.82l-5.76.63,2.85,2.43A6.79,6.79,0,0,0,358.67,98a2,2,0,0,0,2.13-1.24c.71-2.61-1.86-5.29-3.62-6.79Z"/></g></g></svg>