<svg xmlns="http://www.w3.org/2000/svg" viewBox="0 0 346.33 123.08"><defs><style>.cls-1{fill:#6ef;}</style></defs><title>gf-logo-02</title><g id="Layer_2" data-name="Layer 2"><g id="Layer_1-2" data-name="Layer 1"><path class="cls-1" d="M3.88,93.84A397.68,397.68,0,0,1,109.11,50.15c11-2.8,22.21-5.22,33.61-5.55L139.87,9.05A217,217,0,0,0,98,59.57q-4.77,7.95-8.83,16.29a14.3,14.3,0,0,0-.41,3.24,44.11,44.11,0,0,0-.11,5c.07,3.79.32,7.58.68,11.35.13,1.33,1.86,15.73,3.17,15.25L199.66,72.37l30.52-10.93L227.32,25.9C214.22,42,196.94,54.67,186,72.54a60.77,60.77,0,0,0-6.89,15.65c-.7,2.53-.57,5.71-.52,8.26.07,3.79.32,7.58.68,11.35A92.39,92.39,0,0,0,180.6,118c.11.51,1.17,5.49,1.81,5.09A630.9,630.9,0,0,1,304.55,65.3Q322.59,59,341,53.87c1-.29,1-5.26,1-5.32a104.18,104.18,0,0,0-.44-12.61c-.11-1.33-1.77-18.07-3.4-17.61A630.9,630.9,0,0,0,212.7,68.58q-16.86,9-33.15,18.93l3.33,34.87a64.17,64.17,0,0,1,9.37-19.43l-.47.68c11-15.65,26.4-27.39,38.4-42.18,1-1.29.92-3.88,1-5.32a104.18,104.18,0,0,0-.44-12.61c-.11-1.29-2-18.11-3.4-17.61L120.17,64.26,89.65,75.19,93,110.06a216.17,216.17,0,0,1,16.67-28.39l-.47.68A215.47,215.47,0,0,1,142.73,44.6c1.09-1,.94-4.32,1-5.32a104.18,104.18,0,0,0-.44-12.61,104.29,104.29,0,0,0-1.59-12.52c-.17-.81-.71-5.13-1.81-5.09-10.34.3-20.5,2.31-30.52,4.78q-13.75,3.38-27.23,7.74A397.12,397.12,0,0,0,29.17,43Q14.79,50.08,1,58.29c-1.09.65-1,4.76-1,5.32A104.18,104.18,0,0,0,.48,76.23,104.29,104.29,0,0,0,2.07,88.75c.11.51,1.16,5.48,1.81,5.09Z"/><path d="M283.3,14c-1.27,10.55-2.57,21.15-2.47,31.8a96.83,96.83,0,0,0,1.38,15.79c1.06,6,2.29,11.68,1.31,17.82-.66,4.12,8.62,11.24,9.28,7.11,1.71-10.78-1.92-21-2.38-31.78-.48-11.25.82-22.48,2.16-33.63.33-2.71-1.53-5.21-3.62-6.79-.94-.71-5.33-3-5.66-.32Z"/><path d="M292.46,52.56c2.75-1.31,6.28-1.4,9.27-1.74,2.32-.26,4-1.72,3,1a8.07,8.07,0,0,1-2.46,2.92,27,27,0,0,1-17.52,6.15c-5.54,0,1.08,9.58,5,9.59,8.8,0,26.5-4.63,24.63-16.54-.85-5.42-5.5-10.48-10.63-12.27-2.67-.93-5.34-.7-8.08-.37-3.26.39-7.13.43-10.11,1.85-4.36,2.08,3.29,11.15,6.92,9.42Z"/><path d="M299.59,63.18a63.33,63.33,0,0,1,5.56,9.26c1.35,2.77,2.22,5.82,3.9,8.41,2.61,4,9.79,9.7,13.9,4.26,2.71-3.58-6-11.78-8.4-8.57-1.07,1.42-2.12.58.16,2.27,2.55,1.89,1.28,1,.93-.21a36.49,36.49,0,0,0-2.74-6.18,81.82,81.82,0,0,0-6.81-11.14c-1.2-1.67-4.36-4.72-6.71-3.76s-.82,4.24.21,5.66Z"/><path d="M107.39,26.74c9,.84,18-1.79,26.7-3.89q14.06-3.41,27.87-7.72C166.32,13.78,159,4.47,155,5.71Q142.12,9.71,129,13c-8.57,2.12-17.72,5-26.61,4.17-2.77-.26-2.31,2.87-1.52,4.51,1.13,2.34,3.84,4.83,6.54,5.09Z"/><path d="M138.32,83.64a602.14,602.14,0,0,0-6.87-61.23,9.55,9.55,0,0,0-4.95-6.64c-1.42-.74-5-1.43-4.54,1.43a602.14,602.14,0,0,1,6.87,61.23c.17,2.73,2.62,5.43,4.95,6.64,1.64.86,4.71,1.37,4.54-1.43Z"/><path d="M125.16,57.71c7.54-2.89,14.32-7.44,22.13-9.65,4.33-1.22-2.9-10.56-6.92-9.42-7.81,2.21-14.59,6.76-22.13,9.65-4.38,1.68,3.08,10.89,6.92,9.42Z"/><path d="M158.4,43.94A114.14,114.14,0,0,0,160,61.46c.42,2.76.89,5.51,1.3,8.27.18,1.23.37,2.45.53,3.68.14,1,.31,3.37.35,3.33-3.19,2.62,5,11.4,8.4,8.57,1.73-1.42,1.11-3.8.86-5.77-.43-3.38-1-6.75-1.51-10.12a128.36,128.36,0,0,1-2-20.28c0-3.89-9.48-10.76-9.49-5.21Z"/><path d="M168.87,60.5a96.49,96.49,0,0,1,8.21-6.07,25.94,25.94,0,0,1,4.35-1.82q3.46.39,0-1.77a11.69,11.69,0,0,1,.05,2.25c-.09,3.89,9.35,10.79,9.49,5.21.17-7-4.5-13.9-11.64-15.2-7.36-1.34-13.51,4.75-18.89,8.83-3.22,2.44,4.82,11.29,8.4,8.57Z"/><path d="M227.57,83.63c-.54-7.06-1.3-14.1-2.35-21.11-.77-5.13-.9-11.84-3.8-16.29-5.35-8.19-17.91-7.19-22.79.88-2.36,3.91,6.45,11.8,8.4,8.57A11.25,11.25,0,0,1,212,51a9.8,9.8,0,0,1,2.49-.77c1.18-.18,3.71.64,2.3-.4l-3-3.52c1.06,1.91,1,5.06,1.39,7.22q.7,4.29,1.27,8.6c.72,5.43,1.26,10.87,1.67,16.33.21,2.74,2.6,5.41,4.95,6.64,1.61.84,4.75,1.38,4.54-1.43Z"/><path d="M215.65,57.15c-10.76-2.08-27.19,5-22.65,18.38a17.27,17.27,0,0,0,13.3,11c6.4.93,12.81-2,17.73-5.91,3.21-2.53-4.88-11.34-8.4-8.57a23.71,23.71,0,0,1-8.93,4.54,13.47,13.47,0,0,1-3.82.51q-2.55-1-1.39.3.74,1.39.22-.72a7.24,7.24,0,0,1,.59-2.59c2.82-6.85,11.94-8.62,18.36-7.38,2.8.54,2.23-3.06,1.52-4.51a9.54,9.54,0,0,0-6.54-5.09Z"/><path d="M234.18,47.52c3.39,2.28,1.57,12,2,15.56.6,5.54,2,10.85,1.46,16.47-.32,3.64,8.46,10.22,8.93,4.9.72-8.24-1.6-16.68-1.69-25-.08-7.21-2.56-13.88-8.74-18s-6.49,3-1.92,6.08Z"/><path d="M246.3,56.07a34.65,34.65,0,0,1,10.09-4.67c.75-.19,3-.9,3.59-.63,1.12.48,1.25,5.33,1.36,6.48.66,7.54-.58,15.11-.61,22.65,0,3.67,8.94,10.16,9,4.92,0-11.64,3.52-25.57-3.52-35.94-7.25-10.69-18.65-6.8-27.79-.91-3.07,2,4.3,10.43,7.93,8.09Z"/><path d="M46.46,34c-8.3.94-17.69,4.4-19.16,13.77C25.92,56.7,34,64.15,41.72,67s18-3.89,18.35-12.2c.43-9.09-8.93-14.17-16.54-15.77-6-1.27-1,7.47,2.52,8.22,1,.21,4.54.53,5.15,1.41,1.45,2.11-1.56,5.35-2.83,6.58-3.09,3-9.58,6.29-12.31,1.09-1.83-3.48,1.72-8.11,4.41-10.07,3.51-2.56,8-3.3,12.22-3.78,3.64-.41-2.46-8.91-6.23-8.48Z"/><path d="M49,45.8c6.26,1,10.59-3.63,13.94-8.22,2.39-3.27-5.44-10.61-7.56-7.72-2.61,3.57-5.89,8.13-10.9,7.31-2.49-.41-2.06,2.71-1.37,4.06A8.57,8.57,0,0,0,49,45.8Z"/><path d="M36,79.13c3.63.74,7.4,1.17,10.94,2.27,3.86,1.2,7,2.9,3.65,6.8-3.73,4.32-9.75,5.16-15.1,5.68-2.23.21-5.74.89-7.94.19s-1.84-1.27-.61-3.16a15.18,15.18,0,0,1,2.31-2.56c3.57-3.43,7.63-5.85,11.57-8.75,2.91-2.14-4.29-10.12-7.56-7.72-6.21,4.57-17.5,9.77-15.18,19.24,2.68,10.95,14.44,12.2,23.63,11.24,7.49-.78,22.94-5.19,19.07-16C56.52,74.51,42,72.64,31.48,70.49c-2.53-.52-2,2.77-1.37,4.06A8.61,8.61,0,0,0,36,79.13Z"/><path d="M29.46,55.44c-2.75,2-6.52,3.86-8.73,6.42-2,2.25-1.06,5.7.25,8,1.59,2.82,4.22,4.53,6.89,6.2,3.33,2.08,6.68,2.35,10.44,3,2.51.47,2-2.74,1.37-4.06a8.59,8.59,0,0,0-5.89-4.58c-1.62-.3-3.49-.26-5-.88-.78-.32-1.39-1.13-2.18-1.37l-.13-.08q1.59,3.73,1.75,1.81a16.37,16.37,0,0,1,1.23-1.38c.76-.6,1.58-1.13,2.36-1.7L37,63.15c2.91-2.09-4.25-10.09-7.56-7.72Z"/><path d="M71,51c-8,3.58-10.87,15.21-7.32,22.86C67.46,81.93,77.48,87.24,85.85,83c8.92-4.55,11.29-17.7,5.8-25.76A17,17,0,0,0,81,50.29c-2.78-.57-9.6-1.57-10.79,2.05s7.06,10.33,8.35,6.4c.12-.37,3.53-.29,4.21-.23,2.8.25,3.11.57,3.09,3.31,0,5.37-1.88,10.47-7,13-1.78.88-4.88,1.86-6.75.7s-1.46-4.19-1.11-6.23c.67-3.91,2.36-8.08,6.18-9.79S74.35,49.51,71,51Z"/><path d="M329.12,1.87V45.19c0,3.5,8.54,9.68,8.54,4.69V6.56c0-3.5-8.54-9.68-8.54-4.69Z"/><path d="M339.67,77a15.06,15.06,0,0,0,6.16-4.39,2.56,2.56,0,0,0,.3-2.51c-1.41-3.43-4.7-7.1-8.76-7a4.2,4.2,0,0,0-4.47,4.12,6.08,6.08,0,0,0,1.34,3.2,9.52,9.52,0,0,0,3.11,2.78c1.71.86,3.94,1.17,4.08-1.29-.07,1.14.08.14.07.08,0,.26-.41.43,0,.11a2.57,2.57,0,0,0,.37-.31c-.31.38-.36.13.06,0a2.69,2.69,0,0,0,.5-.12c.31-.15-.69,0-.14,0,.74.06-.9-.29-.21-.06A7.44,7.44,0,0,1,338,67.42l.3-2.51a11.65,11.65,0,0,1-4.83,3.63c-2.17.86-.8,3.82.19,5.1a9.52,9.52,0,0,0,3.11,2.78c.82.42,2,1,2.93.61Z"/></g></g></svg>