<svg xmlns="http://www.w3.org/2000/svg" viewBox="0 0 400 131.48"><defs><style>.cls-1{fill:#fff;}.cls-2{fill:#00e2ff;}</style></defs><title>gf-logo-18</title><g id="Layer_2" data-name="Layer 2"><g id="Layer_1-2" data-name="Layer 1"><path d="M71,10.93l-9.61,8.91c-1.78-1.54-3.25-3-4.92-4.23C47.91,9.37,38.54,8.73,28.69,11.8a8.37,8.37,0,0,0-5.42,5.11C19.84,25,17.7,33.32,18.44,42.14,19.83,58.43,34.12,68.5,49,64.38a2.67,2.67,0,0,0,2.36-2.69c.4-5.64.79-11.29,1.36-16.91.19-1.81-.46-2.16-2-2.13-3.64.06-7.27,0-11.69,0,3.29-3,6.07-5.57,8.87-8.08a1.9,1.9,0,0,1,1.17-.31c5.57,0,11.13,0,17.13,0-.29,3.94-.55,7.63-.85,11.31-.45,5.64-1,11.28-1.35,16.92a4.57,4.57,0,0,1-2.33,4C55.28,70.39,49.13,75,41.52,76.05,24.83,78.45,9.37,70.35,7.36,50.83c-.92-9-.16-17.67,3.4-25.94C16.24,12.14,26.59,5.32,39.69,2.28a36.16,36.16,0,0,1,19.73.48A23.33,23.33,0,0,1,71,10.93Z"/><path d="M342.4,56.23,341,74.5l-13.37.61c.13-1.72.23-3.25.38-4.78.77-8.12,1.63-16.22,2.31-24.35,1.13-13.68,2.16-27.37,3.19-41.06.1-1.29.46-2.06,1.88-2.05,3.81,0,7.63,0,11.78,0l-3.33,35.74.58.33c.59-.58,1.16-1.17,1.76-1.74,3.48-3.33,6.79-6.88,10.51-9.91,2.9-2.36,5.74-1.83,8.53.74,4.8,4.43,5.52,11.91,1.32,17.75a38,38,0,0,1-6.92,7.13c-1.83,1.49-1.71,2.3-.28,3.89,3.73,4.14,7.31,8.43,10.94,12.66,0,0,0,.15.06.5-3.24,1.93-6.54,4-10,5.84a2.62,2.62,0,0,1-2.31-.8c-4.53-5.65-9-11.39-13.41-17.11-.5-.63-1-1.23-1.55-1.85Zm.3-3.29c.66-.1,1-.05,1.12-.19,2.85-2.55,5.88-3.67,9.64-1.84a3.05,3.05,0,0,0,2.89-.62c2.29-3.71,1.83-10.28-2.12-12.79a2.45,2.45,0,0,0-3.54.48c-1.61,1.89-3.23,3.79-4.67,5.81A17.16,17.16,0,0,0,342.71,52.93Z"/><path d="M291,74.52l-12.17.58,4.05-47.19,12.42-.69-1.48,12.42,2-1.77c3.32-2.9,6.54-5.91,10-8.63a17.47,17.47,0,0,1,5.33-2.62c6.57-2.15,10.68.82,10.63,7.79,0,4.15-.44,8.31-.78,12.46-.71,8.7-1.48,17.4-2.24,26.1,0,.49-.12,1-.19,1.49-3.63.22-7.19.42-10.75.65-1.52.1-1.7-.56-1.58-2,.85-10,1.66-20.06,2.26-30.1a11,11,0,0,0-1.33-5.43,3,3,0,0,0-5.21-.73,22.77,22.77,0,0,0-4,5.68c-4.29,8.92-5.91,18.48-6.5,28.27,0,.66-.07,1.33-.16,2S291.12,73.94,291,74.52Z"/><path d="M195.26,2.94c-1.48,2.66-2.65,5-4.13,7.23a3.47,3.47,0,0,1-2.57.89c-5.33,0-10.66-.12-16-.38-2.21-.11-2.93.87-3.13,2.84-.58,6-1.19,11.92-1.89,17.87-.24,2.06.38,2.88,2.54,2.81,6.24-.22,12.49-.31,18.73-.44.9,0,1.8,0,3.31,0-1.53,2.81-2.73,5.23-4.17,7.51-.32.5-1.44.68-2.2.69-5.5.06-11,.08-16.5,0-1.72,0-2.56.43-2.69,2.3-.48,7.06-1.08,14.1-1.63,21.15-.23,3-.43,6-.66,9.09l-13.41.61c.28-3.33.52-6.5.82-9.68.76-8.12,1.59-16.23,2.3-24.35.85-9.78,1.61-19.57,2.39-29.35.18-2.32.15-4.67.48-7C157,4.09,158,3,158.6,3,170.66,2.91,182.73,2.94,195.26,2.94Z"/><path d="M268.92,74.53l-12.34.57L258,63.41l-1.11-.86a8.67,8.67,0,0,1-1.25,2.37,125.19,125.19,0,0,1-10.24,9.47c-4.6,3.55-7.66,2.83-10.74-2.08-3.53-5.62-4.08-11.89-3.36-18.29A42.41,42.41,0,0,1,233,46.24C235,40,238.25,34.77,244.48,31.88c3.24-1.5,6.29-3.44,9.59-4.75,7.67-3,16.33-.21,21.32,6.84-5.34,2.21-3.29,7.18-3.76,11-1.11,9-1.52,18.06-2.23,27.09A21.81,21.81,0,0,1,268.92,74.53ZM242.51,51.74c.61,3.83.72,7,1.7,9.83a7.88,7.88,0,0,0,4,4.28c.8.33,3-1.66,4-3a41.81,41.81,0,0,0,7.63-20.57c.55-5.81-.56-7.41-6.48-8.36-4-.64-6.64.59-7.78,4.45C244.19,42.91,243.41,47.67,242.51,51.74Z"/><path d="M117.21,46.32c-.5,3.19-.85,6.41-1.51,9.57-1.75,8.4-8.09,12.73-14.86,16.83C95.51,75.94,90.1,77.32,83.94,76,77.1,74.61,73,70.52,71.8,63.78c-1.58-9.14-.83-18,5.24-25.6A33,33,0,0,1,94.25,26.7c11.61-3.08,21.55,2.29,22.58,16.07.09,1.16,0,2.33,0,3.5ZM106.72,54.2c-.41-2.73-.6-5-1.11-7.15-1.65-7.12-6-11.42-13-12.3-5.06-.63-6.69.36-8.34,4.32a28.85,28.85,0,0,0-2,14.9c1.19,9.66,8.08,14.83,17.69,13.34,2.7-.42,4.66-1.54,5.16-4.5S106.22,56.79,106.72,54.2Z"/><path d="M200.58,27.89,213,27.24,211.46,41.9l.5.27c.42-.68.87-1.34,1.25-2,2-3.65,3.8-7.41,6-10.94,2.34-3.79,3.68-4,7.62-2,1.53.79,2.95,1.81,4.63,2.85l-7,13.3c-1.53-.75-2.86-1.38-4.16-2.06-2.16-1.13-3.92-.38-4.77,1.6-1.6,3.73-3.34,7.51-4.12,11.44a176.82,176.82,0,0,0-2.24,17.79c-.17,1.8-.41,2.72-2.53,2.59-3.22-.19-6.45,0-10,0Z"/><path class="cls-1" d="M342.71,52.93A17.16,17.16,0,0,1,346,43.78c1.44-2,3.06-3.91,4.67-5.81a2.45,2.45,0,0,1,3.54-.48c4,2.51,4.41,9.08,2.12,12.79a3.05,3.05,0,0,1-2.89.62c-3.76-1.83-6.8-.71-9.64,1.84C343.68,52.88,343.37,52.83,342.71,52.93Z"/><path class="cls-2" d="M396.11,97.83a297.06,297.06,0,0,1-21.35,21.66c-1.4,1.29-16.66,13-17.46,11.56A93.47,93.47,0,0,1,348.87,111l19.7-13.84L359,113.58c-1.17,2-18.69,15.44-19.7,13.84L329.5,112,349.2,98.2a75.93,75.93,0,0,1-6.93,12.21c-4.9,7-12.81,12.44-20.16,16.47-1.7.93-3.66,2.1-5.6,1.13-1.7-.85-2.52-3.07-3.31-4.64l-7.12-14.1L325,96.39c-3.47,3.91-5.17,9.39-7.88,13.81a32.44,32.44,0,0,1-6.06,7.18,82.8,82.8,0,0,1-18.08,12.76c-3.15,1.54-5.16,1.36-6.74-1.88-1.06-2.18-2-4.41-3-6.61-2.31-5.06-4.61-10.12-6.94-15.17l19.7-13.84L283.37,113c-1.22,2-19,15.25-19.7,13.84l-5.8-11.13c-.87-1.68-3.29-8.53-6.31-7l6.27-3.83q13-11.26,8.23-6.25l-.76.87L263,102l-5,5.63-9.55,10.82c-1.41,1.59-18.07,14.35-18.87,12.88-2.31-4.26-1.83-9.06-2.29-13.73-.41-4.08-2.15-10.34-7.15-10.32l-.6.14,14.83-10.73c.06-.13.54-.85,0,0-.31.53-.67,1-1,1.55a29.57,29.57,0,0,0-1.68,3.69c-1,2.66-1.83,5.39-2.8,8.07a18.34,18.34,0,0,1-3.64,6.58c-2.93,3.17-6.71,5.77-10.22,8.24-2.7,1.9-6.34,5.1-9.75,5.72-3.85.7-6.31-4.19-8.13-6.84l-8.95-13c-1.12-1.62,18.91-15.75,19.86-14.36l7.77,11.26c2.2,3.18,4.19,7.17,8,8.58,0,0,.29,0,.26,0l.25-.07-17.55,12.6c.24-.42.56-.79.8-1.21a22.8,22.8,0,0,0,1.53-3.45c1-2.65,1.78-5.37,2.77-8a23,23,0,0,1,3.88-7.15,47.53,47.53,0,0,1,7.17-6.35,72,72,0,0,1,13.44-8.71c2.5-1.16,5.17-1.65,7.25.52a13.21,13.21,0,0,1,3.21,6.72c1,5.32-.08,11,2.59,15.89L230.6,129.88c9.15-10.37,17.66-21.37,29.06-29.38,4-2.8,12-10.18,15.77-3.59,2.88,5.07,5.41,10.37,8.11,15.55l-19.7,13.84L276.4,106c1.24-2,19.12-15.1,19.7-13.84q2.63,5.69,5.22,11.39c1.72,3.77,3.12,8.16,5.39,11.63,2.62,4,5.88-1.31-4.87,6.74q-9.86,8.28-6.55,4.84a1.43,1.43,0,0,0,.29-.32c.31-.42.63-.84.93-1.27a53,53,0,0,0,3.35-5.78c2.14-4.1,4.13-8.08,7.22-11.56,1.41-1.59,18.16-14.28,18.87-12.88l5.8,11.49c.6,1.18,3.5,8.8,5.94,7.54l-13.85,9.47c-4.78,3.88-1.62,1.1-.49-.57q1.22-1.79,2.33-3.66a77.43,77.43,0,0,0,4-7.66c1-2.19,18.78-15.29,19.7-13.84l9.77,15.38-19.7,13.84L349,110.45c.83-1.42,3-2.94,4.13-3.9,2-1.64,4.11-3.2,6.25-4.7.73-.51,9.13-5.9,9.32-5.25a93.47,93.47,0,0,0,8.42,20.07l-17.46,11.56a259.61,259.61,0,0,0,18.54-19c3.6-4.07,8.76-7.32,13.33-10.18,1.32-.83,3.43-2.66,5-2.71,1.2,0-.06,1.05-.45,1.49Z"/><path class="cls-2" d="M207.88,97.83a297.06,297.06,0,0,1-21.35,21.66c-1.4,1.29-16.66,13-17.46,11.56A93.47,93.47,0,0,1,160.64,111l19.7-13.84-9.59,16.45c-1.17,2-18.69,15.44-19.7,13.84L141.27,112,161,98.2A75.93,75.93,0,0,1,154,110.41c-4.9,7-12.81,12.44-20.16,16.47-1.7.93-3.66,2.1-5.6,1.13-1.7-.85-2.52-3.07-3.31-4.64l-7.12-14.1,18.87-12.88c-3.47,3.91-5.17,9.39-7.88,13.81a32.44,32.44,0,0,1-6.06,7.18,82.8,82.8,0,0,1-18.08,12.76c-3.15,1.54-5.16,1.36-6.74-1.88-1.06-2.18-2-4.41-3-6.61-2.31-5.06-4.61-10.12-6.94-15.17l19.7-13.84L95.14,113c-1.22,2-19,15.25-19.7,13.84l-5.8-11.13c-.87-1.68-3.29-8.53-6.31-7l6.27-3.83q13-11.26,8.23-6.25l-.76.87L74.77,102l-5,5.63-9.55,10.82c-1.41,1.59-18.07,14.35-18.87,12.88-2.31-4.26-1.83-9.06-2.29-13.73-.41-4.08-2.15-10.34-7.15-10.32l-.6.14L46.16,96.73c.06-.13.54-.85,0,0-.31.53-.67,1-1,1.55A29.57,29.57,0,0,0,43.53,102c-1,2.66-1.83,5.39-2.8,8.07a18.34,18.34,0,0,1-3.64,6.58c-2.93,3.17-6.71,5.77-10.22,8.24-2.7,1.9-6.34,5.1-9.75,5.72-3.85.7-6.31-4.19-8.13-6.84L0,110.8C-1.08,109.18,19,95,19.91,96.44l7.77,11.26c2.2,3.18,4.19,7.17,8,8.58,0,0,.29,0,.26,0l.25-.07L18.6,128.75c.24-.42.56-.79.8-1.21a22.8,22.8,0,0,0,1.53-3.45c1-2.65,1.78-5.37,2.77-8a23,23,0,0,1,3.88-7.15,47.53,47.53,0,0,1,7.17-6.35,72,72,0,0,1,13.44-8.71c2.5-1.16,5.17-1.65,7.25.52a13.21,13.21,0,0,1,3.21,6.72c1,5.32-.08,11,2.59,15.89L42.37,129.88C51.52,119.51,60,108.51,71.43,100.5c4-2.8,12-10.18,15.77-3.59,2.88,5.07,5.41,10.37,8.11,15.55L75.61,126.3,88.17,106c1.24-2,19.12-15.1,19.7-13.84q2.63,5.69,5.22,11.39c1.72,3.77,3.12,8.16,5.39,11.63,2.62,4,5.88-1.31-4.87,6.74q-9.86,8.28-6.55,4.84a1.43,1.43,0,0,0,.29-.32c.31-.42.63-.84.93-1.27a53,53,0,0,0,3.35-5.78c2.14-4.1,4.13-8.08,7.22-11.56,1.41-1.59,18.16-14.28,18.87-12.88l5.8,11.49c.6,1.18,3.5,8.8,5.94,7.54l-13.85,9.47c-4.78,3.88-1.62,1.1-.49-.57q1.22-1.79,2.33-3.66a77.43,77.43,0,0,0,4-7.66c1-2.19,18.78-15.29,19.7-13.84l9.77,15.38-19.7,13.84,9.59-16.45c.83-1.42,3-2.94,4.13-3.9,2-1.64,4.11-3.2,6.25-4.7.73-.51,9.13-5.9,9.32-5.25a93.47,93.47,0,0,0,8.42,20.07l-17.46,11.56a259.61,259.61,0,0,0,18.54-19c3.6-4.07,8.76-7.32,13.33-10.18,1.32-.83,3.43-2.66,5-2.71,1.2,0-.06,1.05-.45,1.49Z"/><path d="M389.42,1.81,400,0c-.07.45-.2,1.15-.3,1.85-1,6.74-2.07,13.47-2.84,20.23s-1.28,13.36-3.39,19.77c-.8,2.43-2,4.73-2.87,7.13s-2.62,3.18-4.84,3.48l-2.77.36C387.45,36.07,388.41,19,389.42,1.81Z"/><path d="M387.18,73.49l-6-6.4L388.54,60c.92,1.1,1.89,2.4,3,3.56s2.28,2.06,3.33,3Z"/></g></g></svg>