<svg xmlns="http://www.w3.org/2000/svg" viewBox="0 0 233.09 138.79"><defs><style>.cls-1{fill:#99f3ff;}.cls-2{fill:#59ecff;}</style></defs><title>gf-logo-05</title><g id="Layer_2" data-name="Layer 2"><g id="Layer_1-2" data-name="Layer 1"><path class="cls-1" d="M29.59,92.41A119.73,119.73,0,0,1,48.26,74.6l-.56.44c13.63-10.61,28.43-19.63,43.1-28.5,15.33-9.28,30.88-18.12,46.45-26.92,8.28-4.68,16.59-9.76,25.86-11.81l-29-2.57c-14.94,14.19-30.66,27.4-46,41.08S57.91,74,44.76,89.88Q39.2,96.6,34.12,103.73c-3.39,4.78-7.28,9.91-7.65,16.06l.49.52a10.93,10.93,0,0,0,2.6.8,60.76,60.76,0,0,0,7.63,1.2,83.45,83.45,0,0,0,16.76.38c9.28-.94,17.75-5.44,25.85-10.08,7.58-4.34,14.87-9.22,22-14.31,14.27-10.15,28-21.17,42.58-30.81A190.28,190.28,0,0,1,169.87,53.1l-29-2.57L117.19,76.74C109.38,85.39,101.47,94,93.9,102.83c-3.72,4.36-8.55,9.15-8.9,15.35-.05.91,4.37,1.61,4.23,1.58a83.6,83.6,0,0,0,8.45,1.11c3.13.28,6.29.5,9.44.47l3-.07a15.7,15.7,0,0,0,3.86-.52l61.09-40.22L192.5,69.07l-29-2.57L139.34,93.77c-4,4.46-8,8.85-11.86,13.4-2.64,3.1-5.45,8-1.66,11.28a9.88,9.88,0,0,0,4,1.78,80.11,80.11,0,0,0,14.49,2.06,84.4,84.4,0,0,0,18.33-.2,51.51,51.51,0,0,0,15.82-5.38c8.7-4.43,16.74-10.12,24.91-15.54,9.16-6.08,18.6-11.87,29-15l-29-2.57c.39,2.76-1.05,5.14-2.61,7.25s-3.15,4.07-4.79,6.06c-3.28,4-6.68,7.85-9.91,11.88a93.59,93.59,0,0,0-8.74,12.58,56,56,0,0,0-3.31,6.93c-.94,2.39-1.5,4.8.84,6.45,1.69,1.19,4.38,1.61,6.3,2a102.13,102.13,0,0,0,13.19,1.67c6.85.51,14.22.93,20.94-1.13,1.84-.57-1.54-1.54-1.38-1.49a45.51,45.51,0,0,0-8.77-1.46,104,104,0,0,0-11.4-.64,24.3,24.3,0,0,0-6.88.58l-1,.29c-.58.16-.53.06,0,0-.25,0-.78.23-1,.14l1.32-.11a45,45,0,0,1,8.18.41,56.84,56.84,0,0,1,8.79.91q1.06.26.45.09t.17.08c.58.51.07,0-.17-.14a4,4,0,0,1-.75-.62l.49.52c-1.45-2-.14-4.59.7-6.58a58,58,0,0,1,3.33-6.63,98.57,98.57,0,0,1,8.71-12.3c3.14-3.88,6.43-7.63,9.6-11.49,1.58-1.92,3.15-3.86,4.63-5.86s3-4.48,2.61-7.25c-.14-1-4.1-1.56-4.23-1.58A83.6,83.6,0,0,0,220.34,83c-3.13-.28-6.29-.5-9.44-.47a24.44,24.44,0,0,0-6.88.58c-20.53,6.26-36.52,22.22-55.73,31.46a50.69,50.69,0,0,1-9.07,3.46l-1,.24c.82-.2.34-.07-.21,0l-1,.15c-1.48.21,0,.16.6,0a5.52,5.52,0,0,1-1,.05,38.58,38.58,0,0,1,5,.07,69,69,0,0,1,13.45,1.57c.26.1,1,.6.21,0a9.71,9.71,0,0,1-1.07-.78l.49.52c-3.07-3.41.2-8.18,2.59-10.93,3.95-4.55,8-9,12-13.53l23.77-26.83c.49-.56-5.05-1.74-4.23-1.58a83.6,83.6,0,0,0-8.45-1.11c-3.13-.28-6.29-.5-9.44-.47l-3,.07a15.7,15.7,0,0,0-3.86.52L103,106.28,85.56,117.74l29,2.57c.31-5.47,4.11-9.67,7.4-13.58,3.74-4.44,7.58-8.78,11.45-13.08q11.77-13.1,23.6-26.14l13.42-14.86c.5-.55-5.06-1.74-4.23-1.58A83.6,83.6,0,0,0,157.75,50c-3.13-.28-6.29-.5-9.44-.47-2.11,0-4.9-.32-6.88.58-15.6,7.15-29.87,17-43.78,27.31S69.83,98.53,54.95,107.49c-4.16,2.5-8.41,4.88-12.75,7a64.49,64.49,0,0,1-6.93,3c-1.22.43-2.45.79-3.7,1.11-.09,0-.92.22-.24.07s-.6.1-.75.13c-.68.11-1.35.19-2,.26L56,121.93c.33-5.49,3.49-10.08,6.48-14.4s6-8.37,9.26-12.38A294.64,294.64,0,0,1,92.3,72.28c14.49-14.65,30.08-28,45.5-41.54,8.74-7.66,17.43-15.37,25.87-23.39.52-.49-5.11-1.75-4.23-1.58A83.6,83.6,0,0,0,151,4.67c-5.32-.47-11-1.05-16.32.12-9.89,2.19-18.76,7.79-27.58,12.79-9.42,5.33-18.84,10.68-28.2,16.14C60.62,44.36,42.28,55.23,25,67.69,16,74.24,7.28,81.5,0,90.28c-.48.58,5,1.75,4.23,1.58a78.88,78.88,0,0,0,10.41,1.28,79,79,0,0,0,10.49.23c1.25-.08,3.53.13,4.43-1Z"/><path class="cls-2" d="M136.79,118.51c-1,.15.22.11.78,0h-.05A5.64,5.64,0,0,1,136.79,118.51Z"/><path class="cls-2" d="M203.46,83.56c.39,2.76-1.05,5.14-2.61,7.25s-3.15,4.07-4.79,6.06c-3.28,4-6.68,7.85-9.91,11.88-1.7,2.12-3.36,4.29-4.92,6.54,7.67-4.19,14.88-9.25,22.18-14.09,9.16-6.08,18.6-11.87,29-15Z"/><path class="cls-2" d="M203.24,135.87l.43.11c-.23-.08-.23-.09,0,0l.15,0-.15-.11a3.32,3.32,0,0,1-.36-.26l.1.16-.49-.52a5.07,5.07,0,0,0,.39.36,3.33,3.33,0,0,1-.53-1.59c-3-.26-6-.44-9-.41a24.3,24.3,0,0,0-6.88.58l-1,.29h0l-.3.07h-.06l.72-.06a45,45,0,0,1,8.18.41A56.83,56.83,0,0,1,203.24,135.87Z"/><path class="cls-2" d="M203.84,136h0C203.92,136,203.92,136,203.84,136Z"/><path class="cls-2" d="M203.86,136c.47.4.23.16,0,0l-.19,0Z"/><path class="cls-2" d="M88.1,46.31q-3.2,2.86-6.39,5.75,4.54-2.78,9.08-5.52c15.33-9.28,30.88-18.12,46.45-26.92,8.28-4.68,16.59-9.76,25.86-11.81l-29-2.57C119.17,19.41,103.44,32.63,88.1,46.31Z"/><path class="cls-2" d="M48,74.82l.28-.22-.56.44Z"/><path class="cls-2" d="M101.81,98.3c14.27-10.15,28-21.17,42.58-30.81A190.29,190.29,0,0,1,169.87,53.1l-29-2.57L117.19,76.74C109.38,85.39,101.47,94,93.9,102.83c-.62.73-1.28,1.48-1.94,2.24Q96.94,101.78,101.81,98.3Z"/><path class="cls-2" d="M192.5,69.07l-29-2.57L139.34,93.77c-4,4.46-8,8.85-11.86,13.4-1.63,1.92-3.33,4.52-3.49,7l51.09-33.64Z"/><path class="cls-2" d="M69.53,98c-4.77,3.31-9.62,6.51-14.58,9.49-4.16,2.5-8.41,4.88-12.75,7a64.5,64.5,0,0,1-6.93,3c-1.22.43-2.45.79-3.7,1.11l-.1,0c.15,0,.16,0-.14,0-.57.13-.1,0,.14,0l-.88.17c-.68.11-1.35.19-2,.26L56,121.93c.33-5.49,3.49-10.08,6.48-14.4Q65.89,102.66,69.53,98Z"/><path class="cls-2" d="M156.22,110.33c-2.59,1.52-5.22,3-7.92,4.25a50.7,50.7,0,0,1-9.07,3.46l-.71.18h0l-.14,0-.15,0,.15,0,.12,0-.47.09-1,.16-.26,0,.73,0,.13,0-.08,0a38.56,38.56,0,0,1,4.08.1,69,69,0,0,1,13.45,1.57c.26.1,1,.6.21,0-.3-.2-.58-.39-.86-.61.09.12.18.23.28.34l-.49-.52.21.17C152.26,116.72,154.18,113,156.22,110.33Z"/><path class="cls-2" d="M122,106.74c3.74-4.44,7.58-8.78,11.45-13.08q8.22-9.15,16.49-18.27L103,106.28,85.56,117.74l29,2.57C114.87,114.85,118.67,110.64,122,106.74Z"/><path d="M166.73,53c-1.26,10.47-2.55,21-2.44,31.56a97.78,97.78,0,0,0,1.38,15.79c1.06,6.14,2.28,11.81,1.28,18.06-.49,3.09,6.46,8.43,7,5.33,1.7-10.68-2-20.88-2.41-31.54-.48-11.33.84-22.63,2.19-33.87.37-3.1-6.59-8.36-7-5.33Z"/><path d="M173.86,89.53c2.75-1.32,6.28-1.4,9.27-1.74,2.38-.27,6.49-.79,5,3.05a8.44,8.44,0,0,1-2.57,3.1,27.58,27.58,0,0,1-17.94,6.28c-4.16,0,.81,7.19,3.76,7.19,8.43,0,25.92-4.48,24.07-16-.75-4.64-4.71-8.93-9.09-10.48-2.48-.88-5-.65-7.57-.34-3.26.39-7.13.43-10.11,1.85-3.27,1.56,2.47,8.36,5.19,7.06Z"/><path d="M182.67,101.09a65.56,65.56,0,0,1,5.75,9.57c1.32,2.71,2.17,5.72,3.81,8.26,2.36,3.66,8.39,8,11.94,3.27,2-2.68-4.48-8.84-6.3-6.43l-.54.71q-1.75.36-.43,1,.92,1,.35,0-.26-.56-.47-1.13c-.83-2-1.66-4-2.62-5.88a79.46,79.46,0,0,0-6.62-10.83c-.83-1.16-3.37-3.65-5-2.82s-.69,3.07.16,4.25Z"/><path d="M7,63.69c8.93.84,17.86-1.79,26.47-3.87q14.06-3.41,27.87-7.72c3.27-1-2.21-8-5.19-7.06q-12.93,4-26.06,7.28c-8.64,2.14-17.88,5-26.85,4.19-4-.37.84,6.92,3.76,7.19Z"/><path d="M37.4,121.14A602.14,602.14,0,0,0,30.54,59.9a7,7,0,0,0-3.71-5c-1.07-.51-3.76-1.1-3.4,1.07a602.14,602.14,0,0,1,6.87,61.23c.18,2.9,7.36,8,7.12,3.91Z"/><path d="M24.56,94.67C32.1,91.79,38.88,87.23,46.69,85c3.25-.92-2.17-7.92-5.19-7.06-7.81,2.21-14.59,6.76-22.13,9.65-3.29,1.26,2.31,8.17,5.19,7.06Z"/><path d="M53.85,82.73a114.14,114.14,0,0,0,1.55,17.52c.34,2.22,3.53,14.49,2,15.71-2.39,2,3.72,8.55,6.3,6.43,3-2.48-.26-12.12-.79-15.47a128.36,128.36,0,0,1-2-20.28c0-2.91-7.11-8.07-7.12-3.91Z"/><path d="M62.09,97.57A99.69,99.69,0,0,1,70.3,91.5a14.26,14.26,0,0,1,4.54-1.92c2.62-.5,2.18.17,2.13,2.3-.07,2.91,7,8.09,7.12,3.91.15-6.12-3.51-12.12-9.82-13.35-7.13-1.38-13.28,4.77-18.47,8.7-2.42,1.83,3.61,8.47,6.3,6.43Z"/><path d="M117.66,121.12c-.54-7.06-1.3-14.1-2.35-21.11-.71-4.76-.76-11.44-3.53-15.56-5.05-7.52-16.6-5.14-20.83,1.86-1.77,2.93,4.83,8.85,6.3,6.43a11,11,0,0,1,7-5.43,7.5,7.5,0,0,1,2.5-.3q3.75,1-.34-1.51c-.18.08,1.13,6.34,1.2,6.77,1.35,8.26,2.31,16.58,2.94,24.93.22,2.89,7.42,7.94,7.12,3.91Z"/><path d="M107.55,96.5c-10.09-2-26.71,4.66-22.14,17.56s20.15,10.51,28.85,3.67c2.41-1.89-3.66-8.5-6.3-6.43-3.07,2.42-19.69,10.25-15.54.09,2.88-7.07,12.26-9,18.9-7.69,2.1.41,1.67-2.3,1.14-3.38a7.15,7.15,0,0,0-4.9-3.81Z"/><path d="M122.65,85.05c4.22,2.84,2.2,12.32,2.67,16.67.6,5.54,2,10.85,1.46,16.47-.25,2.9,6.74,8.15,7.12,3.91.72-8.24-1.6-16.68-1.69-25-.07-6.77-2.22-13-8-16.92-5-3.36-5.17,2.4-1.53,4.85Z"/><path d="M133.76,93.38A35.2,35.2,0,0,1,144,88.63c5.73-1.44,6.09,2.16,6.54,7.27.66,7.54-.58,15.11-.61,22.65,0,2.91,7.1,8.07,7.12,3.91,0-11.26,3.59-25.21-3.23-35.25s-17.89-5.71-26.35-.27c-2.44,1.57,3.42,8.28,6.3,6.43Z"/><path d="M116,3.18C108.24,3.06,98.8,4.8,96.22,13.33c-2.36,7.79,4.45,15.1,10.89,18.44,6.66,3.46,17.2-1.47,18.37-9.15,1.23-8.11-7.22-13.05-13.68-15.32-1.86-.65-2.69.62-2.35,2.3.39,2,2.64,3.91,4.45,4.55,2,.71,4.51,1,4.53,3.84,0,2.07-2.31,4.07-3.84,5.16-3.44,2.47-8.52,4.26-11.15-.33-2-3.41,1.1-7.84,4-9.78,3.58-2.44,8.16-2.73,12.34-2.66s-.81-7.15-3.76-7.19Z"/><path d="M115.88,12.83c6,1.77,10.55-1.73,14.51-5.9,2.24-2.36-4.1-8.74-6.3-6.43-2.52,2.66-6.16,6.7-10.31,5.49-1.79-.52-2.8.53-2.35,2.3a7.28,7.28,0,0,0,4.45,4.55Z"/><path d="M99.9,42.1c3.88,1.33,18.4,4.07,14.23,10.29C111,57,104.37,57.3,99.4,57.22c-3.43-.06-13.22.49-8.55-5.41,3.15-4,9.24-6.06,13.54-8.37,3.23-1.74-2.58-8.47-5.19-7.06-6.29,3.38-18.65,7.46-16.51,16.74,2.22,9.6,13,11.25,21.16,11.3,6.65,0,21.14-2.54,18.42-12.43-2.88-10.46-15.68-13.72-24.46-16.74-1.86-.64-2.69.61-2.35,2.3.39,2,2.64,3.92,4.45,4.55Z"/><path d="M97.64,20.74c-2.87,1.55-6.18,2.86-8.82,4.79-2.31,1.68-2.18,4.87-1,7.24,2.78,5.63,8.72,7.81,14.23,9.61,1.79.58,2.79-.57,2.35-2.3a7.34,7.34,0,0,0-4.45-4.55c-1.34-.44-2.8-.64-4.09-1.18a5.51,5.51,0,0,1-1.71-1.15l-.6-.49.22.15q.44.55.58-.12a1.42,1.42,0,0,1,.85-.82,17.9,17.9,0,0,1,2.39-1.29l5.25-2.83c3.23-1.74-2.58-8.47-5.19-7.06Z"/><path d="M133.9,24.78c-7.72,3.54-10.24,15-6.14,22.14s13.56,10.88,20.79,6c7.08-4.78,8.73-16.4,3.6-23.16A15.19,15.19,0,0,0,142.51,24c-2.46-.43-8.21-1.19-9.24,1.92-1,2.94,5.88,8.6,7,5.33.21-.62,3.59-.37,4.12-.32,2.91.27,3.37.82,3.53,3.75a13,13,0,0,1-4.5,11c-3.76,3-10.34,4-10.41-2.67,0-4.21,2.19-9.35,6.12-11.15,3.28-1.5-2.44-8.33-5.19-7.06Z"/><path d="M207.1,35.41V78.72c0,2.91,7.12,8.07,7.12,3.91V39.31c0-2.91-7.12-8.07-7.12-3.91Z"/><path d="M216.42,109.46a14.78,14.78,0,0,0,6-4.33,2.14,2.14,0,0,0,.25-2.09c-1.25-3-4.14-6.16-7.7-6.05a3.9,3.9,0,0,0-4.13,3.8,5.07,5.07,0,0,0,1.12,2.67,7.93,7.93,0,0,0,2.59,2.31c1.42.72,3.29,1,3.4-1.07,0,.67,0,.07.09-.06-.23.26-.14.15.05,0s.24-.21.37-.31c-.39.3,0,0,.17,0l.5-.12c.32-.08-.51,0,0,0,.66,0-.65-.24,0,0a5.9,5.9,0,0,1-3.23-3.36l.25-2.09a12.1,12.1,0,0,1-4.94,3.69c-3.29,1.3,2.33,8.2,5.19,7.06Z"/></g></g></svg>