<svg xmlns="http://www.w3.org/2000/svg" viewBox="0 0 372.34 118.36"><defs><style>.cls-1{fill:#6ef;}</style></defs><title>gf-logo-21</title><g id="Layer_2" data-name="Layer 2"><g id="Layer_1-2" data-name="Layer 1"><path class="cls-1" d="M4,88A412.8,412.8,0,0,1,113.26,42.66c11.44-2.91,23.05-5.42,34.89-5.76l-3-36.9a225.27,225.27,0,0,0-43.44,52.44q-5,8.25-9.17,16.91a14.84,14.84,0,0,0-.43,3.36A45.78,45.78,0,0,0,92,77.93c.08,3.94.33,7.86.7,11.78.13,1.38,1.93,16.32,3.3,15.83L207.25,65.73l31.68-11.34-3-36.9C222.36,34.25,204.42,47.35,193,65.9a63.08,63.08,0,0,0-7.15,16.24c-.72,2.63-.59,5.93-.54,8.58.08,3.94.33,7.86.7,11.78a95.9,95.9,0,0,0,1.41,10.55c.11.53,1.21,5.7,1.88,5.29A654.88,654.88,0,0,1,316.13,58.39q18.72-6.5,37.81-11.86c1.09-.31,1-5.46,1-5.52a108.14,108.14,0,0,0-.45-13.09c-.12-1.38-1.84-18.76-3.53-18.28A654.88,654.88,0,0,0,220.78,61.79q-17.5,9.3-34.41,19.65l3.46,36.19a66.61,66.61,0,0,1,9.73-20.17l-.49.7c11.39-16.24,27.41-28.44,39.86-43.78,1.09-1.34,1-4,1-5.52a108.14,108.14,0,0,0-.45-13.09c-.11-1.34-2.09-18.8-3.53-18.28L124.74,57.31,93.06,68.65l3.46,36.19a224.39,224.39,0,0,1,17.3-29.47l-.49.7A223.66,223.66,0,0,1,148.15,36.9c1.13-1,1-4.48,1-5.52a108.14,108.14,0,0,0-.45-13.09,108.25,108.25,0,0,0-1.65-13c-.18-.84-.73-5.32-1.88-5.29C134.45.31,123.9,2.4,113.5,5Q99.23,8.47,85.23,13a412.21,412.21,0,0,0-55,22.26Q15.36,42.59,1.06,51.11c-1.13.67-1,4.94-1,5.52A108.14,108.14,0,0,0,.5,69.73a108.25,108.25,0,0,0,1.65,13c.11.53,1.2,5.69,1.88,5.29Z"/><path d="M43.39,60.32l-9.51-.72c3.16-4.14,6.46-7.32,12-6.76,2.65.27,5.32.41,8.08.62-.9,5.86-2.07,11.41-2.54,17s-.21,11.13-.28,16.81l-9.4.73-1.46-6.47c-1.15.64-2.27,1.23-3.37,1.86a23.42,23.42,0,0,1-8.07,3.15c-7.66,1.21-14.77-2.34-17.43-10.7A40.06,40.06,0,0,1,9.85,62.29a77.52,77.52,0,0,1,7.4-31.75C22.14,20.48,30.83,16.1,41.44,15c3.18-.33,6.14,1,8.73,2.94,3.8,2.8,6.27,6.61,8.39,11.08l-9.2,4.12c-1.72-2.3-3.28-4.62-5.09-6.74a15.79,15.79,0,0,0-7.83-4.94c-3.88-1.11-6.7-.15-9,3.22A35.91,35.91,0,0,0,22.7,35.36c-2.78,9.77-4.09,19.73-2.49,29.85a40.31,40.31,0,0,0,2.69,8.58,12,12,0,0,0,5,5.7c4,2.46,7.84,1.7,10.57-2.12a11.35,11.35,0,0,0,1-1.71C41.82,70.85,42.64,65.7,43.39,60.32Z"/><path d="M315.94,16.45l10.58-.54C324.65,25,323,34.09,321.94,43.6c2.75-1.32,5.14-2.51,7.57-3.62,3.35-1.54,6.74-3,10.49-3.29,4.15-.31,6.54,1.67,7,5.83a13.63,13.63,0,0,1-4.64,12,52.73,52.73,0,0,1-11.21,7.32l-4.88,2.56c3.73,7.71,9.15,14.1,14.39,20.83l-8.1,4.82c-5.57-5.89-10.07-12.78-14.59-20.26-2,5.7-2.14,11.24-2.74,16.73l-10.79.33c.91-7.66,2.82-15.34,4-23.13,1.17-8,2.65-15.88,3.94-23.83S314.73,24.25,315.94,16.45ZM318.31,65c7.32-2.25,13.25-5.89,16.75-12.61a14.49,14.49,0,0,0,1.43-6.09c.12-3.9-2.17-5.18-5.61-3.38a21.9,21.9,0,0,0-8.8,8.48A25,25,0,0,0,318.31,65Z"/><path d="M293.73,88.72l-10.38.54a9.49,9.49,0,0,1-.21-2c.52-5.34,1-10.68,1.68-16,.73-5.88,1.67-11.73,2.4-17.61a16.32,16.32,0,0,0-.84-8.26c-1.44-3.56-3.23-4.08-6-1.46a32,32,0,0,0-9.16,15c-1.32,5-2.26,10-3.2,15.07-.77,4.16-1.29,8.37-1.94,12.65l-10.49.48,8.5-51.32c1.71.05,3.46.2,5.19.13s3.51-.36,5.45-.58L273.64,42c1.6-.66,2.71-1.11,3.82-1.58,3.9-1.68,7.84-3.26,12.11-3.69,3.67-.37,5.68.76,7.18,4.12a16.11,16.11,0,0,1,1.39,8.51c-.62,5.32-1.48,10.62-2.24,15.93s-1.58,10.39-2.15,15.61A72.2,72.2,0,0,0,293.73,88.72Z"/><path d="M242.08,40l8.67-3c-.41,2-.7,3.63-1.07,5.22A241.6,241.6,0,0,0,245.07,68c-.62,5-1.32,10-1,15,.1,1.89.22,3.78.33,5.82L233,89.36,232.14,84c-1.76.76-3.48,1.55-5.24,2.24-1.56.61-3.14,1.17-4.75,1.61-6.8,1.9-10.34-1.42-12.74-5.83a23.17,23.17,0,0,1-2.68-10.64c-.23-10.1,2.39-19.26,9.71-26.62a31.16,31.16,0,0,1,14.38-8.21A9.69,9.69,0,0,1,239.1,38C240,38.6,240.93,39.25,242.08,40ZM238,49a25.47,25.47,0,0,0-10.14-5.76c-2.16-.67-3.64-.25-4.9,1.57-6.54,9.44-8.44,19.54-4.21,30.43a17.21,17.21,0,0,0,3.17,5.06c2.56,2.89,5.62,2.91,8-.06a15.6,15.6,0,0,0,3.24-6.11C235,65.85,236.41,57.5,238,49Z"/><path d="M143.36,51.05l21.77,1.64-3.67,7.49-19-1.43c-.9,5.06-1.08,10-1.69,14.82s-1.2,9.5-1.81,14.29l-10.72.37L136.59,22c1.86-1.12,4-2.46,6.27-3.72a3.54,3.54,0,0,1,1.89-.39c8.93.64,17.85,1.32,27.07,2l-3.45,7.06-21.62-1.63Z"/><path d="M62.47,62.26a52.51,52.51,0,0,1,4.4-16.15,15.73,15.73,0,0,1,9.67-9.17,32.9,32.9,0,0,1,11.54-1.74,11.33,11.33,0,0,1,8.2,4,18.48,18.48,0,0,1,4.52,10.64c1.42,13.14-3,24-13.3,32.28a38.66,38.66,0,0,1-6.41,4.25c-4.58,2.38-8.9,1.54-12.53-2.13-3.46-3.5-5-7.93-5.62-12.64C62.52,68.53,62.61,65.38,62.47,62.26Zm10.46-5.09c.12,3.45,0,6.91.4,10.33a16.6,16.6,0,0,0,6,11.58c2.87,2.33,5.35,1.8,7.13-1.42a11.82,11.82,0,0,0,.73-1.5,47.36,47.36,0,0,0,3-22.33,28.85,28.85,0,0,0-2.57-8.23,10.22,10.22,0,0,0-6-5.56c-2-.74-3.09-.37-4.29,1.43a16.87,16.87,0,0,0-1.05,2.08C74.24,47.85,73.58,52.47,72.93,57.17Z"/><path d="M179.15,88.16l-10.57.27,7.5-51.23,10.33-.2L186,41.87c2.05-.85,3.74-1.59,5.45-2.25,1.56-.6,3.16-1.09,4.74-1.67a3.92,3.92,0,0,1,5.18,1.81,51.81,51.81,0,0,1,3,7,22.88,22.88,0,0,1,.68,3.68l-9.57,4.23c-.42-1.09-.78-2.09-1.2-3.06a45.86,45.86,0,0,0-2.63-5.77c-1.12-1.84-2.82-1.81-4,0a15.24,15.24,0,0,0-2.13,4.51c-1.11,4.32-2.21,8.67-2.9,13.07-1.23,7.84-2.16,15.73-3.23,23.6C179.37,87.37,179.27,87.69,179.15,88.16Z"/><path d="M361.65,16.6l10.69-1c-.11.44-.29,1.13-.44,1.82-1.47,6.65-3.07,13.27-4.35,20s-2.28,13.22-4.87,19.46c-1,2.36-2.32,4.57-3.4,6.89s-2.85,3-5.09,3.11l-2.79.15C357.11,50.61,359.35,33.64,361.65,16.6Z"/><path d="M354,87.92l-5.51-6.83,7.88-6.49c.84,1.17,1.71,2.54,2.73,3.78s2.12,2.23,3.1,3.24Z"/></g></g></svg>