<svg xmlns="http://www.w3.org/2000/svg" viewBox="0 0 392.99 114.03"><defs><style>.cls-1{fill:#6ef;}.cls-2{fill:#fff;}</style></defs><title>gf-logo-19</title><g id="Layer_2" data-name="Layer 2"><g id="Layer_1-2" data-name="Layer 1"><path class="cls-1" d="M28.88,84.79A397.68,397.68,0,0,1,134.11,41.1c11-2.8,22.21-5.22,33.61-5.55L164.86,0A217,217,0,0,0,123,50.52q-4.77,7.95-8.83,16.29a14.3,14.3,0,0,0-.41,3.24,44.11,44.11,0,0,0-.11,5c.07,3.79.32,7.58.68,11.35.13,1.33,1.86,15.73,3.17,15.25L224.65,63.32,255.17,52.4l-2.86-35.55C239.21,33,221.93,45.62,211,63.49a60.77,60.77,0,0,0-6.89,15.65c-.7,2.53-.57,5.71-.52,8.26.07,3.79.32,7.58.68,11.35a92.39,92.39,0,0,0,1.36,10.16c.11.51,1.17,5.49,1.81,5.09A630.9,630.9,0,0,1,329.55,56.25Q347.58,50,366,44.82c1-.29,1-5.26,1-5.32a104.18,104.18,0,0,0-.44-12.61c-.11-1.33-1.77-18.07-3.4-17.61A630.9,630.9,0,0,0,237.69,59.53q-16.86,9-33.15,18.93l3.33,34.87a64.17,64.17,0,0,1,9.37-19.43l-.47.68c11-15.65,26.4-27.39,38.4-42.18,1-1.29.92-3.88,1-5.32a104.18,104.18,0,0,0-.44-12.61c-.11-1.29-2-18.11-3.4-17.61L145.16,55.21,114.64,66.13,118,101a216.17,216.17,0,0,1,16.67-28.39l-.47.68a215.47,215.47,0,0,1,33.55-37.74c1.09-1,.94-4.32,1-5.32a104.18,104.18,0,0,0-.44-12.61,104.29,104.29,0,0,0-1.59-12.52C166.5,4.28,166,0,164.86,0c-10.34.3-20.5,2.31-30.52,4.78q-13.75,3.38-27.23,7.74A397.12,397.12,0,0,0,54.17,34Q39.79,41,26,49.24c-1.09.65-1,4.76-1,5.32a104.18,104.18,0,0,0,.44,12.61,104.29,104.29,0,0,0,1.59,12.52c.11.51,1.16,5.48,1.81,5.09Z"/><path d="M64,17.32l-9.61,8.91c-1.78-1.54-3.25-3-4.92-4.23-8.56-6.24-17.93-6.88-27.77-3.82a8.37,8.37,0,0,0-5.42,5.11c-3.44,8.08-5.58,16.41-4.83,25.24C12.82,64.82,27.11,74.89,42,70.76a2.67,2.67,0,0,0,2.36-2.69c.4-5.64.79-11.29,1.36-16.91.19-1.81-.46-2.16-2-2.13-3.64.06-7.27,0-11.69,0,3.29-3,6.07-5.57,8.87-8.08a1.9,1.9,0,0,1,1.17-.31c5.57,0,11.13,0,17.13,0-.29,3.94-.55,7.63-.85,11.31-.45,5.64-1,11.28-1.35,16.92a4.57,4.57,0,0,1-2.33,4c-6.41,3.86-12.56,8.43-20.17,9.52C17.82,84.83,2.37,76.74.36,57.21c-.92-9-.16-17.67,3.4-25.94C9.24,18.53,19.58,11.7,32.68,8.67a36.16,36.16,0,0,1,19.73.48A23.33,23.33,0,0,1,64,17.32Z"/><path d="M335.4,62.61,334,80.88l-13.37.61c.13-1.72.23-3.25.38-4.78.77-8.12,1.63-16.22,2.31-24.35,1.13-13.68,2.16-27.37,3.19-41.06.1-1.29.46-2.06,1.88-2.05,3.81,0,7.63,0,11.78,0L336.81,45l.58.33c.59-.58,1.16-1.17,1.76-1.74,3.48-3.33,6.79-6.88,10.51-9.91,2.9-2.36,5.74-1.83,8.53.74,4.8,4.43,5.52,11.91,1.32,17.75a38,38,0,0,1-6.92,7.13c-1.83,1.49-1.71,2.3-.28,3.89,3.73,4.14,7.31,8.43,10.94,12.66,0,0,0,.15.06.5-3.24,1.93-6.54,4-10,5.84a2.62,2.62,0,0,1-2.31-.8c-4.53-5.65-9-11.39-13.41-17.11-.5-.63-1-1.23-1.55-1.85Zm.3-3.29c.66-.1,1-.05,1.12-.19,2.85-2.55,5.88-3.67,9.64-1.84a3.05,3.05,0,0,0,2.89-.62c2.29-3.71,1.83-10.28-2.12-12.79a2.45,2.45,0,0,0-3.54.48c-1.61,1.89-3.23,3.79-4.67,5.81A17.16,17.16,0,0,0,335.7,59.32Z"/><path d="M284,80.91l-12.17.58,4.05-47.19,12.42-.69L286.82,46l2-1.77c3.32-2.9,6.54-5.91,10-8.63A17.47,17.47,0,0,1,304.15,33c6.57-2.15,10.68.82,10.63,7.79,0,4.15-.44,8.31-.78,12.46-.71,8.7-1.48,17.4-2.24,26.1,0,.49-.12,1-.19,1.49-3.63.22-7.19.42-10.75.65-1.52.1-1.7-.56-1.58-2,.85-10,1.66-20.06,2.26-30.1A11,11,0,0,0,300.18,44a3,3,0,0,0-5.21-.73,22.77,22.77,0,0,0-4,5.68c-4.29,8.92-5.91,18.48-6.5,28.27,0,.66-.07,1.33-.16,2S284.12,80.33,284,80.91Z"/><path d="M188.26,9.32c-1.48,2.66-2.65,5-4.13,7.23a3.47,3.47,0,0,1-2.57.89c-5.33,0-10.66-.12-16-.38-2.21-.11-2.93.87-3.13,2.84-.58,6-1.19,11.92-1.89,17.87-.24,2.06.38,2.88,2.54,2.81,6.24-.22,12.49-.31,18.73-.44.9,0,1.8,0,3.31,0-1.53,2.81-2.73,5.23-4.17,7.51-.32.5-1.44.68-2.2.69-5.5.06-11,.08-16.5,0-1.72,0-2.56.43-2.69,2.3-.48,7.06-1.08,14.1-1.63,21.15-.23,3-.43,6-.66,9.09l-13.41.61c.28-3.33.52-6.5.82-9.68.76-8.12,1.59-16.23,2.3-24.35.85-9.78,1.61-19.57,2.39-29.35.18-2.32.15-4.67.48-7,.1-.68,1.11-1.74,1.72-1.75C163.66,9.3,175.72,9.32,188.26,9.32Z"/><path d="M261.92,80.92l-12.34.57L251,69.8l-1.11-.86a8.67,8.67,0,0,1-1.25,2.37,125.19,125.19,0,0,1-10.24,9.47c-4.6,3.55-7.66,2.83-10.74-2.08-3.53-5.62-4.08-11.89-3.36-18.29A42.41,42.41,0,0,1,226,52.63c1.94-6.25,5.23-11.47,11.46-14.36,3.24-1.5,6.29-3.44,9.59-4.75,7.67-3,16.33-.21,21.32,6.84-5.34,2.21-3.29,7.18-3.76,11-1.11,9-1.52,18.06-2.23,27.09A21.81,21.81,0,0,1,261.92,80.92ZM235.5,58.12c.61,3.83.72,7,1.7,9.83a7.88,7.88,0,0,0,4,4.28c.8.33,3-1.66,4-3a41.81,41.81,0,0,0,7.63-20.57c.55-5.81-.56-7.41-6.48-8.36-4-.64-6.64.59-7.78,4.45C237.18,49.3,236.4,54.05,235.5,58.12Z"/><path d="M110.2,52.71c-.5,3.19-.85,6.41-1.51,9.57C106.94,70.68,100.6,75,93.83,79.1c-5.32,3.22-10.73,4.61-16.9,3.32C70.1,81,66,76.91,64.8,70.17,63.22,61,64,52.14,70,44.57A33,33,0,0,1,87.24,33.08c11.61-3.08,21.55,2.29,22.58,16.07.09,1.16,0,2.33,0,3.5ZM99.72,60.58c-.41-2.73-.6-5-1.11-7.15-1.65-7.12-6-11.42-13-12.3-5.06-.63-6.69.36-8.34,4.32a28.85,28.85,0,0,0-2,14.9C76.4,70,83.29,75.19,92.9,73.7c2.7-.42,4.66-1.54,5.16-4.5S99.21,63.18,99.72,60.58Z"/><path d="M193.57,34.28l12.38-.65-1.49,14.66.5.27c.42-.68.87-1.34,1.25-2,2-3.65,3.8-7.41,6-10.94,2.34-3.79,3.68-4,7.62-2,1.53.79,2.95,1.81,4.63,2.85l-7,13.3c-1.53-.75-2.86-1.38-4.16-2.06-2.16-1.13-3.92-.38-4.77,1.6-1.6,3.73-3.34,7.51-4.12,11.44a176.82,176.82,0,0,0-2.24,17.79c-.17,1.8-.41,2.72-2.53,2.59-3.22-.19-6.45,0-10,0Z"/><path class="cls-2" d="M335.7,59.32A17.16,17.16,0,0,1,339,50.17c1.44-2,3.06-3.91,4.67-5.81a2.45,2.45,0,0,1,3.54-.48c4,2.51,4.41,9.08,2.12,12.79a3.05,3.05,0,0,1-2.89.62c-3.76-1.83-6.8-.71-9.64,1.84C336.67,59.26,336.36,59.22,335.7,59.32Z"/><path d="M382.41,8.2,393,6.39c-.07.45-.2,1.15-.3,1.85-1,6.74-2.07,13.47-2.84,20.23s-1.28,13.36-3.39,19.77c-.8,2.43-2,4.73-2.87,7.13s-2.62,3.18-4.84,3.48L376,59.2C380.44,42.45,381.4,25.35,382.41,8.2Z"/><path d="M380.18,79.88l-6-6.4,7.37-7.06c.92,1.1,1.89,2.4,3,3.56s2.28,2.06,3.33,3Z"/></g></g></svg>