<svg xmlns="http://www.w3.org/2000/svg" viewBox="0 0 356.29 208.53"><defs><style>.cls-1{fill:#99f3ff;}.cls-2{fill:#59ecff;}.cls-3{fill-rule:evenodd;}</style></defs><title>gf-logo-16</title><g id="Layer_2" data-name="Layer 2"><g id="Layer_1-2" data-name="Layer 1"><path class="cls-1" d="M45.68,165.67A177.45,177.45,0,0,1,71,136.62l-.79.74c18.95-17.73,40-33.36,60.85-48.75,21.79-16.09,44-31.58,66.27-47C209.2,33.35,221,24.56,234.84,20L190,21.22c-20.31,23.15-42,45-63,67.51s-41.22,45.37-58.49,70.67c-4.87,7.13-9.49,14.44-13.8,21.92S45.29,197,45.83,206l.85.67a17.67,17.67,0,0,0,4.12.72,98.78,98.78,0,0,0,11.9.44c8.59-.13,17.3-.55,25.72-2.32,14-2.95,26.2-10.93,37.77-19.06,10.82-7.6,21.11-15.93,31.14-24.54,20-17.18,39-35.52,59.63-52A293.2,293.2,0,0,1,253.38,84.6l-44.86,1.22L177,127.94c-10.4,13.89-21,27.68-30.95,41.86-4.91,7-11.44,14.75-10.86,23.81.09,1.33,7,1.59,6.77,1.58,4.37.3,8.76.28,13.14.16,4.85-.13,9.73-.36,14.54-.94l4.6-.61a25.29,25.29,0,0,0,5.82-1.42l86.28-68.84,24.6-19.63L246,105.14,214,148.87c-5.25,7.15-10.65,14.21-15.74,21.48-3.48,5-6.9,12.53-.5,16.66a15.84,15.84,0,0,0,6.51,1.89,130.24,130.24,0,0,0,22.56.52c9.32-.4,18.95-1.1,28-3.43a81.38,81.38,0,0,0,23.25-10.51c12.52-7.92,23.81-17.56,35.33-26.81,12.93-10.39,26.35-20.41,41.76-26.82l-44.86,1.22c1.09,3.94-.68,7.64-2.69,11s-4.09,6.45-6.24,9.61c-4.31,6.34-8.82,12.54-13,18.93a134.59,134.59,0,0,0-11.11,19.76A79,79,0,0,0,273.42,193c-1,3.63-1.43,7.22,2.45,9.22,2.79,1.44,7,1.59,10,1.84a166.07,166.07,0,0,0,20.5.16c10.58-.44,21.95-1.08,31.85-5.22,2.72-1.14-2.63-2-2.39-1.93a74,74,0,0,0-13.69-.63,169.09,169.09,0,0,0-17.58,1c-3.46.42-7.18.67-10.42,2l-1.46.59c-.86.33-.8.17,0,0-.38.08-1.15.47-1.53.38l2-.39a73.19,73.19,0,0,1,12.59-.81c4.63-.2,9.06-.65,13.63-.18q1.67.2.71.06-.74-.12.27.08c1,.64.1,0-.28-.18a6.2,6.2,0,0,1-1.26-.77l.85.67c-2.58-2.61-1-6.64-.11-9.67a82,82,0,0,1,3.91-10.19,141.93,141.93,0,0,1,11.12-19.35c4.11-6.17,8.46-12.18,12.63-18.32,2.08-3.06,4.13-6.14,6-9.3,2-3.33,3.78-7,2.69-11-.39-1.41-6.56-1.56-6.77-1.58-4.37-.3-8.76-.28-13.14-.16-4.85.13-9.73.36-14.54.94-3.46.42-7.18.68-10.42,2-30.3,12.59-51.91,38.5-79.65,55.21a79.75,79.75,0,0,1-13.26,6.58l-1.46.52c1.22-.44.51-.16-.31.07l-1.49.39c-2.23.55.09.23.91-.12a8.94,8.94,0,0,1-1.52.25,62.62,62.62,0,0,1,7.66-.76,112.21,112.21,0,0,1,20.87,0c.41.09,1.68.69.33,0a15.22,15.22,0,0,1-1.78-1l.85.67c-5.32-4.42-1.18-11.9,2-16.31,5.22-7.28,10.61-14.46,15.91-21.69l31.55-43c.65-.89-8.05-1.67-6.77-1.58-4.37-.3-8.76-.28-13.14-.16-4.85.13-9.73.36-14.54.94l-4.6.61a25.29,25.29,0,0,0-5.82,1.42l-86.28,68.84L136,192.87l44.86-1.22c-.51-8,4.55-14.75,8.88-21,4.92-7.08,10-14,15.17-21q15.65-21,31.42-42l17.87-23.87c.66-.88-8.06-1.67-6.77-1.58-4.37-.3-8.76-.28-13.14-.16-4.85.13-9.73.36-14.54.94-3.23.39-7.56.38-10.42,2-22.6,13-42.66,29.85-62.11,47.13-19.61,17.42-38.78,35.45-60,51-5.92,4.35-12,8.52-18.26,12.35a100.93,100.93,0,0,1-10.07,5.5c-1.79.83-3.61,1.56-5.46,2.25-.13,0-1.37.48-.35.14s-.9.25-1.12.32c-1,.28-2,.51-3.07.73l42.59-.5c-.48-8,3.52-15.23,7.33-22s7.74-13.18,11.94-19.56a431.44,431.44,0,0,1,27.3-36.71c19.55-23.74,41-45.82,62.18-68.09,12-12.61,23.91-25.29,35.39-38.38.71-.81-8.13-1.67-6.77-1.58-4.37-.3-8.76-.28-13.14-.16-8.24.23-17.07.36-25,3C176,25.35,163.45,35,150.83,43.77,137.37,53.12,123.92,62.5,110.57,72c-26.05,18.59-52.17,37.5-76.32,58.54C21.54,141.63,9.55,153.66,0,167.63c-.62.92,8,1.68,6.77,1.58a128.26,128.26,0,0,0,16.17.08,128.34,128.34,0,0,0,16.11-1.46c1.89-.33,5.43-.42,6.61-2.15Z"/><path class="cls-2" d="M214.53,185.22c-1.45.39.36.13,1.19-.17h-.08A9.14,9.14,0,0,1,214.53,185.22Z"/><path class="cls-2" d="M310.31,123.07c1.09,3.94-.68,7.64-2.69,11s-4.09,6.45-6.24,9.61c-4.31,6.34-8.82,12.54-13,18.93-2.22,3.37-4.37,6.81-6.35,10.33,11-7.39,21.11-16,31.42-24.25,12.93-10.39,26.35-20.41,41.76-26.82Z"/><path class="cls-2" d="M319.4,199.05l.68.08c-.37-.08-.36-.09,0,0l.24,0-.25-.13a5.2,5.2,0,0,1-.59-.31l.18.21-.85-.67a7.82,7.82,0,0,0,.66.45,4.77,4.77,0,0,1-1.1-2.21c-4.62.13-9.25.39-13.84.94-3.46.42-7.18.67-10.42,2l-1.46.59h0l-.09,0-.45.15-.09,0,1.09-.21a73.19,73.19,0,0,1,12.59-.81C310.4,199,314.84,198.58,319.4,199.05Z"/><path class="cls-2" d="M320.35,199.15l0,0C320.49,199.17,320.48,199.17,320.35,199.15Z"/><path class="cls-2" d="M320.39,199.2c.79.51.38.2,0,0l-.3,0Z"/><path class="cls-2" d="M126.94,88.74q-4.39,4.69-8.74,9.44,6.44-4.81,12.9-9.57c21.79-16.09,44-31.58,66.27-47C209.2,33.35,221,24.56,234.84,20L190,21.22C169.67,44.38,148,66.25,126.94,88.74Z"/><path class="cls-2" d="M70.65,137l.39-.37-.79.74Z"/><path class="cls-2" d="M157.33,161.86c20-17.18,39-35.52,59.63-52A293.21,293.21,0,0,1,253.38,84.6l-44.86,1.22L177,127.94c-10.4,13.89-21,27.68-30.95,41.86-.82,1.17-1.69,2.36-2.57,3.58Q150.5,167.75,157.33,161.86Z"/><path class="cls-2" d="M290.91,103.92,246,105.14,214,148.87c-5.25,7.15-10.65,14.21-15.74,21.48-2.15,3.07-4.28,7.13-4.08,10.77l72.16-57.57Z"/><path class="cls-2" d="M107.84,166.94c-6.71,5.62-13.55,11.09-20.62,16.28-5.92,4.35-12,8.52-18.26,12.35a101,101,0,0,1-10.07,5.5c-1.79.83-3.61,1.56-5.46,2.25l-.15.05c.22-.06.25-.07-.2.08-.84.28-.14,0,.2-.08l-1.32.4c-1,.28-2,.51-3.07.73l42.59-.5c-.48-8,3.52-15.23,7.33-22Q103.11,174.34,107.84,166.94Z"/><path class="cls-2" d="M242.81,170c-3.69,2.65-7.47,5.18-11.36,7.53a79.76,79.76,0,0,1-13.26,6.58l-1.06.38h0l-.21.07-.22.08.22-.08.18-.06-.71.22-1.49.39-.4.1,1.11-.16.2-.06-.12,0a62.62,62.62,0,0,1,6.26-.55,112.22,112.22,0,0,1,20.87,0c.41.09,1.68.69.33,0-.49-.24-1-.46-1.43-.74.16.15.32.3.5.45l-.85-.67.35.21C237.9,180,240.17,174.27,242.81,170Z"/><path class="cls-2" d="M189.7,170.67c4.92-7.08,10-14,15.17-21q10.94-14.7,21.94-29.34l-66.26,52.87L136,192.87l44.86-1.22C180.31,183.66,185.37,176.9,189.7,170.67Z"/><path class="cls-3" d="M191.36,144.76a34.31,34.31,0,0,0,.14,6.59c.12,2-.18,4.06-.14,6.1.09,4.44.5,8.88.48,13.33,0,8.77-1,17.55-1,26.31,0,1,.18,1.12-.5,2-.38.48-1.48,1.42-2.08,1.19-1.38-.53-1.45.19-3.45.19-1.6,0-2,.23-2.22-2.33a52.71,52.71,0,0,1,.41-7.18c.24-4.22,1.77-9.62-.19-13.49-1.57-3.09-5.21-8.94-8-11-6.2-4.56-16.09-3.86-23,0-7.44,4.16-6.05,15.29-3.72,22.12,1.37,4,4.45,5.1,8.33,5.4,3.63.28,8.42.62,11.78-1.16,2.84-1.51,4.46-4.79,6.92-6.76.83-.66,2.39-2.9,3.55-2.07s.36,4.85.28,6.15c-.11,1.61-.36,4.4-1.65,5.58-.6.55-.85.31-1.55.58a11.72,11.72,0,0,0-2.17,1.37,27.21,27.21,0,0,1-8.33,3.85,17.88,17.88,0,0,1-6.62.55c-1.89-.33-3.75-1.09-5.6-1.6-4-1.1-7.69-2.32-10.69-5.33-2.79-2.8-4.36-6.91-5.18-10.72-.95-4.39.1-8.34,1.26-12.57,2.11-7.71,8.38-13.21,15.77-16,3.71-1.38,8.69-1.36,12.6-1.07a25.49,25.49,0,0,1,12.06,3.7c1.35.88,2.58,3,4,3.55,1.7.71,1.24-1.2,1.2-2.56a27.29,27.29,0,0,1,.75-5.78c.34-2-.28-4.19-.49-6.21a69.3,69.3,0,0,0-2.55-12.83c-1.18-4-2.08-7.53-6.12-9.44-7.16-3.38-17.49-3-20.19,5.71a13.85,13.85,0,0,0-.59,5.49c.15,1.34.73,3.76-.39,4.93s-2.74.22-3.78-.33-3.1,0-4.07-.74c-1.24-1-.31-3.73-.11-5a56.09,56.09,0,0,1,1.13-6.1,33.44,33.44,0,0,1,5.55-10.73c2.55-3.27,6.23-4.06,10-5.23a19.26,19.26,0,0,1,12.71,1.24c3.18,1.58,6.72,3.39,9.12,6.08,2.67,3,4,7,4.84,10.82a91.3,91.3,0,0,1,1.47,13.37"/><path class="cls-3" d="M212.12,137.47c-5.76.18-10.88-2.09-11.58-8.3a18.85,18.85,0,0,1,1.12-9.15,13.81,13.81,0,0,1,1.88-3.07c.56-.69,1.8-2.7,2.59-3.11s2.34-.26,3.34-.5a17.6,17.6,0,0,1,4.44-.77,9.27,9.27,0,0,1,7,2.93c.48.52,2.53,2.18,2.59,3,.07,1-.89,1.11-1.52,1.57-.89.65-2.39,2.74-3.57,2.88-1.59.19-1.15-1.14-1.95-1.86-1.56-1.41-3.7,1.36-4.14,2.73-.9,2.79.44,3.8,3.26,4,2.38.16,5.67-1.79,7.8-2.81a62.19,62.19,0,0,1,8.64-3.93c5.72-1.78,11.68-4.37,17.77-3.65a18.61,18.61,0,0,1,12.63,8.06,35.25,35.25,0,0,1,5.25,16,84.37,84.37,0,0,0,1.25,9.64c.59,3,.3,6,.32,9,.08,13.16-.65,26.3-.53,39.44,0,2,1.08,5.7-1.48,6.13-.86.15-1.61-.48-2.43,0-2.92,1.76-7.09.71-7.11.09-.05-1.73-.23-3.46-.31-5.19-.31-6.56,0-13.15-.64-19.7s1-13.31.29-20c-.76-6.91-.46-13.93-.33-20.86.1-5.26-3.7-12.68-9-14.28-5.68-1.72-11.65,2.46-16.5,5-3,1.55-6.3,2.5-9.4,3.88a30.18,30.18,0,0,1-9.64,2.84"/><path class="cls-3" d="M291.95,121c10.41-1.21,18.92,8,24.51,15.62,6.2,8.51,10.79,18.07,15.81,27.3s10.92,17.88,15.31,27.4a54.16,54.16,0,0,0,3.3,6.26,30.08,30.08,0,0,0,2.2,3.07c.83,1,1.83,1.19,2.65,2,1,1,.3.21.32,1.35a10.6,10.6,0,0,1-.27,2.49c-.19.76-.57,1.83-1.46,2-.47.1-.72-.28-1.16-.31a14.93,14.93,0,0,0-1.71,0c-4,.11-7.38-6.49-9.06-9.65-2.76-5.22-5.4-10.52-8.4-15.61-5.51-9.37-10.48-19.1-16.32-28.28-2.95-4.63-6.05-9.24-9.32-13.65-2.93-4-5.52-8.39-10-10.76-3.89-2.06-9.52-5.12-13.1-1-2.42,2.81-3.93,10.57,0,12.85,2.39,1.38,2.8,1.12,3.17,4.11.24,1.92,2.71,5.17-.33,5.54-2.71.33-4.86-2.59-6.66-4.18-2-1.74-3.62-2.83-4.72-5.33a14.79,14.79,0,0,1-1.64-7.68c.34-2.87,1.92-5.14,3.43-7.51,1.31-2.06,3-4.11,5.36-4.85.86-.26,8-1.67,8.06-1.21"/><path class="cls-3" d="M226.78,71a48.41,48.41,0,0,1-14.46-1c-5.27-1-7.85-4.69-11.17-8.58s-4.44-8.43-5.39-13.46a24.64,24.64,0,0,1-.65-3.21c-.06-1.22.55-2.22.7-3.41.34-2.71.21-5,1.3-7.58.82-1.95,1.8-2.73,3.2-4.19s2.41-3,4.27-4.34a15.67,15.67,0,0,1,5.35-2.39,16.36,16.36,0,0,1,2.3,0c1.17-.11,1.45-1.31,2.59-.29.87.78.87,2.45,1.27,3.55.85,2.34,3.17,4.39-.88,4.67-1.93.14-2.65-1-4.06.42s-3.65,3.56-4.39,5.62c-1.48,4.11-2.38,10.56-1.11,14.8a17.86,17.86,0,0,0,8.61,10.26,14.43,14.43,0,0,0,6.48,2c2.75.14,4.16,0,6.24-1.79,3.62-3.15,7.2-6.75,8.32-11.59a51.68,51.68,0,0,0,.66-7c.22-2.44-.61-4-2.16-5.82a38,38,0,0,0-5.13-5.22c-1.86-1.47-4-2.15-6-3.24-2.65-1.39-7.92-6.63-2.74-8.66,1.77-.7,3.92.39,5.61,1a42.26,42.26,0,0,1,7,3.53c10.2,5.63,13.79,17.54,12.82,28.64-.38,4.3-1.74,8.07-5,11-3.86,3.38-8.71,4.87-13.47,6.44"/><path class="cls-3" d="M179.07,65.23c-.79-2.42-1.3-4.51-3-6.4a33.05,33.05,0,0,0-6-5.39c-4.29-2.9-9.91-2.66-14.09-5.62-4-2.83-8.06-5.84-7.64-11.36a14.54,14.54,0,0,1,2.27-6.21c1.62-2.15,3.24-.35,5,1,1.48,1.13,3.65,1.73,2.65,3.88-.36.78-1.21,1-1.62,1.76a3.4,3.4,0,0,0,0,3.23c1.11,1.6,3.09,2.19,4.79,2.58a49.6,49.6,0,0,1,7.12,2.11c9.15,3.73,18.34,9.79,19.32,20.57.2,2.17.94,5.13,0,7.14s-3.07,4.35-4.54,6.14A26.43,26.43,0,0,1,170.58,87c-2.62.72-5.5.89-8.17,1.46s-5.14-.3-7.66-.85a20.86,20.86,0,0,1-11.12-6.23c-3.26-3.73-6.49-8.37-6.64-13.52-.14-4.73,1.58-9.86,3.69-14a53,53,0,0,1,2.68-4.91c.9-1.39,1.59-3.8,3.49-4.25,1-.23,3.85,2.95,4.9,4.44.43.62,2.11.94,1.85,1.74-.33,1-1.91,1.32-2.74,1.9-10,7-3.41,22.55,6.5,25.81,3.33,1.1,5.67.68,9.09.49,2.63-.14,4.42-.06,6.79-1.43,2-1.17,4.47-1.78,5.74-3.89,1.57-2.61.69-5.74.09-8.5"/><path class="cls-3" d="M38.91,106.7c.72-9.67,1.41-19.34,1.93-29,.5-9.23.74-19.32,5.59-27.45,1.85-3.1,5.42-6,8.35-8.06S61.44,39,65,37.81a43.42,43.42,0,0,1,13.71-2.2c4.34,0,9.34.35,13.41,2a20.6,20.6,0,0,1,9.59,7c1.33,1.76,2.12,2.2,1.12,4.12a8,8,0,0,0-1,2.62c-.1.77.36,1.4-.06,2.18A3.89,3.89,0,0,1,98.53,55c-1.28-.33-1.89-2.78-2.69-3.78a20,20,0,0,0-10.18-7.06c-4.4-1.3-9.9-1-14.32.1-3.72.88-7.7,1.44-10.8,3.64-3.5,2.49-5.83,4.55-8,8.34-1,1.85-2.14,3.46-2.44,5.61-.33,2.32-.42,4.71-.63,7-.9,10-2,20.18-1.29,30.23.18,2.66,0,5.39.69,8,.37,1.47,1,4.51-1.18,5.22-1.16.38-1.43-.73-2.39-1.08a7.12,7.12,0,0,0-3.15.08c-3.38.36-2.92-1.8-3.26-4.6"/><path class="cls-3" d="M42.87,187.88c-.52-11.61-.58-23.13-1.55-34.74Q40.61,144.59,40,136c-.13-1.69-1.35-6.47-.24-7.87,1.46-1.85,4.69.71,6,1.49,2.39,1.43,2.66,2.27,2.79,5.11s.18,5.63.38,8.44c.4,5.64,1.32,11.26,2.09,16.85s1.51,11.35,2.16,17c.61,5.32.66,10.71,1.31,16,.22,1.8.11,6.37-3,4.94-1.06-.49-1.31.44-2.67.4a6.59,6.59,0,0,0-2,0c-6,1-3.4-10.62-3.95-10.57"/><path class="cls-3" d="M298,153.15c0,11.36,0,22.7.24,34.05.09,4.75-.27,9.55,0,14.26.08,1.71.87,3.63-1.37,4a3.29,3.29,0,0,1-2.49-.56c-.9-.65-1.16.76-2.51.56-.69-.1-1.43.45-2,0s-.74-4.53-.68-5.25c.23-2.81.35-5.55.42-8.37.14-5.61,0-11.19.31-16.79.52-11.14.74-22.2.82-33.35a65.2,65.2,0,0,0-.13-8.25c-.12-1-.56-1.65.62-2.33,1-.56,1.85-.08,2.67.4,1.4.82,3.29.94,3.66,2.75C297.75,135.47,297.67,150.57,298,153.15Z"/><path class="cls-3" d="M299.82,140.44c2-2,3.11-.94,4.14.13,1.59,1.64,4.32,4.51,2.77,6.71-.73,1-1.91,1.48-2.7,2.32s-.84,2.48-2.47,2.13c-2.43-.52-1.73-6.28-1.73-8.28C299.82,143.44,299.5,140.76,299.82,140.44Z"/><path class="cls-3" d="M290.45,110.44c0-5.34.61-11.15-.36-16.42a108.06,108.06,0,0,1-1.25-15.61c-.22-6,.35-11.95-.47-17.86-.35-2.47-2.56-12,2.09-11.37,1.91.26,2.29,2.33,4.31,1.82,2.54-.64,3.85-1.26,4.05,2.16.14,2.43-.43,5-.48,7.41s.8,4.61.77,7.13c-.09,5.8.42,11.58.37,17.37s-.75,11.41-.74,17.14c0,3.32-.22,6.79.06,10.09.07.8.71,2.54.37,3.3s-1.12.76-1.93,1c-1.59.52-1.52.26-3-.06-1.11-.25-2.47.82-3.5.52-1.27-.36-.75-1.48-.66-2.78A15.48,15.48,0,0,1,290.45,110.44Z"/><path class="cls-3" d="M311.5,126.13c-.11-1,1.46-2,2.06-2.71a36.07,36.07,0,0,0,2.52-3.64c1.51-2.35,2.83-4.77,4.44-7.06s2.95-4.61,4.35-6.93c1.55-2.56,3.47-4.88,4.9-7.5a43,43,0,0,1,4.55-6.66c1.74-2.16,2.5-5.11,4.08-7.44,1.25-1.84,2.48-5.8,4.42-7,.82-.49,2.3-.59,2.87.51.41.79-.19,1.67-.17,2.65.9-.41,1-.22,1.87-.32.58-.07,1.76-.27,2.37-.27,1.36,0,2.17.75,2,2s-1.94,3.43-2.61,4.6c-1,1.74-2,3.5-3.07,5.2-1.89,3-3.87,5.74-5.63,8.83-2,3.49-4.11,6.93-6.42,10.22-2.08,3-3.44,6.27-5.56,9.18-2.31,3.17-5,6.42-6.7,10-.68,1.39-.64,2.22-2,3.05-1.13.67-2.21,1.09-3.4.43-1.61-.89-1.43-2.34-2.28-3.71s-2.59-1.57-2.59-3.43"/><path class="cls-3" d="M176.62,34.34c-4,.26-7.32.64-11.19-.52a13.61,13.61,0,0,1-7.72-5.15c-4.32-5.7-7.8-13-4.41-20C155.79,3.49,163.5.29,169,0c3.22-.16,6.21,1.26,9.25,2.15,3.89,1.14,6.06,4.07,9.18,6.36,2.94,2.16,6,2.15,9.45,1.44,2.07-.42,2.4-.52,2.12,1.7-.22,1.74-.34,2.28-2.06,3.07-3.79,1.74-7.15,1-10.87-.44S179.72,10,176.2,8.08A17.73,17.73,0,0,0,166,6.58c-2.84.36-5.22,4.06-5.6,6.74a16.51,16.51,0,0,0,2.33,10c2.16,3.26,4.58,3.77,8.28,3.76s7.64-1.43,9.32-4.95c.67-1.39,1.2-4,3.19-3.93,1.3.07,2.2,1.66,3.37,2.11,1.74.66,2.86.67,1.78,2.88a24.76,24.76,0,0,1-2.82,4.21,24.22,24.22,0,0,1-9.2,6.92"/><path class="cls-3" d="M34.56,131.24c.21,1,.28,3.12.82,3.93s1.37.63,2.11,1.27c1.32,1.14,2,5.5,1.17,6.95-1.28,2.24-4.15,1.72-5.63.3a21.05,21.05,0,0,1-5-6.85A15.24,15.24,0,0,1,27,129c.27-2.26.52-6.2,2-8a16.76,16.76,0,0,1,15.46-5.69,21.34,21.34,0,0,1,7.37,2.08,23.07,23.07,0,0,1,3.77,2.13A21.31,21.31,0,0,1,58.28,123c1.76,2.23,4,3.84,5.92,5.93a28.61,28.61,0,0,1,4.68,7.29c.8,1.85,2.55,5.51,1.34,7.25-.55.79-1.87,1.08-2.36,1.73-.62.83,0,1.57-.34,2.41-.83,2-2.89,1-3.68-.61-1.25-2.51-2.18-5.34-3.81-7.63a44.7,44.7,0,0,0-6.59-7.12c-2.46-2.17-4.38-4.88-7-6.86-2.29-1.73-5.74-3.42-8.58-1.75-2.28,1.34-3.22,5.14-3.29,7.56"/><path class="cls-3" d="M91.22,131.46c0,3,2.88,3.57,5.21,2.78,2.93-1,4.6-3.87,6.61-6,3.87-4.17,9-9,14.37-11.12a28.43,28.43,0,0,1,18.11-.85c1.24.35,6.74,1.71,6.77,3.51,0,.73-2,1.88-2.38,2.42a7.13,7.13,0,0,1-2.34,2.37c-1.65.82-2.2-.39-3.5-1.34a7,7,0,0,0-3.78-1.3c-3.17-.25-6.2,1-9,2.47a87.09,87.09,0,0,0-7.83,4.49c-2.62,1.72-4.82,4-7.29,6-4,3.15-8.55,8.81-14.28,7.37s-9.2-7.83-7.7-13.62c1.71-6.56,8.65-10.24,14.93-6.73,1.9,1.06,1.23,2.11.06,3.55-.79,1-2.16,2.91-3.22,3.43-1.36.68-2.19-.53-3.51-.1s-1.17,1.67-1.28,2.73"/><path class="cls-3" d="M98.5,170.88a148.54,148.54,0,0,0,.77-15.4c0-2.44-.11-4.92-.28-7.35s-.07-3.37,1.84-5.17c1.41-1.32,6.58-7.52,8.54-5.14,1,1.26.48,5.09.41,6.56-.13,2.64-.57,5.25-.72,7.88-.27,4.86-.81,9.57-.38,14.44s-.27,9.74-.42,14.58.32,9.86-.34,14.52c-.17,1.2-1,2.9-2.57,2.65-.72-.12-1.88.29-2.52,0-1-.47-1.4-1.6-2.39-1.18-.51.22-1.31,1.14-1.94.83s-.61-2.29-.62-3c0-2.8.14-5.64.22-8.44,0-1.34,1-15.73.4-15.81"/><path class="cls-3" d="M224.91,201a11.67,11.67,0,0,1-2.5-.59c-.79-.11-.56,0-1.35.06-3.2.21-3.44-3.71-3.18-6.31.24-2.3-.26-4.53-.26-6.83,0-2.48.19-5,.18-7.44q-.06-15.33-1-30.64a53.59,53.59,0,0,0-.68-6.54c-.51-2.72-1-1.07,1.65-2.39,1.64-.81,4.1-2.91,5.93-2.75,2.89.25,2.47.84,2.33,3-.66,9.6.11,19.49.59,29.09.13,2.66.35,5.34.38,8s-.39,5.25-.29,8,0,5.5,0,8.27,1.11,7.14-1.79,7.14"/><path class="cls-3" d="M199.49,157.06c1.85.54,3,2.5,4.72,1.73.8-.36,1.22-1.07,2.17-.72a2.08,2.08,0,0,1,1.1,2.17c-.21,2-2.29,4.62-3.44,6.21-1.65,2.27-3.27,4.54-5.1,6.67-1.05,1.23-2.55,3.75-4,1.7-1.28-1.84-.29-5.34-.17-7.39a9.29,9.29,0,0,1,1.54-5.38,12.23,12.23,0,0,0,1.79-2.79c.3-.88,0-2.33,1.36-2.19"/><path class="cls-3" d="M68,114.75c2.27-.29,2,3.49,2.86,4.41s2.93-.28,3.69.82-1.77,3.25-2.3,4c-.76,1.1-1.29,3.59-2.56,4.23-2.52,1.28-7.4-3.29-7.4-5.69,0-1.85,1.94-3.38,2.85-4.88s.89-3,2.86-2.92"/><path class="cls-3" d="M241.77,28c-1.46.12-2.7-2.15-3.71-3.09-1.49-1.39-2.84-1.75-4.71-2.51-1.4-.57-4.15-2.08-1.73-3.57,1.33-.82,3.44.49,5,.41,2.22-.12,4.49.2,6.68-.15,1.54-.25,5.07-2.38,5.81-.12.67,2-2.36,3.54-3.51,4.67-1.5,1.47-2.14,3.1-3.8,4.37"/><path class="cls-3" d="M53.51,144.23c-3.11.14-4.43-8.44-.42-7.58,1.42.31,3.69,2.92,4,4.31.39,1.66-1.82,3.4-3.6,3.27"/></g></g></svg>