<svg xmlns="http://www.w3.org/2000/svg" viewBox="0 0 257.07 179.65"><defs><style>.cls-1{fill:#99f3ff;}.cls-2{fill:#59ecff;}</style></defs><title>gf-logo-06</title><g id="Layer_2" data-name="Layer 2"><g id="Layer_1-2" data-name="Layer 1"><path class="cls-1" d="M32.64,128.5a132.05,132.05,0,0,1,20.58-19.65l-.62.49c15-11.7,31.36-21.65,47.53-31.43,16.9-10.23,34.06-20,51.23-29.69,9.13-5.17,18.3-10.77,28.52-13l-32-2.84C131.43,48,114.09,62.57,97.16,77.66s-33.29,30.55-47.8,48.06q-6.13,7.4-11.74,15.27c-3.73,5.27-8,10.92-8.44,17.72l.54.57a12.05,12.05,0,0,0,2.87.89A67,67,0,0,0,41,161.48a92,92,0,0,0,18.48.42c10.23-1,19.58-6,28.51-11.12C96.36,146,104.4,140.6,112.29,135c15.74-11.2,30.86-23.35,47-34a209.86,209.86,0,0,1,28.1-15.87l-32-2.84-26.12,28.92c-8.61,9.54-17.33,19-25.68,28.78-4.11,4.81-9.43,10.09-9.82,16.93-.06,1,4.82,1.78,4.67,1.75a92.2,92.2,0,0,0,9.32,1.22c3.45.31,6.94.55,10.41.51l3.32-.07a17.32,17.32,0,0,0,4.26-.57l67.37-44.36,19.21-12.65-32-2.84L153.67,130c-4.36,4.92-8.82,9.76-13.08,14.78-2.91,3.42-6,8.81-1.83,12.44a10.89,10.89,0,0,0,4.46,2,88.35,88.35,0,0,0,16,2.28c6.66.48,13.56.76,20.22-.22a56.81,56.81,0,0,0,17.45-5.93c9.59-4.89,18.47-11.16,27.47-17.13,10.1-6.7,20.52-13.09,32-16.6l-32-2.84c.43,3-1.16,5.66-2.88,8s-3.48,4.49-5.28,6.68c-3.62,4.39-7.37,8.66-10.93,13.1a103.22,103.22,0,0,0-9.63,13.87A61.74,61.74,0,0,0,192,168c-1,2.64-1.66,5.29.93,7.12,1.86,1.31,4.83,1.78,6.95,2.21a112.64,112.64,0,0,0,14.55,1.84c7.55.56,15.69,1,23.09-1.25,2-.62-1.7-1.7-1.53-1.65a50.19,50.19,0,0,0-9.67-1.62,114.75,114.75,0,0,0-12.58-.71c-2.49,0-5.16-.1-7.58.65l-1.09.32c-.64.18-.58.06,0,0-.28,0-.86.26-1.12.16l1.45-.12a49.68,49.68,0,0,1,9,.45,62.69,62.69,0,0,1,9.7,1q1.17.29.5.1-.51-.15.18.09c.64.56.07,0-.18-.16a4.4,4.4,0,0,1-.82-.68l.54.57c-1.6-2.17-.15-5.06.77-7.25a64,64,0,0,1,3.68-7.31,108.71,108.71,0,0,1,9.61-13.57c3.46-4.28,7.09-8.42,10.59-12.67,1.74-2.12,3.47-4.25,5.11-6.47s3.3-4.94,2.88-8c-.15-1.09-4.52-1.72-4.67-1.75a92.2,92.2,0,0,0-9.32-1.22c-3.45-.31-6.94-.55-10.41-.51-2.49,0-5.16-.09-7.58.65-22.64,6.9-40.28,24.51-61.46,34.7a55.91,55.91,0,0,1-10,3.82l-1.08.27c.9-.22.38-.08-.23,0l-1.09.17c-1.64.23,0,.18.66,0a6.09,6.09,0,0,1-1.1.06,42.54,42.54,0,0,1,5.51.07A76.12,76.12,0,0,1,171,159.09c.29.11,1.13.66.23,0a10.71,10.71,0,0,1-1.18-.86l.54.57c-3.39-3.76.22-9,2.85-12.06,4.35-5,8.81-9.95,13.22-14.92l26.21-29.59c.54-.61-5.57-1.92-4.67-1.75a92.2,92.2,0,0,0-9.32-1.22c-3.45-.31-6.94-.55-10.41-.51l-3.32.07a17.32,17.32,0,0,0-4.26.57l-67.37,44.36L94.36,156.44l32,2.84c.34-6,4.54-10.67,8.16-15,4.12-4.89,8.36-9.68,12.63-14.43q13-14.45,26-28.83L188,84.66c.55-.61-5.58-1.92-4.67-1.75A92.2,92.2,0,0,0,174,81.69c-3.45-.31-6.94-.55-10.41-.51-2.33,0-5.41-.35-7.58.65-17.21,7.89-32.95,18.8-48.29,30.12S77,135.25,60.6,145.13c-4.59,2.76-9.27,5.38-14.06,7.73a71.12,71.12,0,0,1-7.64,3.27c-1.34.47-2.7.87-4.08,1.23-.1,0-1,.24-.26.07s-.66.12-.82.14c-.74.12-1.49.21-2.24.29l30.3,3.19c.37-6.06,3.85-11.12,7.15-15.88S75.6,136,79.15,131.52a325,325,0,0,1,22.64-25.22C117.77,90.15,135,75.4,152,60.49,161.61,52,171.19,43.54,180.5,34.7c.57-.55-5.63-1.93-4.67-1.75a92.2,92.2,0,0,0-9.32-1.22c-5.87-.52-12.16-1.16-18,.13-10.91,2.41-20.68,8.59-30.42,14.1C107.71,51.84,97.33,57.74,87,63.76,66.86,75.51,46.63,87.49,27.61,101.23,17.6,108.47,8,116.47,0,126.15c-.52.63,5.54,1.93,4.67,1.75a87,87,0,0,0,11.48,1.41,87.17,87.17,0,0,0,11.57.25c1.37-.09,3.89.14,4.88-1.06Z"/><path class="cls-2" d="M150.86,157.29c-1.06.17.24.13.86,0h-.06A6.22,6.22,0,0,1,150.86,157.29Z"/><path class="cls-2" d="M224.39,118.74c.43,3-1.16,5.66-2.88,8s-3.48,4.49-5.28,6.68c-3.62,4.39-7.37,8.66-10.93,13.1-1.88,2.34-3.7,4.74-5.43,7.21,8.45-4.62,16.41-10.2,24.46-15.54,10.1-6.7,20.52-13.09,32-16.6Z"/><path class="cls-2" d="M224.14,176.43l.47.12c-.26-.09-.25-.1,0,0l.17,0-.16-.12a3.66,3.66,0,0,1-.39-.28l.11.17-.54-.57a5.59,5.59,0,0,0,.43.4,3.68,3.68,0,0,1-.59-1.75c-3.3-.29-6.61-.48-9.91-.45-2.49,0-5.16-.1-7.58.65l-1.09.32h0l-.33.08-.07,0,.8-.07a49.68,49.68,0,0,1,9,.45A62.68,62.68,0,0,1,224.14,176.43Z"/><path class="cls-2" d="M224.81,176.58h0C224.9,176.61,224.9,176.61,224.81,176.58Z"/><path class="cls-2" d="M224.83,176.62c.51.45.25.18,0,0l-.21,0Z"/><path class="cls-2" d="M97.16,77.66q-3.53,3.15-7,6.34,5-3.07,10-6.09c16.9-10.23,34.06-20,51.23-29.69,9.13-5.17,18.3-10.77,28.52-13l-32-2.84C131.43,48,114.09,62.57,97.16,77.66Z"/><path class="cls-2" d="M52.91,109.1l.31-.25-.62.49Z"/><path class="cls-2" d="M112.29,135c15.74-11.2,30.86-23.35,47-34a209.86,209.86,0,0,1,28.1-15.87l-32-2.84-26.12,28.92c-8.61,9.54-17.33,19-25.68,28.78-.69.81-1.41,1.63-2.14,2.47Q106.92,138.83,112.29,135Z"/><path class="cls-2" d="M212.3,102.76l-32-2.84L153.67,130c-4.36,4.92-8.82,9.76-13.08,14.78-1.8,2.12-3.67,5-3.85,7.73l56.35-37.1Z"/><path class="cls-2" d="M76.68,134.66c-5.26,3.65-10.61,7.18-16.08,10.47-4.59,2.76-9.27,5.38-14.06,7.73a71.13,71.13,0,0,1-7.64,3.27c-1.34.47-2.7.87-4.08,1.23l-.11,0c.16,0,.18,0-.15,0-.62.14-.11,0,.15,0l-1,.19c-.74.12-1.49.21-2.24.29l30.3,3.19c.37-6.06,3.85-11.12,7.15-15.88Q72.67,139.8,76.68,134.66Z"/><path class="cls-2" d="M172.29,148.27c-2.86,1.67-5.76,3.26-8.74,4.69a55.91,55.91,0,0,1-10,3.82l-.79.19h0l-.15,0-.16,0,.16,0,.13,0-.52.1-1.09.17-.29,0,.8,0,.15,0-.09,0a42.53,42.53,0,0,1,4.5.11A76.12,76.12,0,0,1,171,159.09c.29.11,1.13.66.23,0-.33-.22-.64-.43-1-.67.1.13.2.25.31.38l-.54-.57.23.19C167.93,155.31,170,151.23,172.29,148.27Z"/><path class="cls-2" d="M134.51,144.3c4.12-4.89,8.36-9.68,12.63-14.43q9.07-10.1,18.18-20.15l-51.74,34.07L94.36,156.44l32,2.84C126.69,153.25,130.88,148.61,134.51,144.3Z"/><path d="M128,23.2a18.35,18.35,0,0,1,1.64-2.49c1-1.11,2.14-2.09,3.24-3.11.62-.59,1.25-1.18,1.91-1.72a35.15,35.15,0,0,0,3.35-2.69c2.22-2.34,5.1-3.6,7.87-5a5.41,5.41,0,0,1,2.88-.27,13,13,0,0,1,2.83.83A6.25,6.25,0,0,0,158,8c3.53-2.62,7.14-5.12,10.66-7.77a3,3,0,0,1,3.46.73c1.06,1,2.16,1.92,3.19,2.93a9.37,9.37,0,0,1,1,1.41c-.33,2.52-1.79,4-3.41,5.65-3.28,3.28-7.38,4.73-11.59,6-1.73.54-3.55.81-5.33,1.21a9.94,9.94,0,0,0,.24,4.91,44.13,44.13,0,0,1,1.69,13.4c0,2.3-1.27,4.19-2,6.25s-1.42,3.92-2.23,5.85c-.87,2.08-1.8,4.14-2.77,6.18s-3.09,2.73-5,3.58a18.88,18.88,0,0,1-12.78.84c-.89-.23-1.83-.29-3-.46a74.38,74.38,0,0,0-5.59,8.94,16.44,16.44,0,0,0,1.71.8,66.08,66.08,0,0,1,7.3,2.29,46.62,46.62,0,0,1,9.91,5.63c2.37,1.85,4.66,3.76,6.1,6.35a21,21,0,0,1,2.49,7c.26,1.78-.55,3.74-1,5.58a14.26,14.26,0,0,1-1.32,3.22c-1,1.87-2,3.73-4,5a29.09,29.09,0,0,0-3.74,3.38,14.82,14.82,0,0,1-6.68,3.55,2.51,2.51,0,0,0-.83.24c-2.06,1.39-4.44,1.2-6.73,1.36a50.09,50.09,0,0,1-6.94.2,18.87,18.87,0,0,1-8.66-3c-3.44-2.16-5.51-5.5-5.14-9.67s1.26-8.59,4.11-12A37.85,37.85,0,0,1,117,82.22c1.86-1.45,4-2.58,6-3.87a3.73,3.73,0,0,0,.6-.65A2.53,2.53,0,0,0,121.17,76c-3.53,0-5.83-2.32-8.3-4.32a.83.83,0,0,1-.12-.13c-1.16-1.45-1.16-6.36,0-7.83,1.62-2.11,3.17-4.28,4.84-6.36.9-1.12,2-2.11,3-3.16,1.84-1.94,2.58-3.92,1.63-6.77a20.86,20.86,0,0,1,.6-15.31c.71-1.64,1.35-3.31,2.08-4.95a5.75,5.75,0,0,1,.86-1.08Zm15.28-1.71a37.89,37.89,0,0,0-4.16,4.05c-1.7,2.23-3.6,4.36-4.68,7s-2.43,4.9-2.47,7.73a15.07,15.07,0,0,1,0,2.07,10.5,10.5,0,0,0,1.23,7,3.37,3.37,0,0,0,3.73,1.9,33,33,0,0,0,3.3-.85c1.37-2.84,5.27-5.63,6.49-8.67,2.37-5.87,2-12,.45-18.25C146.74,21.83,145.22,21.45,143.25,21.49Zm-6,61.52a13.23,13.23,0,0,0-2.82.77c-2.83,1.57-5.53,3.37-8.4,4.84a14.74,14.74,0,0,0-5.12,4.87,10.69,10.69,0,0,0-2.16,6.12c0,2.18,1.39,3.89,3.57,3.77s4.67.05,6.82-1a29.65,29.65,0,0,0,3.46-2c2.5-1.73,4.88-3.6,5.63-6.81a3.61,3.61,0,0,1,.72-1.38,4.4,4.4,0,0,0,.62-4.46A44.53,44.53,0,0,0,137.25,83Z"/><path d="M71.06,84.71c-.11,1-.29,2.07-.32,3.1-.19,5.63-.37,6.93-.57,12.56,0,1.36-.37,8-.2,10.56.51-.25,14.78-5,16-4.09,1,3.5,2.37,4.56,2.84,5.73.84,1.61-14.12,8.57-15.87,9.31s-2.82,5.68-2.81,7.72c0,4.58-.12,9.16-.1,13.74,0,2.32.45,4.64.3,6.94a125.91,125.91,0,0,0,.62,17c.38,2.42-.32,3-.64,5.5-.43,3.39-2.4,2.19-7.08,3.23-3.46.89-3.61.27-4-2-.13-.79-.5-1.54-.55-2.35s-.19-1.68-.29-2.51c-.16-1.43,0-9.75-.15-11.19q-.3-4.06-.5-8.12c0-1,.09-2,0-3-.13-2.43-.17-8.3-.33-10.73a21.4,21.4,0,0,1-.07-2.25c0-1.21.07-8.34-1-8.87-2.15.17-11.37,4.33-12.78,2.87-1-1-3.13-7-.78-8.09,1.41-1.65,13-5.44,13.5-5.29.92-.22,1-8.35,1-10.14.14-4.69,0-7.51.13-12.2.06-3,0-5.93.16-8.88.08-1.59.74-5.45.79-7a44.17,44.17,0,0,1,1.78-11.9c1-3.78,3.06-7,4.55-10.5.56-1.33,1.17-2.64,1.76-4a2.46,2.46,0,0,1,.22-.48L71,43.66A32.4,32.4,0,0,0,74.4,41.3c2.26-2,5.13-2.67,7.79-3.74a38.4,38.4,0,0,1,6.37-1.72,7.58,7.58,0,0,1,8.66,5.39c0,.92-.08,1.83-.13,2.75-.14,2.45-1.76,3.65-3.84,4.21-2.85.4-5.73.66-8.53,1.28-1.1.24-2,1.33-3,2-2.16,1.42-4.12,3-5.12,5.52a.69.69,0,0,1-.2.29c-1.94,1.5-2.1,3.76-2.54,5.91a7.58,7.58,0,0,1-.52,1.47c-.55,1.27-1.16,2.51-1.68,3.79a15.45,15.45,0,0,0-.64,8,37.89,37.89,0,0,1-.14,5C70.86,82.56,71,83.65,71.06,84.71Z"/><path d="M213.14,70.08c-.68.79-1.21,1.33-1.66,1.93-.92,1.25-1.62,2.6-3.23,3.29-2,.85-3.08-.38-4.3-1.4a2.83,2.83,0,0,1-.56-3.54c1.8-3.63,3.7-7.23,6.84-10a6.19,6.19,0,0,1,.89-.51,28.18,28.18,0,0,0,3.34-2.06c1.67-1.36,3.62-1.57,5.2-.11A24.66,24.66,0,0,1,222.4,61a14.45,14.45,0,0,0,2,2.43c-.07,4.81,0,9.62-.25,14.42-.25,4.58-1,9.13-1.25,13.7-.29,4.81-.28,9.64-.4,14.46,0,1.43,0,2.86-.06,4.66,1.49-.12,2.73-.16,4-.34A15.6,15.6,0,0,1,238,113a11.91,11.91,0,0,1,5.11,10.07,22.19,22.19,0,0,1-1.6,8.49c-1.76,4.53-4.86,7.86-9.7,9.26-.45.13-.89.28-1.32.45a2.07,2.07,0,0,0-.44.36,3.23,3.23,0,0,0,.93,2.82c2.34,3.11,4.8,6.13,7,9.31,1.18,1.68,2,3.64,3,5.43,1.28,2.19,4.43,8.44,5.8,10.57,1.49,2.32,1.38,5.67-.56,6.75-1.32.73-2.95.09-4.42,0-1.85-.13-4,.53-5.2-1.06a19.37,19.37,0,0,1-2.06-4.11c-.58-1.32-2.81-6.8-3.44-8.09a58.59,58.59,0,0,0-3.5-6.59c-1.91-2.9-4.09-5.62-6.17-8.41a8.78,8.78,0,0,0-.89-.89c-1.22.79-.85,2-.91,3-.23,4.34-.43,9.38-.62,13.71-.08,1.86-.25,5.41-.34,7.39-1.59,2.78-7.5,5.69-10,2.85-.89-1-1.69.35-2-1.11-.61-3.21-.13-13.35.62-16.44.9-3.71.78-7.49,1.13-11.23.27-2.87.76-5.73,1.12-8.59.17-1.38.27-2.77.4-4.16.27-2.94.61-5.89.77-8.84.13-2.36,0-4.73,0-7.1q.08-4.62.26-9.23c.15-4.12.3-8.25.54-12.37A115.11,115.11,0,0,1,213,81.47c.61-3.4.41-6.94.56-10.41C213.61,70.9,213.46,70.75,213.14,70.08Zm8.74,61.58c3.31.94,6.46-.1,7.61-2.86,4.49-2.51,2.77-8.6,2.19-8,.08-.32-.2-.74-.28-1a6.1,6.1,0,0,0-6,.85,3.74,3.74,0,0,1-1.27.55,2.67,2.67,0,0,0-2,2.53c-.07.63-.13,1.27-.14,1.91C221.89,127.6,221.89,129.61,221.87,131.66Z"/><path d="M142.36,171.94a15.72,15.72,0,0,0-2.13,1.41c-2.85,2.65-6,4.86-9.87,5.54-2.95.52-6,.22-8.29-2.12a8.35,8.35,0,0,1-1.09-1.52c-.21-.34-.26-.8-.51-1.1-2.33-2.74-1.82-6-1.17-9,.47-2.22,1.76-4.26,2.68-6.39a11.82,11.82,0,0,0,.81-1.92c.66-2.83,2.38-5,4.28-7.07,2.31-2.51,5.34-3.84,8.45-5,1.35-.53,2.63-1.24,4-1.69a34.14,34.14,0,0,1,3.73-.75c.44-.09.88-.23,1.42-.37a12.72,12.72,0,0,0-1.65-9.48c-1.62-.43-2.79.3-4,1.09-2.25,1.52-4.43,3.18-6.81,4.47-1.15.62-2.67.55-3.9.77a4.91,4.91,0,0,1-.66-6.23,2.47,2.47,0,0,0,.3-.43c2.22-5.73,7.27-8.38,12.22-11.06a7.06,7.06,0,0,1,7,.42,16.22,16.22,0,0,1,6.11,6.25c2.21,3.8,2.93,7.9,3.34,12.11a29.52,29.52,0,0,1-.34,5c-.26,3.41-.72,6.81-.73,10.22,0,3.17.47,6.34.7,9.51.1,1.39.14,2.79.14,4.18a34.73,34.73,0,0,1-.12,4.48c-.31,2.46-1.4,3.68-3.57,3.83-2.73.19-5.53.32-7.71-1.8A36.23,36.23,0,0,1,142.36,171.94Zm1.67-19.6c-.57-.12-1.18-.45-1.62-.3a27,27,0,0,0-5.63,2.3c-3,1.88-6.13,3.39-6.94,6.9-.2.87-.74,4.09.22,5.11.44-.21,5.91.74,7.71-1.45C145.49,163.61,144,154.38,144,152.33Z"/><path d="M184.41,128.65a7,7,0,0,0-6.58,2.19,3.46,3.46,0,0,0-.65,2.44c.3,4.85.74,9.7,1.07,14.55.14,2,.1,3.95.2,5.92.2,3.94.2,11.88.52,15.81.12,1.52-.65,2.66-1.18,3.92a1.7,1.7,0,0,1-.77.69c-1.08.59-9.39,2.95-9.94,2.37-2.39-2.53-1.45-5.07-1-7.67.7-3.81,1.05-16.23.89-20-.19-4.46-.7-8.9-.94-13.36-.12-2.2.13-4.41.09-6.62s-.22-4.64-.33-7a3.43,3.43,0,0,1,2.58-3.84,2.26,2.26,0,0,1,2.57.5c.44.46.94.87,1.42,1.29s1,.83,1.63,1.38a7,7,0,0,0,2.05-.47c2.56-1.46,5.36-1.39,8.14-1.46a.94.94,0,0,1,.35,0c2.81,1.07,5.67,2,8,4,3.58,3,5.09,7.1,5.5,11.62.2,2.12.12,4.27.17,6.4a7.58,7.58,0,0,0,.09,1.74c.77,2.9,0,5.75-.17,8.63-.21,3.19-.28,4.08-.35,7.28-.06,2.9,0,6.36.07,9.26,0,3.06-2.48,6.43-5.49,5.94-1.25-.2-2.56,1.62-3.78,1.25-2.24-.68-3.29-.11-3.17-2.79.36-8,1.12-19.89,1.46-27.84a81.71,81.71,0,0,0-.33-8.17,17.44,17.44,0,0,0-.45-3.79A37.46,37.46,0,0,0,184.41,128.65Z"/><path d="M191.22,61.15c-.45,4.19-.54,7.41-1.18,10.51C188.87,77.32,186.27,82,179.45,83a28.56,28.56,0,0,1-10.52-.14c-3.74-.82-7.49-2.12-9.55-5.75a14,14,0,0,1-2-5.66c-.23-3.51.16-7.06.25-10.59.06-2.18,1.3-3.95,2.12-5.83,1.15-2.65,2.59-5.19,4-7.73a15.4,15.4,0,0,1,1.93-2.69c1.74-2,2.74-4.57,5.12-6.07a7.57,7.57,0,0,1,6.82-.67c1.24.43,2.22,1.58,3.33,2.38a15.4,15.4,0,0,0,1.49.87c1.41.78,3.43,4.5,5.35,5.6,2.11,1.21,2.54,6.35,2.89,8.52S191.51,59.83,191.22,61.15Zm-13-11.86a4.31,4.31,0,0,0-3.54,1.58c-2,2.11-3,4.78-4.2,7.31a26.33,26.33,0,0,0-1.93,14.53c2.59,3.27,6.24,3.26,8.78-.13a9.75,9.75,0,0,0,2-4.94c.23-2.45.79-4.83.9-7.32a59.94,59.94,0,0,0-.2-8A3.51,3.51,0,0,0,178.17,49.29Z"/><path d="M88.21,127.87l4.57,2.68a6.56,6.56,0,0,0,1.38-.69,15.54,15.54,0,0,1,7.93-3.37c4.08-.6,7.49,1,10.29,3.95a18.32,18.32,0,0,1,4.11,7.87,41,41,0,0,1,1.08,6.69,3.79,3.79,0,0,1-3,3.78,18.88,18.88,0,0,1-4.49.19c-2.84-.29-2.54-2.65-2.52-5.47,0-1.63-.06-3.26-.15-4.88-.06-1.08-2.66-2.21-3.78-2.67s-2,.15-2.76.95c-1.2,1.26-2.43,2.48-3.61,3.77a6.4,6.4,0,0,0-1.53,4.53c0,3.71.09,7.43.18,11.14q.11,4.77.33,9.53c0,.86.27,1.72.36,2.58.19,1.73.45,3.46.47,5.19s-2.65,1.69-4.79,1.69c-2.92,0-5.45,3.24-7.25,1a2.7,2.7,0,0,1-.44-1.63c0-3.24.31-8.77.35-12,0-3.93,0-7.87,0-11.8,0-3.19.25-6.37.24-9.56,0-2.72-.24-5.44-.33-8.16C84.75,130.26,85.45,129.12,88.21,127.87Z"/></g></g></svg>