<svg xmlns="http://www.w3.org/2000/svg" viewBox="0 0 266.62 210.11"><defs><style>.cls-1{isolation:isolate;}.cls-2{mix-blend-mode:overlay;}.cls-3{fill:#00e2ff;}</style></defs><title>gf-logo-13</title><g class="cls-1"><g id="Layer_2" data-name="Layer 2"><g id="Layer_1-2" data-name="Layer 1"><path d="M109.06,64.8c-2.45-.15-5.3-.25-8.12-.55a13.93,13.93,0,0,1-3.14-1c-3.84-1.4-7-3.73-8.58-7.55s-3.32-7.42-3.54-11.58c-.05-1-.36-1.9-.42-2.86-.11-1.87-.2-3.75-.17-5.63a22.89,22.89,0,0,1,.44-3.13,24.91,24.91,0,0,1,4.49-11A17.44,17.44,0,0,0,92,18.3a12.9,12.9,0,0,1,2.79-3.74c1.79-1.84,3.54-3.73,5.34-5.57.54-.56,1.18-1,1.76-1.54,1-.88,2-1.77,3-2.64.45-.39.92-.75,1.39-1.12s.85-.5,1.06-.87c.93-1.64,2.56-2.07,4.17-2.42a14.51,14.51,0,0,1,10,1.13A27.64,27.64,0,0,1,126,5a1.43,1.43,0,0,1,.32,1.23,3.24,3.24,0,0,1-4.44,1.95A20.88,20.88,0,0,0,117.37,7a5.71,5.71,0,0,0-5.24,2.17c-1.28,1.41-2.92,2.5-4.35,3.79-1.7,1.54-3.39,3.11-5,4.74a16.38,16.38,0,0,0-2.14,2.69q-1.78,2.77-3.38,5.65c-.89,1.6-1.67,3.27-2.46,4.92-1.16,2.42-.91,5.05-1,7.61A50.9,50.9,0,0,0,94.09,46a24.12,24.12,0,0,0,1.42,4.73A35.42,35.42,0,0,0,97,54.63a5.53,5.53,0,0,0,3.21,3.24,14.06,14.06,0,0,0,8.79,0,56.28,56.28,0,0,0,7.45-2.88,6.52,6.52,0,0,0,2.1-1.53c1.77-2.05,3.5-4.15,5.12-6.32,1.47-2,.68-4.2-1.48-5.43a13.37,13.37,0,0,0-5.72-1.37,1.74,1.74,0,0,0-1.26.34c-1.25,1.3-2.88,1.27-4.47,1.54s-3-.58-4.36-1.3c-.41-.22-.8-.46-1.21-.66a1.65,1.65,0,0,1-.57-2.79c1.32-1.48,2.7-2.84,4.84-3.18,1.35-.21,2.62-.89,4-1.16,2.43-.48,4.74.35,7.06.88a32.78,32.78,0,0,1,5.39,1.56c2.55,1.08,5,2.4,6.41,5a11,11,0,0,1,1.18,7.21,5,5,0,0,1-1.08,2.05c-1.49,1.93-3,3.8-4.57,5.69-1.07,1.31-2.11,2.66-3.27,3.89a5.15,5.15,0,0,1-2,1.25c-2.64.94-5.32,1.78-8,2.67-.55.19-1.08.48-1.64.62C111.81,64.23,110.65,64.45,109.06,64.8Z"/><path d="M142.34,44.55c.13-3.7,2.3-6.45,4.27-9.28.8-1.16,1.37-2.63,2.92-3a19.17,19.17,0,0,1,4.3-.63c2.73,0,5,1.47,7.23,2.81a8.19,8.19,0,0,0,1.77.75,9.18,9.18,0,0,1,6.13,5.72A61.45,61.45,0,0,1,171,46.78a10.55,10.55,0,0,1-.36,6.26c-1.41,4.15-4.34,6.7-8.34,8.26-1.86.72-3.68,1.51-5.73,1.36-3.24-.24-6.54-.66-9.19-2.61A12.26,12.26,0,0,1,142,49.5C142,47.85,142.22,46.2,142.34,44.55Zm8.58,1c-.8,2.49-.26,5-.29,7.55a2.34,2.34,0,0,0,2,2.37,6.23,6.23,0,0,0,5.15-1l1.78-1.32a8,8,0,0,0,1.8-10.79,1.58,1.58,0,0,0-.62-.52c-1.69-.77-3.3-1.67-5.27-1.72s-3,.43-3.65,2.21C151.41,43.34,151.2,44.44,150.91,45.5Z"/><path d="M217.33,90.18c3-2.32,5.88-4.88,8.9-7.22a15.64,15.64,0,0,1,3.88-2.19,4.74,4.74,0,0,1,4,.55,8.55,8.55,0,0,1,3,3.22,1.07,1.07,0,0,1-.31,1.49c-1.07.89-2.19,1.72-3.31,2.55-2.35,1.74-4.74,3.43-7.06,5.21s-4.44,3.53-6.64,5.33c-.64.52-1.19,1.15-1.8,1.72L213.68,105c-.4.38-.94.73-1.13,1.2a2.86,2.86,0,0,0-.06,1.68,3.44,3.44,0,0,0,.8,1.3c1.72,2,3.49,4,5.19,6,.83,1,1.49,2.11,2.3,3.12,2.14,2.69,5.28,6.28,7.41,9,.51.65.83,1.45,1.29,2.14s1.08,1.28,1.47,2c.8,1.45,1.52,2.94,2.22,4.45.38.82-.1,1.38-.71,1.92-1.83,1.6-4.79,1.12-6.55-.05a5.85,5.85,0,0,1-2.74-3.53,16.21,16.21,0,0,0-3.88-6.5c-1.52-1.75-3.81-4.59-5.22-6.44-2.14-2.81-4.25-5.64-6.39-8.45-.68-.9-1.2-.92-2.1-.18s-1.75,1.39-2.61,2.1a5.86,5.86,0,0,0-2.15,5.17c.12,2.36-.07,4.74,0,7.1,0,1.52.12,6.84.41,8.33a4.83,4.83,0,0,1-.7,3.47,1.92,1.92,0,0,1-.69.67c-2,1.17-5.48,1.56-6.93-.28a3.82,3.82,0,0,1-.82-1.88,17.37,17.37,0,0,1,.29-6c.3-.93.14-5.8.14-6.81q0-8.87,0-17.73c0-.37,0-.75,0-1.12q.35-7,.7-14c.13-2.73.3-15.45.34-18.18,0-1.2-.23-2.4-.31-3.6a1.82,1.82,0,0,1,.18-.94c.55-1,3.75-1.85,4.7-1.15a16.44,16.44,0,0,1,2.82,2.49,4.46,4.46,0,0,1,1,2.39c.12,1.62,0,3.26-.08,4.89,0,.74,0,1.48,0,2.23-.09,3.71-.19,17.42-.28,21.13,0,1,0,2,0,3.46,1.2-1,2.23-1.66,3.12-2.51,4.13-4,8-8.18,12.6-11.68"/><path d="M43.47,81.61c0,.74,0,1.48.06,2.21q.45,3.88,1,7.76c.26,2,.59,3.9.85,5.86.29,2.15.51,4.31.81,6.45.18,1.33.55,1.51,1.92,1.25a48.42,48.42,0,0,1,4.82-.77c2.62-.24,4.5,1.25,6.16,3,.76.81.06,3-1.19,3.52a19.31,19.31,0,0,1-4.24,1.21,14,14,0,0,0-5,2,2.39,2.39,0,0,0-1.06,2.69c.53,3.31.73,6.69,1.49,9.93.64,2.7-.06,7.63,1.46,10.13A2.89,2.89,0,0,1,48.19,141c-1.63.09-3.23.28-4.81-.8a5.65,5.65,0,0,1-2.65-4c-.35-2.23,0-6.5-.33-8.73s-.63-4.2-.94-6.29c-.05-.34-.09-.69-.16-1-.18-.86-.63-1.19-1.49-.75-.39.2-.85.29-1.23.51-2.69,1.57-5.33,1-7.95-.15a3,3,0,0,1-1.78-3.14,2.06,2.06,0,0,1,1.29-2c2.5-1.16,5-2.37,7.48-3.55,2.06-1,2.32-1.39,2.2-3.66-.13-2.46-.17-4.94-.43-7.39-.31-2.88-.85-5.73-1.24-8.6q-.5-3.75-.88-7.51c-.35-3.59-1.12-3.21-3.92-2.61a39.14,39.14,0,0,0-6.94,2.05,10.18,10.18,0,0,1-5.45,1,10.07,10.07,0,0,1-3.58-1.22,3.12,3.12,0,0,1-1.28-3.4c.18-1.2,1.16-1.56,2.06-1.9,2.72-1,5.43-2.1,8.2-3,2-.65,4.07-1.09,6.12-1.56q4.62-1,9.26-2c3.72-.76,7.46-1.45,11.19-2.2s7.15-1.55,10.74-2.21a8,8,0,0,1,6.87,2c1.95,1.68,1.61,3.67-.81,4.53a54.72,54.72,0,0,1-5.54,1.52c-2.19.53-4.41,1-6.61,1.48-.43.09-.88.13-1.31.22-3.33.68-6.65,1.38-10,2a1.19,1.19,0,0,0-1.06,1.48c0,.49.07,1,.11,1.48Z"/><path d="M151.25,120.78c.17,3.86.35,14.45.51,18.32a2.49,2.49,0,0,1-2.08,2.84,7.9,7.9,0,0,1-3.44.2c-1.57-.26-2.38-1.39-3.33-2.37a2,2,0,0,1-.32-1.45,127.2,127.2,0,0,0,.09-15.19,20.86,20.86,0,0,1,.37-4,17.7,17.7,0,0,0,0-2c-.07-2.65-.1-5.31-.23-8-.08-1.58-.33-3.15-.46-4.74-.09-1.11-.28-2.25.57-3.2a3.29,3.29,0,0,1,4.65-.13c1.19,1,2.29,2.08,2.4,3.78.05.77.57,1,1.19.68a6.43,6.43,0,0,0,1.49-1,20.3,20.3,0,0,1,8-4.48,8.06,8.06,0,0,1,6.86.81c1.77,1.19,3.8,2.08,4.64,4.28,2.67,2.27,3.51,5.64,5,8.57a14.81,14.81,0,0,1,1.21,4.43c.35,2.16.48,4.35.76,6.52s.53,8.77.94,10.76c.62,3-.53,5.43-3.59,5.53-2.13.07-4,.65-5.33-1.11a14.28,14.28,0,0,1-.69-3.75c-.24-3.43-.42-11.59-.57-15-.19-4.39-1.82-8.34-3.75-12.17-1.05-2.09-2.86-2.36-4.87-.83-1.74,1.32-3.44,2.69-5.18,4-.89.67-1.82,1.29-2.75,1.9-1.13.75-2,1.56-2,3.12a25.74,25.74,0,0,1-.36,3.6Z"/><path d="M121.25,114.46a10.69,10.69,0,0,0-1.52-4.95.88.88,0,0,0-.8-.29,22.17,22.17,0,0,0-2.85,1.41c-.83.51-1.57,1.18-2.36,1.74a6.19,6.19,0,0,1-5.05,1,2.28,2.28,0,0,1-2-2.59,6.68,6.68,0,0,1,1.81-3.87c2.46-3,5.57-5,9.59-4.91a10,10,0,0,1,8.09,4.17c2.21,2.85,2.82,9.89,3.58,13.29a49.12,49.12,0,0,1,.89,12.2,22.49,22.49,0,0,0,.24,6.12c.42,1.72-1.48,3.52-3.45,3.53a1.11,1.11,0,0,1-.28,0c-2.79-.72-5.51-.1-8.28.22a25.05,25.05,0,0,1-10.79-.89c-4.3-1.42-5.79-4.24-6.19-8.38a11.92,11.92,0,0,1,0-3.59c1-4.53,4.27-7.15,8-9.32,2.85-1.64,5.94-1.7,9.08-1.18.46.08.92.16,1.38.21C120.46,118.42,120.95,114.57,121.25,114.46Zm-11.88,16.29c-.36,3.39.42,4.3,3.64,4.2,2.37-.07,4.79-.07,6.85-1.57a2.92,2.92,0,0,1,.79-.28c1.13-.38,1.37-.77,1.31-2s-.09-2.32-.09-3.48a2.22,2.22,0,0,0-1-2.18,6.07,6.07,0,0,0-4.53-1,13,13,0,0,0-5.43,3.3A3.86,3.86,0,0,0,109.37,130.75Z"/><path d="M69.21,124.9c-.23-3.88-.41-7.77-.7-11.64-.1-1.37-.53-2.71-.7-4.08a23.14,23.14,0,0,1-.19-3.54A1.54,1.54,0,0,1,69.49,104a5.09,5.09,0,0,1,2,.45c1.43.77,2.43.38,3.52-.72a15.93,15.93,0,0,1,3.82-3c2.56-1.32,5.42-2.34,8.24-1.44a11.37,11.37,0,0,1,5.12,3.35c1.61,1.87,3.17,3.77,4.75,5.67a2.94,2.94,0,0,1,.47,3.06c-1.12,3.2-3.17,4.44-6.38,3.85-1.86-.34-2.77-1.24-2.75-3.1a7.51,7.51,0,0,0-2-4.67,1.3,1.3,0,0,0-1.7-.42,7.85,7.85,0,0,0-4.51,4,6.36,6.36,0,0,1-2,2.34c-1.67,1.17-1.64,2.74-1.44,4.45.22,1.86.39,3.73.62,5.58s.53,12,.86,14a2.2,2.2,0,0,1-1.69,2.67,6.71,6.71,0,0,1-3.92.05,4.38,4.38,0,0,1-3.4-4.13c-.09-1-.14-10.07-.21-11.1Z"/><path d="M266.49,80.34c-.5,4-.9,6.74-1.2,9.53-.33,3.07-.55,6.15-.87,9.22a16,16,0,0,1-.55,2.25,6.06,6.06,0,0,0-.23.85c-.25,2.43-.5,4.87-.72,7.3a7.06,7.06,0,0,0,0,1.62,9.09,9.09,0,0,1-.89,4.75c-.16.39-.5.92-.83,1a15.32,15.32,0,0,1-4.49.41,5.72,5.72,0,0,1-2.75-1.8,3.15,3.15,0,0,1-.51-1.9c-.07-1.07.1-2.15,0-3.22a8.72,8.72,0,0,1,.56-3.73,23.91,23.91,0,0,0,1.09-4.87c.43-3.67.67-7.36,1-11a27,27,0,0,0,.6-3.14,31,31,0,0,1,.76-6.55,21.56,21.56,0,0,0-.08-4,9.61,9.61,0,0,1,.22-2.34,2,2,0,0,1,2.61-1.49c.71.14,1.46,0,2.18.13a2,2,0,0,1,1.26.49C265.41,76.1,267.12,78.4,266.49,80.34Z"/><circle cx="258.86" cy="134.77" r="5.5"/><g class="cls-2"><path class="cls-3" d="M1.19,168a371.4,371.4,0,0,0,26.7,27.08c1.75,1.61,20.83,16.24,21.83,14.45a116.86,116.86,0,0,0,10.53-25.1L35.62,167.17l12,20.57C49.07,190.23,71,207,72.24,205l12.22-19.23L59.83,168.5a94.93,94.93,0,0,0,8.67,15.26c6.13,8.73,16,15.55,25.2,20.59,2.13,1.17,4.57,2.63,7,1.42,2.13-1.06,3.15-3.84,4.14-5.8l8.9-17.63-23.59-16.1c4.33,4.89,6.46,11.74,9.85,17.26a40.55,40.55,0,0,0,7.58,9c6.69,6,14.49,12,22.6,16,3.94,1.93,6.45,1.7,8.43-2.36,1.33-2.72,2.53-5.51,3.79-8.26,2.89-6.32,5.76-12.65,8.68-19l-24.63-17.31L142.14,187c1.52,2.46,23.71,19.07,24.63,17.31L174,190.37c1.09-2.1,4.12-10.66,7.88-8.81l-7.83-4.79q-16.2-14.07-10.29-7.81l1,1.08c1,1.08,1.91,2.17,2.87,3.25l6.21,7,11.95,13.53c1.76,2,22.6,17.95,23.59,16.1,2.89-5.33,2.28-11.33,2.87-17.16.51-5.1,2.69-12.93,8.94-12.9l.75.18-18.53-13.41c-.08-.16-.67-1.06,0,0,.38.66.84,1.27,1.22,1.94a37,37,0,0,1,2.1,4.61c1.29,3.32,2.29,6.74,3.5,10.09a22.93,22.93,0,0,0,4.55,8.22c3.67,4,8.39,7.22,12.78,10.31,3.38,2.37,7.93,6.38,12.19,7.15,4.81.87,7.88-5.24,10.17-8.55L261,184.26c1.4-2-23.64-19.7-24.83-18l-9.71,14.07c-2.75,4-5.24,9-10,10.72,0,0-.36,0-.33-.06l-.32-.09,21.94,15.76c-.3-.52-.7-1-1-1.51a28.51,28.51,0,0,1-1.92-4.32c-1.24-3.31-2.23-6.72-3.47-10a28.75,28.75,0,0,0-4.85-8.93,59.43,59.43,0,0,0-9-7.93c-5.21-4-10.79-8.11-16.8-10.89-3.13-1.45-6.46-2.06-9.06.65a16.51,16.51,0,0,0-4,8.4c-1.25,6.65.1,13.7-3.24,19.87l23.59,16.1c-11.44-13-22.08-26.72-36.33-36.73-5-3.51-15-12.73-19.71-4.48-3.6,6.34-6.77,13-10.14,19.44l24.63,17.31-15.7-25.43c-1.55-2.5-23.9-18.88-24.63-17.31q-3.29,7.11-6.52,14.24c-2.15,4.71-3.9,10.21-6.74,14.54-3.28,5-7.35-1.64,6.08,8.42q12.32,10.35,8.19,6a1.79,1.79,0,0,1-.36-.41c-.39-.53-.78-1-1.16-1.58a66.27,66.27,0,0,1-4.19-7.22c-2.67-5.12-5.17-10.1-9-14.45-1.76-2-22.71-17.86-23.59-16.1l-7.25,14.36c-.75,1.48-4.38,11-7.43,9.42L91.54,200c6,4.85,2,1.37.61-.71q-1.53-2.24-2.92-4.57a96.8,96.8,0,0,1-5-9.57C83,182.42,60.78,166,59.63,167.85L47.41,187.08,72,204.39,60,183.82c-1-1.77-3.69-3.67-5.17-4.87-2.53-2.05-5.14-4-7.81-5.87-.92-.64-11.42-7.38-11.65-6.56a116.86,116.86,0,0,1-10.53,25.1l21.83,14.45a324.58,324.58,0,0,1-23.18-23.77c-4.5-5.09-10.95-9.15-16.67-12.73-1.65-1-4.28-3.33-6.24-3.38-1.5,0,.07,1.31.56,1.86Z"/></g></g></g></g></svg>