<svg xmlns="http://www.w3.org/2000/svg" viewBox="0 0 263.81 158.16"><defs><style>.cls-1{fill:#59ecff;}</style></defs><title>gf-logo-12</title><g id="Layer_2" data-name="Layer 2"><g id="Layer_1-2" data-name="Layer 1"><path class="cls-1" d="M183.21,61.4l.09,0Z"/><path class="cls-1" d="M4.77,106.41h0Z"/><path class="cls-1" d="M208.17,79l.09,0Z"/><path class="cls-1" d="M257,99.6c-.15-1.09-4.52-1.72-4.67-1.75A92.19,92.19,0,0,0,243,96.63c-3.45-.31-6.94-.55-10.41-.51-2.49,0-5.16-.09-7.58.65-19.46,5.93-35.22,19.77-52.72,30,.4-.53.81-1,1.2-1.47,4.35-5,8.81-9.95,13.22-14.92l26.21-29.6c.51-.57-4.82-1.76-4.76-1.76a92.66,92.66,0,0,0-9.23-1.21c-3.45-.31-6.94-.55-10.41-.51l-3.32.07a17.32,17.32,0,0,0-4.26.57L165.31,88.23l7.85-8.68L188,63.16c.51-.57-4.84-1.76-4.76-1.76A92.66,92.66,0,0,0,174,60.19c-3.45-.31-6.94-.55-10.41-.51-2.33,0-5.41-.35-7.58.65C138.78,68.21,123,79.12,107.7,90.44c-10.3,7.6-20.49,15.4-31,22.69q1.21-1.56,2.45-3.1a325,325,0,0,1,22.64-25.22C117.77,68.65,135,53.91,152,39,161.61,30.55,171.19,22,180.5,13.2c.57-.55-5.63-1.93-4.67-1.75a92.21,92.21,0,0,0-9.32-1.22c-5.87-.52-12.16-1.16-18,.13-10.91,2.41-20.68,8.59-30.42,14.1C107.71,30.35,97.33,36.25,87,42.27,66.86,54,46.63,66,27.61,79.74,17.6,87,8,95,0,104.65c-.48.58,4.57,1.71,4.73,1.76a87.27,87.27,0,0,0,11.41,1.4,87.17,87.17,0,0,0,11.57.25c1.37-.09,3.89.14,4.88-1.06A131.47,131.47,0,0,1,52.89,87.62c11.84-9.19,24.49-17.31,37.23-25.12-14.35,13-28.28,26.66-40.75,41.71q-6.13,7.4-11.74,15.27c-3.73,5.27-8,10.92-8.44,17.72l.54.57a12,12,0,0,0,2.87.89A67,67,0,0,0,41,140a92,92,0,0,0,18.48.42c10.24-1,19.58-6,28.51-11.12,4.57-2.62,9-5.42,13.44-8.33l0,0h0c-3.61,4.16-7.36,8.77-7.68,14.46-.06,1,4.82,1.78,4.67,1.75a92.21,92.21,0,0,0,9.32,1.22c3.45.31,6.94.55,10.41.51l3.32-.07a17.32,17.32,0,0,0,4.26-.57l11-7.26h0a5.5,5.5,0,0,0,2,4.72,10.89,10.89,0,0,0,4.46,2,88.35,88.35,0,0,0,16,2.28c6.66.48,13.56.76,20.22-.22a56.81,56.81,0,0,0,17.45-5.93c1-.52,2-1.06,3-1.6h0c-1.5,2.16-2.93,4.37-4.22,6.67a61.75,61.75,0,0,0-3.66,7.64c-1,2.64-1.66,5.29.93,7.12,1.86,1.31,4.83,1.78,6.95,2.21a112.65,112.65,0,0,0,14.55,1.84c7.55.56,15.69,1,23.09-1.25,2-.62-1.7-1.7-1.53-1.65a50.2,50.2,0,0,0-9.67-1.62l-2.66-.25h0c-.14-1.78.8-3.74,1.47-5.33a64,64,0,0,1,3.68-7.31,108.71,108.71,0,0,1,9.61-13.57c3.46-4.28,7.09-8.42,10.59-12.67,1.74-2.12,3.47-4.25,5.11-6.47S257.42,102.65,257,99.6Zm-51.94,53.85H205l-.29.07C204.54,153.56,204.67,153.5,205.05,153.45Zm-1.07.15.65-.06A1.31,1.31,0,0,1,204,153.6Z"/><path d="M106.52,63.3c-2.4-.53-5.19-1.06-7.94-1.79A13.93,13.93,0,0,1,95.64,60c-3.58-2-6.34-4.76-7.32-8.78s-2.14-7.85-1.72-12c.1-1-.07-1.93,0-2.89.18-1.87.38-3.74.7-5.59a22.89,22.89,0,0,1,.92-3,24.91,24.91,0,0,1,6.14-10.19,17.44,17.44,0,0,0,2.41-2.82,12.9,12.9,0,0,1,3.33-3.26c2.06-1.54,4.08-3.14,6.13-4.68.62-.47,1.32-.83,2-1.25,1.11-.72,2.22-1.45,3.33-2.16.5-.32,1-.6,1.54-.89a3.94,3.94,0,0,0,1.18-.69C115.47.29,117.15.12,118.8,0a14.51,14.51,0,0,1,9.67,2.65,27.64,27.64,0,0,1,4,4.16,1.43,1.43,0,0,1,.12,1.27,3.24,3.24,0,0,1-4.69,1.24,20.88,20.88,0,0,0-4.26-1.87,5.71,5.71,0,0,0-5.51,1.34c-1.48,1.2-3.27,2-4.88,3.07-1.92,1.26-3.83,2.55-5.68,3.91A16.38,16.38,0,0,0,105,18.13q-2.18,2.46-4.21,5.06c-1.12,1.45-2.15,3-3.19,4.49C96.12,29.89,96,32.53,95.5,35a50.9,50.9,0,0,0-.87,7.4,24.12,24.12,0,0,0,.68,4.89,35.42,35.42,0,0,0,.89,4.05,5.53,5.53,0,0,0,2.68,3.69,14.06,14.06,0,0,0,8.69,1.31,56.28,56.28,0,0,0,7.81-1.7,6.52,6.52,0,0,0,2.31-1.19c2.06-1.76,4.09-3.56,6-5.46,1.75-1.72,1.32-4-.62-5.59a13.37,13.37,0,0,0-5.44-2.23,1.74,1.74,0,0,0-1.3.14c-1.43,1.09-3,.81-4.65.83s-2.87-1-4.11-2c-.37-.28-.72-.57-1.1-.84a1.65,1.65,0,0,1-.14-2.85c1.53-1.26,3.11-2.39,5.27-2.39,1.37,0,2.73-.48,4.1-.54,2.47-.1,4.63,1.07,6.84,2A32.78,32.78,0,0,1,127.64,37c2.36,1.46,4.55,3.14,5.56,5.95a11,11,0,0,1,.06,7.3,5,5,0,0,1-1.39,1.86c-1.77,1.67-3.59,3.29-5.4,4.92-1.26,1.13-2.49,2.3-3.83,3.34a5.15,5.15,0,0,1-2.13.93c-2.75.52-5.53.94-8.29,1.41-.58.1-1.14.31-1.72.36C109.33,63.16,108.15,63.2,106.52,63.3Z"/><path d="M142.52,48.41c.7-3.64,3.27-6,5.64-8.52,1-1,1.76-2.39,3.35-2.51a19.17,19.17,0,0,1,4.34,0c2.7.42,4.68,2.22,6.71,3.89a8.19,8.19,0,0,0,1.63,1,9.18,9.18,0,0,1,5.17,6.6,61.45,61.45,0,0,1,1.12,6.1,10.55,10.55,0,0,1-1.32,6.13c-2,3.89-5.32,6-9.51,6.87-2,.43-3.87.93-5.87.46-3.17-.74-6.36-1.66-8.68-4a12.26,12.26,0,0,1-3.68-11.25C141.73,51.63,142.16,50,142.52,48.41Zm8.33,2.27c-1.18,2.33-1,4.93-1.45,7.41a2.34,2.34,0,0,0,1.6,2.65,6.23,6.23,0,0,0,5.24-.16l2-1a8,8,0,0,0,3.44-10.39,1.58,1.58,0,0,0-.53-.61c-1.55-1-3-2.16-4.94-2.52s-3,0-4,1.63C151.68,48.62,151.3,49.67,150.85,50.68Z"/><path d="M214.52,92.72c3-2.32,5.88-4.88,8.9-7.22a15.64,15.64,0,0,1,3.88-2.19,4.74,4.74,0,0,1,4,.55,8.55,8.55,0,0,1,3,3.22,1.07,1.07,0,0,1-.31,1.49c-1.07.89-2.19,1.72-3.31,2.55-2.35,1.74-4.74,3.43-7.06,5.21s-4.44,3.53-6.64,5.33c-.64.52-1.19,1.15-1.8,1.72l-4.38,4.12c-.4.38-.94.73-1.13,1.2a2.86,2.86,0,0,0-.06,1.68,3.44,3.44,0,0,0,.8,1.3c1.72,2,3.49,4,5.19,6,.83,1,1.49,2.11,2.3,3.12,2.14,2.69,5.28,6.28,7.41,9,.51.65.83,1.45,1.29,2.14s1.08,1.28,1.47,2c.8,1.45,1.52,2.94,2.22,4.45.38.82-.1,1.38-.71,1.92-1.83,1.6-4.79,1.12-6.55-.05a5.85,5.85,0,0,1-2.74-3.53,16.21,16.21,0,0,0-3.88-6.5c-1.52-1.75-3.81-4.59-5.22-6.44-2.14-2.81-4.25-5.64-6.39-8.45-.68-.9-1.2-.92-2.1-.18s-1.75,1.39-2.61,2.1A5.86,5.86,0,0,0,198,122.4c.12,2.36-.07,4.74,0,7.1,0,1.52.12,6.84.41,8.33a4.83,4.83,0,0,1-.7,3.47,1.92,1.92,0,0,1-.69.67,6,6,0,0,1-6.93-1.28,3.82,3.82,0,0,1-.82-1.88,12.11,12.11,0,0,1,.29-5c.3-.93.14-5.8.14-6.81q0-8.87,0-17.73c0-.37,0-.75,0-1.12q.35-7,.7-14c.13-2.73.3-15.45.34-18.18,0-1.2-.23-2.4-.31-3.6a1.82,1.82,0,0,1,.18-.94c.55-1,3.75-1.85,4.7-1.15a16.44,16.44,0,0,1,2.82,2.49,4.46,4.46,0,0,1,1,2.39c.12,1.62,0,3.26-.08,4.89,0,.74,0,1.48,0,2.23-.09,3.71-.19,17.42-.28,21.13,0,1,0,2,0,3.46,1.2-1,2.23-1.66,3.12-2.51,4.13-4,8-8.18,12.6-11.68"/><path d="M45.66,83.16c0,.74,0,1.48.06,2.21q.45,3.88,1,7.76c.26,2,.59,3.9.85,5.86.29,2.15.51,4.31.81,6.45.18,1.33.55,1.51,1.92,1.25a48.42,48.42,0,0,1,4.82-.77c2.62-.24,4.5,1.25,6.16,3,.76.81.06,3-1.19,3.52a19.31,19.31,0,0,1-4.24,1.21,14,14,0,0,0-5,2,2.39,2.39,0,0,0-1.06,2.69c.53,3.31.73,6.69,1.49,9.93.64,2.7-.06,7.63,1.46,10.13a2.89,2.89,0,0,1-2.29,4.16c-1.63.09-3.23.28-4.81-.8a5.65,5.65,0,0,1-2.65-4c-.35-2.23,0-6.5-.33-8.73s-.63-4.2-.94-6.29c-.05-.34-.09-.69-.16-1-.18-.86-.63-1.19-1.49-.75-.39.2-.85.29-1.23.51-2.69,1.57-5.33,1-7.95-.15A3,3,0,0,1,29,118.17a2.06,2.06,0,0,1,1.29-2c2.5-1.16,5-2.37,7.48-3.55,2.06-1,2.32-1.39,2.2-3.66-.13-2.46-.17-4.94-.43-7.39-.31-2.88-.85-5.73-1.24-8.6q-.5-3.75-.88-7.51c-.35-3.59-1.12-3.21-3.92-2.61a39.14,39.14,0,0,0-6.94,2.05,10.18,10.18,0,0,1-5.45,1,10.07,10.07,0,0,1-3.58-1.22,3.12,3.12,0,0,1-1.28-3.4c.18-1.2,1.16-1.56,2.06-1.9,2.72-1,5.43-2.1,8.2-3,2-.65,4.07-1.09,6.12-1.56q4.62-1,9.26-2c3.72-.76,7.46-1.45,11.19-2.2s7.15-1.55,10.74-2.21a8,8,0,0,1,6.87,2c1.95,1.68,1.61,3.67-.81,4.53a54.72,54.72,0,0,1-5.54,1.52c-2.19.53-4.41,1-6.61,1.48-.43.09-.88.13-1.31.22-3.33.68-6.65,1.38-10,2a1.19,1.19,0,0,0-1.06,1.48c0,.49.07,1,.11,1.48Z"/><path d="M150.43,123.32c.17,3.86.35,12.45.51,16.32a2.49,2.49,0,0,1-2.08,2.84,7.9,7.9,0,0,1-3.44.2c-1.57-.26-2.38-1.39-3.33-2.37a2,2,0,0,1-.32-1.45,95.94,95.94,0,0,0,.09-13.19,20.86,20.86,0,0,1,.37-4,17.7,17.7,0,0,0,0-2c-.07-2.65-.1-5.31-.23-8-.08-1.58-.33-3.15-.46-4.74-.09-1.11-.28-2.25.57-3.2a3.29,3.29,0,0,1,4.65-.13c1.19,1,2.29,2.08,2.4,3.78.05.77.57,1,1.19.68a6.43,6.43,0,0,0,1.49-1,20.3,20.3,0,0,1,8-4.48,8.06,8.06,0,0,1,6.86.81c1.77,1.19,3.8,2.08,4.64,4.28,2.67,2.27,3.51,5.64,5,8.57a14.81,14.81,0,0,1,1.21,4.43c.35,2.16.48,4.35.76,6.52s.53,8.77.94,10.76c.62,3-.53,4.43-3.59,4.53-2.13.07-4-.35-5.33-2.11a3.49,3.49,0,0,1-.69-1.75c-.24-3.43-.42-11.59-.57-15-.19-4.39-1.82-8.34-3.75-12.17-1.05-2.09-2.86-2.36-4.87-.83-1.74,1.32-3.44,2.69-5.18,4-.89.67-1.82,1.29-2.75,1.9-1.13.75-2,1.56-2,3.12a25.74,25.74,0,0,1-.36,3.6Z"/><path d="M123.44,116a10.69,10.69,0,0,0-1.52-4.95.88.88,0,0,0-.8-.29,22.17,22.17,0,0,0-2.85,1.41c-.83.51-1.57,1.18-2.36,1.74a6.19,6.19,0,0,1-5.05,1,2.28,2.28,0,0,1-2-2.59,6.68,6.68,0,0,1,1.81-3.87c2.46-3,5.57-5,9.59-4.91a10,10,0,0,1,8.09,4.17c2.21,2.85,2.82,9.89,3.58,13.29a49.12,49.12,0,0,1,.89,12.2,22.49,22.49,0,0,0,.24,6.12c.42,1.72-1.48,3.52-3.45,3.53a1.11,1.11,0,0,1-.28,0c-2.79-.72-5.51-.1-8.28.22a25.05,25.05,0,0,1-10.79-.89c-4.3-1.42-5.79-4.24-6.19-8.38a11.92,11.92,0,0,1,0-3.59c1-4.53,4.27-7.15,8-9.32,2.85-1.64,5.94-1.7,9.08-1.18.46.08.92.16,1.38.21C122.65,120,123.13,116.11,123.44,116Zm-11.88,16.29c-.36,3.39.42,4.3,3.64,4.2,2.37-.07,4.79-.07,6.85-1.57a2.92,2.92,0,0,1,.79-.28c1.13-.38,1.37-.77,1.31-2s-.09-2.32-.09-3.48a2.22,2.22,0,0,0-1-2.18,6.07,6.07,0,0,0-4.53-1,13,13,0,0,0-5.43,3.3A3.86,3.86,0,0,0,111.56,132.29Z"/><path d="M71.4,126.44c-.23-3.88-.41-7.77-.7-11.64-.1-1.37-.53-2.71-.7-4.08a23.14,23.14,0,0,1-.19-3.54,1.54,1.54,0,0,1,1.86-1.61,5.09,5.09,0,0,1,2,.45c1.43.77,2.43.38,3.52-.72a15.93,15.93,0,0,1,3.82-3c2.56-1.32,5.42-2.34,8.24-1.44a11.37,11.37,0,0,1,5.12,3.35c1.61,1.87,3.17,3.77,4.75,5.67a2.94,2.94,0,0,1,.47,3.06c-1.12,3.2-3.17,4.44-6.38,3.85-1.86-.34-2.77-1.24-2.75-3.1a7.51,7.51,0,0,0-2-4.67,1.3,1.3,0,0,0-1.7-.42,7.85,7.85,0,0,0-4.51,4,6.36,6.36,0,0,1-2,2.34c-1.67,1.17-1.64,2.74-1.44,4.45.22,1.86.39,3.73.62,5.58s.53,12,.86,14a2.2,2.2,0,0,1-1.69,2.67,6.71,6.71,0,0,1-3.92.05,4.38,4.38,0,0,1-3.4-4.13c-.09-1-.14-10.07-.21-11.1Z"/><path d="M263.68,82.89c-.5,4-.9,6.74-1.2,9.53-.33,3.07-.55,6.15-.87,9.22a16,16,0,0,1-.55,2.25,6.06,6.06,0,0,0-.23.85c-.25,2.43-.5,4.87-.72,7.3a7.06,7.06,0,0,0,0,1.62,9.09,9.09,0,0,1-.89,4.75c-.16.39-.5.92-.83,1a15.32,15.32,0,0,1-4.49.41,5.72,5.72,0,0,1-2.75-1.8,3.15,3.15,0,0,1-.51-1.9c-.07-1.07.1-2.15,0-3.22a8.72,8.72,0,0,1,.56-3.73,23.91,23.91,0,0,0,1.09-4.87c.43-3.67.67-7.36,1-11a27,27,0,0,0,.6-3.14,31,31,0,0,1,.76-6.55,21.56,21.56,0,0,0-.08-4,9.61,9.61,0,0,1,.22-2.34,2,2,0,0,1,2.61-1.49c.71.14,1.46,0,2.18.13a2,2,0,0,1,1.26.49C262.6,78.65,264.31,80.94,263.68,82.89Z"/><circle cx="256.05" cy="137.31" r="5.5"/></g></g></svg>