<svg xmlns="http://www.w3.org/2000/svg" viewBox="0 0 353.97 144.69"><defs><style>.cls-1{fill:#59ecff;}</style></defs><title>gf-logo-10</title><g id="Layer_2" data-name="Layer 2"><g id="Layer_1-2" data-name="Layer 1"><path class="cls-1" d="M183.31,48.75h0Z"/><path class="cls-1" d="M12,115.93h0Z"/><path class="cls-1" d="M210.3,63.08h0Z"/><path class="cls-1" d="M261.33,77.33c-.29-1.06-4.7-1.14-4.85-1.14a92.19,92.19,0,0,0-9.4,0c-3.47.13-7,.33-10.39.8-2.47.34-5.13.56-7.44,1.6C210.7,86.89,196.8,102.6,180.74,115c.33-.58.67-1.12,1-1.61,3.69-5.53,7.48-11,11.23-16.47l22.27-32.67c.43-.63-5-1.14-4.94-1.15A92.66,92.66,0,0,0,201,63c-3.47.13-7,.33-10.39.8l-3.29.49a17.32,17.32,0,0,0-4.15,1.11L168.95,77.63l6.69-9.6L188.26,49.9c.44-.63-5-1.14-4.94-1.15a92.66,92.66,0,0,0-9.3,0c-3.47.13-7,.33-10.39.8-2.31.32-5.41.33-7.44,1.6-16.08,10-30.31,22.81-44.1,36-9.26,8.84-18.38,17.86-27.88,26.42q1-1.7,2-3.39A325,325,0,0,1,105.5,82.25c13.81-18,29-34.84,44-51.78,8.49-9.59,16.93-19.24,25-29.19C175,.67,168.72.07,169.7.14a92.21,92.21,0,0,0-9.4,0c-5.89.22-12.21.38-17.83,2.4C131.94,6.27,123,13.64,114.07,20.33c-9.57,7.15-19.12,14.31-28.6,21.59C67,56.11,48.41,70.56,31.28,86.59c-9,8.44-17.5,17.59-24.21,28.2-.4.64,4.75,1.12,4.92,1.15a87.27,87.27,0,0,0,11.5-.05A87.17,87.17,0,0,0,35,114.67c1.35-.26,3.88-.35,4.71-1.67A131.47,131.47,0,0,1,57.35,91.22C67.94,80.6,79.46,71,91.11,61.6c-12.59,14.76-24.69,30-35.16,46.53-3.43,5.41-6.69,11-9.72,16.63s-6.59,11.85-6.14,18.64l.61.5a12,12,0,0,0,3,.52,67,67,0,0,0,8.51.25,92,92,0,0,0,18.38-1.92c10-2.32,18.67-8.42,26.88-14.63,4.2-3.17,8.28-6.52,12.28-10l0,0h0c-3.06,4.59-6.19,9.63-5.79,15.32.07,1,5,1.15,4.85,1.14a92.21,92.21,0,0,0,9.4,0c3.47-.13,7-.33,10.39-.8l3.29-.49a17.32,17.32,0,0,0,4.15-1.11l10-8.59h0a5.5,5.5,0,0,0,2.6,4.43,10.89,10.89,0,0,0,4.67,1.38,88.35,88.35,0,0,0,16.14.24c6.67-.36,13.54-1,20-2.77A56.81,56.81,0,0,0,206,118.86c.94-.64,1.87-1.3,2.79-2h0c-1.22,2.33-2.35,4.7-3.35,7.15a61.75,61.75,0,0,0-2.66,8c-.7,2.75-1,5.46,1.82,6.94,2,1.07,5,1.15,7.17,1.32a112.65,112.65,0,0,0,14.67,0c7.56-.4,15.69-1,22.75-4.15,1.94-.87-1.9-1.47-1.72-1.44a50.2,50.2,0,0,0-9.8-.38l-2.67.09h0c-.37-1.75.32-3.81.78-5.47a64,64,0,0,1,2.72-7.72,108.71,108.71,0,0,1,7.82-14.67c2.9-4.69,6-9.25,8.91-13.9,1.46-2.32,2.91-4.66,4.25-7.06S262.14,80.3,261.33,77.33Zm-44.73,60h0l0,0-.28.1C216.11,137.48,216.23,137.4,216.6,137.31Zm-1,.29.64-.14A1.31,1.31,0,0,1,215.56,137.6Z"/><path d="M24.24,117.34c-2.62-.29-5.65-.55-8.66-1a14.92,14.92,0,0,1-3.31-1.28c-4-1.7-7.29-4.36-8.79-8.53S.32,98.4.31,93.95c0-1-.29-2.05-.3-3.08,0-2,0-4,.12-6A24.53,24.53,0,0,1,.77,81.5,26.69,26.69,0,0,1,6.16,70,18.68,18.68,0,0,0,8.4,66.68a13.82,13.82,0,0,1,3.18-3.85c2-1.88,4-3.81,6-5.68.61-.57,1.32-1,2-1.56,1.11-.89,2.2-1.79,3.31-2.67.5-.4,1-.75,1.54-1.13s.93-.49,1.18-.87c1.08-1.71,2.85-2.09,4.59-2.37a15.55,15.55,0,0,1,10.6,1.73,29.62,29.62,0,0,1,4.72,4,1.54,1.54,0,0,1,.28,1.34,3.48,3.48,0,0,1-4.86,1.85,22.37,22.37,0,0,0-4.75-1.52A6.12,6.12,0,0,0,30.46,58c-1.45,1.45-3.26,2.52-4.85,3.82C23.7,63.37,21.82,65,20,66.62a17.55,17.55,0,0,0-2.43,2.77q-2,2.87-3.91,5.87c-1,1.67-2,3.41-2.89,5.14-1.37,2.53-1.24,5.36-1.45,8.09a54.54,54.54,0,0,0-.1,8,25.84,25.84,0,0,0,1.27,5.14,38,38,0,0,0,1.4,4.22,5.93,5.93,0,0,0,3.27,3.63,15.07,15.07,0,0,0,9.41.42,60.3,60.3,0,0,0,8.13-2.69A7,7,0,0,0,35,105.66c2-2.1,4-4.25,5.81-6.49,1.67-2,.95-4.46-1.29-5.89a14.33,14.33,0,0,0-6.05-1.77,1.87,1.87,0,0,0-1.37.3C30.72,93.14,29,93,27.26,93.23s-3.18-.77-4.6-1.62c-.42-.25-.83-.53-1.27-.77a1.77,1.77,0,0,1-.47-3c1.49-1.51,3-2.89,5.35-3.14,1.46-.16,2.85-.82,4.31-1,2.62-.39,5.06.62,7.51,1.32a35.12,35.12,0,0,1,5.68,2c2.68,1.29,5.21,2.84,6.59,5.71a11.75,11.75,0,0,1,.89,7.77A5.34,5.34,0,0,1,50,102.54c-1.69,2-3.45,3.91-5.19,5.85-1.21,1.35-2.4,2.73-3.7,4a5.51,5.51,0,0,1-2.17,1.23c-2.87.87-5.78,1.63-8.67,2.44-.6.17-1.18.46-1.79.58C27.22,116.88,26,117.06,24.24,117.34Z"/><path d="M60.65,92.08c-.53-3.93,1.27-7.23,2.84-10.57.64-1.37,1-3,2.55-3.69a20.54,20.54,0,0,1,4.42-1.44C73.34,75.89,76,77,78.59,78a8.78,8.78,0,0,0,2,.47,9.83,9.83,0,0,1,7.5,4.94,65.84,65.84,0,0,1,3.22,5.82A11.3,11.3,0,0,1,92.06,96c-.74,4.64-3.38,7.86-7.32,10.22-1.84,1.1-3.61,2.26-5.8,2.47-3.47.33-7,.48-10.18-1.11a13.13,13.13,0,0,1-7.57-10.17C60.93,95.62,60.82,93.84,60.65,92.08Zm9.23-.53c-.4,2.77.63,5.37,1,8a2.51,2.51,0,0,0,2.52,2.15,6.68,6.68,0,0,0,5.27-1.94l1.64-1.71a8.58,8.58,0,0,0,0-11.72,1.69,1.69,0,0,0-.75-.44c-1.92-.51-3.79-1.17-5.88-.87s-3.09,1-3.46,3C70,89.18,70,90.37,69.88,91.55Z"/><path d="M289,76.93c1.2-1,2.23-1.66,3.12-2.51,4.13-4,8-8.18,12.6-11.68,3-2.32,5.88-4.88,8.9-7.22a15.64,15.64,0,0,1,3.88-2.19,4.74,4.74,0,0,1,4,.55,8.55,8.55,0,0,1,3,3.22,1.07,1.07,0,0,1-.31,1.49c-1.07.89-2.19,1.72-3.31,2.55-2.35,1.74-4.74,3.43-7.06,5.21s-4.44,3.53-6.64,5.33c-.64.52-1.19,1.15-1.8,1.72L301,77.52c-.4.38-.94.73-1.13,1.2a2.86,2.86,0,0,0-.06,1.68,3.44,3.44,0,0,0,.8,1.3c1.72,2,3.49,4,5.19,6,.83,1,1.49,2.11,2.3,3.12,2.14,2.69,5.28,6.28,7.41,9,.51.65.83,1.45,1.29,2.14s1.08,1.28,1.47,2c.8,1.45,1.52,2.94,2.22,4.45.38.82-.1,1.38-.71,1.92-1.83,1.6-4.79,1.12-6.55-.05a5.85,5.85,0,0,1-2.74-3.53,16.21,16.21,0,0,0-3.88-6.5c-1.52-1.75-3.81-4.59-5.22-6.44-2.14-2.81-4.25-5.64-6.39-8.45-.68-.9-1.2-.92-2.1-.18s-1.75,1.39-2.61,2.1a5.86,5.86,0,0,0-2.15,5.17c.12,2.36-.07,4.74,0,7.1,0,1.52.12,6.84.41,8.33a4.83,4.83,0,0,1-.7,3.47,1.92,1.92,0,0,1-.69.67,6,6,0,0,1-6.93-1.28,3.82,3.82,0,0,1-.82-1.88,12.11,12.11,0,0,1,.29-5c.3-.93.14-5.8.14-6.81q0-8.87,0-17.73c0-.37,0-.75,0-1.12q.35-7,.7-14c.13-2.73.3-5.45.34-8.18,0-1.2-.23-2.4-.31-3.6a1.82,1.82,0,0,1,.18-.94c.55-1,3.75-1.85,4.7-1.15a16.44,16.44,0,0,1,2.82,2.49,4.46,4.46,0,0,1,1,2.39c.12,1.62,0,3.26-.08,4.89,0,.74,0,1.48,0,2.23-.09,3.71-.19,7.42-.28,11.13C288.93,74.48,289,75.5,289,76.93Z"/><path d="M135.82,53.17c0,.74,0,1.48.06,2.21q.45,3.88,1,7.76c.26,2,.59,3.9.85,5.86.29,2.15.51,4.31.81,6.45.18,1.33.55,1.51,1.92,1.25a48.42,48.42,0,0,1,4.82-.77c2.62-.24,4.5,1.25,6.16,3,.76.81.06,3-1.19,3.52A19.31,19.31,0,0,1,146,83.67a14,14,0,0,0-5,2,2.39,2.39,0,0,0-1.06,2.69c.53,3.31.73,6.69,1.49,9.93.64,2.7-.06,7.63,1.46,10.13a2.89,2.89,0,0,1-2.29,4.16c-1.63.09-3.23.28-4.81-.8a5.65,5.65,0,0,1-2.65-4c-.35-2.23,0-6.5-.33-8.73s-.63-4.2-.94-6.29c-.05-.34-.09-.69-.16-1-.18-.86-.63-1.19-1.49-.75-.39.2-.85.29-1.23.51-2.69,1.57-5.33,1-7.95-.15a3,3,0,0,1-1.78-3.14,2.06,2.06,0,0,1,1.29-2c2.5-1.16,5-2.37,7.48-3.55,2.06-1,2.32-1.39,2.2-3.66-.13-2.46-.17-4.94-.43-7.39-.31-2.88-.85-5.73-1.24-8.6q-.5-3.75-.88-7.51c-.35-3.59-1.12-3.21-3.92-2.61a39.14,39.14,0,0,0-6.94,2.05,10.18,10.18,0,0,1-5.45,1,10.07,10.07,0,0,1-3.58-1.22,3.12,3.12,0,0,1-1.28-3.4c.18-1.2,1.16-1.56,2.06-1.9,2.72-1,5.43-2.1,8.2-3,2-.65,4.07-1.09,6.12-1.56q4.62-1,9.26-2c3.72-.76,7.46-1.45,11.19-2.2s7.15-1.55,10.74-2.21a8,8,0,0,1,6.87,2c1.95,1.68,1.61,3.67-.81,4.53a54.72,54.72,0,0,1-5.54,1.52c-2.19.53-4.41,1-6.61,1.48-.43.09-.88.13-1.31.22-3.33.68-6.65,1.38-10,2a1.19,1.19,0,0,0-1.06,1.48c0,.49.07,1,.11,1.48Z"/><path d="M240.6,93.34c.17,3.86.35,12.45.51,16.32a2.49,2.49,0,0,1-2.08,2.84,7.9,7.9,0,0,1-3.44.2c-1.57-.26-2.38-1.39-3.33-2.37a2,2,0,0,1-.32-1.45A95.94,95.94,0,0,0,232,95.69a20.86,20.86,0,0,1,.37-4,17.7,17.7,0,0,0,0-2c-.07-2.65-.1-5.31-.23-8-.08-1.58-.33-3.15-.46-4.74-.09-1.11-.28-2.25.57-3.2a3.29,3.29,0,0,1,4.65-.13c1.19,1,2.29,2.08,2.4,3.78.05.77.57,1,1.19.68a6.43,6.43,0,0,0,1.49-1,20.3,20.3,0,0,1,8-4.48,8.06,8.06,0,0,1,6.86.81c1.77,1.19,3.8,2.08,4.64,4.28,2.67,2.27,3.51,5.64,5,8.57a14.81,14.81,0,0,1,1.21,4.43c.35,2.16.48,4.35.76,6.52s.53,8.77.94,10.76c.62,3-.53,4.43-3.59,4.53-2.13.07-4-.35-5.33-2.11a3.49,3.49,0,0,1-.69-1.75c-.24-3.43-.42-11.59-.57-15-.19-4.39-1.82-8.34-3.75-12.17-1.05-2.09-2.86-2.36-4.87-.83-1.74,1.32-3.44,2.69-5.18,4-.89.67-1.82,1.29-2.75,1.9-1.13.75-2,1.56-2,3.12a25.74,25.74,0,0,1-.36,3.6Z"/><path d="M213.6,86a10.69,10.69,0,0,0-1.52-4.95.88.88,0,0,0-.8-.29,22.17,22.17,0,0,0-2.85,1.41c-.83.51-1.57,1.18-2.36,1.74A6.19,6.19,0,0,1,201,85a2.28,2.28,0,0,1-2-2.59,6.68,6.68,0,0,1,1.81-3.87c2.46-3,5.57-5,9.59-4.91a10,10,0,0,1,8.09,4.17c2.21,2.85,2.82,9.89,3.58,13.29a49.12,49.12,0,0,1,.89,12.2,22.49,22.49,0,0,0,.24,6.12c.42,1.72-1.48,3.52-3.45,3.53a1.11,1.11,0,0,1-.28,0c-2.79-.72-5.51-.1-8.28.22a25.05,25.05,0,0,1-10.79-.89c-4.3-1.42-5.79-4.24-6.19-8.38a11.92,11.92,0,0,1,0-3.59c1-4.53,4.27-7.15,8-9.32,2.85-1.64,5.94-1.7,9.08-1.18.46.08.92.16,1.38.21C212.81,90,213.29,86.13,213.6,86Zm-11.88,16.29c-.36,3.39.42,4.3,3.64,4.2,2.37-.07,4.79-.07,6.85-1.57a2.92,2.92,0,0,1,.79-.28c1.13-.38,1.37-.77,1.31-2s-.09-2.32-.09-3.48a2.22,2.22,0,0,0-1-2.18,6.07,6.07,0,0,0-4.53-1,13,13,0,0,0-5.43,3.3A3.86,3.86,0,0,0,201.72,102.31Z"/><path d="M161.56,96.45c-.23-3.88-.41-7.77-.7-11.64-.1-1.37-.53-2.71-.7-4.08a23.14,23.14,0,0,1-.19-3.54,1.54,1.54,0,0,1,1.86-1.61,5.09,5.09,0,0,1,2,.45c1.43.77,2.43.38,3.52-.72a15.93,15.93,0,0,1,3.82-3c2.56-1.32,5.42-2.34,8.24-1.44a11.37,11.37,0,0,1,5.12,3.35c1.61,1.87,3.17,3.77,4.75,5.67a2.94,2.94,0,0,1,.47,3.06c-1.12,3.2-3.17,4.44-6.38,3.85-1.86-.34-2.77-1.24-2.75-3.1a7.51,7.51,0,0,0-2-4.67,1.3,1.3,0,0,0-1.7-.42,7.85,7.85,0,0,0-4.51,4,6.36,6.36,0,0,1-2,2.34c-1.67,1.17-1.64,2.74-1.44,4.45.22,1.86.39,3.73.62,5.58s.53,12,.86,14a2.2,2.2,0,0,1-1.69,2.67,6.71,6.71,0,0,1-3.92.05,4.38,4.38,0,0,1-3.4-4.13c-.09-1-.14-10.07-.21-11.1Z"/><path d="M353.84,52.9c-.5,4-.9,6.74-1.2,9.53-.33,3.07-.55,6.15-.87,9.22a16,16,0,0,1-.55,2.25,6.06,6.06,0,0,0-.23.85c-.25,2.43-.5,4.87-.72,7.3a7.06,7.06,0,0,0,0,1.62,9.09,9.09,0,0,1-.89,4.75c-.16.39-.5.92-.83,1a15.32,15.32,0,0,1-4.49.41,5.72,5.72,0,0,1-2.75-1.8,3.15,3.15,0,0,1-.51-1.9c-.07-1.07.1-2.15,0-3.22a8.72,8.72,0,0,1,.56-3.73,23.91,23.91,0,0,0,1.09-4.87c.43-3.67.67-7.36,1-11a27,27,0,0,0,.6-3.14,31,31,0,0,1,.76-6.55,21.56,21.56,0,0,0-.08-4,9.61,9.61,0,0,1,.22-2.34,2,2,0,0,1,2.61-1.49c.71.14,1.46,0,2.18.13a2,2,0,0,1,1.26.49C352.76,48.66,354.47,51,353.84,52.9Z"/><circle cx="346.21" cy="107.33" r="5.5"/></g></g></svg>