<?xml version="1.0" encoding="UTF-8"?>
<svg width="144px" height="49px" viewBox="0 0 144 49" version="1.1" xmlns="http://www.w3.org/2000/svg" xmlns:xlink="http://www.w3.org/1999/xlink">
    <!-- Generator: Sketch 41.2 (35397) - http://www.bohemiancoding.com/sketch -->
    <title>Page 1</title>
    <desc>Created with Sketch.</desc>
    <defs>
        <polygon id="path-1" points="11.6607515 0.0374086022 0.0172917449 0.0374086022 0.0172917449 10.5186647 11.6607515 10.5186647 11.6607515 0.0374086022"></polygon>
        <polygon id="path-3" points="8.68384561 0.0374086022 0.0626298566 0.0374086022 0.0626298566 4.86023332 8.68384561 4.86023332 8.68384561 0.0374086022"></polygon>
        <polygon id="path-5" points="24.7735877 31.1077736 24.7735877 0.0377961877 0.0763191547 0.0377961877 0.0763191547 31.1077736 24.7735877 31.1077736"></polygon>
    </defs>
    <g id="Mobile-app" stroke="none" stroke-width="1" fill="none" fill-rule="evenodd">
        <g id="Mobile-Portrait-homepage" transform="translate(-88.000000, -9.000000)">
            <g id="Page-1" transform="translate(88.000000, 9.000000)">
                <path d="M122.500995,20.0895082 L122.500995,37.5998953 C122.500995,38.3758165 123.130456,37.9511498 123.906828,37.9511498 C124.683199,37.9511498 125.31266,38.3758165 125.31266,37.5998953 L125.31266,20.5085548 C125.31266,20.5085548 124.467403,19.118114 123.578566,19.118114 C122.689728,19.118114 122.500995,20.0895082 122.500995,20.0895082" id="Fill-1" fill="#000000"></path>
                <path d="M122.500995,14.0727297 L122.500995,1.77882294 C122.500995,1.00290179 123.130456,1.35169749 123.906828,1.35169749 C124.683199,1.35169749 125.31266,1.00290179 125.31266,1.77882294 L125.31266,14.0727297 C125.31266,14.0727297 123.935471,13.2237477 122.500995,14.0727297" id="Fill-3" fill="#000000"></path>
                <path d="M68.3175755,37.9456878 C67.5412043,37.9456878 66.9117426,38.3703545 66.9117426,37.5944333 L66.9117426,24.074824 L69.7234084,22.1645265 L69.7234084,37.5944333 C69.7234084,38.3703545 69.0939467,37.9456878 68.3175755,37.9456878" id="Fill-5" fill="#000000"></path>
                <path d="M104.303946,17.3677953 C105.699938,16.3795409 107.26832,15.488057 108.841975,15.488057 C112.187681,15.488057 115.929833,18.5174513 115.929833,22.5716305 L115.929833,37.5998778 C115.929833,38.3757989 115.300371,37.9511323 114.524,37.9511323 C113.747629,37.9511323 113.118167,38.3757989 113.118167,37.5998778 L113.118167,22.5716305 C113.118167,20.5952971 111.250166,18.2980928 108.841975,18.2980928 C107.681635,18.2980928 105.927156,19.6381287 104.646091,20.6163724 C104.619204,20.6369208 104.592669,20.6572935 104.565958,20.6778419 C104.565958,20.6778419 102.377076,22.1186878 101.754292,22.3607022 C101.58981,22.3977595 101.425855,22.4170785 101.261196,22.4170785 C99.0738961,22.4170785 97.6048007,20.527505 97.6048007,18.7628025 C97.6048007,16.9529638 99.4501321,15.1088778 101.261196,15.1088778 C102.158821,15.1088778 103.28173,15.7483366 103.933509,16.5776484 L101.754292,18.380462 C101.754292,17.9979459 101.413905,17.9424477 101.257858,17.918738 C100.984599,17.92629 100.416467,18.0838276 100.416467,18.7633294 C100.416467,19.3392111 100.685508,19.552247 101.181064,19.6030032 C101.314442,19.5490857 101.518815,19.4222828 101.754292,19.2603545 L104.303946,17.3677953 Z M104.565958,21.7414405 L104.565958,37.4188061 C104.565958,38.1947272 103.936496,37.7700606 103.160125,37.7700606 C102.383754,37.7700606 101.754292,38.1947272 101.754292,37.4188061 L101.754292,23.8192864 L104.565958,21.7414405 Z" id="Fill-7" fill="#000000"></path>
                <path d="M70.1112426,16.9398796 C69.8986103,17.0788007 69.6889655,17.2222882 69.4831867,17.3680588 L67.0062848,19.2100373 C66.7402309,19.3956753 66.5072141,19.5435534 66.3603046,19.6029154 C65.6828689,19.6029154 65.4201538,19.2370839 65.4201538,18.7634172 C65.4201538,18.2484781 65.7410352,17.9186502 66.158919,17.9186502 C66.2369428,17.9307685 66.6347935,17.8568294 66.7437455,18.2063276 L68.9869277,16.4853563 C68.3346212,15.6247828 67.3568644,15.10879 66.4402613,15.10879 C64.6293728,15.10879 62.7842171,16.952876 62.7842171,18.7628903 C62.7842171,20.5275928 64.2533125,22.4171663 66.4402613,22.4171663 C67.4679252,22.4171663 68.4567529,21.6617935 69.825507,20.6164602 C71.1063965,19.6380409 72.8607003,18.298005 74.0212154,18.298005 C75.2107258,18.298005 76.329593,18.7565677 77.0908516,19.5560229 C77.6264739,20.1180301 77.6739208,19.2978509 78.2360782,18.7630659 C78.7984114,18.2279297 79.6628229,18.1805104 79.127552,17.6185032 C77.837876,16.2645928 75.976729,15.4879692 74.0212154,15.4879692 C72.6795236,15.4879692 71.3416978,16.1363849 70.1112426,16.9398796" id="Fill-9" fill="#000000"></path>
                <path d="M52.0331098,19.0846219 C51.1398787,19.0846219 50.6272769,19.9580161 50.6272769,19.9580161 L50.6272769,26.0933781 L50.6272769,27.0523029 L50.6272769,37.5945036 C50.6272769,38.3704247 51.2567386,37.9457581 52.0331098,37.9457581 C52.8094811,37.9457581 53.4389428,38.3704247 53.4389428,37.5945036 L53.4389428,26.8582348 L53.4389428,26.0933781 L53.4389428,19.9580161 C53.4389428,19.9580161 52.9263409,19.0846219 52.0331098,19.0846219" id="Fill-11" fill="#000000"></path>
                <path d="M50.6272769,13.9151043 L50.6272769,9.92555591 C50.6272769,9.14963477 51.2567386,8.52053799 52.0331098,8.52053799 C52.8094811,8.52053799 53.4389428,9.14963477 53.4389428,9.92555591 L53.4389428,13.9151043 C53.4389428,13.9151043 52.2627878,13.0898319 50.6272769,13.9151043" id="Fill-13" fill="#000000"></path>
                <path d="M56.5809618,17.5453018 C56.8807556,17.050033 57.1756291,16.5231513 57.4589044,15.9693986 C57.8122957,15.2788323 58.1335285,16.0424595 58.8246711,16.395119 C59.5159894,16.7481297 60.3159084,16.5563448 59.9630443,17.2472624 C59.7365295,17.6908968 59.1784138,18.7406208 58.392026,19.9294416 C59.1784138,21.1182624 59.7365295,22.1678108 59.9630443,22.6116208 C60.3159084,23.302714 59.5163409,23.1444738 58.8246711,23.4971333 C58.133177,23.8496172 57.8117685,24.5798753 57.4589044,23.889309 C57.1910933,23.3661154 56.8930567,22.836248 56.57692,22.3181477 C55.9838342,22.9843018 55.2712527,23.6033878 54.593114,24.0744201 L54.5393409,20.5731154 C54.5393409,20.5731154 54.7278982,20.1616208 54.9143468,19.9326029 M49.6553016,24.175757 C48.1183748,23.2359756 46.8125317,21.6228394 46.8125317,19.9292659 C46.8125317,17.3670401 49.4157828,14.8524093 52.0680624,14.8524093 C53.3805831,14.8524093 54.6618241,15.6465957 55.8007245,16.7342552 L54.1499252,19.0846746 C53.4601884,18.4051728 52.5448154,17.6624452 52.0680624,17.6624452 C50.9718641,17.6624452 49.6241976,18.9123842 49.6241976,19.9292659 L49.6241976,20.1927068 L49.6553016,24.175757" id="Fill-15" fill="#000000"></path>
                <g id="Group-19" transform="translate(50.609985, 0.138219)">
                    <mask id="mask-2" fill="white">
                        <use xlink:href="#path-1"></use>
                    </mask>
                    <g id="Clip-18"></g>
                    <path d="M1.42312467,9.76473405 C0.646753435,9.76473405 0.0172917449,11.044881 0.0172917449,10.2689599 C0.0172917449,4.62728602 4.60997217,0.0372681004 10.2549185,0.0372681004 C11.0312898,0.0372681004 11.6607515,0.666364875 11.6607515,1.44228602 C11.6607515,2.21820717 11.0312898,2.84730394 10.2549185,2.84730394 C6.16025442,2.84730394 2.82895759,6.17666953 2.82895759,10.2689599 C2.82895759,11.044881 2.1994959,9.76473405 1.42312467,9.76473405" id="Fill-17" fill="#000000" mask="url(#mask-2)"></path>
                </g>
                <g id="Group-22" transform="translate(59.396441, 0.138219)">
                    <mask id="mask-4" fill="white">
                        <use xlink:href="#path-3"></use>
                    </mask>
                    <g id="Clip-21"></g>
                    <path d="M6.50433203,4.81457491 C5.12960316,3.54584373 3.34103223,2.84737419 1.46846278,2.84737419 C0.692091547,2.84737419 0.0626298566,2.21827742 0.0626298566,1.44235627 C0.0626298566,0.666435125 0.692091547,0.0373383513 1.46846278,0.0373383513 C4.04992348,0.0373383513 6.51575442,1.00065376 8.41169585,2.74990108 C8.98211256,3.27625591 8.55860539,3.35423441 8.03194523,3.92432043 C7.75482042,4.22429176 6.77460341,5.06396559 6.50433203,4.81457491" id="Fill-20" fill="#000000" mask="url(#mask-4)"></path>
                </g>
                <path d="M94.9110139,34.3221642 L94.9110139,37.5944509 C94.9110139,38.370372 94.2815522,37.9457054 93.505181,37.9457054 C92.7288098,37.9457054 92.0993481,38.370372 92.0993481,37.5944509" id="Fill-23" fill="#000000"></path>
                <path d="M92.0993481,30.4801427 L92.0993481,22.7802932 C92.0993481,20.1667842 90.3490861,18.2701857 87.9377312,18.2701857 C85.2582136,18.2701857 84.3036531,20.599881 84.3036531,22.7802932 C84.3036531,23.5562143 83.6873711,22.8955047 82.9109999,22.8955047 C82.1346286,22.8955047 81.4919872,23.5562143 81.4919872,22.7802932 C81.4919872,18.4702251 84.1426852,15.4601498 87.9377312,15.4601498 C91.9130752,15.4601498 94.9110139,18.6070387 94.9110139,22.7802932 L94.9110139,26.325329" id="Fill-25" fill="#000000"></path>
                <path d="M86.7914326,38.6481968 C83.1910945,38.6481968 80.2618659,35.7206663 80.2618659,32.1224154 C80.2618659,28.5239889 83.1910945,25.5964584 86.7914326,25.5964584 C88.1668644,25.5964584 89.4166499,25.9224226 90.9370582,27.1281036 L90.9641204,30.7409315 C90.9641204,30.7409315 89.7238243,29.8649029 89.4080391,29.6144584 C88.4113036,28.8241358 87.5064744,28.4064943 86.7914326,28.4064943 C84.7413767,28.4064943 83.0735317,30.0733724 83.0735317,32.1224154 C83.0735317,34.1712828 84.7413767,35.8381609 86.7914326,35.8381609 C88.23329,35.8381609 90.3415122,34.1718097 92.5753807,31.2662326 C94.4528706,28.8244871 95.7834914,26.3609638 95.7966711,26.336376 C96.1642964,25.6528348 96.607661,26.3418204 97.2917744,26.7088814 C97.9758879,27.0761179 98.6411983,26.9826842 98.2737487,27.6664011 C98.2152309,27.7749387 96.8199417,30.3575373 94.8050317,32.9784226 C91.9123547,36.7407093 89.2161429,38.6481968 86.7914326,38.6481968" id="Fill-27" fill="#000000"></path>
                <g id="Group-31" transform="translate(118.617153, 7.338935)">
                    <mask id="mask-6" fill="white">
                        <use xlink:href="#path-5"></use>
                    </mask>
                    <g id="Clip-30"></g>
                    <path d="M7.3803241,12.0261104 C5.9945243,10.7099599 5.43658435,10.5485584 5.3167371,10.5288882 C3.94763156,10.5378452 2.887985,11.7514294 2.887985,12.795709 C2.887985,13.0500172 2.94000082,13.227752 2.94000082,13.227752 L2.72209671,16.5725728 L2.35482286,16.4621032 C0.818950395,15.5221462 0.0763191547,14.4885799 0.0763191547,12.795709 C0.0763191547,10.0910495 2.53230927,7.71885233 5.33202553,7.71885233 C6.17464664,7.71885233 7.5692329,8.36779498 9.56797585,10.2503434 L7.3803241,12.0261104 Z M10.4007561,11.074562 C11.5410624,9.9236767 12.9201845,8.44103154 14.5829333,6.53073405 C18.3883473,2.15814265 19.9846706,0.277877419 20.0182349,0.233794982 C20.488486,-0.383534767 20.6907502,0.612798566 21.3086138,1.08277706 C21.9263016,1.55275556 22.7258691,1.31829319 22.255618,1.93579857 C22.2211751,1.98111039 20.5434892,3.96833262 16.6551311,8.43119642 C15.0461553,10.2780925 13.580223,11.8655871 12.2764887,13.1736588 C13.525747,14.647347 14.9922065,16.5082932 16.7259499,18.8552 C20.6100905,24.1127771 24.6198775,29.4079384 24.6541447,29.4609778 C25.0751916,30.1129061 24.2984689,30.0670674 23.6461625,30.4876946 C23.4105097,30.6396122 22.5606837,31.4011319 22.2918182,30.9847197 C22.2587811,30.9336122 18.382724,25.845691 14.615619,20.7298452 C12.8583278,18.3434222 11.4140102,16.5154939 10.2313533,15.114691 C9.25183917,15.9829921 8.70198277,16.3658595 7.95074081,16.8161677 L7.94142716,13.3749276 C8.24086957,13.1378308 7.98096621,13.3575405 8.36528579,13.0162968 L10.4007561,11.074562 Z" id="Fill-29" fill="#000000" mask="url(#mask-6)"></path>
                </g>
                <path d="M16.6040466,18.4339054 C16.6040466,18.4339054 17.4570357,18.5090738 17.7626287,18.6114645 C18.4985822,18.8580452 18.3114307,18.0046724 18.5581544,17.2687943 C18.8050538,16.5332674 19.3925162,16.1937799 18.656387,15.9470237 C17.5271517,15.5687226 16.0102579,15.6319484 15.0679984,16.2127477 C15.0679984,16.2127477 16.1448664,16.9041921 16.6040466,18.4339054" id="Fill-32" fill="#000000"></path>
                <path d="M3.78466038,25.2336301 C3.70558228,25.0504509 3.01180373,23.3960423 3.01180373,21.7188022 C3.01197946,17.7034366 5.6111888,15.1088953 9.63345252,15.1088953 C13.508631,15.1088953 16.4310062,18.2559599 16.4310062,22.4290387 C16.4310062,23.2049599 15.8015445,23.8340566 15.0251732,23.8340566 C14.248802,23.8340566 13.6193403,23.2049599 13.6193403,22.4290387 C13.6193403,19.3302717 11.5531174,17.9189312 9.63345252,17.9189312 C7.14108648,17.9189312 5.8236453,19.2327986 5.8236453,21.7188022 C5.82346957,22.6455871 6.52005979,24.4808918 6.67136256,24.8351319 L3.78466038,25.2336301 Z" id="Fill-34" fill="#000000"></path>
                <path d="M9.80904105,29.0391211 C9.03266982,29.0391211 8.40320813,28.4100244 8.40320813,27.6341032 C8.40320813,26.8581821 9.03266982,26.2290853 9.80904105,26.2290853 C12.4411117,26.2290853 13.6191997,23.9638452 13.6191997,21.7188022 L16.4310413,21.7188022 C16.4308656,25.9605513 13.6459106,29.0391211 9.80904105,29.0391211" id="Fill-36" fill="#000000"></path>
                <path d="M5.34726125,35.6494846 C3.81859367,36.682524 2.81166584,38.4310688 2.81166584,40.4098609 C2.81166584,43.4689362 5.65443574,46.1525204 8.89505635,46.1525204 L11.9348186,46.1525204 C12.7111898,46.1525204 13.3406515,46.7816172 13.3406515,47.5575384 C13.3406515,48.3334595 12.7111898,48.9625563 11.9348186,48.9625563 L8.89505635,48.9625563 C4.07340089,48.9625563 0,45.0458932 0,40.4098609 C0,37.8832875 1.10199728,35.6090903 2.85102916,34.0419685 L5.34726125,35.6494846 Z" id="Fill-38" fill="#000000"></path>
                <path d="M12.2162136,34.5569602 L7.28543038,34.5569602 C6.50905914,34.5569602 5.87959745,33.9278634 5.87959745,33.1519423 C5.87959745,32.3760211 6.50905914,31.7469244 7.28543038,31.7469244 L12.2162136,31.7469244 C12.9925848,31.7469244 13.6220465,32.3760211 13.6220465,33.1519423 C13.6220465,33.9278634 12.9925848,34.5569602 12.2162136,34.5569602" id="Fill-40" fill="#000000"></path>
                <path d="M18.8841495,41.8149667 C18.1077782,41.8149667 17.4783165,41.1858699 17.4783165,40.4099487 C17.4783165,37.2920384 14.8947471,34.5569953 11.9493514,34.5569953 C11.1729802,34.5569953 10.5435185,33.9278986 10.5435185,33.1519774 C10.5435185,32.3760563 11.1729802,31.7469595 11.9493514,31.7469595 C16.4705101,31.7469595 20.2899824,35.7142032 20.2899824,40.4099487 C20.2899824,41.1858699 19.6605207,41.8149667 18.8841495,41.8149667" id="Fill-42" fill="#000000"></path>
                <path d="M11.3948909,48.9625211 C10.6185196,48.9625211 9.98905796,48.3334244 9.98905796,47.5575032 C9.98905796,46.7815821 10.6185196,46.1524853 11.3948909,46.1524853 C14.6355115,46.1524853 17.4782814,43.4690767 17.4782814,40.4100014 C17.4782814,39.6340803 18.1077431,39.0049835 18.8841143,39.0049835 C19.6604855,39.0049835 20.2899472,39.6340803 20.2899472,40.4100014 C20.2899472,45.0458581 16.2163706,48.9625211 11.3948909,48.9625211" id="Fill-44" fill="#000000"></path>
                <path d="M6.70048087,34.5569602 C4.40247123,34.5569602 2.53271345,32.6882864 2.53271345,30.391609 C2.53271345,28.0949315 4.40247123,26.2262577 6.70048087,26.2262577 L10.5041376,26.2262577 C11.2803331,26.2262577 11.9099705,26.8553545 11.9099705,27.6312756 C11.9099705,28.4071968 11.2803331,29.0362935 10.5041376,29.0362935 L6.70048087,29.0362935 C5.95275348,29.0362935 5.34437929,29.6443151 5.34437929,30.391609 C5.34437929,31.1389029 5.95275348,31.7469244 6.70048087,31.7469244 C7.4768521,31.7469244 8.10631379,32.3760211 8.10631379,33.1519423 C8.10631379,33.9278634 7.4768521,34.5569602 6.70048087,34.5569602" id="Fill-46" fill="#000000"></path>
                <path d="M28.0735345,36.6416907 C23.8307307,36.6416907 20.7512537,33.228024 20.7512537,28.5249022 C20.7512537,27.7570599 21.3763222,27.1321781 22.1447856,27.1321781 C22.913249,27.1321781 23.5383175,27.7570599 23.5383175,28.5249022 C23.5383175,31.1786297 24.9406358,33.856067 28.0735345,33.856067 C31.0148884,33.856067 33.4077918,31.4643753 33.4077918,28.5249022 L33.3647382,27.272153 C33.8472903,27.2438771 35.3256994,26.4800742 35.5908746,26.4047301 C35.7479764,26.3601208 36.0546237,26.0007875 36.0953929,26.1049344 C36.220512,26.4247516 36.1938012,27.397024 36.1938012,28.6729559 C36.1075182,33.0701351 32.4725614,36.6416907 28.0735345,36.6416907" id="Fill-48" fill="#000000"></path>
                <path d="M22.1448208,29.5184957 C21.3763573,29.5184957 20.7512889,28.893614 20.7512889,28.1255961 L20.7514646,23.600209 C20.7514646,18.9729581 24.0709876,15.4835961 28.4731777,15.4835961 C32.8755435,15.4835961 36.7211994,19.469105 36.1962965,23.3139366 C36.0924406,24.0749294 35.569998,24.9931086 34.8015346,24.9931086 C34.0332469,24.9931086 33.4081784,24.3682269 33.4081784,23.600209 C33.4081784,20.5112771 31.3326418,18.2692197 28.4731777,18.2692197 C25.6138892,18.2692197 23.5387041,20.5112771 23.5387041,23.600209 L23.5383526,28.1255961 C23.5383526,28.893614 22.9132842,29.5184957 22.1448208,29.5184957" id="Fill-50" fill="#000000"></path>
                <path d="M30.7312792,20.1906871 C30.5609977,20.0905796 30.4077619,20.4040742 30.2740321,20.5393072 C28.8522078,21.9798018 29.1430395,24.1756692 30.3065419,25.3230419 C31.5000941,26.4997444 33.9156665,26.4834111 35.0930516,25.2905509 C35.6887733,24.6870957 36.1470748,23.7076226 36.0035041,22.7186656 L33.410621,22.91449 C33.5701831,23.2135832 33.1001077,23.590128 33.0572298,23.6491387 C32.7855526,23.9245222 32.3595852,23.9213609 32.0199008,23.5866154 C31.7076302,23.2787409 31.7178225,22.6640455 32.1581996,22.2177767 C32.1581996,22.2177767 31.890037,20.8719452 30.7312792,20.1906871" id="Fill-52" fill="#000000"></path>
                <path d="M36.4798882,20.4258344 C36.4798882,20.4258344 39.3029764,19.6344581 39.5611225,19.2601964 C39.8190928,18.8859348 38.9415016,17.1342287 38.7065518,16.7968487 C38.4717777,16.4592932 35.2608553,18.0162287 35.2608553,18.0162287 C36.0723724,19.0845692 36.4798882,20.4258344 36.4798882,20.4258344" id="Fill-54" fill="#000000"></path>
            </g>
        </g>
    </g>
</svg>