<?xml version="1.0" encoding="UTF-8"?>
<svg width="285px" height="172px" viewBox="0 0 285 172" version="1.1" xmlns="http://www.w3.org/2000/svg" xmlns:xlink="http://www.w3.org/1999/xlink">
    <!-- Generator: Sketch 41.2 (35397) - http://www.bohemiancoding.com/sketch -->
    <title>Page 1</title>
    <desc>Created with Sketch.</desc>
    <defs>
        <polygon id="path-1" points="48.7387104 91.3961524 48.7387104 0.255536154 0.176266283 0.255536154 0.176266283 91.3961524 48.7387104 91.3961524"></polygon>
    </defs>
    <g id="Desktop-app" stroke="none" stroke-width="1" fill="none" fill-rule="evenodd">
        <g id="Desktop-Home-overlay" transform="translate(-486.000000, -136.000000)">
            <g id="Page-1" transform="translate(486.000000, 136.000000)">
                <path d="M229.779206,171.767955 C227.724246,171.767955 223.968066,172.699457 223.968066,170.651709 L223.968066,115.798873 C224.041939,115.474334 224.612682,113.321472 226.721272,113.321472 C228.619606,113.321472 230.693745,115.96769 231.420759,117.117204 L231.420759,167.015946 C231.420759,169.063695 231.833811,171.767955 229.779206,171.767955" id="Fill-1" fill="#000000"></path>
                <path d="M231.420759,97.2375151 C230.643667,96.8885555 229.259961,96.4019232 227.57792,96.4019232 C226.313902,96.4019232 225.103159,96.6769147 223.968066,97.2215889 L223.968066,51.2151973 C223.968066,49.1678026 225.639452,50.6181437 227.694412,50.6181437 C229.749017,50.6181437 231.420759,49.1678026 231.420759,51.2151973 L231.420759,97.2375151 Z" id="Fill-3" fill="#000000"></path>
                <path d="M63.3397242,165.51949 C61.2851192,165.51949 59.6133775,168.528116 59.6133775,166.480721 L59.6133775,127.064569 C59.6133775,127.064569 60.4696701,127.304169 62.2998135,125.837194 C64.1299569,124.369511 67.0660708,122.015273 67.0660708,122.015273 L67.0660708,164.260263 C67.0660708,166.308365 65.3946843,165.51949 63.3397242,165.51949" id="Fill-5" fill="#000000"></path>
                <path d="M166.160325,167.077527 C164.10572,167.077527 162.434334,166.969937 162.434334,164.922189 L162.434334,127.005218 L169.886672,121.513882 L169.886672,165.961281 C169.886672,168.008676 168.215286,167.077527 166.160325,167.077527 M199.865081,171.767955 C197.810476,171.767955 196.138734,171.141172 196.138734,169.093424 L196.138734,123.092695 C196.138734,117.044298 190.405374,110.013081 183.012348,110.013081 C179.421673,110.013081 174.151087,114.02647 170.301855,116.957235 L170.067804,117.136316 C170.021988,117.16569 163.684145,121.319583 161.860749,122.045462 C161.41005,122.144204 160.961837,122.194106 160.528186,122.194106 C154.306125,122.194106 150.126593,116.834781 150.126593,111.829369 C150.126593,106.695488 155.375869,101.464987 160.528186,101.464987 C162.896753,101.464987 165.903899,103.061141 167.831357,105.306727 L162.265633,109.898059 C162.005655,109.36294 161.44308,109.027075 160.585367,108.895773 L160.545589,108.890111 L160.506166,108.891526 C159.419019,108.921609 157.579286,109.574227 157.579286,111.830785 C157.579286,113.63858 158.427055,114.567251 160.245478,114.752702 L160.354868,114.764027 L160.456444,114.72262 C160.850317,114.56442 161.434201,114.218292 162.242192,113.664416 L169.817061,108.058058 C173.421942,105.513767 178.1882,102.586188 183.012348,102.586188 C192.726705,102.586188 203.591783,111.356186 203.591783,123.092695 L203.591783,170.651709 C203.591783,172.699457 201.920041,171.767955 199.865081,171.767955" id="Fill-7" fill="#000000"></path>
                <path d="M57.7719401,122.194 C51.5505891,122.194 47.3710573,116.834674 47.3710573,111.829263 C47.3710573,106.695381 52.6199781,101.465235 57.7719401,101.465235 C60.2591308,101.465235 62.8770207,102.815772 64.6982851,105.016412 L58.818954,109.514309 C58.4925612,109.101999 57.9644372,108.893544 57.2399092,108.893544 L57.031785,108.895667 L56.9983999,108.890358 L56.9369571,108.891066 C55.4108314,108.891066 54.3027298,110.127643 54.3027298,111.831033 C54.3027298,113.689437 55.480798,114.755073 57.5346927,114.755073 L57.6206416,114.755073 L57.7005527,114.722867 C58.1263905,114.551219 58.7816621,114.155896 59.7043697,113.513896 L67.0615248,108.059013 C67.7047209,107.604587 68.3099148,107.193339 68.9019678,106.807926 C73.3247847,103.928125 76.9325076,102.586435 80.2564571,102.586435 C85.9354776,102.586435 91.3388933,104.83273 95.0805119,108.7495 C96.496893,110.232402 94.552743,110.418207 93.0649746,111.829617 C92.3692147,112.489314 90.3927451,114.613154 89.6820684,113.86958 C87.3404935,111.419077 83.9057339,110.012975 80.2564571,110.012975 C76.6650716,110.012975 71.3937756,114.027425 67.5445434,116.958544 C63.551471,119.999377 60.6689863,122.194 57.7719401,122.194" id="Fill-9" fill="#000000"></path>
                <path d="M15.0406318,169.697343 C12.9856716,169.697343 11.3142851,171.644226 11.3142851,169.596831 L11.3142851,115.492525 C11.610134,115.050132 12.9590346,113.222518 15.0406318,113.222518 C17.1229393,113.222518 18.4711295,115.050132 18.7669784,115.492525 L18.7669784,168.581097 C18.7669784,170.628492 17.0955919,169.697343 15.0406318,169.697343" id="Fill-11" fill="#000000"></path>
                <path d="M11.3143917,59.7260594 C11.3143917,57.6786648 12.9857782,56.0131437 15.0407383,56.0131437 C17.0953433,56.0131437 18.767085,57.6786648 18.767085,59.7260594 L18.767085,96.7440877 C18.0475293,96.4053916 16.805177,95.9668917 15.1891955,95.9668917 C13.899962,95.9668917 12.5997185,96.2461301 11.3143917,96.7989444 L11.3143917,59.7260594 Z" id="Fill-13" fill="#000000"></path>
                <path d="M24.1556905,115.290263 L23.9301634,115.56667 C23.5021947,116.091525 23.0550473,116.993299 22.9190207,117.2782 L23.0639263,126.68666 C24.90579,125.335061 26.7025483,123.710594 28.1860547,122.049673 L28.5838348,121.604095 L28.8953108,122.11267 C29.8492725,123.670955 30.7346883,125.244459 31.5284726,126.788587 C32.1681171,128.037551 33.0112687,126.078989 34.4205466,126.078989 C35.0115341,126.078989 35.5801465,125.942732 36.1104015,125.672695 C37.9405449,124.742608 39.0997896,125.235965 38.1657168,123.411536 C37.5562609,122.220968 35.8841641,119.06936 33.5312241,115.522785 L33.3692708,115.279291 L33.5312241,115.035798 C35.8841641,111.488868 37.5562609,108.336907 38.1657168,107.145985 C39.0990792,105.324034 37.3282477,105.691751 35.4991698,104.760248 C34.9682045,104.489858 34.3995921,104.353247 33.8082495,104.353247 C32.3993268,104.353247 32.1688274,102.521032 31.5277623,103.769642 C30.7062754,105.370751 29.8247665,106.948147 28.9084517,108.457238 L28.597686,108.969706 L24.1556905,115.290263 Z" id="Fill-15" fill="#000000"></path>
                <path d="M21.5838649,112.317594 C19.5651312,110.195878 17.0999604,108.133265 15.1444453,108.133265 C11.6223161,108.133265 7.4527288,112.006858 7.4527288,115.278796 L7.4527288,116.057054 L7.5386777,127.026276 C2.93472883,123.973764 3.55160755e-05,119.432689 3.55160755e-05,115.278796 C3.55160755e-05,107.924809 7.50138582,100.706725 15.1444453,100.706725 C18.5390718,100.706725 22.187283,102.569023 26.0162711,106.249732" id="Fill-17" fill="#000000"></path>
                <path d="M15.0406318,64.4112488 C12.8464486,64.4112488 11.3142851,63.0702672 11.3142851,61.1502817 C11.3142851,44.7098971 24.7368755,31.3344111 41.2351581,31.3344111 C43.2901182,31.3344111 44.9618599,32.9999321 44.9618599,35.0476807 C44.9618599,37.0950754 43.2901182,38.7605964 41.2351581,38.7605964 C28.8464406,38.7605964 18.7669784,48.8050404 18.7669784,61.1502817 C18.7669784,63.0702672 17.2348149,64.4112488 15.0406318,64.4112488" id="Fill-19" fill="#000000"></path>
                <path d="M56.4725134,44.6957405 C52.3132258,40.8688644 46.9019965,38.7605964 41.2354067,38.7605964 C39.1804466,38.7605964 37.5090601,37.0950754 37.5090601,35.0476807 C37.5090601,32.9999321 39.1804466,31.3344111 41.2354067,31.3344111 C48.7804418,31.3344111 55.9873638,34.1420138 61.5278716,39.2390887 C62.2591476,39.911526 62.6835647,40.8281642 62.7233427,41.8194784 C62.7631207,42.8104387 60.8498697,41.68039 60.1743539,42.4087458 C59.4707805,43.1682461 57.1625907,45.3313708 56.4725134,44.6957405" id="Fill-21" fill="#000000"></path>
                <path d="M137.002977,168.6356 C135.006618,168.6356 133.371813,169.660182 133.280892,167.693126 L140.729324,159.268902 L140.729324,167.519354 C140.729324,169.566749 139.057582,168.6356 137.002977,168.6356" id="Fill-23" fill="#000000"></path>
                <path d="M133.276559,123.709886 C133.276559,115.725577 127.89907,109.93023 120.490417,109.93023 C112.216237,109.93023 109.268048,117.048509 109.268048,123.709886 C109.268048,125.757634 107.619391,124.291013 105.564431,124.291013 C103.509471,124.291013 101.815354,125.757634 101.815354,123.709886 C101.815354,111.22414 109.49464,102.50369 120.490417,102.50369 C132.028524,102.50369 140.729253,111.620171 140.729253,123.709886 L140.729253,134.388898 L133.276559,145.3698 L133.276559,123.709886 Z" id="Fill-25" fill="#000000"></path>
                <path d="M117.090215,170.524759 C106.655947,170.524759 98.1668943,162.065498 98.1668943,151.667848 C98.1668943,141.269843 106.655947,132.810582 117.090215,132.810582 C121.581577,132.810582 125.030188,134.059192 128.94406,137.114181 L129.016513,146.722956 C127.902018,145.934081 125.792718,144.432422 125.126082,143.905443 C122.090523,141.50555 119.311745,140.237121 117.090215,140.237121 C110.765512,140.237121 105.619588,145.364632 105.619588,151.667848 C105.619588,157.970355 110.765512,163.09822 117.090215,163.09822 C121.505573,163.09822 127.886391,158.10732 134.596798,149.405273 C140.154354,142.198514 144.149912,134.840281 144.190046,134.766666 C144.841055,133.559818 146.791243,136.045005 147.332508,136.334861 C149.142762,137.304233 151.727977,136.477489 150.755902,138.28139 C150.581874,138.602744 146.424007,146.256497 140.506673,153.929714 C132.015135,164.941406 124.136959,170.524759 117.090215,170.524759" id="Fill-27" fill="#000000"></path>
                <g id="Group-31" transform="translate(235.826741, 78.545987)">
                    <mask id="mask-2" fill="white">
                        <use xlink:href="#path-1"></use>
                    </mask>
                    <g id="Clip-30"></g>
                    <path d="M7.02056919,32.8840605 L7.34163451,32.5609367 C11.0246515,28.8543914 15.2048936,24.3264109 19.7655129,19.1029886 C30.7886372,6.47390796 35.767991,0.637859882 35.9047279,0.458071379 C36.6154046,-0.471661691 38.2150486,2.07298268 38.8692547,2.56987847 C40.5044148,3.80999445 43.0793303,3.32760915 41.834847,4.95703094 C41.6682766,5.16725608 36.6658374,11.0705479 25.242802,24.1430833 C20.4928821,29.5792081 16.1300874,34.2901624 12.276238,38.1457056 L11.9882027,38.433438 L12.2520871,38.743467 C16.1045158,43.2739249 20.5386978,48.9195671 25.4303269,55.5218398 C34.4784023,67.7333015 43.4302291,78.2824273 46.9562651,82.9498501 C47.8697386,84.1591755 48.4735118,84.9576064 48.5218137,85.025204 C49.0541997,85.847701 48.5260756,89.853304 47.8114922,89.853304 C46.5378857,89.853304 44.5067214,92.1820606 43.8173544,91.1174861 C43.7924931,91.0789094 43.6788417,90.9281419 42.5995081,89.5064679 C39.506058,85.4322055 28.9435771,72.8066641 19.8852021,60.5414074 C15.093018,54.0530951 10.7124652,48.4587705 6.86358814,43.9127404 L6.57022535,43.566966 L6.22998135,43.8674393 C3.6394388,46.1576193 2.06003893,47.3004088 0.201482696,48.4453218 L0.176266283,39.2661985 C0.332537015,39.144452 0.409962059,39.0860561 0.456843279,39.0506647 C0.541726699,38.9862522 0.542437021,38.9866062 0.665677803,38.8747692 C0.756598956,38.7923072 0.924945154,38.6404779 1.28401268,38.3223089 L1.62638764,38.0197121 L7.02056919,32.8840605 Z" id="Fill-29" fill="#000000" mask="url(#mask-2)"></path>
                </g>
                <path d="M235.283842,114.340144 C230.400737,109.50709 228.384845,108.833944 227.846776,108.746528 L227.809129,108.740511 L227.771837,108.740511 C224.236922,108.763515 220.127712,111.889995 220.127712,115.885688 C220.127712,116.526627 220.231775,117.018922 220.278301,117.206143 L219.672751,126.471621 L219.17304,126.321562 C214.558437,123.493432 212.675019,120.466756 212.675019,115.885688 C212.675019,108.123284 219.752308,101.313618 227.819784,101.313618 C230.09743,101.313618 233.566995,102.239812 240.4493,108.986835 L235.283842,114.340144 Z" id="Fill-32" fill="#000000"></path>
                <path d="M151.34277,12.5614122 C151.34277,12.5614122 153.114312,13.2887063 153.698551,13.7098644 C155.106053,14.7245369 155.27582,12.7829626 156.294066,11.3807538 C157.312667,9.97819117 158.794043,9.64621949 157.386896,8.63154697 C155.227874,7.07432371 151.946188,6.20015519 149.546012,6.81030358 C149.546012,6.81030358 151.383614,8.99891009 151.34277,12.5614122" id="Fill-34" fill="#000000"></path>
                <path d="M119.42426,18.515066 C119.377734,18.0723192 119.000553,14.0879511 120.12073,10.5166011 C122.802549,1.96638367 130.086541,-1.82970194 138.676814,0.845182925 C146.95277,3.42238742 151.092524,12.0674539 148.305222,20.9542439 C147.787043,22.6063162 146.022604,23.5272015 144.364358,23.0108404 C142.706468,22.4944793 141.78234,20.7362327 142.300519,19.0838064 C144.370041,12.4854268 140.899765,8.10573638 136.800145,6.8288133 C131.477351,5.17143227 127.786165,7.09318734 126.125788,12.3870386 C125.506388,14.3601113 125.768852,18.7313077 125.855156,19.5863649 L119.42426,18.515066 Z" id="Fill-36" fill="#000000"></path>
                <path d="M129.748712,30.6252374 C128.090822,30.1088763 127.166338,28.3502758 127.684518,26.6982035 C128.202697,25.0457773 129.967491,24.125246 131.625382,24.641607 C137.246511,26.3920676 141.275454,22.351781 142.774588,17.5714595 L148.779646,19.4415431 C145.946173,28.4737919 137.942981,33.1769601 129.748712,30.6252374" id="Fill-38" fill="#000000"></path>
                <path d="M131.204729,43.9758079 L120.674568,40.6960834 C119.016322,40.1797223 118.092194,38.4218296 118.610374,36.7697573 C119.128553,35.117331 120.892992,34.1964458 122.550882,34.7128069 L133.081399,37.9921775 C134.739289,38.5085386 135.663417,40.2667852 135.145238,41.9188576 C134.627058,43.5709299 132.86262,44.492169 131.204729,43.9758079" id="Fill-40" fill="#000000"></path>
                <path d="M140.597914,63.8655128 C138.940024,63.3491517 138.01554,61.5909051 138.53372,59.9388328 C140.616027,53.299753 136.925197,45.7571298 130.634945,43.7982137 C128.976699,43.2818526 128.052571,41.523606 128.57075,39.8715337 C129.08893,38.2191074 130.853369,37.2982222 132.511259,37.8145833 C142.166659,40.8217938 147.674492,51.8097734 144.538423,61.8085624 C144.020243,63.4609887 142.255805,64.3818739 140.597914,63.8655128" id="Fill-42" fill="#000000"></path>
                <path d="M119.830209,74.1045035 C118.172318,73.5881424 119.348256,72.5908117 119.866435,70.9387394 C120.384615,69.2863131 120.048988,67.604512 121.706878,68.1208731 C128.627896,70.2762116 136.491155,66.4528746 138.53404,59.9390805 C139.052219,58.2866543 140.816658,57.3654152 142.474548,57.8817762 C144.132794,58.3981373 145.056567,60.1567379 144.538387,61.8088102 C141.442806,71.6805439 130.127384,77.3113216 119.830209,74.1045035" id="Fill-44" fill="#000000"></path>
                <path d="M119.425112,40.3074146 C114.517146,38.7788584 111.772108,33.5564979 113.306048,28.6657551 C114.839632,23.7750123 120.080739,21.039962 124.98835,22.5681643 L133.111587,25.0975903 C134.769478,25.6139514 135.693961,27.3725519 135.175782,29.0246243 C134.657602,30.6770505 132.892808,31.5979357 131.234918,31.0815746 L123.111681,28.5517947 C121.514878,28.054545 119.809751,28.9446396 119.310751,30.5358387 C118.811395,32.1270377 119.704979,33.8265345 121.301782,34.3237842 C122.959672,34.8401453 123.8838,36.5983919 123.365621,38.2504642 C122.847441,39.9025366 121.083003,40.8237757 119.425112,40.3074146" id="Fill-46" fill="#000000"></path>
                <path d="M163.678,58.9611797 C154.616784,56.1394204 150.320049,46.8222705 153.460736,36.8075553 C153.973588,35.1724709 155.725596,34.2576022 157.366794,34.7690085 C159.008347,35.2800609 159.926082,37.0259205 159.41323,38.6613588 C157.640978,44.3116019 158.847459,50.9460808 165.538332,53.0295747 C171.820061,54.9860134 178.527627,51.4847385 180.4906,45.2250549 L181.235727,42.5292891 C182.284872,42.7897701 185.952262,42.1463537 186.569176,42.1626338 C186.934282,42.1721895 187.829287,41.6112352 187.84669,41.8596831 C187.900319,42.6241381 187.193904,44.6768415 186.342229,47.3934883 C183.221076,56.6993129 173.072713,61.8873438 163.678,58.9611797" id="Fill-48" fill="#000000"></path>
                <path d="M155.773614,39.8501572 C154.132416,39.3391049 153.21468,37.5928913 153.727533,35.957453 L156.750306,26.3210723 C159.840204,16.4680961 169.260133,11.2457355 178.661238,14.1733152 C188.063409,17.1016028 193.614571,28.1462088 189.925872,35.9836427 C189.196016,37.5352033 187.467094,39.1430363 185.825896,38.6319839 C184.185053,38.1209316 183.267318,36.3743641 183.78017,34.7389258 C185.843299,28.1614271 182.907895,22.0068561 176.801261,20.1052741 C170.694982,18.2033383 164.765218,21.5973771 162.7028,28.1748758 L159.679672,37.8109026 C159.167175,39.4463409 157.414456,40.3612096 155.773614,39.8501572" id="Fill-50" fill="#000000"></path>
                <path d="M180.340367,25.6984308 C180.043453,25.3721217 179.506805,25.9376769 179.1314,26.1365768 C175.132645,28.2582935 174.287007,33.1278014 176.005985,36.3448831 C177.769003,39.6440729 182.938368,41.2161606 186.249887,39.4593296 C187.924825,38.5702967 189.557854,36.7897534 189.911949,34.5876982 L184.243229,33.2803385 C184.384583,34.0232048 183.129089,34.5126683 182.998035,34.6103487 C182.234084,35.0152268 181.326293,34.7257248 180.824451,33.7867899 C180.363097,32.9235928 180.795328,31.6211879 182.034129,30.9643228 C182.034129,30.9643228 182.360166,27.9195974 180.340367,25.6984308" id="Fill-52" fill="#000000"></path>
                <path d="M192.460263,30.0224505 C192.460263,30.0224505 199.018307,30.2153338 199.819194,29.5896132 C200.620437,28.9646004 199.915798,24.6503841 199.639483,23.7758617 C199.363523,22.9009854 191.466168,24.0809359 191.466168,24.0809359 C192.48548,26.895263 192.460263,30.0224505 192.460263,30.0224505" id="Fill-54" fill="#000000"></path>
                <path d="M103.790936,62.5977915 C98.6780417,61.1948749 109.05868,70.7498553 114.491574,72.441566 L120.983203,74.4634788 C122.641448,74.9798399 124.405887,74.0589547 124.924066,72.4068824 C125.442246,70.7544561 124.517762,68.9962095 122.859872,68.4798484 L116.368244,66.4582895 C112.722519,65.3229322 109.8102,62.6756527 108.168292,59.4723736 C108.168292,59.4723736 105.338371,63.0221348 103.790936,62.5977915" id="Fill-56" fill="#000000"></path>
            </g>
        </g>
    </g>
</svg>