<?xml version="1.0" encoding="UTF-8"?>
<svg width="46px" height="41px" viewBox="0 0 46 41" version="1.1" xmlns="http://www.w3.org/2000/svg" xmlns:xlink="http://www.w3.org/1999/xlink">
    <!-- Generator: Sketch 41.2 (35397) - http://www.bohemiancoding.com/sketch -->
    <title>Page 1</title>
    <desc>Created with Sketch.</desc>
    <defs>
        <polygon id="path-1" points="18.8582278 12.3892215 18.8582278 0.00358860759 0.000493670886 0.00358860759 0.000493670886 12.3892215 18.8582278 12.3892215"></polygon>
        <polygon id="path-3" points="5.17981889e-05 36.835443 21.9191175 36.835443 21.9191175 0.150275211 5.17981889e-05 0.150275211"></polygon>
    </defs>
    <g id="Sketches-2" stroke="none" stroke-width="1" fill="none" fill-rule="evenodd">
        <g id="Mobile-Portrait-Copy-2" transform="translate(-17.000000, -19.000000)">
            <g id="Group" transform="translate(10.000000, 10.000000)">
                <g id="Page-1" transform="translate(7.384615, 9.230769)">
                    <path d="M27.5322342,18.1643544 C26.5671076,18.1643544 26.0132468,19.1087848 26.0132468,19.1087848 L26.0132468,25.7416329 L26.0132468,27.7278987 L26.0132468,39.3151139 C26.0132468,40.1539747 26.6933734,39.6948608 27.5322342,39.6948608 C28.3710949,39.6948608 29.0512215,40.1539747 29.0512215,39.3151139 L29.0512215,26.5687215 L29.0512215,25.7416329 L29.0512215,19.1087848 C29.0512215,19.1087848 28.4973608,18.1643544 27.5322342,18.1643544" id="Fill-1" fill="#FFFFFF"></path>
                    <path d="M34.4028987,19.0779304 C35.2527722,17.7924873 35.8556203,16.6578038 36.1003671,16.1781835 C36.4816329,15.4312215 35.6173291,15.6383734 34.8703671,15.2567278 C34.1235949,14.875462 33.7765063,14.0500823 33.3946709,14.7966646 C33.0885949,15.3953354 32.7699873,15.9649557 32.4460633,16.5003987 L30.6453038,19.0813481 C30.4438481,19.3287532 30.2401139,19.7736266 30.2401139,19.7736266 L30.2982152,23.558943 C31.0309367,23.0497025 31.8008734,22.3803987 32.4416962,21.6603987 C32.7834684,22.2205253 33.1053038,22.7931835 33.3946709,23.3590063 C33.7759367,24.1055886 34.1230253,23.3157152 34.8703671,22.9346392 C35.617519,22.5535633 36.4816329,22.7248291 36.1003671,21.9774873 C35.8556203,21.4978671 35.2527722,20.3631835 34.4028987,19.0779304" id="Fill-3" fill="#FFFFFF"></path>
                    <path d="M27.570057,13.5890506 C24.7041076,13.5890506 21.8915127,16.3076582 21.8915127,19.0777215 C21.8915127,20.908481 23.302462,22.6524684 24.9630949,23.668481 L24.9294873,19.3623418 L24.9294873,19.0777215 C24.9294873,17.9783544 26.3856266,16.6270253 27.570057,16.6270253 C28.0849937,16.6270253 29.0740443,17.43 29.8194873,18.1644304 L31.6031582,15.6233544 C30.3723987,14.4474684 28.9880316,13.5890506 27.570057,13.5890506" id="Fill-5" fill="#FFFFFF"></path>
                    <g id="Group-9" transform="translate(26.012658, 0.186456)">
                        <mask id="mask-2" fill="white">
                            <use xlink:href="#path-1"></use>
                        </mask>
                        <g id="Clip-8"></g>
                        <path d="M18.5642278,2.93618354 C16.5158734,1.0450443 13.8515696,0.00358860759 11.0621392,0.00358860759 C5.2474557,0.00358860759 0.469670886,4.51460127 0.036,10.2202975 C0.0134050633,10.3247278 0.000493670886,10.4329557 0.000493670886,10.5444114 L0.000493670886,12.3892215 C1.76783544,11.4968165 3.03846835,12.3892215 3.03846835,12.3892215 L3.03846835,11.0652342 C3.03846835,6.64099367 6.63789873,3.04156329 11.0621392,3.04156329 C13.0856203,3.04156329 15.017962,3.79668987 16.5033418,5.16833544 C16.795557,5.4379557 17.854481,4.52998101 18.1539114,4.20567722 C18.722962,3.58915823 19.180557,3.50523418 18.5642278,2.93618354" id="Fill-7" fill="#FFFFFF" mask="url(#mask-2)"></path>
                    </g>
                    <path d="M18.9826329,7.87856962 C18.9826329,7.87856962 19.8999114,8.00046835 20.2247848,8.12578481 C21.0076329,8.4273038 20.8462405,7.4965443 21.1477595,6.71388608 C21.4494684,5.93103797 22.0997848,5.59249367 21.3169367,5.29078481 C20.1163671,4.82825316 18.4758608,4.82388608 17.4309873,5.40622785 C17.4309873,5.40622785 18.5601646,6.20464557 18.9826329,7.87856962" id="Fill-10" fill="#FFFFFF"></path>
                    <g id="Group-14" transform="translate(0.000000, 3.794051)">
                        <mask id="mask-4" fill="white">
                            <use xlink:href="#path-3"></use>
                        </mask>
                        <g id="Clip-13"></g>
                        <path d="M13.8152658,18.2784684 C13.7480506,18.2663165 13.6796962,18.2568228 13.609443,18.2535949 L8.28710127,18.017962 C8.17868354,18.0132152 8.07273418,18.0204304 7.96982278,18.0373291 C7.869,18.0113165 7.764,17.9947975 7.65558228,17.9898608 C6.84862025,17.9541646 6.22089873,17.2685316 6.25659494,16.4613797 C6.29248101,15.6542278 6.97811392,15.0266962 7.78526582,15.0625823 L11.082038,15.2084051 C11.1015949,15.2101139 11.1207722,15.212962 11.1407089,15.2139114 C11.1802025,15.2158101 11.2191266,15.2150506 11.2586203,15.2161899 L11.8908987,15.2442911 C12.1024177,15.2535949 12.3053924,15.2192278 12.4916582,15.1491646 C15.589443,14.7135949 17.9241266,12.2860633 18.5074177,8.86150633 C18.5630506,8.71473418 18.5974177,8.55694937 18.6048228,8.39156962 C18.6103291,8.26663291 18.6124177,8.14264557 18.6131772,8.01941772 C18.624,7.88878481 18.6329241,7.75739241 18.6388101,7.62448101 L18.6065316,7.62296203 C18.4533038,3.48808861 15.5596329,0.334670886 11.6176709,0.159987342 C7.27583544,-0.0323544304 4.34589873,2.64581013 4.15355696,6.98270886 C4.07343038,8.79429114 4.74311392,10.6142278 4.81982278,10.8156835 L7.95482278,10.5234684 C7.80862025,10.1336582 7.14425316,8.11796203 7.18887342,7.11713924 C7.30773418,4.43194937 8.79273418,3.07606329 11.4832405,3.19511392 C13.4734937,3.28321519 15.5461519,4.7853038 15.5755823,7.86960759 C15.3502025,10.1258734 14.0043797,12.2376456 11.3845063,12.1808734 L7.9196962,12.0274557 C5.43918987,11.917519 3.33159494,13.8462532 3.22165823,16.3269494 C3.11172152,18.8074557 5.04064557,20.9150506 7.5211519,21.0249873 C7.62956962,21.0297342 7.73551899,21.022519 7.83843038,21.0054304 C7.93944304,21.0316329 8.04425316,21.0481519 8.15267089,21.0528987 L13.1869747,21.276 C16.3662152,21.4166962 19.0242532,24.4943544 18.8750127,27.8619494 C18.7286203,31.1657468 15.5319114,33.9282152 12.0336835,33.7730886 L9.33520253,33.6538481 C5.83716456,33.4987215 2.89697468,30.4645443 3.04336709,27.160557 C3.13811392,25.022962 4.30849367,23.1828987 6.00805063,22.1403038 L3.3904557,20.284481 C1.42773418,21.8934684 0.129189873,24.2970759 0.00843037975,27.0261266 C-0.213341772,32.0330886 3.99634177,36.4580886 9.20077215,36.6887848 L12.4819747,36.8342278 C12.6107089,36.8397342 12.7358354,36.8273924 12.8564051,36.8027089 C17.6539367,36.5357468 21.702038,32.6938481 21.9099494,27.9963797 C22.1269747,23.0968861 18.4637468,18.7624557 13.8152658,18.2784684" id="Fill-12" fill="#FFFFFF" mask="url(#mask-4)"></path>
                    </g>
                </g>
            </g>
        </g>
    </g>
</svg>