<?xml version="1.0" encoding="UTF-8"?>
<svg width="41px" height="36px" viewBox="0 0 41 36" version="1.1" xmlns="http://www.w3.org/2000/svg" xmlns:xlink="http://www.w3.org/1999/xlink">
    <!-- Generator: Sketch 41.2 (35397) - http://www.bohemiancoding.com/sketch -->
    <title>Page 1</title>
    <desc>Created with Sketch.</desc>
    <defs></defs>
    <g id="Desktop-app" stroke="none" stroke-width="1" fill="none" fill-rule="evenodd">
        <g id="Desktop-Home-overlay" transform="translate(-43.000000, -12.000000)" fill="#000000">
            <g id="Page-1" transform="translate(43.000000, 12.000000)">
                <path d="M25.3287067,18.3694009 C24.4603608,18.3694009 23.96204,19.2180455 23.96204,19.2180455 L23.96204,25.1781782 L23.96204,26.1099128 L23.96204,35.1570028 C23.96204,35.9107848 24.573965,35.4982351 25.3287067,35.4982351 C26.0834483,35.4982351 26.6953733,35.9107848 26.6953733,35.1570028 L26.6953733,25.921382 L26.6953733,25.1781782 L26.6953733,19.2180455 C26.6953733,19.2180455 26.1970525,18.3694009 25.3287067,18.3694009" id="Fill-1"></path>
                <path d="M31.5103963,19.1903204 C32.2750463,18.0352493 32.8174421,17.0156474 33.0376463,16.5846711 C33.3806796,15.9134673 32.6030463,16.0996095 31.9309879,15.7566711 C31.2591004,15.4140739 30.9468171,14.6724057 30.6032713,15.3432682 C30.3278879,15.8810502 30.0412296,16.3928986 29.7497879,16.8742066 L28.1296046,19.1933915 C27.9483504,19.4157043 27.7650463,19.8154578 27.7650463,19.8154578 L27.8173213,23.2168607 C28.4765671,22.7592682 29.1692963,22.1578464 29.7458588,21.5108701 C30.0533588,22.0141877 30.3429213,22.5287659 30.6032713,23.0372019 C30.9463046,23.7080645 31.2585879,22.9983014 31.9309879,22.6558749 C32.6032171,22.3134483 33.3806796,22.4673441 33.0376463,21.7957991 C32.8174421,21.3648227 32.2750463,20.3452209 31.5103963,19.1903204" id="Fill-3"></path>
                <path d="M25.3627367,14.2581156 C22.7841783,14.2581156 20.2536242,16.7009972 20.2536242,19.1901156 C20.2536242,20.8351962 21.5230867,22.4023052 23.017195,23.315272 L22.9869575,19.4458692 L22.9869575,19.1901156 C22.9869575,18.2022483 24.2970783,16.9879735 25.3627367,16.9879735 C25.8260367,16.9879735 26.7159075,17.709509 27.3865992,18.3694521 L28.9914075,16.0860967 C27.8840658,15.0294711 26.63852,14.2581156 25.3627367,14.2581156" id="Fill-5"></path>
                <path d="M40.6641588,2.63521706 C38.8212088,0.935880569 36.4240754,5.11848341e-05 33.9143629,5.11848341e-05 C28.6827629,5.11848341e-05 24.3840838,4.05354882 23.9939004,9.18056303 C23.9735713,9.2744019 23.9619546,9.37165308 23.9619546,9.47180474 L23.9619546,13.3475204 C25.5520713,12.5456246 26.6952879,13.3475204 26.6952879,13.3475204 L26.6952879,9.93980474 C26.6952879,5.96427867 29.9337754,2.729909 33.9143629,2.729909 C35.7349338,2.729909 37.4735046,3.40844929 38.8099338,4.64098009 C39.0728463,4.88325498 40.0255838,4.06736872 40.2949879,3.7759564 C40.8069754,3.22196588 41.2186838,3.14655355 40.6641588,2.63521706" id="Fill-7"></path>
                <path d="M18.535075,6.93211564 C18.535075,6.93211564 19.3504625,7.09949005 19.6342167,7.2324 C20.31755,7.55230521 20.2317917,6.70792607 20.552275,6.025291 C20.8725875,5.34282654 21.4776792,5.08041896 20.7943458,4.76051374 C19.7459417,4.2698218 18.2740417,4.16199242 17.2994375,4.61770806 C17.2994375,4.61770806 18.2620833,5.40476019 18.535075,6.93211564" id="Fill-9"></path>
                <path d="M12.997,19.3274445 C12.9373792,19.3120891 12.8767333,19.2992929 12.8138667,19.292127 L8.05205833,18.7435962 C7.95519583,18.7325062 7.85952917,18.7321649 7.76608333,18.7408664 C7.67725,18.7111791 7.583975,18.6896815 7.4871125,18.6784209 C6.76517083,18.5953308 6.245325,17.9408474 6.32852083,17.2196531 C6.4118875,16.4986294 7.06720417,15.9794445 7.78931667,16.0625346 L10.7387542,16.4024019 C10.75635,16.4051318 10.7732625,16.4092265 10.7910292,16.4111033 C10.8263917,16.4151981 10.8614125,16.4170749 10.896775,16.4206578 L11.462575,16.4858332 C11.6516875,16.507672 11.8360167,16.4894161 12.0075333,16.4384019 C14.8155208,16.2444114 17.0647125,14.2164682 17.8054458,11.1839374 C17.864725,11.0558047 17.9055542,10.916582 17.9226375,10.7686578 C17.9356208,10.6570749 17.9453583,10.5461744 17.9539,10.4357858 C17.9718375,10.319255 17.9882375,10.2020417 18.0019042,10.0831223 L17.9730333,10.0798806 C18.0977417,6.36386161 15.7007792,3.35419336 12.1740958,2.94778578 C8.28934583,2.50043033 5.49007083,4.7151981 5.0424875,8.59023128 C4.855425,10.209037 5.34110417,11.882781 5.3971375,12.0684114 L8.2292125,12.0049422 C8.12278333,11.6461365 7.65452917,9.7975109 7.75788333,8.90314123 C8.034975,6.50393744 9.45374583,5.38247773 11.8607875,5.65989953 C13.6413833,5.86498009 15.4064333,7.34251564 15.2369667,10.1090559 C14.8917125,12.1172076 13.5498167,13.9245441 11.202225,13.707691 L8.10245417,13.3507621 C5.88315833,13.0951791 3.86920417,14.6904398 3.61329583,16.9069137 C3.35721667,19.1233877 4.95467917,21.134781 7.173975,21.390364 C7.2708375,21.401454 7.36650417,21.4017953 7.45977917,21.3930938 C7.54878333,21.422781 7.64205833,21.4442787 7.73892083,21.4555393 L12.2429417,21.9743829 C15.0874875,22.3019659 17.2777417,25.2288853 16.9300958,28.2380417 C16.5892833,31.1900417 13.5448625,33.463672 10.4151958,33.1029896 L8.00097917,32.8248853 C4.8713125,32.4645441 2.42497917,29.5586104 2.7659625,26.6062692 C2.98650833,24.6963924 4.1538125,23.1210938 5.74529583,22.2942882 L3.5137,20.4651128 C1.65007917,21.782781 0.332270833,23.8550844 0.0507375,26.2935299 C-0.466033333,30.7675962 3.0314375,35.0004114 7.68767083,35.5368284 L10.6232708,35.8749896 C10.7385833,35.8882976 10.8515042,35.8852265 10.96135,35.8705536 C15.2839458,35.9353877 19.1608375,32.7481081 19.6454917,28.550781 C20.1509875,24.1729422 17.1383417,20.0558047 12.997,19.3274445" id="Fill-11"></path>
            </g>
        </g>
    </g>
</svg>