<?xml version="1.0" encoding="utf-8"?>
<!-- Generator: Adobe Illustrator 21.0.0, SVG Export Plug-In . SVG Version: 6.00 Build 0)  -->
<svg version="1.1" xmlns="http://www.w3.org/2000/svg" xmlns:xlink="http://www.w3.org/1999/xlink" x="0px" y="0px"
	 viewBox="0 0 1190.6 841.9" style="enable-background:new 0 0 1190.6 841.9;" xml:space="preserve">
<style type="text/css">
	.st0{fill:#85F1FF;}
	.st1{fill:#00E1FF;}
	.st2{fill:#38E8FF;}
	.st3{fill:#00E1FF;stroke:#00E1FF;stroke-miterlimit:10;}
	.st4{fill:#FFE6EC;stroke:#00E1FF;stroke-miterlimit:10;}
	.st5{fill:#FFFFFF;}
	.st6{fill:#363EF0;}
	.st7{fill:#FFB6C9;}
	.st8{fill:#E7E7E7;}
	.st9{stroke:#00E1FF;stroke-miterlimit:10;}
	.st10{fill:#231F20;}
	.st11{fill:#3ACAAC;}
	.st12{fill:none;stroke:#41333A;stroke-width:0.5;stroke-miterlimit:10;}
	.st13{fill:#E5FCFF;}
	.st14{fill:none;stroke:#FFB900;stroke-width:0.5;stroke-miterlimit:10;}
	.st15{fill:none;stroke:#FFFFFF;stroke-width:0.4027;stroke-miterlimit:10;}
	.st16{fill:none;stroke:#FFFFFF;stroke-width:0.5;stroke-miterlimit:10;}
	.st17{fill:none;stroke:#FFFFFF;stroke-width:0.387;stroke-miterlimit:10;}
	.st18{clip-path:url(#SVGID_2_);}
</style>
<g id="Layer_2">
</g>
<g id="Layer_3">
</g>
<g id="Layer_1">
	<path d="M842.6,625.1c-5.8,0-16.4,2.6-16.4-3.2V467c0.2-0.9,1.8-7,7.8-7c5.3,0,11.2,7.5,13.2,10.7v141
		C847.2,617.5,848.4,625.1,842.6,625.1z"/>
	<path d="M847.2,414.5c-2.2-1-6.1-2.4-10.8-2.4c-3.6,0-7,0.8-10.2,2.3v-130c0-5.8,4.7-1.7,10.5-1.7c5.8,0,10.5-4.1,10.5,1.7V414.5z"
		/>
	<path d="M374,607.4c-5.8,0-10.5,8.5-10.5,2.7V498.8c0,0,2.4,0.7,7.6-3.5c5.2-4.1,13.4-10.8,13.4-10.8v119.4
		C384.5,609.7,379.8,607.4,374,607.4z"/>
	<path d="M758.4,625.1c-5.8,0-10.5-1.8-10.5-7.6v-130c0-17.1-16.1-37-37-37c-10.1,0-25,11.3-35.8,19.6l-0.7,0.5
		c-0.1,0.1-18,11.8-23.1,13.9c-1.3,0.3-2.5,0.4-3.8,0.4c-17.5,0-29.3-15.1-29.3-29.3c0-14.5,14.8-29.3,29.3-29.3
		c6.7,0,15.1,4.5,20.6,10.9l-15.7,13c-0.7-1.5-2.3-2.5-4.7-2.8l-0.1,0l-0.1,0c-3.1,0.1-8.2,1.9-8.2,8.3c0,5.1,2.4,7.7,7.5,8.3l0.3,0
		l0.3-0.1c1.1-0.4,2.8-1.4,5-3l21.3-15.8c10.2-7.2,23.6-15.5,37.2-15.5c27.4,0,57.9,24.8,57.9,57.9v134.4
		C768.9,627.7,764.2,625.1,758.4,625.1z M663.5,611.8c-5.8,0-10.5-0.3-10.5-6.1V498.6l21-15.5v125.6
		C674,614.5,669.3,611.8,663.5,611.8z"/>
	<path d="M358.3,485c-17.5,0-29.3-15.1-29.3-29.3c0-14.5,14.8-29.3,29.3-29.3c7,0,14.4,3.8,19.5,10l-16.6,12.7
		c-0.9-1.2-2.4-1.8-4.4-1.8l-0.6,0l-0.1,0l-0.2,0c-4.3,0-7.4,3.5-7.4,8.3c0,5.3,3.3,8.3,9.1,8.3h0.2l0.2-0.1c1.2-0.5,3-1.6,5.6-3.4
		l20.7-15.4c1.8-1.3,3.5-2.4,5.2-3.5c12.5-8.1,22.6-11.9,32-11.9c16,0,31.2,6.3,41.7,17.4c4,4.2-1.5,4.7-5.7,8.7
		c-2,1.9-7.5,7.9-9.5,5.8c-6.6-6.9-16.3-10.9-26.5-10.9c-10.1,0-25,11.3-35.8,19.6C374.6,478.8,366.5,485,358.3,485z"/>
	<path d="M238,619.2c-5.8,0-10.5,5.5-10.5-0.3V466.1c0.8-1.2,4.6-6.4,10.5-6.4c5.9,0,9.7,5.2,10.5,6.4v150
		C248.5,621.9,243.8,619.2,238,619.2z"/>
	<path d="M227.5,308.5c0-5.8,4.7-10.5,10.5-10.5c5.8,0,10.5,4.7,10.5,10.5v104.6c-2-1-5.5-2.2-10.1-2.2c-3.6,0-7.3,0.8-10.9,2.4
		V308.5z"/>
	<path d="M263.6,465.5l-0.6,0.8c-1.2,1.5-2.5,4-2.8,4.8l0.4,26.6c5.2-3.8,10.2-8.4,14.4-13.1l1.1-1.3l0.9,1.4
		c2.7,4.4,5.2,8.8,7.4,13.2c1.8,3.5,4.2-2,8.1-2c1.7,0,3.3-0.4,4.8-1.1c5.2-2.6,8.4-1.2,5.8-6.4c-1.7-3.4-6.4-12.3-13-22.3l-0.5-0.7
		l0.5-0.7c6.6-10,11.3-18.9,13-22.3c2.6-5.1-2.4-4.1-7.5-6.7c-1.5-0.8-3.1-1.2-4.8-1.2c-4,0-4.6-5.2-6.4-1.6
		c-2.3,4.5-4.8,9-7.4,13.2l-0.9,1.4L263.6,465.5z"/>
	<path d="M256.4,457.1c-5.7-6-12.6-11.8-18.1-11.8c-9.9,0-21.7,10.9-21.7,20.2v2.2l0.2,31c-13-8.6-21.2-21.5-21.2-33.2
		c0-20.8,21.1-41.2,42.6-41.2c9.6,0,19.8,5.3,30.6,15.7"/>
	<path d="M238,321.8c-6.2,0-10.5-3.8-10.5-9.2c0-46.5,37.8-84.2,84.2-84.2c5.8,0,10.5,4.7,10.5,10.5c0,5.8-4.7,10.5-10.5,10.5
		c-34.9,0-63.3,28.4-63.3,63.3C248.5,318,244.2,321.8,238,321.8z"/>
	<path d="M354.6,266.1c-11.7-10.8-26.9-16.8-42.9-16.8c-5.8,0-10.5-4.7-10.5-10.5c0-5.8,4.7-10.5,10.5-10.5
		c21.2,0,41.5,7.9,57.1,22.3c2.1,1.9,3.3,4.5,3.4,7.3s-5.3-0.4-7.2,1.7C363.1,261.7,356.6,267.8,354.6,266.1z"/>
	<path d="M581.4,616.2c-5.6,0-10.2,2.9-10.5-2.7l21-23.8v23.3C591.9,618.9,587.2,616.2,581.4,616.2z"/>
	<path d="M570.9,489.3c0-22.6-15.1-38.9-36-38.9c-23.3,0-31.6,20.1-31.6,38.9c0,5.8-4.6,1.6-10.4,1.6c-5.8,0-10.6,4.1-10.6-1.6
		c0-35.3,21.6-59.9,52.6-59.9c32.5,0,57,25.8,57,59.9v30.2l-21,31V489.3z"/>
	<path d="M525.3,621.6c-29.4,0-53.3-23.9-53.3-53.3c0-29.4,23.9-53.3,53.3-53.3c12.6,0,22.4,3.5,33.4,12.2l0.2,27.2
		c-3.1-2.2-9.1-6.5-11-8c-8.5-6.8-16.4-10.4-22.6-10.4c-17.8,0-32.3,14.5-32.3,32.3c0,17.8,14.5,32.3,32.3,32.3
		c12.4,0,30.4-14.1,49.3-38.7c15.6-20.4,26.9-41.2,27-41.4c1.8-3.4,7.3,3.6,8.8,4.4c5.1,2.7,12.4,0.4,9.6,5.5
		c-0.5,0.9-12.2,22.5-28.9,44.2C567.3,605.8,545.2,621.6,525.3,621.6z"/>
	<path d="M879.4,454.6l0.9-0.9c10.4-10.5,22.1-23.3,35-38c31-35.7,45.1-52.2,45.4-52.7c2-2.6,6.5,4.6,8.3,6
		c4.6,3.5,11.9,2.1,8.4,6.7c-0.5,0.6-14.6,17.3-46.7,54.2c-13.4,15.4-25.7,28.7-36.5,39.6l-0.8,0.8l0.7,0.9
		c10.8,12.8,23.3,28.8,37.1,47.4c25.5,34.5,50.7,64.3,60.6,77.5c2.6,3.4,4.3,5.7,4.4,5.9c1.5,2.3,0,13.6-2,13.6
		c-3.6,0-9.3,6.6-11.2,3.6c-0.1-0.1-0.4-0.5-3.4-4.6c-8.7-11.5-38.5-47.2-64-81.8c-13.5-18.3-25.8-34.1-36.7-47l-0.8-1l-1,0.8
		c-7.3,6.5-11.7,9.7-17,12.9l-0.1-25.9c0.4-0.3,0.7-0.5,0.8-0.6c0.2-0.2,0.2-0.2,0.6-0.5c0.3-0.2,0.7-0.7,1.7-1.6l1-0.9L879.4,454.6
		z"/>
	<path d="M858.1,462.8c-13.7-13.7-19.4-15.6-20.9-15.8l-0.1,0h-0.1c-10,0.1-21.5,8.9-21.5,20.2c0,1.8,0.3,3.2,0.4,3.7l-1.7,26.2
		l-1.4-0.4c-13-8-18.3-16.5-18.3-29.5c0-21.9,19.9-41.2,42.6-41.2c6.4,0,16.2,2.6,35.6,21.7L858.1,462.8z"/>
	<g>
		<g>
			<path d="M621.8,175.3c0,0,5,2.1,6.6,3.2c4,2.9,4.4-2.6,7.3-6.6c2.9-4,7-4.9,3.1-7.8c-6.1-4.4-15.3-6.9-22.1-5.1
				C616.7,159,621.9,165.2,621.8,175.3z"/>
		</g>
		<g>
			<path d="M531.9,192.1c-0.1-1.3-1.2-12.5,2-22.6c7.6-24.2,28.1-34.9,52.2-27.3c23.3,7.3,35,31.7,27.1,56.8
				c-1.5,4.7-6.4,7.3-11.1,5.8c-4.7-1.5-7.3-6.4-5.8-11.1c5.8-18.6-3.9-31-15.5-34.6c-15-4.7-25.4,0.7-30.1,15.7
				c-1.7,5.6-1,17.9-0.8,20.3L531.9,192.1z"/>
		</g>
		<g>
			<path d="M561,226.3c-4.7-1.5-7.3-6.4-5.8-11.1s6.4-7.3,11.1-5.8c15.8,4.9,27.2-6.5,31.4-20l16.9,5.3
				C606.6,220.2,584,233.5,561,226.3z"/>
		</g>
		<g>
			<path d="M565.1,264l-29.6-9.3c-4.7-1.5-7.3-6.4-5.8-11.1c1.5-4.7,6.4-7.3,11.1-5.8l29.6,9.3c4.7,1.5,7.3,6.4,5.8,11.1
				S569.7,265.5,565.1,264z"/>
		</g>
		<g>
			<path d="M591.5,320.2c-4.7-1.5-7.3-6.4-5.8-11.1c5.9-18.8-4.5-40.1-22.2-45.6c-4.7-1.5-7.3-6.4-5.8-11.1s6.4-7.3,11.1-5.8
				c27.2,8.5,42.7,39.5,33.9,67.8C601.1,319.1,596.2,321.7,591.5,320.2z"/>
		</g>
		<g>
			<path d="M533,349.1c-4.7-1.5-1.4-4.3,0.1-8.9s0.5-9.4,5.2-8c19.5,6.1,41.6-4.7,47.4-23.1c1.5-4.7,6.4-7.3,11.1-5.8
				c4.7,1.5,7.3,6.4,5.8,11.1C593.9,342.3,562,358.2,533,349.1z"/>
		</g>
		<g>
			<path d="M531.9,253.7c-13.8-4.3-21.5-19.1-17.2-32.9c4.3-13.8,19.1-21.5,32.9-17.2l22.9,7.1c4.7,1.5,7.3,6.4,5.8,11.1
				s-6.4,7.3-11.1,5.8l-22.9-7.1c-4.5-1.4-9.3,1.1-10.7,5.6c-1.4,4.5,1.1,9.3,5.6,10.7c4.7,1.5,7.3,6.4,5.8,11.1
				S536.6,255.1,531.9,253.7z"/>
		</g>
	</g>
	<path d="M656.5,306.4c-25.5-8-37.6-34.3-28.8-62.6c1.4-4.6,6.4-7.2,11-5.8s7.2,6.4,5.8,11c-5,16-1.6,34.7,17.2,40.6
		c17.7,5.5,36.6-4.4,42.1-22.1l2.1-7.6c3,0.7,13.3-1.1,15-1c1,0,3.5-1.6,3.6-0.9c0.2,2.2-1.8,8-4.2,15.6
		C711.5,300,682.9,314.6,656.5,306.4z"/>
	<path d="M634.2,252.4c-4.6-1.4-7.2-6.4-5.8-11l8.5-27.2c8.7-27.8,35.2-42.6,61.7-34.3c26.5,8.3,42.1,39.5,31.7,61.6
		c-2.1,4.4-6.9,8.9-11.5,7.5c-4.6-1.4-7.2-6.4-5.8-11c5.8-18.6-2.5-36-19.7-41.3c-17.2-5.4-33.9,4.2-39.7,22.8l-8.5,27.2
		C643.8,251.2,638.9,253.8,634.2,252.4z"/>
	<path d="M703.4,212.4c-0.8-0.9-2.3,0.7-3.4,1.2c-11.3,6-13.6,19.8-8.8,28.8c5,9.3,19.5,13.8,28.8,8.8c4.7-2.5,9.3-7.5,10.3-13.8
		l-16-3.7c0.4,2.1-3.1,3.5-3.5,3.8c-2.2,1.1-4.7,0.3-6.1-2.3c-1.3-2.4-0.1-6.1,3.4-8C708.2,227.3,709.1,218.7,703.4,212.4z"/>
	<path d="M737.5,224.6c0,0,18.5,0.5,20.7-1.2s0.3-14-0.5-16.4s-23,0.9-23,0.9C737.6,215.8,737.5,224.6,737.5,224.6z"/>
	<g>
		<path d="M487.9,316.6c-14.4-4,14.8,23,30.1,27.8l18.3,5.7c4.7,1.5,9.6-1.1,11.1-5.8s-1.1-9.6-5.8-11.1l-18.3-5.7
			c-10.3-3.2-18.5-10.7-23.1-19.7C500.2,307.8,492.2,317.8,487.9,316.6z"/>
	</g>
</g>
</svg>
