<?xml version="1.0" encoding="utf-8"?>
<!-- Generator: Adobe Illustrator 21.0.0, SVG Export Plug-In . SVG Version: 6.00 Build 0)  -->
<svg version="1.1" xmlns="http://www.w3.org/2000/svg" xmlns:xlink="http://www.w3.org/1999/xlink" x="0px" y="0px"
	 viewBox="0 0 1980 421.9" style="enable-background:new 0 0 1980 421.9;" xml:space="preserve">
<style type="text/css">
	.st0{fill:#85F1FF;}
	.st1{fill:#00E1FF;}
	.st2{fill:#38E8FF;}
	.st3{fill:#00E1FF;stroke:#00E1FF;stroke-miterlimit:10;}
	.st4{fill:#FFE6EC;stroke:#00E1FF;stroke-miterlimit:10;}
	.st5{fill:#FFFFFF;}
	.st6{fill:#363EF0;}
	.st7{fill:#FFB6C9;}
	.st8{fill:#E7E7E7;}
	.st9{stroke:#00E1FF;stroke-miterlimit:10;}
	.st10{fill:#231F20;}
	.st11{fill:#3ACAAC;}
	.st12{fill:none;stroke:#41333A;stroke-width:0.5;stroke-miterlimit:10;}
	.st13{fill:#E5FCFF;}
	.st14{fill:none;stroke:#FFB900;stroke-width:0.5;stroke-miterlimit:10;}
	.st15{fill:none;stroke:#FFFFFF;stroke-width:0.4027;stroke-miterlimit:10;}
	.st16{fill:none;stroke:#FFFFFF;stroke-width:0.5;stroke-miterlimit:10;}
	.st17{fill:none;stroke:#FFFFFF;stroke-width:0.387;stroke-miterlimit:10;}
	.st18{clip-path:url(#SVGID_2_);}
</style>
<g id="Layer_2">
	<g>
		<g>
			<path class="st2" d="M846.7,271.1c19.6-28.5,49.8-49.2,77.3-69.4c14.7-10.8,29.7-21.4,44.7-31.8c14-9.8,28.1-21.4,44.4-27
				c-13.2,0.4-26.3,0.7-39.5,1.1c-23,26.2-48,50.6-71.2,76.6c-11.4,12.8-22.4,26.1-32.3,40.1c-4.9,6.9-9.5,13.9-13.8,21.2
				c-4.5,7.5-9.8,15.6-9.5,24.7c0.1,2.1,14.2,1.6,14.8,1.6c7.5-0.1,15.3-0.4,22.6-2c15.1-3.4,28.2-12.8,40.4-22
				c12-9,23.3-18.9,34.4-28.9c22.3-19.9,44.3-40.4,70.3-55.5c-13.2,0.4-26.3,0.7-39.5,1.1c-12,16.1-24.1,32.2-36.1,48.3
				c-5.8,7.8-11.7,15.5-17.3,23.5c-4.9,6.8-11.4,14.2-11.1,23.1c0.1,3.4,36.1,1.6,39.5-1.1c32.5-25.9,65-51.9,97.6-77.8
				c-13.2,0.4-26.3,0.7-39.5,1.1c-9.9,13.4-19.7,26.9-29.6,40.3c-4.6,6.2-9.9,12.4-13.8,19.1c-3.5,6.1-3,12.4,4.7,13.9
				c12.7,2.6,27.3,1.1,40.1-0.9c7.8-1.3,15.2-3.8,22.2-7.7c12.1-6.8,22.7-15.9,33.5-24.5c12.1-9.8,24.6-19.3,39-25.5
				c-13.2,0.4-26.3,0.7-39.5,1.1c1,4.6-1.5,8.3-3.8,12c-2.7,4.2-5.5,8.3-8.3,12.3c-5.5,7.9-11.1,15.7-15.3,24.4
				c-2,4.1-3.8,8.4-5,12.9c-1.3,5,0.3,7.8,5.4,8.9c9.4,1.9,19.8,1.3,29.3,0.5c7.6-0.6,15.2-1.5,22.3-4.3c2.5-1-2.4-1.8-2.1-1.7
				c-3.8-0.7-8.2-0.6-12-0.6c-7.8,0.1-17.2-0.2-24.6,2.7c-8.5,3.3-1.2,3,22.1-0.8c-0.2-0.4-0.4-0.8-0.7-1.2c-0.1-1.9,0-3.3,0.5-5.2
				c0.8-3.1,2-6.2,3.3-9.2c2.7-6.3,6.2-12.1,10-17.8c3.7-5.5,7.6-10.9,11.3-16.4c3.5-5.1,9.3-11.6,7.9-18.2
				c-0.6-2.7-16.1-1.6-17.5-1.5c-6.9,0.2-15.5-0.1-22,2.6c-28.1,11.8-47.4,36.6-74,50.8c-3.1,1.7-6.2,3-9.5,4.1
				c-9.5,2.3-1.9,2.1,22.9-0.7c-0.9-0.6-1.5-1.4-1.9-2.4c-0.5-1.2-0.4-2.6-0.2-3.9c0.6-3.6,2.9-6.6,5-9.5c2.7-3.7,5.4-7.4,8.1-11.1
				c10.8-14.8,21.7-29.5,32.5-44.3c0.6-0.8-7.1-1.5-6-1.4c-3.8-0.3-7.7-0.2-11.6-0.1c-4.3,0.1-8.6,0.3-12.8,0.8
				c-2.5,0.3-7.1,0.2-9.2,1.8c-32.5,25.9-65,51.9-97.6,77.8c13.2-0.4,26.3-0.7,39.5-1.1c-0.3-8.6,5.8-15.7,10.5-22.3
				c5.8-8.2,11.8-16.2,17.9-24.2c12-16.1,24.1-32.2,36.1-48.3c0.6-0.8-7.1-1.5-6-1.4c-3.8-0.3-7.7-0.2-11.6-0.1
				c-4.3,0.1-8.6,0.3-12.8,0.8c-2.8,0.3-6.7,0.3-9.2,1.8c-25.5,14.8-47.2,34.8-69.1,54.4c-10.8,9.6-21.6,19.2-33,28
				c-11.5,8.8-24.6,19.5-39,22.7c12.5-0.1,25-0.3,37.5-0.4c-0.3-9.1,5-17.1,9.5-24.7c4.3-7.3,8.9-14.3,13.8-21.2
				c9.9-14,20.9-27.3,32.3-40.1c23.2-26,48.2-50.4,71.2-76.6c0.6-0.7-7.2-1.5-6-1.4c-3.8-0.3-7.7-0.2-11.6-0.1
				c-7.2,0.2-15.1,0.3-22,2.6c-16.4,5.6-30.4,17.2-44.4,27c-15.5,10.8-31,21.7-46.2,33c-27.5,20.2-57.6,41.1-77.1,69.6
				c-0.6,0.8,7.1,1.5,6,1.4c4.7,0.4,9.5,0.3,14.2,0.1c4.7-0.2,9.5-0.5,14.2-1.3C842.5,272.7,845.6,272.6,846.7,271.1L846.7,271.1z"
				/>
		</g>
	</g>
</g>
<g id="Layer_3">
</g>
<g id="Layer_1">
	<g>
		<path class="st10" d="M1075,310c-2,0-5.7,0.9-5.7-1.1v-57.4c0.1-0.3,0.6-2.4,2.7-2.4c1.8,0,3.9,2.6,4.6,3.7v52.6
			C1076.6,307.3,1077,310,1075,310z"/>
		<path class="st10" d="M1076.6,233.4c-0.8-0.3-2.1-0.8-3.7-0.8c-1.2,0-2.4,0.3-3.5,0.8v-53.6c0-2,0.9-0.9,2.9-0.9
			c2,0,4.3-1.1,4.3,0.9V233.4z"/>
		<path class="st10" d="M913,300c-2,0-3.6,2.9-3.6,0.9v-38.5c0,0,0.8,0.2,2.6-1.2s4.6-3.7,4.6-3.7v41.3C916.6,300.8,915,300,913,300
			z"/>
		<path class="st10" d="M1045.9,310c-2,0-3.6-0.6-3.6-2.6v-48.7c0-5.9-5.6-12.8-12.8-12.8c-3.5,0-8.6,3.9-12.4,6.8l-0.2,0.2
			c0,0-6.2,4.1-8,4.8c-0.4,0.1-0.9,0.1-1.3,0.1c-6.1,0-10.1-5.2-10.1-10.1c0-5,5.1-10.1,10.1-10.1c2.3,0,5.2,1.6,7.1,3.8l-5.4,4.5
			c-0.3-0.5-0.8-0.9-1.6-1l0,0l0,0c-1.1,0-2.8,0.7-2.8,2.9c0,1.8,0.8,2.7,2.6,2.9l0.1,0l0.1,0c0.4-0.2,1-0.5,1.7-1l7.4-5.5
			c3.5-2.5,8.1-5.3,12.8-5.3c9.5,0,20,8.6,20,20v50.3C1049.5,310.9,1047.9,310,1045.9,310z M1013.1,301.6c-2,0-3.6-0.1-3.6-2.1v-37
			l7.3-5.4v43.4C1016.7,302.5,1015.1,301.6,1013.1,301.6z"/>
		<path class="st10" d="M907.6,257.7c-6.1,0-10.1-5.2-10.1-10.1c0-5,5.1-10.1,10.1-10.1c2.4,0,5,1.3,6.7,3.5l-5.7,4.4
			c-0.3-0.4-0.8-0.6-1.5-0.6l-0.2,0l0,0l-0.1,0c-1.5,0-2.6,1.2-2.6,2.9c0,1.8,1.1,2.9,3.1,2.9h0.1l0.1,0c0.4-0.2,1.1-0.6,2-1.2
			l7.2-5.3c0.6-0.4,1.2-0.8,1.8-1.2c4.3-2.8,7.8-4.1,11.1-4.1c5.5,0,10.8,2.2,14.4,6c1.4,1.4-0.5,1.6-2,3c-0.7,0.6-2.6,2.7-3.3,2
			c-2.3-2.4-5.6-3.8-9.2-3.8c-3.5,0-8.6,3.9-12.4,6.8C913.2,255.6,910.4,257.7,907.6,257.7z"/>
		<path class="st10" d="M866.3,306.1c-0.7,0-1.8-0.2-2.4-0.2c-1.1,0.1-1.6,0.3-1.6-1v-53.8c0.3-0.4,1.6-2.2,3.6-2.2
			c2,0,3.3,1.8,3.6,2.2v53.5c0,1.5-0.4,1.1-1.6,1C867.6,305.6,866.8,306.1,866.3,306.1z"/>
		<path class="st10" d="M862.3,196.7c0-2,1.6-3.6,3.6-3.6s3.6,1.6,3.6,3.6v36.2c-0.7-0.3-1.9-0.8-3.5-0.8c-1.3,0-2.5,0.3-3.8,0.8
			V196.7z"/>
		<path class="st10" d="M874.8,251l-0.2,0.3c-0.4,0.5-0.9,1.4-1,1.7l0.1,9.2c1.8-1.3,3.5-2.9,5-4.5l0.4-0.4l0.3,0.5
			c0.9,1.5,1.8,3.1,2.6,4.6c0.6,1.2,1.4-0.7,2.8-0.7c0.6,0,1.1-0.1,1.6-0.4c1.8-0.9,2.9-0.4,2-2.2c-0.6-1.2-2.2-4.2-4.5-7.7
			l-0.2-0.2l0.2-0.2c2.3-3.5,3.9-6.5,4.5-7.7c0.9-1.8-0.8-1.4-2.6-2.3c-0.5-0.3-1.1-0.4-1.6-0.4c-1.4,0-1.6-1.8-2.2-0.6
			c-0.8,1.6-1.7,3.1-2.5,4.6l-0.3,0.5L874.8,251z"/>
		<path class="st10" d="M872.3,248.1c-2-2.1-4.4-4.1-6.3-4.1c-3.4,0-7.5,3.8-7.5,7v0.8l0.1,10.7c-4.5-3-7.3-7.4-7.3-11.5
			c0-7.2,7.3-14.2,14.7-14.2c3.3,0,6.9,1.8,10.6,5.4"/>
		<path class="st10" d="M866,201.3c-2.1,0-3.6-1.3-3.6-3.2c0-16.1,13.1-29.1,29.1-29.1c2,0,3.6,1.6,3.6,3.6c0,2-1.6,3.6-3.6,3.6
			c-12.1,0-21.9,9.8-21.9,21.9C869.6,200,868.1,201.3,866,201.3z"/>
		<path class="st10" d="M906.3,182c-4-3.7-9.3-5.8-14.8-5.8c-2,0-3.6-1.6-3.6-3.6c0-2,1.6-3.6,3.6-3.6c7.3,0,14.4,2.7,19.8,7.7
			c0.7,0.7,0.4,0.5,0.5,1.4s-1.1,0.9-1.8,1.7C909.2,180.5,907,182.7,906.3,182z"/>
		<path class="st10" d="M984.7,303.1c-1.9,0-3.5,1-3.6-0.9l7.2-8.2v8.1C988.3,304,986.7,303.1,984.7,303.1z"/>
		<path class="st10" d="M981,259.2c0-7.8-5.2-13.5-12.4-13.5c-8.1,0-10.9,7-10.9,13.5c0,2-1.6,0.6-3.6,0.6s-3.6,1.4-3.6-0.6
			c0-12.2,7.5-20.7,18.2-20.7c11.2,0,19.7,8.9,19.7,20.7v10.4l-7.3,10.7V259.2z"/>
		<path class="st10" d="M965.3,304.9c-10.2,0-18.4-8.3-18.4-18.4c0-10.2,8.3-18.4,18.4-18.4c4.4,0,7.7,1.2,11.5,4.2l0.1,9.4
			c-1.1-0.8-3.1-2.2-3.8-2.8c-3-2.3-5.7-3.6-7.8-3.6c-6.2,0-11.2,5-11.2,11.2c0,6.2,5,11.2,11.2,11.2c4.3,0,10.5-4.9,17-13.4
			c5.4-7,9.3-14.2,9.3-14.3c0.6-1.2,2.5,1.2,3.1,1.5c1.8,0.9,4.3,0.1,3.3,1.9c-0.2,0.3-4.2,7.8-10,15.3
			C979.8,299.5,972.1,304.9,965.3,304.9z"/>
		<path class="st10" d="M1087.7,247.2l0.3-0.3c3.6-3.6,7.7-8,12.1-13.1c10.7-12.3,15.6-18,15.7-18.2c0.7-0.9,2.6,0.8,3.2,1.3
			c1.6,1.2,3.8,1.5,2.6,3.1c-0.2,0.2-5,6-16.1,18.7c-4.6,5.3-8.9,9.9-12.6,13.7l-0.3,0.3l0.3,0.3c3.7,4.4,8.1,9.9,12.8,16.4
			c8.8,11.9,17.5,22.2,21,26.8c0.9,1.2,1.5,2,1.5,2c0.5,0.8,2.9,2.5-1,4c-1.2,0-2.9,3-3.6,1.9c0,0-0.1-0.2-1.2-1.6
			c-3-4-13.3-16.3-22.1-28.3c-4.7-6.3-8.9-11.8-12.7-16.2l-0.3-0.3l-0.3,0.3c-2.5,2.2-4.1,3.4-5.9,4.5l0-9c0.2-0.1,0.2-0.2,0.3-0.2
			c0.1-0.1,0.1-0.1,0.2-0.2c0.1-0.1,0.3-0.2,0.6-0.5l0.3-0.3L1087.7,247.2z"/>
		<path class="st10" d="M1080.3,250.1c-4.8-4.7-6.7-5.4-7.2-5.5l0,0h0c-3.4,0-7.4,3.1-7.4,7c0,0.6,0.1,1.1,0.1,1.3l-0.6,9.1
			l-0.5-0.1c-4.5-2.8-6.3-5.7-6.3-10.2c0-7.6,6.9-14.2,14.7-14.2c2.2,0,5.6,0.9,12.3,7.5L1080.3,250.1z"/>
		<g>
			<g>
				<g>
					<path class="st10" d="M996.8,145.8c0,0,1.3-1.4,1.7-2.1c0.9-1.5,1.9,0.2,3.4,1.1c1.5,0.9,3.1,0.6,2.2,2.1c-1.3,2.4-4,4.6-6.5,5
						C997.6,151.9,998.3,149.1,996.8,145.8z"/>
				</g>
				<g>
					<path class="st10" d="M964.8,154.4c0-0.5-0.3-4.5,0.9-8.2c3-8.7,10.5-12.4,19.2-9.4c8.4,2.9,12.4,11.8,9.3,20.8
						c-0.6,1.7-2.4,2.6-4.1,2c-1.7-0.6-2.6-2.4-2-4.1c2.3-6.7-1.1-11.3-5.3-12.7c-5.4-1.8-9.2,0-11,5.4c-0.7,2-0.5,6.5-0.5,7.4
						L964.8,154.4z"/>
				</g>
				<g>
					<path class="st10" d="M975,167.1c-1.7-0.6-2.6-2.4-2-4.1s2.4-2.6,4.1-2c5.7,1.9,9.9-2.1,11.6-6.9l6.1,2.1
						C991.5,165.3,983.3,169.9,975,167.1z"/>
				</g>
				<g>
					<path class="st10" d="M960.5,178.1c-4.1,1.1-7.5,4.1-9,8.4c-2.3,6.6,1.9,14.5,8.9,16.9l6.6,2.2c1.7,0.6,2.6,2.4,2,4.1
						s-2.4,2.6-4.1,2l-6.6-2.2c-10.4-3.6-16.3-15-12.9-25c1.9-5.5,5.9-9.6,10.9-11.7L960.5,178.1z"/>
				</g>
				<g>
					<path class="st10" d="M976.1,180.8l-10.6-3.6c-1.7-0.6-2.6-2.4-2-4.1s2.4-2.6,4.1-2l10.6,3.6c1.7,0.6,2.6,2.4,2,4.1
						C979.6,180.4,977.8,181.3,976.1,180.8z"/>
				</g>
				<g>
					<path class="st10" d="M985.2,201.4c-1.7-0.6-2.6-2.4-2-4.1c2.3-6.7-1.3-14.6-7.6-16.7c-1.7-0.6-2.6-2.4-2-4.1s2.4-2.6,4.1-2
						c9.8,3.3,15.1,14.7,11.6,24.9C988.7,201,986.8,201.9,985.2,201.4z"/>
				</g>
				<g>
					<path class="st10" d="M963.7,211.3c-1.7-0.6-2.6-2.4-2-4.1c0.6-1.7,2.4-2.6,4.1-2c7,2.4,15.1-1.3,17.4-7.9
						c0.6-1.7,2.4-2.6,4.1-2s2.6,2.4,2,4.1C985.8,209.4,974.1,214.8,963.7,211.3z"/>
				</g>
				<g>
					<path class="st10" d="M964.2,176.7c-5-1.7-7.6-7.1-5.9-12.1c1.7-5,7.1-7.6,12.1-5.9l8.2,2.8c1.7,0.6,2.6,2.4,2,4.1
						s-2.4,2.6-4.1,2l-8.2-2.8c-1.6-0.6-3.4,0.3-3.9,1.9s0.3,3.4,1.9,3.9c1.7,0.6,2.6,2.4,2,4.1S965.9,177.3,964.2,176.7z"/>
				</g>
			</g>
			<path class="st10" d="M1008.8,197c-9.2-3.1-13.3-12.8-9.8-22.9c0.6-1.7,2.4-2.5,4-2c1.7,0.6,2.5,2.4,2,4
				c-2,5.7-0.9,12.6,5.9,14.9c6.4,2.2,13.3-1.2,15.5-7.6l0.8-2.7c1.1,0.3,4.8-0.3,5.4-0.2c0.4,0,1.3-0.5,1.3-0.3
				c0,0.8-0.7,2.9-1.7,5.6C1028.8,195.2,1018.3,200.2,1008.8,197z"/>
			<path class="st10" d="M1001.3,177.2c-1.7-0.6-2.5-2.4-2-4l3.3-9.8c3.4-10,13.2-15.1,22.7-11.8c9.5,3.2,14.9,14.7,10.9,22.6
				c-0.8,1.6-2.6,3.2-4.3,2.6c-1.7-0.6-2.5-2.4-2-4c2.3-6.7-0.5-13-6.7-15.2c-6.2-2.1-12.3,1.2-14.6,7.9l-3.3,9.8
				C1004.7,176.9,1002.9,177.8,1001.3,177.2z"/>
			<path class="st10" d="M1026.7,163.4c-0.3-0.3-0.9,0.2-1.2,0.4c-4.1,2.1-5.1,7-3.5,10.4c1.7,3.4,6.9,5.2,10.4,3.5
				c1.7-0.9,3.4-2.6,3.9-4.9l-5.7-1.5c0.1,0.8-1.2,1.2-1.3,1.3c-0.8,0.4-1.7,0.1-2.2-0.9c-0.4-0.9,0-2.2,1.3-2.9
				C1028.3,168.8,1028.7,165.7,1026.7,163.4z"/>
			<path class="st10" d="M1038.9,168.1c0,0,6.7,0.4,7.5-0.2s0.2-5.1,0-6s-8.3,0.1-8.3,0.1C1039,164.9,1038.9,168.1,1038.9,168.1z"/>
		</g>
		<path class="st10" d="M916.6,296.1v7.6c0,1.4-0.4,1.6-1.4,1.5c-0.4,0-0.9-0.1-1.5-0.1c-0.5,0-1,0.1-1.5,0.1c-0.4,0-0.7-0.3-1-0.3
			c-0.3,0-0.6,0.3-0.9,0.3c-0.6-0.1-1-0.5-1-1.3v-7.9"/>
		<path class="st10" d="M1016.7,296.1v7.6c0,2-1.6,1.5-3.6,1.5c-2,0-3.6,0.8-3.6-1.2v-7.9"/>
		<path class="st10" d="M1049.5,303.4v7.6c0,0.9-0.3,1.3-0.9,1.4c-0.3,0.1-0.7-0.2-1.1-0.3c-0.5,0-1.1,0.3-1.6,0.3
			c-2,0-3.6,0.9-3.6-1.1v-7.9"/>
		<path class="st10" d="M1076.6,303.4v7.6c0,2-1.6,1.4-3.6,1.4s-3.6,0.9-3.6-1.1v-7.9"/>
		<path class="st10" d="M988.3,296.1v7.6c0,2-1.3,1.5-3.3,1.5s-4,0.8-4-1.2v-1.9"/>
	</g>
</g>
</svg>
