<?xml version="1.0" encoding="utf-8"?>
<!-- Generator: Adobe Illustrator 21.0.0, SVG Export Plug-In . SVG Version: 6.00 Build 0)  -->
<svg version="1.1" xmlns="http://www.w3.org/2000/svg" xmlns:xlink="http://www.w3.org/1999/xlink" x="0px" y="0px"
	 viewBox="0 0 1190.6 841.9" style="enable-background:new 0 0 1190.6 841.9;" xml:space="preserve">
<style type="text/css">
	.st0{fill:#85F1FF;}
	.st1{fill:#00E1FF;}
	.st2{fill:#38E8FF;}
	.st3{fill:#00E1FF;stroke:#00E1FF;stroke-miterlimit:10;}
	.st4{fill:#FFE6EC;stroke:#00E1FF;stroke-miterlimit:10;}
	.st5{fill:#FFFFFF;}
	.st6{fill:#363EF0;}
	.st7{fill:#FFB6C9;}
	.st8{fill:#E7E7E7;}
	.st9{stroke:#00E1FF;stroke-miterlimit:10;}
	.st10{fill:#231F20;}
	.st11{fill:#3ACAAC;}
	.st12{fill:none;stroke:#41333A;stroke-width:0.5;stroke-miterlimit:10;}
	.st13{fill:#E5FCFF;}
	.st14{fill:none;stroke:#FFB900;stroke-width:0.5;stroke-miterlimit:10;}
	.st15{fill:none;stroke:#FFFFFF;stroke-width:0.4027;stroke-miterlimit:10;}
	.st16{fill:none;stroke:#FFFFFF;stroke-width:0.5;stroke-miterlimit:10;}
	.st17{fill:none;stroke:#FFFFFF;stroke-width:0.387;stroke-miterlimit:10;}
	.st18{clip-path:url(#SVGID_2_);}
</style>
<g id="Layer_2">
</g>
<g id="Layer_3">
</g>
<g id="Layer_1">
	<g>
		<g>
			<path d="M661.2,293.1l-3.3,8.7c-4,10.5-15.8,15.8-26.3,11.9c-11.1-4.2-12.5-15.7-8.9-25.2c1.2-3.3-0.4-6.9-3.7-8.2
				c-3.3-1.2-6.9,0.4-8.2,3.7c-6.8,17.9,0.1,35.4,16.3,41.5c17.1,6.5,36.2-2.2,42.7-19.2l0,0C669.8,306.3,662.4,300.9,661.2,293.1z"
				/>
		</g>
		<g>
			<path d="M615.1,290.7c3.3,1.2,6.9-0.4,8.2-3.7l6.4-16.8c4.2-11.1,14.6-16.3,24.8-12.4c10.2,3.9,14.6,14.7,10.4,25.7
				c-1.2,3.3,0.4,6.9,3.7,8.2s6.9-0.4,8.2-3.7c6.7-17.6-1-35.7-17.8-42.1s-34.5,2.2-41.2,19.8l-6.4,16.8
				C610.1,285.8,611.8,289.5,615.1,290.7z"/>
		</g>
		<g>
			<path d="M674.1,301.2c7.7,2.9,16.3-1,19.3-8.7c1.2-3.3-0.4-6.9-3.7-8.2c-3.3-1.2-6.9,0.4-8.2,3.7c-0.4,1.1-1.7,1.7-2.9,1.3
				c-1.1-0.4-1.7-1.7-1.3-2.9c1.2-3.3-0.4-6.9-3.7-8.2c-3.3-1.2-6.9,0.4-8.2,3.7C662.5,289.6,666.4,298.3,674.1,301.2z"/>
		</g>
	</g>
	<g>
		<g>
			<path d="M595.9,245.9c-3.3-1.2-4.9-4.9-3.7-8.2s4.9-4.9,8.2-3.7c2.4,0.9,5.2-0.3,6.1-2.8c1.2-3.3,4.9-4.9,8.2-3.7
				c3.3,1.2,4.9,4.9,3.7,8.2C614.9,244.8,604.8,249.3,595.9,245.9z"/>
		</g>
		<g>
			<path d="M542.4,252.9c0-0.9-0.3-11.2,2.4-18.3c6.4-17,21.6-23.8,38.6-17.4c16.4,6.2,23.7,24.2,17,41.8c-1.2,3.3-4.9,4.9-8.2,3.7
				c-3.3-1.2-4.9-4.9-3.7-8.2c5-13.1-1.5-22.4-9.6-25.4c-10.5-4-18.2-0.5-22.2,10c-1.5,3.9-1.5,12.8-1.4,14.5c0,0-5.9-2-9.2-2
				S542.4,252.9,542.4,252.9z"/>
		</g>
		<g>
			<path d="M561.8,276.5c-3.3-1.2-4.9-4.9-3.7-8.2s4.9-4.9,8.2-3.7c11.1,4.2,19.7-3.5,23.3-13l11.9,4.5
				C594.7,274,578,282.6,561.8,276.5z"/>
		</g>
		<g>
			<path d="M532.4,297.3c-8.1,1.9-15.2,7.7-18.3,16.1c-4.9,12.9,2.8,28.8,16.5,34l12.8,4.9c3.3,1.2,4.9,4.9,3.7,8.2
				c-1.2,3.3-4.9,4.9-8.2,3.7l-12.8-4.9c-20.4-7.7-31.3-30.8-23.9-50.4c4-10.7,12.3-18.5,22.2-22.4L532.4,297.3z"/>
		</g>
		<g>
			<path d="M563.1,303.6l-20.8-7.9c-3.3-1.2-4.9-4.9-3.7-8.2s4.9-4.9,8.2-3.7l20.8,7.9c3.3,1.2,4.9,4.9,3.7,8.2
				C570.1,303.2,566.4,304.9,563.1,303.6z"/>
		</g>
		<g>
			<path d="M579.7,345c-3.3-1.2-4.9-4.9-3.7-8.2c5-13.2-1.6-28.9-14-33.6c-3.3-1.2-4.9-4.9-3.7-8.2s4.9-4.9,8.2-3.7
				c19.1,7.2,28.9,30.1,21.4,50C586.6,344.6,583,346.2,579.7,345z"/>
		</g>
		<g>
			<path d="M536.6,363.2c-3.3-1.2-4.9-4.9-3.7-8.2c1.2-3.3,4.9-4.9,8.2-3.7c13.7,5.2,30-1.6,34.9-14.6c1.2-3.3,4.9-4.9,8.2-3.7
				c3.3,1.2,4.9,4.9,3.7,8.2C580.5,360.9,557,370.9,536.6,363.2z"/>
		</g>
		<g>
			<path d="M539.8,294.8c-9.7-3.7-14.6-14.6-10.9-24.3c3.7-9.7,14.6-14.6,24.3-10.9l16.1,6.1c3.3,1.2,4.9,4.9,3.7,8.2
				c-1.2,3.3-4.9,4.9-8.2,3.7l-16.1-6.1c-3.2-1.2-6.7,0.4-7.9,3.6s0.4,6.7,3.6,7.9c3.3,1.2,4.9,4.9,3.7,8.2S543.1,296.1,539.8,294.8
				z"/>
		</g>
	</g>
	<path d="M759.1,546.5c-3.9,0-7.1-3.2-7.1-7.1v-99.6c0.1-0.6,1.2-4.8,5.3-4.8c3.6,0,7.6,5.1,9,7.3v97.1
		C766.3,543.2,763.1,546.5,759.1,546.5z"/>
	<path d="M766.3,404c-1.5-0.7-4.1-1.6-7.4-1.6c-2.4,0-4.7,0.5-6.9,1.6v-88.6c0-3.9,3.2-7.1,7.1-7.1s7.1,3.2,7.1,7.1V404z"/>
	<path d="M442.8,546.4c-3.9,0-7.1-3.2-7.1-7.1v-76.5l14.3-9.7v86.2C449.9,543.2,446.7,546.4,442.8,546.4z"/>
	<path d="M705.7,546.5c-3.9,0-7.1-3.2-7.1-7.1v-85.6c0-11.6-11-25.2-25.2-25.2c-6.9,0-17,7.7-24.4,13.4l-0.4,0.3
		c-0.1,0.1-12.2,8.1-15.7,9.5c-0.9,0.2-1.7,0.3-2.6,0.3c-11.9,0-20-10.3-20-20c0-9.9,10.1-20,20-20c4.5,0,10.3,3.1,14,7.4l-10.7,8.8
		c-0.5-1-1.6-1.7-3.2-1.9l-0.1,0l-0.1,0c-2.1,0.1-5.6,1.3-5.6,5.7c0,3.5,1.6,5.3,5.1,5.6l0.2,0l0.2-0.1c0.8-0.3,1.9-1,3.4-2
		l14.5-10.8c6.9-4.9,16.1-10.5,25.3-10.5c18.6,0,39.5,16.9,39.5,39.5v85.6C712.9,543.2,709.7,546.5,705.7,546.5z M641.1,545.4
		c-3.9,0-7.1-3.2-7.1-7.1v-77l14.3-10.6v87.6C648.2,542.2,645,545.4,641.1,545.4z"/>
	<path d="M432.1,452c-11.9,0-20-10.3-20-20c0-9.9,10.1-20,20-20c4.8,0,9.8,2.6,13.3,6.8l-11.3,8.7c-0.6-0.8-1.6-1.2-3-1.2l-0.4,0
		l-0.1,0l-0.1,0c-2.9,0-5.1,2.4-5.1,5.7c0,3.6,2.3,5.6,6.2,5.6h0.2l0.2-0.1c0.8-0.3,2.1-1.1,3.8-2.3l14.1-10.5
		c1.2-0.9,2.4-1.7,3.5-2.4c8.5-5.5,15.4-8.1,21.8-8.1c10.9,0,21.3,4.3,28.4,11.9c2.7,2.9,2.6,7.4-0.2,10.1c-1.3,1.3-3.1,2-4.9,2
		c-2,0-3.8-0.8-5.2-2.2c-4.5-4.7-11.1-7.4-18.1-7.4c-6.9,0-17,7.7-24.4,13.4C443.2,447.8,437.7,452,432.1,452z"/>
	<path d="M350.1,546.4c-3.9,0-7.1-3.2-7.1-7.1V439.1c0.6-0.9,3.2-4.4,7.1-4.4c4,0,6.6,3.5,7.1,4.4v100.2
		C357.3,543.2,354.1,546.4,350.1,546.4z"/>
	<path d="M343,331.7c0-3.9,3.2-7.1,7.1-7.1s7.1,3.2,7.1,7.1V403c-1.4-0.7-3.8-1.5-6.9-1.5c-2.5,0-5,0.5-7.4,1.6V331.7z"/>
	<path d="M388.1,464.7c-2.7,0-5.1-1.5-6.4-3.9c-1.5-3-3.2-6-5.1-9l-0.6-1l-0.8,0.9c-2.8,3.2-6.3,6.3-9.8,8.9l-0.3-18.1
		c0.3-0.5,1.1-2.3,1.9-3.3l0.4-0.5l-0.4-0.5c-4-4.9-11.4-13.2-16.9-13.2c-6.8,0-14.8,7.5-14.8,13.8v1.5l0.2,21.1
		c-8.8-5.9-14.5-14.6-14.5-22.6c0-14.2,14.4-28.1,29.1-28.1c7.7,0,16.2,5.1,25,15l0.8,0.9l0.6-1c1.8-2.9,3.4-5.9,5-9
		c1.2-2.4,3.7-3.9,6.4-3.9c1.1,0,2.2,0.3,3.2,0.8c3.5,1.8,4.9,6.1,3.1,9.6c-1.2,2.3-4.4,8.4-8.9,15.2l-0.3,0.5l0.3,0.5
		c4.5,6.8,7.7,12.9,8.9,15.2c1.8,3.5,0.4,7.8-3.1,9.6C390.3,464.5,389.3,464.7,388.1,464.7z"/>
	<path d="M350.1,340.8c-4.2,0-7.1-2.6-7.1-6.3c0-31.7,25.8-57.4,57.4-57.4c3.9,0,7.1,3.2,7.1,7.1s-3.2,7.1-7.1,7.1
		c-23.8,0-43.1,19.3-43.1,43.1C357.3,338.2,354.3,340.8,350.1,340.8z"/>
	<path d="M434.5,304.7c-1.8,0-3.5-0.7-4.8-1.9c-8-7.4-18.4-11.4-29.2-11.4c-3.9,0-7.1-3.2-7.1-7.1s3.2-7.1,7.1-7.1
		c14.5,0,28.3,5.4,38.9,15.2c1.4,1.3,2.2,3.1,2.3,5s-0.6,3.7-1.9,5.1C438.4,303.9,436.4,304.7,434.5,304.7z"/>
	<path d="M586.1,546.4c-3.8,0-7-3-7.1-6.8l14.3-14.9v14.5C593.3,543.2,590.1,546.4,586.1,546.4z"/>
	<path d="M579,454.9c0-15.4-10.3-26.5-24.5-26.5c-15.9,0-21.5,13.7-21.5,26.5c0,3.9-3.2,7.1-7.1,7.1s-7.1-3.2-7.1-7.1
		c0-24,14.7-40.8,35.8-40.8c22.1,0,38.8,17.6,38.8,40.8v21.9L579,498V454.9z"/>
	<path d="M547.9,546.4c-20,0-36.3-16.3-36.3-36.3c0-20,16.3-36.3,36.3-36.3c8.6,0,15.2,2.4,22.7,8.3l0.1,18.5
		c-2.1-1.5-6.2-4.4-7.5-5.4c-5.8-4.6-11.2-7.1-15.4-7.1c-12.1,0-22,9.9-22,22c0,12.1,9.9,22,22,22c8.5,0,20.7-9.6,33.6-26.4
		c10.7-13.9,18.3-28,18.4-28.2c1.2-2.3,3.7-3.8,6.3-3.8c1.2,0,2.3,0.3,3.4,0.9c3.5,1.9,4.8,6.2,2.9,9.7c-0.3,0.6-8.3,15.4-19.7,30.1
		C576.5,535.7,561.4,546.4,547.9,546.4z"/>
	<path d="M864.8,546.7c-2.4,0-4.7-1.2-6-3.3c0-0.1-0.3-0.4-2.3-3.1c-5.9-7.8-26.2-32.2-43.6-55.8c-9.2-12.5-17.6-23.3-25-32
		l-0.6-0.7l-0.7,0.6c-5,4.4-8,6.6-11.6,8.8l0-17.7c0.3-0.2,0.4-0.3,0.5-0.4c0.2-0.1,0.2-0.1,0.4-0.3c0.2-0.2,0.5-0.5,1.2-1.1
		l0.7-0.6l-0.6-0.6c-12-12.6-16.7-14.2-17.8-14.4l-0.1,0h-0.1c-6.8,0-14.7,6.1-14.7,13.8c0,1.2,0.2,2.2,0.3,2.5l-1.2,17.8l-1-0.3
		c-8.9-5.4-12.5-11.3-12.5-20.1c0-14.9,13.6-28.1,29.1-28.1c4.8,0,12.3,2.1,28.2,18.8l0.6,0.6l0.6-0.6c7.1-7.1,15.1-15.9,23.8-25.9
		c21.1-24.3,30.7-35.6,31-35.9c1.4-1.8,3.4-2.8,5.7-2.8c1.6,0,3.1,0.5,4.3,1.5c3.1,2.4,3.7,6.9,1.4,10c-0.3,0.4-9.9,11.8-31.8,36.9
		c-9.1,10.5-17.5,19.5-24.9,27l-0.6,0.6l0.5,0.6c7.4,8.7,15.9,19.6,25.3,32.3c17.4,23.5,37.5,47.8,44.3,56.8c1.8,2.3,2.9,3.9,3,4
		c1,1.6,1.4,3.5,1,5.4c-0.4,1.9-1.5,3.5-3.1,4.5C867.5,546.3,866.2,546.7,864.8,546.7z"/>
</g>
</svg>
