<?xml version="1.0" encoding="utf-8"?>
<!-- Generator: Adobe Illustrator 21.0.0, SVG Export Plug-In . SVG Version: 6.00 Build 0)  -->
<svg version="1.1" xmlns="http://www.w3.org/2000/svg" xmlns:xlink="http://www.w3.org/1999/xlink" x="0px" y="0px"
	 viewBox="0 0 1190.6 841.9" style="enable-background:new 0 0 1190.6 841.9;" xml:space="preserve">
<style type="text/css">
	.st0{fill:#85F1FF;}
	.st1{fill:#00E1FF;}
	.st2{fill:#38E8FF;}
	.st3{fill:#00E1FF;stroke:#00E1FF;stroke-miterlimit:10;}
	.st4{fill:#FFE6EC;stroke:#00E1FF;stroke-miterlimit:10;}
	.st5{fill:#FFFFFF;}
	.st6{fill:#363EF0;}
	.st7{fill:#FFB6C9;}
	.st8{fill:#E7E7E7;}
	.st9{stroke:#00E1FF;stroke-miterlimit:10;}
	.st10{fill:#231F20;}
	.st11{fill:#3ACAAC;}
	.st12{fill:none;stroke:#41333A;stroke-width:0.5;stroke-miterlimit:10;}
	.st13{fill:#E5FCFF;}
	.st14{fill:none;stroke:#FFB900;stroke-width:0.5;stroke-miterlimit:10;}
	.st15{fill:none;stroke:#FFFFFF;stroke-width:0.4027;stroke-miterlimit:10;}
	.st16{fill:none;stroke:#FFFFFF;stroke-width:0.5;stroke-miterlimit:10;}
	.st17{fill:none;stroke:#FFFFFF;stroke-width:0.387;stroke-miterlimit:10;}
	.st18{clip-path:url(#SVGID_2_);}
</style>
<g id="Layer_2">
</g>
<g id="Layer_3">
</g>
<g id="Layer_1">
	<g>
		<path d="M466,327.7c-5.1,0-8,5-8,5v34.9v5.5v60c0,4.4,3.6,2,8,2s8,2.4,8-2V372v-4.4v-34.9C474,332.7,471.1,327.7,466,327.7z"/>
		<path d="M502.2,332.5c4.5-6.8,7.7-12.7,8.9-15.3c2-3.9-2.5-2.8-6.5-4.9c-3.9-2-5.8-6.4-7.8-2.4c-1.6,3.2-3.3,6.2-5,9l-9.5,13.6
			c-1.1,1.3-2.1,3.6-2.1,3.6l0.3,19.9c3.9-2.7,7.9-6.2,11.3-10c1.8,3,3.5,6,5,8.9c2,3.9,3.8-0.2,7.8-2.2c3.9-2,8.5-1.1,6.5-5
			C509.8,345.3,506.6,339.3,502.2,332.5z"/>
		<path d="M466.2,303.6c-15.1,0-29.9,14.3-29.9,28.9c0,9.6,7.4,18.8,16.2,24.2l-0.2-22.7c0,0,0,0,0-1.5c0-5.8,7.7-12.9,13.9-12.9
			c2.7,0,7.9,4.2,11.8,8.1l9.4-13.4C480.9,308.1,473.6,303.6,466.2,303.6z"/>
		<path d="M555.7,215.5c-10.8-10-24.8-15.4-39.5-15.4c-30.6,0-55.8,23.8-58.1,53.8c-0.1,0.6-0.2,1.1-0.2,1.7v42.7c9.3-4.7,16,0,16,0
			v-40c0-23.3,19-42.3,42.3-42.3c10.7,0,20.8,4,28.7,11.2c1.5,1.4,7.1-3.4,8.7-5.1C556.6,218.9,559,218.5,555.7,215.5z"/>
		<path d="M417.6,290.9c0,0,4.9,0.4,6.6,1c4.2,1.4,3.1-3.5,4.5-7.6c1.4-4.2,4.7-6.1,0.6-7.5c-6.4-2.2-15.1-1.8-20.4,1.5
			C408.8,278.3,415,282.2,417.6,290.9z"/>
		<path d="M393.7,366.8c-0.4,0-0.7-0.1-1.1-0.1h-28.1c-0.6,0-1.1,0.1-1.7,0.2c-0.5-0.1-1.1-0.2-1.7-0.2c-4.3,0-7.7-3.5-7.7-7.7
			s3.5-7.7,7.7-7.7h17.4c0.1,0,0.2,0,0.3,0c0.2,0,0.4,0,0.6,0h3.3c1.1,0,2.2-0.2,3.1-0.6c16.2-3,27.9-16.3,30.2-34.5
			c0.3-0.8,0.4-1.6,0.4-2.5c0-0.7,0-1.3,0-2c0-0.7,0-1.4,0-2.1h-0.2c-1.8-21.7-17.7-37.6-38.5-37.6c-22.9,0-37.7,14.8-37.7,37.6
			c0,9.5,3.9,19,4.4,20l16.4-2.3c-0.9-2-4.8-12.5-4.8-17.7c0-14.2,7.5-21.6,21.7-21.6c10.5,0,21.7,7.4,22.6,23.6
			c-0.7,11.9-7.2,23.3-21,23.7h-18.3c-13.1,0-23.7,10.6-23.7,23.7s10.6,23.7,23.7,23.7c0.6,0,1.1-0.1,1.7-0.2
			c0.5,0.1,1.1,0.2,1.7,0.2h26.5c16.8,0,31.5,15.6,31.5,33.3c0,17.4-16.2,32.7-34.6,32.7h-14.2c-18.4,0-34.6-15.3-34.6-32.7
			c0-11.3,5.7-21.2,14.4-27.1l-14.2-9.2c-10,8.9-16.2,21.9-16.2,36.3c0,26.4,23.2,48.7,50.6,48.7H391c0.7,0,1.3-0.1,2-0.3
			c25.2-2.5,45.6-23.7,45.6-48.4C438.5,390.2,418.3,368.3,393.7,366.8z"/>
	</g>
</g>
</svg>
