<?xml version="1.0" encoding="utf-8"?>
<!-- Generator: Adobe Illustrator 21.0.0, SVG Export Plug-In . SVG Version: 6.00 Build 0)  -->
<svg version="1.1" xmlns="http://www.w3.org/2000/svg" xmlns:xlink="http://www.w3.org/1999/xlink" x="0px" y="0px"
	 viewBox="0 0 1980 421.9" style="enable-background:new 0 0 1980 421.9;" xml:space="preserve">
<style type="text/css">
	.st0{fill:#85F1FF;}
	.st1{fill:#00E1FF;}
	.st2{fill:#38E8FF;}
	.st3{fill:#00E1FF;stroke:#00E1FF;stroke-miterlimit:10;}
	.st4{fill:#FFE6EC;stroke:#00E1FF;stroke-miterlimit:10;}
	.st5{fill:#FFFFFF;}
	.st6{fill:#363EF0;}
	.st7{fill:#FFB6C9;}
	.st8{fill:#E7E7E7;}
	.st9{stroke:#00E1FF;stroke-miterlimit:10;}
	.st10{fill:#231F20;}
	.st11{fill:#3ACAAC;}
	.st12{fill:none;stroke:#41333A;stroke-width:0.5;stroke-miterlimit:10;}
	.st13{fill:#E5FCFF;}
	.st14{fill:none;stroke:#FFB900;stroke-width:0.5;stroke-miterlimit:10;}
	.st15{fill:none;stroke:#FFFFFF;stroke-width:0.4027;stroke-miterlimit:10;}
	.st16{fill:none;stroke:#FFFFFF;stroke-width:0.5;stroke-miterlimit:10;}
	.st17{fill:none;stroke:#FFFFFF;stroke-width:0.387;stroke-miterlimit:10;}
	.st18{clip-path:url(#SVGID_2_);}
</style>
<g id="Layer_2">
</g>
<g id="Layer_3">
</g>
<g id="Layer_1">
	<g>
		<g>
			<path class="st1" d="M746.2,306.1c44.4-26.4,92.5-46.4,142.5-59.2c14.9-3.8,30.1-7.1,45.5-7.5c-1.3-16-2.6-32.1-3.9-48.1
				c-22.2,19.8-41.4,42.9-56.7,68.4c-4.3,7.2-8.3,14.5-12,22.1c-0.4,1.4-0.5,2.9-0.6,4.4c-0.2,2.3-0.2,4.5-0.1,6.8
				c0.1,5.1,0.4,10.3,0.9,15.4c0.2,1.8,2.5,21.3,4.3,20.7c48.4-17.3,96.7-34.6,145.1-51.9c13.8-4.9,27.6-9.9,41.3-14.8
				c-1.3-16-2.6-32.1-3.9-48.1c-17.7,21.9-41.1,39-56,63.2c-4.1,6.6-7.3,13.7-9.3,21.2c-0.9,3.4-0.8,7.7-0.7,11.2
				c0.1,5.1,0.4,10.3,0.9,15.4c0.4,4.6,0.9,9.2,1.8,13.8c0.1,0.7,1.6,7.4,2.5,6.9c26-15.9,52.9-30.4,80.4-43.5
				c27.7-13.1,56.1-24.7,85-34.8c16.3-5.7,32.7-10.8,49.3-15.5c1.4-0.4,1.3-7.1,1.3-7.2c0.2-5.6-0.1-11.5-0.6-17.1
				c-0.2-1.8-2.4-24.5-4.6-23.9c-29.3,8.3-58.3,18.1-86.6,29.4c-28.4,11.4-56.3,24.3-83.3,38.7c-15.2,8.1-30.2,16.6-44.9,25.6
				c1.5,15.7,3,31.5,4.5,47.2c2.6-9.5,7.1-18.2,12.7-26.3c-0.2,0.3-0.4,0.6-0.6,0.9c14.9-21.2,35.8-37.1,52-57.1
				c1.4-1.7,1.2-5.2,1.3-7.2c0.2-5.6-0.1-11.5-0.6-17.1c-0.1-1.7-2.7-24.5-4.6-23.9c-48.4,17.3-96.7,34.6-145.1,51.9
				c-13.8,4.9-27.6,9.9-41.3,14.8c1.5,15.7,3,31.5,4.5,47.2c6.5-13.4,14.1-26.2,22.6-38.5c-0.2,0.3-0.4,0.6-0.6,0.9
				c13.1-18.8,28.3-35.9,45.4-51.1c1.5-1.3,1.3-5.9,1.3-7.2c0.2-5.6-0.1-11.5-0.6-17.1c-0.5-5.7-1-11.4-2.2-17
				c-0.2-1.1-1-6.9-2.5-6.9c-14,0.4-27.8,3.1-41.3,6.5c-12.4,3.1-24.7,6.6-36.9,10.5c-24.6,7.9-48.5,17.7-71.7,29
				c-13,6.4-25.7,13.3-38.1,20.7c-1.5,0.9-1.3,6.5-1.3,7.2c-0.2,5.6,0.1,11.5,0.6,17.1c0.5,5.7,1,11.4,2.2,17
				C743.9,299.9,745.4,306.7,746.2,306.1L746.2,306.1z"/>
		</g>
		<g>
			<path d="M1133,240.5v52.1c0,2.3,1.9,1,4.2,1c2.3,0,4.2,1.3,4.2-1v-50.8c0,0-2.5-4.1-5.2-4.1C1133.6,237.6,1133,240.5,1133,240.5z
				"/>
			<path d="M1133,222.6v-44.4c0-2.3,1.9-1.3,4.2-1.3c2.3,0,4.2-1,4.2,1.3v44.4C1141.4,222.6,1137.3,220,1133,222.6z"/>
		</g>
		<g>
			<path d="M971.9,293.6c-2.3,0-4.2,1.3-4.2-1v-40.2l8.4-5.7v45.9C976.1,294.8,974.2,293.6,971.9,293.6z"/>
		</g>
		<g>
			<path d="M1079.7,245.4V292c0,2.3-1.9,1-4.2,1c-2.3,0-4.2,1.3-4.2-1v-40.5L1079.7,245.4z M1078.9,232.4c4.2-2.9,8.8-5.6,13.5-5.6
				c9.9,0,21.1,9,21.1,21.1v44.7c0,2.3-1.9,1-4.2,1s-4.2,1.3-4.2-1v-44.7c0-5.9-5.6-12.7-12.7-12.7c-3.4,0-8.7,4-12.5,6.9
				c-0.1,0.1-0.2,0.1-0.2,0.2c0,0-6.5,4.3-8.4,5c-0.5,0.1-1,0.2-1.5,0.2c-6.5,0-10.9-5.6-10.9-10.9c0-5.4,5.5-10.9,10.9-10.9
				c2.7,0,6,1.9,7.9,4.4l-6.5,5.4c0-1.1-1-1.3-1.5-1.4c-0.8,0-2.5,0.5-2.5,2.5c0,1.7,0.8,2.3,2.3,2.5c0.4-0.2,1-0.5,1.7-1"/>
		</g>
		<path d="M977.3,231.1c-0.6,0.4-1.3,0.8-1.9,1.3l-7.4,5.5c-0.8,0.6-1.5,1-1.9,1.2c-2,0-2.8-1.1-2.8-2.5c0-1.5,1-2.5,2.2-2.5
			c0.2,0,1.4-0.2,1.7,0.9l6.7-5.1c-1.9-2.6-4.8-4.1-7.6-4.1c-5.4,0-10.9,5.5-10.9,10.9c0,5.2,4.4,10.9,10.9,10.9
			c3.1,0,6-2.2,10.1-5.4c3.8-2.9,9-6.9,12.5-6.9c3.5,0,6.9,1.4,9.1,3.7c1.6,1.7,1.7-0.8,3.4-2.4c1.7-1.6,4.2-1.7,2.7-3.4
			c-3.8-4-9.4-6.3-15.2-6.3C984.9,226.8,980.9,228.7,977.3,231.1"/>
		<g>
			<path d="M923.5,237.5c-2.7,0-4.2,2.6-4.2,2.6v18.3v2.9v31.4c0,2.3,1.9,1,4.2,1c2.3,0,4.2,1.3,4.2-1v-31.9v-2.3v-18.3
				C927.7,240.1,926.2,237.5,923.5,237.5z"/>
			<path d="M919.3,222.1v-26.5c0-2.3,1.9-4.2,4.2-4.2c2.3,0,4.2,1.9,4.2,4.2v26.5C927.7,222.1,924.2,219.7,919.3,222.1z"/>
			<g>
				<path d="M916.4,252.6c-4.6-2.8-8.5-7.6-8.5-12.6c0-7.6,7.7-15.1,15.6-15.1c3.9,0,7.7,2.4,11.1,5.6l-4.9,7
					c-2.1-2-4.8-4.2-6.2-4.2c-3.3,0-7.3,3.7-7.3,6.7c0,0.8,0,0.8,0,0.8L916.4,252.6 M937,232.9c0.9-1.5,1.8-3,2.6-4.7
					c1.1-2.1,2,0.2,4.1,1.3c2.1,1,4.4,0.5,3.4,2.5c-0.7,1.3-2.3,4.4-4.7,8c2.3,3.5,4,6.7,4.7,8c1,2.1-1.3,1.6-3.4,2.6
					c-2.1,1-3,3.2-4.1,1.2l0,0c-0.8-1.6-1.7-3.1-2.6-4.7c-1.8,2-3.9,3.8-5.9,5.2l-0.2-10.4c0,0,0.6-1.2,1.1-1.9 M916.4,252.6"/>
			</g>
			<g>
				<path d="M923.5,200.8c-2.3,0-4.2-1.4-4.2-3.7c0-16.8,13.7-30.4,30.4-30.4c2.3,0,4.2,1.9,4.2,4.2s-1.9,4.2-4.2,4.2
					c-12.2,0-22.1,9.9-22.1,22.1C927.7,199.4,925.8,200.8,923.5,200.8z"/>
			</g>
			<g>
				<path d="M964.7,180.8c-4.1-3.8-9.4-5.9-15-5.9c-2.3,0-4.2-1.9-4.2-4.2s1.9-4.2,4.2-4.2c7.7,0,15,2.9,20.6,8.1
					c1.7,1.6,0.4,1.8-1.1,3.5C968.5,179.1,965.5,181.6,964.7,180.8z"/>
			</g>
		</g>
		<g>
			<g>
				<path d="M1051,282.8v9.7c0,2.3-1.9,1-4.2,1c-2.3,0-4.2,1.3-4.2-1l0,0"/>
				<path d="M1042.6,271.4v-22.9c0-7.8-5.2-13.4-12.4-13.4c-8,0-10.8,6.9-10.8,13.4c0,2.3-1.8,0.3-4.1,0.3c-2.3,0-4.2,2-4.2-0.3
					c0-12.8,7.9-21.8,19.2-21.8c11.8,0,20.7,9.4,20.7,21.8V259"/>
			</g>
			<g>
				<path d="M1026.8,295.7c-10.7,0-19.4-8.7-19.4-19.4c0-10.7,8.7-19.4,19.4-19.4c4.1,0,7.8,1,12.3,4.6l0.1,10.7
					c0,0-3.7-2.6-4.6-3.4c-3-2.4-5.7-3.6-7.8-3.6c-6.1,0-11.1,5-11.1,11.1c0,6.1,5,11.1,11.1,11.1c4.3,0,10.6-5,17.2-13.6
					c5.6-7.3,9.5-14.6,9.6-14.7c1.1-2,2.4,0,4.4,1.1c2,1.1,4,0.8,2.9,2.8c-0.2,0.3-4.3,8-10.3,15.8
					C1042.1,290,1034.1,295.7,1026.8,295.7z"/>
			</g>
		</g>
		<g>
			<path d="M1152.4,235.5c3.4-3.4,7.5-7.8,12.4-13.5c11.3-13,16.1-18.6,16.2-18.7c1.4-1.8,2.8,0.5,4.7,1.9c1.8,1.4,3.4,1.3,2,3.1
				c-0.1,0.1-5.1,6-16.6,19.3c-4.8,5.5-9.1,10.2-13,14.1c3.7,4.4,8.1,9.9,13.2,16.9c11.5,15.6,22.4,30.3,22.5,30.4
				c1.3,1.9-1.1,1.8-3,3.1c-0.7,0.5-3.2,2.7-4,1.5c-0.1-0.2-10.5-14.2-21.7-29.4c-5.2-7.1-9.5-12.5-13-16.7
				c-2.9,2.6-4.5,3.7-6.8,5.1l0-10.2c0.9-0.7,0.1-0.1,1.3-1.1 M1143.4,238.3c-4.1-3.9-5.8-4.4-6.1-4.5c-4.1,0-7.2,3.6-7.2,6.7
				c0,0.8,0.2,1.3,0.2,1.3l-0.6,9.9l-1.1-0.3c-4.6-2.8-6.8-5.9-6.8-10.9c0-8,7.3-15.1,15.6-15.1c2.5,0,6.7,1.9,12.6,7.5
				L1143.4,238.3z"/>
		</g>
		<g>
			<g>
				<path d="M818.2,235.5c0,0,2.5,0.2,3.4,0.5c2.2,0.7,1.6-1.8,2.4-4c0.7-2.2,2.5-3.2,0.3-3.9c-3.4-1.1-7.9-0.9-10.7,0.8
					C813.6,228.9,816.8,231,818.2,235.5z"/>
			</g>
			<g>
				<path d="M780.1,255.8c-0.2-0.5-2.3-5.5-2.3-10.5c0-11.9,7.7-19.7,19.7-19.7c11.5,0,20.2,9.4,20.2,21.8c0,2.3-1.9,4.2-4.2,4.2
					c-2.3,0-4.2-1.9-4.2-4.2c0-9.2-6.1-13.4-11.8-13.4c-7.4,0-11.3,3.9-11.3,11.3c0,2.8,2.1,8.2,2.5,9.3L780.1,255.8z"/>
			</g>
			<g>
				<path d="M798,267.1c-2.3,0-4.2-1.9-4.2-4.2s1.9-4.2,4.2-4.2c7.8,0,11.3-6.7,11.3-13.4h8.4C817.7,257.9,809.4,267.1,798,267.1z"
					/>
			</g>
			<g>
				<path d="M784.7,286.8c-4.5,3.1-7.5,8.3-7.5,14.2c0,9.1,8.5,17.1,18.1,17.1h9c2.3,0,4.2,1.9,4.2,4.2s-1.9,4.2-4.2,4.2h-9
					c-14.3,0-26.4-11.7-26.4-25.4c0-7.5,3.3-14.3,8.5-18.9L784.7,286.8z"/>
			</g>
			<g>
				<path d="M805.1,283.5h-14.7c-2.3,0-4.2-1.9-4.2-4.2s1.9-4.2,4.2-4.2h14.7c2.3,0,4.2,1.9,4.2,4.2S807.5,283.5,805.1,283.5z"/>
			</g>
			<g>
				<path d="M825,305.1c-2.3,0-4.2-1.9-4.2-4.2c0-9.3-7.7-17.4-16.4-17.4c-2.3,0-4.2-1.9-4.2-4.2s1.9-4.2,4.2-4.2
					c13.4,0,24.8,11.8,24.8,25.8C829.1,303.2,827.3,305.1,825,305.1z"/>
			</g>
			<g>
				<path d="M802.7,326.4c-2.3,0-4.2-1.9-4.2-4.2s1.9-4.2,4.2-4.2c9.6,0,18.1-8,18.1-17.1c0-2.3,1.9-4.2,4.2-4.2
					c2.3,0,4.2,1.9,4.2,4.2C829.1,314.7,817,326.4,802.7,326.4z"/>
			</g>
			<g>
				<path d="M788.7,283.5c-6.8,0-12.4-5.6-12.4-12.4s5.6-12.4,12.4-12.4h11.3c2.3,0,4.2,1.9,4.2,4.2s-1.9,4.2-4.2,4.2h-11.3
					c-2.2,0-4,1.8-4,4s1.8,4,4,4c2.3,0,4.2,1.9,4.2,4.2S791.1,283.5,788.7,283.5z"/>
			</g>
		</g>
		<path d="M852.3,289.7c-12.6,0-21.8-10.2-21.8-24.1c0-2.3,1.9-4.1,4.1-4.1c2.3,0,4.1,1.9,4.1,4.1c0,7.9,4.2,15.9,13.5,15.9
			c8.7,0,15.9-7.1,15.9-15.9l-0.1-3.7c1.4-0.1,5.8-2.4,6.6-2.6c0.5-0.1,1.4-1.2,1.5-0.9c0.4,1,0.3,3.8,0.3,7.6
			C876.2,279.1,865.4,289.7,852.3,289.7z"/>
		<path d="M834.7,268.5c-2.3,0-4.1-1.9-4.1-4.1l0-13.5c0-13.8,9.9-24.1,23-24.1c13.1,0,24.5,11.9,23,23.3c-0.3,2.3-1.9,5-4.1,5
			c-2.3,0-4.1-1.9-4.1-4.1c0-9.2-6.2-15.9-14.7-15.9c-8.5,0-14.7,6.7-14.7,15.9l0,13.5C838.8,266.7,836.9,268.5,834.7,268.5z"/>
		<path d="M860.2,240.8c-0.5-0.3-1,0.6-1.4,1c-4.2,4.3-3.4,10.8,0.1,14.2c3.5,3.5,10.7,3.5,14.2-0.1c1.8-1.8,3.1-4.7,2.7-7.7
			l-7.7,0.6c0.5,0.9-0.9,2-1.1,2.2c-0.8,0.8-2.1,0.8-3.1-0.2c-0.9-0.9-0.9-2.7,0.4-4.1C864.4,246.8,863.6,242.8,860.2,240.8z"/>
		<path d="M877.3,241.5c0,0,8.4-2.4,9.2-3.5c0.8-1.1-1.8-6.3-2.5-7.3c-0.7-1-10.2,3.6-10.2,3.6C876.1,237.5,877.3,241.5,877.3,241.5
			z"/>
	</g>
</g>
</svg>
