<?xml version="1.0" encoding="utf-8"?>
<!-- Generator: Adobe Illustrator 21.0.0, SVG Export Plug-In . SVG Version: 6.00 Build 0)  -->
<svg version="1.1" xmlns="http://www.w3.org/2000/svg" xmlns:xlink="http://www.w3.org/1999/xlink" x="0px" y="0px"
	 viewBox="0 0 1190.6 841.9" style="enable-background:new 0 0 1190.6 841.9;" xml:space="preserve">
<style type="text/css">
	.st0{fill:#85F1FF;}
	.st1{fill:#00E1FF;}
	.st2{fill:#38E8FF;}
	.st3{fill:#00E1FF;stroke:#00E1FF;stroke-miterlimit:10;}
	.st4{fill:#FFE6EC;stroke:#00E1FF;stroke-miterlimit:10;}
	.st5{fill:#FFFFFF;}
	.st6{fill:#363EF0;}
	.st7{fill:#FFB6C9;}
	.st8{fill:#E7E7E7;}
	.st9{stroke:#00E1FF;stroke-miterlimit:10;}
	.st10{fill:#231F20;}
	.st11{fill:#3ACAAC;}
	.st12{fill:none;stroke:#41333A;stroke-width:0.5;stroke-miterlimit:10;}
	.st13{fill:#E5FCFF;}
	.st14{fill:none;stroke:#FFB900;stroke-width:0.5;stroke-miterlimit:10;}
	.st15{fill:none;stroke:#FFFFFF;stroke-width:0.4027;stroke-miterlimit:10;}
	.st16{fill:none;stroke:#FFFFFF;stroke-width:0.5;stroke-miterlimit:10;}
	.st17{fill:none;stroke:#FFFFFF;stroke-width:0.387;stroke-miterlimit:10;}
	.st18{clip-path:url(#SVGID_2_);}
</style>
<g id="Layer_2">
</g>
<g id="Layer_3">
</g>
<g id="Layer_1">
	<g>
		<path d="M884.1,395.6v99.7c0,4.4,3.6,8,8,8s8-3.6,8-8V398c0,0-4.8-7.9-9.9-7.9C885.2,390.1,884.1,395.6,884.1,395.6z"/>
		<path d="M884.1,361.3v-90c0-4.4,3.6-8,8-8s8,3.6,8,8v90C900.1,361.3,892.3,356.5,884.1,361.3z"/>
	</g>
	<g>
		<path d="M575.8,503.3c-4.4,0-8-3.6-8-8v-77l16-10.9v87.9C583.8,499.7,580.2,503.3,575.8,503.3z"/>
	</g>
	<g>
		<path d="M782,405v89.3c0,4.4-3.6,8-8,8s-8-3.6-8-8v-77.4L782,405z M780.5,380.1c7.9-5.6,16.9-10.7,25.8-10.7
			c19,0,40.3,17.2,40.3,40.3v85.6c0,4.4-3.6,8-8,8s-8-3.6-8-8v-85.6c0-11.3-10.6-24.3-24.3-24.3c-6.6,0-16.6,7.6-23.9,13.2
			c-0.2,0.1-0.3,0.2-0.5,0.3c0,0-12.5,8.2-16,9.6c-0.9,0.2-1.9,0.3-2.8,0.3c-12.4,0-20.8-10.8-20.8-20.8c0-10.3,10.5-20.8,20.8-20.8
			c5.1,0,11.5,3.6,15.2,8.4L766,385.9c0-2.2-1.9-2.5-2.8-2.6c-1.6,0-4.8,0.9-4.8,4.8c0,3.3,1.5,4.5,4.4,4.8c0.8-0.3,1.9-1,3.3-2"/>
	</g>
	<path d="M586,377.7c-1.2,0.8-2.4,1.6-3.6,2.4l-14.1,10.5c-1.5,1.1-2.8,1.9-3.7,2.2c-3.9,0-5.4-2.1-5.4-4.8c0-2.9,1.8-4.8,4.2-4.8
		c0.4,0.1,2.7-0.4,3.3,1.6l12.8-9.8c-3.7-4.9-9.3-7.8-14.5-7.8c-10.3,0-20.8,10.5-20.8,20.8c0,10,8.4,20.8,20.8,20.8
		c5.8,0,11.5-4.3,19.3-10.3c7.3-5.6,17.3-13.2,23.9-13.2c6.8,0,13.1,2.6,17.5,7.2c3,3.2,8.1,3.3,11.3,0.3c3.2-3,3.3-8.1,0.3-11.3
		c-7.3-7.7-17.9-12.1-29.1-12.1C600.6,369.4,593,373.1,586,377.7"/>
	<g>
		<path d="M483.1,389.9c-5.1,0-8,5-8,5v34.9v5.5v60c0,4.4,3.6,8,8,8s8-3.6,8-8v-61.1v-4.4v-34.9
			C491.1,394.8,488.2,389.9,483.1,389.9z"/>
		<path d="M475.1,360.4v-42.7c0-4.4,3.6-8,8-8s8,3.6,8,8v42.7C491.1,360.4,484.4,355.7,475.1,360.4z"/>
		<g>
			<path d="M469.6,418.9c-8.7-5.4-16.2-14.5-16.2-24.2c0-14.6,14.8-28.9,29.9-28.9c9.2,0,18.2,6.9,25.7,15.3c1.7-2.8,3.4-5.8,5-9
				c2-3.9,6.8-5.5,10.8-3.5c3.9,2,5.5,6.8,3.5,10.8c-1.3,2.5-4.5,8.5-8.9,15.3c4.5,6.8,7.7,12.7,8.9,15.3c2,3.9,0.4,8.8-3.5,10.8
				c-3.9,2-8.8,0.4-10.8-3.5l0,0c-1.5-3-3.2-6-5-8.9c-3.4,3.8-7.4,7.3-11.3,10l-0.3-19.9c0,0,1.1-2.3,2.1-3.6
				c-6.1-7.6-12.2-12.9-16.2-12.9c-6.2,0-13.9,7.1-13.9,12.9c0,1.5,0,1.5,0,1.5L469.6,418.9 M469.6,418.9"/>
		</g>
		<g>
			<path d="M483.1,327.6c-4.4,0-8-2.7-8-7.1c0-32.1,26.1-58.3,58.3-58.3c4.4,0,8,3.6,8,8s-3.6,8-8,8c-23.3,0-42.3,19-42.3,42.3
				C491.1,324.9,487.5,327.6,483.1,327.6z"/>
		</g>
		<g>
			<path d="M567.4,291.5c-1.9,0-3.9-0.7-5.4-2.1c-7.8-7.2-18-11.2-28.7-11.2c-4.4,0-8-3.6-8-8s3.6-8,8-8c14.7,0,28.7,5.5,39.5,15.4
				c3.2,3,3.4,8.1,0.5,11.3C571.7,290.7,569.6,291.5,567.4,291.5z"/>
		</g>
	</g>
	<g>
		<g>
			<path d="M727.1,478.6v16.6c0,4.4-3.6,8-8,8s-8-3.6-8-8l0,0"/>
			<path d="M711.1,456.8v-45.8c0-14.9-10-25.7-23.7-25.7c-15.2,0-20.7,13.3-20.7,25.7c0,4.4-3.6,8-8,8s-8-3.6-8-8
				c0-24.5,15.1-41.7,36.7-41.7c22.6,0,39.7,17.9,39.7,41.7v22.2"/>
		</g>
		<g>
			<path d="M680.9,503.3c-20.5,0-37.2-16.7-37.2-37.2c0-20.5,16.7-37.2,37.2-37.2c7.8,0,14.9,1.9,23.6,8.7l0.2,20.6
				c0,0-7.1-5-8.9-6.4c-5.7-4.5-10.8-6.9-14.9-6.9c-11.7,0-21.2,9.5-21.2,21.2c0,11.7,9.5,21.2,21.2,21.2c8.2,0,20.2-9.5,32.9-26
				c10.7-13.9,18.3-27.9,18.3-28.1c2.1-3.9,6.9-5.4,10.8-3.3c3.9,2.1,5.4,6.9,3.3,10.8c-0.3,0.6-8.3,15.3-19.7,30.2
				C710,492.4,694.7,503.3,680.9,503.3z"/>
		</g>
	</g>
	<g>
		<path d="M875.4,416.7c-8.7-5.4-13-11.2-13-20.9c0-15.4,14-28.9,29.9-28.9c5.6,0,13.5,3,28.8,19.1c6.5-6.6,14.3-15,23.8-25.9
			c21.7-24.9,30.7-35.6,30.9-35.9c2.7-3.5,7.7-4.2,11.2-1.5c3.5,2.7,4.2,7.7,1.5,11.2c-0.2,0.3-9.7,11.6-31.9,37
			c-9.2,10.5-17.5,19.6-24.9,27c7.1,8.4,15.5,19,25.3,32.3c22.1,29.9,44.9,60.1,45.1,60.4c2.4,3.7,1.3,8.7-2.4,11.1
			c-1.3,0.9-2.8,1.3-4.3,1.3c-2.6,0-5.2-1.3-6.7-3.7c-0.2-0.3-22.2-29.3-43.7-58.4c-10-13.6-18.2-24-24.9-32
			c-5.6,4.9-8.7,7.1-13,9.7l-0.1-19.6c1.7-1.3,0.2-0.1,2.4-2c-12-12.7-16.5-14-17.3-14.2c-7.8,0.1-13.8,7-13.8,12.9
			c0,1.4,0.3,2.5,0.3,2.5l-1.2,19L875.4,416.7z"/>
	</g>
	<g>
		<g>
			<path d="M367.3,423.8l0,11.8c0,14.2-11.5,25.7-25.7,25.7c-15,0-21.7-12.9-21.7-25.7c0-4.4-3.6-8-8-8s-8,3.6-8,8
				c0,24.2,15.8,41.7,37.7,41.7c23,0,41.7-18.7,41.7-41.7l0,0C383.3,435.6,372.2,432.5,367.3,423.8z"/>
		</g>
		<g>
			<path d="M311.9,441.6c4.4,0,8-3.6,8-8l0-22.7c0-14.9,10-25.7,23.7-25.7s23.7,10.8,23.7,25.7c0,4.4,3.6,8,8,8s8-3.6,8-8
				c0-23.8-17.1-41.7-39.7-41.7s-39.7,17.9-39.7,41.7l0,22.7C303.9,438,307.5,441.6,311.9,441.6z"/>
		</g>
		<g>
			<path d="M386.1,427.6c10.4,0,18.8-8.4,18.8-18.8c0-4.4-3.6-8-8-8s-8,3.6-8,8c0,1.5-1.3,2.8-2.8,2.8c-1.5,0-2.8-1.3-2.8-2.8
				c0-4.4-3.6-8-8-8s-8,3.6-8,8C367.3,419.2,375.8,427.6,386.1,427.6z"/>
		</g>
	</g>
	<g>
		<g>
			<path d="M269.3,397.4c-4.4,0-8-3.6-8-8s3.6-8,8-8c3.3,0,6-2.7,6-6c0-4.4,3.6-8,8-8s8,3.6,8,8
				C291.3,387.5,281.4,397.4,269.3,397.4z"/>
		</g>
		<g>
			<path d="M208.5,426.9c-0.5-1-4.4-10.5-4.4-20c0-22.9,14.8-37.6,37.7-37.6c22.1,0,38.7,17.9,38.7,41.7c0,4.4-3.6,8-8,8s-8-3.6-8-8
				c0-17.6-11.8-25.7-22.7-25.7c-14.2,0-21.7,7.5-21.7,21.6c0,5.3,4,15.7,4.8,17.7L208.5,426.9z"/>
		</g>
		<g>
			<path d="M242.8,448.5c-4.4,0-8-3.6-8-8s3.6-8,8-8c15,0,21.7-12.9,21.7-25.7h16C280.5,431,264.6,448.5,242.8,448.5z"/>
		</g>
		<g>
			<path d="M217.4,486.2c-8.7,5.9-14.4,15.8-14.4,27.1c0,17.4,16.2,32.7,34.6,32.7h17.3c4.4,0,8,3.6,8,8s-3.6,8-8,8h-17.3
				c-27.4,0-50.6-22.3-50.6-48.7c0-14.4,6.3-27.3,16.2-36.3L217.4,486.2z"/>
		</g>
		<g>
			<path d="M256.5,480h-28.1c-4.4,0-8-3.6-8-8s3.6-8,8-8h28.1c4.4,0,8,3.6,8,8S260.9,480,256.5,480z"/>
		</g>
		<g>
			<path d="M294.4,521.3c-4.4,0-8-3.6-8-8c0-17.8-14.7-33.3-31.5-33.3c-4.4,0-8-3.6-8-8s3.6-8,8-8c25.7,0,47.5,22.6,47.5,49.3
				C302.4,517.7,298.9,521.3,294.4,521.3z"/>
		</g>
		<g>
			<path d="M251.8,562c-4.4,0-8-3.6-8-8s3.6-8,8-8c18.4,0,34.6-15.3,34.6-32.7c0-4.4,3.6-8,8-8s8,3.6,8,8
				C302.4,539.7,279.3,562,251.8,562z"/>
		</g>
		<g>
			<path d="M225.1,480c-13.1,0-23.7-10.6-23.7-23.7s10.6-23.7,23.7-23.7h21.6c4.4,0,8,3.6,8,8s-3.6,8-8,8h-21.6
				c-4.3,0-7.7,3.5-7.7,7.7s3.5,7.7,7.7,7.7c4.4,0,8,3.6,8,8S229.5,480,225.1,480z"/>
		</g>
	</g>
</g>
</svg>
