<?xml version="1.0" encoding="utf-8"?>
<!-- Generator: Adobe Illustrator 21.0.0, SVG Export Plug-In . SVG Version: 6.00 Build 0)  -->
<svg version="1.1" xmlns="http://www.w3.org/2000/svg" xmlns:xlink="http://www.w3.org/1999/xlink" x="0px" y="0px"
	 viewBox="0 0 1190.6 841.9" style="enable-background:new 0 0 1190.6 841.9;" xml:space="preserve">
<style type="text/css">
	.st0{fill:#85F1FF;}
	.st1{fill:#00E1FF;}
	.st2{fill:#38E8FF;}
	.st3{fill:#00E1FF;stroke:#00E1FF;stroke-miterlimit:10;}
	.st4{fill:#FFE6EC;stroke:#00E1FF;stroke-miterlimit:10;}
	.st5{fill:#FFFFFF;}
	.st6{fill:#363EF0;}
	.st7{fill:#FFB6C9;}
	.st8{fill:#E7E7E7;}
	.st9{stroke:#00E1FF;stroke-miterlimit:10;}
	.st10{fill:#231F20;}
	.st11{fill:#3ACAAC;}
	.st12{fill:none;stroke:#41333A;stroke-width:0.5;stroke-miterlimit:10;}
	.st13{fill:#E5FCFF;}
	.st14{fill:none;stroke:#FFB900;stroke-width:0.5;stroke-miterlimit:10;}
	.st15{fill:none;stroke:#FFFFFF;stroke-width:0.4027;stroke-miterlimit:10;}
	.st16{fill:none;stroke:#FFFFFF;stroke-width:0.5;stroke-miterlimit:10;}
	.st17{fill:none;stroke:#FFFFFF;stroke-width:0.387;stroke-miterlimit:10;}
	.st18{clip-path:url(#SVGID_2_);}
</style>
<g id="Layer_2">
	<g>
		<g>
			<path class="st1" d="M144.1,486.3c94.4-56.2,196.8-98.8,303.3-125.9c31.8-8.1,64.1-15.1,97.1-16c4.8-8.6,9.6-17.1,14.4-25.7
				c-50.2,44.6-92.6,97.1-127,154.7c-10.7,17.9-20.7,36.2-29.9,55c-0.1,0.2-2.8,7.1-2.6,7.1c103.2-36.9,206.3-73.9,309.5-110.8
				c29.4-10.5,58.8-21,88.2-31.6c4.4-8.2,8.9-16.4,13.3-24.6c-20,24.6-43.2,46.3-65.4,68.9c-23.5,24-45.1,49.3-62.1,78.4
				c-10,17.2-18.6,35.3-23.9,54.5c-0.1,0.8,0.1,0.9,0.7,0.4c55.5-33.9,112.7-64.9,171.5-92.7c58.8-27.8,119.2-52.5,180.7-73.9
				c34.7-12.1,69.8-23.1,105.2-33c1.3-0.4,2.5-2.4,3.1-3.3c2.1-2.8,3.9-5.9,5.7-9c1.8-3.1,3.5-6.2,4.9-9.4c0.2-0.4,1.6-4.4,1.3-4.3
				c-95.6,26.9-188.9,61.5-278.9,103.5c-44.6,20.8-88.3,43.5-131.1,67.8c-11.1,6.3-22.1,12.8-33.1,19.3c-2.6,1.6-5.2,3.1-7.8,4.7
				c-1.3,0.8-5.2,4.1-6.5,3.7c-0.6-0.2,3.9-12.4,4.5-13.9c1.6-4,3.1-7.3,5-10.9c-1.1,2.1,1.2-2,0.1-0.2c-1.1,1.9,1.3-2.3,1.2-2
				c-1.3,2.2,0,0.1,0.2-0.3c0.9-1.4,1-1.6,0.4-0.7c0.5-0.8,1.1-1.6,1.6-2.4c4.7-7.1,10.5-14.5,16.2-21.3
				c29.7-35.4,65.6-65,94.8-100.9c3.5-4.4,6.4-9.4,9.1-14.3c1-1.9,2.1-3.9,3-5.9c-0.4,0.8,1.8-4.5,1.3-4.3
				c-103.2,36.9-206.3,73.9-309.5,110.8c-29.4,10.5-58.8,21-88.2,31.6c-0.9,2.4-1.7,4.7-2.6,7.1c12.4-25.3,23.7-44.8,40.3-68.5
				c17-24.2,35.8-47.1,56.2-68.5c11.7-12.3,24-24.1,36.7-35.4c3.9-3.5,6.7-9.2,9.2-13.7c0.6-1,5.5-12,5.2-12
				c-29.9,0.9-59.2,6.7-88.2,13.8c-26.8,6.6-53.3,14.1-79.5,22.6c-52,16.9-102.8,37.4-151.8,61.5c-28,13.7-55.4,28.6-82.1,44.5
				c-1.5,0.9-3.4,4.2-4.2,5.5c-2.1,3.2-4.1,6.6-5.9,9.9c-1.4,2.6-3.1,5.3-3.9,8.1C143.7,484.9,142.7,487.1,144.1,486.3L144.1,486.3z
				"/>
		</g>
	</g>
</g>
<g id="Layer_3">
</g>
<g id="Layer_1">
	<g>
		<path d="M884.1,395.6v99.7c0,4.4,3.6,2,8,2s8,2.4,8-2V398c0,0-4.8-7.9-9.9-7.9C885.2,390.1,884.1,395.6,884.1,395.6z"/>
		<path d="M884.1,361.3v-85c0-4.4,3.6-2.4,8-2.4s8-2,8,2.4v85C900.1,361.3,892.3,356.5,884.1,361.3z"/>
	</g>
	<g>
		<path d="M575.8,497.3c-4.4,0-8,2.4-8-2v-77l16-10.9v87.9C583.8,499.7,580.2,497.3,575.8,497.3z"/>
	</g>
	<g>
		<path d="M782,405v89.3c0,4.4-3.6,2-8,2s-8,2.4-8-2v-77.4L782,405z M780.5,380.1c7.9-5.6,16.9-10.7,25.8-10.7
			c19,0,40.3,17.2,40.3,40.3v85.6c0,4.4-3.6,2-8,2s-8,2.4-8-2v-85.6c0-11.3-10.6-24.3-24.3-24.3c-6.6,0-16.6,7.6-23.9,13.2
			c-0.2,0.1-0.3,0.2-0.5,0.3c0,0-12.5,8.2-16,9.6c-0.9,0.2-1.9,0.3-2.8,0.3c-12.4,0-20.8-10.8-20.8-20.8c0-10.3,10.5-20.8,20.8-20.8
			c5.1,0,11.5,3.6,15.2,8.4L766,385.9c0-2.2-1.9-2.5-2.8-2.6c-1.6,0-4.8,0.9-4.8,4.8c0,3.3,1.5,4.5,4.4,4.8c0.8-0.3,1.9-1,3.3-2"/>
	</g>
	<path d="M586,377.7c-1.2,0.8-2.4,1.6-3.6,2.4l-14.1,10.5c-1.5,1.1-2.8,1.9-3.7,2.2c-3.9,0-5.4-2.1-5.4-4.8c0-2.9,1.8-4.8,4.2-4.8
		c0.4,0.1,2.7-0.4,3.3,1.6l12.8-9.8c-3.7-4.9-9.3-7.8-14.5-7.8c-10.3,0-20.8,10.5-20.8,20.8c0,10,8.4,20.8,20.8,20.8
		c5.8,0,11.5-4.3,19.3-10.3c7.3-5.6,17.3-13.2,23.9-13.2c6.8,0,13.1,2.6,17.5,7.2c3,3.2,3.3-1.5,6.5-4.5c3.2-3,8.1-3.3,5.1-6.5
		c-7.3-7.7-17.9-12.1-29.1-12.1C600.6,369.4,593,373.1,586,377.7"/>
	<g>
		<path d="M483.1,389.9c-5.1,0-8,5-8,5v34.9v5.5v60c0,4.4,3.6,2,8,2s8,2.4,8-2v-61.1v-4.4v-34.9
			C491.1,394.8,488.2,389.9,483.1,389.9z"/>
		<path d="M475.1,360.4v-50.7c0-4.4,3.6-8,8-8s8,3.6,8,8v50.7C491.1,360.4,484.4,355.7,475.1,360.4z"/>
		<g>
			<path d="M469.6,418.9c-8.7-5.4-16.2-14.5-16.2-24.2c0-14.6,14.8-28.9,29.9-28.9c7.5,0,14.8,4.5,21.2,10.7l-9.4,13.4
				c-3.9-3.9-9.1-8.1-11.8-8.1c-6.2,0-13.9,7.1-13.9,12.9c0,1.5,0,1.5,0,1.5L469.6,418.9 M509,381.1c1.7-2.8,3.4-5.8,5-9
				c2-3.9,3.8,0.4,7.8,2.4c3.9,2,8.5,0.9,6.5,4.9c-1.3,2.5-4.5,8.5-8.9,15.3c4.5,6.8,7.7,12.7,8.9,15.3c2,3.9-2.5,3-6.5,5
				c-3.9,2-5.8,6.2-7.8,2.2l0,0c-1.5-3-3.2-6-5-8.9c-3.4,3.8-7.4,7.3-11.3,10l-0.3-19.9c0,0,1.1-2.3,2.1-3.6 M469.6,418.9"/>
		</g>
		<g>
			<path d="M483.1,319.6c-4.4,0-8-2.7-8-7.1c0-32.1,26.1-58.3,58.3-58.3c4.4,0,8,3.6,8,8s-3.6,8-8,8c-23.3,0-42.3,19-42.3,42.3
				C491.1,316.9,487.5,319.6,483.1,319.6z"/>
		</g>
		<g>
			<path d="M562,281.4c-7.8-7.2-18-11.2-28.7-11.2c-4.4,0-8-3.6-8-8s3.6-8,8-8c14.7,0,28.7,5.5,39.5,15.4c3.2,3,0.8,3.4-2.2,6.7
				C569.1,278,563.5,282.8,562,281.4z"/>
		</g>
	</g>
	<g>
		<g>
			<path d="M727.1,476.6v18.6c0,4.4-3.6,2-8,2s-8,2.4-8-2l0,0"/>
			<path d="M711.1,454.8v-43.8c0-14.9-10-25.7-23.7-25.7c-15.2,0-20.7,13.3-20.7,25.7c0,4.4-3.5,0.7-7.9,0.7s-8.1,3.8-8.1-0.7
				c0-24.5,15.1-41.7,36.7-41.7c22.6,0,39.7,17.9,39.7,41.7v20.2"/>
		</g>
		<g>
			<path d="M680.9,501.3c-20.5,0-37.2-16.7-37.2-37.2c0-20.5,16.7-37.2,37.2-37.2c7.8,0,14.9,1.9,23.6,8.7l0.2,20.6
				c0,0-7.1-5-8.9-6.4c-5.7-4.5-10.8-6.9-14.9-6.9c-11.7,0-21.2,9.5-21.2,21.2c0,11.7,9.5,21.2,21.2,21.2c8.2,0,20.2-9.5,32.9-26
				c10.7-13.9,18.3-27.9,18.3-28.1c2.1-3.9,4.6,0,8.5,2.1c3.9,2.1,7.7,1.6,5.6,5.5c-0.3,0.6-8.3,15.3-19.7,30.2
				C710,490.4,694.7,501.3,680.9,501.3z"/>
		</g>
	</g>
	<g>
		<path d="M921.2,386c6.5-6.6,14.3-15,23.8-25.9c21.7-24.9,30.7-35.6,30.9-35.9c2.7-3.5,5.4,1,8.9,3.7c3.5,2.7,6.5,2.5,3.8,6
			c-0.2,0.3-9.7,11.6-31.9,37c-9.2,10.5-17.5,19.6-24.9,27c7.1,8.4,15.5,19,25.3,32.3c22.1,29.9,42.8,57.9,43,58.2
			c2.4,3.7-2,3.4-5.7,5.8c-1.3,0.9-6.2,5.2-7.7,2.8c-0.2-0.3-20.1-27.1-41.5-56.2c-10-13.6-18.2-24-24.9-32c-5.6,4.9-8.7,7.1-13,9.7
			l-0.1-19.6c1.7-1.3,0.2-0.1,2.4-2 M904,391.5c-7.9-7.5-11.1-8.4-11.7-8.5c-7.8,0.1-13.8,7-13.8,12.9c0,1.4,0.3,2.5,0.3,2.5
			l-1.2,19l-2.1-0.6c-8.7-5.4-13-11.2-13-20.9c0-15.4,14-28.9,29.9-28.9c4.8,0,12.7,3.7,24.1,14.4L904,391.5z"/>
	</g>
	<g>
		<g>
			<path d="M281.5,386.2c0,0,4.9,0.4,6.6,1c4.2,1.4,3.1-3.5,4.5-7.6s4.7-6.1,0.6-7.5c-6.4-2.2-15.1-1.8-20.4,1.5
				C272.7,373.5,278.9,377.5,281.5,386.2z"/>
		</g>
		<g>
			<path d="M208.5,424.9c-0.5-1-4.4-10.5-4.4-20c0-22.9,14.8-37.6,37.7-37.6c22.1,0,38.7,17.9,38.7,41.7c0,4.4-3.6,8-8,8s-8-3.6-8-8
				c0-17.6-11.8-25.7-22.7-25.7c-14.2,0-21.7,7.5-21.7,21.6c0,5.3,4,15.7,4.8,17.7L208.5,424.9z"/>
		</g>
		<g>
			<path d="M242.8,446.5c-4.4,0-8-3.6-8-8s3.6-8,8-8c15,0,21.7-12.9,21.7-25.7h16C280.5,429,264.6,446.5,242.8,446.5z"/>
		</g>
		<g>
			<path d="M217.4,484.2c-8.7,5.9-14.4,15.8-14.4,27.1c0,17.4,16.2,32.7,34.6,32.7h17.3c4.4,0,8,3.6,8,8s-3.6,8-8,8h-17.3
				c-27.4,0-50.6-22.3-50.6-48.7c0-14.4,6.3-27.3,16.2-36.3L217.4,484.2z"/>
		</g>
		<g>
			<path d="M256.5,478h-28.1c-4.4,0-8-3.6-8-8s3.6-8,8-8h28.1c4.4,0,8,3.6,8,8S260.9,478,256.5,478z"/>
		</g>
		<g>
			<path d="M294.4,519.3c-4.4,0-8-3.6-8-8c0-17.8-14.7-33.3-31.5-33.3c-4.4,0-8-3.6-8-8s3.6-8,8-8c25.7,0,47.5,22.6,47.5,49.3
				C302.4,515.7,298.9,519.3,294.4,519.3z"/>
		</g>
		<g>
			<path d="M251.8,560c-4.4,0-8-3.6-8-8s3.6-8,8-8c18.4,0,34.6-15.3,34.6-32.7c0-4.4,3.6-8,8-8s8,3.6,8,8
				C302.4,537.7,279.3,560,251.8,560z"/>
		</g>
		<g>
			<path d="M225.1,478c-13.1,0-23.7-10.6-23.7-23.7s10.6-23.7,23.7-23.7h21.6c4.4,0,8,3.6,8,8s-3.6,8-8,8h-21.6
				c-4.3,0-7.7,3.5-7.7,7.7s3.5,7.7,7.7,7.7c4.4,0,8,3.6,8,8S229.5,478,225.1,478z"/>
		</g>
	</g>
	<path d="M346.7,489.8c-24.1,0-41.7-19.4-41.7-46.2c0-4.4,3.6-7.9,7.9-7.9s7.9,3.6,7.9,7.9c0,15.1,8,30.4,25.8,30.4
		c16.7,0,30.4-13.6,30.4-30.4l-0.2-7.1c2.7-0.2,11.2-4.5,12.7-4.9c0.9-0.3,2.6-2.3,2.9-1.7c0.7,1.8,0.6,7.4,0.6,14.6
		C392.5,469.5,371.8,489.8,346.7,489.8z"/>
	<path d="M313,449.3c-4.4,0-7.9-3.6-7.9-7.9l0-25.8c0-26.3,18.9-46.2,43.9-46.2c25.1,0,46.9,22.7,43.9,44.6
		c-0.6,4.3-3.6,9.6-7.9,9.6c-4.4,0-7.9-3.6-7.9-7.9c0-17.6-11.8-30.4-28.1-30.4c-16.3,0-28.1,12.8-28.1,30.4l0,25.8
		C320.9,445.7,317.4,449.3,313,449.3z"/>
	<path d="M361.9,396.2c-1-0.6-1.8,1.2-2.6,2c-8.1,8.2-6.4,20.7,0.2,27.2c6.8,6.7,20.5,6.6,27.2-0.2c3.4-3.4,6-9,5.2-14.6l-14.8,1.1
		c0.9,1.7-1.8,3.8-2,4.2c-1.5,1.6-4,1.5-5.9-0.4c-1.8-1.8-1.7-5.3,0.8-7.8C370,407.7,368.5,400,361.9,396.2z"/>
	<path d="M394.6,397.5c0,0,16.1-4.5,17.5-6.6s-3.5-12.1-4.9-14s-19.6,6.9-19.6,6.9C392.3,389.9,394.6,397.5,394.6,397.5z"/>
</g>
</svg>
