<?xml version="1.0" encoding="utf-8"?>
<!-- Generator: Adobe Illustrator 21.0.0, SVG Export Plug-In . SVG Version: 6.00 Build 0)  -->
<svg version="1.1" xmlns="http://www.w3.org/2000/svg" xmlns:xlink="http://www.w3.org/1999/xlink" x="0px" y="0px"
	 viewBox="0 0 1190.6 841.9" style="enable-background:new 0 0 1190.6 841.9;" xml:space="preserve">
<style type="text/css">
	.st0{fill:#85F1FF;}
	.st1{fill:#00E1FF;}
	.st2{fill:#38E8FF;}
	.st3{fill:#00E1FF;stroke:#00E1FF;stroke-miterlimit:10;}
	.st4{fill:#FFE6EC;stroke:#00E1FF;stroke-miterlimit:10;}
	.st5{fill:#FFFFFF;}
	.st6{fill:#363EF0;}
	.st7{fill:#FFB6C9;}
	.st8{fill:#E7E7E7;}
	.st9{stroke:#00E1FF;stroke-miterlimit:10;}
	.st10{fill:#231F20;}
	.st11{fill:#3ACAAC;}
	.st12{fill:none;stroke:#41333A;stroke-width:0.5;stroke-miterlimit:10;}
	.st13{fill:#E5FCFF;}
	.st14{fill:none;stroke:#FFB900;stroke-width:0.5;stroke-miterlimit:10;}
	.st15{fill:none;stroke:#FFFFFF;stroke-width:0.4027;stroke-miterlimit:10;}
	.st16{fill:none;stroke:#FFFFFF;stroke-width:0.5;stroke-miterlimit:10;}
	.st17{fill:none;stroke:#FFFFFF;stroke-width:0.387;stroke-miterlimit:10;}
	.st18{clip-path:url(#SVGID_2_);}
</style>
<g id="Layer_2">
	<g>
		<g>
			<path class="st1" d="M282.7,514.8c16.4-24.1,36-45.6,57.2-65.5c-0.6,0.6-1.2,1.1-1.8,1.7c42.7-40,90.2-75.2,137.2-109.9
				c49.1-36.3,99.2-71.2,149.4-106c26.7-18.5,53.3-38.3,84.5-48.6c-33.7,0.9-67.4,1.8-101.1,2.8c-45.8,52.2-94.7,101.5-142.1,152.2
				c-47.1,50.4-92.9,102.3-131.9,159.3c-11,16.1-21.4,32.5-31.1,49.4c-9.7,16.9-21.1,35.2-19.9,55.5c0.6,0.5,1.3,1,1.9,1.5
				c3,0.9,6.1,1.5,9.3,1.6c8.9,0.9,17.9,1.1,26.8,1c19.4-0.3,39-1.2,58-5.2c31.7-6.6,59.1-24.6,85.1-43
				c24.4-17.1,47.6-35.9,70.2-55.3c45.1-38.7,88-80.1,134.4-117.2c26-20.8,53.2-40.2,82.1-56.9c-33.7,0.9-67.4,1.8-101.1,2.8
				c-23.7,31.6-47.4,63.3-71.1,94.9c-23.4,31.3-47.2,62.4-69.8,94.4c-11.1,15.7-25.8,33.2-24.5,53.7c0.2,3,15.7,3.6,15.3,3.6
				c9.9,0.7,19.7,0.6,29.6,0.4c10.9-0.3,21.9-0.8,32.8-2.1c3.5-0.5,6.9-0.9,10.4-1.4c4.5-0.5,8.9-1.6,13.1-3.2
				c64.8-51.7,129.7-103.5,194.5-155.2c18.5-14.7,37-29.5,55.5-44.2c-33.7,0.9-67.4,1.8-101.1,2.8c-24.1,32.9-48.2,65.7-72.3,98.6
				c-11.8,16.1-24,32-35.5,48.4c-7.8,11.2-15.6,28.2-1.1,37.6c4.3,2.8,9.7,3.6,14.7,4.3c16.8,2.2,34,1.9,50.9,1.2
				c21-0.9,42.7-2.5,63.2-7.7c18.8-4.8,36.1-13.3,52.4-23.7c28.2-17.9,53.7-39.6,79.7-60.4c29.1-23.4,59.4-46,94.1-60.5
				c-33.7,0.9-67.4,1.8-101.1,2.8c2.5,8.9-1.5,17.2-6.1,24.7c-4.4,7.4-9.2,14.5-14.1,21.7c-9.7,14.3-19.9,28.3-29.4,42.7
				c-9.4,14.2-18.2,28.9-25,44.5c-3.4,7.8-6.3,15.8-8.6,24c-2.3,8.2-3.2,16.3,5.5,20.8c6.3,3.2,15.8,3.6,22.6,4.1
				c15.3,1.3,30.9,1,46.2,0.4c23.8-1,49.5-2.4,71.8-11.8c6.1-2.6-5.9-4.5-5.4-4.4c-9.8-1.8-21-1.6-30.9-1.4
				c-13.2,0.2-26.5,0.7-39.6,2.3c-7.8,0.9-16.2,1.5-23.5,4.6c-1.1,0.5-2.2,0.9-3.3,1.3c-1.9,0.7-1.8,0.4,0.1,0
				c-0.9,0.2-2.6,1.1-3.4,0.9c1.5-0.3,3-0.6,4.5-0.9c9.4-1.4,18.9-2,28.4-1.8c10.4-0.4,20.4-1.5,30.7-0.4c2.5,0.3,3,0.3,1.6,0.1
				c-1.1-0.2-0.9-0.1,0.6,0.2c2.2,1.4,0.2,0-0.6-0.4c-1.1-0.5-1.9-1-2.8-1.7c0.6,0.5,1.3,1,1.9,1.5c-5.8-5.9-2.3-15-0.3-21.8
				c2.4-7.9,5.4-15.5,8.8-23c7-15.3,15.8-29.7,25.1-43.6c9.3-13.9,19.1-27.5,28.5-41.3c4.7-6.9,9.3-13.8,13.6-21
				c4.5-7.5,8.5-15.8,6.1-24.7c-0.9-3.2-14.8-3.5-15.3-3.6c-9.9-0.7-19.7-0.6-29.6-0.4c-10.9,0.3-21.9,0.8-32.8,2.1
				c-7.8,0.9-16.2,1.5-23.5,4.6c-68.3,28.4-117,86.8-179.5,124.5c-9.5,5.7-19.4,10.9-29.9,14.8c-1.1,0.4-2.2,0.8-3.3,1.2
				c2.7-1,1.2-0.4-0.7,0.2c-1.1,0.3-2.2,0.6-3.4,0.9c-5,1.2,0.2,0.5,2.1-0.3c-1,0.4-2.4,0.3-3.4,0.6c5.7-0.9,11.5-1.5,17.3-1.7
				c15.6-1.5,31.3-1.5,47.1-0.1c0.9,0.2,3.8,1.6,0.8,0.1c-1.4-0.7-2.7-1.3-4-2.1c0.6,0.5,1.3,1,1.9,1.5c-12-10-2.7-26.8,4.5-36.8
				c11.8-16.4,23.9-32.6,35.9-48.9c23.7-32.3,47.4-64.7,71.1-97c1.5-2-18.1-3.8-15.3-3.6c-9.9-0.7-19.7-0.6-29.6-0.4
				c-10.9,0.3-21.9,0.8-32.8,2.1c-3.5,0.5-6.9,0.9-10.4,1.4c-4.5,0.5-8.9,1.6-13.1,3.2c-64.8,51.7-129.7,103.5-194.5,155.2
				c-18.5,14.7-37,29.5-55.5,44.2c33.7-0.9,67.4-1.8,101.1-2.8c-1.2-18,10.3-33.2,20-47.3c11.1-16,22.6-31.6,34.2-47.2
				c23.5-31.6,47.2-63.1,70.8-94.6c13.4-17.9,26.9-35.9,40.3-53.8c1.5-2-18.2-3.8-15.3-3.6c-9.9-0.7-19.7-0.6-29.6-0.4
				c-10.9,0.3-21.9,0.8-32.8,2.1c-7.3,0.9-17.1,0.8-23.5,4.6c-50.9,29.4-96.2,67.3-140,106.2c-44.2,39.3-87.4,79.9-135.2,115
				c-13.4,9.8-27,19.2-41.2,27.8c-7.4,4.5-14.9,8.8-22.7,12.4c-4,1.9-8.1,3.5-12.3,5.1c-0.3,0.1-3.1,1.1-0.8,0.3
				c2.6-0.9-2,0.6-2.5,0.7c-2.3,0.6-4.6,1.2-6.9,1.6c32-0.4,64-0.7,96-1.1c-1.1-18.1,7.9-34.3,16.5-49.6c8.4-15,17.4-29.7,26.9-44.1
				c18.9-28.7,39.7-56.2,61.5-82.7c44.1-53.5,92.4-103.3,140.2-153.5c27-28.4,53.9-57,79.8-86.5c1.6-1.8-18.3-3.8-15.3-3.6
				c-9.9-0.7-19.7-0.6-29.6-0.4c-18.6,0.5-38.5,0.8-56.3,6.7c-33.3,11-61.6,32.7-90,52.5c-30.4,21.1-60.7,42.2-90.8,63.7
				c-58.7,41.9-117.6,84.5-172.1,132c-28.7,25-55.7,52.1-77.1,83.6c-1.4,2.1,18.1,3.8,15.3,3.6c12,1,24.5,0.8,36.5,0.2
				c12.1-0.6,24.4-1.2,36.3-3.3C272.1,518.9,280,518.7,282.7,514.8L282.7,514.8z"/>
		</g>
	</g>
</g>
<g id="Layer_3">
</g>
<g id="Layer_1">
	<path d="M842.6,635.1c-5.8,0-16.4,2.6-16.4-3.2V487c0.2-0.9,1.8-7,7.8-7c5.3,0,11.2,7.5,13.2,10.7v131
		C847.2,627.5,848.4,635.1,842.6,635.1z"/>
	<path d="M847.2,434.5c-2.2-1-6.1-2.4-10.8-2.4c-3.6,0-7,0.8-10.2,2.3v-155c0-5.8,2.7-2.7,8.5-2.7c5.8,0,12.5-3.1,12.5,2.7V434.5z"
		/>
	<path d="M374,627.4c-5.8,0-10.5,8.5-10.5,2.7V518.8c0,0,2.4,0.7,7.6-3.5c5.2-4.1,13.4-10.8,13.4-10.8v119.4
		C384.5,629.7,379.8,627.4,374,627.4z"/>
	<path d="M758.4,635.1c-5.8,0-10.5-1.8-10.5-7.6v-120c0-17.1-16.1-37-37-37c-10.1,0-25,11.3-35.8,19.6l-0.7,0.5
		c-0.1,0.1-18,11.8-23.1,13.9c-1.3,0.3-2.5,0.4-3.8,0.4c-17.5,0-29.3-15.1-29.3-29.3c0-14.5,14.8-29.3,29.3-29.3
		c6.7,0,15.1,4.5,20.6,10.9l-15.7,13c-0.7-1.5-2.3-2.5-4.7-2.8l-0.1,0l-0.1,0c-3.1,0.1-8.2,1.9-8.2,8.3c0,5.1,2.4,7.7,7.5,8.3l0.3,0
		l0.3-0.1c1.1-0.4,2.8-1.4,5-3l21.3-15.8c10.2-7.2,23.6-15.5,37.2-15.5c27.4,0,57.9,24.8,57.9,57.9v124.4
		C768.9,637.7,764.2,635.1,758.4,635.1z M663.5,631.8c-5.8,0-10.5-0.3-10.5-6.1V518.6l21-15.5v125.6
		C674,634.5,669.3,631.8,663.5,631.8z"/>
	<path d="M358.3,505c-17.5,0-29.3-15.1-29.3-29.3c0-14.5,14.8-29.3,29.3-29.3c7,0,14.4,3.8,19.5,10l-16.6,12.7
		c-0.9-1.2-2.4-1.8-4.4-1.8l-0.6,0l-0.1,0l-0.2,0c-4.3,0-7.4,3.5-7.4,8.3c0,5.3,3.3,8.3,9.1,8.3h0.2l0.2-0.1c1.2-0.5,3-1.6,5.6-3.4
		l20.7-15.4c1.8-1.3,3.5-2.4,5.2-3.5c12.5-8.1,22.6-11.9,32-11.9c16,0,31.2,6.3,41.7,17.4c4,4.2-1.5,4.7-5.7,8.7
		c-2,1.9-7.5,7.9-9.5,5.8c-6.6-6.9-16.3-10.9-26.5-10.9c-10.1,0-25,11.3-35.8,19.6C374.6,498.8,366.5,505,358.3,505z"/>
	<path d="M239,642.2c-2.1,0-5.2-0.7-7-0.5c-3.2,0.3-4.5,0.9-4.5-2.8V486.1c0.8-1.2,4.6-6.4,10.5-6.4c5.9,0,9.7,5.2,10.5,6.4v152
		c0,4.3-1,3-4.5,2.9C242.8,640.9,240.4,642.2,239,642.2z"/>
	<path d="M227.5,328.5c0-5.8,4.7-10.5,10.5-10.5c5.8,0,10.5,4.7,10.5,10.5v104.6c-2-1-5.5-2.2-10.1-2.2c-3.6,0-7.3,0.8-10.9,2.4
		V328.5z"/>
	<path d="M263.6,485.5l-0.6,0.8c-1.2,1.5-2.5,4-2.8,4.8l0.4,26.6c5.2-3.8,10.2-8.4,14.4-13.1l1.1-1.3l0.9,1.4
		c2.7,4.4,5.2,8.8,7.4,13.2c1.8,3.5,4.2-2,8.1-2c1.7,0,3.3-0.4,4.8-1.1c5.2-2.6,8.4-1.2,5.8-6.4c-1.7-3.4-6.4-12.3-13-22.3l-0.5-0.7
		l0.5-0.7c6.6-10,11.3-18.9,13-22.3c2.6-5.1-2.4-4.1-7.5-6.7c-1.5-0.8-3.1-1.2-4.8-1.2c-4,0-4.6-5.2-6.4-1.6
		c-2.3,4.5-4.8,9-7.4,13.2l-0.9,1.4L263.6,485.5z"/>
	<path d="M256.4,477.1c-5.7-6-12.6-11.8-18.1-11.8c-9.9,0-21.7,10.9-21.7,20.2v2.2l0.2,31c-13-8.6-21.2-21.5-21.2-33.2
		c0-20.8,21.1-41.2,42.6-41.2c9.6,0,19.8,5.3,30.6,15.7"/>
	<path d="M238,341.8c-6.2,0-10.5-3.8-10.5-9.2c0-46.5,37.8-84.2,84.2-84.2c5.8,0,10.5,4.7,10.5,10.5s-4.7,10.5-10.5,10.5
		c-34.9,0-63.3,28.4-63.3,63.3C248.5,338,244.2,341.8,238,341.8z"/>
	<path d="M354.6,286.1c-11.7-10.8-26.9-16.8-42.9-16.8c-5.8,0-10.5-4.7-10.5-10.5s4.7-10.5,10.5-10.5c21.2,0,41.5,7.9,57.1,22.3
		c2.1,1.9,1.3,1.4,1.4,4.2c0.1,2.8-3.3,2.7-5.2,4.8C363.1,281.7,356.6,287.8,354.6,286.1z"/>
	<path d="M581.4,636.2c-5.6,0-10.2,2.9-10.5-2.7l21-23.8v23.3C591.9,638.9,587.2,636.2,581.4,636.2z"/>
	<path d="M570.9,509.3c0-22.6-15.1-38.9-36-38.9c-23.3,0-31.6,20.1-31.6,38.9c0,5.8-4.6,1.6-10.4,1.6c-5.8,0-10.6,4.1-10.6-1.6
		c0-35.3,21.6-59.9,52.6-59.9c32.5,0,57,25.8,57,59.9v30.2l-21,31V509.3z"/>
	<path d="M525.3,641.6c-29.4,0-53.3-23.9-53.3-53.3c0-29.4,23.9-53.3,53.3-53.3c12.6,0,22.4,3.5,33.4,12.2l0.2,27.2
		c-3.1-2.2-9.1-6.5-11-8c-8.5-6.8-16.4-10.4-22.6-10.4c-17.8,0-32.3,14.5-32.3,32.3c0,17.8,14.5,32.3,32.3,32.3
		c12.4,0,30.4-14.1,49.3-38.7c15.6-20.4,26.9-41.2,27-41.4c1.8-3.4,7.3,3.6,8.8,4.4c5.1,2.7,12.4,0.4,9.6,5.5
		c-0.5,0.9-12.2,22.5-28.9,44.2C567.3,625.8,545.2,641.6,525.3,641.6z"/>
	<path d="M879.4,474.6l0.9-0.9c10.4-10.5,22.1-23.3,35-38c31-35.7,45.1-52.2,45.4-52.7c2-2.6,7.4,2.2,9.2,3.6
		c4.6,3.5,11,4.5,7.5,9.1c-0.5,0.6-14.6,17.3-46.7,54.2c-13.4,15.4-25.7,28.7-36.5,39.6l-0.8,0.8l0.7,0.9
		c10.8,12.8,23.3,28.8,37.1,47.4c25.5,34.5,50.7,64.3,60.6,77.5c2.6,3.4,4.3,5.7,4.4,5.9c1.5,2.3,8.3,7.2-2.8,11.6
		c-3.6,0-8.5,8.6-10.4,5.6c-0.1-0.1-0.4-0.5-3.4-4.6c-8.7-11.5-38.5-47.2-64-81.8c-13.5-18.3-25.8-34.1-36.7-47l-0.8-1l-1,0.8
		c-7.3,6.5-11.7,9.7-17,12.9l-0.1-25.9c0.4-0.3,0.7-0.5,0.8-0.6c0.2-0.2,0.2-0.2,0.6-0.5c0.3-0.2,0.7-0.7,1.7-1.6l1-0.9L879.4,474.6
		z"/>
	<path d="M858.1,482.8c-13.7-13.7-19.4-15.6-20.9-15.8l-0.1,0h-0.1c-10,0.1-21.5,8.9-21.5,20.2c0,1.8,0.3,3.2,0.4,3.7l-1.7,26.2
		l-1.4-0.4c-13-8-18.3-16.5-18.3-29.5c0-21.9,19.9-41.2,42.6-41.2c6.4,0,16.2,2.6,35.6,21.7L858.1,482.8z"/>
	<g>
		<g>
			<g>
				<path d="M616.4,181.3c0,0,3.9-4.1,4.9-6c2.5-4.5,5.4,0.6,9.8,3.1c4.5,2.5,8.8,1.6,6.3,6.1c-3.9,6.8-11.6,13.2-18.8,14.5
					C618.7,199,620.9,190.8,616.4,181.3z"/>
			</g>
			<g>
				<path d="M523.8,206.1c-0.1-1.3-0.9-13.1,2.7-23.6c8.6-25.1,30.3-35.8,55.5-27.2c24.2,8.3,35.7,34.2,26.8,60.3
					c-1.7,4.8-6.9,7.4-11.8,5.8c-4.8-1.7-7.4-6.9-5.8-11.8c6.6-19.4-3.3-32.6-15.3-36.7c-15.6-5.3-26.6,0.1-31.9,15.6
					c-2,5.8-1.5,18.7-1.4,21.3L523.8,206.1z"/>
			</g>
			<g>
				<path d="M553.3,242.8c-4.8-1.7-7.4-6.9-5.8-11.8c1.7-4.8,6.9-7.4,11.8-5.8c16.4,5.6,28.6-6,33.4-20.1l17.6,6
					C601.3,237.6,577.3,251,553.3,242.8z"/>
			</g>
			<g>
				<path d="M511.4,274.6c-11.8,3.2-21.8,12-26,24.3c-6.5,19.1,5.5,42,25.7,48.9l19,6.5c4.8,1.7,7.4,6.9,5.8,11.8s-6.9,7.4-11.8,5.8
					l-19-6.5c-30.1-10.3-47.2-43.5-37.3-72.4c5.4-15.8,17.1-27.7,31.4-33.7L511.4,274.6z"/>
			</g>
			<g>
				<path d="M556.6,282.4l-30.8-10.5c-4.8-1.7-7.4-6.9-5.8-11.8c1.7-4.8,6.9-7.4,11.8-5.8l30.8,10.5c4.8,1.7,7.4,6.9,5.8,11.8
					C566.7,281.5,561.4,284,556.6,282.4z"/>
			</g>
			<g>
				<path d="M582.8,342c-4.8-1.7-7.4-6.9-5.8-11.8c6.7-19.5-3.6-42.1-22-48.4c-4.8-1.7-7.4-6.9-5.8-11.8s6.9-7.4,11.8-5.8
					c28.2,9.6,43.6,42.6,33.6,71.9C592.9,341,587.6,343.6,582.8,342z"/>
			</g>
			<g>
				<path d="M520.7,370.7c-4.8-1.7-7.4-6.9-5.8-11.8c1.7-4.8,6.9-7.4,11.8-5.8c20.2,6.9,43.7-3.8,50.3-22.9
					c1.7-4.8,6.9-7.4,11.8-5.8c4.8,1.7,7.4,6.9,5.8,11.8C584.7,365.2,550.8,381,520.7,370.7z"/>
			</g>
			<g>
				<path d="M522.1,270.6c-14.4-4.9-22-20.6-17.1-34.9c4.9-14.4,20.6-22,34.9-17.1l23.8,8.1c4.8,1.7,7.4,6.9,5.8,11.8
					c-1.7,4.8-6.9,7.4-11.8,5.8l-23.8-8.1c-4.7-1.6-9.8,0.9-11.4,5.6c-1.6,4.7,0.9,9.8,5.6,11.4c4.8,1.7,7.4,6.9,5.8,11.8
					C532.3,269.7,527,272.3,522.1,270.6z"/>
			</g>
		</g>
		<path d="M651.2,329.2c-26.5-9-38.5-37-28.4-66.3c1.6-4.8,6.9-7.4,11.7-5.7c4.8,1.6,7.4,6.9,5.7,11.7c-5.7,16.6-2.6,36.3,17,43
			c18.4,6.3,38.4-3.6,44.7-21.9l2.4-7.9c3.1,0.9,13.9-0.8,15.8-0.7c1.1,0.1,3.8-1.5,3.8-0.8c0.1,2.3-2.1,8.3-4.9,16.3
			C709,324.1,678.7,338.6,651.2,329.2z"/>
		<path d="M629.4,272.1c-4.8-1.6-7.4-6.9-5.7-11.7l9.7-28.3c9.9-28.9,38.1-43.7,65.6-34.3c27.5,9.4,43,42.5,31.5,65.4
			c-2.3,4.5-7.5,9.2-12.3,7.5c-4.8-1.6-7.4-6.9-5.7-11.7c6.6-19.3-1.6-37.7-19.5-43.8c-17.9-6.1-35.6,3.5-42.2,22.8l-9.7,28.3
			C639.4,271.1,634.2,273.7,629.4,272.1z"/>
		<path d="M702.9,232.1c-0.8-1-2.5,0.6-3.6,1.2c-12,6-14.8,20.3-10,30c4.9,9.9,20.1,14.9,30,10c5-2.5,10-7.6,11.2-14.1l-16.6-4.3
			c0.4,2.2-3.4,3.6-3.8,3.8c-2.3,1.1-4.9,0.2-6.3-2.6c-1.3-2.6,0.1-6.4,3.8-8.3C707.5,247.8,708.7,238.8,702.9,232.1z"/>
		<path d="M738.3,245.8c0,0,19.3,1.1,21.7-0.7c2.4-1.8,0.7-14.6-0.1-17.2c-0.7-2.6-24.1,0.3-24.1,0.3
			C738.6,236.6,738.3,245.8,738.3,245.8z"/>
	</g>
	<path d="M384.5,616v22.1c0,4.1-1.3,4.5-4.1,4.4c-1.2,0-2.6-0.2-4.3-0.2c-1.4,0-3,0.2-4.4,0.3c-1,0.1-2-0.8-2.9-0.8s-1.8,1-2.5,0.8
		c-1.7-0.4-2.8-1.4-2.8-3.7v-23"/>
	<path d="M674.1,616v22.1c0,5.8-4.7,4.2-10.5,4.2s-10.5,2.5-10.5-3.3v-23"/>
	<path d="M768.9,616v22.1c0,2.6-0.9,3.7-2.5,4.1c-0.9,0.3-2-0.7-3.3-0.8c-1.4-0.1-3,0.8-4.8,0.8c-5.8,0-10.5,2.5-10.5-3.3v-23"/>
	<path d="M847.3,616v22.1c0,5.8-4.7,4.2-10.5,4.2s-10.5,2.5-10.5-3.3v-23"/>
	<path d="M591.9,616v22.1c0,5.8-3.7,4.2-9.5,4.2s-11.5,2.5-11.5-3.3v-5.4"/>
</g>
</svg>
