<svg xmlns="http://www.w3.org/2000/svg" viewBox="0 0 200 201.24"><title>icon-vegan</title><g id="Layer_1" data-name="Layer 1"><path d="M97.6,49.5c.28.06,1.46-.12,3-.14a39.61,39.61,0,0,1,5.41.17c3.71.35,6.85,1.31,5.76,1.31s-6.47-.66-11.5.18a29.4,29.4,0,0,0-6.56,1.73,10.69,10.69,0,0,0-2.68,1.34,13.16,13.16,0,0,0,2.87-.62,33.52,33.52,0,0,1,6.19-.86,34.47,34.47,0,0,1,6,.29c1.58.27,2.54.49,2.32.58-1.34.43-6.1.74-3.61,1.05a52.19,52.19,0,0,1,10.39,1.84,59.77,59.77,0,0,1,11.25,4.5,23.28,23.28,0,0,1,6.09,4.35,22.7,22.7,0,0,1,4.48,7.7,78.11,78.11,0,0,1,4.5,23.65,184.07,184.07,0,0,1-.87,24.82c-.74,8.27-1.92,16.38-5.12,23.44s-8.46,13.06-15.31,15.45a29.47,29.47,0,0,1-11.06,1.56c-1,0-1.92-.1-2.88-.22l-1.65-.17-1.68-.13c-2.22-.15-4.34-.2-6.35-.33a34.58,34.58,0,0,1-5.67-.74,20.54,20.54,0,0,1-2.54-.76c-1-.36-1.91-.74-2.82-1.12a27.72,27.72,0,0,1-4.93-2.59,18.71,18.71,0,0,1-3.85-3.59,35.57,35.57,0,0,1-3.23-4.73c-1-1.7-2-3.58-2.88-5.36a112.69,112.69,0,0,1-8.27-23,56.69,56.69,0,0,1-1.61-11.79,52.26,52.26,0,0,1,.49-9A54.85,54.85,0,0,1,64,87.19a60.51,60.51,0,0,1,6.89-14,61.54,61.54,0,0,1,6.83-8.6c1-1.07,1.94-2,2.82-2.81s1.6-1.51,2.3-2.07l1.75-1.5,1.25-1c2.65-2.18-.1-.74-1.86-.22-1,.32.19-1.08,1.64-2.64s3.27-3.1,3.07-3.45a10.5,10.5,0,0,0-2.78,1.18c-.83.38-1.7,1-2.68,1.51-.48.29-1,.58-1.48.9l-1.47,1-1.46,1-1.35,1c-.86.68-1.7,1.28-2.34,1.85C73.82,60.54,73,61.21,73.06,61A19,19,0,0,1,75,57.91c.73-.94,1.11-1.5,0-.64a51.9,51.9,0,0,0-8.25,8.85,69.14,69.14,0,0,0-7.07,11.7l-.91,2c-.31.67-.56,1.38-.85,2.1s-.59,1.45-.85,2.21l-.77,2.36c-.28.8-.51,1.64-.73,2.5s-.46,1.73-.67,2.63c-.35,1.82-.78,3.7-1,5.71v.06a59.76,59.76,0,0,0-.55,10.16,62.06,62.06,0,0,0,.61,7.13c.35,2.38.84,4.67,1.38,6.94a117.44,117.44,0,0,0,4.11,13.27,108.82,108.82,0,0,0,5.65,12.73c2.14,4,4.54,8.34,8.34,12A26.48,26.48,0,0,0,79.8,164c1.11.57,2.23,1.06,3.33,1.52l1.63.65c.54.21,1.05.41,1.71.64a31.79,31.79,0,0,0,7.43,1.56c2.42.24,4.72.3,6.9.41,1.09.05,2.15.12,3.19.22l1.6.17c.6.07,1.21.12,1.82.17a41.81,41.81,0,0,0,7.38-.11,31.92,31.92,0,0,0,14.27-4.9,35.72,35.72,0,0,0,10.39-10.73,48.37,48.37,0,0,0,5.81-13.3,88.3,88.3,0,0,0,2.55-13.8c.51-4.57.86-9,1.14-13.6A128.27,128.27,0,0,0,148,85.26a77,77,0,0,0-3.4-13.7,40.05,40.05,0,0,0-3-6.76,24.19,24.19,0,0,0-5-6.15,36,36,0,0,0-8.44-5.34,70.25,70.25,0,0,0-7.5-3.05,52.92,52.92,0,0,0-12.22-2.63,37.85,37.85,0,0,0-8.2.1,24.31,24.31,0,0,0-2.66.44,14,14,0,0,0-1.82.46C92,49.82,95.64,49.26,97.6,49.5Z"/><path d="M147.62,66.62c.09.15.55.23,1,.27s.94.05.91.31-.57.77-1.18,1.17-1.29.68-1.28.87.79.54,1.64.65,1.69.09,1.7.31c.06.67-.77,1.4-.19,1.45a5,5,0,0,0,2.12-.69,20.28,20.28,0,0,0,4.41-3.2,66.32,66.32,0,0,0,5.49-5.47,29.32,29.32,0,0,0,4.56-6.95,41.21,41.21,0,0,0,3.39-15.57c0-.48.05-1,.06-1.45l0-1.83c0-3.84-.18-5.34-.45-5.86s-.67,0-1.24.24-1.79-1-2.54-1c-.52,0-1.31,2.77-1.74,2.64-.63-.17-1.05-.9-1.29-.51s-.25,1.92-.34,6.08h0c0,.44,0,.87-.05,1.3-.22,4.85-1,9.51-3,13.4a23,23,0,0,1-3.87,5.4c-.8.86-1.66,1.7-2.56,2.55s-1.83,1.71-2.67,2.39a15.72,15.72,0,0,1-2.47,1.69,2.79,2.79,0,0,0-.84.57C147,65.75,147.29,66.1,147.62,66.62Z"/><path d="M168.22,31.35c-.34,0-1.35,1.39-1.68,1s-.07-2.44-.44-2.55-1.94,1.35-2.31,1.09c-.53-.35-.75-.94-1.06-.8s-.67,1-2,3.39a22,22,0,0,1-6.13,6.62,92.43,92.43,0,0,1-8.76,5.15l-.88.48-1.12.62c-.59.33-1.09.61-1.51.86s-.79.48-1,.61-.24.19-.26.25a.14.14,0,0,0,0,.08l.08.32c.08.36.07.32.06.26a3.11,3.11,0,0,0,.23.7,2.34,2.34,0,0,1,.13,1.22c0,.48-.28,1-.29,1.33s.66.6,1.4.68,1.36.09,1.41.31c.19.62-.37,1.33.11,1.38a3.64,3.64,0,0,0,1.38-.43c.65-.3,1.6-.79,3-1.56h0l.88-.48,5-2.76a48.56,48.56,0,0,0,5.13-3.3,29.57,29.57,0,0,0,8.34-9.71c1.43-2.74,1.65-4,1.56-4.5S168.82,31.36,168.22,31.35Z"/><path d="M63,59.53c0-.34-1.51-1.71-1-2s2.91.56,3.09.21-1.54-2.4-1.22-2.72c.46-.46,1.23-.5,1.05-.88a3.61,3.61,0,0,0-1.12-.94c-.7-.48-1.78-1.13-3.25-2.19a26.85,26.85,0,0,1-4.4-3.9,21.89,21.89,0,0,1-1.79-2.27c-.57-.8-1-1.55-1.71-2.71C50,38,47,34.7,44.65,31.21c-.23-.33-.43-.65-.65-1s-.52-.83-.77-1.24c-.76-1.31-1.21-2.2-1.51-2.8a5.68,5.68,0,0,0-.4-.7,1.22,1.22,0,0,0-.28-.35c-.36-.28-.66.14-1.15.51s-1.94-.35-2.68-.21c-.25.06-.41.77-.53,1.52s-.14,1.47-.36,1.49c-.65.06-1.32-.56-1.4-.08a4,4,0,0,0,.45,1.75,24.67,24.67,0,0,0,2.27,4.21h0c.25.38.5.78.76,1.14,2.84,4.15,6.06,7.76,8.24,11.35l1,1.63c.38.56.75,1.12,1.17,1.66a29.62,29.62,0,0,0,2.64,3.08,36.71,36.71,0,0,0,6.14,5c3.11,2,4.47,2.5,5,2.52S63,60.15,63,59.53Z"/><path d="M57.17,75.59c0-.36-1.88-2.14-1.32-2.32s3.53,1.19,3.74.87-2-2.9-1.6-3.17c.53-.4,1.47-.28,1.23-.73A6,6,0,0,0,57.82,69a45,45,0,0,1-3.77-3.1,15.76,15.76,0,0,1-3.94-5.81c-1-2.34-1.88-5.23-2.8-7.88a118.9,118.9,0,0,1-4.48-16.11c-.09-.51-.2-1-.27-1.52s-.21-1.29-.28-1.93c-.49-4.08-.54-5.73-.82-6.3s-.67-.06-1.24.24-1.77-1.21-2.52-1.24c-.26,0-.6.81-.93,1.63s-.59,1.63-.81,1.57c-.64-.2-1.09-1.13-1.31-.63s-.39,2.48.45,7.88h0c.08.57.2,1.13.3,1.69a130.12,130.12,0,0,0,5.09,18.13L42,60a43.74,43.74,0,0,0,1.87,4.64,22,22,0,0,0,3,4.61,27.5,27.5,0,0,0,3.77,3.7,33.47,33.47,0,0,0,4.26,3,6.82,6.82,0,0,0,1.87.87C57.38,76.89,57.12,76.25,57.17,75.59Z"/><path d="M93.45,140.07c-.3.11-.59.8-1.06.8s-1.06-.47-1.43-.36a3.51,3.51,0,0,0-.83.51,2.19,2.19,0,0,1-.79.38,9.37,9.37,0,0,0-1.26.23l-.15.07-.05,0h0l.35-.06a8.15,8.15,0,0,1,1.21-.1,2.72,2.72,0,0,1,.4,0l.13,0h0l.48.16h0c-.19-.08-.22-.19-.11,0a.74.74,0,0,1,.09.41h0l0-.06h0l.07-.05a1.75,1.75,0,0,1,.58-.2,5.9,5.9,0,0,1,1.17-.1c.42,0,1.44.09,1.15,0l0-.21v-.06h0l-.23-.06a5.53,5.53,0,0,1-1.75-.65l-.06,0,0,0-.35-.3h0l.08.09s0,.07,0,0a.78.78,0,0,1,0-.49s0,0,0,0l.4-4.36h-.19a5.42,5.42,0,0,0-1.23.22,4.84,4.84,0,0,0-1.51.76,3.71,3.71,0,0,0-.42.35s-.11.11-.09.1h0l1.72,2h0l0,0,0,0,.13.14a3,3,0,0,1,.23.29c.06.08.14.24.17.26a.06.06,0,0,1,0,.07s0,0,0,0l0,0h.11a2.08,2.08,0,0,1,.44.05l.2.06.58.12,1.19.26.56.13.35.09s0,0,0,0a.53.53,0,0,0-.14-.13,3.34,3.34,0,0,0-1.21-.28c-.65-.1-1.65-.66-2.38-.85a2.49,2.49,0,0,0-1,.05,1,1,0,0,0-.28.1s-.09,0-.15.15l-.07.14,0,.07,0,0a1.42,1.42,0,0,0,0,.3,1.85,1.85,0,0,0,2.15,1.59,2,2,0,0,0,.57-.19c.1,0,.06,0,.1,0h.1c.12,0,.2,0,.21.07a.78.78,0,0,1,0,.28,1.16,1.16,0,0,1,0,.15,2.47,2.47,0,0,1-1.47.46,2.73,2.73,0,0,1-.85-.15,2.45,2.45,0,0,1-.73-.39,2.81,2.81,0,0,1-1-1.73c0-.13,0-.34,0-.37l0,0,0-.08-.07-.15c-.09-.18-.14-.41-.23-.4s-.15-.09-.25.2a1.81,1.81,0,0,0-.07.23l0,.15V140a3.54,3.54,0,0,0,.13,1A3.63,3.63,0,0,0,88.62,143a3.44,3.44,0,0,0,1.1.46,3.61,3.61,0,0,0,2.15-.17l.3-.14.19-.1.11-.06.23-.14.19-.13,0,0s.08,0,.08,0,0,0,0,.07a1.61,1.61,0,0,1-1.12.5h-.07l2.4-6.62a4.59,4.59,0,0,0-1.2-.76,4.67,4.67,0,0,0-2.14-.37,5,5,0,0,0-1.69.41,5.06,5.06,0,0,0-1.38.89,5.18,5.18,0,0,0-1,1.18,6.27,6.27,0,0,0-.74,1.93c-.05.26-.09.48-.12.66s-.06.41-.08.7a5.49,5.49,0,0,0,.38,2.55,4.6,4.6,0,0,0,1.41,1.85,4.51,4.51,0,0,0,2.46.94,4.65,4.65,0,0,0,2.17-.39,5,5,0,0,0,2.49-2.43c.07-.15.13-.3.19-.46l.11-.36a5.55,5.55,0,0,0,.14-.69,4.28,4.28,0,0,0-.2-2.14c-.13-.32-.27-.43-.41-.46S94,139.85,93.45,140.07Z"/><path d="M109.1,141c.23-.23.3-1,.76-1.12s1.18.19,1.49,0,.89-1.17,1.29-1.33c1.16-.54,1.46-.63,1.31-1.08v-.07l-3.27,1.48a.14.14,0,1,0,.2.06.14.14,0,1,0-.06.2l1.39-1.17a1.12,1.12,0,0,1,.45-.37c.26-.13.43-.11.27-.11h-.11l-.19,0c-.47-.16-.48-.28-.48-.25l0,0a8.24,8.24,0,0,1-.81-.91c-.28-.36-.51-.78-.74-1.08a1.48,1.48,0,0,0-.94-.41c-.4-.06-.83,0-1-.17-.46-.43-.51-1-.83-1-.16,0-.43.17-.76.63a5.2,5.2,0,0,0-.9,2.35h0a6.28,6.28,0,0,0-.06.7,6.74,6.74,0,0,0,.73,3.34,6.23,6.23,0,0,0,2.75,2.75l1.73.86,1.68-.88a4.83,4.83,0,1,0-4.61-8.49L106,136.12l.5,2.67a9,9,0,0,0,.29,1.14c.49,1.4,1,1.82,1.31,1.84S108.66,141.42,109.1,141Z"/><path d="M125.68,101.16a.45.45,0,0,0-.1.32.51.51,0,0,0,0,.18v.06l.07.17c0,.06,0,.13.06.2l.05.22a1.88,1.88,0,0,1,0,.35,1.72,1.72,0,0,1-.13.67,1.85,1.85,0,0,1-.16.3l-.09.13,0,0c-.06.06-.16.15-.13.1s0-.11,0-.17c0-.22-.13-.23-.23-.23a1,1,0,0,1-.33-.05.77.77,0,0,1-.28-.23c0-.06-.12,0-.08-.17l0,0a.54.54,0,0,0,0-.11.44.44,0,0,0,0-.24.32.32,0,0,0-.11-.16l-.15-.08c-.38-.15-.73-.31-.89-.21s-.32.62-.41,1.07c0,0,0,.13-.07.12h0l.36-.22.4-.23.14-.09a.92.92,0,0,1,.22-.1c.09,0,.05,0,.09,0s0,0,0,0h0l-1.18-.87h0l0,0c.06-.1,0,0-.08,0a2.63,2.63,0,0,0-.3.23c-.33.29-.47.38-.57.32a1.19,1.19,0,0,1-.21-1.24,2.47,2.47,0,0,0,.06-.3s0-.1,0-.09l-.11,0c-.16.06.07-.32-.23-.06a3.55,3.55,0,0,0-.84,1.16,5.4,5.4,0,0,0-.41,1.29l-.05.29,0,.06s0,0,0,0c.3.06.56.12.78.18a4,4,0,0,1,.91.35,1.87,1.87,0,0,1-.22-.21,2.3,2.3,0,0,1-.36-.62,2,2,0,0,1-.08-.24v-.15a1.25,1.25,0,0,1,0-.29v-.09s0,0,0,0h0a.41.41,0,0,1-.13-.09l0,0s0,0,0,0l-.14.06-.07,0,.15,0,.1,0a.18.18,0,0,1,0,0,.6.6,0,0,1,.07-.22.52.52,0,0,1,.12-.16l1-.62.47-.28.49-.27a1.75,1.75,0,0,0,.32-.16c-.05-.25-.1-.37-.13-.56s0-.38-.07-.46a2.18,2.18,0,0,1,0-.33v-.25c.05-.56.08-.41.06-.43s0,0,0,0l0-.09a2.72,2.72,0,0,1,.35-.57c.28-.35.71-.63,1-.91s.08-.75-.36-1.27-1-.82-1-1a1.75,1.75,0,0,1,.58-.74c.21-.19.38-.32.14-.49a3.25,3.25,0,0,0-1.94-.21,8.73,8.73,0,0,0-3.22,1.21h0l-.64.38-.75.46-.19.12-.38.24a8.28,8.28,0,0,0-.7.54,8.14,8.14,0,0,0-2,2.71,8,8,0,0,0-.76,3.3,7.55,7.55,0,0,0,.81,3.53,7.91,7.91,0,0,0,5.41,4.12,7.21,7.21,0,0,0,3.77-.21,6.46,6.46,0,0,0,1.92-1,5.86,5.86,0,0,0,1.63-2,6.32,6.32,0,0,0,.65-2.38c0-.18,0-.12,0-.15s0,0,0,0a.32.32,0,0,0,0,.1l-.11.25-.11.21c-.05.1-.09.15-.17.27a2.72,2.72,0,0,1-.23.28l-.09.1.24-.3,0-.06.13-.2a3.7,3.7,0,0,0,.47-2.79c0-.13-.1-.35-.1-.35a4,4,0,0,0-.21-.48l-.12-.22,0-.05-.14-.19-.06-.06a.44.44,0,0,0-.3-.13C126.33,100.37,126.09,100.74,125.68,101.16Z"/><path d="M88.54,102.23c-.09.15,0,.71,0,1.18s-.25.82-.48.75-.56-.5-1-.73-.78-.3-.9-.16-.24.63-.48.9a1.29,1.29,0,0,1-.73.48l-.22.05-.1,0h0l.07,0h0a1.49,1.49,0,0,1-.45.09,1,1,0,0,1-.28,0,1.1,1.1,0,0,1,.37.22,1.36,1.36,0,0,1,.15.15l0,.07,0,0v0h0l-.18-.34a.78.78,0,0,1-.07-.24,1.59,1.59,0,0,1,.06-.76v0l0,0a1.37,1.37,0,0,1-.21.24l-.16.12h0l.51-.31h0l0-.05a2.48,2.48,0,0,1,.23-1.29,6.21,6.21,0,0,1,1.17-1.86c.09-.1.17-.18.26-.26a2.88,2.88,0,0,1,.3-.24l.24-.16s0,0,0,0-.05-.21-.06-.3l0-.17v-.09a.19.19,0,0,1,0,0h0l0-.24a5.94,5.94,0,0,0,0-.74,3.33,3.33,0,0,1,.24-1.2c.16-.43.44-.85.54-1.22s-.24-.7-.71-1-1-.58-1-.79c0-.66.74-1.11.34-1.33a2.74,2.74,0,0,0-1.66.06A8.14,8.14,0,0,0,81,94.9h0c-.25.23-.5.47-.72.71a13.6,13.6,0,0,0-2.78,4.54,10.8,10.8,0,0,0-.64,2.89,8.39,8.39,0,0,0,.43,3.44,8,8,0,0,0,.85,1.7,7.06,7.06,0,0,0,1.34,1.5A7.49,7.49,0,0,0,83,111.33a6.83,6.83,0,0,0,4.18-.5,6.44,6.44,0,0,0,3.15-3.24,6.25,6.25,0,0,0,.29-4.49,3.42,3.42,0,0,0-1.16-1.77C88.84,101,88.9,101.72,88.54,102.23Z"/><path d="M154.52,94.69c.27.25,2.63-.2,2.48.34s-2.83,2.08-2.7,2.43,3.37.2,3.4.63c0,.66-.62,1.35-.11,1.42s2.18-.44,6.75-2.41q6.6-2.87,12.94-6.29l4.18-2.25L178.34,85a37.37,37.37,0,0,0-7.71-6.84,27.51,27.51,0,0,0-4.78-2.48,22.91,22.91,0,0,0-5.37-1.4c-.62-.08-1.23-.14-1.86-.16a22.51,22.51,0,0,0-2.39,0,16.58,16.58,0,0,0-5.49,1.28,6.51,6.51,0,0,0-2,1.25c-.5.6.28.6.84,1,.32.21.21.74.12,1.32a2.43,2.43,0,0,0,0,1.48c.15.23.94.1,1.7.12s1.45.08,1.47.3c0,.64-.38,1.28,0,1.37A4.57,4.57,0,0,0,154.3,82a15.16,15.16,0,0,1,4-.35h0c.4,0,.81.06,1.22.11a17.06,17.06,0,0,1,7,2.73A29.88,29.88,0,0,1,172.63,90l1.06-5.82q-6.9,3.71-14.13,6.77c-3.74,1.57-5.26,2.24-5.7,2.69S154,94.25,154.52,94.69Z"/><path d="M19.63,85.12c.18,0,.54-.34,1-.59s.79-.45.91-.23,0,.84-.06,1.44-.09,1.14.08,1.22.78-.2,1.28-.45,1-.45,1.17-.31c.47.44.58,1,.92.94s.72-.89,2.57-2.73a15.06,15.06,0,0,1,7.68-4,12.81,12.81,0,0,1,4.26-.1,33.23,33.23,0,0,1,4.79,1.22l1,.31,1.38.39a16.61,16.61,0,0,0,3.54.62,3.61,3.61,0,0,0,1.59-.16c.5-.25.05-.67-.14-1.25s.95-1.75.9-2.5c0-.27-.5-.6-.94-1s-.83-.74-.76-.94c.21-.6.69-1,.48-1.23s-.36-.24-.94-.4-1.47-.37-3-.81h0l-1-.29a36.05,36.05,0,0,0-6.3-1.52,20.8,20.8,0,0,0-7.1.36,22.53,22.53,0,0,0-11.92,7,14.46,14.46,0,0,0-2.14,3.07,3.3,3.3,0,0,0-.49,1.49C18.45,85.26,19,85,19.63,85.12Z"/><path d="M51.16,100.79c-.22-.24-2-.29-1.81-.8.07-.23.58-.59,1-.94s.82-.72.76-.9-.65-.42-1.15-.61-1-.43-1-.64c0-.64.28-1.14,0-1.33a1.66,1.66,0,0,0-.91-.08,23,23,0,0,1-2.52.06,21.29,21.29,0,0,1-8.4-2.4,32.25,32.25,0,0,1-7.59-5.28L29,87.26l-.78-.8c-1.59-1.74-2.23-2.46-2.65-2.57s-.56.37-.92.86-1.85.47-2.47.9c-.44.3.1,2.43-.27,2.62-.58.28-1.26.08-1.27.47s.61,1.45,3,3.9h0l.78.75a39.51,39.51,0,0,0,10,6.83,27.24,27.24,0,0,0,12.33,2.91c3.27-.15,4.58-.85,4.93-1.2S51.53,101.28,51.16,100.79Z"/></g></svg>