<svg xmlns="http://www.w3.org/2000/svg" viewBox="0 0 200 201.24"><title>icon-male</title><g id="Layer_1" data-name="Layer 1"><path d="M120.45,116.43c-.17.53,1.1,7,.34,6.25a36,36,0,0,1-2.05-4.63c-.88-2-1.73-4-1.93-3.9s0,2.2.22,4.24.38,4,.1,3.92c-.83-.37-1.86-2.39-1.81-1.2a46,46,0,0,0,1,4.82c.61,2.83,1.61,7.09,2.55,13.51a149.93,149.93,0,0,1,1.6,21.61c0,3.62-.13,7.23-.37,10.84-.15,1.8-.27,3.6-.49,5.4l-.15,1.35c0,.45-.1.92-.15,1.23a9.35,9.35,0,0,1-.46,1.88,4.23,4.23,0,0,1-.65,1.2,1.87,1.87,0,0,1-.69.54,3.38,3.38,0,0,1-1.17.26,6.55,6.55,0,0,1-1.54-.13,2,2,0,0,1-.84-.38,2.29,2.29,0,0,1-.59-.8,7.09,7.09,0,0,1-.53-1.62,16.63,16.63,0,0,1-.29-2.23l-1.78-22.23-.34-4.2L110,146.8c-1.81-22.61-2-18.38-3.16-16.72-.65.94-2.21-3.08-3-3-.58,0-.86,8.48-1.36,8.13-1.48-1-2.53-9-.4,17.6v0l.34,4.2,1.93,23.74a19,19,0,0,0,.82,3.71,12.07,12.07,0,0,0,2.16,3.94,10.11,10.11,0,0,0,4,2.9,12.81,12.81,0,0,0,4.34.83,12.37,12.37,0,0,0,4.38-.64,10.35,10.35,0,0,0,4.14-2.65,11.93,11.93,0,0,0,2.4-3.82,17.73,17.73,0,0,0,1-3.75l.13-.89.08-.75.17-1.51c.11-1,.23-2,.3-3l.25-3,.17-3c.2-4,.26-8.09.13-12.14a157.78,157.78,0,0,0-2.53-24.12,122,122,0,0,0-2.91-12.43,31.83,31.83,0,0,0-1.76-5C120.82,113.94,120.82,115.49,120.45,116.43Z"/><path d="M104.72,126.34c-.41.49-.89,7.85-1.38,6.82a32.81,32.81,0,0,1-.75-5.67c-.19-2.51-.36-4.9-.57-4.91s-.74,2.36-1.16,4.7-.76,4.63-1,4.42c-.7-.66-1.13-3.3-1.42-1.92s-.54,6.86.38,22.07c.51,8.46,1,16.71.29,24.74l-.31,3a13.06,13.06,0,0,1-.5,2.33,3.92,3.92,0,0,1-.64,1.3l-.07.07s0,0,0,0l.06.1h0a1.06,1.06,0,0,1,0-.11s0,0,0,0h0l.06.25h0v0l0-.19a1.16,1.16,0,0,1-.27,0,3.53,3.53,0,0,1-.67-.23c-.28-.15-.58-.32-.87-.46s-.54-.37-.8-.59a9.91,9.91,0,0,1-2.53-3.59,31.18,31.18,0,0,1-2-10.87l0-1.5,0-1.58-.06-3.16-.08-6.32q-.12-12.63.13-25.26l.11-4.77.18-6.08c.44-12.84.66-18.07.45-19.89s-.73-.21-1.42.64S88,95.78,87.13,95.72c-.59,0-2.06,9.46-2.49,9-.67-.69-1-3.32-1.33-2s-.79,6.67-1.21,21.91v0L82,129.49q-.27,13.52-.12,27l.1,6.76.07,3.4c0,1.18.08,2.37.19,3.57a43.6,43.6,0,0,0,1.16,7.36,23.23,23.23,0,0,0,3.28,7.47,16.77,16.77,0,0,0,3,3.33,21.32,21.32,0,0,0,1.88,1.34,21.62,21.62,0,0,0,2.08,1.06,9.78,9.78,0,0,0,5.76.66,8.51,8.51,0,0,0,3.09-1.36,9.41,9.41,0,0,0,2.17-2.19,13.68,13.68,0,0,0,2-4.43c.19-.7.32-1.37.43-2s.19-1.32.24-1.88c.26-2.33.44-4.67.53-7,.37-9.35-.48-18.41-.91-27.26-.63-12.75-.5-17.87-.78-19.67S105.38,125.47,104.72,126.34Z"/><path d="M89.19,92.2c-.47.79-2.05,13.26-2.4,11.45-.17-.91,0-5.39.11-9.64s.43-8.28.23-8.32-1.21,3.94-1.93,7.84-1.42,7.71-1.62,7.32c-.6-1.16-.66-5.6-1.14-3.33-.24,1.13-.58,3.95-1.14,9.64-.3,2.82-.61,6.45-1.2,10.67-.18,1.28-.29,2.43-.43,3.63s-.29,2.41-.5,3.59c-.1.59-.22,1.17-.36,1.67-.07.27-.14.47-.2.67l-.08.2c0,.05,0,0,0,0h0l.26.14.5.32.12.09c.9.58-1.08-.68-.89-.56l0,0,0,0-.07.1-.16.19a3.2,3.2,0,0,1-.36.36,2.54,2.54,0,0,1-.77.47,1,1,0,0,1-.43.08h0c-.22.77.48-1.72-.49,1.72v0l0-.12a5.07,5.07,0,0,1,.31-.55,2.35,2.35,0,0,1,.3-.38,1.51,1.51,0,0,0,.19-.19c.07-.08.21-.24.17-.2s0,0-.06-.07a5.9,5.9,0,0,1-.67-1.34,18.37,18.37,0,0,1-.63-2.06,41.18,41.18,0,0,1-.83-4.78c-.19-1.66-.36-3.46-.5-5.17a76.82,76.82,0,0,1-.19-10.19A96.1,96.1,0,0,1,75.5,95.29a65.81,65.81,0,0,1,2.09-9.84,21.34,21.34,0,0,1,1.8-4.1A13.7,13.7,0,0,1,82,78.16a18.76,18.76,0,0,1,7.75-4,59,59,0,0,1,9.86-1.72c1.72-.19,3.47-.33,5.22-.46.46,0,.84-.05,1.2-.06s.74,0,1.12,0c.76,0,1.51,0,2.28.15a29.85,29.85,0,0,1,9,2.5,27.94,27.94,0,0,1,7.73,5.11A20.52,20.52,0,0,1,128.94,83l1.19,2c.33.71.71,1.4,1,2.12,2.52,5.77,3.17,12.38,2.67,19.06a81.06,81.06,0,0,1-1.47,10.1l-.55,2.66-.5,2.64a35,35,0,0,1-1.15,4.61,6.83,6.83,0,0,1-.47,1.09.24.24,0,0,0,0,.08,4.94,4.94,0,0,1,1.09.92l.06.07,0,0-1.09-1.13h0l0,0-.06.06-.15.11a2.54,2.54,0,0,1-1.36.47.75.75,0,0,1-.29,0h0l-1.61,2,0,0,.11-.15a2.24,2.24,0,0,1,.53-.47,7.89,7.89,0,0,1,.81-.61l.45-.25.1,0h0v0l0-.06a2.14,2.14,0,0,1-.1-.25,12.67,12.67,0,0,1-.46-1.83c-.14-.71-.24-1.48-.34-2.27l-.76-7.52-.71-6.43-1-9.74c-.5-5.24-.71-8.13-.89-9.59-.35-2.93-.76-.28-1.35,1.23-.33.85-.88-.66-1.42-2.41s-1-3.75-1.37-3.78a6.53,6.53,0,0,0-.56,2.53c-.2,1.52-.32,3.54-.42,5.54-.17,4-.17,7.89-.44,7.53-.8-1-1.57-5.48-1.68-3.13a92.68,92.68,0,0,0,.58,9.81l1.09,10.92.33,3.45c.11,1.26.23,2.62.46,4.11a21.25,21.25,0,0,0,1.33,5.18q.21.45.44.89a10.16,10.16,0,0,0,.73,1.07c.19.22.39.43.6.62l.32.29.23.17a7.51,7.51,0,0,0,1,.62,8.92,8.92,0,0,0,4.25,1.09h.08a10.9,10.9,0,0,0,7.54-3.12c.26-.28.52-.57.75-.87s.34-.51.5-.77a14.67,14.67,0,0,0,1.18-2.61,43.83,43.83,0,0,0,1.54-6.13l.52-2.73.59-2.83a85.94,85.94,0,0,0,1.56-11.87,53.07,53.07,0,0,0-.63-12.3,41.11,41.11,0,0,0-4-12c-.51-.94-1.05-1.84-1.62-2.77a27,27,0,0,0-2-2.71,29.18,29.18,0,0,0-4.8-4.51,38.6,38.6,0,0,0-11.29-5.88,35.12,35.12,0,0,0-12.77-1.78c-3.93.26-7.74.61-11.74,1.25a50.23,50.23,0,0,0-6,1.32,30.83,30.83,0,0,0-6.09,2.38,22,22,0,0,0-5.61,4.07,22.85,22.85,0,0,0-4.1,5.62,41.6,41.6,0,0,0-3.71,12.06c-.66,3.81-1.28,7.63-1.66,11.61a78.18,78.18,0,0,0-.2,12c.11,2,.27,3.93.46,5.86s.43,4,.82,6a26.07,26.07,0,0,0,2,6.51l.5.91c.19.31.43.64.65,1a8.42,8.42,0,0,0,2.08,2,7.21,7.21,0,0,0,1.63.79,4.78,4.78,0,0,0,.73.2,6,6,0,0,0,.68.12,8.82,8.82,0,0,0,2.67,0,10.38,10.38,0,0,0,4.37-1.85,11.78,11.78,0,0,0,3-3.22,10.3,10.3,0,0,0,1-2.23c.11-.32.2-.62.27-.91s.15-.58.21-.85c.25-1.1.42-2.13.57-3.14.21-1.45.35-2.8.49-4.06l.2-1.72.24-1.84c.29-2.41.49-4.57.68-6.56.36-4,.61-7.22.81-9.88.39-5.32.58-8.27.59-9.79C90.72,88.12,90,90.77,89.19,92.2Z"/><path d="M93.28,23a27.07,27.07,0,0,1,2.65-1.69c1.21-.57,2.33-.75,2.1-.38a26.94,26.94,0,0,0-2.6,2.77c-1,1.33-1.18,2.84-1,2.88s.44-.2.79-.56l.65-.55c.25-.18.51-.36.77-.52,1.07-.63,2.23-.82,2.24-.58a4.58,4.58,0,0,1-.13,1.13c0,.33,0,.53.28.49s.74-.36,2.07-.72a9.76,9.76,0,0,1,2.69-.35,9.91,9.91,0,0,1,4.05.9,12.24,12.24,0,0,1,4.59,3.46,10.61,10.61,0,0,1,2.27,5.07,10.37,10.37,0,0,1-.55,5.45,12.52,12.52,0,0,1-3.46,4.67,24.2,24.2,0,0,1-5.57,3.58,12.68,12.68,0,0,1-2.74,1,5.68,5.68,0,0,1-2.27,0,8.61,8.61,0,0,1-4.47-2.52,9.77,9.77,0,0,1-2.57-4.8,6.18,6.18,0,0,1-.19-1.06l-.07-.54,0-.55a13,13,0,0,1,.2-2.82,14.18,14.18,0,0,1,2.67-6c.41-.6.83-1,1.08-1.33a4.12,4.12,0,0,0,.61-.73c.5-.71-.36-.69-1.11-.88-.42-.11-.38-.81-.17-1.57s.57-1.57.38-1.94-1.68.16-3.12.92c-.71.38-1.4.81-1.91,1.13s-.84.52-.88.39a3.41,3.41,0,0,1,.15-1.51c.13-.46.17-.76-.3-.48a5.37,5.37,0,0,0-1.07,1,15.46,15.46,0,0,0-1.82,2.37,20.14,20.14,0,0,0-2.08,4.48,21.12,21.12,0,0,0-1,7.26v0l0,.93.11.93a13.34,13.34,0,0,0,.33,1.85,19,19,0,0,0,1.89,5,18.52,18.52,0,0,0,3.29,4.24,16.47,16.47,0,0,0,9.88,4.68,14.51,14.51,0,0,0,5.7-.65A27.12,27.12,0,0,0,110.15,55a29.42,29.42,0,0,0,7.75-5.74,18.78,18.78,0,0,0,4.22-19.66A19.5,19.5,0,0,0,116,21.11a20.55,20.55,0,0,0-4.4-2.75,19.05,19.05,0,0,0-5.05-1.57,17.08,17.08,0,0,0-6.68.26,14.82,14.82,0,0,0-4.52,1.89,9.83,9.83,0,0,0-3.6,3.79C91.18,24.32,92.32,23.18,93.28,23Z"/></g></svg>