<svg xmlns="http://www.w3.org/2000/svg" viewBox="0 0 200 201.24"><title>icon-fair</title><g id="Layer_1" data-name="Layer 1"><path d="M33.32,88.58c.25-.19.25-1.1.69-1.17s1.27.63,1.58.47.72-1.45,1.1-1.57c1.14-.4,1.73.25.61-2.36a31.25,31.25,0,0,1-2.15-9.29l0-.45,0-.58c-.06-2.43-.45-2-1.54-1.84-.61.09-1.64-.41-2.34-.43-.49,0-1.3,1-1.69,1-1.14-.14-1.57-1.21-1.44,2.3h0l0,.55a38.17,38.17,0,0,0,2.91,12C32.25,90,32.47,89.23,33.32,88.58Z"/><path d="M98.12,79.61c.32-.77,1-12.37,1.35-10.73s.52,16.59.87,16.61,1.59-14.92,2-14.24c.84,1.55,1.08,9.88,1.55-5.71l-.07.66a58.33,58.33,0,0,1,2.78-9.11c.33-.93.79-1.85,1.25-2.82a33.65,33.65,0,0,1,1.58-3c.54-1.06,1.3-2,2-3.12a40,40,0,0,1,2.5-3.12,29,29,0,0,1,14.76-9.34,44.89,44.89,0,0,1,9.11-.81c1.58,0,3.16,0,4.65.15a19,19,0,0,1,2.09.27c.61.13,1.22.38,1.84.54a19.09,19.09,0,0,1,6.81,4.75,35.17,35.17,0,0,1,5.37,7.28,51.39,51.39,0,0,1,6.12,17.43,39.5,39.5,0,0,1-1.76,18A54.55,54.55,0,0,1,154,99.68a74.14,74.14,0,0,1-13.56,13.24,155.2,155.2,0,0,1-16.24,10.71l-6.48,3.74-4.19,2.4a44,44,0,0,0-4.36,2.84,20.76,20.76,0,0,0-5.64,6.2,25.39,25.39,0,0,0-2.56,6.44c-.52,2-.77,3.83-1,5.12s-.58,2.71-.86,3.92a39.44,39.44,0,0,0-1.4,9.62c.19,3.25.55.25,1.25-1.16.39-.81.6.78,1,2.49s1.19,3.49,1.53,3.4a9.75,9.75,0,0,0,.12-2.29,26.28,26.28,0,0,1,.72-4.83c.85-3.43,2.1-6.8,2.18-6.43.31,1.17-.19,5.09.49,3.13.17-.49.42-1.34.8-2.75l.65-2.57.38-1.68.36-1.87a20.73,20.73,0,0,1,3.05-8,16.18,16.18,0,0,1,4.13-3.82c1.82-1.25,4.23-2.55,6.81-4l0,0,6.55-3.79a157.92,157.92,0,0,0,17.94-12A78.22,78.22,0,0,0,161.06,102a59.38,59.38,0,0,0,9.57-20.14,47.9,47.9,0,0,0,1.45-11.27,45.45,45.45,0,0,0-1.48-11.3A56.09,56.09,0,0,0,161.08,39a31.33,31.33,0,0,0-8.65-8c-.87-.55-1.86-1-2.79-1.43a30.48,30.48,0,0,0-3.06-1,29.59,29.59,0,0,0-5.92-.68,69.6,69.6,0,0,0-11.16.49,32.11,32.11,0,0,0-11.12,3.95,41.64,41.64,0,0,0-15.67,16.48L102.07,50l-.55,1.18-1,2.27c-.56,1.51-1.18,2.91-1.58,4.28A71.24,71.24,0,0,0,97,64.81l-.06.29v.38C96.61,87.44,97.18,81.9,98.12,79.61Z"/><path d="M86.21,39.17c-.08.31.69,1.21.33,1.5s-1.78,0-1.95.28.55,1.8.29,2.1c-.78.95-1.92.53,1.49,2.73a43.31,43.31,0,0,1,9.9,9.37c.13.17.27.34.39.52l.49.67c2,2.86,1.94,2.14,2.74,1.34.43-.45,1.67-.43,2.27-.8.42-.25.32-1.88.68-2,1-.46,2.23.49-.53-3.38h0c-.15-.2-.3-.4-.45-.6A50.11,50.11,0,0,0,89.55,39.42C86.1,37.26,86.48,38.13,86.21,39.17Z"/><path d="M57.29,31.67c.17.26,1,.35,1.08.79s-.69,1.2-.55,1.52,1.33.86,1.42,1.25c.3,1.17-.3,1.66,2.12.9a19.22,19.22,0,0,1,8.45-.39l.4.07.5.11c2.08.53,1.84.08,2-1,.09-.61.84-1.46,1.07-2.12.17-.46-.55-1.52-.4-1.89.23-.54.62-.81.54-1.08s-.64-.56-2.35-.92h0l-.54-.1a26.23,26.23,0,0,0-12.24.73C56,30.47,56.72,30.78,57.29,31.67Z"/><path d="M31.42,59.12c.3-.09.7-1.24,1.13-1.06s.87,1.58,1.22,1.55,1.28-1.35,1.67-1.27c.59.1,1,.43,1.2.26s.27-.81.53-2.65a19,19,0,0,1,5.65-10.84c.14-.13.27-.27.42-.39l.56-.46c1.21-.94,1.71-1.29,1.77-1.62s-.28-.56-.65-1-.37-1.69-.68-2.31c-.21-.44-1.9-.39-2.06-.74-.22-.55,0-1.1-.35-1.18a1.54,1.54,0,0,0-1,.33,13.77,13.77,0,0,0-2.25,1.63h0c-.21.17-.4.37-.61.56a26,26,0,0,0-7.95,15.92c-.23,2.18,0,3.08.2,3.38S30.88,59.27,31.42,59.12Z"/><path d="M58.17,118.16c.11-.29-.51-1.2-.15-1.47s1.67.1,1.86-.2-.33-1.78-.05-2.06c.83-.89,1.89-.46-1.14-2.72a48.14,48.14,0,0,1-8.89-9.05l-.36-.48-.45-.62c-1.83-2.67-1.83-2-2.63-1.19-.44.44-1.65.47-2.25.84-.42.25-.38,1.79-.74,2-1,.48-2.14-.38.37,3.18h0l.41.55a55,55,0,0,0,10.89,10.91C58.08,120,57.79,119.17,58.17,118.16Z"/><path d="M81.13,137.44c.14-.28-.25-1.1.1-1.35s1.42,0,1.63-.27,0-1.62.29-1.9c.84-.86,1.7-.52-.54-2.42-2.49-2.14-5-5-8.68-7.21-.17-.11-.34-.2-.51-.3l-.67-.37c-1.44-.74-2.12-.84-2.41-.7s-.24.58-.34,1.11-1,1.38-1.21,2c-.15.46.42,1.56.21,1.9-.29.51-.65.78-.62,1s.42.48,1.55,1.11h0l.36.21c2.65,1.55,5.09,4.28,8.2,6.93C80.77,139.14,80.65,138.4,81.13,137.44Z"/><path d="M97.81,164.22c.3-.1.56-1.28,1-1.18s1.05,1.52,1.41,1.5,1.1-1.67,1.49-1.67c.6,0,1,.42,1.22.16s.2-1.19-.33-3.73a40.92,40.92,0,0,0-7.12-15.88l-.53-.66-.68-.84c-1.51-1.72-2.31-2.25-2.7-2.29s-.44.44-.7.93-1.56.78-2,1.31c-.31.37.16,1.95-.17,2.17-.49.34-1,.36-1,.66s.47.83,1.8,2.47h0l.42.52a34.1,34.1,0,0,1,6,14c.35,1.83.51,2.56.79,2.79S97.3,164.42,97.81,164.22Z"/><path d="M155.07,29.26c.18,0,1.11-.42,2-.68s1.63-.4,1.47-.15-1.23.93-2.12,1.72-1.59,1.65-1.49,1.75,1.09-.37,2.07-.68,2-.51,2-.33c0,.56-.78,1.3-.25,1.24a18.66,18.66,0,0,0,2.07-.74A36.14,36.14,0,0,1,167,29.74l-3.09-1.63.14.31a6.39,6.39,0,0,1,.45,4,27.25,27.25,0,0,1-1.72,4.88,32.65,32.65,0,0,1-9.82,12.6c-1.34,1.05-2.08,1.28-3.13,1.14a4.78,4.78,0,0,1-1.55-.56l-.12-.09-.22.19s0,0,0,0l.26-.12v0c0-.06-.05-.25-.08-.38-.18-1.12.13-2.08,1-3.92l.94-2q.6-1.25,1.21-2.45a65.23,65.23,0,0,1,4.44-7.21c.35-.69-.33-.41-.92-.43s.11-2.12-.26-2.55c-.14-.15-1.14.44-2.06,1.13s-1.78,1.43-1.84,1.25c-.22-.55.35-1.77-.22-1.35s-2.55,2.55-5.64,9.05h0l-1,2a19,19,0,0,0-1.28,3.23,9.79,9.79,0,0,0,0,5.24,5.86,5.86,0,0,0,.58,1.35,6.14,6.14,0,0,0,2,2,9.16,9.16,0,0,0,1.94.93,9.93,9.93,0,0,0,2,.5,8.72,8.72,0,0,0,4.36-.47,12,12,0,0,0,3.3-2,38.46,38.46,0,0,0,11.58-15.06c.43-1,.81-2,1.16-3a18.33,18.33,0,0,0,.9-3.36,12.48,12.48,0,0,0-1.15-7.49l-1-2-2.1.35c-.94.15-1.71.32-2.55.52-6.22,1.53-8.65,3.53-9.34,4.26S154.44,29.16,155.07,29.26Z"/><path d="M47.11,160.48c.55-.19,5.45-5.26,5.16-4.18a47.25,47.25,0,0,1-3,4.51,18.78,18.78,0,0,0-2.37,4c.23.16,1.82-1.41,3.45-2.86s3.26-2.85,3.29-2.56c.07.88-1.16,3-.17,2.17s4.23-4.48,13.89-14.89c10.82-11.61,21.85-23.07,32.86-34.58,5.5-5.76,11-11.5,16.48-17.35,2.72-2.9,5.49-6,8-9l8-8.85,3-3.37,3.83-4.35c8-9.32,10.75-13.75,11.56-15.29s-.45-.5-1.42-.14.54-3.9-.1-4.3c-.23-.15-1.73,1.54-3.27,3.1s-3.07,3.06-3.1,2.77c-.13-.87,1-3,0-2.17s-3.73,4.79-13.14,15.34l0,0-3,3.34-8.48,9.45-2.1,2.41L114.49,86l-4.24,4.6c-5.74,6.12-11.58,12.21-17.41,18.3C81.18,121.11,69.48,133.27,58,145.71c-8.26,9-11.37,13-12.29,14.55S46.13,160.8,47.11,160.48Z"/><path d="M50.24,154.89A118.29,118.29,0,0,0,38.9,171.24a53,53,0,0,0,18.68-14.35C66.26,146.55,50.24,154.89,50.24,154.89Z"/></g></svg>