<svg xmlns="http://www.w3.org/2000/svg" viewBox="0 0 198.77 200"><title>icon-shoes</title><g id="Layer_1" data-name="Layer 1"><path d="M138.15,22.47c.3.21,1.7.92,3.48,2a46.17,46.17,0,0,1,5.76,4.15c3.74,3.16,6.36,6.58,5.23,5.7-.57-.42-2.13-1.86-4.33-3.55a45.48,45.48,0,0,0-8.08-5A32.43,32.43,0,0,0,131.74,23a13.17,13.17,0,0,0-3.92-.26c0,.17,1.52.41,3.69,1.06A34.28,34.28,0,0,1,139,27.09c5.14,2.94,9,7.27,8.49,7-.85-.29-2.55-1.38-3.81-2s-2-.87-.71.16a59,59,0,0,1,9.73,10A129,129,0,0,1,161.77,56l1.35,2.29c.22.38.5.84.62,1.07s.12.23.14.29l0,.06h0l.23-.07.44-.12a4.8,4.8,0,0,1,1.15-.17.85.85,0,0,1,.3,0,3.73,3.73,0,0,1-.94-.59c-.15-.12-.26-.22-.45-.37l-.35-.32-.07.06L162,60l-10.59,8.76-102.66,85-3.21,2.66c-1.05.87-2,1.65-3.05,2.39a19.65,19.65,0,0,1-6,3.14c-3.67.94-6-.74-6.59-4.74a10.28,10.28,0,0,1,.05-2.93,10.59,10.59,0,0,1,.91-2.87,26,26,0,0,1,4-5.9c1.67-2,3.65-3.94,5.53-6.18s3.7-4.45,5.44-6.75a146.22,146.22,0,0,0,16.58-30c2.21-5.22,4.18-10.51,6-15.82q1.38-4,2.67-8l2.52-7.9a14.06,14.06,0,0,1,2-4.28,3.11,3.11,0,0,1,1-.85A2.83,2.83,0,0,1,78,65.51c.44,0,1,0,1.63.06l2.06.12q2.08.11,4.15.14,4.16.07,8.31-.15a116.91,116.91,0,0,0,12.15-1.27c1.87-.3,3.6-.6,5.41-1a27.34,27.34,0,0,0,5.38-1.75,17.6,17.6,0,0,0,4.75-3.16,20.91,20.91,0,0,0,3.21-3.83,34.51,34.51,0,0,0,3.42-7,87.66,87.66,0,0,0,3-9.87c.59-2.53.9-4.33,1.07-5.55.6-4.91-.61-.56-1.75,1.64-.66,1.24-.55-1.28-.57-4.12s-.16-6-.58-6-1.35,6.12-3.2,11.87c-.9,2.88-1.95,5.67-2.79,7.64s-1.47,3.09-1.47,2.8a42.14,42.14,0,0,1,.62-4.34c.21-1.43.27-2.23-.38-.64-.33.77-.84,2.22-1.69,4.29A33.74,33.74,0,0,1,119,48.8a14.57,14.57,0,0,1-2.75,3.6,9.31,9.31,0,0,1-2,1.41,14.79,14.79,0,0,1-2.92,1.1,76.88,76.88,0,0,1-8.71,1.57c-3.32.43-7,.78-11,.91-2,.07-4.13.08-6.34,0q-1.65,0-3.38-.13l-1.76-.11c-.63,0-1.36-.08-2.19-.07h-.09a12.91,12.91,0,0,0-2.31.25,10.49,10.49,0,0,0-2.48.84,11.51,11.51,0,0,0-3.85,3.09,21.75,21.75,0,0,0-3.52,6.94L63,76.66c-.9,2.77-1.82,5.54-2.79,8.28-1.92,5.48-4,10.89-6.27,16.18a128,128,0,0,1-17.16,29.47c-.84,1.14-1.81,2.16-2.71,3.24s-1.87,2.11-2.87,3.21a57.23,57.23,0,0,0-6,7.37,26.17,26.17,0,0,0-2.44,4.65,18.56,18.56,0,0,0-1.26,5.54,18,18,0,0,0,.49,5.71,14.72,14.72,0,0,0,2.68,5.52,12.44,12.44,0,0,0,5.27,3.9,13.31,13.31,0,0,0,6.31.8A18.56,18.56,0,0,0,41.69,169a30.19,30.19,0,0,0,4.48-2.49c1.37-.92,2.64-1.89,3.86-2.87l3.43-2.84,6.8-5.63L169.05,65a11.88,11.88,0,0,0,1.73-1.65,6.63,6.63,0,0,0,1.06-1.8,6.38,6.38,0,0,0,.43-2.24,7.63,7.63,0,0,0-.73-3.22,16.69,16.69,0,0,0-.93-1.72l-2.94-4.9c-1.92-3.15-3.78-6-5.65-8.65a66.57,66.57,0,0,0-10.83-12.15,45,45,0,0,0-8.9-6,31.42,31.42,0,0,0-5.58-2.25c-2.56-.71-2.74-.48-2,0A33.75,33.75,0,0,1,138.15,22.47Z"/><path d="M38.08,166.37c0,.55,3.65,5.38,2.71,5.08S34.3,165.7,34,166s4,6.82,3.42,6.86c-1.43.11-5.18-3.39,2.66,5.64l2.38,2.74,3.06-2.06c1.93-1.3,4.8-3.2,8.5-5.8q8.54-5.95,16.83-12.31c5.53-4.24,10.9-8.69,16.18-13.07s10.58-8.58,16.07-12.57c2.74-2,5.5-3.87,8.44-6.06s5.6-4.4,8.26-6.75c1-.88,2-1.8,3-2.7,1.24-1.17,2.47-2.36,3.68-3.57,7.6-7.74,10-11.73,10.67-13.11s-.52-.52-1.49-.31c-.55.12-.47-.77-.4-1.78s.18-2.08-.17-2.31-1.6,1.24-3,2.5-2.82,2.45-2.88,2.17c-.22-.85.67-2.72-.2-2.06a41.8,41.8,0,0,0-3.06,3.27c-1.78,2-4.5,4.93-8.85,9h0c-.93.85-1.85,1.72-2.8,2.55-2.65,2.34-5.39,4.59-8.2,6.68-.7.53-1.42,1-2.12,1.53l-2.25,1.6q-2.27,1.59-4.5,3.24c-6,4.36-11.76,9.05-17.37,13.72s-11.2,9.19-17,13.54-11.67,8.54-17.64,12.65l-4.33,3,5.48.69C36.28,161.8,38.07,164.62,38.08,166.37Z"/><path d="M138,99.19c-.14.13-.08.63.19,1.14s.63,1,.35,1.11a2.85,2.85,0,0,1-2.07-.76,5.33,5.33,0,0,1-1-1c-.23-.32-.4-.56-.5-.54s-.24.33-.28.81a4.67,4.67,0,0,0,.32,1.73c.44,1.26,1.37,2.24,1.14,2.37a2.39,2.39,0,0,1-1.36.05c-.43-.07-.73-.09-.47.33a4,4,0,0,0,.9.93,8.91,8.91,0,0,0,2.24,1.28,11,11,0,0,0,4.09.79,10.65,10.65,0,0,0,1.38-.08,12.7,12.7,0,0,0,1.36-.25,15.25,15.25,0,0,0,2.81-1,28.56,28.56,0,0,0,5.24-3.24l4.24-3.18,8.44-6.33L173.53,87l1.06-.8a9.2,9.2,0,0,0,1.73-1.63,6.24,6.24,0,0,0,1-1.72,5.93,5.93,0,0,0,.37-2.24,6.9,6.9,0,0,0-.93-3.16,16.49,16.49,0,0,0-1-1.47l-.78-1.1-1.58-2.19-1.21-1.64L170.66,69c-3.36-4.34-4.94-5.93-5.64-6.34s-.61.43-.86,1.12-2.5.08-3.13.62c-.43.38,1.36,4,.87,4.16-.71.23-1.73-.3-1.59.31s1.48,2.3,5.19,7.22h0l1.16,1.57,1.6,2.22c.47.66,1.25,1.77,1.16,1.68a1.43,1.43,0,0,1-.1-.34,2.47,2.47,0,0,1,.35-1.74,1.21,1.21,0,0,1,.17-.22l-.2.17-.52.39-1.12.84L159,87.4l-8.94,6.71c-1.49,1.11-3,2.3-4.31,3.17a10.3,10.3,0,0,1-3.55,1.67,3.75,3.75,0,0,1-2.43-.34c-.38-.19-.46-.21-.63-.19A1.85,1.85,0,0,0,138,99.19Z"/><path d="M77,76.59c.35,0,1-.5,1.45-.24s.84.93,1.26.95.69,0,1.07,0a3.48,3.48,0,0,1,1,.14l.8.24h0a1.25,1.25,0,0,1,.47.22c.34.23.37.44.26.18a1.54,1.54,0,0,1-.11-.5,1.05,1.05,0,0,1,0-.4l-.63-3a.71.71,0,0,1-.34-.09l-.06,0h0a.7.7,0,0,1,.13.23.54.54,0,0,1,0,.12s0,0,0,0h0l0,.19,0,.37c0,.5,0,1,0,1.45a1.57,1.57,0,0,0,.51,1c.31.33.7.56.75.8.16.69-.18,1.25.12,1.45s.5.12,1.1-.09A5.14,5.14,0,0,0,87,77.85h0a6.11,6.11,0,0,0,.47-.71A5.93,5.93,0,0,0,88.29,74l-.11-3-2.88-.85a7.82,7.82,0,0,0-5.43.4A8.22,8.22,0,0,0,76.06,74a4.47,4.47,0,0,0-.59,1.67,1,1,0,0,0,.15.78C75.87,76.68,76.35,76.55,77,76.59Z"/><path d="M73.79,96.13a3.42,3.42,0,0,1,.27,1.35,4.46,4.46,0,0,0-.2,1.44l.05.55h0s0-.07,0,.1a.68.68,0,0,1-.2.28.66.66,0,0,1,.29-.07h.14l.59.31.6.34a3.4,3.4,0,0,0,1,.34,7.08,7.08,0,0,1,1,.18c.65.27,1,.61,1.28.63s.63-.37.72-1.53h0c0-.13,0-.24,0-.35a5.47,5.47,0,0,0-1.1-3.21,5.4,5.4,0,0,0-2.93-2c-1-.24-1.46,0-1.57.25A4,4,0,0,0,73.79,96.13Z"/><path d="M76.69,84.41A3.41,3.41,0,0,1,77,85.76a4.46,4.46,0,0,0-.2,1.44l.05.55h0s0-.07,0,.1a.68.68,0,0,1-.2.28.65.65,0,0,1,.29-.07H77l.59.31.6.34a3.41,3.41,0,0,0,1,.34,7.06,7.06,0,0,1,1,.18c.65.27,1,.61,1.28.63s.63-.37.72-1.53h0c0-.13,0-.24,0-.35a5.47,5.47,0,0,0-1.1-3.21,5.4,5.4,0,0,0-2.93-2c-1-.24-1.46,0-1.57.25A4,4,0,0,0,76.69,84.41Z"/><path d="M72.53,106a3.41,3.41,0,0,1,.27,1.35,4.46,4.46,0,0,0-.2,1.44l.05.55h0s0-.07,0,.1a.67.67,0,0,1-.2.28.65.65,0,0,1,.29-.07h.14l.59.31.6.34a3.41,3.41,0,0,0,1,.34,7.09,7.09,0,0,1,1,.18c.65.27,1,.61,1.28.63s.63-.37.72-1.53h0c0-.12,0-.24,0-.35a5.47,5.47,0,0,0-1.1-3.21,5.4,5.4,0,0,0-2.93-2c-1-.24-1.46,0-1.57.25A4,4,0,0,0,72.53,106Z"/></g></svg>