<svg xmlns="http://www.w3.org/2000/svg" viewBox="0 0 200 201.24"><title>icon-female</title><g id="Layer_1" data-name="Layer 1"><path d="M108.4,17.13a26.83,26.83,0,0,1,3.23.7,7,7,0,0,1,1.59.77c.36.24.49.42.27.48a26.56,26.56,0,0,0-4,.08,11.45,11.45,0,0,0-1.2.3c-.36.15-.69.28-1,.42-.52.32-.82.55-.78.65s.48.16,1,.14l.9.06c.32.05.66.1,1,.17,1.3.31,2.34,1,2.17,1.2a4.54,4.54,0,0,1-1,.69c-.28.21-.4.38-.16.54s.87.28,2.19,1A10.59,10.59,0,0,1,115,26.16,10.81,10.81,0,0,1,117.44,30a13.3,13.3,0,0,1,.85,6.2,11.57,11.57,0,0,1-2.17,5.66,11.31,11.31,0,0,1-4.64,3.77,13.6,13.6,0,0,1-6.24.92,26,26,0,0,1-7-1.53,13.76,13.76,0,0,1-2.87-1.35,6.32,6.32,0,0,1-1.8-1.76,9.43,9.43,0,0,1-1.5-5.42,10.68,10.68,0,0,1,1.73-5.68,6.79,6.79,0,0,1,.67-1l.36-.47.41-.43a14.1,14.1,0,0,1,2.33-2,15.28,15.28,0,0,1,6.63-2.5c.78-.15,1.38-.1,1.85-.18a4.83,4.83,0,0,0,1-.07c.93-.14.24-.74-.19-1.41-.24-.38.33-.84,1.05-1.22s1.6-.68,1.73-1.08c.08-.25-1.39-1.11-3-1.6-.82-.24-1.66-.42-2.28-.56s-1-.22-.94-.35a3.61,3.61,0,0,1,1.25-1c.44-.23.69-.41.14-.55a5.8,5.8,0,0,0-1.51-.08,16.42,16.42,0,0,0-3.12.41,21.25,21.25,0,0,0-4.88,1.77,22.24,22.24,0,0,0-6.18,4.62v0l-.66.72-.61.77a14,14,0,0,0-1.14,1.61,19.9,19.9,0,0,0-2.31,5.1A19.46,19.46,0,0,0,83.69,37a17.27,17.27,0,0,0,3.82,10.8,15.17,15.17,0,0,0,4.69,3.75A28.62,28.62,0,0,0,97,53.45,31.05,31.05,0,0,0,107.07,55a19.73,19.73,0,0,0,17.77-11.42,20.49,20.49,0,0,0,1.82-10.81,21.61,21.61,0,0,0-1.21-5.31,20,20,0,0,0-2.58-4.93,17.94,17.94,0,0,0-5.14-4.78,15.56,15.56,0,0,0-4.74-2,10.36,10.36,0,0,0-5.46.11C105.91,16.56,107.59,16.55,108.4,17.13Z"/><path d="M81,118.18a10.63,10.63,0,0,0-1.57,2.57c-.63,1.19-1.14,2.31-1.29,1.85a15.18,15.18,0,0,1,.57-4.35c.44-1.89,1-3.65.83-3.75s-1.41,1.39-2.41,3-1.83,3.29-2,3.05c-.53-.69-.31-2.9-.91-1.91a20.06,20.06,0,0,0-1.54,4.49c-.72,2.67-1.38,6.58-2.78,12-.45,1.69-.95,3.37-1.49,5L68,141.41l-.21.62-.05.16v0l0,.07c0,.12-.07.24-.1.36a4.45,4.45,0,0,0-.11.74,4.36,4.36,0,0,0,.27,1.81,4.42,4.42,0,0,0,.4.8,4.4,4.4,0,0,0,1.76,1.57l.41.18.32.11a5.18,5.18,0,0,0,.86.18l.21,0h.79l.69,0,1.38,0,11,.36-4.06-4,1.33,22.65c.13,1.9.18,3.74.39,5.71a38.52,38.52,0,0,0,1,6.26,16.42,16.42,0,0,0,1.36,3.54,9.21,9.21,0,0,0,3.47,3.71,7.59,7.59,0,0,0,2.87,1,8.85,8.85,0,0,0,2.71-.08,13.12,13.12,0,0,0,3.92-1.49,4.08,4.08,0,0,0,2-2.43v0a86,86,0,0,0,2.53-11.48c.18-1.28.36-2.57.48-3.86q.26-2.46.36-4.94a70.67,70.67,0,0,0-.38-11.46,25.58,25.58,0,0,0-.89-4.64c-.53-1.4-.74,0-1.29.78s-2.39-2.58-3.22-2.4c-.3.06-.33,1.91-.48,3.71s-.34,3.53-.58,3.38c-.75-.43-1.39-2.28-1.56-1.26a38,38,0,0,0,0,4.21,87.57,87.57,0,0,1-.37,11.75v0c-.1,1.16-.27,2.32-.43,3.48a77.58,77.58,0,0,1-2.28,10.32l2-2.47a5.16,5.16,0,0,1-1.32.55c-.1,0-.16,0-.1,0l.22.08c.14.1,0,0-.26-.42a8.25,8.25,0,0,1-.64-1.73,30.69,30.69,0,0,1-.78-4.87c-.18-1.77-.25-3.7-.37-5.56L90,144.09v0a4.22,4.22,0,0,0-4.06-4l-13.26-.44h-.21l.14,0a3.19,3.19,0,0,1,.77.2,3.68,3.68,0,0,1,.45.21l.29.18a3.79,3.79,0,0,1,.4.3,4.23,4.23,0,0,1,.48.49c.08.1.16.2.23.3a4.07,4.07,0,0,1,.7,2.49,4,4,0,0,1-.13.84l-.06.2,0,.11h0l0-.05,0-.1.07-.21.14-.41.55-1.64c.34-1.11.71-2.21,1-3.32.65-2.22,1.2-4.48,1.69-6.71,1.08-5,1.68-8.25,2.27-10.4s.95-3.3,1-4C82.73,116.93,81.87,117.8,81,118.18Z"/><path d="M106.47,134.31c-.33.57-.76,8.65-1.28,7.51a49.43,49.43,0,0,1-.8-6.17c-.28-2.73-.62-5.3-.83-5.29s-.57,2.6-.91,5.12-.68,5-.91,4.75c-.7-.71-1.17-3.5-1.44-2s-.35,7.16-.4,23.65c0,3,0,5.9,0,8.88,0,1.49,0,3,.1,4.5,0,.77,0,1.49.1,2.34a17.5,17.5,0,0,0,.4,2.87,10.36,10.36,0,0,0,1.41,3.35,9.21,9.21,0,0,0,2.86,2.79,11,11,0,0,0,6.84,1.54,12.29,12.29,0,0,0,6.23-2.34,15.64,15.64,0,0,0,4-4.48,31.75,31.75,0,0,0,3.45-9.53,62.77,62.77,0,0,0-.17-28.13l-5.21,5a20,20,0,0,0,5.65.63c1.74,0,3.34-.2,4.84-.35,3-.32,5.6-.5,7.41,0a4.18,4.18,0,0,0,5.29-4.63v0c-1.09-7.19-2.27-14.43-4.08-21.66-.43-1.74-.9-3.47-1.41-5.19-.64-2.2-1.35-4.38-2.12-6.53a133.79,133.79,0,0,0-6.16-14.5,51.16,51.16,0,0,0-3.07-5.63c-1.14-1.64-.75.17-.89,1.32s-3.55-2.74-4.29-2.36c-.26.13.56,2.62,1.33,5s1.49,4.79,1.17,4.68c-.92-.35-2.53-2.66-2.15-1.23.18.72.88,2.36,2.29,5.68.7,1.66,1.58,3.74,2.57,6.34s2.13,5.73,3.24,9.54v0c.47,1.61.91,3.22,1.31,4.86,1.7,6.78,2.85,13.8,3.92,20.87l5.28-4.67a20,20,0,0,0-5.65-.63c-1.74,0-3.34.2-4.84.35-3,.32-5.6.5-7.41,0a4.18,4.18,0,0,0-5.23,5l0,.07a54.39,54.39,0,0,1-.4,26.56c-.74,2.79-1.82,5.19-3.22,6.47a6.65,6.65,0,0,1-.53.45,4,4,0,0,1-.44.26,4.29,4.29,0,0,1-1.11.36,3.15,3.15,0,0,1-1.92-.21.74.74,0,0,1-.32-.29,1.93,1.93,0,0,1-.29-.77,11,11,0,0,1-.2-1.72l-.09-2.3c-.17-6.28-.13-12.72-.11-19.14.07-14-.14-19.79-.49-21.79S107.09,133.32,106.47,134.31Z"/><path d="M123.79,88.18c-.08.83,4.1,11.27,3,10a80.38,80.38,0,0,1-4.21-7.54c-1.76-3.37-3.29-6.65-3.49-6.58s.69,3.63,1.79,7,2.2,6.68,1.84,6.48c-1-.61-3.08-4-2.48-2,.29,1,1.28,3.35,3.27,8l1.63,3.94.92,2.33c.35.89.77,1.95,1.29,3a19.86,19.86,0,0,0,5,6.69,10.36,10.36,0,0,0,5.74,2.4,9.61,9.61,0,0,0,3.53-.4l.86-.28c.29-.12.57-.27.85-.41a8.61,8.61,0,0,0,1.6-1.06,10.21,10.21,0,0,0,2.51-3.12,14,14,0,0,0,1.22-3.22,22.81,22.81,0,0,0,.57-5.89,31,31,0,0,0-.64-5.52,36.08,36.08,0,0,0-1.57-5.25c-1.28-3.32-2.84-6.21-4-8.91a33.48,33.48,0,0,1-1.43-4c-.16-.66-.33-1.31-.43-2L141,80.64c-.08-.52-.23-1-.36-1.55a18.39,18.39,0,0,0-2.75-5.56,37.22,37.22,0,0,0-3.53-4.11l-.86-.88c-.29-.29-.52-.55-.93-.92a22.59,22.59,0,0,0-2.28-1.94,25.77,25.77,0,0,0-5-2.81,38.28,38.28,0,0,0-10.46-2.56c-1.73-.21-3.44-.31-5.13-.36-.85,0-1.69,0-2.53,0l-2.36,0c-3.15,0-6.43-.14-9.84,0A41.58,41.58,0,0,0,84.3,61.52,12.05,12.05,0,0,0,81,63.14a13,13,0,0,0-2.56,2.47A26.66,26.66,0,0,0,76.83,68L75.54,70c-1.72,2.75-3.42,5.57-5,8.49a67.36,67.36,0,0,0-7.35,19.06,39.89,39.89,0,0,0,1.17,21.21c.25.74.58,1.45.87,2.18a3.75,3.75,0,0,0,1.73,1.93l.15.08a10.05,10.05,0,0,0,4.31,1.14,11.65,11.65,0,0,0,4-.58A13.5,13.5,0,0,0,81.06,120a18.81,18.81,0,0,0,3.28-5,51.59,51.59,0,0,0,2.47-6.91l1.66-5.55L91,94.05c1.32-4.59,2-7.19,2.25-8.54.52-2.71-.64-.47-1.64.63s-.24-6-1-6.21c-.55-.18-5.65,13.37-5.9,12.58-.38-1.16.33-5.07-.52-3.18-.43.94-1.25,3.33-2.8,8.23l-2.91,9.37c-1.17,3.74-2.66,7.78-5.54,8.59h0a2.39,2.39,0,0,1-1.82,0l1.88,2c-.21-.54-.46-1.06-.64-1.61-2-5.45-2-11.73-.62-17.74A64.26,64.26,0,0,1,79,80.6c1.62-2.84,3.42-5.72,5.18-8.5a6.45,6.45,0,0,1,2-2.26,6.28,6.28,0,0,1,1.41-.51l1.09-.26,1.09-.22a51.93,51.93,0,0,1,9.37-.63l10.08.12a44.72,44.72,0,0,1,9.22,1.11,18.8,18.8,0,0,1,7.49,3.45,7.45,7.45,0,0,1,.71.63l.35.33.45.46c.59.6,1.17,1.19,1.69,1.76a19.53,19.53,0,0,1,2.57,3.28,9,9,0,0,1,1.16,3.29,32.52,32.52,0,0,0,1.44,5.68c1.26,3.63,3,6.73,4.21,9.62a25.71,25.71,0,0,1,2.33,8.46,17.5,17.5,0,0,1-.08,4.08,5.64,5.64,0,0,1-.92,2.6,1.79,1.79,0,0,1-.42.33,1.87,1.87,0,0,1-.59.09,1.62,1.62,0,0,1-.64-.22,4.78,4.78,0,0,1-1-.84,16,16,0,0,1-2.78-4.49c-.19-.43-.32-.77-.53-1.28l-.57-1.41-1.1-2.62c-1.43-3.32-2.67-6-3.69-8.15-2-4.32-3.16-6.67-3.82-7.86C123.33,84.28,123.85,86.7,123.79,88.18Z"/></g></svg>