<svg xmlns="http://www.w3.org/2000/svg" viewBox="0 0 198.77 200"><title>icon-bag</title><g id="Layer_1" data-name="Layer 1"><path d="M35.45,55.16c.5.27,4.6.95,8.29,1.61s7,1.21,5.87,1.36a40.35,40.35,0,0,1-4.41-.08l-7.52-.49c-5.26-.4-10.25-.84-10.28-.62s4.87,1.32,9.69,2.3,9.54,1.84,9.07,2c-1.45.56-6.95.36-4.14,1,1.4.32,4.89.79,12,1.57s17.9,1.73,33.9,2.49a689.26,689.26,0,0,0,86.24-1.4l-4.45-3.34a52.52,52.52,0,0,1,1.11,7.28,15.53,15.53,0,0,1-.65,6.17,9.11,9.11,0,0,1-1.26,2.31,15.39,15.39,0,0,1-2.23,2.18l-6.12,5-12.33,10.1-6.1,5a15.08,15.08,0,0,1-2.59,1.71,9.61,9.61,0,0,1-2.65.8,25.74,25.74,0,0,1-3.4.29l-3.93.09-8,.16-15.93.32-15.93.32-8,.16-4,.08c-1.34,0-2.61.06-3.77,0a12.62,12.62,0,0,1-7.38-2.18,57.72,57.72,0,0,1-4.77-3.58l-5-4L43.18,82.88,37.9,78.71,35.66,77a8.5,8.5,0,0,1-1.24-1.15,1.27,1.27,0,0,1-.3-.53A4.76,4.76,0,0,1,34,74.15c0-.49,0-1.11,0-1.69l0-1.61c0-2,0-3.4,0-4.35-.13-3.81-.73-.38-1.45,1.46-.81,2.09-1.63-7.84-2.46-7.88-.29,0-.89,5-1.46,9.85l-.42,3.57a10.77,10.77,0,0,0,.12,3.65,8.67,8.67,0,0,0,1.12,2.57c.32.51.46.74.31.67a5.2,5.2,0,0,1-1.7-1.55,8.6,8.6,0,0,1-1.3-2.78c-.23-.83-.33-1.41-.43-1.58s-.19,0-.19,1.05a8.78,8.78,0,0,0,.37,2.33,9.6,9.6,0,0,0,2,3.49,23.73,23.73,0,0,0,3.06,2.81l3.63,3,10.59,8.53L53,101.43l4.11,3.29a58.58,58.58,0,0,0,5,3.67l.05,0a22.06,22.06,0,0,0,5.61,2.63,23.85,23.85,0,0,0,6,.86c1.49,0,2.88,0,4.19,0l4-.08,8-.16,15.93-.32,15.93-.32,8-.16,4-.09a33.82,33.82,0,0,0,4.53-.41,18,18,0,0,0,4.94-1.54,23.19,23.19,0,0,0,4.07-2.63l6.25-5.1L165.9,91l6.2-5.09a23.41,23.41,0,0,0,3.43-3.42,17.49,17.49,0,0,0,2.56-4.65,23.73,23.73,0,0,0,1.14-9.55A60.43,60.43,0,0,0,178,59.82l-.74-3.63-3.71.29a681.53,681.53,0,0,1-97.83.68c-13.45-.88-22.88-1.84-29.44-2.45s-10.23-1-12.12-1.12C30.33,53.4,33.67,54.29,35.45,55.16Z"/><path d="M31,98.85c-.17.43-.37,3.83-.62,6.88s-.56,5.77-.8,4.87-.42-5.41-.67-9.69-.58-8.33-.79-8.32-.59,4.06-.95,8-.77,7.8-1,7.43c-.68-1.12-1.1-5.51-1.39-3.22-.16,1.14-.25,4-.46,9.67s-.54,14.34-1.67,27.08Q22,149.23,21,156.88L20.52,161l4.11.56A633.74,633.74,0,0,0,174,164.27l3.81-.38,0-3.83-.05-8.56-.05-8.17-.06-10.4c-.27-44-.75-35.81-2-32.77-.71,1.72-2-6.28-2.84-6.28-.58,0-1.44,16.25-1.91,15.5-1.41-2.22-1.91-17.68-1.59,34v0l.05,8.17.05,8.56,3.78-4.21a625.32,625.32,0,0,1-147.39-2.67l3.6,4.69q1.6-13,2.47-26c.72-11.07.85-18.88.85-24.3s-.15-8.46-.31-10C32.06,94.5,31.64,97.32,31,98.85Z"/><path d="M69.53,44.54a8.87,8.87,0,0,0,1.11-1.69c.46-.75.95-1.36,1.11-1a12.19,12.19,0,0,1,0,2.71c-.06,1.16,0,2.26.18,2.29s.86-.91,1.47-1.78,1.25-1.68,1.44-1.52c.57.48.71,1.61,1.13,1.16a9.46,9.46,0,0,0,1-2.06c.27-.61.6-1.39,1.07-2.32.22-.45.52-1,.79-1.49l.1-.17h0l-.1-.07-.41-.32c-.24-.19-.44-.37-.58-.51a3.19,3.19,0,0,1-.52-.61c-.06-.11,0,0,.07.16a5.24,5.24,0,0,1,.21.64c0,.16.09.37.14.61l.13.74h.1l.61,0,1.4-.09,2.8-.16c1.87-.1,3.74-.17,5.6-.22q5.61-.15,11.22,0t11.2.51q2.8.19,5.59.46l2.79.28c.94.1,1.87.19,2.57.31a7.62,7.62,0,0,1,1.34.33,1.88,1.88,0,0,1,.78.46c.51.39.8,1.9.85,3a13.65,13.65,0,0,0,.2,2.19c.21.76.74.15,1.41-.15s1.77,1.79,2.59,1.93c.28,0,.82-1,1.28-2s.8-2.23,1-2.12c.71.32,1.12,1.72,1.42,1a7.77,7.77,0,0,0,.13-3.29,11.49,11.49,0,0,0-1.3-4.2,9.74,9.74,0,0,0-2.11-2.64,10.32,10.32,0,0,0-3.34-2h0a15.85,15.85,0,0,0-2.84-.73c-1.24-.21-2.25-.29-3.27-.4l-3.06-.3c-2-.19-4.09-.35-6.14-.49q-6.14-.41-12.3-.5T86,30.42q-3.08.11-6.15.3l-1.54.1c-.55,0-.86,0-1.93.18a6.8,6.8,0,0,0-1.87.59,6.39,6.39,0,0,0-1.77,1.3,9.43,9.43,0,0,0-1.52,2.18,31.18,31.18,0,0,0-2.7,6.61,9.94,9.94,0,0,0-.47,2.9C68.18,45.51,68.8,44.8,69.53,44.54Z"/><path d="M95.56,116.48c.37-.08,1-1.6,1.47-1.34s.84,2.31,1.26,2.35c.58,0,1.7-1.88,2.15-1.75,1.37.39,1.62,2.34,2.14-4.05l.39-4.78-4.67,3.32c.05-.34.09-.11-.29.33l-.06.07h0s0,0,0,.05a1.49,1.49,0,0,1,.15.24,4.23,4.23,0,0,1,.41,1.91c0,1-.2,2.21-.35,3.74a15.72,15.72,0,0,0,.28,5.52l2.5-5h0l-.11,0h-.19l3,3.82c-.29-4.9-.77-3.92-2-3.49-.71.25-2-.68-2.83-.64-.58,0-1.43,2.09-1.9,2-1.26-.18-1.79-1.71-1.66,2.54l.09,2.92,2.93.89a8.69,8.69,0,0,0,3.31.32h0a8.93,8.93,0,0,0,1.88-.38l.6-.21,3.49-1.36-1-3.59a7.73,7.73,0,0,1-.05-2.61c.11-1.18.35-2.63.39-4.4a12.5,12.5,0,0,0-1.38-6,9.35,9.35,0,0,0-2.31-2.89,7.85,7.85,0,0,0-4-1.73l-4.38-.53-.36,4.35-.5,6.06C93.64,117.72,94.25,116.75,95.56,116.48Z"/></g></svg>