<svg xmlns="http://www.w3.org/2000/svg" viewBox="0 0 198.77 200"><title>icon-accessories</title><g id="Layer_1" data-name="Layer 1"><path d="M131.27,134.45c-.25.22-.83,2.2-1.65,3.85a12.43,12.43,0,0,1-1.11,2.08c-.32.48-.53.68-.55.39a13.35,13.35,0,0,1,.38-2.08c.16-1,.5-2.26.61-3.51l.21-1.78c0-.57,0-1.09,0-1.54,0-.89,0-1.47-.13-1.48s-.39.54-.68,1.35l-.47,1.37-.63,1.52a20.35,20.35,0,0,1-1.29,2.68c-.37.69-.67,1.08-.76.94-.45-.81-.23-3.13-.84-2.06a13.53,13.53,0,0,0-.65,1.49l-.59,1.33a18.92,18.92,0,0,1-.83,1.78c-.34.67-.68,1.44-1.18,2.26s-1,1.76-1.65,2.74a51.4,51.4,0,0,1-5.29,6.87,68.07,68.07,0,0,1-8.52,7.92c-1.53,1.21-3.12,2.35-4.74,3.44l-2.4,1.5-2.49,1.35a45.37,45.37,0,0,1-10.64,3.74c-.92.16-1.83.44-2.77.52l-2.8.34c-.94.06-1.88.07-2.81.11-.47,0-.94.05-1.41,0l-1.41-.08a47.59,47.59,0,0,1-11.15-1.91,59.48,59.48,0,0,1-10.58-4.5,50.9,50.9,0,0,1-5-3,57.18,57.18,0,0,1-4.79-3.4l-2.31-1.83L39.24,156c-.38-.31-.7-.64-1.05-1-.68-.65-1.41-1.25-2-1.94L34.23,151c-.45-.55-.88-1.11-1.32-1.67a18.69,18.69,0,0,1-1.27-1.71c-.49-.76-1-1.48-1.5-2.27s-.92-1.56-1.36-2.36a56.66,56.66,0,0,1-4.56-11.87c-.74-2.77-1-4.38-1.34-5.18-.54-1.66-.77,0-1.26.89-.28.53-.91-.25-1.55-1.18s-1.35-2-1.76-1.89c-.14.05-.2.56-.26,1.46s-.07,2.06-.05,3.23c0,2.35.25,4.66,0,4.5-.83-.47-1.86-3-1.82-1.57a26.38,26.38,0,0,0,1.25,5.84c.23.86.56,1.8.95,2.86s.87,2.22,1.4,3.51a52.15,52.15,0,0,0,5,8.84l0,0a24.64,24.64,0,0,0,1.51,2c.53.66,1,1.34,1.59,2l2.42,2.63c.84.84,1.73,1.63,2.6,2.44s1.78,1.48,2.67,2.21l2.69,2.13a32.07,32.07,0,0,0,2.79,2l2.86,1.93a33,33,0,0,0,3,1.77l3,1.69c1,.55,2.11,1,3.17,1.48s2.1,1,3.21,1.38A60.28,60.28,0,0,0,63,178.24,52,52,0,0,0,77,180,49.8,49.8,0,0,0,91.1,177.8,53.91,53.91,0,0,0,104,172a80.5,80.5,0,0,0,11-8.34,68.18,68.18,0,0,0,9.39-10.3,47.06,47.06,0,0,0,7-13.23,27.76,27.76,0,0,0,1.3-6.16c0-1-.19-1.06-.45-.79a5.89,5.89,0,0,0-.47.6A7.21,7.21,0,0,1,131.27,134.45Z"/><path d="M18.43,124.67a14.81,14.81,0,0,0,0-1.83l0-1.56c0-.56,0-1.14,0-1.7s0-1.1.08-1.6.11-.93.17-1.27c.12-.69.24-1,.37-.69.25.65.5,3.89,1.21,6.87s1.61,5.7,1.8,5.65,0-2.92-.05-5.67l0-2c0-.63.09-1.21.14-1.7.09-1,.22-1.56.34-1.44.72.74,1.39,3.59,1.55,2.06.1-.76-.05-2.62.25-6.33a47.33,47.33,0,0,1,1.1-7A46.85,46.85,0,0,1,29.2,96.6a49.91,49.91,0,0,1,8.28-11.43c.77-.91,1.68-1.7,2.54-2.53s1.72-1.68,2.65-2.42a55.88,55.88,0,0,1,5.69-4.28,51.15,51.15,0,0,1,6.14-3.41,46.8,46.8,0,0,1,6.56-2.39,49.26,49.26,0,0,1,14-1.71,62.08,62.08,0,0,1,7.12.5,57.52,57.52,0,0,1,7,1.42,56.05,56.05,0,0,1,13.13,5.38,48.75,48.75,0,0,1,11,8.62,41.46,41.46,0,0,1,7.59,11.59,53.16,53.16,0,0,1,2,5c.38,1.07.66,2.18,1,3.28s.58,2.22.78,3.36A81.7,81.7,0,0,1,126,117c.23,2.7.36,4.95.45,6.81.18,3.71.27,5.84.43,6.92.3,2.17.75.2,1.38-.87.72-1.22,2,4.44,2.81,4.44.29,0,.68-2.88,1-5.7s.61-5.61.85-5.35c.73.78,1.24,4,1.49,2.29a48.28,48.28,0,0,0,0-7.11c-.09-2.11-.32-4.78-.77-8.11a66.84,66.84,0,0,0-2.79-12v0a61.56,61.56,0,0,0-2.26-5.78c-.61-1.32-1.23-2.64-1.95-3.9s-1.48-2.54-2.27-3.81c-.38-.65-.86-1.21-1.29-1.82s-.86-1.21-1.35-1.77c-1-1.11-1.9-2.28-3-3.3a54.56,54.56,0,0,0-6.63-5.78,61.23,61.23,0,0,0-7.4-4.61,65.72,65.72,0,0,0-7.92-3.55,67,67,0,0,0-8.33-2.41,63.78,63.78,0,0,0-8.59-1.3,73.31,73.31,0,0,0-8.63-.15,59.46,59.46,0,0,0-8.68,1.06,54.78,54.78,0,0,0-8.46,2.45,57,57,0,0,0-7.92,3.81A63.56,63.56,0,0,0,39,72.34,70.31,70.31,0,0,0,26.93,84.62,54.88,54.88,0,0,0,18.6,100a48.5,48.5,0,0,0-2.35,10.67c-.2,1.53-.19,2.93-.27,4.2s0,2.42.07,3.45l.25,2.75c.1.81.23,1.51.33,2.12a18.25,18.25,0,0,0,.61,2.62C17.93,128.07,18,125.88,18.43,124.67Z"/><path d="M122.72,74.31c.06.42,2.62,1.72,2.1,2.08s-4.2-.26-4.34.12c-.2.55,3.06,2.63,2.78,3-.45.59-1.58.71-1.15,1.14s2.43,1.25,8.37,2.68a115,115,0,0,0,25.43,3l7.57,0-4-6.44a70.12,70.12,0,0,0-9.78-12.16q-.68-.7-1.36-1.37l-1.75-1.7c-3.74-3.52-5.36-4.75-6.08-5s-.55.51-.72,1.22-2.38.49-2.94,1.12c-.39.43,1.72,3.62,1.27,3.85-.66.35-1.7,0-1.5.56s1.71,2,5.8,5.95h0q.64.63,1.27,1.27a61.85,61.85,0,0,1,8.62,10.68l3.59-6.41a105.71,105.71,0,0,1-25.76-3.28c-4.66-1.23-6.55-1.77-7.29-1.7S122.59,73.59,122.72,74.31Z"/><path d="M139.34,66.48c.1-.4-1.69-2.66-1.06-2.76s3.69,1.93,4,1.62-1.69-3.57-1.25-3.81c.65-.35,1.69,0,1.49-.58s-1.69-1.94-5.73-5.82c-1.66-1.61-3.26-3.26-4.71-4.93a24.81,24.81,0,0,1-3.46-4.89L123.3,34.36l-2.63,11.78a119.28,119.28,0,0,0-2.89,25.06c0,.63,0,1.27,0,1.9,0,.81,0,1.61,0,2.42.17,5.11.56,7.17.91,7.85s.75,0,1.35-.41,2.08,1.24,2.92,1.14c.57-.07,1.2-3.73,1.69-3.59.71.19,1.23,1.12,1.47.59s.1-2.47,0-8h0c0-.59,0-1.18,0-1.76A110.88,110.88,0,0,1,128.88,48l-7.92.83a34,34,0,0,0,5.55,7.8c2,2.2,4,4.23,6.11,6.18,3.69,3.45,5.3,4.64,6,4.89S139.17,67.18,139.34,66.48Z"/><path d="M156.41,80.46c.42,0,1.67-2.48,2-2s-.21,4,.15,4.19.94-.62,1.57-1.35,1.22-1.48,1.42-1.34c.6.44.72,1.57,1.14,1.13a6.56,6.56,0,0,0,.92-2.13,44.14,44.14,0,0,0,1.44-6.31c.13-.84.25-1.69.35-2.53a13.2,13.2,0,0,0,0-3.45,7.77,7.77,0,0,0-.77-2.45,7.48,7.48,0,0,0-1.62-2.11,12.17,12.17,0,0,0-3-1.93,5.19,5.19,0,0,1-.64-.35,1.39,1.39,0,0,1-.27-.19l-.32-.24a18.48,18.48,0,0,1-1.42-1.3c-1-1-2-2.08-2.94-3.24-1.95-2.31-3.83-4.8-5.75-7.32-1-1.27-1.91-2.53-3-3.91a25.65,25.65,0,0,0-1.88-2.12,9.12,9.12,0,0,0-3.71-2.26,10.66,10.66,0,0,0-2.91-.41h-2.39c-9.68.07-7.88.59-7.21,1.86.38.72-1.37,2-1.36,2.81,0,.58,3.59,1.51,3.43,2-.24.7-1.21,1.16-.7,1.43a6.5,6.5,0,0,0,2.15.28c.64,0,1.43,0,2.43,0h3.51a3,3,0,0,1,.64.05c-.09,0,0,0,.33.3.16.16.36.39.6.67l.77.93c1,1.17,2,2.54,3,3.87,2,2.69,4.13,5.42,6.44,8.11a44.67,44.67,0,0,0,3.88,4,14.84,14.84,0,0,0,1.22,1l.67.5c.27.17.57.35.86.52.67.4,1,.5,1.27.66a5.28,5.28,0,0,1,.6.34c.11.07.08.08,0,0a1.09,1.09,0,0,1-.18-.35,5.58,5.58,0,0,1,0,.94c-.17,1.52-.4,3.08-.71,4.6-.92,4.38-1.51,6.12-1.4,6.83S155.7,80.57,156.41,80.46Z"/><path d="M142.73,68c-.22-.29-1.21-.32-1.33-.83s.6-1.47.4-1.84S140.13,64.43,140,64c-.52-1.32.19-2.11-2.79-.6q-5,2.5-10.27,4.52l-.49.19-.63.24c-2.68,1-2,1.29-1.4,2.43.35.64.26,2,.53,2.78.19.55,1.55,1.08,1.66,1.53.33,1.36-.54,2.13,2.82.88h0l.53-.2q5.94-2.29,11.63-5.16C144.27,69.21,143.51,69,142.73,68Z"/><path d="M146.95,57.85a7.82,7.82,0,0,1-1.35.25c-.5,0-1-.38-1.45-.38-.58,0-1.54.34-2,.33-1.4,0-1.8-.37-1.8.71v4c0,.92.53.75,1.81.69.72,0,2,.13,2.8.13.58,0,1.54-.34,2-.33,1.4,0,1.8.37,1.8-.71h0v-4C148.76,57.61,148.22,57.78,146.95,57.85Z"/><path d="M154.3,18.41c-.36.05-.85.82-1.35.71s-1-1.09-1.45-1.09c-.58,0-1.54,1-2,.94-1.4-.13-1.8-1.07-1.8,2V32.57c0,2.65.53,2.16,1.81,2,.72-.1,2,.38,2.8.38.58,0,1.54-1,2-.94,1.4.13,1.8,1.07,1.8-2h0V20.39C156.1,17.73,155.57,18.23,154.3,18.41Z"/><path d="M175.16,36.37c-.25-.26-1.08-.25-1.3-.71s.14-1.39-.11-1.72-1.6-.72-1.85-1.11c-.74-1.19-.34-2-2.51-.37l-7.26,5.45-.34.26-.44.33c-1.85,1.39-1.19,1.55-.29,2.48.51.52.91,1.76,1.41,2.44.35.46,1.6.72,1.85,1.11.74,1.19.34,2,2.51.37h0l.34-.26,7.7-5.77C176.72,37.46,176.06,37.29,175.16,36.37Z"/><path d="M191.82,57.91c-.07-.36-1.06-.85-.92-1.35s1.42-1,1.42-1.45c0-.58-1.28-1.54-1.22-2,.18-1.4,1.39-1.8-2.67-1.8H173.35c-3.46,0-2.82.53-2.58,1.81.14.72-.5,2-.5,2.8,0,.58,1.28,1.54,1.22,2-.18,1.4-1.39,1.8,2.67,1.8h15.08C192.7,59.72,192.06,59.18,191.82,57.91Z"/></g></svg>