<svg xmlns="http://www.w3.org/2000/svg" viewBox="0 0 200 201.24"><title>icon-green</title><g id="Layer_1" data-name="Layer 1"><path d="M54.58,31.28A20.08,20.08,0,0,0,56,34c.82,1.34,1.81,3.06,2.84,4.63l2.64,4.06c.65,1,.91,1.5.47,1.13a16,16,0,0,1-1.13-1.15c-.51-.57-1.13-1.32-1.83-2.17-1.44-1.68-3-3.89-4.64-6l-4-6a16.34,16.34,0,0,0-1.92-2.58c-.23.13,2.12,4.65,4.43,9.08.61,1.09,1.26,2.16,1.84,3.16s1.12,1.93,1.61,2.69c.95,1.53,1.51,2.5,1.28,2.38a22.52,22.52,0,0,1-2.83-2.5c-.88-.88-1.38-1.36-.65-.06a97.65,97.65,0,0,0,7.46,10c2.34,2.85,5.39,6.3,9.3,10.46s8.73,9,14.46,14.63C91.65,82.08,97.95,88.4,103.81,95a104.8,104.8,0,0,1,8.09,10.14,33.09,33.09,0,0,1,2.92,5.31,24.91,24.91,0,0,1,1.66,5.64,46.11,46.11,0,0,1,.62,6.21c.1,2.13.08,4.27,0,6.4a69.79,69.79,0,0,1-1.81,12.65,28.33,28.33,0,0,1-4.69,10.85,33.63,33.63,0,0,1-4.2,4.37c-1.6,1.43-3.35,2.95-5,4.28-3.28,2.7-6.64,4.81-10,5.32a18,18,0,0,1-5.55-.12,42.5,42.5,0,0,1-6-1.46c-7.82-2.55-14.95-7.51-19.27-14.23A35.69,35.69,0,0,1,56,139.08c-1-4.13-1.69-8.58-2.4-12.93a249.84,249.84,0,0,1-2.45-26.48l-.18-5-.08-5q-.07-6.43.08-12.87c.32-13.62,1-23.22,1.37-29.9s.6-10.43.61-12.36c0-3.85-.64-.41-1.36,1.44-.81,2.09-1.16-8-1.91-8-.54,0-2.9,20.15-3.23,19.18-.53-1.44-.54-7-1-4.12-.22,1.43-.58,5-1.07,12.21s-1.17,18.18-1.07,34.48v.06l.08,5.16.18,5.16a250.92,250.92,0,0,0,2.77,28.9c.42,2.39.79,4.79,1.24,7.18s1,4.84,1.7,7.29a44.82,44.82,0,0,0,2.75,7.3,39.13,39.13,0,0,0,4.24,6.73,42.49,42.49,0,0,0,11.85,10.18,49.68,49.68,0,0,0,7,3.38,53.13,53.13,0,0,0,7.43,2.2,29.8,29.8,0,0,0,8.14.71,21.86,21.86,0,0,0,8.27-2.3,38,38,0,0,0,6.64-4.36c1-.79,1.94-1.59,2.86-2.39l2.74-2.4a41.72,41.72,0,0,0,5.43-5.68,30.06,30.06,0,0,0,4-7.13,49.32,49.32,0,0,0,2.23-7.41c.55-2.45,1-4.92,1.29-7.41a77.1,77.1,0,0,0,.4-15,43.37,43.37,0,0,0-1.21-7.73,33.6,33.6,0,0,0-3-7.47,70.29,70.29,0,0,0-8.87-12.2c-3.14-3.72-6.45-7.25-9.78-10.75C95,74.65,88.13,68,81.48,61.29c-4.79-4.85-8.72-9.06-12-12.72s-5.74-6.77-7.69-9.39-3.42-4.69-4.57-6.28-1.86-2.83-2.41-3.59C52.65,26.21,54.09,29.36,54.58,31.28Z"/><path d="M126.15,127.9a6.5,6.5,0,0,0,3.38-.37c1.56-.46,2.94-1.17,2.65-.69a11.45,11.45,0,0,1-4.72,2.78,9.09,9.09,0,0,1-3.31.39c-.92-.07-1.52-.25-1.56-.14s.47.53,1.4.87a9.09,9.09,0,0,0,3.59.45c2.65-.16,5-1.24,4.87-.91a5.36,5.36,0,0,1-1.41,1.55c-.54.45-.86.73,0,.55a18,18,0,0,0,5.86-3.17c.74-.57,1.51-1.21,2.41-1.93s1.83-1.59,2.82-2.6a59.43,59.43,0,0,0,6.63-7.73c7.36-10.16,11.73-22,14.25-33.9s3.37-23.93,4.21-35.71l.39-5.45-5.24,1.55a92.52,92.52,0,0,0-28.19,14c-1.36,1-2.65,2-3.95,3-.84.64-1.62,1.36-2.42,2.05s-1.6,1.38-2.36,2.12a83.5,83.5,0,0,0-9.84,10.91,35.8,35.8,0,0,0-3.31,5.07c-.81,1.71.47.51,1.44.08s-.6,4.11.06,4.49c.23.14,1.79-1.67,3.37-3.35.81-.83,1.6-1.64,2.2-2.21s1-.86,1-.71c.06.87-1.06,3.14-.09,2.23.47-.46,1.52-1.67,3.63-4.12l1.84-2,2.39-2.47c.88-.91,1.92-1.84,3-2.9s2.38-2.13,3.79-3.26l0,0c1.2-.95,2.38-1.92,3.63-2.8a85,85,0,0,1,25.87-12.87l-4.85-3.9c-.9,12.78-1.82,25.43-4.71,37.52a88.33,88.33,0,0,1-6,17.42A63.49,63.49,0,0,1,139,116.93a50,50,0,0,1-5.52,5.38,23.51,23.51,0,0,1-4.08,2.94,12.51,12.51,0,0,1-3.83,1.43C124.54,126.88,125.37,127.4,126.15,127.9Z"/><path d="M140.24,84.85c-.34,0-1.16,1.32-1.55,1s-.33-2.24-.69-2.32-1.81,1.36-2.19,1.15c-.57-.3-.84-.86-1.14-.69-.15.08-.31.34-.55.89l-1,2.64a40.78,40.78,0,0,1-10,14.64l-.62.57-.81.7-.64.56c-.27.23-.52.47-.76.72a7.52,7.52,0,0,0-1.21,1.62,5.23,5.23,0,0,0-.6,1.75,3.34,3.34,0,0,0,0,1.28c.35,1.14.63,0,1.25-.36.34-.2.73.28,1.22.55a1.52,1.52,0,0,0,1.37.16,2.45,2.45,0,0,0,.37-.3.93.93,0,0,1,.49-.19,1.45,1.45,0,0,1,.88.13,2.7,2.7,0,0,0,.67.41,1.31,1.31,0,0,1,.46.2c.09.11.07.27.25.14l.55-.43c.43-.35.94-.77,1.54-1.3h0l.74-.68a48.43,48.43,0,0,0,12.29-18.55c.92-2.54,1-3.65.9-4.08S140.85,84.83,140.24,84.85Z"/><path d="M101.91,167.57c.13-.39-1.53-3.54-.86-3.39s3.61,3.6,3.92,3.38-1.42-4.48-.95-4.54c.7-.1,1.72.66,1.56,0a12.86,12.86,0,0,0-1.27-2.35c-.82-1.34-2.1-3.33-3.92-6.33a182,182,0,0,1-18.87-42.94c-.21-.71-.43-1.42-.61-2.13l-.74-2.73c-1.5-5.79-2-8.16-2.49-8.93s-.67.06-1.15.58S74.44,96.87,73.7,97c-.51.09-.41,4.72-.86,4.61-.68-.17-1.34-1.3-1.44-.61a10.06,10.06,0,0,0,.36,2.76c.33,1.6.88,4,1.86,7.54h0c.19.75.42,1.48.64,2.22a189.82,189.82,0,0,0,21.19,47.22c3.33,5.27,4.94,7.25,5.64,7.82S101.68,168.25,101.91,167.57Z"/></g></svg>