<svg xmlns="http://www.w3.org/2000/svg" viewBox="0 0 198.77 200"><title>icon-jewellery</title><g id="Layer_1" data-name="Layer 1"><path d="M35.35,166.17c-.08-.31-1.55-1.81-2.69-3.3s-2-2.89-1.5-2.64a11.52,11.52,0,0,1,1.73,1.31c.86.63,1.84,1.51,2.9,2.23l1.51,1.06c.48.32,1,.59,1.35.82.8.46,1.33.73,1.39.65s-.29-.61-.87-1.29l-1-1.12-1.09-1.31c-1.47-1.77-2.71-3.6-2.39-3.62.93,0,3,1.33,2.28.26-.35-.54-1.42-1.65-3.36-4.11a51.66,51.66,0,0,1-7.44-12.83,49.69,49.69,0,0,1-3.3-23A56.94,56.94,0,0,1,37,87.24a47.42,47.42,0,0,1,8.74-7.75c6.31-4.29,14-6.48,22-7.25,1.51-.14,3-.26,4.55-.3q2.91-.11,5.86,0c6.22.2,10.64.77,13.72,1.1l3.59.41c.87.1,1.49.17,1.92.19,1.71.09.33-.7-.38-1.5-.4-.45.56-.76,1.69-1s2.4-.44,2.51-.84S99,68.94,96.74,68.15s-4.53-1.41-4.29-1.62c.75-.61,3.45-.67,2.12-1.14a36.92,36.92,0,0,0-5.81-1A102.8,102.8,0,0,0,72,63.53h0c-1.68.05-3.37.18-5.06.34a64.66,64.66,0,0,0-14.12,2.92,47.53,47.53,0,0,0-13.13,6.69,57.31,57.31,0,0,0-10.52,10,63.89,63.89,0,0,0-7.91,12A66.25,66.25,0,0,0,16.12,109a62.16,62.16,0,0,0-1.89,14.35,58,58,0,0,0,6.88,28,52.8,52.8,0,0,0,9.07,12.33A31.06,31.06,0,0,0,35,167.75C36.79,168.71,35.62,167.3,35.35,166.17Z"/><path d="M106.31,69.86a15,15,0,0,0,1.62,1l1.41.78,1.49.92a20.72,20.72,0,0,1,2.43,1.72c.56.46.79.74.43.68a17.78,17.78,0,0,1-2.5-1c-1.24-.47-2.74-1.1-4.25-1.57-3-1-5.93-1.55-6-1.36s2.65,1.45,5.11,2.88c.61.36,1.22.71,1.78,1.06l1.45,1c.83.57,1.27,1,1.11,1.06-1,.2-3.92-.67-2.63.25.62.49,2.36,1.32,5.52,3.54.81.53,1.62,1.25,2.6,2,.48.37.94.83,1.45,1.28a20.55,20.55,0,0,1,1.56,1.47l1.64,1.7,1.66,2c.61.67,1.1,1.5,1.69,2.29.28.41.59.81.87,1.25l.81,1.37c4.92,8.31,7.44,18.31,7.89,28.22a62.43,62.43,0,0,1-1.08,14.75,49.23,49.23,0,0,1-4.89,13.68,40.57,40.57,0,0,1-3.93,6,37.51,37.51,0,0,1-5,5.05,43.25,43.25,0,0,1-5.86,4.15,50.24,50.24,0,0,1-6.56,3.15,55.34,55.34,0,0,1-14.26,3.54,62.8,62.8,0,0,1-7.39.43c-2.49,0-5-.14-7.49-.43-.94-.08-1.89-.21-2.83-.34s-1.89-.26-2.83-.43c-2.4-.39-4.79-.92-7.17-1.48-7.55-1.87-12.8-3.74-16.47-5s-5.73-2-6.83-2.22c-2.19-.54-.47.62.34,1.61s-5,.16-5.3.93c-.11.27,2.52,1.73,5.11,3.12s5.17,2.69,4.83,2.81c-1,.39-4.25-.33-2.74.52a55.19,55.19,0,0,0,6.78,2.7c2,.7,4.62,1.58,7.91,2.49a116.43,116.43,0,0,0,12.12,2.77h0q1.53.28,3.09.47c1,.15,2.07.28,3.11.38a84.15,84.15,0,0,0,8.82.47,71.16,71.16,0,0,0,8.91-.6,64.93,64.93,0,0,0,17.27-4.72,51.53,51.53,0,0,0,15.17-10,44.3,44.3,0,0,0,6-7.06,55,55,0,0,0,4.44-8,61.07,61.07,0,0,0,4.69-17.35c.22-1.48.28-3,.41-4.45s.15-3,.1-4.45a75.28,75.28,0,0,0-.56-8.86,70.69,70.69,0,0,0-1.62-8.72l-.52-2.16c-.2-.71-.44-1.42-.66-2.14-.46-1.42-.86-2.85-1.46-4.23a55.1,55.1,0,0,0-9.06-15.64,46.39,46.39,0,0,0-8.18-7.79,47.92,47.92,0,0,0-6.7-4.23,42.81,42.81,0,0,0-4.64-2.05,18.6,18.6,0,0,0-2.66-.83C103.52,67.69,105.45,68.87,106.31,69.86Z"/><path d="M122.88,73.42c.08.43,3,1.82,2.4,2.18s-4.66-.41-4.8,0c-.2.56,3.48,2.76,3.17,3.13-.48.58-1.73.67-1.23,1.11s2.71,1.35,9.32,2.95a127.93,127.93,0,0,0,28.3,3.3l7.57,0-4-6.44a77.83,77.83,0,0,0-10.86-13.5q-.75-.77-1.52-1.52l-2-1.89c-4.16-3.93-6-5.3-6.75-5.63s-.55.51-.69,1.24-2.5.38-3.06,1c-.38.43,2,3.91,1.58,4.12-.68.33-1.81-.09-1.56.51s1.94,2.18,6.52,6.63h0q.72.71,1.42,1.42a69.55,69.55,0,0,1,9.7,12l3.59-6.41A118.57,118.57,0,0,1,131.18,74c-5.23-1.38-7.34-2-8.16-2S122.72,72.7,122.88,73.42Z"/><path d="M136.41,59.88c.09-.4-1.7-2.7-1.05-2.8s3.7,2,4,1.67-1.68-3.59-1.23-3.82c.66-.34,1.68,0,1.49-.56a6.79,6.79,0,0,0-1.37-1.67c-.86-.91-2.23-2.22-4-4.21A30.75,30.75,0,0,1,129.09,41l-5.2-11.31L121.16,41.8a133.5,133.5,0,0,0-3.22,29.35l0,1.9c0,.81,0,1.62.06,2.42.2,5.12.6,7.19.94,7.87s.75,0,1.35-.41,2.08,1.24,2.92,1.15c.57-.07,1.19-3.77,1.69-3.63.71.19,1.23,1.12,1.47.6s.1-2.5,0-8.14h0l0-1.78a125.12,125.12,0,0,1,3-27.49l-7.92.83a41.94,41.94,0,0,0,8.19,11.43,51.48,51.48,0,0,0,4.15,3.88,7.85,7.85,0,0,0,1.9,1.3C136.41,61.35,136.24,60.58,136.41,59.88Z"/><path d="M156.31,76.88c.42,0,1.65-2.36,2-1.87s-.18,3.89.19,4c.56.22,2.58-2.79,3-2.52.6.44.73,1.51,1.15,1.11s1.27-2.28,2.4-8q.44-2.39.72-4.8a14.84,14.84,0,0,0,.09-3.15,8.68,8.68,0,0,0-.48-2.15,7.61,7.61,0,0,0-1.22-2.17,9.94,9.94,0,0,0-3-2.44c-.45-.24-.85-.44-1.2-.61l-.94-.47a33.6,33.6,0,0,1-3.49-2.06,34.87,34.87,0,0,1-6.15-5.27c-.47-.51-.88-1-1.35-1.55a21.91,21.91,0,0,0-1.88-2.07,9.75,9.75,0,0,0-3.36-2.11,11,11,0,0,0-3.59-.58H137.3l-2.19,0c-9.26.07-7.54.59-6.89,1.86.37.72-1.31,2-1.3,2.81,0,.58,3.43,1.51,3.28,2-.46,1.4-3.71,1.83,7.16,1.75H139a5.83,5.83,0,0,1,.69,0,1.11,1.11,0,0,1,.21,0,2,2,0,0,1,.54.43c.34.33.77.86,1.33,1.53s1.17,1.35,1.78,2a43.2,43.2,0,0,0,8.24,6.76q1.13.71,2.3,1.36c.39.21.78.43,1.18.62l1.14.56a6.38,6.38,0,0,1,1.16.66s0,0,0-.07a.94.94,0,0,1-.07-.16,4,4,0,0,1,0,1.05c-.07.66-.17,1.47-.27,2.19-.22,1.48-.48,3-.81,4.43-1,4.21-1.52,5.89-1.42,6.57S155.6,77,156.31,76.88Z"/><path d="M145.18,65.81c-.23-.29-1.3-.27-1.41-.78s.73-1.54.53-1.91-1.79-.8-2-1.24c-.5-1.32.32-2.17-3-.48q-5.63,2.8-11.51,5.07l-.55.21-.71.27c-3,1.1-2.28,1.38-1.64,2.52.36.64.21,2,.49,2.8.19.55,1.67,1,1.77,1.49.31,1.36-.67,2.18,3.07.79h0l.59-.23q6.61-2.54,12.95-5.74C146.81,67,146,66.83,145.18,65.81Z"/><path d="M146.95,57.85a7.82,7.82,0,0,1-1.35.25c-.5,0-1-.38-1.45-.38-.58,0-1.54.34-2,.33-1.4,0-1.8-.37-1.8.71v4c0,.92.53.75,1.81.69.72,0,2,.13,2.8.13.58,0,1.54-.34,2-.33,1.4,0,1.8.37,1.8-.71h0v-4C148.76,57.61,148.22,57.78,146.95,57.85Z"/><path d="M154.3,18.41c-.36.05-.85.82-1.35.71s-1-1.09-1.45-1.09c-.58,0-1.54,1-2,.94-1.4-.13-1.8-1.07-1.8,2V32.57c0,2.65.53,2.16,1.81,2,.72-.1,2,.38,2.8.38.58,0,1.54-1,2-.94,1.4.13,1.8,1.07,1.8-2h0V20.39C156.1,17.73,155.57,18.23,154.3,18.41Z"/><path d="M175.16,36.37c-.25-.26-1.08-.25-1.3-.71s.14-1.39-.11-1.72-1.6-.72-1.85-1.11c-.74-1.19-.34-2-2.51-.37l-7.26,5.45-.34.26-.44.33c-1.85,1.39-1.19,1.55-.29,2.48.51.52.91,1.76,1.41,2.44.35.46,1.6.72,1.85,1.11.74,1.19.34,2,2.51.37h0l.34-.26,7.7-5.77C176.72,37.46,176.06,37.29,175.16,36.37Z"/><path d="M191.82,57.91c-.07-.36-1.06-.85-.92-1.35s1.42-1,1.42-1.45c0-.58-1.28-1.54-1.22-2,.18-1.4,1.39-1.8-2.67-1.8H173.35c-3.46,0-2.82.53-2.58,1.81.14.72-.5,2-.5,2.8,0,.58,1.28,1.54,1.22,2-.18,1.4-1.39,1.8,2.67,1.8h15.08C192.7,59.72,192.06,59.18,191.82,57.91Z"/></g></svg>