<svg xmlns="http://www.w3.org/2000/svg" viewBox="0 0 301.68 121.52"><defs><style>.cls-1{fill:#3acaac;}</style></defs><title>icoon-fair-mobile</title><g id="Layer_2" data-name="Layer 2"><g id="Layer_2-2" data-name="Layer 2"><path class="cls-1" d="M26.73,67.18a18.49,18.49,0,0,1,3,13.82q.71-2.17-.26.52a13.22,13.22,0,0,1,1.38-1.8q-1.29,1-.17.15a29.17,29.17,0,0,1,10.24-4.79L17.25,56.32c5.74,15,15.81,34.26,32.63,38.73,6.64,1.77,13.82.49,17.48-5.77,4-6.88,5.35-15.42,5.75-23.22.5-9.49-5.78-20.12-13-25.77-5-3.94-14.88-6.52-16.54,2.59-3.36,18.52,8,40.51,25.73,47.67,5.7,2.31,12.93,2.95,17.81-1.37s5.21-12,6.5-17.89L64.53,52.94c3.23,22.41,21.12,38.63,40.77,47.39,2.66,1.19,7.88.4,9.32-2.57a173.9,173.9,0,0,0,10.19-25.4L97.16,59.19c6.94,16.89,19.14,28.16,35.6,35.49,3.57,1.59,6.91-.09,9.32-2.57a49.11,49.11,0,0,0,12.6-22L125.6,51.7a58.81,58.81,0,0,0,12.09,25c5.5,6.54,12.72,13.49,21.3,15.54,15.36,3.68,23.29-10.91,25.87-23.81,2-10-3-21.86-10.57-28.48-6.14-5.38-14.91-8.46-18.45,1.1-3.2,8.66,0,19.11,4.13,26.88A46.24,46.24,0,0,0,178.81,87c4.41,2.29,9.55,4,13.14-.74a48.94,48.94,0,0,0,7.62-14.82L184.93,75.5q-3.16-2.57-1.66-1.11,1.7,1.75-1.78-2a14.26,14.26,0,0,0,1.36,1.66,58,58,0,0,0,8.5,8.61,31.65,31.65,0,0,0,19.43,7.22c12.64.21,22.57-7.83,24.48-20.27L207.62,56.48c4.77,16,17.08,29.41,34.06,31.17,5.37.55,11.14-.51,15.25-4.16,2.5-2.23,3.52-4.24,4.78-7.48.31-.79.56-1.59.86-2.38-.83,2.2-.47,1,.69-.3l-16.95-2.24c9.32,8.31,19.74,15,32.58,15.54,11.17.47,22.49-4,22.79-16.63.23-9.88-6.18-22.35-14.9-27.27-8-4.5-14.93-1.27-15.16,8.29q-.52-4.47,2.68-6.67a7.74,7.74,0,0,1-1.28.74,10.47,10.47,0,0,1-1.51.65q1.65-.33.25,0a26.94,26.94,0,0,1-8.87.54c2.69.27-2-.61-2.29-.69-.94-.3-4.19-2.07-1.74-.61-.83-.5-3-1.35-3.49-2.27q3.06,2.46.73.52-1-.83-1.9-1.68c-4.83-4.31-11.83-8-16.95-2.24a22,22,0,0,0-4,7.94q-.8,2.19.32-.55l-.6.85q1.63-1.47-.58-.1,1.57-.29.17-.07a18.14,18.14,0,0,1-4.08.14q-1.49-.12.19.08A16.47,16.47,0,0,1,226.7,47a14.48,14.48,0,0,1-1.79-.64A7.87,7.87,0,0,1,230,51a14.94,14.94,0,0,1,4.65,6.81q-.42-1.18-.76-2.39c-2.15-7.2-8.17-14.93-14.92-18.17-4.78-2.29-11.73-1.51-12.73,5a17.48,17.48,0,0,1-1.11,5c.73-1.48-.61.12-1.1.41a12.47,12.47,0,0,1-9.43,1.88q1.59.15-.74-.38,2.76,1.5.54.15,3.45,2.83,1.33.81,3.58,4.06,1.51,1.57a69.54,69.54,0,0,0-12.06-11.75c-5.51-4.31-12.56-2.44-14.64,4.09-1,3-2.13,4.85-4.62,8.13l13.14-.74a25.21,25.21,0,0,1-2.77-1.55,12.93,12.93,0,0,1,3.26,3.37,25.63,25.63,0,0,1,5.12,14.08q-.61,3.63.19,1.05L155.84,41a29.24,29.24,0,0,1-2.22,7.33c-.67,1.31-1.55,2.47-2.26,3.75q-1.19,1.36-.26.37t-.65.17c1.9.4-1.72-.14-.4,0l1.17.55q-2.27-1.58.14.15l-1.15-1.08q2.52,3,1.13,1.2-1.57-2.1,1.28,2A19.16,19.16,0,0,1,154.75,61C152.86,52.82,148,43,140.3,38.59c-5.51-3.1-12.73-3.36-14.64,4.09-1,4-.87,3.74-2.85,6.93A50.11,50.11,0,0,1,116.06,58l9.32-2.57c2.23,1-1.74-.92-2.17-1.17-.58-.34-5-3.69-3.09-2q1.69,1.33-.26-.35-1.91-1.95,0,.06t.2,0a21.17,21.17,0,0,1,3.39,6.09c-3-7.29-7.58-14.65-14.92-18.17-5.42-2.6-10.85-1.17-12.73,5A127.47,127.47,0,0,1,88.6,63.69l9.32-2.57c-.52-.23-2.4-1.24-.89-.43-1.21-.65-2.39-1.33-3.55-2.07-.88-.56-1.72-1.18-2.59-1.76-2.15-1.44,2.83,2.86-.17-.3-1.92-2,.1.16.8,1-1.94-2.4.57,1.07,1,1.79-1.91-3.36,1.54,4.09.65,1.57-.8-2.25,1.11,5.28.54,1.34-1.16-8-7.14-18.33-14.45-22.45-5.33-3-13-3.47-14.64,4.09L63.06,51c-.47,2.18-1.15,5.16.52,1.49a.71.71,0,0,1,1.12-.13q-2.76-1-.22.19c4.77,4.41,9.38,10.65,8.09,17.74L43,47.09c-.16,3,.35.05-.33,2.82-.44,1.78-.9,3.48-1.49,5.22q-1.1,2.78-.48,1.32.49-1-.38.4c-2.16-.21,3.58-1.51,2.13-1l-1.31-.39q2.59,1.4.28,0l4.91,4.69q-1.11-1.45-2.13-3c1.31,2.61,1.17,1.85,0-.35q-.62-1.12-1.17-2.29,1.86,4.17.47.71C40,46.11,31.28,33.21,19.84,36.52c-6.48,1.87-13,5.47-16.65,11.4-6,9.79-2.51,21.45,2.11,31,3.09,6.37,13,17.92,21.26,13.42,8.63-4.72,3.14-19,.18-25.14Z"/></g><g id="Layer_1-2" data-name="Layer 1"><path d="M149.15,99.6c0-.14-.06-.69-.08-1.43a12.26,12.26,0,0,1,.16-2.47c.28-1.67.92-3,.93-2.49a16.74,16.74,0,0,0,.09,5,8.34,8.34,0,0,0,1.1,2.71,2.61,2.61,0,0,0,.85,1c.09-.07-.15-.5-.37-1.19a8.79,8.79,0,0,1-.45-2.5c-.07-1.83.54-3.52.66-3.32a9.11,9.11,0,0,1,.41,1.29c.12.4.25.6.35.15.06-.23.11-.61.25-1.23a11.37,11.37,0,0,1,.87-2.51,15.39,15.39,0,0,1,2.71-3.82,50.13,50.13,0,0,1,5.9-5.11L171.08,77c2.85-2.26,5.7-4.42,8.59-6.8,5.84-4.77,10.93-11.08,13.46-18.57a29.11,29.11,0,0,0-1.63-23.26,22.65,22.65,0,0,0-3.65-5,15.6,15.6,0,0,0-2.53-2.08,13.73,13.73,0,0,0-3-1.48,28.55,28.55,0,0,0-5.89-1.25,41.21,41.21,0,0,0-10.2.06,40.58,40.58,0,0,0-5.49,1.11,23.08,23.08,0,0,0-7.3,3.29,15,15,0,0,0-4.11,4.34,18.87,18.87,0,0,0-2.24,5.05c-.39,1.58.39.3,1.06-.28.38-.33.36.55.35,1.51s0,2,.23,2.11,1.05-1.81,2-3.5,2.16-3.05,2.19-2.81c.05.65-.6,2.52,0,1.7.16-.2.4-.57.79-1.09a11.38,11.38,0,0,1,1.79-2,14.15,14.15,0,0,1,4-2.31,32.09,32.09,0,0,1,7.33-1.81h0a35.69,35.69,0,0,1,3.81-.29,35.26,35.26,0,0,1,5.34.28A20.27,20.27,0,0,1,181,25.06c2.62,1,4.86,3.86,6.32,6.89a22.81,22.81,0,0,1,2.11,10,26.05,26.05,0,0,1-2.25,10.14,34.18,34.18,0,0,1-5.76,9,58,58,0,0,1-8.17,7.39l-9.07,7.11-4.54,3.56c-1.5,1.18-3.06,2.38-4.6,3.74a25.18,25.18,0,0,0-5.16,6,15.54,15.54,0,0,0-2,5.62,11.19,11.19,0,0,0,.65,6.12C149.43,102.37,149,100.55,149.15,99.6Z"/><path d="M148.16,22.66c0,.15.3.9.41,1.56s.11,1.22-.09,1.1-.63-.92-1.2-1.55-1.25-1-1.33-.89.25.77.35,1.42.1,1.31-.06,1.3c-.48,0-1-.42-1-.07a7.11,7.11,0,0,0,.26,1.36c.18.89.5,2.48.77,4.71a44.47,44.47,0,0,1,.26,7.61c0,.63-.08,1.27-.14,1.9a14.19,14.19,0,0,1-.22,1.67,2.42,2.42,0,0,1-.31.84l0,0,0,0h0l.42.7c.05.09.1.19.14.28a2.64,2.64,0,0,1,.18.49c.08.27,0,.48.05.3a1.69,1.69,0,0,1,.3-.38,8.82,8.82,0,0,1,1.06-.87l.12-.09h0v0l0,0L148,44a2.61,2.61,0,0,1-.2-.46,9.28,9.28,0,0,1-.33-1.52c-.19-1.3-.39-2.64-.55-3.93a38.65,38.65,0,0,1-.35-7.54c0-.46.08-.91.14-1.36s.17-1.14.3-1.69a19.93,19.93,0,0,1,1.19-3.66,10.88,10.88,0,0,0,.59-1.44c.11-.51-.37-.31-.85-.31-.27,0-.4-.39-.49-.84s-.13-.94-.34-1.11-.82.36-1.43.92-1.16,1.16-1.26,1c-.31-.4-.11-1.37-.5-1a6.31,6.31,0,0,0-1.06,1.83,20.71,20.71,0,0,0-1.49,5.58h0c-.07.56-.13,1.12-.17,1.68a45.38,45.38,0,0,0,.44,9.08l.3,2.16c.11.72.19,1.39.35,2.23a9.91,9.91,0,0,0,.9,2.78,6.78,6.78,0,0,0,.44.74,4.08,4.08,0,0,0,1,1.06,3.37,3.37,0,0,0,1.21.55,3.41,3.41,0,0,0,1.28,0,3.94,3.94,0,0,0,1.51-.58,5.93,5.93,0,0,0,2.37-3,11.36,11.36,0,0,0,.61-2.73c.17-1.51.27-3,.3-4.52a49.54,49.54,0,0,0-.63-9c-.17-1.08-.36-2-.54-2.76a13.8,13.8,0,0,0-.67-2.13,5.83,5.83,0,0,0-1.43-2.18C148,21.32,148.29,22.13,148.16,22.66Z"/><path d="M145.84,119.9c.2-.26.32-3.82.68-3.33a14.62,14.62,0,0,1,.63,2.67,7.93,7.93,0,0,0,.61,2.28c.19,0,.35-1.16.51-2.27s.34-2.19.5-2.1c.46.29.82,1.48,1,.84s0-3.11-.1-10.26c-.14-8-.08-16,0-24l0-6q0-3,.09-6c.09-4,.23-8,.27-12.08V57.34l0-2.95c-.16-6.25-.6-8.81-.87-9.66s-.48,0-.84.44-1.45-1.62-2-1.55c-.19,0-.3,1.17-.42,2.28s-.27,2.19-.43,2.1c-.47-.27-.87-1.44-1-.8s.12,3.06.17,10.14h0V59.6c0,4.2-.19,8.44-.28,12.72-.05,2.13-.08,4.3-.09,6.43l0,6.38c-.06,8.52-.1,17,.1,25.61.16,6.17.44,8.71.69,9.57S145.47,120.35,145.84,119.9Z"/><path d="M108.87,24.3c.19.13.95-.08,1.06.25s-.34,1.13-.16,1.32,1.25.23,1.4.5.27.73.46.81.5-.13,1.43-.68a10.81,10.81,0,0,1,7-1.34l.33.05.46.09a3.41,3.41,0,0,0,2,.12c.24-.16.07-.47,0-.89s.53-1.2.56-1.74c0-.36-.64-1.08-.54-1.37s.36-.68.3-.87-.12-.17-.37-.26a10.12,10.12,0,0,0-1.45-.37h0l-.52-.09a16.13,16.13,0,0,0-11.1,2.34c-1.18.76-1.54,1.24-1.56,1.5S108.53,24,108.87,24.3Z"/><path d="M101.85,39.55c.23-.05.52-.59.85-.52s.69.7,1,.67,1-.65,1.26-.63c.92.06,1.13.54,1.17-1.13a13.93,13.93,0,0,1,1.45-5.43l.12-.24.16-.3c.72-1.23.35-1.18-.41-1.55-.42-.2-.91-.89-1.35-1.21s-1.18,0-1.42-.18c-.68-.54-.59-1.34-1.75.72h0l-.17.33a19.27,19.27,0,0,0-2,8C100.67,40.12,101.06,39.72,101.85,39.55Z"/><path d="M103.16,59.19c.2-.14.23-.86.57-.89s1,.6,1.2.49.6-1.11.9-1.19c.89-.24,1.32.32.56-1.86a23.26,23.26,0,0,1-1.12-7.65v-.37l0-.47c.15-2-.17-1.65-1-1.6-.47,0-1.21-.46-1.74-.54-.37-.06-1.08.71-1.37.65-.85-.2-1.1-1.11-1.28,1.76h0V48a28.59,28.59,0,0,0,1.57,10C102.29,60.23,102.49,59.64,103.16,59.19Z"/><path d="M116.59,72.67c.08-.22-.29-.81,0-1s1.09-.11,1.23-.34-.17-1.25,0-1.49c.57-.71,1.29-.55-.76-1.82a17.6,17.6,0,0,1-5.43-4.8l-.17-.26-.2-.34c-.4-.71-.57-1-.79-1s-.45.15-.81.36a11.25,11.25,0,0,1-1.78.35c-.36.11-.61,1.14-.89,1.23-.43.12-.8,0-.91.19s0,.77.81,2.08h0l.26.41a23.49,23.49,0,0,0,7.47,6.63C116.48,74,116.29,73.44,116.59,72.67Z"/><path d="M129.29,84c.15-.18,0-.75.32-.92s1,0,1.15-.14.27-1.14.51-1.32c.7-.55,1.33-.3-.12-1.77q-2.43-2.44-5.05-4.69l-.25-.21-.32-.27c-1.35-1.12-1.32-.64-1.74.06-.24.4-1,.82-1.32,1.23s-.14,1.16-.35,1.37c-.64.64-1.24.46.24,1.71h0l.23.2q2.6,2.23,5,4.67C128.74,85.13,128.77,84.68,129.29,84Z"/><path d="M144.77,98c.14-.19-.13-.93.17-1.08s1.18.29,1.38.11.07-1.35.32-1.53c.73-.52,1.56-.06-.54-2.22q-3.54-3.6-7.33-6.94l-.36-.31-.46-.4c-1.95-1.67-1.81-1.09-2.2-.36-.22.42-1.09.73-1.43,1.14s.07,1.35-.15,1.55c-.68.6-1.5.23.7,2.12h0l.34.3q3.86,3.4,7.45,7.09C144.37,99.24,144.29,98.69,144.77,98Z"/><path d="M176,51.36a2,2,0,0,0-.82,1.2A3.91,3.91,0,0,0,175,54a7.14,7.14,0,0,0,.35,1.75c.39,1.19,1,2.37,1.31,3.15s.49,1.15.22.85a19,19,0,0,1-1.73-2.7,6.91,6.91,0,0,1-1-5.11,3.65,3.65,0,0,1,1.54-2.18A3,3,0,0,1,178,49.5a2.71,2.71,0,0,1,1.43,1c.25.36.32.62.36.61s.05-.29-.14-.73A2.83,2.83,0,0,0,178.23,49a3.56,3.56,0,0,0-2.8,0,4.44,4.44,0,0,0-2.23,2.3,6.29,6.29,0,0,0-.52,3.06,10.47,10.47,0,0,0,.52,2.49c.45,1.35.79,2.08.63,2a9,9,0,0,1-1.7-2.46c-.46-1-.7-1.6-.45-.25a14.13,14.13,0,0,0,1.2,3.11c.34.67.74,1.46,1.29,2.4a19.62,19.62,0,0,0,2.32,3.22,11.75,11.75,0,0,0,4.66,3.23,13.13,13.13,0,0,0,6.88.47,18.82,18.82,0,0,0,3.62-1,25.16,25.16,0,0,0,3.57-1.79A26.83,26.83,0,0,0,202,59.79a31.85,31.85,0,0,0,5.27-9.29,41.72,41.72,0,0,0,2.29-10.22,60,60,0,0,0,.1-10.28,39.2,39.2,0,0,0-2-10.33,27.61,27.61,0,0,0-5.58-9.27,31.1,31.1,0,0,0-8.45-6.56A34,34,0,0,0,172.89.34,35.71,35.71,0,0,0,162.74,3.4c-.82.35-1.58.82-2.37,1.24s-1.52.94-2.26,1.43-1.47,1.06-2.13,1.6a16.64,16.64,0,0,1-1.68,1.27,3.47,3.47,0,0,1-1.34.52,4.92,4.92,0,0,1-1.63,0A29.74,29.74,0,0,1,147,8.34a17.85,17.85,0,0,0-5.69-.92A11,11,0,0,0,133,11.93a9.24,9.24,0,0,0-1.46,3.14,9,9,0,0,0-.17,3.51A7,7,0,0,0,133,22.16a6.36,6.36,0,0,0,3.66,2,7.56,7.56,0,0,0,3.75-.34,8.93,8.93,0,0,0,3-1.76,10.2,10.2,0,0,0,2.09-2.64,11.48,11.48,0,0,0,1.32-6.21,11.93,11.93,0,0,0-2-6,12,12,0,0,0-4.83-4A14.16,14.16,0,0,0,134.07,2a14.33,14.33,0,0,0-8.52,2.82,15.31,15.31,0,0,0-6,9.48,16.69,16.69,0,0,0,.63,8.18,19.44,19.44,0,0,0,3.25,6,25.15,25.15,0,0,0,7.76,6.35,27.17,27.17,0,0,0,9.25,3.2c3.11.27.31-.37-1-1.12-.75-.43.8-.31,2.5-.42s3.54-.5,3.51-.77a16.11,16.11,0,0,0-2.24-.34,23.4,23.4,0,0,1-4.67-1.26c-3.29-1.23-6.09-3.19-5.71-3.15,1,.16,4.57,1.39,2.86.43-.42-.24-1.17-.62-2.29-1.29a23.06,23.06,0,0,1-4.26-3.24A14.65,14.65,0,0,1,125,19.64a10.68,10.68,0,0,1,.12-5.35,10,10,0,0,1,3.63-5.11l0,0a8.89,8.89,0,0,1,5.34-1.78,7.54,7.54,0,0,1,6.51,3.28,6.32,6.32,0,0,1-.21,6.79,3.67,3.67,0,0,1-1.14,1,3.08,3.08,0,0,1-1.29.41,1.18,1.18,0,0,1-.78-.19,1.12,1.12,0,0,1-.43-.66,3.16,3.16,0,0,1-.06-1.36,3.91,3.91,0,0,1,.52-1.39,5.59,5.59,0,0,1,2.69-2.14,5.28,5.28,0,0,1,1.68-.35,9.16,9.16,0,0,1,2,.19c1.43.29,3,.86,4.87,1.35a17.09,17.09,0,0,0,3.06.53A9.58,9.58,0,0,0,155,14.5a9.8,9.8,0,0,0,3.09-1.62c.83-.61,1.46-1.19,2.09-1.63a29.33,29.33,0,0,1,17.78-5.86,27.44,27.44,0,0,1,17.53,6.18,23.47,23.47,0,0,1,5.88,7.17,26.47,26.47,0,0,1,2.63,9c.75,6.54.58,13.37-1.34,19.47a27.25,27.25,0,0,1-4.28,8.41,21.37,21.37,0,0,1-6.93,6,14,14,0,0,1-5.51,1.73,6.46,6.46,0,0,1-4-.89,9.57,9.57,0,0,1-2.66-2.77,33.88,33.88,0,0,1-1.89-3.24,9.54,9.54,0,0,1-.94-2.36,3.69,3.69,0,0,1-.09-.77,2.74,2.74,0,0,1,.07-.6,1.89,1.89,0,0,1,.48-1c0-.06.12-.13.14-.18s0-.13-.06-.2a.87.87,0,0,0-.33-.16A1.27,1.27,0,0,0,176,51.36Z"/><path d="M151.57,30.55c-.12,0-.24.27-.4.44s-.34.29-.49.22-.29-.31-.46-.49-.34-.31-.47-.29a4.91,4.91,0,0,0-.64.31,1.21,1.21,0,0,1-.62.12l-.55-.07h-.23l-.19,0c-.24-.06-.12-.05-.21,0s-.4.43-1.19.58a9.43,9.43,0,0,1-1.35.12H144a3.67,3.67,0,0,1-.5,0l-.13,0-.08,0h0l-.07.17c0,.1-.08.18-.12.27a3.09,3.09,0,0,1-.23.38,1.24,1.24,0,0,1-.16.21l-.1.1,0,0c.08,0,0,0,0,0l-.16.08a2.69,2.69,0,0,1-.44.15c-.31.08-.66.09-.92.15a.85.85,0,0,0-.45.67c-.09.35,0,.75-.17.83-.39.25-.92,0-.92.31a1.66,1.66,0,0,0,.62.92,4.54,4.54,0,0,0,2.07,1h0l.52.1a9.12,9.12,0,0,0,1.32.09l1,0a13.43,13.43,0,0,0,2.31-.25A7.58,7.58,0,0,0,150,35.53a6.3,6.3,0,0,0,2.15-2.41,4.23,4.23,0,0,0,.48-1.89,1.36,1.36,0,0,0-.2-.84C152.23,30.15,152,30.43,151.57,30.55Z"/></g></g></svg>