<svg xmlns="http://www.w3.org/2000/svg" viewBox="0 0 301.68 105.67"><defs><style>.cls-1{fill:#3acaac;}</style></defs><title>icoon-fair-mobile</title><g id="Layer_2" data-name="Layer 2"><g id="Layer_1-2" data-name="Layer 1"><path class="cls-1" d="M26.73,53.81a18.49,18.49,0,0,1,3,13.82q.71-2.17-.26.52a13.22,13.22,0,0,1,1.38-1.8q-1.29,1-.17.15a29.17,29.17,0,0,1,10.24-4.79L17.25,43c5.74,15,15.81,34.26,32.63,38.73,6.64,1.77,13.82.49,17.48-5.77,4-6.88,5.35-15.42,5.75-23.22.5-9.49-5.78-20.12-13-25.77-5-3.94-14.88-6.52-16.54,2.59C40.2,48,51.58,70,69.3,77.2c5.7,2.31,12.93,2.95,17.81-1.37s5.21-12,6.5-17.89L64.53,39.58C67.76,62,85.65,78.2,105.3,87c2.66,1.19,7.88.4,9.32-2.57A173.9,173.9,0,0,0,124.81,59L97.16,45.82c6.94,16.89,19.14,28.16,35.6,35.49,3.57,1.59,6.91-.09,9.32-2.57a49.11,49.11,0,0,0,12.6-22L125.6,38.33a58.81,58.81,0,0,0,12.09,25c5.5,6.54,12.72,13.49,21.3,15.54C174.34,82.5,182.28,67.91,184.86,55c2-10-3-21.86-10.57-28.48-6.14-5.38-14.91-8.46-18.45,1.1-3.2,8.66,0,19.11,4.13,26.88a46.24,46.24,0,0,0,18.84,19.1c4.41,2.29,9.55,4,13.14-.74a48.94,48.94,0,0,0,7.62-14.82l-14.64,4.09q-3.16-2.57-1.66-1.11,1.7,1.75-1.78-2a14.26,14.26,0,0,0,1.36,1.66,58,58,0,0,0,8.5,8.61,31.65,31.65,0,0,0,19.43,7.22c12.64.21,22.57-7.83,24.48-20.27L207.62,43.11c4.77,16,17.08,29.41,34.06,31.17,5.37.55,11.14-.51,15.25-4.16,2.5-2.23,3.52-4.24,4.78-7.48.31-.79.56-1.59.86-2.38-.83,2.2-.47,1,.69-.3l-16.95-2.24c9.32,8.31,19.74,15,32.58,15.54,11.17.47,22.49-4,22.79-16.63.23-9.88-6.18-22.35-14.9-27.27-8-4.5-14.93-1.27-15.16,8.29q-.52-4.47,2.68-6.67a7.74,7.74,0,0,1-1.28.74,10.47,10.47,0,0,1-1.51.65q1.65-.33.25,0a26.94,26.94,0,0,1-8.87.54c2.69.27-2-.61-2.29-.69-.94-.3-4.19-2.07-1.74-.61-.83-.5-3-1.35-3.49-2.27q3.06,2.46.73.52-1-.83-1.9-1.68c-4.83-4.31-11.83-8-16.95-2.24a22,22,0,0,0-4,7.94q-.8,2.19.32-.55l-.6.85q1.63-1.47-.58-.1,1.57-.29.17-.07a18.14,18.14,0,0,1-4.08.14q-1.49-.12.19.08a16.47,16.47,0,0,1-1.93-.51,14.48,14.48,0,0,1-1.79-.64A7.87,7.87,0,0,1,230,37.64a14.94,14.94,0,0,1,4.65,6.81q-.42-1.18-.76-2.39c-2.15-7.2-8.17-14.93-14.92-18.17-4.78-2.29-11.73-1.51-12.73,5a17.48,17.48,0,0,1-1.11,5c.73-1.48-.61.12-1.1.41a12.47,12.47,0,0,1-9.43,1.88q1.59.15-.74-.38,2.76,1.5.54.15,3.45,2.83,1.33.81,3.58,4.06,1.51,1.57a69.54,69.54,0,0,0-12.06-11.75c-5.51-4.31-12.56-2.44-14.64,4.09-1,3-2.13,4.85-4.62,8.13l13.14-.74a25.21,25.21,0,0,1-2.77-1.55,12.93,12.93,0,0,1,3.26,3.37A25.63,25.63,0,0,1,184.67,54q-.61,3.63.19,1.05l-29-27.38A29.24,29.24,0,0,1,153.62,35c-.67,1.31-1.55,2.47-2.26,3.75q-1.19,1.36-.26.37t-.65.17c1.9.4-1.72-.14-.4,0l1.17.55q-2.27-1.58.14.15l-1.15-1.08q2.52,3,1.13,1.2-1.57-2.1,1.28,2a19.16,19.16,0,0,1,2.12,5.67c-1.89-8.22-6.71-18.09-14.45-22.45-5.51-3.1-12.73-3.36-14.64,4.09-1,4-.87,3.74-2.85,6.93a50.11,50.11,0,0,1-6.76,8.42l9.32-2.57c2.23,1-1.74-.92-2.17-1.17-.58-.34-5-3.69-3.09-2q1.69,1.33-.26-.35-1.91-1.95,0,.06t.2,0a21.17,21.17,0,0,1,3.39,6.09c-3-7.29-7.58-14.65-14.92-18.17-5.42-2.6-10.85-1.17-12.73,5A127.47,127.47,0,0,1,88.6,50.32l9.32-2.57c-.52-.23-2.4-1.24-.89-.43-1.21-.65-2.39-1.33-3.55-2.07-.88-.56-1.72-1.18-2.59-1.76-2.15-1.44,2.83,2.86-.17-.3-1.92-2,.1.16.8,1-1.94-2.4.57,1.07,1,1.79-1.91-3.36,1.54,4.09.65,1.57-.8-2.25,1.11,5.28.54,1.34-1.16-8-7.14-18.33-14.45-22.45-5.33-3-13-3.47-14.64,4.09l-1.53,7.06c-.47,2.18-1.15,5.16.52,1.49A.71.71,0,0,1,64.71,39q-2.76-1-.22.19c4.77,4.41,9.38,10.65,8.09,17.74L43,33.73c-.16,3,.35.05-.33,2.82-.44,1.78-.9,3.48-1.49,5.22q-1.1,2.78-.48,1.32.49-1-.38.4c-2.16-.21,3.58-1.51,2.13-1l-1.31-.39q2.59,1.4.28,0l4.91,4.69q-1.11-1.45-2.13-3c1.31,2.61,1.17,1.85,0-.35q-.62-1.12-1.17-2.29,1.86,4.17.47.71C40,32.75,31.28,19.85,19.84,23.15c-6.48,1.87-13,5.47-16.65,11.4-6,9.79-2.51,21.45,2.11,31C8.39,71.9,18.33,83.45,26.56,79c8.63-4.72,3.14-19,.18-25.14Z"/><path d="M143.24,40.09c.23-.55.69-8.85,1-7.68s.37,11.87.63,11.88,1.14-10.68,1.41-10.19c.6,1.11.77,7.07,1.11-4.09l0,.47a41.75,41.75,0,0,1,2-6.52c.23-.67.56-1.32.89-2a24.06,24.06,0,0,1,1.13-2.14c.38-.76.93-1.45,1.42-2.23a28.57,28.57,0,0,1,1.79-2.23,20.78,20.78,0,0,1,10.56-6.68,32.12,32.12,0,0,1,6.52-.58c1.13,0,2.26,0,3.33.11a13.58,13.58,0,0,1,1.49.19c.44.09.87.27,1.31.39a13.66,13.66,0,0,1,4.87,3.4,25.16,25.16,0,0,1,3.84,5.21,36.77,36.77,0,0,1,4.38,12.48,28.27,28.27,0,0,1-1.26,12.89,39,39,0,0,1-6.36,11.7,53.06,53.06,0,0,1-9.7,9.48,111.07,111.07,0,0,1-11.62,7.66l-4.63,2.68-3,1.72a31.46,31.46,0,0,0-3.12,2,14.85,14.85,0,0,0-4,4.44,18.17,18.17,0,0,0-1.83,4.61c-.37,1.4-.55,2.74-.74,3.66s-.42,1.94-.61,2.81a28.22,28.22,0,0,0-1,6.89c.14,2.32.39.18.89-.83.28-.58.43.56.72,1.78s.85,2.5,1.1,2.44a7,7,0,0,0,.09-1.64,18.81,18.81,0,0,1,.52-3.46c.61-2.45,1.5-4.87,1.56-4.6.22.84-.13,3.64.35,2.24.12-.35.3-1,.57-2l.47-1.84.27-1.2.26-1.34a14.83,14.83,0,0,1,2.19-5.72,11.58,11.58,0,0,1,3-2.73c1.3-.9,3-1.82,4.88-2.89h0l4.69-2.71a113,113,0,0,0,12.84-8.56,56,56,0,0,0,11-11.27,42.49,42.49,0,0,0,6.85-14.41,34.28,34.28,0,0,0,1-8.06,32.52,32.52,0,0,0-1.06-8.09A40.14,40.14,0,0,0,188.29,11a22.42,22.42,0,0,0-6.19-5.74c-.62-.39-1.33-.69-2-1a21.81,21.81,0,0,0-2.19-.72,21.17,21.17,0,0,0-4.24-.49,49.81,49.81,0,0,0-8,.35,23,23,0,0,0-8,2.83A29.8,29.8,0,0,0,146.53,18l-.47.84-.4.84-.75,1.62c-.4,1.08-.84,2.08-1.13,3.06a51,51,0,0,0-1.35,5.1l0,.2V30C142.16,45.7,142.57,41.74,143.24,40.09Z"/><path d="M134.72,11.15c-.06.22.49.86.24,1.07s-1.28,0-1.39.2.39,1.29.21,1.5c-.56.68-1.38.38,1.07,2a31,31,0,0,1,7.08,6.71l.28.37.35.48c1.42,2,1.39,1.53,2,1,.31-.32,1.2-.31,1.63-.57s.23-1.35.49-1.46c.75-.33,1.6.35-.38-2.42h0l-.32-.43a35.87,35.87,0,0,0-8.81-8.18C134.63,9.79,134.91,10.41,134.72,11.15Z"/><path d="M114,5.79c.12.19.75.25.78.57s-.49.86-.39,1.09,1,.62,1,.89c.22.84-.22,1.18,1.52.65a13.75,13.75,0,0,1,6-.28l.28.05.36.08c1.49.38,1.32.05,1.44-.73.06-.43.6-1,.77-1.52s-.39-1.09-.29-1.35.45-.58.39-.77-.45-.4-1.68-.66h0l-.39-.07a18.77,18.77,0,0,0-8.76.52C113.08,4.93,113.61,5.15,114,5.79Z"/><path d="M95.5,25.43c.22-.07.5-.89.81-.76s.62,1.13.87,1.11.92-1,1.2-.91.69.31.86.19.19-.58.38-1.89a13.59,13.59,0,0,1,4-7.75c.1-.09.2-.2.3-.28l.4-.33c.87-.67,1.22-.92,1.27-1.16s-.2-.4-.46-.69-.26-1.21-.49-1.66-1.36-.28-1.47-.53,0-.78-.25-.84a1.1,1.1,0,0,0-.69.23,9.85,9.85,0,0,0-1.61,1.16h0c-.15.12-.29.27-.43.4a18.63,18.63,0,0,0-5.69,11.39c-.16,1.56,0,2.2.14,2.42S95.12,25.54,95.5,25.43Z"/><path d="M96.86,46.52c.18-.14.18-.78.49-.84s.91.45,1.13.34.52-1,.78-1.12c.82-.28,1.24.18.44-1.69a22.37,22.37,0,0,1-1.54-6.65l0-.32,0-.41c0-1.74-.32-1.43-1.1-1.32-.43.07-1.17-.29-1.67-.31-.35,0-.93.72-1.21.69-.81-.1-1.13-.86-1,1.65h0l0,.4a27.31,27.31,0,0,0,2.08,8.62C96.1,47.51,96.25,47,96.86,46.52Z"/><path d="M114.65,67.68c.08-.21-.37-.86-.11-1.05s1.2.07,1.33-.14-.23-1.27,0-1.47c.59-.64,1.35-.33-.82-1.94a34.45,34.45,0,0,1-6.36-6.48l-.26-.35-.32-.45c-1.31-1.91-1.31-1.41-1.88-.85-.31.32-1.18.34-1.61.6s-.27,1.28-.53,1.4c-.75.34-1.53-.27.27,2.28h0l.29.4a39.33,39.33,0,0,0,7.8,7.81C114.58,69,114.38,68.4,114.65,67.68Z"/><path d="M131.08,81.48c.1-.2-.18-.78.07-1s1,0,1.16-.19,0-1.16.21-1.36c.6-.62,1.22-.37-.39-1.73-1.78-1.53-3.6-3.58-6.21-5.16l-.37-.21-.48-.26c-1-.53-1.51-.6-1.72-.5s-.17.41-.24.8-.7,1-.87,1.46.3,1.12.15,1.36-.46.56-.45.74.3.34,1.11.8h0l.26.15c1.89,1.11,3.64,3.06,5.87,5C130.82,82.69,130.74,82.17,131.08,81.48Z"/><path d="M143,100.65c.21-.07.4-.91.71-.84s.75,1.09,1,1.07.79-1.2,1.07-1.19c.43,0,.73.3.88.11s.14-.85-.24-2.67a29.29,29.29,0,0,0-5.09-11.37l-.38-.47-.49-.6c-1.08-1.23-1.65-1.61-1.93-1.64s-.32.31-.5.67-1.12.56-1.45.93.12,1.4-.12,1.55-.72.26-.74.47.34.6,1.29,1.77h0l.3.37a24.4,24.4,0,0,1,4.31,10c.25,1.31.37,1.83.57,2S142.65,100.79,143,100.65Z"/><path d="M184,4.07c.13,0,.79-.3,1.41-.49s1.16-.29,1-.11-.88.67-1.52,1.23S183.79,5.89,183.86,6s.78-.26,1.48-.49,1.41-.36,1.4-.23c0,.4-.56.93-.18.89a13.34,13.34,0,0,0,1.48-.53A25.87,25.87,0,0,1,192.5,4.4l-2.21-1.16.1.22a4.57,4.57,0,0,1,.32,2.86,19.51,19.51,0,0,1-1.23,3.5,23.44,23.44,0,0,1-4.2,6.42,23.53,23.53,0,0,1-2.83,2.6,2.67,2.67,0,0,1-2.24.81,3.42,3.42,0,0,1-1.11-.4l-.08-.07-.16.13s0,0,0,0l.19-.09v0s0-.18-.05-.27a4.55,4.55,0,0,1,.73-2.8l.67-1.42q.43-.89.87-1.75a46.7,46.7,0,0,1,3.18-5.16c.25-.49-.23-.3-.66-.3s.08-1.52-.19-1.82c-.1-.1-.81.32-1.48.81s-1.27,1-1.32.89c-.16-.39.25-1.27-.16-1s-1.83,1.82-4,6.48h0l-.69,1.45a13.61,13.61,0,0,0-.91,2.31,7.08,7.08,0,0,0-.16,3,7.16,7.16,0,0,0,.17.77,4.19,4.19,0,0,0,.42,1,4.39,4.39,0,0,0,1.41,1.43,6.55,6.55,0,0,0,1.39.66,7.11,7.11,0,0,0,1.43.36,6.24,6.24,0,0,0,3.12-.33,8.56,8.56,0,0,0,2.36-1.41A27.75,27.75,0,0,0,188.49,19a27.79,27.79,0,0,0,4.93-7.66c.31-.69.58-1.4.83-2.12a13.1,13.1,0,0,0,.64-2.41,8.93,8.93,0,0,0-.82-5.36L193.37,0l-1.5.25c-.67.11-1.22.23-1.82.37-4.45,1.1-6.19,2.53-6.68,3S183.54,4,184,4.07Z"/><path d="M106.73,98c.4-.14,3.9-3.76,3.69-3a33.81,33.81,0,0,1-2.13,3.23A13.44,13.44,0,0,0,106.6,101c.16.11,1.3-1,2.47-2s2.33-2,2.36-1.83c.05.63-.83,2.12-.12,1.55s3-3.2,9.94-10.66c7.74-8.31,15.64-16.51,23.51-24.74,3.94-4.12,7.88-8.23,11.79-12.42,1.95-2.07,3.93-4.32,5.75-6.41L168,38.16l2.17-2.41,2.74-3.12c5.76-6.67,7.69-9.84,8.27-10.94s-.32-.36-1-.1.39-2.79-.07-3.08c-.17-.11-1.24,1.1-2.34,2.22s-2.2,2.19-2.22,2c-.1-.62.69-2.16,0-1.55s-2.67,3.43-9.4,11h0L164,34.55l-6.07,6.76L156.42,43,155,44.68l-3,3.29c-4.11,4.38-8.29,8.74-12.46,13.1-8.35,8.72-16.72,17.43-24.94,26.33-5.91,6.42-8.14,9.29-8.79,10.41S106,98.2,106.73,98Z"/><path d="M109,94a84.65,84.65,0,0,0-8.11,11.7A37.9,37.9,0,0,0,114.23,95.4C120.44,88,109,94,109,94Z"/></g></g></svg>