<?xml version="1.0" encoding="utf-8"?>
<!-- Generator: Adobe Illustrator 21.0.0, SVG Export Plug-In . SVG Version: 6.00 Build 0)  -->
<svg version="1.1" id="Layer_1" xmlns="http://www.w3.org/2000/svg" xmlns:xlink="http://www.w3.org/1999/xlink" x="0px" y="0px"
	 viewBox="0 0 171 174.6" style="enable-background:new 0 0 171 174.6;" xml:space="preserve">
<style type="text/css">
	.st0{fill:#3ACAAC;}
</style>
<title>icoon-vegan</title>
<g id="Layer_2">
	<g id="Layer_2-2">
		<path class="st0" d="M94.5,45c-3.6,44.6-9.7,90.9-35.2,128.9l76.5-18.7c2.2-38.4,1.7-77-1.7-115.3c-0.3-3.9-36.2,4.6-39.2,5.4
			c-9,2.2-18.1,4.5-26.8,7.8c-2.2,0.8-10.2,2.8-10.5,5.6c-1.8,17.5-4.2,34.9-7.2,52.3c-3,16.6-6.8,33.2-16.2,47.5l76.5-18.7
			c-2.6-10.4-1-20.8,0.4-31.2c1.6-11.9,2.9-23.8,3.9-35.7c2-23.9,3-47.8,2.8-71.8c0-3.3-33.1,3.9-34.1,4.2
			c-8.2,1.9-16.3,3.9-24.3,6.4c-5.7,1.8-11.8,3.5-17,6.7c-6.5,4-9.7,11-12,18c-2.8,8.3-5.4,17-8.1,25.6L5.8,114.4
			c-0.5,1.7,13.9-0.2,11.9,0.1c9.2-1.3,18.3-3.1,27.3-5.5c9-2.2,18.1-4.5,26.8-7.8c2.7-1,9.6-2.5,10.5-5.6l15-47.7l7.3-23.4
			c2.2-6.9,4-14.1,8.4-19.9l-1,1.6c1.4-1.5,2.9-2.8,4.7-3.9L41.3,19.5c0.1,24-0.8,47.9-2.8,71.8c-1,11.6-2.3,23.2-3.8,34.8
			c-1.4,10.7-3.2,21.5-0.5,32.2c0.5,2,12.5,0,11.9,0.1c9.2-1.3,18.3-3.1,27.3-5.4c9-2.2,18.1-4.5,26.8-7.8c3.4-1.3,8.4-2.4,10.5-5.6
			c9.5-14.2,13.3-30.9,16.2-47.5c3.1-17.3,5.5-34.8,7.2-52.3L57.7,58.5c3.3,38.4,3.9,76.9,1.7,115.3c-0.2,3.1,36.4-4.6,39.2-5.3
			c9-2.2,18.1-4.5,26.8-7.8c3.4-1.3,8.4-2.4,10.5-5.6c25.4-38,31.6-84.3,35.2-128.9c0.2-3-36.4,4.6-39.2,5.3
			c-9,2.2-18.1,4.5-26.8,7.8C102.8,40.3,94.7,42.2,94.5,45L94.5,45z"/>
	</g>
	<g id="Layer_1-2">
		<path d="M81.6,34.5c0.3,0,1.6-0.1,3.3-0.2c1.9-0.1,3.9,0,5.8,0.2c4,0.4,7.3,1.4,6.2,1.4s-6.9-0.8-12.3,0.2c-2.4,0.3-4.8,1-7.1,1.8
			c-1,0.3-2,0.8-2.9,1.4c1-0.1,2.1-0.4,3.1-0.7c2.2-0.5,4.4-0.9,6.7-1c2.2-0.1,4.3,0,6.5,0.3c1.7,0.3,2.7,0.5,2.5,0.6
			c-1.4,0.4-6.6,0.7-3.9,1c3.8,0.3,7.6,0.9,11.2,2c4.2,1.2,8.3,2.8,12.1,4.8c2.4,1.2,4.7,2.8,6.6,4.8c2.2,2.4,3.8,5.3,4.9,8.4
			c2.9,8.2,4.6,16.8,4.8,25.5c0.3,8.9,0,17.8-0.9,26.7c-0.8,8.9-2.1,17.6-5.5,25.3s-9.2,14.1-16.6,16.7c-3.9,1.3-7.9,1.9-12,1.7
			c-1,0-2.1-0.1-3.1-0.2l-1.8-0.2l-1.8-0.1c-2.4-0.2-4.7-0.2-6.8-0.4c-2.1-0.1-4.1-0.4-6.1-0.8c-0.9-0.2-1.9-0.5-2.8-0.8
			c-1-0.4-2.1-0.8-3-1.2c-1.9-0.8-3.7-1.7-5.3-2.8c-1.6-1.1-3-2.4-4.2-3.9c-1.3-1.6-2.5-3.3-3.5-5.1c-1.1-1.8-2.1-3.9-3.1-5.8
			c-1.9-3.9-3.6-8-5.1-12.1s-2.8-8.4-3.8-12.6S42.1,101,42,96.7c-0.1-3.2,0.1-6.5,0.5-9.7c0.5-4.1,1.5-8.1,2.8-12
			c1.8-5.3,4.3-10.4,7.4-15.1c2.2-3.3,4.6-6.4,7.3-9.2c1.1-1.2,2.1-2.2,3-3s1.7-1.6,2.5-2.2l1.9-1.6l1.3-1.1c2.9-2.3-0.1-0.8-2-0.2
			c-1,0.4,0.2-1.1,1.8-2.8s3.7-3.3,3.5-3.6c-1.1,0.3-2.1,0.7-3,1.3c-0.9,0.4-1.8,1-2.9,1.6c-0.5,0.3-1.1,0.6-1.6,1l-1.6,1L61.5,42
			L60,43.1c-0.9,0.7-1.8,1.4-2.5,2c-1.4,1.2-2.3,1.9-2.2,1.7c0.6-1.1,1.3-2.2,2.1-3.2s1.2-1.6,0-0.7c-3.3,2.8-6.2,6-8.8,9.5
			c-2.9,3.9-5.5,8.1-7.5,12.5l-1,2.1c-0.3,0.7-0.6,1.5-0.9,2.2s-0.6,1.6-0.9,2.4l-0.8,2.5c-0.3,0.9-0.5,1.8-0.8,2.7
			s-0.5,1.8-0.7,2.8c-0.4,1.9-0.8,4-1.1,6.1v0.1c-0.5,3.6-0.7,7.2-0.6,10.9c0.1,2.6,0.3,5.1,0.7,7.6c0.4,2.6,0.9,5,1.5,7.4
			c1.2,4.8,2.7,9.6,4.4,14.2c1.7,4.7,3.7,9.2,6,13.6c2.3,4.3,4.9,8.9,8.9,12.8c2,1.9,4.3,3.5,6.8,4.7c1.2,0.6,2.4,1.1,3.6,1.6
			l1.8,0.7c0.6,0.2,1.1,0.4,1.8,0.7c2.6,0.9,5.2,1.4,7.9,1.7c2.6,0.3,5,0.3,7.4,0.4c1.2,0.1,2.3,0.1,3.4,0.2l1.7,0.2
			c0.7,0.1,1.3,0.1,1.9,0.2c2.6,0.2,5.3,0.2,7.9-0.1c5.4-0.5,10.6-2.3,15.2-5.2c4.5-3,8.2-6.9,11.1-11.4c2.8-4.4,4.9-9.2,6.2-14.2
			c1.3-4.8,2.2-9.8,2.8-14.7c0.5-4.9,0.9-9.7,1.2-14.6c0.7-9.9,0.4-19.8-1-29.6c-0.8-5-2-9.9-3.6-14.7c-0.9-2.5-1.9-4.9-3.2-7.2
			c-1.4-2.5-3.2-4.7-5.3-6.5c-2.7-2.3-5.7-4.2-9-5.7c-2.6-1.2-5.3-2.3-8-3.3c-4.2-1.5-8.6-2.4-13.1-2.8c-2.9-0.3-5.9-0.3-8.8,0.1
			c-1,0.1-1.9,0.3-2.8,0.5c-0.7,0.1-1.3,0.3-1.9,0.5C75.6,34.9,79.5,34.3,81.6,34.5z"/>
		<path d="M128.9,57.2c0.1,0.2,0.6,0.2,1.1,0.2s1,0,1,0.3s-0.6,0.8-1.3,1.2s-1.4,0.7-1.4,0.9s0.8,0.5,1.7,0.6s1.8,0.1,1.8,0.3
			c0.1,0.7-0.8,1.4-0.2,1.5c0.8-0.1,1.5-0.3,2.2-0.7c1.7-0.9,3.3-2.1,4.7-3.4c2.1-1.8,4-3.8,5.9-5.8c2-2.2,3.6-4.7,4.9-7.4
			c2.5-5.4,3.3-11.2,3.6-16.6c0-0.5,0.1-1,0.1-1.5v-2c0-4.1-0.2-5.7-0.5-6.3s-0.7,0-1.2,0.3s-1.8-1.1-2.6-1.1c-0.5,0-1.3,3-1.7,2.8
			c-0.6-0.2-1.1-1-1.3-0.5s-0.2,2.1-0.3,6.5l0,0c0,0.5,0,0.9-0.1,1.4c-0.2,5.2-1.1,10.3-3.2,14.5c-1.1,2.1-2.5,4.1-4.2,5.9
			c-0.9,0.9-1.8,1.8-2.8,2.8s-2,1.8-2.9,2.6c-0.8,0.7-1.8,1.3-2.7,1.8c-0.4,0.1-0.7,0.4-1,0.6C128.2,56.3,128.5,56.6,128.9,57.2z"/>
		<path d="M150.8,19.1c-0.3,0-1.4,1.5-1.7,1.1s0-2.6-0.4-2.7s-2,1.5-2.4,1.2c-0.5-0.4-0.7-1-1.1-0.8s-0.7,1.1-2.2,3.7
			c-1.7,2.8-4,5.3-6.7,7.2c-3,2-6.2,3.9-9.4,5.6l-0.9,0.5l-1.2,0.7l-1.6,0.9c-0.4,0.3-0.8,0.5-1,0.7c-0.4,0.3-0.3,0.3-0.3,0.5
			L122,38l0,0c0.1,0.2,0.1,0.5,0.2,0.7c0.2,0.4,0.2,0.8,0.1,1.2c-0.1,0.5-0.3,1-0.3,1.3s0.7,0.6,1.5,0.7s1.4,0.1,1.5,0.3
			c0.2,0.6-0.4,1.3,0.1,1.4c0.5-0.1,1-0.2,1.5-0.5c0.7-0.3,1.7-0.9,3.2-1.7l0,0l0.9-0.5c1.8-1,3.5-1.9,5.3-3
			c1.9-1.1,3.7-2.2,5.5-3.5c3.7-2.8,6.7-6.3,8.9-10.3c1.5-2.9,1.8-4.3,1.7-4.8S151.4,19.1,150.8,19.1z"/>
		<path d="M47.7,47.1c0-0.3-1.6-1.8-1.1-2.1c0.6,0,1.2,0.1,1.7,0.3c0.7,0.2,1.4,0.3,1.5,0.1s-0.3-0.8-0.7-1.4s-0.7-1.2-0.5-1.3
			c0.5-0.4,1.2-0.5,1.1-0.8c-0.1-0.2-0.4-0.5-1.1-1s-1.7-1.3-3.1-2.5c-3.2-2.8-6-6.2-8.2-9.9c-2.3-3.8-4.1-7.9-5.5-12.1l-0.4-1.2
			L31,13.5c-1-3.3-1.4-4.7-1.8-5.1C28.8,8,28.5,8.6,28,8.9s-2-0.6-2.7-0.4c-0.5,0.1-0.7,2.9-1.1,2.9c-0.6,0-1.2-0.6-1.4-0.2
			s0.1,1.9,1.4,6.1l0,0l0.4,1.3c1.6,5,3.9,9.8,6.6,14.3c2.8,4.6,6.4,8.7,10.7,12.1c1.1,0.9,2.3,1.7,3.6,2.4c0.5,0.3,1.1,0.6,1.7,0.7
			C47.9,48.3,47.7,47.7,47.7,47.1z"/>
		<path d="M41.5,64.3c0-0.4-2-2.2-1.5-2.4s3.8,1.3,4,1s-2.2-3-1.8-3.3c0.5-0.4,1.5-0.2,1.3-0.7c-0.4-0.5-0.9-1-1.5-1.3
			c-1.4-1-2.8-2.2-4.1-3.3c-1.9-1.7-3.4-3.9-4.3-6.3c-1-2.5-2-5.6-3-8.5c-2-5.7-3.6-11.5-4.8-17.4c-0.1-0.5-0.2-1.1-0.3-1.6
			s-0.2-1.4-0.3-2.1c-0.5-4.4-0.6-6.2-0.9-6.8s-0.7-0.1-1.2,0.3s-1.8-1.3-2.5-1.3c-0.3,0-0.6,0.9-0.9,1.8S19,14,18.8,14
			c-0.6-0.2-1.1-1.2-1.3-0.7S17,16,17.9,21.7l0,0c0.1,0.6,0.2,1.2,0.3,1.8c1.3,6.6,3.2,13.1,5.4,19.5l1.6,4.7c0.6,1.7,1.2,3.4,2,5
			c0.8,1.8,1.9,3.4,3.1,4.9c1.2,1.4,2.5,2.8,4,3.9c1.4,1.1,2.9,2.2,4.5,3.1c0.6,0.4,1.3,0.7,2,0.9C41.7,65.7,41.4,65,41.5,64.3z"/>
		<path d="M77,131.6c-0.3,0.1-0.6,0.8-1.1,0.8s-1.1-0.5-1.4-0.4s-0.6,0.3-0.8,0.5c-0.2,0.2-0.5,0.3-0.8,0.4c-0.4,0-0.9,0.1-1.3,0.2
			l-0.1,0.1h-0.1l0,0h0.2c0.4-0.1,0.9-0.1,1.3-0.1c0.1,0,0.3,0,0.4,0h0.1l0,0l0.5,0.2l0,0c-0.2-0.1-0.2-0.2-0.1,0
			c0.1,0.1,0.1,0.3,0.1,0.4l0,0v-0.1l0,0l0.1-0.1c0.2-0.1,0.4-0.2,0.6-0.2c0.4-0.1,0.8-0.1,1.3-0.1c0.3,0,0.6,0,0.9,0
			c0.1,0,0,0,0.1,0s0.1-0.4,0.1-0.3c-0.7-0.1-1.3-0.4-1.8-0.7H75l0,0l-0.4-0.3l0,0l0.1,0.1c0,0.1,0,0.1,0,0c-0.1-0.2-0.1-0.4,0-0.5
			l0,0l0.4-4.4H75c-0.4,0-0.8,0.1-1.3,0.2c-0.6,0.2-1.1,0.4-1.6,0.8c-0.2,0.1-0.3,0.2-0.4,0.4l-0.1,0.1l0,0l1.7,2l0,0l0,0l0,0
			l0.1,0.1c0.1,0.1,0.2,0.2,0.2,0.3c0.1,0.1,0.2,0.3,0.2,0.3v0.1l0,0l0,0H74c0.2,0,0.3,0,0.5,0.1l0.2,0.1l0.6,0.1l1.3,0.3l0.6,0.1
			h0.1l0,0l0,0c0-0.1-0.1-0.1-0.1-0.1c-0.2-0.2-0.7-0.2-1.2-0.3s-1.6-0.7-2.4-0.9c-0.3,0-0.7,0-1,0.1c-0.1,0-0.2,0.1-0.3,0.1
			c0,0-0.1,0-0.2,0.1l-0.1,0.1v0.1l0,0c0,0.1,0,0.2,0,0.3c0.1,1,1.1,1.7,2.1,1.6h0.1c0.2,0,0.4-0.1,0.6-0.2c0.1,0,0.1,0,0.1,0H75
			c0.1,0,0.2,0,0.2,0.1s0,0.2,0,0.3v0.1c-0.4,0.3-0.9,0.5-1.5,0.5c-0.3,0-0.6-0.1-0.8-0.1c-0.3-0.1-0.5-0.2-0.7-0.4
			c-0.5-0.4-0.9-1.1-1-1.7c0-0.1,0-0.3,0-0.4l0,0v-0.1H71c-0.1-0.2-0.1-0.4-0.2-0.4s-0.2-0.1-0.2,0.2c0,0.1-0.1,0.2-0.1,0.2v0.1v0.1
			c0,0.3,0,0.7,0.1,1c0.2,0.9,0.8,1.6,1.5,2.1c0.3,0.2,0.7,0.4,1.1,0.5c0.7,0.2,1.5,0.1,2.2-0.2l0.3-0.1l0.2-0.1l0.1-0.1l0.2-0.1
			l0.2-0.1l0,0h0.1c0,0,0,0,0,0.1c-0.3,0.3-0.7,0.5-1.1,0.5h-0.1l2.4-6.6c-0.4-0.3-0.8-0.6-1.2-0.8c-0.7-0.3-1.4-0.4-2.2-0.4
			c-0.6,0-1.2,0.2-1.7,0.4c-0.5,0.2-1,0.5-1.4,0.9c-0.4,0.3-0.7,0.8-1,1.2c-0.4,0.6-0.6,1.3-0.8,2c-0.1,0.3-0.1,0.5-0.1,0.7
			s-0.1,0.4-0.1,0.7c-0.1,0.9,0.1,1.8,0.4,2.6c0.3,0.7,0.8,1.4,1.4,1.9c0.7,0.6,1.6,0.9,2.5,0.9c0.8,0,1.5-0.1,2.2-0.4
			c1.1-0.5,2-1.4,2.5-2.5c0.1-0.1,0.1-0.3,0.2-0.5l0.1-0.4c0.1-0.2,0.1-0.5,0.1-0.7c0.1-0.7,0-1.5-0.2-2.2c-0.1-0.3-0.3-0.4-0.4-0.5
			S77.5,131.4,77,131.6z"/>
		<path d="M94,132.5c0.2-0.2,0.3-1,0.7-1.1s1.2,0.2,1.5,0s0.9-1.2,1.3-1.4c1.2-0.5,1.5-0.6,1.3-1.2v-0.1l-3.2,1.5
			c-0.1,0-0.1,0.1-0.1,0.2c0,0.1,0.1,0.1,0.2,0.1s0.1-0.1,0.1-0.2c0-0.1-0.1-0.1-0.2-0.1s-0.1,0.1-0.1,0.2c0,0.1,0.1,0.1,0.2,0.1
			l1.5-1.3c0.1-0.2,0.3-0.3,0.5-0.4c0.3-0.1,0.5-0.1,0.3-0.1h-0.1h-0.2c-0.5-0.2-0.5-0.3-0.5-0.3l-0.1-0.2c-0.3-0.3-0.6-0.6-0.8-0.9
			c-0.3-0.4-0.5-0.8-0.7-1.1c-0.3-0.3-0.6-0.4-1-0.4c-0.4-0.1-0.8,0-1-0.2c-0.5-0.4-0.5-1-0.8-1c-0.2,0-0.4,0.2-0.8,0.7
			c-0.5,0.7-0.8,1.5-0.8,2.4l0,0c0,0.2-0.1,0.5-0.1,0.7c0,1.2,0.2,2.4,0.8,3.4c0.6,1.2,1.6,2.2,2.8,2.8l1.7,0.9l1.7-0.9
			c2.4-1.2,3.5-4.1,2.3-6.6c-1.2-2.4-4.1-3.5-6.6-2.3c-0.1,0.1-0.3,0.1-0.4,0.2l-2.3,1.3l0.5,2.7c0.1,0.4,0.2,0.8,0.3,1.2
			c0.5,1.5,1,1.9,1.3,1.9S93.6,132.9,94,132.5z"/>
		<path d="M111.6,89.9c-0.1,0.1-0.1,0.2-0.1,0.3c0,0.1,0,0.1,0,0.2v0.1l0.1,0.2c0,0.1,0,0.1,0.1,0.2l0.1,0.2c0,0.1,0,0.2,0,0.3
			c0,0.2,0,0.5-0.1,0.7c0,0.1-0.1,0.2-0.2,0.3l-0.1,0.1l0,0c-0.1,0.1-0.2,0.2-0.1,0.1s0-0.1,0-0.2c0-0.2-0.1-0.2-0.2-0.2
			s-0.2,0-0.3,0c-0.1-0.1-0.2-0.1-0.3-0.2c0-0.1-0.1-0.1-0.1-0.2l0,0v-0.1c0-0.1,0-0.2,0-0.2c0-0.1-0.1-0.1-0.1-0.2l-0.2-0.1
			c-0.4-0.2-0.8-0.3-0.9-0.2s-0.3,0.6-0.4,1.1c0,0,0,0.1-0.1,0.1s-0.1,0.1,0.3-0.2l0.4-0.2l0.2-0.1c0.1,0,0.1-0.1,0.2-0.1
			s0.1,0,0.1,0l0,0l0,0l-1.2-0.9l0,0l0,0c0.1-0.1,0,0-0.1,0c-0.1,0.1-0.2,0.1-0.3,0.2c-0.3,0.3-0.5,0.4-0.6,0.3
			c-0.3-0.3-0.4-0.8-0.2-1.3c0-0.1,0-0.2,0.1-0.3v-0.1h-0.1c-0.2,0.1,0.1-0.3-0.2-0.1c-0.4,0.3-0.6,0.7-0.8,1.2
			c-0.2,0.4-0.3,0.9-0.4,1.3l-0.1,0.3v0.1l0,0l0,0h0.2l0.4,0.1c0.3,0.1,0.7,0.2,1,0.4c-0.1-0.1-0.2-0.1-0.2-0.2
			c-0.2-0.2-0.3-0.4-0.4-0.7c0-0.1-0.1-0.2-0.1-0.3v-0.2v-0.1l0,0h-0.1c-0.1-0.1-0.3-0.2-0.3-0.3c0-0.2,0-0.3,0.1-0.5
			c0-0.1,0.1-0.2,0.2-0.3l0,0l0,0l0.2-0.1l0.8-0.5l0.5-0.3l0.6-0.3c0.2-0.1,0.4-0.2,0.4-0.2s0,0,0-0.1l-0.1-0.3c0-0.2,0-0.4-0.1-0.5
			c0-0.1,0-0.2,0-0.3v-0.3c0-0.1,0-0.2,0-0.3v-0.1l0,0l0,0c0.1-0.3,0.3-0.5,0.4-0.8c0.3-0.3,0.7-0.6,1-0.9s0.1-0.8-0.4-1.3
			s-1.1-0.8-1-1c0.1-0.3,0.3-0.6,0.6-0.7c0.2-0.2,0.4-0.3,0.1-0.5c-0.6-0.3-1.3-0.3-2-0.2c-1.2,0.2-2.3,0.6-3.4,1.3l0,0l-0.7,0.4
			l-0.8,0.5l-0.2,0.1l-0.4,0.2c-0.3,0.2-0.5,0.4-0.7,0.6c-0.9,0.8-1.6,1.7-2.1,2.8c-0.5,1.1-0.8,2.2-0.8,3.4c0,1.3,0.3,2.5,0.8,3.7
			c1.1,2.2,3.2,3.8,5.6,4.3c1.3,0.3,2.6,0.2,3.9-0.2c0.7-0.2,1.4-0.6,2-1.1c0.7-0.5,1.3-1.2,1.7-2c0.4-0.8,0.6-1.6,0.7-2.5
			c0-0.2,0-0.1,0-0.2s0,0,0,0s0,0,0,0.1l-0.1,0.2l-0.1,0.2c-0.1,0.1-0.1,0.2-0.2,0.3c-0.1,0.1-0.1,0.2-0.2,0.3l-0.1,0.1l0.2-0.3
			v-0.1l0.1-0.2c0.1-0.1,0.2-0.3,0.2-0.4c0.1-0.3,0.2-0.6,0.3-0.9c0.1-0.5,0.1-1,0-1.4c0-0.1-0.1-0.3-0.1-0.3
			c-0.1-0.2-0.1-0.3-0.2-0.5l-0.1-0.2v-0.1l-0.1-0.2l-0.1-0.1c-0.1-0.1-0.2-0.1-0.3-0.2C112.2,89.1,112,89.4,111.6,89.9z"/>
		<path d="M71.7,91c-0.1,0.2,0,0.7,0,1.2S71.5,93,71.2,93s-0.6-0.5-1-0.8s-0.8-0.3-0.9-0.2s-0.2,0.6-0.4,0.9
			c-0.2,0.3-0.4,0.4-0.7,0.5l-0.4,0.1l0,0c-0.2,0.1-0.3,0.1-0.5,0.1c-0.1,0-0.2,0-0.3,0c0.1,0.1,0.3,0.1,0.4,0.2
			c0.1,0,0.1,0.1,0.2,0.2l0.1,0.1l0,0l0,0l0,0l-0.2-0.4c0-0.1-0.1-0.2-0.1-0.3c0-0.2,0-0.3,0-0.5c0-0.1,0-0.1,0-0.1l0,0h-0.1l0,0
			L67.1,93l-0.2,0.1l0,0l0.3-0.2l0,0l0,0v-0.1c-0.1-0.5,0-1.1,0.3-1.6c0.3-0.8,0.8-1.5,1.3-2.1c0.1-0.1,0.2-0.2,0.3-0.3
			c0.1-0.1,0.2-0.2,0.3-0.3c0.3-0.2,0.4-0.2,0.4-0.3V88l0,0l0,0c0.1-0.4,0.1-0.8,0.1-1.2c0-0.4,0.1-0.8,0.3-1.2
			c0.2-0.4,0.5-0.8,0.6-1.2s-0.3-0.7-0.8-1s-1.1-0.6-1.1-0.8c0-0.7,0.8-1.1,0.4-1.3c-0.6-0.2-1.2-0.1-1.7,0.1
			c-1.3,0.4-2.5,1.1-3.5,2l0,0c-0.3,0.2-0.5,0.5-0.8,0.8c-1.3,1.4-2.3,3-2.9,4.8c-0.4,1-0.6,2-0.7,3c-0.1,1.2,0,2.4,0.3,3.5
			c0.2,0.6,0.5,1.2,0.9,1.8c0.4,0.6,0.9,1.1,1.4,1.6c1,0.9,2.3,1.5,3.6,1.7c1.5,0.3,3,0.1,4.3-0.5c1.5-0.7,2.6-1.9,3.2-3.3
			c0.7-1.5,0.8-3.1,0.3-4.6c-0.2-0.7-0.6-1.4-1.2-1.8C72,89.7,72.1,90.5,71.7,91z"/>
		<path d="M137.4,83c0.3,0.2,2.8-0.3,2.6,0.3s-3.1,2.2-2.9,2.5s3.6,0.1,3.6,0.6c0,0.7-0.7,1.4-0.1,1.4s2.3-0.5,7.2-2.6
			c4.7-2.1,9.3-4.3,13.9-6.7l4.2-2.2l-3.1-3.6c-2.4-2.8-5.2-5.3-8.2-7.3c-1.6-1-3.3-1.9-5.1-2.6c-1.8-0.7-3.7-1.2-5.7-1.5
			c-0.6-0.1-1.3-0.1-2-0.2c-0.8,0-1.7,0-2.5,0c-2,0.1-4,0.6-5.8,1.3c-0.8,0.3-1.5,0.7-2.1,1.3c-0.5,0.6,0.3,0.6,0.9,1
			c0.3,0.2,0.2,0.7,0.1,1.3c-0.2,0.5-0.2,1,0,1.5c0.1,0.2,1,0.1,1.8,0.1s1.6,0,1.6,0.3c0,0.7-0.4,1.3,0,1.4c0.5,0,1-0.1,1.5-0.2
			c1.4-0.3,2.9-0.5,4.3-0.4l0,0c0.4,0,0.9,0.1,1.3,0.1c2.7,0.4,5.4,1.4,7.7,3c2.5,1.6,4.7,3.6,6.7,5.8l1-5.8c-5,2.7-10,5.1-15.2,7.3
			c-4,1.7-5.7,2.4-6.1,2.9S136.9,82.6,137.4,83z"/>
		<path d="M1.2,72.6c0.2,0,0.6-0.4,1-0.7s0.8-0.5,0.9-0.3s0,0.9-0.1,1.5s-0.1,1.2,0,1.3s0.8-0.2,1.3-0.5s1.1-0.5,1.2-0.4
			c0.5,0.4,0.6,1.1,0.9,1s0.8-1,2.8-3c2.3-2.3,5.2-3.8,8.4-4.4c1.5-0.3,3.1-0.3,4.7-0.1c1.8,0.3,3.5,0.8,5.2,1.3l1.1,0.3l1.5,0.4
			c1.2,0.4,2.5,0.6,3.8,0.7c0.6,0.1,1.1,0,1.7-0.2c0.5-0.2,0.1-0.7-0.2-1.2s1-1.8,1-2.5c0-0.3-0.5-0.6-1-1s-0.9-0.7-0.8-0.9
			c0.2-0.6,0.7-1,0.5-1.2s-0.4-0.2-1-0.4s-1.6-0.4-3.2-0.9l0,0l-1-0.3c-2.2-0.7-4.5-1.3-6.8-1.6c-2.5-0.3-5.1-0.2-7.5,0.4
			c-4.9,1.1-9.3,3.7-12.7,7.5c-0.9,1-1.7,2.1-2.3,3.2c-0.3,0.5-0.5,1-0.5,1.6C0,72.8,0.6,72.6,1.2,72.6z"/>
		<path d="M34.9,89.2C34.7,89,32.8,89,33,88.5c0.1-0.2,0.6-0.6,1.1-1s0.9-0.7,0.8-0.9s-0.7-0.4-1.2-0.6s-1-0.4-1-0.6
			c0-0.7,0.3-1.2,0-1.3C32.4,84,32,84,31.7,84c-0.9,0-1.8,0-2.8,0c-3.2-0.2-6.3-1.1-9.1-2.6c-3-1.5-5.8-3.4-8.2-5.7L10.9,75L10,74.2
			c-1.7-1.9-2.4-2.7-2.8-2.8s-0.6,0.4-0.9,0.9s-1.9,0.4-2.5,0.8c-0.4,0.3,0.2,2.6-0.2,2.7c-0.6,0.3-1.3,0-1.3,0.4s0.7,1.6,3.3,4.2
			l0,0l0.8,0.8c3.2,3,6.8,5.4,10.7,7.3c4.1,2.1,8.6,3.1,13.1,3.1c1.3,0,2.6-0.2,3.8-0.6c0.5-0.1,1-0.4,1.5-0.7
			C35.8,90,35.2,89.7,34.9,89.2z"/>
	</g>
</g>
</svg>
