<svg xmlns="http://www.w3.org/2000/svg" viewBox="0 0 327.2 127.21"><defs><style>.cls-1{fill:#3acaac;}</style></defs><title>icoon-eu-mobile</title><g id="Layer_2" data-name="Layer 2"><g id="Layer_2-2" data-name="Layer 2"><path class="cls-1" d="M318.28,63.13c-.72-.1-3.13.73-6.37,2.07s-7.29,3.14-11.2,4.79c-7.82,3.35-15.16,5.86-13.55,3.56.8-1.14,3.77-3.51,7.66-6.51l13.41-10.16c4.7-3.52,9.3-6.87,12.88-9.24.88-.62,1.72-1.13,2.46-1.6s1.38-.91,2-1.23c1.11-.67,1.75-1.17,1.68-1.42-.14-.69-3.47-.64-7.79.51A141.5,141.5,0,0,0,304.53,49c-5.17,2-10.2,4-13.9,5.23s-6.08,1.75-5.94,1c.33-1.79,2-4.13,3.39-6.15s2.67-3.76,2.19-4.28c-.24-.26-.91-.23-2.19.22a59.17,59.17,0,0,0-5.83,2.59l-10.38,5.17a141.21,141.21,0,0,1-15.33,6.58l11.64,15.76a2.24,2.24,0,0,1-.36.29l-.22.13-.12.06,0,0c0,.05-.36.14-.16.08h.13a1.89,1.89,0,0,1,.43,0c.08,0,.36,0,.6,0a7,7,0,0,1,.72.13,20.49,20.49,0,0,1,4.47,1.76l.62.37.7.39q.68.41,1.32.88a31.17,31.17,0,0,1,2.65,2q.64.5,1.24,1c.2.19.39.36.57.51L281,83l0,0,.08-.06a3.38,3.38,0,0,1,.36-.27l2.85-2.13c.59-.45,1.16-.87,1.78-1.37l2-1.8c.69-.64,1.32-1.18,2.06-1.94s1.58-1.75,2.34-2.67l.57-.69a9.46,9.46,0,0,0,.59-.77q.66-.95,1.28-1.94t1.21-2l.29-.51.3-.64.57-1.31a27,27,0,0,0,1.75-5.53c.2-1,.38-2,.5-2.91s.12-1.62.16-2.44l0-1.23V52l0-1.49v-.6h-3.55l-.3,0-.61,0L294,50a32.23,32.23,0,0,1-4.94-.3,1.75,1.75,0,0,0-.5-.06h-.17l-.36,0-.38-.09-.1,0h0l.23.06a4.21,4.21,0,0,1,.82.34l.39.23q.51.22,1,.48a13.46,13.46,0,0,1,1.84,1.16q.43.32.82.68a5.8,5.8,0,0,0,.63.45l.73.51a33.18,33.18,0,0,1,2.75,2.23l.65.6.14.14h0l-.06,0s.15-.11.21-.17a4.51,4.51,0,0,0,.48-.44c.54-.42,1.29-1,1.92-1.46l1.26-1a20.91,20.91,0,0,0-18.49-36.44l-4.62,1.21c-1.82.47-3.86,1-6,1.63a197.19,197.19,0,0,0-27.83,9.77,143,143,0,0,0-13.72,7.26c-4.27,2.59-8.3,5.23-12,7.76-7.5,5.1-14.45,9.94-21.59,14.65a70.87,70.87,0,0,1-8.38,5.15c-.4.19-.65.26-.8.33h0s0-.05,0,.07c.07.3.14.64.21.84q.19.71.33,1.45l.12.75.11.57a12.32,12.32,0,0,1,.13,4.08l12.64,25.06,31.61-42.11h0a21,21,0,0,0-22-32.88c-10.54,2.73-21.14,5.63-31.79,8.94s-21.33,7-31.84,11.35S126.66,51.87,116.74,57,97.2,67.69,87.79,73.27l24.44,33.89c4.31-3.76,8.62-7.58,12.94-11.76s8.68-8.88,12.3-13,6.54-7.26,10.07-10.67,7.3-6.76,11.17-10.14l0,0A21,21,0,0,0,136,26.75c-8.88,4.16-17.8,8.12-26.83,11.82S91,45.71,81.6,49.14,62.45,56,52.68,59.8s-19.54,7.79-29.1,12.11c-3.83,1.7-7.59,3.49-11.39,5.23L36,110.89l3.28-3.22,3.37-3.15c3.17-2.89,6.5-5.73,10-8.69S60,89.78,64,86.32A159,159,0,0,0,77.71,72.79c4-4.51,7.32-8.85,10.12-12.67A20.85,20.85,0,0,0,65.08,27.8c-9.71,2.88-17.94,4.95-25.63,7a149.78,149.78,0,0,0-20.23,6.78A92.12,92.12,0,0,0,6.87,48.08a37.15,37.15,0,0,0-5.64,4.18c-2,2-1.16,2.58.75,2.68s5-.18,7.49.14c1.57.21,1.56,1.4.78,3.1a52.57,52.57,0,0,1-3.8,6.33c-3.09,4.7-6.21,9.9-5.08,11.62.8,1.27,11-3.4,21-6.12a74.74,74.74,0,0,1,13.52-2.54c3.65-.31,6-.18,5.71.51a10.7,10.7,0,0,1-1.88,2.61c-.83.87-1.75,1.75-2.55,2.57-1.66,1.6-2.87,3-2.41,3.58s2.49.3,8.24-.94L55.5,73.08c5.55-1.24,12.66-2.9,21.21-5.3L54.11,35.69l-2.77,3.58c-1,1.19-2,2.53-3.19,3.8a105.82,105.82,0,0,1-7.92,8.2c-3.07,2.89-6.72,6-11.09,9.6s-9.41,7.77-14.67,12.58l-.1.09-4.1,3.83-4,3.94a20.93,20.93,0,0,0,23.32,34l.5-.23c3.55-1.62,7.07-3.3,10.63-4.88,8.91-4,17.9-7.72,27.05-11.26s18.52-6.88,28.15-10.37,19.46-7.17,29.19-11.17,19.35-8.27,28.83-12.71L131.29,29.85c-4.31,3.76-8.62,7.58-12.94,11.76s-8.68,8.88-12.3,13S99.51,61.88,96,65.28,88.69,72,84.81,75.42l-.07.06a21,21,0,0,0,24.5,33.83c17.88-10.63,35.67-20.26,54.1-27.78s38-13.26,58.21-18.49l-22-32.9L167.93,72.26a21,21,0,0,0,10,32.45l.15,0a35.61,35.61,0,0,0,17.55,1.1A46.87,46.87,0,0,0,208,101.59a86.86,86.86,0,0,0,8.27-4.8l6.29-4.16c4.12-2.74,8.19-5.52,12.2-8.27s7.92-5.46,11.63-7.89a100.78,100.78,0,0,1,21.51-11.32,237.63,237.63,0,0,1,25.37-7.66L276,20l-2.51,1.89-1.25,1-.62.48c-.21.17-.46.4-.69.6q-1.4,1.24-2.77,2.53c-.24.23-.44.4-.7.68l-.79.87q-.79.88-1.55,1.79l-.75.91c-.13.16-.24.29-.38.47l-.43.62q-.85,1.25-1.62,2.55l-.75,1.31c-.24.43-.51,1.06-.74,1.59-.48,1.11-.91,2.24-1.3,3.39a29.85,29.85,0,0,0-.86,3.58q-.17.91-.3,1.82c-.06.54-.09,1-.12,1.52l-.07,1.5c0,.49,0,1.07,0,1.29l.05,1.8,0,.59v-.16a3.58,3.58,0,0,1,0-.43l0-.21,0-.11v-.2a6.81,6.81,0,0,1,.11-.8c.1-.53.3-1,.41-1.52a6.52,6.52,0,0,1,.6-1.38,7.16,7.16,0,0,1,.41-.81,3.66,3.66,0,0,1,.25-.35c.08-.1.23-.25.19-.24a.27.27,0,0,1,.06-.13.27.27,0,0,1,.12-.08l-.27.21c-.2.16-.31.3-.56.52l-1,.78-.51.4-.3.24-.81.59a45,45,0,0,0-5.88,5.21,37.41,37.41,0,0,0-5.44,7.3c-.45.84-.87,1.63-1.28,2.52s-.81,1.94-1.16,3a34.61,34.61,0,0,0-.91,3.55,31,31,0,0,0-.45,4.16,28.64,28.64,0,0,0,.27,4.61,27.69,27.69,0,0,0,1.14,4.67,28.57,28.57,0,0,0,1.91,4.25,33.33,33.33,0,0,0,2.37,3.53,20.41,20.41,0,0,0,23.29,6.67l0,0a148.73,148.73,0,0,0,15.06-6.61c2.18-1.08,4.15-2.17,6.09-3.2l5.34-3c6.68-3.9,11.77-7.2,15.78-9.84,8-5.34,11.67-8.06,13.08-9.63C328.69,63,322.84,63.74,318.28,63.13Z"/></g><g id="Layer_1-2" data-name="Layer 1"><path d="M149,64.83a12.73,12.73,0,0,1,2,1.28,3.22,3.22,0,0,1,.85,1.2c.13.35.1.53,0,.4a5.09,5.09,0,0,0-.87-.87,5,5,0,0,0-1.71-.76,5.33,5.33,0,0,0-2.43-.18c0,.15,1.13.47,2,1a3.3,3.3,0,0,1,1,.82c.18.24.18.41.13.42-.36.09-1.08,0-.85.26a3,3,0,0,1,.21.28c.05.11,0,.09,0,.23a4.32,4.32,0,0,1-.24.82c-.17.48-.36,1-.59,1.57a10.38,10.38,0,0,1-1.93,3.33,3.41,3.41,0,0,1-1.64,1,7.11,7.11,0,0,1-2.37.1,11,11,0,0,1-4.91-1.63,7.64,7.64,0,0,1-3.11-3.68,13.69,13.69,0,0,1-.78-5.31,57.67,57.67,0,0,1,1.66-11.87,10.52,10.52,0,0,1,2.24-4.57,4.11,4.11,0,0,1,1.72-1,8,8,0,0,1,2.43-.25,12.25,12.25,0,0,1,2,.2,8,8,0,0,1,2.24.75,4.27,4.27,0,0,1,1.9,1.8,3.63,3.63,0,0,1,.32,1.71,3.91,3.91,0,0,1-.4,1.5c-.19.39.23.36.69.29.25,0,.31.38.16.88s-.54,1-.46,1.2.36,0,.82-.19a3.86,3.86,0,0,0,1.42-1.21c.86-1.1,1.05-2.51,1.18-2.36a2.48,2.48,0,0,1,.3,1.13c0,.39.05.63.26.19a6.42,6.42,0,0,0,.07-3.86,7.43,7.43,0,0,0-.77-1.86A8.26,8.26,0,0,0,150,45.71a11.07,11.07,0,0,0-5.31-2.45h0a16.66,16.66,0,0,0-2.72-.28,11.94,11.94,0,0,0-4,.5,8.53,8.53,0,0,0-3.68,2.46A15.93,15.93,0,0,0,131,52.88a64.54,64.54,0,0,0-1.2,6.79,44.32,44.32,0,0,0-.39,7,14.74,14.74,0,0,0,2.12,7.42A13,13,0,0,0,137.68,79a15.53,15.53,0,0,0,3.73,1,13.19,13.19,0,0,0,4,0,7.88,7.88,0,0,0,4.06-2,11.59,11.59,0,0,0,2.39-3.32,22.69,22.69,0,0,0,1-2.26c.26-.71.45-1.22.66-2a5.14,5.14,0,0,0,.1-2.65,4.5,4.5,0,0,0-1.19-2.12A6.42,6.42,0,0,0,148.75,64C147.69,63.94,148.59,64.36,149,64.83Z"/><path d="M142.47,61.29c-.07-.18-.81-.38-.73-.65s1-.62,1-.84-1-.73-1-1c.07-.74.93-1-2-.8q-4.91.35-9.83.51h-.46l-.59,0c-2.5.06-2,.32-1.85,1,.11.38-.34,1-.33,1.47s1,.79.91,1c-.11.73-1,1,2,.89h.48q5.3-.17,10.59-.56C143.19,62.19,142.69,61.94,142.47,61.29Z"/><path d="M139.26,66.58c0-.19-.41-.47-.35-.73s.62-.51.64-.73-.51-.83-.48-1.08c.11-.71.69-.94-1.2-1a27.73,27.73,0,0,0-6.28.74l-.29.07-.37.09c-1.56.43-1.17.64-.88,1.24.17.35.1,1,.23,1.46s.75.61.79.85c.14.73-.26,1,1.28.63h0l.24-.06a23.27,23.27,0,0,1,5.6-.62C139.54,67.52,139.32,67.26,139.26,66.58Z"/><path d="M139.74,10.86A17.49,17.49,0,0,0,138,11c-.77.07-1.46.07-1.27-.11s1.25-.53,2.2-1a5.48,5.48,0,0,0,1.76-1,6.9,6.9,0,0,0-2,.14c-.94.1-1.84.1-1.78,0,.15-.35.83-.76.66-.87a2.74,2.74,0,0,0-1.06.08,24.87,24.87,0,0,1-3.42.33l-4.91.12,3.37,3.58,2.8,3,1.46,1.55.26-.2.24-.18a3.61,3.61,0,0,1,.33-.2l.19-.09-.1,0a2.72,2.72,0,0,1-.59.05h-.52v0l-.17,1-.76,4.52-.76,4.54,4-2.25,2.73-1.53,1.36-.77.65-.37h0l-.06-.14-.13-.29a4.52,4.52,0,0,1-.24-.64c0-.06,0-.12,0-.15v0a1.57,1.57,0,0,1,0,.27,4.08,4.08,0,0,1-.11.54l-.12.42h0l.24.1.72.31,1.44.62,2.87,1.24,3.91,1.69-.88-4.17-.72-3.39-.36-1.7-.18-.85,0-.23-.3,0h-.58a1,1,0,0,1,.23.09l.27.16.17.12.09.07h0a1.88,1.88,0,0,1,.27-.23l1.36-1,2.84-2,5.51-3.86-6.73-.15-3.05-.07-1.53,0-.76,0h-.38v.14c0,.37,0,.6-.07.77a3,3,0,0,1-.12.61c0,.12-.13.21,0,.11a3,3,0,0,1,.76-.48l.67-.33h0l0-.1-.1-.23-.4-.9-1-2.29-1-2.2L143.62,0l-2.25,2.84a23.94,23.94,0,0,0-2.53,3.84,6.93,6.93,0,0,0-.69,1.67c-.09.52.39.05.82-.11s.22,1.86.65,2c.14.06.71-.74,1.33-1.46s1.25-1.38,1.3-1.25c.14.34,0,1.07.13,1.08s.58-.76,2.41-3l-3.7-.49L143,9.58h0l.4.9.1.23c0,.07.07.16.16.35a3,3,0,0,0,.53.74,2.76,2.76,0,0,0,1,.66,3.35,3.35,0,0,0,1,.18h.4l.76,0,1.53,0,3.05.07-1.22-4-2.84,2-1.47,1a6,6,0,0,0-1,.93,3.78,3.78,0,0,0-.86,1.85,4.39,4.39,0,0,0,.1,1.65l.18.85.36,1.7.72,3.39,3-2.48-2.87-1.24-1.44-.62-.72-.31a4.76,4.76,0,0,0-1.34-.41,3.21,3.21,0,0,0-1.25.09,3.87,3.87,0,0,0-.82.34l-.71.4-1.36.77-2.73,1.53L139,22.51l.48-2.88.24-1.44.12-.72c0-.25.08-.43.13-.9a3.89,3.89,0,0,0,0-.84,3.28,3.28,0,0,0-.33-1.06,4.53,4.53,0,0,0-.82-1.08l-1-1.06-2-2.12-1.1-1.16L133.21,13a20.32,20.32,0,0,0,5.2-.81,8.12,8.12,0,0,0,2-.79C140.9,11,140.18,11,139.74,10.86Z"/><path d="M104.59,25.79a17.5,17.5,0,0,0-1.73.34c-.76.14-1.45.19-1.27,0s1.2-.64,2.1-1.16a5.48,5.48,0,0,0,1.66-1.18c-.07-.13-1,.14-1.94.32s-1.82.26-1.78.12c.12-.36.76-.83.58-.92a2.73,2.73,0,0,0-1.05.18,24.87,24.87,0,0,1-3.38.63l-4.88.55,3.68,3.27,3.06,2.72,1.59,1.41.24-.23.23-.2a3.65,3.65,0,0,1,.31-.23l.18-.1-.1,0a2.71,2.71,0,0,1-.59.11l-.26,0H101v0l-.08,1-.35,4.57-.35,4.59,3.8-2.6,2.58-1.77,1.29-.88.62-.42,0,0-.07-.13-.16-.28A4.52,4.52,0,0,1,108,35c0-.06,0-.11,0-.15v0a1.57,1.57,0,0,1,0,.27,4.08,4.08,0,0,1-.06.54l-.09.43h0l.25.08.74.24,1.49.49,3,1,4,1.33L116,35.2l-1-3.31-.51-1.66-.25-.83-.06-.22-.3.05-.33,0h-.25a1,1,0,0,1,.24.07l.29.14.18.11.09.06h0a1.89,1.89,0,0,1,.25-.26l1.27-1.08,2.65-2.23,5.15-4.33-6.71.45-3,.2-1.52.1-.76.05-.36,0h0v.14c0,.37,0,.6,0,.77a3,3,0,0,1-.07.61c0,.13-.11.22,0,.12a3,3,0,0,1,.71-.54l.64-.39h0l-.05-.09L112.1,23l-.47-.86-1.21-2.2-1.16-2.1-1.76-3.19-2,3a23.94,23.94,0,0,0-2.18,4.05,6.92,6.92,0,0,0-.54,1.73c0,.53.39,0,.81-.19s.39,1.83.83,2c.15,0,.65-.8,1.19-1.58s1.12-1.49,1.19-1.36c.17.33.05,1.07.22,1.07s.51-.81,2.13-3.25l-3.73-.16,2.34,4.3h0l.47.86.12.22c0,.06.08.15.19.33a3,3,0,0,0,.6.69,2.76,2.76,0,0,0,1.09.56,3.35,3.35,0,0,0,1.05.09l.4,0,.76-.05,1.52-.1,3-.2-1.57-3.88L112.81,25l-1.37,1.17a6,6,0,0,0-.92,1,3.78,3.78,0,0,0-.7,1.92,4.39,4.39,0,0,0,.24,1.64l.25.83.51,1.66,1,3.31,2.8-2.74-3-1-1.49-.49-.74-.24a4.76,4.76,0,0,0-1.37-.29,3.21,3.21,0,0,0-1.23.2,3.86,3.86,0,0,0-.79.41l-.67.46-1.29.88-2.58,1.77,3.44,2,.22-2.91.11-1.45.06-.73c0-.25,0-.43.05-.91a3.9,3.9,0,0,0-.09-.83,3.27,3.27,0,0,0-.42-1,4.52,4.52,0,0,0-.91-1l-1.09-1-2.19-1.93-1.2-1.06-1.2,3.84a20.33,20.33,0,0,0,5.11-1.27,8.12,8.12,0,0,0,1.88-1C105.76,25.85,105.05,25.93,104.59,25.79Z"/><path d="M87.76,61.64a17.51,17.51,0,0,0-1.65.64c-.73.27-1.39.45-1.25.23s1.07-.83,1.87-1.51,1.49-1.37,1.42-1.46-1,.32-1.85.65-1.75.58-1.73.43c.05-.38.6-1,.41-1s-.37.08-1,.36a24.86,24.86,0,0,1-3.21,1.21l-4.7,1.4,4.19,2.57,3.49,2.14,1.82,1.11.2-.27.19-.23a3.63,3.63,0,0,1,.26-.28l.16-.13-.09.05a2.72,2.72,0,0,1-.56.21l-.25.06-.25.06v0l.11,1,.45,4.56.45,4.58,3.28-3.22,2.23-2.19,1.12-1.1.53-.52,0,0-.1-.11-.21-.25a4.53,4.53,0,0,1-.4-.55L92.62,70l0,0a1.57,1.57,0,0,1,.06.26,4.08,4.08,0,0,1,0,.55v.44h0l.26,0,.77.11,1.55.22,3.1.44,4.22.6-1.94-3.79L99.1,65.81l-.79-1.54-.4-.77-.1-.21-.29.1-.31.1-.21.05h0a1,1,0,0,1,.25,0l.31.09.2.07.1,0h0a1.88,1.88,0,0,1,.2-.3l1.06-1.28,2.22-2.66,4.31-5.17L99.08,56l-3,.73-1.48.37-.74.18-.35.09h0l0,.14c.08.37.11.59.14.76a3,3,0,0,1,0,.62c0,.13-.07.24,0,.12a3,3,0,0,1,.61-.66l.56-.49h0l-.07-.08-.15-.19L94,56.79l-1.57-2L91,53l-2.29-2.83-1.43,3.32a23.94,23.94,0,0,0-1.44,4.37,6.92,6.92,0,0,0-.23,1.8c.05.53.39-.05.76-.33S87,61,87.48,61.1c.15,0,.5-.9.9-1.76s.84-1.66.93-1.54c.22.29.24,1,.4,1s.36-.88,1.52-3.57l-3.7.49,3.06,3.82h0l.62.77.15.19c0,.06.1.14.25.29a3,3,0,0,0,.71.58,2.76,2.76,0,0,0,1.17.36,3.36,3.36,0,0,0,1.05-.1l.39-.1.74-.18L97.17,61l3-.73-2.22-3.55-2.22,2.66-1.15,1.39a6,6,0,0,0-.73,1.16,3.78,3.78,0,0,0-.35,2A4.39,4.39,0,0,0,94,65.51l.4.77.79,1.54,1.58,3.09L99,67.72l-3.1-.44-1.55-.22-.77-.11a4.76,4.76,0,0,0-1.4,0,3.21,3.21,0,0,0-1.18.41,3.86,3.86,0,0,0-.71.54l-.58.57-1.12,1.1L86.4,71.71l3.74,1.35-.29-2.9-.14-1.45L89.64,68c0-.25,0-.44-.11-.9a3.89,3.89,0,0,0-.23-.8,3.28,3.28,0,0,0-.6-.94,4.52,4.52,0,0,0-1.07-.83l-1.24-.76L83.9,62.24l-1.37-.83-.51,4a20.32,20.32,0,0,0,4.81-2.15A8.12,8.12,0,0,0,88.5,62C88.92,61.49,88.23,61.7,87.76,61.64Z"/><path d="M102.84,99.68a17.48,17.48,0,0,0-.35,1.73c-.16.76-.37,1.41-.48,1.18s-.13-1.35-.27-2.39a5.48,5.48,0,0,0-.46-2c-.15,0-.26,1-.45,1.91s-.45,1.79-.57,1.69c-.29-.25-.48-1-.63-.88a2.73,2.73,0,0,0-.24,1,24.86,24.86,0,0,1-.71,3.36l-1.35,4.72,4.42-2.15,3.68-1.79,1.91-.93-.12-.31-.1-.28a3.65,3.65,0,0,1-.1-.37,1.57,1.57,0,0,1,0-.2,1,1,0,0,1,0,.11,2.71,2.71,0,0,1-.13.58l-.08.25-.09.24h0l.93.47,4.09,2.07,4.1,2.08-1-4.5-.65-3.06-.32-1.53-.15-.73v0l-.15,0-.32,0a4.53,4.53,0,0,1-.68,0h-.11l.25.09a4.08,4.08,0,0,1,.48.27l.37.24h0l.17-.2.51-.59,1-1.19,2-2.37,2.78-3.23-4.24-.4-3.45-.33-1.73-.16-.86-.08-.23,0c0-.08,0,.2-.07.3l-.09.32-.07.21,0,.07,0,0a1,1,0,0,1,.16-.19l.24-.21.17-.13.09-.06h0a1.88,1.88,0,0,1-.14-.33l-.51-1.59-1.05-3.3-2-6.41-2.15,6.37-1,2.89-.49,1.45-.24.72-.12.34v0h0l.13.05.71.29a3,3,0,0,1,.54.3c.11.07.16.18.1.07a3,3,0,0,1-.23-.86l-.11-.74h-.12l-.24,0-1,.11-2.49.28-2.39.27-3.62.41,2,3a23.94,23.94,0,0,0,2.91,3.56,6.92,6.92,0,0,0,1.39,1.16c.47.24.17-.36.14-.82s1.84.34,2.13,0c.1-.12-.49-.9-1-1.7s-1-1.6-.8-1.61c.37,0,1,.36,1.07.2s-.55-.78-2.19-3.21l-1.57,3.38,4.87-.52h0l1-.11.24,0,.38-.05a3,3,0,0,0,.87-.29,2.76,2.76,0,0,0,.94-.8,3.35,3.35,0,0,0,.48-.94l.13-.38.24-.72.49-1.45,1-2.89-4.19,0,1.05,3.3.55,1.72a6,6,0,0,0,.59,1.24,3.78,3.78,0,0,0,1.51,1.37,4.39,4.39,0,0,0,1.61.4l.86.08,1.73.16,3.45.33L114,93.44l-2,2.37L111,97l-.51.59a4.76,4.76,0,0,0-.79,1.15,3.2,3.2,0,0,0-.29,1.21,3.87,3.87,0,0,0,.08.89l.17.8.32,1.53.65,3.06,3.15-2.42-2.6-1.32-1.3-.66-.65-.33c-.22-.11-.38-.21-.82-.39a3.89,3.89,0,0,0-.8-.24,3.27,3.27,0,0,0-1.11,0,4.53,4.53,0,0,0-1.28.46l-1.31.64-2.62,1.28-1.44.71,3.09,2.58a20.32,20.32,0,0,0,.77-5.21,8.12,8.12,0,0,0-.17-2.1C103.33,98.62,103.14,99.31,102.84,99.68Z"/><path d="M138.06,116.73a17.48,17.48,0,0,0-.32,1.74c-.15.76-.34,1.42-.45,1.19s-.16-1.35-.31-2.38a5.48,5.48,0,0,0-.5-2c-.15,0-.24,1-.41,1.92s-.42,1.8-.53,1.7c-.3-.24-.5-1-.65-.87a2.73,2.73,0,0,0-.22,1,24.86,24.86,0,0,1-.64,3.37l-1.26,4.74,4.38-2.24,3.64-1.86,1.89-1-.12-.31-.1-.28a3.65,3.65,0,0,1-.11-.37,1.58,1.58,0,0,1,0-.2,1,1,0,0,1,0,.11,2.71,2.71,0,0,1-.11.58l-.08.25-.08.25h0l.94.45,4.13,2,4.15,2-1-4.48-.71-3-.35-1.52-.17-.73v0l-.15,0-.32,0a4.53,4.53,0,0,1-.68.05h-.11l.25.09a4.07,4.07,0,0,1,.48.26l.37.24h0l.17-.21.5-.6,1-1.21,2-2.41,2.71-3.29-4.25-.31-3.46-.26-1.73-.13-.86-.06-.23,0c0-.08,0,.2-.06.3l-.08.32-.07.21,0,.07,0,0a1,1,0,0,1,.15-.2l.23-.22.17-.13.09-.07h0a1.88,1.88,0,0,1-.15-.33l-.54-1.58-1.12-3.28-2.17-6.37-2,6.42-.92,2.91-.46,1.46-.23.73-.11.35v0h0l.14,0,.72.28a3,3,0,0,1,.55.29c.11.07.17.18.1.07a3,3,0,0,1-.25-.86l-.13-.74h-.12l-.24,0-1,.13-2.48.33-2.38.32-3.61.48,2.1,2.95a23.94,23.94,0,0,0,3,3.5,6.93,6.93,0,0,0,1.41,1.13c.48.23.16-.36.12-.82s1.85.3,2.13-.06c.1-.12-.51-.89-1-1.68s-1-1.58-.83-1.6c.37,0,1,.34,1.07.18s-.57-.77-2.26-3.16l-1.51,3.41,4.86-.62h0l1-.13.24,0,.38-.06a3,3,0,0,0,.86-.3,2.76,2.76,0,0,0,.92-.81,3.36,3.36,0,0,0,.46-1l.12-.38.23-.73.46-1.46.92-2.91-4.19,0,1.12,3.28.59,1.7a6,6,0,0,0,.61,1.23A3.78,3.78,0,0,0,143,113a4.39,4.39,0,0,0,1.61.37l.86.06,1.73.13,3.46.26-1.54-3.6-2,2.41-1,1.21-.5.6a4.76,4.76,0,0,0-.77,1.17,3.21,3.21,0,0,0-.26,1.22,3.86,3.86,0,0,0,.1.89l.18.8.35,1.52.71,3,3.1-2.48-2.63-1.27-1.31-.63-.66-.32c-.23-.1-.39-.2-.82-.38a3.89,3.89,0,0,0-.81-.22,3.27,3.27,0,0,0-1.11,0,4.52,4.52,0,0,0-1.27.48l-1.3.67-2.59,1.33-1.42.74,3.14,2.51a20.32,20.32,0,0,0,.67-5.22,8.12,8.12,0,0,0-.21-2.1C138.54,115.66,138.36,116.35,138.06,116.73Z"/><path d="M178.2,94.78a17.48,17.48,0,0,0-.86-1.54c-.37-.68-.64-1.32-.4-1.21s1,.94,1.75,1.64a5.48,5.48,0,0,0,1.64,1.21c.1-.11-.45-.92-.9-1.74s-.82-1.65-.67-1.65c.38,0,1,.46,1.06.26s-.13-.36-.5-.94a24.85,24.85,0,0,1-1.65-3l-2-4.46-2,4.51L172,91.59l-.84,2,.29.16.26.15a3.66,3.66,0,0,1,.32.22l.15.14-.07-.08a2.71,2.71,0,0,1-.28-.52l-.1-.24-.09-.24h0l-1,.25-4.46,1.09-4.47,1.09,3.65,2.8,2.48,1.9,1.24,1,.59.45,0,0,.1-.11.21-.24a4.52,4.52,0,0,1,.49-.47l.13-.09,0,0-.25.09a4.11,4.11,0,0,1-.54.11l-.44.05h0v10l3.48-2.45,2.83-2,1.42-1,.71-.5L178,105l-.14-.27-.14-.3-.08-.21,0-.08v0a1,1,0,0,1,0,.25,2.77,2.77,0,0,1,0,.32l0,.21,0,.11h0a1.87,1.87,0,0,1,.32.16l1.42.87,2.95,1.83,5.72,3.54-2.52-6.24-1.14-2.83-.57-1.42-.29-.71-.14-.34v0h0l-.14,0-.73.24a3,3,0,0,1-.61.13c-.13,0-.24,0-.12,0a3,3,0,0,1,.74.51l.57.49h0l.07-.08.17-.18.67-.72,1.71-1.83,1.64-1.76,2.48-2.67-3.49-.95a24,24,0,0,0-4.53-.81,6.93,6.93,0,0,0-1.81,0c-.52.13.11.38.43.71s-1.62.94-1.61,1.4c0,.15,1,.36,1.87.64s1.76.6,1.66.7c-.26.26-1,.39-.94.54s.93.23,3.75,1l-1-3.59-3.36,3.56h0L180,98l-.17.18c0,.05-.12.12-.26.29a3,3,0,0,0-.47.78,2.76,2.76,0,0,0-.19,1.21,3.35,3.35,0,0,0,.25,1l.15.37.29.71.57,1.42,1.14,2.83,3.2-2.7-2.95-1.83-1.54-.94a6,6,0,0,0-1.25-.56,3.78,3.78,0,0,0-2-.06,4.39,4.39,0,0,0-1.48.74l-.71.5-1.42,1-2.83,2,3.47,1.8v-5.47a4.76,4.76,0,0,0-.15-1.39,3.21,3.21,0,0,0-.57-1.11,3.86,3.86,0,0,0-.64-.62l-.65-.5-1.24-1L168,94.85l-.82,3.89,2.83-.69,1.42-.35.71-.17c.24-.06.43-.09.88-.23a3.89,3.89,0,0,0,.76-.34,3.28,3.28,0,0,0,.85-.72,4.52,4.52,0,0,0,.67-1.18l.58-1.34L177.07,91l.63-1.47-4,0a20.32,20.32,0,0,0,2.8,4.46,8.12,8.12,0,0,0,1.5,1.48C178.51,95.91,178.21,95.26,178.2,94.78Z"/><path d="M193.5,61.07a17.47,17.47,0,0,0-.89-1.53c-.38-.67-.66-1.3-.42-1.2s1,.92,1.78,1.61a5.48,5.48,0,0,0,1.66,1.18c.1-.11-.47-.91-.94-1.73s-.85-1.64-.7-1.64c.38,0,1,.44,1.06.24s-.13-.36-.51-.93a24.87,24.87,0,0,1-1.71-3l-2.13-4.42-1.88,4.55L187.28,58l-.81,2,.29.15.26.15a3.64,3.64,0,0,1,.32.21l.16.13-.07-.08a2.71,2.71,0,0,1-.29-.52l-.1-.24-.1-.24h0l-1,.27L181.47,61,177,62.14l3.7,2.73,2.52,1.86,1.26.93.6.44,0,0,.1-.11.21-.24a4.52,4.52,0,0,1,.48-.48l.12-.09,0,0-.25.1a4.1,4.1,0,0,1-.53.12l-.44.06h0v1l0,1.56.05,3.13.07,4.26L188.38,75l2.8-2.05,1.4-1,.7-.51.19-.13-.15-.27-.15-.3-.08-.2,0-.08v0a1,1,0,0,1,0,.25,2.76,2.76,0,0,1,0,.32l0,.21,0,.11h0a1.87,1.87,0,0,1,.32.15l1.43.85,3,1.77,5.78,3.44-2.63-6.19-1.19-2.81-.6-1.41-.3-.7-.14-.33v0h0l-.13.05-.73.25a3,3,0,0,1-.6.14c-.13,0-.24,0-.12,0a3,3,0,0,1,.75.49l.58.48h0l.07-.08.16-.18.66-.73L201,64.64l1.6-1.79L205,60.14l-3.51-.88a24,24,0,0,0-4.54-.73,6.92,6.92,0,0,0-1.81.06c-.51.14.11.38.44.7s-1.6,1-1.58,1.43c0,.15,1,.35,1.88.61s1.77.57,1.67.67c-.25.27-1,.4-.93.56s.93.22,3.77.94l-1.07-3.57L196,63.54h0l-.66.73-.16.18c0,.05-.12.12-.25.29a3,3,0,0,0-.46.79,2.76,2.76,0,0,0-.17,1.22,3.36,3.36,0,0,0,.27,1l.16.37.3.7.6,1.41,1.19,2.81L200,70.32l-3-1.77-1.55-.92a6,6,0,0,0-1.26-.54,3.78,3.78,0,0,0-2,0,4.39,4.39,0,0,0-1.47.77l-.7.51-1.4,1-2.8,2.05,3.51,1.74L189.23,70l0-1.56v-.78a4.76,4.76,0,0,0-.18-1.39,3.2,3.2,0,0,0-.59-1.1,3.86,3.86,0,0,0-.65-.61l-.66-.49-1.26-.93-2.52-1.86-.75,3.9,2.82-.74,1.41-.37.7-.19c.24-.07.42-.1.87-.25a3.89,3.89,0,0,0,.76-.36,3.28,3.28,0,0,0,.83-.74,4.53,4.53,0,0,0,.65-1.19l.55-1.35,1.1-2.7.6-1.48-4,.12a20.32,20.32,0,0,0,2.88,4.41,8.12,8.12,0,0,0,1.53,1.46C193.83,62.19,193.52,61.55,193.5,61.07Z"/><path d="M179.44,26.15a17.48,17.48,0,0,0-.6-1.66c-.26-.73-.42-1.4-.21-1.25s.81,1.08,1.47,1.9,1.34,1.52,1.43,1.45-.3-1-.62-1.87-.55-1.76-.4-1.74c.38.06.94.62,1,.42s-.07-.37-.34-1A24.87,24.87,0,0,1,180,19.16l-1.31-4.73-2.65,4.14L173.86,22l-1.14,1.79.26.2.23.19a3.63,3.63,0,0,1,.28.27l.13.16-.05-.09a2.71,2.71,0,0,1-.2-.56l-.06-.25-.05-.25h0l-1,.09-4.57.37-4.59.37,3.16,3.34,2.15,2.27L169.41,31l.51.54,0,0,.12-.09.25-.2a4.53,4.53,0,0,1,.56-.39l.14-.07,0,0-.26.05a4.08,4.08,0,0,1-.55,0l-.44,0h0l0,.26-.13.77-.25,1.54-.5,3.09-.68,4.2,3.83-1.87,3.11-1.52,1.56-.76.78-.38.21-.1c0,.08-.07-.19-.1-.29l-.09-.32,0-.22v0a1,1,0,0,1,0,.25,2.77,2.77,0,0,1-.09.31l-.08.2,0,.1h0a1.88,1.88,0,0,1,.29.21l1.26,1.09,2.62,2.27,5.09,4.4-1.49-6.56-.68-3-.34-1.49-.17-.74-.08-.35v0h0l-.14,0-.76.12a3,3,0,0,1-.62,0c-.13,0-.24-.07-.12,0a3,3,0,0,1,.65.62l.48.57h0l.09-.07.19-.15.78-.6,2-1.54L188,29.51l2.87-2.24-3.3-1.49a24,24,0,0,0-4.34-1.52,6.92,6.92,0,0,0-1.79-.26c-.53,0,0,.39.31.77s-1.75.67-1.81,1.12c0,.15.89.51,1.74.93s1.65.87,1.53,1c-.3.22-1.05.22-1,.39s.88.38,3.54,1.59L185.36,26l-3.88,3h0l-.78.6-.19.15-.3.24a3,3,0,0,0-.59.7,2.76,2.76,0,0,0-.38,1.17A3.36,3.36,0,0,0,179.3,33l.09.39.17.74.34,1.49.68,3,3.59-2.16-2.62-2.27L180.18,33A6,6,0,0,0,179,32.2a3.78,3.78,0,0,0-2-.39,4.39,4.39,0,0,0-1.58.5l-.78.38-1.56.76L170,35l3.14,2.33.5-3.09.25-1.54.13-.77a4.76,4.76,0,0,0,.07-1.4,3.21,3.21,0,0,0-.39-1.19,3.86,3.86,0,0,0-.53-.72l-.56-.59-1.07-1.14-2.15-2.27L168,28.32l2.91-.23,1.45-.12.73-.06c.25,0,.44,0,.9-.09a3.9,3.9,0,0,0,.81-.22,3.27,3.27,0,0,0,1-.58,4.52,4.52,0,0,0,.85-1.05l.78-1.23,1.56-2.46.86-1.35-4-.59a20.33,20.33,0,0,0,2.06,4.85,8.12,8.12,0,0,0,1.24,1.7C179.57,27.31,179.37,26.63,179.44,26.15Z"/></g></g></svg>