<svg xmlns="http://www.w3.org/2000/svg" viewBox="0 0 144.18 147.81"><title>icoon-fair-wit</title><g id="Layer_2" data-name="Layer 2"><g id="Layer_1-2" data-name="Layer 1"><path d="M5.27,65.07c.25-.19.25-1.1.69-1.17s1.27.63,1.58.47.72-1.45,1.1-1.57c1.14-.4,1.74.25.61-2.37a31.29,31.29,0,0,1-2.15-9.3l0-.45,0-.58c-.06-2.43-.45-2-1.54-1.84-.61.09-1.64-.41-2.34-.43-.49,0-1.3,1-1.69,1C.33,48.65-.11,47.58,0,51.1H0l0,.55A38.21,38.21,0,0,0,3,63.71C4.2,66.46,4.42,65.72,5.27,65.07Z"/><path d="M70.14,56.09c.32-.77,1-12.38,1.35-10.74S72,62,72.37,62,74,47,74.34,47.72c.84,1.55,1.08,9.89,1.55-5.72l-.07.66a58.39,58.39,0,0,1,2.78-9.12c.33-.93.79-1.85,1.25-2.83a33.68,33.68,0,0,1,1.58-3c.54-1.06,1.3-2,2-3.12a40,40,0,0,1,2.5-3.13,29.07,29.07,0,0,1,14.78-9.35,44.94,44.94,0,0,1,9.12-.81c1.58,0,3.16,0,4.66.15a19,19,0,0,1,2.09.27c.61.13,1.22.38,1.84.54A19.12,19.12,0,0,1,125.22,17a35.2,35.2,0,0,1,5.38,7.29,51.44,51.44,0,0,1,6.13,17.45,39.54,39.54,0,0,1-1.76,18,54.61,54.61,0,0,1-8.89,16.37,74.22,74.22,0,0,1-13.57,13.26,155.36,155.36,0,0,1-16.26,10.72l-6.48,3.75-4.19,2.4a44,44,0,0,0-4.36,2.85,20.78,20.78,0,0,0-5.65,6.2A25.41,25.41,0,0,0,73,121.8c-.52,2-.77,3.83-1,5.12s-.58,2.71-.86,3.93a39.48,39.48,0,0,0-1.41,9.63c.19,3.25.55.25,1.25-1.16.39-.81.6.78,1,2.5s1.2,3.49,1.53,3.41a9.76,9.76,0,0,0,.12-2.29,26.31,26.31,0,0,1,.73-4.83c.85-3.43,2.1-6.81,2.18-6.44.31,1.17-.19,5.1.49,3.13.17-.49.42-1.34.8-2.75l.66-2.57.38-1.68.36-1.87a20.75,20.75,0,0,1,3.06-8,16.2,16.2,0,0,1,4.13-3.82c1.82-1.25,4.23-2.55,6.82-4l0,0,6.56-3.79a158.09,158.09,0,0,0,18-12A78.3,78.3,0,0,0,133.15,78.5a59.44,59.44,0,0,0,9.58-20.16,48,48,0,0,0,1.45-11.28,45.49,45.49,0,0,0-1.48-11.31,56.15,56.15,0,0,0-9.53-20.29,31.36,31.36,0,0,0-8.66-8c-.87-.55-1.86-1-2.79-1.43a30.51,30.51,0,0,0-3.06-1,29.63,29.63,0,0,0-5.93-.68,69.67,69.67,0,0,0-11.17.49,32.14,32.14,0,0,0-11.13,4,41.68,41.68,0,0,0-15.69,16.5l-.65,1.17-.55,1.18-1.05,2.27c-.56,1.51-1.18,2.92-1.58,4.28A71.32,71.32,0,0,0,69,41.28l-.06.29v.38C68.63,63.93,69.2,58.38,70.14,56.09Z"/><path d="M58.22,15.6c-.08.31.69,1.21.33,1.5s-1.79,0-1.95.28.55,1.8.29,2.1c-.78,1-1.92.53,1.49,2.74A43.36,43.36,0,0,1,68.3,31.6c.13.17.27.34.39.52l.49.67c2,2.87,1.95,2.15,2.74,1.35.43-.45,1.67-.43,2.28-.8.42-.25.33-1.88.68-2,1-.46,2.23.49-.53-3.39h0c-.15-.2-.3-.4-.45-.6A50.16,50.16,0,0,0,61.56,15.85C58.1,13.69,58.49,14.57,58.22,15.6Z"/><path d="M29.26,8.1c.17.26,1,.35,1.09.79s-.69,1.2-.55,1.52,1.33.86,1.42,1.25c.3,1.18-.3,1.66,2.12.9a19.24,19.24,0,0,1,8.46-.39l.4.07.5.11c2.09.53,1.84.08,2-1,.09-.61.84-1.46,1.07-2.12.17-.46-.55-1.52-.4-1.89.23-.54.62-.82.54-1.08s-.64-.56-2.35-.92h0L43,5.22A26.26,26.26,0,0,0,30.79,6C28,6.9,28.7,7.21,29.26,8.1Z"/><path d="M3.37,35.57c.3-.09.71-1.25,1.13-1.06s.87,1.58,1.22,1.56S7,34.71,7.39,34.8c.59.1,1,.43,1.2.26s.27-.81.53-2.65a19,19,0,0,1,5.66-10.85c.14-.13.27-.27.42-.39l.56-.46c1.21-.94,1.71-1.29,1.78-1.62s-.28-.56-.65-1-.37-1.69-.68-2.32c-.21-.44-1.9-.39-2.06-.74-.22-.55,0-1.1-.35-1.18a1.54,1.54,0,0,0-1,.33,13.78,13.78,0,0,0-2.25,1.63h0c-.21.17-.4.37-.61.56A26.06,26.06,0,0,0,2,32.34c-.23,2.18,0,3.08.2,3.38S2.83,35.72,3.37,35.57Z"/><path d="M30.15,94.68c.11-.29-.51-1.21-.15-1.47s1.68.1,1.87-.2-.33-1.78-.05-2.06c.83-.89,1.89-.46-1.15-2.72a48.19,48.19,0,0,1-8.9-9.06l-.36-.48L21,78.06c-1.84-2.67-1.84-2-2.63-1.19-.44.44-1.65.47-2.25.84-.42.25-.38,1.79-.74,2-1,.48-2.14-.38.37,3.18h0l.41.55A55,55,0,0,0,27,94.33C30.05,96.53,29.77,95.69,30.15,94.68Z"/><path d="M53.13,114c.14-.28-.25-1.1.1-1.36s1.42,0,1.63-.27,0-1.62.29-1.9c.84-.86,1.7-.52-.54-2.42-2.5-2.14-5-5-8.68-7.22-.17-.11-.34-.2-.52-.3l-.67-.37c-1.44-.74-2.12-.84-2.41-.7s-.24.58-.34,1.11-1,1.38-1.21,2c-.15.46.42,1.56.21,1.9-.29.51-.65.78-.62,1s.42.48,1.55,1.11h0l.36.21c2.65,1.56,5.1,4.28,8.21,6.94C52.77,115.68,52.65,114.94,53.13,114Z"/><path d="M69.83,140.79c.3-.1.56-1.28,1-1.18s1.05,1.53,1.41,1.5,1.1-1.68,1.49-1.67c.6,0,1,.42,1.23.16s.2-1.19-.33-3.73A41,41,0,0,0,67.5,120l-.53-.66-.68-.84c-1.51-1.72-2.31-2.25-2.7-2.3s-.44.44-.71.93-1.56.78-2,1.31c-.31.37.16,2-.17,2.17-.49.35-1,.36-1,.66s.47.83,1.8,2.47h0l.42.52a34.13,34.13,0,0,1,6,14c.35,1.83.51,2.56.79,2.8S69.31,141,69.83,140.79Z"/><path d="M127.15,5.69c.18,0,1.11-.42,2-.68s1.63-.4,1.47-.15-1.23.93-2.13,1.72S126.87,8.24,127,8.33,128.06,8,129,7.65s2-.51,2-.33c0,.56-.79,1.31-.25,1.24a18.68,18.68,0,0,0,2.08-.74,36.18,36.18,0,0,1,6.23-1.67L136,4.53l.14.31a6.4,6.4,0,0,1,.45,4,27.28,27.28,0,0,1-1.72,4.89,32.79,32.79,0,0,1-5.88,9,32.9,32.9,0,0,1-4,3.64c-1.35,1.05-2.08,1.28-3.14,1.14a4.79,4.79,0,0,1-1.55-.56l-.12-.09L120,27s0,0,0,0l.26-.12v0c0-.06-.05-.25-.08-.38-.18-1.12.13-2.08,1-3.92l.94-2q.6-1.25,1.22-2.45a65.3,65.3,0,0,1,4.45-7.22c.35-.69-.33-.41-.92-.43s.11-2.12-.26-2.55c-.14-.15-1.14.44-2.07,1.13s-1.78,1.43-1.85,1.25c-.22-.55.36-1.77-.22-1.36S119.89,11.5,116.8,18h0l-1,2a19,19,0,0,0-1.28,3.24,9.8,9.8,0,0,0,0,5.25,5.87,5.87,0,0,0,.59,1.35,6.15,6.15,0,0,0,2,2,9.17,9.17,0,0,0,1.94.93,9.94,9.94,0,0,0,2,.5,8.73,8.73,0,0,0,4.36-.47,12,12,0,0,0,3.31-2,38.84,38.84,0,0,0,4.69-4.36,38.88,38.88,0,0,0,6.9-10.72c.43-1,.81-2,1.16-3a18.34,18.34,0,0,0,.9-3.37A12.49,12.49,0,0,0,141.26,2l-1-2-2.1.35c-.94.15-1.71.32-2.55.52C129.39,2.4,127,4.4,126.27,5.13S126.52,5.59,127.15,5.69Z"/><path d="M19.07,137c.55-.19,5.46-5.26,5.16-4.19a47.3,47.3,0,0,1-3,4.51,18.8,18.8,0,0,0-2.37,4c.23.16,1.82-1.41,3.46-2.87s3.27-2.86,3.3-2.56c.07.88-1.16,3-.17,2.17s4.24-4.48,13.91-14.91c10.83-11.62,21.87-23.1,32.89-34.61,5.51-5.76,11-11.51,16.49-17.37,2.72-2.9,5.5-6,8-9l8-8.86,3-3.38,3.84-4.36c8.06-9.33,10.76-13.77,11.57-15.3s-.45-.5-1.42-.14.54-3.9-.1-4.3c-.23-.15-1.73,1.54-3.27,3.1s-3.07,3.06-3.1,2.78c-.13-.87,1-3,0-2.17S111.62,34.4,102.2,45l0,0-3,3.34-8.49,9.46L88.58,60.2,86.53,62.5l-4.25,4.6c-5.75,6.13-11.59,12.22-17.43,18.32C53.18,97.63,41.47,109.8,30,122.26c-8.27,9-11.39,13-12.3,14.57S18.1,137.36,19.07,137Z"/><path d="M22.21,131.45a118.42,118.42,0,0,0-11.34,16.36,53,53,0,0,0,18.7-14.36C38.25,123.1,22.21,131.45,22.21,131.45Z"/></g></g></svg>