<svg xmlns="http://www.w3.org/2000/svg" viewBox="0 0 185.82 182.09"><defs><style>.cls-1{fill:#3acaac;}</style></defs><title>icoon-eu</title><g id="Layer_2" data-name="Layer 2"><g id="Layer_2-2" data-name="Layer 2"><path class="cls-1" d="M116.88,175.25c-17.06-31-25.48-65.67-42.54-96.66L1,53.93C18,68.1,32.73,84.12,46.67,101.3,53.83,110.12,61,119,68.38,127.57a59.3,59.3,0,0,0,14.31,12.68c17.37,10.51,38.12,16.78,57.43,22.43A131.4,131.4,0,0,0,154,166a7.13,7.13,0,0,0,5.77-.18c-18.89-34.8-33-72-51.86-106.79L34.48,34.35q.67,1,1.3,2l-1-1.5c4.58,7.22,8.55,14.82,13.12,22a97.15,97.15,0,0,0,17.73,20.6c14.75,13.38,30.24,25.92,44.8,39.52,3.93,3.67,11.63,6.41,16.26,8.34,7.73,3.23,15.59,6.13,23.54,8.8A215.21,215.21,0,0,0,172,140.56c1.88.42,10.75,3.26,11.86,1.07,3.64-7.2-1.41-14.22-5-20.35Q172,109.53,165.61,97.49c-8.13-15.36-15.76-31-23.84-46.36-1.67-3.18-7.16-5.26-9.92-6.59A242.6,242.6,0,0,0,106,34.14C97.21,31.11,88.35,28,79.29,26,78.19,25.79,67,24.23,67.43,25c8.08,15.39,15.71,31,23.84,46.36q6.14,11.61,12.76,23c3.69,6.32,9.25,13.7,5.48,21.17l73.37,24.65c-10.7-10-21.85-19.44-32.92-29-10.51-9.09-21.08-17.8-28.64-29.59l1,1.5c-5.28-8.41-9.83-17.27-15.39-25.52-2.25-3.35-13.39-7.14-16.26-8.34C82.9,45.92,75,43,67.09,40.36a215.21,215.21,0,0,0-21.72-6.44c-1.11-.25-12.24-1.77-11.86-1.07,18.89,34.8,33,72,51.86,106.79L105,142.74l-1.54-.45L132.21,152l17.35,7.71q1.61,1.14.28.15c-.94-.84-2-1.58-2.88-2.45-1.66-1.55-3.19-3.25-4.69-5-3.35-3.82-6.61-7.71-9.85-11.62-6.19-7.46-12.22-15.05-18.38-22.54a306.55,306.55,0,0,0-40.66-41.2c-4.38-3.64-11.2-6.22-16.26-8.34-7.73-3.23-15.59-6.13-23.54-8.8A215.21,215.21,0,0,0,11.87,53.5C10.75,53.25-.37,51.74,0,52.43c17.06,31,25.48,65.67,42.54,96.66,1.76,3.2,7,5.2,9.92,6.59a242.6,242.6,0,0,0,25.88,10.39c8.76,3,17.62,6.09,26.68,8.11,1.11.25,12.23,1.75,11.86,1.07Z"/></g><g id="Layer_1-2" data-name="Layer 1"><path d="M105.64,92.79a18.23,18.23,0,0,1,2.88,1.83,4.62,4.62,0,0,1,1.22,1.72c.19.49.15.76,0,.58a7.29,7.29,0,0,0-1.24-1.24A7.19,7.19,0,0,0,106,94.58a7.63,7.63,0,0,0-3.48-.25c0,.22,1.62.67,2.93,1.43a4.72,4.72,0,0,1,1.43,1.17c.26.35.26.58.19.6-.52.14-1.54-.07-1.21.38a4.35,4.35,0,0,1,.3.4c.07.16,0,.12,0,.34a6.18,6.18,0,0,1-.34,1.18c-.25.68-.52,1.46-.84,2.25a14.85,14.85,0,0,1-2.76,4.77,4.89,4.89,0,0,1-2.34,1.41,10.19,10.19,0,0,1-3.4.15,15.67,15.67,0,0,1-7-2.33A10.94,10.94,0,0,1,85,100.81a19.59,19.59,0,0,1-1.12-7.6,82.55,82.55,0,0,1,2.38-17,15.06,15.06,0,0,1,3.21-6.54A5.89,5.89,0,0,1,92,68.17a11.47,11.47,0,0,1,3.48-.35,17.54,17.54,0,0,1,2.85.29,11.45,11.45,0,0,1,3.21,1.07,6.11,6.11,0,0,1,2.73,2.57,5.19,5.19,0,0,1,.46,2.45,5.6,5.6,0,0,1-.57,2.15c-.27.56.33.52,1,.42.35-.05.45.55.23,1.26s-.78,1.42-.66,1.72c0,.08.52,0,1.17-.28a5.52,5.52,0,0,0,2-1.73c1.23-1.58,1.51-3.59,1.68-3.37a2.12,2.12,0,0,1,.3.71c.07.3.1.63.13.91.05.56.07.9.37.28a7.2,7.2,0,0,0,.4-1.77,10.36,10.36,0,0,0-.3-3.75,10.64,10.64,0,0,0-1.1-2.66,11.83,11.83,0,0,0-2.26-2.66,15.84,15.84,0,0,0-7.6-3.51h0a23.83,23.83,0,0,0-3.9-.4,17.09,17.09,0,0,0-5.76.72,12.21,12.21,0,0,0-5.27,3.52c-2.71,3.12-3.8,6.66-4.62,9.94a92.38,92.38,0,0,0-1.72,9.72,63.44,63.44,0,0,0-.56,10,21.1,21.1,0,0,0,3,10.62,18.63,18.63,0,0,0,8.79,7.07,22.24,22.24,0,0,0,5.33,1.42,18.88,18.88,0,0,0,5.72,0,10.89,10.89,0,0,0,3.12-1,11.49,11.49,0,0,0,2.69-1.87,16.6,16.6,0,0,0,3.42-4.76,32.47,32.47,0,0,0,1.38-3.23l.5-1.39c.15-.43.31-.88.45-1.42a9,9,0,0,0,.32-1.79,6.38,6.38,0,0,0-.17-2,6.45,6.45,0,0,0-1.71-3,7.53,7.53,0,0,0-1.93-1.41,9,9,0,0,0-1.48-.62,8.47,8.47,0,0,0-1.79-.4C103.8,91.53,105.09,92.13,105.64,92.79Z"/><path d="M96.32,87.74c-.09-.26-1.16-.54-1-.93s1.42-.89,1.39-1.2-1.42-1-1.39-1.39c.1-1.06,1.33-1.45-2.86-1.14q-7,.5-14.06.73l-.67,0-.85,0c-3.58.09-2.91.47-2.64,1.42.15.54-.49,1.48-.47,2.11,0,.44,1.36,1.12,1.31,1.47-.16,1-1.44,1.39,2.84,1.28h0l.68,0q7.59-.24,15.16-.8C97.36,89,96.65,88.67,96.32,87.74Z"/><path d="M91.73,95.3c0-.27-.59-.67-.5-1s.89-.72.92-1-.74-1.19-.69-1.54c.15-1,1-1.35-1.72-1.39a39.69,39.69,0,0,0-9,1.06l-.42.1-.53.13c-2.23.62-1.68.91-1.25,1.77.24.49.14,1.49.33,2.09.14.41,1.07.88,1.13,1.22.2,1-.37,1.49,1.83.91h0l.35-.08a33.32,33.32,0,0,1,8-.89C92.14,96.65,91.81,96.28,91.73,95.3Z"/><path d="M92.42,15.54a25,25,0,0,0-2.51.26c-1.11.1-2.09.09-1.81-.15s1.79-.75,3.15-1.38a7.84,7.84,0,0,0,2.51-1.48c-.09-.2-1.47.08-2.8.2s-2.63.15-2.55-.05c.21-.51,1.19-1.09.94-1.24a3.91,3.91,0,0,0-1.52.12,35.59,35.59,0,0,1-4.89.47l-7,.17,4.83,5.13,4,4.26,2.09,2.21.37-.29.35-.25a5.19,5.19,0,0,1,.47-.29l.27-.13-.15,0a3.88,3.88,0,0,1-.85.08h-.37l-.37,0v0l-.24,1.47-1.09,6.47-1.09,6.5,5.74-3.22,3.9-2.19,2-1.1.93-.52,0,0s0,.07-.09-.19L96.4,30a6.48,6.48,0,0,1-.34-.91c0-.09,0-.17,0-.22A.68.68,0,0,1,96,29a2.25,2.25,0,0,1,0,.38,5.84,5.84,0,0,1-.16.77c0,.18-.11.39-.18.6h0l.35.15,1,.44,2.06.89L103.22,34l5.6,2.41-1.26-6-1-4.86L106,23.13l-.26-1.21c0-.2-.06-.31-.06-.33l-.44,0-.47,0h-.36a1.39,1.39,0,0,1,.33.13,4,4,0,0,1,.39.23l.24.18.13.1h0a2.69,2.69,0,0,1,.39-.33l1.95-1.37,4.07-2.85,7.89-5.52L110.18,12l-4.37-.1-2.19,0-1.09,0H102V12l-.05.67,0,.43a4.23,4.23,0,0,1-.18.87,1.1,1.1,0,0,1-.09.2l0,0,.06-.06a2,2,0,0,1,.29-.23,7.77,7.77,0,0,1,.79-.45l1-.47v0l-.06-.14-.14-.32-.57-1.29-1.44-3.28-1.39-3.14L98,0,94.75,4.06a34.27,34.27,0,0,0-3.63,5.5,9.91,9.91,0,0,0-1,2.4c-.12.75.56.08,1.18-.16s.32,2.66.93,2.9c.2.09,1-1.06,1.9-2.1s1.78-2,1.86-1.78c.2.49-.06,1.54.18,1.55s.35-.25.85-.93S98.3,9.62,99.63,8l-5.29-.71,2.79,6.43h0L97.7,15l.14.32c0,.09.09.23.23.5a4.28,4.28,0,0,0,.76,1.06,4,4,0,0,0,1.49.94,4.8,4.8,0,0,0,1.49.26h.57l1.09,0,2.19,0,4.37.1-1.74-5.74-4.07,2.85-2.11,1.49a8.51,8.51,0,0,0-1.45,1.33,5.41,5.41,0,0,0-1.23,2.64,6.28,6.28,0,0,0,.14,2.37l.26,1.21.51,2.43,1,4.86,4.33-3.55L101.6,26.4l-2.06-.89-1-.44a6.81,6.81,0,0,0-1.91-.59,4.59,4.59,0,0,0-1.78.12,5.53,5.53,0,0,0-1.18.49l-1,.57-2,1.1L86.77,29l4.65,3.27.69-4.12.34-2.06.17-1c.05-.35.12-.61.19-1.28a5.57,5.57,0,0,0,0-1.2A4.69,4.69,0,0,0,92.33,21a6.48,6.48,0,0,0-1.17-1.55L89.73,18l-2.87-3-1.58-1.66-2.2,5.32a29.09,29.09,0,0,0,7.45-1.16,11.62,11.62,0,0,0,2.8-1.13C94.08,15.77,93.05,15.81,92.42,15.54Z"/><path d="M42.11,36.92a25,25,0,0,0-2.48.48c-1.09.2-2.07.28-1.82,0s1.71-.91,3-1.66a7.84,7.84,0,0,0,2.37-1.69c-.1-.19-1.45.21-2.77.45s-2.61.38-2.55.18c.17-.52,1.09-1.19.82-1.32a3.91,3.91,0,0,0-1.5.26,35.59,35.59,0,0,1-4.83.9l-7,.79L30.64,40,35,43.88l2.28,2,.35-.33L38,45.3a5.2,5.2,0,0,1,.44-.33l.25-.15-.14.05a3.88,3.88,0,0,1-.84.15l-.37,0-.37,0v0l-.11,1.49-.51,6.54-.51,6.57L41.25,56l3.69-2.53,1.85-1.26.88-.6,0,0s0,.07-.11-.19l-.23-.4a6.49,6.49,0,0,1-.42-.88c0-.09-.05-.16-.07-.21V50a2.25,2.25,0,0,1,0,.38,5.84,5.84,0,0,1-.09.78c0,.18-.08.4-.12.62h0l.36.11,1.06.35,2.13.7,4.25,1.4,5.79,1.91-1.79-5.83-1.46-4.74-.73-2.37L56,42.08c-.06-.19-.09-.3-.09-.32l-.43.07-.47.06-.32,0h0a1.39,1.39,0,0,1,.34.1,4,4,0,0,1,.41.2l.26.15.13.09h0a2.69,2.69,0,0,1,.36-.37l1.82-1.54,3.8-3.2,7.36-6.2-9.61.64-4.36.29-2.18.15-1.09.07-.52,0h0v1.31a4.23,4.23,0,0,1-.1.88,1.1,1.1,0,0,1-.07.2l0,0,.05-.07a2,2,0,0,1,.27-.25,7.77,7.77,0,0,1,.75-.52l.92-.56v0L53,33.2l-.17-.31-.68-1.23-1.73-3.14-1.66-3-2.52-4.56-2.84,4.33a34.27,34.27,0,0,0-3.12,5.8,9.91,9.91,0,0,0-.77,2.48c-.06.76.56,0,1.16-.27s.55,2.62,1.18,2.81c.21.07.92-1.15,1.71-2.26s1.6-2.13,1.7-1.94c.24.47.08,1.54.32,1.53s.33-.28.76-1,1.1-1.91,2.28-3.65l-5.34-.23,3.35,6.16h0l.68,1.23.17.31c.05.09.11.22.27.48a4.28,4.28,0,0,0,.85,1,4,4,0,0,0,1.57.8,4.8,4.8,0,0,0,1.51.12l.57,0,1.09-.07,2.18-.15,4.36-.29-2.24-5.56-3.8,3.2-2,1.67a8.51,8.51,0,0,0-1.32,1.45,5.41,5.41,0,0,0-1,2.74,6.28,6.28,0,0,0,.35,2.35l.36,1.19L51,47.49l1.46,4.74,4-3.92-4.25-1.4-2.13-.7L49,45.86a6.81,6.81,0,0,0-2-.41,4.59,4.59,0,0,0-1.76.28,5.54,5.54,0,0,0-1.13.59l-1,.66-1.85,1.26-3.69,2.53,4.93,2.85.32-4.16.16-2.08.08-1c0-.35.07-.62.07-1.3a5.57,5.57,0,0,0-.13-1.19,4.69,4.69,0,0,0-.6-1.47,6.48,6.48,0,0,0-1.3-1.44l-1.56-1.38L36.52,36.8,34.8,35.28l-1.72,5.49A29.09,29.09,0,0,0,40.39,39a11.62,11.62,0,0,0,2.69-1.38C43.78,37,42.77,37.12,42.11,36.92Z"/><path d="M18,88.23a25,25,0,0,0-2.36.91c-1,.39-2,.64-1.79.33s1.53-1.2,2.67-2.16,2.14-2,2-2.08-1.39.46-2.65.93-2.5.83-2.48.62c.07-.54.86-1.36.58-1.45s-.53.11-1.44.51A35.59,35.59,0,0,1,8,87.59l-6.73,2,6,3.68,5,3.06,2.6,1.59.28-.38.27-.34a5.2,5.2,0,0,1,.37-.4,2.24,2.24,0,0,1,.22-.19l-.13.08a3.88,3.88,0,0,1-.8.3l-.36.09-.36.08v0l.15,1.48.65,6.53.65,6.55,4.7-4.62L23.69,104l1.6-1.57.76-.75,0,0-.14-.16-.29-.35a6.49,6.49,0,0,1-.57-.79c0-.08-.08-.15-.1-.2l0,.07a2.25,2.25,0,0,1,.08.38,5.84,5.84,0,0,1,0,.78c0,.19,0,.41,0,.63h0l.37,0,1.11.16,2.22.32,4.43.63,6,.86-2.78-5.42L34.25,94.2,33.11,92l-.57-1.1c-.09-.18-.14-.28-.15-.3l-.41.15-.45.14-.31.07-.11,0h.06a1.39,1.39,0,0,1,.35,0,4,4,0,0,1,.44.12l.28.11.15.06h0a2.69,2.69,0,0,1,.29-.42L34.22,89l3.18-3.81,6.17-7.4-9.35,2.31L30,81.19l-2.12.53L26.79,82l-.5.12h0l0,.2.13.66.07.43a4.24,4.24,0,0,1,.06.88,1.1,1.1,0,0,1,0,.21v0l0-.08a2,2,0,0,1,.22-.3,7.77,7.77,0,0,1,.65-.65l.81-.71v0l-.1-.12-.22-.27L27,81.29,24.75,78.5l-2.17-2.67L19.3,71.78l-2,4.76A34.28,34.28,0,0,0,15.2,82.8a9.91,9.91,0,0,0-.33,2.57c.08.76.56-.07,1.09-.47s1,2.48,1.66,2.56c.22,0,.71-1.29,1.29-2.52s1.2-2.38,1.33-2.21c.32.42.35,1.5.58,1.45s.27-.33.58-1.12.75-2.08,1.61-4l-5.29.7,4.38,5.47h0l.88,1.1.22.27c.07.08.15.19.35.42a4.28,4.28,0,0,0,1,.83,4,4,0,0,0,1.68.52,4.8,4.8,0,0,0,1.51-.14l.56-.14,1.06-.26,2.12-.53,4.24-1.05-3.18-5.08L29.37,85l-1.65,2a8.52,8.52,0,0,0-1,1.66,5.41,5.41,0,0,0-.5,2.88,6.28,6.28,0,0,0,.75,2.25l.57,1.1,1.13,2.21,2.26,4.42,3.25-4.56-4.43-.63L27.5,96l-1.11-.16a6.81,6.81,0,0,0-2-.06,4.59,4.59,0,0,0-1.69.59,5.54,5.54,0,0,0-1,.78l-.83.82-1.6,1.57-3.19,3.14,5.35,1.94L21,100.44l-.21-2.08-.1-1c0-.35,0-.62-.15-1.29a5.57,5.57,0,0,0-.33-1.15,4.69,4.69,0,0,0-.85-1.34,6.48,6.48,0,0,0-1.53-1.19L16,91.26l-3.56-2.17-2-1.19-.74,5.71a29.09,29.09,0,0,0,6.88-3.07,11.62,11.62,0,0,0,2.4-1.83C19.67,88,18.69,88.32,18,88.23Z"/><path d="M39.59,142.68a25,25,0,0,0-.5,2.48c-.23,1.09-.53,2-.68,1.69s-.19-1.93-.38-3.42a7.84,7.84,0,0,0-.66-2.84c-.22,0-.37,1.42-.64,2.74s-.65,2.56-.81,2.42c-.42-.35-.69-1.46-.91-1.27a3.91,3.91,0,0,0-.34,1.49,35.6,35.6,0,0,1-1,4.81l-1.93,6.75,6.33-3.08,5.26-2.56,2.74-1.34-.17-.44-.14-.41a5.2,5.2,0,0,1-.14-.53,2.25,2.25,0,0,1,0-.29,1.41,1.41,0,0,1,0,.15,3.88,3.88,0,0,1-.18.83l-.12.36-.13.35,0,0,1.33.67,5.86,3,5.88,3-1.36-6.44L56,146.38l-.46-2.19-.22-1v0l-.21,0-.45.06a6.47,6.47,0,0,1-1,.06l-.22,0h.07a2.24,2.24,0,0,1,.36.13,5.85,5.85,0,0,1,.68.38l.52.35h0l.24-.29L56,143l1.46-1.7,2.92-3.4,4-4.62-6.07-.57-4.94-.47L50.89,132l-1.24-.12-.33,0c0-.12-.06.29-.1.43s-.09.33-.12.46-.07.22-.1.3l0,.11,0-.06a1.39,1.39,0,0,1,.22-.28,4,4,0,0,1,.34-.31l.24-.18.13-.09h0a2.69,2.69,0,0,1-.2-.47L49,129.45l-1.51-4.73-2.92-9.18-3.07,9.12-1.4,4.14-.7,2.07-.35,1-.17.49v0h0l.19.07.62.25.4.17a4.23,4.23,0,0,1,.78.43,1.1,1.1,0,0,1,.16.14l0,0,0-.07a2,2,0,0,1-.13-.35,7.77,7.77,0,0,1-.2-.89l-.16-1.06h0l-.15,0-.35,0-1.4.16-3.56.4-3.42.39-5.18.59L29.33,137a34.28,34.28,0,0,0,4.17,5.1,9.91,9.91,0,0,0,2,1.66c.68.34.24-.51.19-1.17s2.63.49,3,0c.14-.17-.71-1.29-1.43-2.44s-1.36-2.29-1.15-2.31c.53,0,1.45.51,1.53.29s-.13-.41-.64-1.09-1.35-1.75-2.5-3.5l-2.25,4.84,7-.75h0l1.4-.16.35,0c.1,0,.24,0,.54-.07a4.27,4.27,0,0,0,1.24-.41,4,4,0,0,0,1.34-1.14,4.8,4.8,0,0,0,.69-1.35l.18-.54.35-1,.7-2.07,1.4-4.14-6-.05L43,131.36l.79,2.46a8.52,8.52,0,0,0,.84,1.78,5.41,5.41,0,0,0,2.16,2,6.28,6.28,0,0,0,2.3.58l1.24.12,2.47.23,4.94.47-2.1-5.2-2.92,3.39-1.46,1.7-.73.85a6.81,6.81,0,0,0-1.13,1.65,4.59,4.59,0,0,0-.41,1.74,5.53,5.53,0,0,0,.11,1.27l.24,1.14.46,2.19.93,4.38,4.51-3.47-3.72-1.89-1.86-.94-.93-.47c-.32-.15-.55-.3-1.17-.56a5.58,5.58,0,0,0-1.15-.34,4.69,4.69,0,0,0-1.59,0A6.48,6.48,0,0,0,43,145l-1.87.92-3.75,1.84-2.06,1,4.42,3.69A29.09,29.09,0,0,0,40.82,145a11.62,11.62,0,0,0-.25-3C40.31,141.16,40,142.15,39.59,142.68Z"/><path d="M90,167.08a25,25,0,0,0-.45,2.49c-.21,1.09-.49,2-.65,1.7s-.22-1.93-.45-3.41a7.84,7.84,0,0,0-.72-2.82c-.22,0-.34,1.43-.59,2.75s-.6,2.57-.76,2.44c-.43-.35-.71-1.44-.93-1.25a3.91,3.91,0,0,0-.31,1.49,35.59,35.59,0,0,1-.91,4.83l-1.8,6.79,6.27-3.2,5.21-2.66,2.71-1.39-.18-.44-.15-.4a5.21,5.21,0,0,1-.15-.53,2.25,2.25,0,0,1,0-.29,1.41,1.41,0,0,1,0,.15,3.88,3.88,0,0,1-.16.84l-.11.36-.12.35,0,0,1.35.64,5.91,2.85,5.93,2.86-1.49-6.42-1-4.36-.51-2.18-.24-1v0l-.21,0-.45.07a6.49,6.49,0,0,1-1,.08h-.15a2.25,2.25,0,0,1,.36.13,5.84,5.84,0,0,1,.69.37l.53.34h0l.24-.29.71-.86,1.42-1.73,2.85-3.45,3.88-4.7-6.08-.45-4.95-.37-2.47-.18-1.24-.09-.33,0c0-.12-.05.29-.09.43s-.08.33-.11.46-.07.22-.1.3l0,.11,0-.06a1.39,1.39,0,0,1,.22-.28,4,4,0,0,1,.33-.31l.24-.19.13-.09h0a2.69,2.69,0,0,1-.21-.47l-.77-2.25-1.6-4.7-3.1-9.12L91.55,149l-1.31,4.17-.66,2.09-.33,1-.16.5v0h0l.19.07.62.23.4.16a4.24,4.24,0,0,1,.78.41,1.1,1.1,0,0,1,.16.14l0,0,0-.07a2,2,0,0,1-.14-.34,7.78,7.78,0,0,1-.21-.89l-.18-1.06h0l-.15,0-.35,0-1.4.18-3.56.47-3.41.46-5.17.69,3,4.22a34.27,34.27,0,0,0,4.27,5,9.92,9.92,0,0,0,2,1.62c.69.33.23-.52.17-1.18s2.64.44,3-.08c.14-.17-.73-1.28-1.48-2.41s-1.41-2.27-1.19-2.29c.52-.05,1.46.48,1.54.26s-.14-.41-.66-1.08S86,159.78,84.78,158l-2.16,4.89,7-.89h0l1.4-.18.35,0c.1,0,.24,0,.54-.08a4.28,4.28,0,0,0,1.23-.44,4,4,0,0,0,1.32-1.17,4.8,4.8,0,0,0,.66-1.36l.17-.55.33-1,.66-2.09,1.31-4.17-6,.07,1.6,4.7.84,2.44a8.51,8.51,0,0,0,.87,1.76,5.41,5.41,0,0,0,2.2,1.92,6.28,6.28,0,0,0,2.31.53l1.24.09,2.47.18,4.95.37-2.2-5.15L103,161.29,101.58,163l-.71.86a6.81,6.81,0,0,0-1.1,1.67,4.59,4.59,0,0,0-.38,1.75,5.53,5.53,0,0,0,.14,1.27l.26,1.14.51,2.18,1,4.36,4.44-3.56L102,170.88l-1.88-.91-.94-.45c-.32-.15-.55-.29-1.18-.54a5.57,5.57,0,0,0-1.16-.32,4.69,4.69,0,0,0-1.59,0,6.48,6.48,0,0,0-1.81.69l-1.86,1-3.71,1.91-2,1.05,4.49,3.6a29.09,29.09,0,0,0,1-7.47,11.62,11.62,0,0,0-.31-3C90.7,165.55,90.44,166.54,90,167.08Z"/><path d="M147.47,135.67a25,25,0,0,0-1.23-2.21c-.53-1-.91-1.88-.58-1.73s1.4,1.34,2.51,2.35a7.84,7.84,0,0,0,2.35,1.73c.15-.16-.65-1.32-1.29-2.5s-1.17-2.36-1-2.37c.55,0,1.47.66,1.51.37s-.18-.51-.71-1.35a35.58,35.58,0,0,1-2.36-4.31l-2.92-6.39L141,125.73l-2.33,5.37-1.21,2.8.42.23.37.22a5.24,5.24,0,0,1,.45.31,2.25,2.25,0,0,1,.22.2l-.1-.12a3.88,3.88,0,0,1-.41-.75l-.14-.35-.13-.35h0l-1.45.36-6.38,1.56-6.4,1.56,5.23,4,3.55,2.72,1.78,1.36.85.65,0,0,.14-.16.31-.34a6.48,6.48,0,0,1,.7-.68l.18-.13-.06,0a2.25,2.25,0,0,1-.36.13,5.86,5.86,0,0,1-.77.16l-.62.07V159l5-3.51,4.06-2.86,2-1.43,1-.72.28-.19c.06.1-.14-.26-.2-.39s-.15-.31-.2-.43-.09-.21-.12-.29l0-.11,0,.06a1.39,1.39,0,0,1,0,.36,4,4,0,0,1-.06.45l-.07.29,0,.15h0a2.7,2.7,0,0,1,.46.23l2,1.25,4.22,2.61,8.19,5.07-3.6-8.93-1.63-4.05-.82-2-.41-1-.19-.48v0h0l-.19.07-.63.22-.41.13a4.24,4.24,0,0,1-.87.18h-.25l.08,0a2,2,0,0,1,.32.18,7.8,7.8,0,0,1,.73.55l.81.7,0,0,.11-.11.24-.26,1-1,2.45-2.62,2.34-2.52,3.55-3.82-5-1.36a34.28,34.28,0,0,0-6.48-1.16,9.91,9.91,0,0,0-2.59,0c-.74.18.15.54.62,1s-2.32,1.34-2.3,2c0,.22,1.38.52,2.68.92s2.52.86,2.37,1c-.37.38-1.43.55-1.35.78s.36.22,1.19.41,2.16.45,4.18,1l-1.44-5.14-4.81,5.1h0l-1,1-.24.26c-.07.08-.17.17-.37.41a4.28,4.28,0,0,0-.68,1.12,4,4,0,0,0-.28,1.74,4.8,4.8,0,0,0,.35,1.47l.21.53.41,1,.82,2,1.63,4.05,4.59-3.86-4.22-2.61-2.2-1.35a8.52,8.52,0,0,0-1.79-.8,5.41,5.41,0,0,0-2.92-.09,6.28,6.28,0,0,0-2.12,1.06l-1,.72-2,1.43-4.06,2.86,5,2.58V145a6.81,6.81,0,0,0-.22-2,4.59,4.59,0,0,0-.82-1.59,5.53,5.53,0,0,0-.91-.89l-.93-.71-1.78-1.36-3.55-2.72-1.17,5.57,4.05-1,2-.49,1-.25c.34-.09.61-.13,1.25-.33a5.57,5.57,0,0,0,1.09-.49,4.69,4.69,0,0,0,1.21-1,6.48,6.48,0,0,0,1-1.68l.83-1.92,1.65-3.83.9-2.1-5.75.07a29.1,29.1,0,0,0,4,6.38,11.63,11.63,0,0,0,2.15,2.12C147.92,137.29,147.48,136.36,147.47,135.67Z"/><path d="M169.37,87.41a25,25,0,0,0-1.27-2.19c-.55-1-.94-1.87-.61-1.71s1.42,1.32,2.55,2.3a7.84,7.84,0,0,0,2.38,1.68c.15-.16-.67-1.3-1.34-2.47s-1.22-2.34-1-2.35c.55,0,1.48.63,1.52.34s-.19-.51-.74-1.34a35.59,35.59,0,0,1-2.44-4.27l-3-6.33-2.69,6.51L160.46,83l-1.16,2.82.42.22.37.21a5.22,5.22,0,0,1,.46.3,2.25,2.25,0,0,1,.23.19l-.1-.12a3.88,3.88,0,0,1-.42-.74l-.15-.34L160,85.2h0l-1.44.38-6.35,1.67L145.78,89l5.3,3.91,3.6,2.66,1.8,1.33.86.64,0,0,.14-.16.3-.35a6.48,6.48,0,0,1,.69-.69l.18-.13-.06,0a2.24,2.24,0,0,1-.36.14,5.83,5.83,0,0,1-.76.17l-.62.09V97l0,1.12,0,2.24.08,4.48.1,6.1,4.92-3.61,4-2.94,2-1.47,1-.73.27-.19c.06.1-.14-.25-.21-.38s-.16-.31-.21-.42-.09-.21-.12-.29l0-.11,0,.06a1.39,1.39,0,0,1,0,.36,4,4,0,0,1-.05.46l-.06.3,0,.15h0a2.69,2.69,0,0,1,.46.22l2.05,1.21,4.27,2.53,8.28,4.92-3.76-8.86-1.71-4-.85-2-.43-1-.2-.48v0h0l-.19.07-.63.23-.41.14a4.23,4.23,0,0,1-.86.2h-.25l.08,0a2,2,0,0,1,.33.17,7.77,7.77,0,0,1,.74.54l.83.68v0l.1-.12.24-.26.94-1,2.4-2.66L182.34,90l3.48-3.88-5-1.26a34.27,34.27,0,0,0-6.5-1,9.91,9.91,0,0,0-2.59.08c-.74.19.16.54.63,1s-2.29,1.39-2.26,2c0,.22,1.39.5,2.69.87s2.54.81,2.39,1c-.36.38-1.42.58-1.34.8s.37.22,1.2.39,2.17.41,4.19,1l-1.53-5.12L173,91h0L172,92l-.24.26c-.07.08-.17.18-.36.42a4.28,4.28,0,0,0-.65,1.13,4,4,0,0,0-.24,1.74A4.8,4.8,0,0,0,170.9,97l.22.53.43,1,.85,2,1.71,4,4.51-3.95-4.27-2.53-2.22-1.31a8.52,8.52,0,0,0-1.81-.77,5.41,5.41,0,0,0-2.92,0,6.28,6.28,0,0,0-2.1,1.1l-1,.73-2,1.47-4,2.94,5,2.49-.08-4.48,0-2.24,0-1.12a6.81,6.81,0,0,0-.25-2,4.59,4.59,0,0,0-.85-1.57,5.53,5.53,0,0,0-.93-.87l-.94-.69-1.8-1.33-3.6-2.66-1.07,5.59,4-1.06,2-.53,1-.27c.34-.1.61-.14,1.25-.36a5.57,5.57,0,0,0,1.08-.51,4.69,4.69,0,0,0,1.19-1.05,6.48,6.48,0,0,0,.93-1.7l.79-1.93,1.58-3.86.86-2.12-5.75.18a29.09,29.09,0,0,0,4.12,6.31,11.62,11.62,0,0,0,2.18,2.08C169.85,89,169.4,88.1,169.37,87.41Z"/><path d="M149.24,37.43a25,25,0,0,0-.86-2.38c-.37-1-.6-2-.3-1.8s1.17,1.55,2.11,2.71,1.92,2.17,2,2.08-.43-1.4-.88-2.67-.78-2.52-.57-2.49c.54.08,1.35.89,1.43.61s-.1-.54-.49-1.45a35.59,35.59,0,0,1-1.65-4.63l-1.87-6.77-3.79,5.93-3.16,4.93-1.64,2.57.38.29.33.28a5.21,5.21,0,0,1,.4.38,2.25,2.25,0,0,1,.19.23l-.08-.13a3.88,3.88,0,0,1-.28-.8l-.09-.36-.07-.36h0l-1.49.12-6.54.52-6.57.53,4.53,4.79,3.08,3.25,1.54,1.63.73.78,0,0,.17-.13.36-.29a6.48,6.48,0,0,1,.8-.56l.2-.1-.07,0a2.24,2.24,0,0,1-.38.07,5.83,5.83,0,0,1-.78,0l-.63,0v0l-.06.37-.18,1.1L134.73,48,134,52.39l-1,6,5.48-2.68L143,53.55l2.23-1.09,1.11-.55.3-.14c0,.11-.1-.27-.14-.41s-.1-.33-.13-.45-.05-.22-.07-.31l0-.11v.06a1.39,1.39,0,0,1,0,.35,4,4,0,0,1-.13.44l-.11.28-.06.15h0a2.69,2.69,0,0,1,.42.3l1.81,1.56,3.75,3.25,7.28,6.3L157,53.79l-1-4.26-.49-2.13-.24-1.07-.12-.51v0h0l-.2,0-.66.11-.43.06a4.23,4.23,0,0,1-.88,0l-.21,0h0l.08,0a2,2,0,0,1,.29.23,7.77,7.77,0,0,1,.63.66l.69.82h0l.12-.1.28-.22,1.11-.86,2.83-2.2,2.71-2.11L165.67,39,161,36.9a34.27,34.27,0,0,0-6.22-2.18,9.91,9.91,0,0,0-2.57-.38c-.76.06.06.56.45,1.1s-2.5,1-2.59,1.61c0,.22,1.28.73,2.5,1.33s2.36,1.25,2.18,1.37c-.42.31-1.5.32-1.46.55s.32.28,1.11.6,2.06.79,4,1.68l-.6-5.31-5.56,4.27h0l-1.11.86-.28.22c-.08.06-.2.15-.43.35a4.28,4.28,0,0,0-.84,1,4,4,0,0,0-.55,1.67,4.8,4.8,0,0,0,.11,1.51l.13.56.24,1.07.49,2.13,1,4.26L156,52.1l-3.75-3.25-2-1.68a8.51,8.51,0,0,0-1.64-1.08,5.41,5.41,0,0,0-2.87-.55,6.28,6.28,0,0,0-2.26.71l-1.11.55-2.23,1.09-4.46,2.18,4.5,3.34L141,49l.36-2.21.18-1.1a6.81,6.81,0,0,0,.1-2A4.59,4.59,0,0,0,141,42a5.53,5.53,0,0,0-.76-1l-.8-.85-1.54-1.63-3.08-3.25-2,5.31L137,40.2l2.08-.17,1-.08c.35,0,.62,0,1.29-.13a5.58,5.58,0,0,0,1.16-.31,4.69,4.69,0,0,0,1.36-.83,6.48,6.48,0,0,0,1.22-1.51l1.12-1.76,2.24-3.52L149.72,30,144,29.12A29.09,29.09,0,0,0,147,36.05a11.62,11.62,0,0,0,1.78,2.44C149.43,39.1,149.15,38.11,149.24,37.43Z"/></g></g></svg>