<svg xmlns="http://www.w3.org/2000/svg" viewBox="0 0 171 174.6"><defs><style>.cls-1{fill:#e5fcff;}</style></defs><title>icoon-vegan</title><g id="Layer_2" data-name="Layer 2"><g id="Layer_2-2" data-name="Layer 2"><path class="cls-1" d="M94.47,45c-3.56,44.55-9.71,90.88-35.16,128.85l76.53-18.67a801.16,801.16,0,0,0-1.67-115.33C133.84,36,98,44.45,94.94,45.22c-9,2.24-18.08,4.51-26.77,7.77-2.21.83-10.24,2.76-10.52,5.56Q55,84.82,50.4,110.84c-3,16.59-6.77,33.25-16.25,47.47l76.53-18.67c-2.64-10.36-1-20.82.41-31.23q2.36-17.82,3.9-35.73,3.07-35.83,2.82-71.82c0-3.29-33.14,3.95-34.13,4.17C75.53,6.9,67.36,8.91,59.39,11.45c-5.74,1.83-11.83,3.51-17,6.67-6.53,4-9.69,11-12,18C27.56,44.74,25,53.39,22.26,62L5.8,114.37c-.53,1.67,13.89-.17,11.9.09A244,244,0,0,0,45,109c9-2.24,18.08-4.51,26.77-7.77,2.69-1,9.56-2.49,10.52-5.56l15-47.7,7.35-23.38c2.16-6.89,4-14.06,8.45-19.86L112,6.15a20.71,20.71,0,0,1,4.69-3.9L41.28,19.52q.21,36-2.82,71.82-1.5,17.44-3.78,34.8c-1.41,10.72-3.25,21.5-.54,32.17.52,2,12.52,0,11.9.09A244,244,0,0,0,73.38,153c9-2.24,18.08-4.51,26.77-7.77,3.42-1.28,8.41-2.39,10.52-5.56,9.48-14.22,13.26-30.88,16.25-47.47q4.68-26,7.25-52.3L57.65,58.54a801.16,801.16,0,0,1,1.67,115.33c-.18,3.11,36.4-4.64,39.24-5.34,9-2.24,18.08-4.51,26.77-7.77,3.42-1.28,8.4-2.39,10.52-5.56,25.44-38,31.6-84.3,35.16-128.85.24-3-36.42,4.64-39.24,5.34-9,2.24-18.08,4.51-26.77,7.77-2.17.81-10.3,2.79-10.52,5.56Z"/></g><g id="Layer_1-2" data-name="Layer 1"><path d="M81.59,34.48c.3.05,1.56-.14,3.26-.17a42.35,42.35,0,0,1,5.79.16c4,.36,7.34,1.38,6.18,1.36s-6.93-.75-12.33.15a31.68,31.68,0,0,0-7.05,1.83,12.1,12.1,0,0,0-2.89,1.42,15.39,15.39,0,0,0,3.08-.7,35.84,35.84,0,0,1,6.65-1,37.35,37.35,0,0,1,6.5.28c1.7.28,2.74.5,2.5.59-1.43.42-6.58.71-3.89,1a55.09,55.09,0,0,1,11.23,2,64.32,64.32,0,0,1,12.13,4.84A25.26,25.26,0,0,1,119.36,51a24.64,24.64,0,0,1,4.87,8.36,84.15,84.15,0,0,1,4.85,25.48,197.9,197.9,0,0,1-.93,26.68c-.8,8.89-2.07,17.63-5.52,25.26s-9.16,14.14-16.6,16.73a31.92,31.92,0,0,1-12,1.7c-1,0-2.07-.11-3.11-.24l-1.77-.19-1.79-.14c-2.37-.16-4.65-.22-6.82-.35a37.4,37.4,0,0,1-6.13-.8,22.35,22.35,0,0,1-2.77-.83c-1-.39-2.06-.8-3-1.21a30,30,0,0,1-5.35-2.81,20.37,20.37,0,0,1-4.2-3.91,38.47,38.47,0,0,1-3.49-5.12c-1.07-1.83-2.14-3.85-3.1-5.77a115.37,115.37,0,0,1-5.12-12.14,116.44,116.44,0,0,1-3.78-12.63,61.16,61.16,0,0,1-1.73-12.72,56.39,56.39,0,0,1,.53-9.67,59.18,59.18,0,0,1,2.82-12,65.19,65.19,0,0,1,7.44-15.09A66.19,66.19,0,0,1,60,50.34c1.11-1.16,2.1-2.19,3-3s1.73-1.63,2.48-2.23l1.89-1.61,1.35-1.07c2.87-2.33-.08-.76-2-.16-1,.36.24-1.12,1.82-2.76S72.2,36.23,72,35.88a12,12,0,0,0-3,1.3c-.88.41-1.82,1-2.86,1.64-.51.32-1.06.62-1.58,1L63,40.87,61.46,42,60,43.08c-.92.74-1.82,1.38-2.49,2-1.39,1.2-2.29,1.91-2.19,1.67a21.51,21.51,0,0,1,2.12-3.24c.79-1,1.2-1.59,0-.66a56.41,56.41,0,0,0-8.81,9.48,74.1,74.1,0,0,0-7.55,12.52l-1,2.09c-.33.72-.6,1.48-.91,2.24s-.63,1.55-.91,2.37l-.83,2.53c-.3.86-.54,1.75-.78,2.67s-.5,1.85-.72,2.82c-.37,1.95-.84,4-1.07,6.11v.06a63.89,63.89,0,0,0-.59,10.87,66.34,66.34,0,0,0,.65,7.63c.37,2.55.89,5,1.48,7.43a125.83,125.83,0,0,0,4.4,14.21,116.58,116.58,0,0,0,6.05,13.63c2.29,4.3,4.86,8.93,8.91,12.8a28.16,28.16,0,0,0,6.8,4.72c1.19.6,2.38,1.13,3.55,1.62l1.75.7c.57.23,1.13.44,1.82.68a33.86,33.86,0,0,0,7.91,1.66c2.58.26,5,.32,7.4.44,1.17.06,2.32.13,3.44.23l1.73.18c.65.07,1.29.13,1.94.18a44.62,44.62,0,0,0,7.87-.11,34,34,0,0,0,15.2-5.22,38.07,38.07,0,0,0,11.07-11.44,51.66,51.66,0,0,0,6.2-14.2A94.55,94.55,0,0,0,135.2,117c.54-4.9.93-9.7,1.23-14.59a137.46,137.46,0,0,0-1-29.61,82.34,82.34,0,0,0-3.64-14.67,42.73,42.73,0,0,0-3.23-7.21,25.69,25.69,0,0,0-5.27-6.54,38.44,38.44,0,0,0-9-5.7,75.23,75.23,0,0,0-8-3.26,56.64,56.64,0,0,0-13.06-2.82,40.54,40.54,0,0,0-8.76.09,26.1,26.1,0,0,0-2.84.46,15.12,15.12,0,0,0-1.95.48C75.61,34.88,79.5,34.26,81.59,34.48Z"/><path d="M128.86,57.16c.09.15.59.21,1.1.25s1,0,1,.29-.63.8-1.29,1.22-1.39.69-1.38.89.84.54,1.73.63,1.78.06,1.79.28c.05.68-.83,1.42-.22,1.47a5.42,5.42,0,0,0,2.23-.74,21.7,21.7,0,0,0,4.68-3.4,71,71,0,0,0,5.87-5.84,31.2,31.2,0,0,0,4.85-7.39c2.53-5.41,3.34-11.17,3.62-16.61,0-.52.06-1,.06-1.55l0-2c0-4.11-.19-5.72-.46-6.28s-.67,0-1.24.26-1.79-1.1-2.55-1.07c-.52,0-1.31,3-1.73,2.83-.63-.19-1.05-1-1.29-.55s-.24,2.06-.34,6.54h0c0,.47,0,.94-.06,1.41C145,33,144.14,38.09,142,42.32a24.92,24.92,0,0,1-4.2,5.86c-.86.93-1.79,1.84-2.76,2.75s-2,1.84-2.88,2.58a16.42,16.42,0,0,1-2.72,1.85,3.68,3.68,0,0,0-1,.61C128.18,56.29,128.52,56.63,128.86,57.16Z"/><path d="M150.79,19.08c-.34,0-1.39,1.5-1.72,1.08s0-2.59-.39-2.7-2,1.49-2.36,1.22c-.53-.36-.73-1-1.05-.83s-.7,1.14-2.18,3.69a23.85,23.85,0,0,1-6.66,7.19A99.42,99.42,0,0,1,127,34.29l-.94.52-1.2.66-1.63.92c-.45.26-.85.51-1,.65-.4.27-.33.32-.31.46l.07.31,0,.18a3.12,3.12,0,0,0,.25.7,2.15,2.15,0,0,1,.11,1.23c-.06.48-.31,1-.32,1.33s.7.6,1.47.67,1.42.06,1.47.28c.18.63-.42,1.35.08,1.39a4,4,0,0,0,1.46-.47c.69-.32,1.71-.86,3.21-1.68h0l.94-.52c1.77-1,3.52-1.92,5.34-3a51.87,51.87,0,0,0,5.48-3.53,31.47,31.47,0,0,0,8.88-10.33c1.53-2.92,1.76-4.28,1.68-4.78S151.41,19.07,150.79,19.08Z"/><path d="M47.74,47.08c0-.34-1.59-1.85-1.08-2.07a4.74,4.74,0,0,1,1.72.26c.73.15,1.4.28,1.49.12s-.29-.85-.66-1.44-.7-1.19-.54-1.34c.48-.44,1.25-.45,1.09-.84-.08-.2-.4-.47-1.06-1s-1.7-1.26-3.14-2.5a41,41,0,0,1-8.21-9.9,61,61,0,0,1-5.47-12.08l-.4-1.21L31,13.52c-1-3.31-1.41-4.67-1.79-5.08s-.66.12-1.16.49-2-.56-2.69-.39c-.51.12-.69,2.93-1.12,2.92-.65,0-1.23-.64-1.38-.2s.09,1.94,1.41,6.13h0l.44,1.32a68.15,68.15,0,0,0,6.63,14.34A47.56,47.56,0,0,0,42,45.18a25,25,0,0,0,3.6,2.43,4.72,4.72,0,0,0,1.69.66C47.93,48.31,47.69,47.7,47.74,47.08Z"/><path d="M41.46,64.35c0-.36-2-2.25-1.47-2.41s3.76,1.34,4,1-2.18-3-1.79-3.3c.54-.39,1.53-.23,1.27-.7a6.94,6.94,0,0,0-1.51-1.33,47.17,47.17,0,0,1-4.09-3.35A17.21,17.21,0,0,1,33.54,48c-1-2.53-2-5.63-3-8.48A127.93,127.93,0,0,1,25.7,22.14c-.1-.55-.21-1.09-.29-1.64s-.23-1.39-.31-2.09c-.53-4.41-.57-6.18-.85-6.8s-.67-.06-1.24.26-1.77-1.31-2.52-1.33c-.26,0-.6.87-.93,1.75S19,14,18.75,14c-.64-.22-1.09-1.21-1.32-.68s-.39,2.65.51,8.42h0c.09.61.21,1.21.32,1.81A139.45,139.45,0,0,0,23.71,43l1.62,4.68a46.72,46.72,0,0,0,2,5,23.36,23.36,0,0,0,3.14,4.89,29.25,29.25,0,0,0,4,3.94A36.57,36.57,0,0,0,39,64.6a7.77,7.77,0,0,0,2,.95C41.72,65.68,41.43,65,41.46,64.35Z"/><path d="M77,131.61c-.3.11-.59.84-1.06.83s-1.08-.52-1.44-.41a3.27,3.27,0,0,0-.83.53,2.07,2.07,0,0,1-.79.4,8.34,8.34,0,0,0-1.27.22l-.14.08-.05,0h0l.17,0a8.74,8.74,0,0,1,1.3-.11,2.91,2.91,0,0,1,.43,0l.14,0h0l.51.17h0c-.2-.08-.24-.21-.12,0a.8.8,0,0,1,.1.44h0l0-.07h0l.07-.06a1.88,1.88,0,0,1,.62-.22,6.35,6.35,0,0,1,1.26-.1c.26,0,.56,0,.91,0,.1,0,0,0,.05,0s.05-.36.05-.34a5.93,5.93,0,0,1-1.85-.69l-.07,0,0,0-.38-.32h0l.09.09c0,.05,0,.07,0,0a.83.83,0,0,1,0-.53s0,0,0,0l.44-4.4h-.19a5.54,5.54,0,0,0-1.26.22,5,5,0,0,0-1.55.77,3.84,3.84,0,0,0-.43.36s-.11.11-.09.1h0l1.67,2h0l0,0,0,0,.14.15a3.2,3.2,0,0,1,.24.31c.07.09.16.26.18.28a.06.06,0,0,1,0,.08s0,0,0,0l0,0h.12a2.22,2.22,0,0,1,.47.06l.22.06.62.12,1.28.28.61.14.13,0h0s0,0,0,0a.51.51,0,0,0-.14-.14c-.22-.19-.65-.17-1.22-.28s-1.64-.68-2.37-.87a2.39,2.39,0,0,0-1,.07,1,1,0,0,0-.28.1s-.09,0-.15.15l-.07.14,0,.07,0,0a1.43,1.43,0,0,0,0,.3,1.85,1.85,0,0,0,2.15,1.59,2,2,0,0,0,.57-.19c.1,0,.06,0,.1,0h.1c.12,0,.2,0,.21.07a.78.78,0,0,1,0,.28,1.17,1.17,0,0,1,0,.15,2.48,2.48,0,0,1-1.47.46,2.73,2.73,0,0,1-.85-.15,2.44,2.44,0,0,1-.73-.39,2.81,2.81,0,0,1-1-1.73c0-.13,0-.34,0-.37l0,0,0-.08L71,131.2c-.09-.19-.14-.41-.23-.4s-.15-.09-.25.2a1.82,1.82,0,0,0-.07.23l0,.15v.08a3.55,3.55,0,0,0,.13,1,3.63,3.63,0,0,0,1.53,2.07,3.43,3.43,0,0,0,1.1.46,3.61,3.61,0,0,0,2.16-.17l.3-.14.19-.1.11-.06.23-.14.19-.13,0,0s.08,0,.08,0,0,0,0,.06a1.5,1.5,0,0,1-1.05.47h-.07l2.4-6.62a4.65,4.65,0,0,0-1.21-.77,4.74,4.74,0,0,0-2.17-.38,5.05,5.05,0,0,0-1.72.42,5.16,5.16,0,0,0-1.41.91,5.29,5.29,0,0,0-1,1.2,6.46,6.46,0,0,0-.76,2c-.06.27-.09.5-.12.69s-.06.43-.08.73a5.62,5.62,0,0,0,.39,2.61,4.66,4.66,0,0,0,1.43,1.87,4.57,4.57,0,0,0,2.49.95,4.71,4.71,0,0,0,2.2-.4,5.07,5.07,0,0,0,2.53-2.47c.07-.15.13-.31.19-.47l.11-.37a5.67,5.67,0,0,0,.14-.7,4.46,4.46,0,0,0-.21-2.21c-.14-.33-.27-.45-.42-.49S77.49,131.39,77,131.61Z"/><path d="M94,132.53c.23-.23.28-1,.74-1.14s1.21.24,1.52,0,.87-1.21,1.27-1.37c1.16-.54,1.47-.58,1.27-1.17l0-.09-3.24,1.54a.15.15,0,1,0,.21.06.15.15,0,1,0-.07.21l1.49-1.26a1.2,1.2,0,0,1,.48-.4c.28-.14.46-.12.29-.12h-.12l-.21,0c-.51-.17-.52-.3-.52-.27L97,128.3a7.4,7.4,0,0,1-.81-.91c-.27-.37-.5-.79-.73-1.09a1.47,1.47,0,0,0-1-.39c-.41-.05-.84,0-1-.15-.46-.43-.5-1-.83-1-.16,0-.44.18-.78.65A5.38,5.38,0,0,0,91,127.8h0a6.47,6.47,0,0,0-.06.73,7,7,0,0,0,.76,3.45,6.41,6.41,0,0,0,2.83,2.83l1.73.86,1.68-.88a4.91,4.91,0,1,0-4.68-8.62l-2.35,1.32.5,2.67a9.4,9.4,0,0,0,.31,1.19c.51,1.46,1,1.9,1.35,1.93S93.61,132.9,94,132.53Z"/><path d="M111.58,89.87a.46.46,0,0,0-.09.33.57.57,0,0,0,0,.19v.06l.07.17c0,.07,0,.13.06.2l.05.22a1.88,1.88,0,0,1,0,.35,1.71,1.71,0,0,1-.13.67,1.85,1.85,0,0,1-.16.3l-.09.13,0,0c-.06.06-.17.16-.13.1s0-.1,0-.16c0-.21-.13-.21-.24-.21a.86.86,0,0,1-.34,0,.73.73,0,0,1-.28-.25c0-.06-.12-.05-.07-.18l0,0a.56.56,0,0,0,0-.12.44.44,0,0,0,0-.24.33.33,0,0,0-.11-.17l-.16-.09c-.39-.17-.75-.35-.91-.25s-.31.64-.39,1.11c0,0,0,.13-.06.13s-.13.07.28-.18l.43-.25.15-.1a1,1,0,0,1,.23-.11c.1,0,.06,0,.1,0s0,0,0,0h0l-1.17-.87h0l0,0c.06-.1,0,0-.08,0a2.68,2.68,0,0,0-.3.23c-.34.3-.48.39-.58.33a1.21,1.21,0,0,1-.2-1.26,2.56,2.56,0,0,0,.06-.31s0-.1,0-.09l-.1,0c-.16.06.07-.32-.23-.06a3.59,3.59,0,0,0-.85,1.17,5.53,5.53,0,0,0-.42,1.32l-.06.3,0,.08,0,0h0l.21,0,.38.1a4.3,4.3,0,0,1,1,.38,2,2,0,0,1-.24-.23,2.47,2.47,0,0,1-.39-.67,2.15,2.15,0,0,1-.08-.26v-.16a1.29,1.29,0,0,1,0-.14h0l-.08,0a.69.69,0,0,1-.35-.3.73.73,0,0,1,.1-.48.83.83,0,0,1,.2-.26l0,0,0,0,.23-.14.8-.49.51-.31.55-.3c.25-.12.38-.17.4-.19s0,0,0-.05l-.06-.28c0-.17,0-.41-.07-.5a2.34,2.34,0,0,1,0-.35v-.27a2.06,2.06,0,0,1,0-.32.53.53,0,0,1,0-.13s0,0,0,0,0,0,0,0a3.25,3.25,0,0,1,.45-.77c.28-.35.73-.61,1-.9s.06-.77-.4-1.29-1.08-.83-1-1a1.76,1.76,0,0,1,.6-.74c.22-.19.39-.31.14-.49a3.38,3.38,0,0,0-2-.21,9.17,9.17,0,0,0-3.37,1.27h0l-.68.41-.81.49-.21.13-.39.25a8.64,8.64,0,0,0-.73.56,8.46,8.46,0,0,0-2.11,2.81,8.35,8.35,0,0,0-.79,3.43,7.82,7.82,0,0,0,.84,3.66,8.21,8.21,0,0,0,5.62,4.28,7.47,7.47,0,0,0,3.9-.22,6.66,6.66,0,0,0,2-1.05,6,6,0,0,0,1.67-2,6.56,6.56,0,0,0,.67-2.46c0-.18,0-.13,0-.16s0,0,0,0,0,0,0,.09l-.11.24-.11.2c-.05.1-.09.15-.17.26a2.67,2.67,0,0,1-.22.28l-.09.09.24-.3,0-.06.13-.2a3.77,3.77,0,0,0,.23-.43,3.72,3.72,0,0,0,.28-.92,3.75,3.75,0,0,0,0-1.44c0-.13-.1-.35-.1-.35a4.07,4.07,0,0,0-.21-.48l-.12-.22,0-.05-.14-.19-.07-.07a.49.49,0,0,0-.31-.15C112.22,89.07,112,89.45,111.58,89.87Z"/><path d="M71.7,91c-.09.15,0,.73,0,1.22s-.24.85-.48.78-.56-.53-1-.79-.81-.34-.93-.2-.22.64-.45.94a1.21,1.21,0,0,1-.72.52l-.42.1h0a1.6,1.6,0,0,1-.48.09,1.09,1.09,0,0,1-.3,0,1.18,1.18,0,0,1,.39.24,1.46,1.46,0,0,1,.16.16l.05.07,0,0v0h0l-.2-.37a.84.84,0,0,1-.08-.26,1.67,1.67,0,0,1,0-.48c0-.11,0-.09,0-.09h0l-.06,0h0l-.08.07-.17.13h0l.31-.19h0v0s0-.07,0-.12a2.89,2.89,0,0,1,.26-1.55,6.94,6.94,0,0,1,1.31-2.09c.1-.11.2-.2.29-.29a3.37,3.37,0,0,1,.35-.28c.35-.25.39-.2.37-.31l0-.18V88a.21.21,0,0,1,0,0,6,6,0,0,0,.09-1.19,3,3,0,0,1,.26-1.2c.17-.43.46-.85.56-1.21s-.27-.7-.76-1-1.07-.58-1.05-.79c0-.66.78-1.11.36-1.34a2.89,2.89,0,0,0-1.72.07,8.53,8.53,0,0,0-3.5,2h0c-.26.24-.52.49-.75.75a14.33,14.33,0,0,0-2.93,4.79,11.32,11.32,0,0,0-.67,3A8.73,8.73,0,0,0,60,95.41a8.26,8.26,0,0,0,.88,1.76,7.3,7.3,0,0,0,1.39,1.55,7.77,7.77,0,0,0,3.59,1.71,7.06,7.06,0,0,0,4.32-.52,6.63,6.63,0,0,0,3.25-3.34,6.46,6.46,0,0,0,.31-4.63,3.55,3.55,0,0,0-1.19-1.83C72,89.73,72.05,90.5,71.7,91Z"/><path d="M137.36,83c.28.25,2.8-.27,2.63.28s-3.06,2.17-2.94,2.52,3.58.12,3.6.55c0,.67-.69,1.38-.15,1.44s2.33-.49,7.23-2.61q7.07-3.08,13.88-6.74l4.18-2.25-3.12-3.57a39.85,39.85,0,0,0-8.22-7.29,29.25,29.25,0,0,0-5.09-2.64,24.31,24.31,0,0,0-5.7-1.49c-.65-.08-1.31-.14-2-.17a23.89,23.89,0,0,0-2.54,0,17.7,17.7,0,0,0-5.82,1.35,7.14,7.14,0,0,0-2.15,1.31c-.54.62.27.6.86,1,.33.2.2.74.09,1.34a2.41,2.41,0,0,0,0,1.51c.15.23,1,.07,1.8.06s1.56,0,1.57.26c0,.65-.45,1.31,0,1.39A5.69,5.69,0,0,0,137,69a16.29,16.29,0,0,1,4.33-.39h0c.44,0,.89.06,1.33.12a18.6,18.6,0,0,1,7.66,3A32.36,32.36,0,0,1,157,77.58L158,71.76q-7.43,4-15.2,7.28c-4,1.69-5.66,2.4-6.14,2.87S136.87,82.56,137.36,83Z"/><path d="M1.2,72.63c.18,0,.56-.37,1-.65s.81-.5.94-.27,0,.88-.11,1.52-.13,1.21,0,1.29.8-.23,1.32-.52,1.06-.52,1.21-.37c.46.45.55,1.06.91,1s.76-1,2.78-3a16.45,16.45,0,0,1,8.39-4.38,14,14,0,0,1,4.66-.11,35.92,35.92,0,0,1,5.18,1.32l1.1.33,1.47.42a18,18,0,0,0,3.76.66,4,4,0,0,0,1.69-.15c.53-.25.06-.67-.15-1.25s1-1.75,1-2.5c0-.27-.54-.6-1-1s-.9-.74-.83-.95c.22-.6.74-1,.51-1.23s-.4-.24-1-.41-1.6-.4-3.21-.88h0l-1-.32A38.46,38.46,0,0,0,23,59.58a22.06,22.06,0,0,0-7.53.38A23.91,23.91,0,0,0,2.81,67.42,15.56,15.56,0,0,0,.53,70.67,3.63,3.63,0,0,0,0,72.25C0,72.81.58,72.58,1.2,72.63Z"/><path d="M34.87,89.24C34.65,89,32.79,89,33,88.47c.08-.23.62-.6,1.1-1s.89-.74.83-.92-.69-.41-1.22-.59-1-.41-1-.63c0-.65.32-1.15,0-1.33a2,2,0,0,0-1-.06,23.37,23.37,0,0,1-2.77.07,23.13,23.13,0,0,1-9.13-2.61,34.9,34.9,0,0,1-8.22-5.71l-.68-.66L10,74.2c-1.73-1.88-2.41-2.67-2.84-2.8s-.56.37-.91.86-1.88.42-2.5.85c-.44.3.18,2.55-.18,2.73-.58.28-1.29,0-1.28.45S3,77.84,5.56,80.44h0l.83.8a42.15,42.15,0,0,0,10.69,7.28A29,29,0,0,0,30.2,91.63,15.21,15.21,0,0,0,34,91.07a3.61,3.61,0,0,0,1.45-.7C35.81,90,35.25,89.73,34.87,89.24Z"/></g></g></svg>