<svg xmlns="http://www.w3.org/2000/svg" viewBox="0 0 183.64 168.98"><defs><style>.cls-1{fill:#3acaac;}</style></defs><title>icoon-sustainable</title><g id="Layer_2" data-name="Layer 2"><g id="Layer_2-2" data-name="Layer 2"><path class="cls-1" d="M79.72,112.38A918.17,918.17,0,0,1,129.4,18.22l-79.69.64c.81,36.45-11.17,71.54-13.29,107.76-.13,2.17,12.45,3.1,11.7,3a233.24,233.24,0,0,0,28.19,1.06c9.37-.12,18.86-.26,28.16-1.52,2.29-.31,10.91-.47,11.65-3.21A431.66,431.66,0,0,1,152.58,34.2l-79.69.64A1278.77,1278.77,0,0,1,41.26,165.28c-.94,3.15,33.65,4,34.58,4,14.34.1,29.79.49,43.69-3.51,8.8-2.53,14.92-9.85,19.37-17.5,5.44-9.35,9.85-19.38,14.66-29.06l30.08-60.62L104,59.29l-.14,3.78c-.08,2.19,12.39,3.1,11.7,3a233.24,233.24,0,0,0,28.19,1.06c9.37-.12,18.86-.26,28.16-1.52,1.83-.25,11.55-.75,11.65-3.21l.14-3.78c.08-2.19-12.39-3.1-11.7-3a233.24,233.24,0,0,0-28.19-1.06c-9.37.12-18.86.26-28.16,1.52-2.78.38-10.22.33-11.65,3.21l-27,54.47q-6.54,13.18-13.08,26.36c-3.83,7.71-7.79,15.49-14.5,21.11L50.76,160a24.53,24.53,0,0,1-8.09,4.06l78.28.54A1278.77,1278.77,0,0,0,152.58,34.2c.74-3.94-36.73-4.13-39.88-4.09-9.37.12-18.86.26-28.16,1.52-2.86.39-10.1.32-11.65,3.21a431.66,431.66,0,0,0-36.47,91.78l79.69-.64c2.12-36.21,14.1-71.3,13.29-107.76,0-2.24-12.2-3.08-11.7-3a233.24,233.24,0,0,0-28.19-1.06c-9.37.12-18.86.26-28.16,1.52-3,.41-9.9.32-11.65,3.21A918.17,918.17,0,0,0,0,113c-.81,1.77,13.45,3.21,11.7,3a233.24,233.24,0,0,0,28.19,1.06c9.37-.12,18.86-.26,28.16-1.52,2.69-.36,10.34-.35,11.65-3.21Z" transform="translate(0 -0.41)"/></g><g id="Layer_1-2" data-name="Layer 1"><path d="M43.45,5.56a18.94,18.94,0,0,0,1.32,2.62c.79,1.3,1.74,3,2.73,4.48l2.54,3.93c.62,1,.87,1.45.45,1.1a15,15,0,0,1-1.1-1.1c-.49-.55-1.09-1.27-1.77-2.09-1.39-1.62-2.95-3.75-4.49-5.82L39.24,2.9A15.28,15.28,0,0,0,37.37.41c-.23.13,2,4.5,4.26,8.79C42.84,11.29,44,13.4,45,14.87s1.45,2.42,1.23,2.31a21.13,21.13,0,0,1-2.76-2.4c-.85-.84-1.35-1.3-.65,0A93.13,93.13,0,0,0,50,24.42c2.26,2.75,5.21,6.09,9,10.12s8.44,8.66,14,14.14c6.17,6.11,12.25,12.22,17.92,18.61a101.16,101.16,0,0,1,7.81,9.79,31.85,31.85,0,0,1,2.81,5.11,23.94,23.94,0,0,1,1.59,5.42,44.43,44.43,0,0,1,.6,6c.09,2.06.07,4.12,0,6.17a67.31,67.31,0,0,1-1.75,12.2,27.25,27.25,0,0,1-4.51,10.44,32.38,32.38,0,0,1-4,4.2c-1.55,1.37-3.23,2.85-4.8,4.13-3.17,2.6-6.4,4.63-9.65,5.11a17.31,17.31,0,0,1-5.33-.11,41,41,0,0,1-5.74-1.41c-7.54-2.45-14.4-7.23-18.56-13.7a34.36,34.36,0,0,1-4.41-10.87c-1-4-1.64-8.28-2.31-12.48a241.29,241.29,0,0,1-2.36-25.57L40,66.82l-.08-4.87q-.06-6.21.08-12.43c.31-13.15,1-22.44,1.32-28.89s.58-10.08.58-11.94c0-3.73-.65-.39-1.35,1.39-.81,2-1.18-7.71-1.93-7.77-.54,0-2.85,19.46-3.18,18.53-.53-1.39-.56-6.76-1-4-.22,1.39-.56,4.81-1,11.8s-1.14,17.57-1,33.33V62l.08,5,.18,5A242.59,242.59,0,0,0,35.3,99.94c.4,2.32.76,4.63,1.2,6.94s1,4.69,1.65,7.06A43.43,43.43,0,0,0,40.82,121a37.94,37.94,0,0,0,4.11,6.53,41.18,41.18,0,0,0,11.48,9.87,48.13,48.13,0,0,0,6.77,3.27,51.47,51.47,0,0,0,7.2,2.13,28.92,28.92,0,0,0,7.9.68,21.25,21.25,0,0,0,8-2.24A36.83,36.83,0,0,0,92.77,137c1-.76,1.88-1.54,2.77-2.31l2.65-2.32a40.43,40.43,0,0,0,5.27-5.5,29.18,29.18,0,0,0,3.85-6.92,47.78,47.78,0,0,0,2.17-7.18c.53-2.37,1-4.76,1.25-7.17a74.63,74.63,0,0,0,.39-14.55,42,42,0,0,0-1.17-7.5,32.6,32.6,0,0,0-2.88-7.25,68,68,0,0,0-8.59-11.81c-3-3.6-6.24-7-9.45-10.39C82.56,47.42,75.9,41,69.48,34.51c-4.63-4.68-8.42-8.75-11.55-12.28s-5.54-6.54-7.43-9.06-3.3-4.53-4.42-6.06-1.8-2.73-2.34-3.47C41.61.65,43,3.7,43.45,5.56Z" transform="translate(0 -0.41)"/><path d="M112.54,98.89a6.15,6.15,0,0,0,3.25-.33c1.5-.43,2.84-1.11,2.56-.65a11,11,0,0,1-4.54,2.7,8.8,8.8,0,0,1-3.2.39c-.89-.06-1.47-.24-1.52-.13s.45.52,1.36.85a8.8,8.8,0,0,0,3.48.46c2.58-.15,4.83-1.18,4.73-.86a5.13,5.13,0,0,1-1.36,1.53c-.52.44-.83.72,0,.55a17.38,17.38,0,0,0,5.7-3.07c.72-.55,1.46-1.17,2.33-1.87S127.08,96.93,128,96a57.5,57.5,0,0,0,6.42-7.49c7.12-9.84,11.35-21.31,13.79-32.8s3.26-23.14,4.07-34.52l.39-5.45-5.24,1.55a89.52,89.52,0,0,0-27.28,13.57c-1.32.92-2.56,1.94-3.82,2.94-.81.62-1.57,1.32-2.34,2s-1.55,1.34-2.28,2.06a80.52,80.52,0,0,0-9.52,10.56A34,34,0,0,0,99,53.26c-.78,1.66.47.51,1.43.1s-.53,4,.13,4.39c.23.14,1.74-1.6,3.28-3.22.79-.8,1.56-1.58,2.14-2.13s1-.82,1-.68c.08.85-1,3.05-.06,2.18.46-.44,1.47-1.6,3.51-4l1.78-2,2.31-2.38c.85-.88,1.85-1.77,2.91-2.8s2.3-2.05,3.66-3.15l0,0c1.16-.91,2.29-1.86,3.5-2.7a82,82,0,0,1,25-12.42l-4.85-3.9C143.9,33,143,45.17,140.22,56.84a85.22,85.22,0,0,1-5.8,16.8,61.23,61.23,0,0,1-9.52,14.63,48.21,48.21,0,0,1-5.32,5.19,22.66,22.66,0,0,1-3.92,2.83A12.29,12.29,0,0,1,112,97.67C111,97.87,111.8,98.38,112.54,98.89Z" transform="translate(0 -0.41)"/><path d="M126.23,57.39c-.34,0-1.15,1.27-1.53.93s-.35-2.17-.71-2.26-1.8,1.3-2.17,1.1c-.57-.29-.84-.83-1.14-.68-.15.08-.31.33-.54.85l-1,2.54A39.28,39.28,0,0,1,109.54,74l-.59.55-.78.67-.62.54c-.26.23-.51.46-.75.7A7.38,7.38,0,0,0,105.61,78a5.16,5.16,0,0,0-.59,1.73,3.29,3.29,0,0,0,0,1.26c.35,1.12.63,0,1.25-.36.34-.19.73.28,1.22.54a1.52,1.52,0,0,0,1.37.14,2.82,2.82,0,0,0,.37-.29.9.9,0,0,1,.49-.17,1.52,1.52,0,0,1,.87.15,2.59,2.59,0,0,0,.68.4,1.17,1.17,0,0,1,.46.2c.09.11.07.28.23.17l.52-.4c.42-.34.91-.75,1.49-1.26h0l.71-.66a46.92,46.92,0,0,0,11.91-18c.89-2.46,1-3.54.86-4S126.84,57.37,126.23,57.39Z" transform="translate(0 -0.41)"/><path d="M89.06,137.34c.13-.38-1.46-3.44-.8-3.3s3.52,3.46,3.82,3.24-1.33-4.35-.87-4.42c.69-.11,1.69.62,1.55,0a11.93,11.93,0,0,0-1.22-2.28l-3.78-6.12A175.76,175.76,0,0,1,69.55,83c-.2-.69-.42-1.37-.59-2.06l-.71-2.64c-1.44-5.59-2-7.88-2.42-8.62s-.67.06-1.15.57S62.59,69,61.85,69.12c-.51.09-.44,4.57-.89,4.47-.68-.16-1.33-1.25-1.44-.58a9.46,9.46,0,0,0,.33,2.67c.31,1.55.84,3.88,1.79,7.29h0c.19.72.41,1.44.62,2.15a183.55,183.55,0,0,0,20.49,45.66c3.22,5.1,4.78,7,5.46,7.55S88.82,138,89.06,137.34Z" transform="translate(0 -0.41)"/></g></g></svg>