<svg xmlns="http://www.w3.org/2000/svg" viewBox="0 0 396.44 121.49"><defs><style>.cls-1{fill:#3acaac;}</style></defs><title>icoon-sustainable-mobile</title><g id="Layer_2" data-name="Layer 2"><g id="Layer_2-2" data-name="Layer 2"><path class="cls-1" d="M381,59.68c-1.49-.48-12,1.11-21.38,2.86s-17.88,3.37-15.58,1.37,15.47-7.52,28.33-12.07l9.36-3.24,8.07-2.73c4.7-1.57,7.76-2.76,7.66-3.23-.14-.66-3.46-.73-8.38-.51-2.45.13-5.29.38-8.33.65s-6.25.69-9.46,1c-12.81,1.53-25.29,3.84-24.47,2.44C349.32,42,362.74,36,355.1,36.89a77.51,77.51,0,0,0-10.18,2.22c-5,1.32-11.85,3.38-20.9,6.45s-20.27,7.31-34,13.34c-6.84,3-14.29,6.5-22.36,10.56l-6.15,3.18-6.17,3.26a94,94,0,0,1-11,5.18,27.59,27.59,0,0,1-8,1.84l14.56,33.34Q284,84,319.59,54.32a19.44,19.44,0,0,0-16.67-33.91c-28.71,6.38-55.77,16.51-81.67,27.19-13,5.36-25.63,10.8-38.35,16.18L144.77,80l18.92,33.7,77.24-55.36h0a19.44,19.44,0,0,0-15.32-34.83A532.29,532.29,0,0,0,72.09,81l25.07,28.69q6.33-8.23,13.66-16.14c5.51-6,11.38-11.83,17.46-17.68,4.94-4.76,10-9.51,15.17-14.32a19.44,19.44,0,0,0-19.31-32.69L112.78,32.6C-20.28,76,5.14,70.3,16.16,72.92c6.24,1.48-16.24,14.82-15,18.51C2,94,52.49,82.14,50.86,84.93c-4.51,7.92-46.42,23.7,85.34-19.09L116.92,33.18c-3.65,3.4-9.36,8.71-15.49,14.6l-.11.1c-6.41,6.18-12.82,12.56-19.07,19.33-5.53,6-10.89,12.27-16,18.93a19.43,19.43,0,0,0,25,28.74l.08-.05a493.5,493.5,0,0,1,142.27-53.3L218.28,26.7,141,82.05A19.44,19.44,0,0,0,160,115.76l38.12-16.18c12.71-5.38,25.43-10.84,38-16,25.1-10.36,50-19.58,75.28-25.18L294.67,24.46Q258,55.06,223.75,88.41l-.05.05a19.42,19.42,0,0,0,14.62,33.29,64.47,64.47,0,0,0,16.52-3.16A98.88,98.88,0,0,0,268.3,113c2-1,3.89-2,5.71-2.94l5.16-2.73c3.32-1.74,6.65-3.47,10-5.12,7.51-3.72,14.56-7,21.15-9.84s12.72-5.35,18.38-7.59c11.33-4.42,20.82-7.67,28.62-10.26C373,69.33,381.85,66.8,386.28,65,395.19,61.51,386.36,61.37,381,59.68Z" transform="translate(-1.07 -0.29)"/></g><g id="Layer_1-2" data-name="Layer 1"><path d="M164.78,3.93a13.39,13.39,0,0,0,.93,1.85c.56.92,1.23,2.09,1.93,3.16,1.38,2.16,2.71,4.05,2.11,3.55a53.85,53.85,0,0,1-5.2-6.37L161.8,2.05A10.8,10.8,0,0,0,160.48.29c-.16.09,1.44,3.18,3,6.21s3.53,5.8,3.22,5.63a14.93,14.93,0,0,1-1.95-1.7c-.6-.6-1-.92-.46,0a65.8,65.8,0,0,0,5.09,6.85c1.6,1.94,3.68,4.31,6.35,7.15s6,6.12,9.87,10c4.36,4.32,8.66,8.63,12.66,13.15s7.83,9.07,8.63,14.35a41,41,0,0,1,.41,8.59,47.55,47.55,0,0,1-1.24,8.62,19.25,19.25,0,0,1-3.19,7.37,22.87,22.87,0,0,1-2.85,3c-1.09,1-2.28,2-3.39,2.92-2.24,1.84-4.52,3.27-6.82,3.61s-5.15-.24-7.82-1.08a24.64,24.64,0,0,1-13.11-9.68c-3-4.46-3.77-10.54-4.75-16.5a170.47,170.47,0,0,1-1.67-18.06l-.12-3.44-.05-3.44q0-4.39.06-8.78c.22-9.29.68-15.85.93-20.41s.41-7.12.41-8.44c0-2.63-.46-.28-1,1-.57,1.43-.83-5.45-1.36-5.49s-2,13.75-2.25,13.09c-.38-1-.4-4.78-.71-2.82-.16,1-.4,3.39-.74,8.33s-.8,12.41-.73,23.55v0l.06,3.52.13,3.53A171.39,171.39,0,0,0,159,70.61a88.49,88.49,0,0,0,2,9.89,30.69,30.69,0,0,0,1.88,5,26.8,26.8,0,0,0,2.91,4.61,31.3,31.3,0,0,0,18,10.79,20.43,20.43,0,0,0,5.58.48,15,15,0,0,0,5.68-1.58,26,26,0,0,0,4.55-3c1.37-1.1,2.57-2.15,3.83-3.27a28.57,28.57,0,0,0,3.72-3.89,20.61,20.61,0,0,0,2.72-4.89,43,43,0,0,0,2.41-10.14,52.73,52.73,0,0,0,.27-10.28,29.7,29.7,0,0,0-.83-5.3,23,23,0,0,0-2-5.12,48.06,48.06,0,0,0-6.07-8.34c-2.15-2.54-4.41-5-6.68-7.34-4.57-4.75-9.27-9.27-13.81-13.87-3.27-3.31-6-6.18-8.16-8.68s-3.91-4.62-5.25-6.4S167.43,6.1,166.64,5,165.37,3.09,165,2.57C163.48.46,164.46,2.61,164.78,3.93Z" transform="translate(-1.07 -0.29)"/><path d="M213.59,69.87a4.34,4.34,0,0,0,2.29-.23c1.06-.31,2-.79,1.81-.46a7.73,7.73,0,0,1-3.21,1.91,6.22,6.22,0,0,1-2.26.27c-.63,0-1-.17-1.07-.09s.32.37,1,.6a6.22,6.22,0,0,0,2.46.32c1.82-.1,3.41-.83,3.34-.6a3.63,3.63,0,0,1-1,1.08c-.37.31-.59.51,0,.39a12.28,12.28,0,0,0,4-2.17c.51-.39,1-.83,1.65-1.32s1.25-1.09,1.93-1.78a40.63,40.63,0,0,0,4.54-5.29c5-7,8-15.05,9.74-23.17S241.13,23,241.7,14.93l.27-3.85-3.7,1.1A63.25,63.25,0,0,0,219,21.77c-.93.65-1.81,1.37-2.7,2.08-.57.44-1.11.93-1.66,1.4s-1.1.94-1.61,1.45a56.89,56.89,0,0,0-6.73,7.46A24,24,0,0,0,204,37.63c-.55,1.17.33.36,1,.07s-.37,2.83.09,3.1c.17.1,1.23-1.13,2.32-2.28C208,38,208.56,37.4,209,37s.71-.58.72-.48c.06.6-.7,2.16,0,1.54.32-.31,1-1.13,2.48-2.8l1.25-1.39L215,32.2c.6-.62,1.31-1.25,2.06-2s1.62-1.45,2.58-2.22h0c.82-.65,1.62-1.31,2.48-1.91a57.91,57.91,0,0,1,17.64-8.77l-3.42-2.75c-.61,8.72-1.24,17.36-3.22,25.6s-5.37,16.08-10.82,22.21A34.05,34.05,0,0,1,218.56,66a16,16,0,0,1-2.77,2,8.68,8.68,0,0,1-2.58,1C212.51,69.15,213.07,69.51,213.59,69.87Z" transform="translate(-1.07 -0.29)"/><path d="M223.27,40.54c-.24,0-.81.9-1.08.66s-.25-1.53-.5-1.59-1.27.92-1.54.77-.59-.59-.81-.48-.43.71-1.08,2.4a27.75,27.75,0,0,1-6.79,10l-.42.39-.55.48-.44.38c-.19.16-.36.32-.53.5a5.21,5.21,0,0,0-.84,1.13,3.12,3.12,0,0,0-.39,2.11c.25.79.45,0,.89-.25.24-.14.52.2.86.38a1.08,1.08,0,0,0,1,.1c.16-.09.35-.34.61-.33a1.07,1.07,0,0,1,.61.11c.35.3.66.3.8.42s0,.2.16.12l.37-.28c.29-.24.65-.53,1.05-.89h0l.5-.47a33.15,33.15,0,0,0,8.41-12.7c.63-1.74.71-2.5.61-2.79S223.69,40.53,223.27,40.54Z" transform="translate(-1.07 -0.29)"/><path d="M197,97c.09-.27-1-2.43-.56-2.33s2.48,2.45,2.7,2.29-.94-3.08-.61-3.12c.49-.08,1.19.44,1.09,0s-1-1.84-3.53-5.93a124.18,124.18,0,0,1-12.87-29.29c-.14-.48-.29-1-.42-1.46l-.5-1.86c-1-3.95-1.4-5.57-1.71-6.09s-.48,0-.81.41-1.47-.9-2-.8c-.36.07-.31,3.23-.63,3.16-.48-.11-.94-.89-1-.41s.18,2.21,1.5,7h0c.13.51.29,1,.44,1.52A129.28,129.28,0,0,0,192.56,92.4c2.27,3.6,3.37,4.95,3.86,5.33S196.84,97.51,197,97Z" transform="translate(-1.07 -0.29)"/></g></g></svg>