<?xml version="1.0" encoding="utf-8"?>
<!-- Generator: Adobe Illustrator 21.0.0, SVG Export Plug-In . SVG Version: 6.00 Build 0)  -->
<svg version="1.1" id="Layer_1" xmlns="http://www.w3.org/2000/svg" xmlns:xlink="http://www.w3.org/1999/xlink" x="0px" y="0px"
	 viewBox="0 0 183.6 169" style="enable-background:new 0 0 183.6 169;" xml:space="preserve">
<style type="text/css">
	.st0{fill:#E9FDFF;}
</style>
<title>icoon-sustainable</title>
<g id="Layer_2">
	<g id="Layer_2-2">
		<path class="st0" d="M79.7,112c14.7-32.3,31.3-63.8,49.7-94.2l-79.7,0.6C50.5,54.9,38.5,90,36.4,126.2c-0.1,2.2,12.5,3.1,11.7,3
			c9.4,0.9,18.8,1.3,28.2,1.1c9.4-0.1,18.9-0.3,28.2-1.5c2.3-0.3,10.9-0.5,11.7-3.2c8.6-31.9,20.8-62.7,36.5-91.7l-79.7,0.6
			c-8.3,44-18.8,87.5-31.6,130.4c-0.9,3.1,33.7,4,34.6,4c14.3,0.1,29.8,0.5,43.7-3.5c8.8-2.5,14.9-9.9,19.4-17.5
			c5.4-9.4,9.9-19.4,14.7-29.1l30.1-60.6L104,58.9l-0.1,3.8c-0.1,2.2,12.4,3.1,11.7,3c9.4,0.9,18.8,1.3,28.2,1.1
			c9.4-0.1,18.9-0.3,28.2-1.5c1.8-0.2,11.6-0.8,11.6-3.2l0.1-3.8c0.1-2.2-12.4-3.1-11.7-3c-9.4-0.9-18.8-1.3-28.2-1.1
			c-9.4,0.1-18.9,0.3-28.2,1.5c-2.8,0.4-10.2,0.3-11.7,3.2l-27,54.5c-4.4,8.8-8.7,17.6-13.1,26.4c-3.8,7.7-7.8,15.5-14.5,21.1
			l1.3-1.2c-2.4,1.8-5.2,3.2-8.1,4.1l78.3,0.5c12.8-42.9,23.4-86.4,31.6-130.4c0.7-3.9-36.7-4.1-39.9-4.1
			c-9.4,0.1-18.9,0.3-28.2,1.5c-2.9,0.4-10.1,0.3-11.7,3.2C57.3,63.5,45,94.3,36.4,126.2l79.7-0.6c2.1-36.2,14.1-71.3,13.3-107.8
			c0-2.2-12.2-3.1-11.7-3c-9.4-0.9-18.8-1.3-28.2-1.1c-9.4,0.1-18.9,0.3-28.2,1.5c-3,0.4-9.9,0.3-11.6,3.2
			C31.3,48.9,14.7,80.3,0,112.6c-0.8,1.8,13.4,3.2,11.7,3c9.4,0.9,18.8,1.3,28.2,1.1c9.4-0.1,18.9-0.3,28.2-1.5
			C70.7,114.8,78.4,114.8,79.7,112L79.7,112z"/>
	</g>
	<g id="Layer_1-2">
		<path d="M43.5,5.2c0.4,0.9,0.8,1.8,1.3,2.6c0.8,1.3,1.7,3,2.7,4.5l2.5,3.9c0.6,1,0.9,1.5,0.5,1.1c-0.4-0.3-0.8-0.7-1.1-1.1
			c-0.5-0.5-1.1-1.3-1.8-2.1c-1.4-1.6-3-3.8-4.5-5.8l-3.9-5.8c-0.5-0.9-1.2-1.7-1.9-2.5c-0.2,0.1,2,4.5,4.3,8.8
			c1.2,2.1,2.4,4.2,3.4,5.7s1.5,2.4,1.2,2.3c-1-0.7-1.9-1.5-2.8-2.4c-0.8-0.8-1.3-1.3-0.7,0C45,17.7,47.4,21,50,24
			c2.3,2.8,5.2,6.1,9,10.1s8.4,8.7,14,14.1c6.2,6.1,12.2,12.2,17.9,18.6c2.8,3.1,5.4,6.4,7.8,9.8c1.1,1.6,2,3.3,2.8,5.1
			c0.7,1.7,1.3,3.6,1.6,5.4c0.3,2,0.5,4,0.6,6c0.1,2.1,0.1,4.1,0,6.2c-0.2,4.1-0.8,8.2-1.8,12.2c-0.8,3.8-2.3,7.3-4.5,10.4
			c-1.2,1.5-2.5,2.9-4,4.2c-1.6,1.4-3.2,2.9-4.8,4.1c-3.2,2.6-6.4,4.6-9.7,5.1c-1.8,0.2-3.6,0.2-5.3-0.1c-1.9-0.3-3.9-0.8-5.7-1.4
			c-7.5-2.4-14.4-7.2-18.6-13.7c-2.1-3.3-3.6-7-4.4-10.9c-1-4-1.6-8.3-2.3-12.5c-1.2-8.5-2-17-2.4-25.6L40,66.4l-0.1-4.9
			c0-4.1,0-8.3,0.1-12.4c0.3-13.1,1-22.4,1.3-28.9s0.6-10.1,0.6-11.9c0-3.7-0.7-0.4-1.3,1.4c-0.8,2-1.2-7.7-1.9-7.8
			c-0.5,0-2.8,19.5-3.2,18.5c-0.5-1.4-0.6-6.8-1-4c-0.2,1.4-0.6,4.8-1,11.8s-1.1,17.6-1,33.3v0l0.1,5l0.2,5
			c0.3,9.4,1.2,18.7,2.6,27.9c0.4,2.3,0.8,4.6,1.2,6.9s1,4.7,1.7,7.1c0.7,2.4,1.6,4.8,2.7,7.1c1.1,2.3,2.5,4.5,4.1,6.5
			c3.2,4,7.1,7.3,11.5,9.9c2.2,1.3,4.4,2.4,6.8,3.3c2.3,0.9,4.8,1.6,7.2,2.1c2.6,0.6,5.2,0.8,7.9,0.7c2.8-0.2,5.5-1,8-2.2
			c2.3-1.2,4.5-2.6,6.5-4.2c1-0.8,1.9-1.5,2.8-2.3l2.7-2.3c1.9-1.7,3.7-3.5,5.3-5.5c1.6-2.1,2.9-4.4,3.8-6.9
			c0.9-2.3,1.6-4.7,2.2-7.2c0.5-2.4,1-4.8,1.2-7.2c0.6-4.8,0.7-9.7,0.4-14.6c-0.2-2.5-0.6-5-1.2-7.5c-0.7-2.5-1.6-5-2.9-7.2
			c-2.4-4.2-5.3-8.2-8.6-11.8c-3-3.6-6.2-7-9.4-10.4C82.6,47,75.9,40.6,69.5,34.1c-4.6-4.7-8.4-8.8-11.5-12.3s-5.5-6.5-7.4-9.1
			s-3.3-4.5-4.4-6.1S44.3,4,43.7,3.2C41.6,0.2,43,3.3,43.5,5.2z"/>
		<path d="M112.5,98.5c1.1,0.2,2.2,0.1,3.2-0.3c1.5-0.4,2.8-1.1,2.6-0.7c-1.3,1.3-2.8,2.2-4.5,2.7c-1,0.3-2.1,0.5-3.2,0.4
			c-0.9-0.1-1.5-0.2-1.5-0.1s0.4,0.5,1.4,0.8c1.1,0.4,2.3,0.5,3.5,0.5c2.6-0.2,4.8-1.2,4.7-0.9c-0.3,0.6-0.8,1.1-1.4,1.5
			c-0.5,0.4-0.8,0.7,0,0.6c2.1-0.7,4-1.7,5.7-3.1c0.7-0.6,1.5-1.2,2.3-1.9s1.7-1.5,2.7-2.5c2.4-2.3,4.5-4.8,6.4-7.5
			c7.1-9.8,11.4-21.3,13.8-32.8s3.3-23.1,4.1-34.5l0.4-5.4l-5.2,1.6c-9.8,2.9-19,7.5-27.3,13.6c-1.3,0.9-2.6,1.9-3.8,2.9
			c-0.8,0.6-1.6,1.3-2.3,2s-1.6,1.3-2.3,2.1c-3.5,3.2-6.7,6.8-9.5,10.6c-1.2,1.5-2.3,3.1-3.2,4.8c-0.8,1.7,0.5,0.5,1.4,0.1
			s-0.5,4,0.1,4.4c0.2,0.1,1.7-1.6,3.3-3.2c0.8-0.8,1.6-1.6,2.1-2.1s1-0.8,1-0.7c0.1,0.8-1,3-0.1,2.2c0.5-0.4,1.5-1.6,3.5-4l1.8-2
			l2.3-2.4c0.8-0.9,1.8-1.8,2.9-2.8s2.3-2,3.7-3.2l0,0c1.2-0.9,2.3-1.9,3.5-2.7c7.6-5.5,16-9.7,25-12.4l-4.9-3.9
			c-0.8,12.5-1.7,24.6-4.5,36.3c-1.3,5.8-3.3,11.4-5.8,16.8c-2.5,5.3-5.7,10.2-9.5,14.6c-1.6,1.9-3.4,3.6-5.3,5.2
			c-1.2,1.1-2.5,2-3.9,2.8c-1.1,0.7-2.4,1.1-3.7,1.4C111,97.5,111.8,98,112.5,98.5z"/>
		<path d="M126.2,57c-0.3,0-1.2,1.3-1.5,0.9s-0.3-2.2-0.7-2.3s-1.8,1.3-2.2,1.1c-0.6-0.3-0.8-0.8-1.1-0.7c-0.2,0.1-0.3,0.3-0.5,0.8
			l-1,2.5c-2.1,5.4-5.4,10.2-9.6,14.1l-0.6,0.6l-0.8,0.7l-0.6,0.5c-0.3,0.2-0.5,0.5-0.8,0.7c-0.5,0.5-0.9,1-1.2,1.5
			c-0.3,0.5-0.5,1.1-0.6,1.7c-0.1,0.4-0.1,0.8,0,1.3c0.3,1.1,0.6,0,1.2-0.4c0.3-0.2,0.7,0.3,1.2,0.5c0.4,0.3,0.9,0.3,1.4,0.1
			c0.1-0.1,0.3-0.2,0.4-0.3c0.1-0.1,0.3-0.2,0.5-0.2c0.3,0,0.6,0,0.9,0.2c0.2,0.2,0.4,0.3,0.7,0.4c0.2,0,0.3,0.1,0.5,0.2
			c0.1,0.1,0.1,0.3,0.2,0.2l0.5-0.4c0.4-0.3,0.9-0.8,1.5-1.3l0,0l0.7-0.7c5.3-5,9.4-11.2,11.9-18c0.9-2.5,1-3.5,0.9-4
			S126.8,57,126.2,57z"/>
		<path d="M89.1,136.9c0.1-0.4-1.5-3.4-0.8-3.3s3.5,3.5,3.8,3.2s-1.3-4.4-0.9-4.4c0.7-0.1,1.7,0.6,1.6,0c-0.3-0.8-0.7-1.6-1.2-2.3
			l-3.8-6.1c-7.8-13-14-26.9-18.2-41.5c-0.2-0.7-0.4-1.4-0.6-2.1l-0.7-2.6c-1.4-5.6-2-7.9-2.4-8.6s-0.7,0.1-1.2,0.6
			s-2.1-1.2-2.8-1.1c-0.5,0.1-0.4,4.6-0.9,4.5c-0.7-0.2-1.3-1.2-1.4-0.6c0,0.9,0.1,1.8,0.3,2.7c0.3,1.6,0.8,3.9,1.8,7.3l0,0
			c0.2,0.7,0.4,1.4,0.6,2.2c4.7,16.1,11.6,31.4,20.5,45.7c3.2,5.1,4.8,7,5.5,7.6S88.8,137.6,89.1,136.9z"/>
	</g>
</g>
</svg>
