<svg xmlns="http://www.w3.org/2000/svg" viewBox="0 0 195.63 159.07"><defs><style>.cls-1{fill:#e5fcff;}</style></defs><title>icoon-fair</title><g id="Layer_2" data-name="Layer 2"><g id="Layer_1-2" data-name="Layer 1"><path class="cls-1" d="M154.52,132.57a786.77,786.77,0,0,0,41.1-103.12c.5-1.56-13.8,1.68-11.68,1.17a245.07,245.07,0,0,0-26.3,8.14,245.51,245.51,0,0,0-25.52,10.34c-3.33,1.65-7.81,3.19-9.78,6.49q-2,3.39-4.18,6.71l1-1.47a218.46,218.46,0,0,1-34.33,40.34,242.43,242.43,0,0,1-43.62,32.09l69-22.47c-1.13-4.12.09-7.18,2.35-10.66l-1,1.47c5.07-6.87,10.78-13,15.5-20.22,5.48-8.31,10.55-16.87,15.39-25.56A501.92,501.92,0,0,0,166,8.58a7.11,7.11,0,0,0-5.68-.11,132.72,132.72,0,0,0-13.63,3.34,315.68,315.68,0,0,0-37,13.2c-13.4,5.74-26.08,12.44-37.48,21.57A269.68,269.68,0,0,0,47.7,69.5C40,77.44,32.46,85.57,24.57,93.34c-3.67,3.61-7.41,7.15-11.32,10.49-1.83,1.57-3.69,3.09-5.61,4.55-1,.76-2,1.48-3,2.24-2.64,2,2.31-1.41-.68.47l68-21C79.62,79.23,82.4,66.26,89.26,55l-1,1.47c5.41-8.2,12.4-15,17.19-23.71,4.48-8.11,7-16.92,6.13-26.21-.29-3.23-35.22,8.32-38,9.32A245.51,245.51,0,0,0,48.14,26.21c-1.9.94-10,3.91-9.78,6.49,1,11.49-3.12,21.9-9.28,31.4l1-1.47c-5.51,8.11-12.59,14.89-17,23.77C9,94.75,6.52,103.73,1.66,111.73l1-1.47q-1,1.56-2.08,3c-2.17,3.05,2.76,1.9,4.73,1.58a139.18,139.18,0,0,0,18.07-4.72c8.06-2.49,16.08-5.22,23.92-8.32C54.38,99,62,96.4,68.54,92.3c17.78-11.19,31.84-26.56,46.28-41.61,7.33-7.63,14.72-15.23,22.67-22.22a148.53,148.53,0,0,1,11.64-9.34c.31-.22,3.39-2.32,1.68-1.2s1.37-.83,1.7-1A36.31,36.31,0,0,0,155.91,15l-3.18,1.64q4.15-2-3.77,1.68L92.68,34.72A465,465,0,0,1,55.38,105l1-1.47a146.75,146.75,0,0,1-9.87,13.69c-4.62,5.54-11.81,11.76-9.63,19.7.89,3.24,27.44-5.73,28.19-6,13.75-4.53,28.17-9.21,40.76-16.49,36.33-21,68.1-48.83,89.83-85L122.33,55.59a786.77,786.77,0,0,1-41.1,103.12c-.66,1.38,14-1.72,11.68-1.17a245.07,245.07,0,0,0,26.3-8.14,245.51,245.51,0,0,0,25.52-10.34c3.12-1.55,8.19-3.18,9.78-6.49Z"/><path d="M101.71,56.09c.32-.77,1-12.38,1.35-10.74s.52,16.6.87,16.62,1.59-14.94,2-14.26c.84,1.55,1.08,9.89,1.55-5.72l-.07.66a58.39,58.39,0,0,1,2.78-9.12c.33-.93.79-1.85,1.25-2.83a33.68,33.68,0,0,1,1.58-3c.54-1.06,1.3-2,2-3.12a40,40,0,0,1,2.5-3.13,29.07,29.07,0,0,1,14.78-9.35,44.94,44.94,0,0,1,9.12-.81c1.58,0,3.16,0,4.66.15a19,19,0,0,1,2.09.27c.61.13,1.22.38,1.84.54A19.12,19.12,0,0,1,156.79,17a35.2,35.2,0,0,1,5.38,7.29,51.44,51.44,0,0,1,6.13,17.45,39.54,39.54,0,0,1-1.76,18,54.61,54.61,0,0,1-8.89,16.37,74.22,74.22,0,0,1-13.57,13.26,155.36,155.36,0,0,1-16.26,10.72l-6.48,3.75-4.19,2.4a44,44,0,0,0-4.36,2.85,20.78,20.78,0,0,0-5.65,6.2,25.41,25.41,0,0,0-2.56,6.44c-.52,2-.77,3.83-1,5.12s-.58,2.71-.86,3.93a39.48,39.48,0,0,0-1.41,9.63c.19,3.25.55.25,1.25-1.16.39-.81.6.78,1,2.5s1.2,3.49,1.53,3.41a9.76,9.76,0,0,0,.12-2.29,26.31,26.31,0,0,1,.73-4.83c.85-3.43,2.1-6.81,2.18-6.44.31,1.17-.19,5.1.49,3.13.17-.49.42-1.34.8-2.75l.66-2.57.38-1.68.36-1.87a20.75,20.75,0,0,1,3.06-8A16.2,16.2,0,0,1,118,114.1c1.82-1.25,4.23-2.55,6.82-4l0,0,6.56-3.79a158.09,158.09,0,0,0,18-12A78.3,78.3,0,0,0,164.72,78.5a59.44,59.44,0,0,0,9.58-20.16,48,48,0,0,0,1.45-11.28,45.49,45.49,0,0,0-1.48-11.31,56.15,56.15,0,0,0-9.53-20.29,31.36,31.36,0,0,0-8.66-8c-.87-.55-1.86-1-2.79-1.43a30.51,30.51,0,0,0-3.06-1,29.63,29.63,0,0,0-5.93-.68,69.67,69.67,0,0,0-11.17.49,32.14,32.14,0,0,0-11.13,4,41.68,41.68,0,0,0-15.69,16.5l-.65,1.17-.55,1.18-1.05,2.27c-.56,1.51-1.18,2.92-1.58,4.28a71.32,71.32,0,0,0-1.89,7.14l-.06.29v.38C100.2,63.93,100.77,58.38,101.71,56.09Z"/><path d="M89.79,15.6c-.08.31.69,1.21.33,1.5s-1.79,0-1.95.28.55,1.8.29,2.1c-.78,1-1.92.53,1.49,2.74a43.36,43.36,0,0,1,9.91,9.38c.13.17.27.34.39.52l.49.67c2,2.87,1.95,2.15,2.74,1.35.43-.45,1.67-.43,2.28-.8.42-.25.33-1.88.68-2,1-.46,2.23.49-.53-3.39h0c-.15-.2-.3-.4-.45-.6A50.16,50.16,0,0,0,93.13,15.85C89.67,13.69,90.06,14.57,89.79,15.6Z"/><path d="M34.93,35.57c.3-.09.71-1.25,1.13-1.06s.87,1.58,1.22,1.56S38.57,34.71,39,34.8c.59.1,1,.43,1.2.26s.27-.81.53-2.65a19,19,0,0,1,5.66-10.85c.14-.13.27-.27.42-.39l.56-.46c1.21-.94,1.71-1.29,1.78-1.62s-.28-.56-.65-1-.37-1.69-.68-2.32c-.21-.44-1.9-.39-2.06-.74-.22-.55,0-1.1-.35-1.18a1.54,1.54,0,0,0-1,.33,13.78,13.78,0,0,0-2.25,1.63h0c-.21.17-.4.37-.61.56a26.06,26.06,0,0,0-8,15.94c-.23,2.18,0,3.08.2,3.38S34.4,35.72,34.93,35.57Z"/><path d="M36.84,65.07c.25-.19.25-1.1.69-1.17s1.27.63,1.58.47.72-1.45,1.1-1.57c1.14-.4,1.74.25.61-2.37a31.29,31.29,0,0,1-2.15-9.3l0-.45,0-.58c-.06-2.43-.45-2-1.54-1.84-.61.09-1.64-.41-2.34-.43-.49,0-1.3,1-1.69,1-1.14-.14-1.58-1.21-1.44,2.31h0l0,.55a38.21,38.21,0,0,0,2.91,12.06C35.76,66.46,36,65.72,36.84,65.07Z"/><path d="M61.71,94.68c.11-.29-.51-1.21-.15-1.47s1.68.1,1.87-.2-.33-1.78-.05-2.06c.83-.89,1.89-.46-1.15-2.72a48.19,48.19,0,0,1-8.9-9.06L53,78.68l-.45-.62c-1.84-2.67-1.84-2-2.63-1.19-.44.44-1.65.47-2.25.84-.42.25-.38,1.79-.74,2-1,.48-2.14-.38.37,3.18h0l.41.55A55,55,0,0,0,58.6,94.33C61.62,96.53,61.34,95.69,61.71,94.68Z"/><path d="M84.7,114c.14-.28-.25-1.1.1-1.36s1.42,0,1.63-.27,0-1.62.29-1.9c.84-.86,1.7-.52-.54-2.42-2.5-2.14-5-5-8.68-7.22-.17-.11-.34-.2-.52-.3l-.67-.37c-1.44-.74-2.12-.84-2.41-.7s-.24.58-.34,1.11-1,1.38-1.21,2c-.15.46.42,1.56.21,1.9-.29.51-.65.78-.62,1s.42.48,1.55,1.11h0l.36.21c2.65,1.56,5.1,4.28,8.21,6.94C84.34,115.68,84.22,114.94,84.7,114Z"/><path d="M101.4,140.79c.3-.1.56-1.28,1-1.18s1.05,1.53,1.41,1.5,1.1-1.68,1.49-1.67c.6,0,1,.42,1.23.16s.2-1.19-.33-3.73A41,41,0,0,0,99.06,120l-.53-.66-.68-.84c-1.51-1.72-2.31-2.25-2.7-2.3s-.44.44-.71.93-1.56.78-2,1.31c-.31.37.16,2-.17,2.17-.49.35-1,.36-1,.66s.47.83,1.8,2.47h0l.42.52a34.13,34.13,0,0,1,6,14c.35,1.83.51,2.56.79,2.8S100.88,141,101.4,140.79Z"/><path d="M158.72,5.69c.18,0,1.11-.42,2-.68s1.63-.4,1.47-.15-1.23.93-2.13,1.72-1.59,1.65-1.49,1.75,1.09-.37,2.07-.68,2-.51,2-.33c0,.56-.79,1.31-.25,1.24a18.68,18.68,0,0,0,2.08-.74,36.18,36.18,0,0,1,6.23-1.67l-3.09-1.63.14.31a6.4,6.4,0,0,1,.45,4,27.28,27.28,0,0,1-1.72,4.89,32.79,32.79,0,0,1-5.88,9,32.9,32.9,0,0,1-4,3.64c-1.35,1.05-2.08,1.28-3.14,1.14a4.79,4.79,0,0,1-1.55-.56l-.12-.09-.22.19s0,0,0,0l.26-.12v0c0-.06-.05-.25-.08-.38-.18-1.12.13-2.08,1-3.92l.94-2q.6-1.25,1.22-2.45a65.3,65.3,0,0,1,4.45-7.22c.35-.69-.33-.41-.92-.43s.11-2.12-.26-2.55c-.14-.15-1.14.44-2.07,1.13s-1.78,1.43-1.85,1.25c-.22-.55.36-1.77-.22-1.36s-2.55,2.55-5.65,9.06h0l-1,2a19,19,0,0,0-1.28,3.24,9.8,9.8,0,0,0,0,5.25,5.87,5.87,0,0,0,.59,1.35,6.15,6.15,0,0,0,2,2,9.17,9.17,0,0,0,1.94.93,9.94,9.94,0,0,0,2,.5,8.73,8.73,0,0,0,4.36-.47,12,12,0,0,0,3.31-2A38.84,38.84,0,0,0,165,26.51a38.88,38.88,0,0,0,6.9-10.72c.43-1,.81-2,1.16-3a18.34,18.34,0,0,0,.9-3.37A12.49,12.49,0,0,0,172.83,2l-1-2-2.1.35c-.94.15-1.71.32-2.55.52C161,2.4,158.53,4.4,157.84,5.13S158.09,5.59,158.72,5.69Z"/><path d="M50.64,137c.55-.19,5.46-5.26,5.16-4.19a47.3,47.3,0,0,1-3,4.51,18.8,18.8,0,0,0-2.37,4c.23.16,1.82-1.41,3.46-2.87s3.27-2.86,3.3-2.56c.07.88-1.16,3-.17,2.17s4.24-4.48,13.91-14.91c10.83-11.62,21.87-23.1,32.89-34.61,5.51-5.76,11-11.51,16.49-17.37,2.72-2.9,5.5-6,8-9l8-8.86,3-3.38,3.84-4.36c8.06-9.33,10.76-13.77,11.57-15.3s-.45-.5-1.42-.14.54-3.9-.1-4.3c-.23-.15-1.73,1.54-3.27,3.1s-3.07,3.06-3.1,2.78c-.13-.87,1-3,0-2.17S143.19,34.4,133.77,45l0,0-3,3.34-8.49,9.46-2.11,2.41L118.1,62.5l-4.25,4.6c-5.75,6.13-11.59,12.22-17.43,18.32C84.75,97.63,73,109.8,61.54,122.26c-8.27,9-11.39,13-12.3,14.57S49.67,137.36,50.64,137Z"/><path d="M53.77,131.45a118.42,118.42,0,0,0-11.34,16.36,53,53,0,0,0,18.7-14.36C69.82,123.1,53.77,131.45,53.77,131.45Z"/><path d="M60.83,8.1c.17.26,1,.35,1.09.79s-.69,1.2-.55,1.52,1.33.86,1.42,1.25c.3,1.18-.3,1.66,2.12.9a19.24,19.24,0,0,1,8.46-.39l.4.07.5.11c2.09.53,1.84.08,2-1,.09-.61.84-1.46,1.07-2.12.17-.46-.55-1.52-.4-1.89.23-.54.62-.82.54-1.08s-.64-.56-2.35-.92h0l-.54-.1A26.26,26.26,0,0,0,62.36,6C59.53,6.9,60.27,7.21,60.83,8.1Z"/></g></g></svg>