<svg xmlns="http://www.w3.org/2000/svg" viewBox="0 0 120.34 143.14"><title>icoon-sustainable-wit</title><g id="Layer_2" data-name="Layer 2"><g id="Layer_1-2" data-name="Layer 1"><path d="M11.09,5.56a18.94,18.94,0,0,0,1.32,2.62c.79,1.3,1.74,3,2.73,4.48l2.54,3.93c.62,1,.87,1.45.45,1.1a15,15,0,0,1-1.1-1.1c-.49-.55-1.09-1.27-1.77-2.09-1.39-1.62-2.95-3.75-4.49-5.82L6.88,2.9A15.28,15.28,0,0,0,5,.41c-.23.13,2,4.5,4.26,8.79,1.22,2.09,2.39,4.2,3.32,5.66s1.45,2.42,1.23,2.31a21.13,21.13,0,0,1-2.76-2.4c-.85-.84-1.35-1.3-.65,0a93.14,93.14,0,0,0,7.2,9.69c2.26,2.75,5.21,6.09,9,10.12s8.44,8.66,14,14.14c6.17,6.11,12.25,12.22,17.92,18.61a101.16,101.16,0,0,1,7.81,9.79,31.84,31.84,0,0,1,2.81,5.11,23.94,23.94,0,0,1,1.59,5.42,44.43,44.43,0,0,1,.6,6c.09,2.06.07,4.12,0,6.17a67.31,67.31,0,0,1-1.75,12.2A27.25,27.25,0,0,1,65,122.38a32.38,32.38,0,0,1-4,4.2c-1.55,1.37-3.23,2.85-4.8,4.13-3.17,2.6-6.4,4.63-9.65,5.11a17.31,17.31,0,0,1-5.33-.11,41,41,0,0,1-5.74-1.41c-7.54-2.45-14.4-7.23-18.56-13.7a34.36,34.36,0,0,1-4.41-10.87c-1-4-1.64-8.28-2.31-12.48A241.28,241.28,0,0,1,7.83,71.68l-.17-4.87-.08-4.87q-.06-6.21.08-12.43C8,36.36,8.63,27.08,9,20.63s.58-10.08.58-11.94c0-3.73-.65-.39-1.35,1.39C7.4,12.09,7,2.37,6.28,2.31c-.54,0-2.85,19.46-3.18,18.53-.53-1.39-.56-6.76-1-4-.22,1.39-.56,4.81-1,11.8S-.09,46.21,0,62V62l.08,5,.18,5A242.59,242.59,0,0,0,2.94,99.94c.4,2.32.76,4.63,1.2,6.94s1,4.69,1.65,7.06A43.43,43.43,0,0,0,8.46,121a37.94,37.94,0,0,0,4.11,6.53,41.18,41.18,0,0,0,11.48,9.87,48.13,48.13,0,0,0,6.77,3.27,51.47,51.47,0,0,0,7.2,2.13,28.92,28.92,0,0,0,7.9.68,21.25,21.25,0,0,0,8-2.24A36.83,36.83,0,0,0,60.4,137c1-.76,1.88-1.54,2.77-2.31l2.65-2.32a40.43,40.43,0,0,0,5.27-5.5A29.18,29.18,0,0,0,74.95,120a47.78,47.78,0,0,0,2.17-7.18c.53-2.37,1-4.76,1.25-7.17a74.63,74.63,0,0,0,.39-14.55,42,42,0,0,0-1.17-7.5,32.6,32.6,0,0,0-2.88-7.25,68,68,0,0,0-8.59-11.81c-3-3.6-6.24-7-9.45-10.39C50.2,47.42,43.54,41,37.11,34.51c-4.63-4.68-8.42-8.75-11.55-12.28S20,15.69,18.14,13.17s-3.3-4.53-4.42-6.06-1.8-2.73-2.34-3.47C9.25.65,10.63,3.7,11.09,5.56Z" transform="translate(0 -0.41)"/><path d="M80.17,98.89a6.15,6.15,0,0,0,3.25-.33c1.5-.43,2.84-1.11,2.56-.65a11,11,0,0,1-4.54,2.7,8.8,8.8,0,0,1-3.2.39c-.89-.06-1.47-.24-1.52-.13s.45.52,1.36.85a8.8,8.8,0,0,0,3.48.46c2.58-.15,4.83-1.18,4.73-.86a5.13,5.13,0,0,1-1.36,1.53c-.52.44-.83.72,0,.55a17.38,17.38,0,0,0,5.7-3.07c.72-.55,1.46-1.17,2.33-1.87s1.77-1.54,2.73-2.52a57.5,57.5,0,0,0,6.42-7.49c7.12-9.84,11.35-21.31,13.79-32.8s3.26-23.14,4.07-34.52l.39-5.45-5.24,1.55A89.52,89.52,0,0,0,87.83,30.81c-1.32.92-2.56,1.94-3.82,2.94-.81.62-1.57,1.32-2.34,2s-1.55,1.34-2.28,2.06a80.53,80.53,0,0,0-9.52,10.56,34,34,0,0,0-3.19,4.91c-.78,1.66.47.51,1.43.1s-.53,4,.13,4.39c.23.14,1.74-1.6,3.28-3.22.79-.8,1.56-1.58,2.14-2.13s1-.82,1-.68c.08.85-1,3.05-.06,2.18.46-.44,1.47-1.6,3.51-4l1.78-2,2.31-2.38c.85-.88,1.85-1.77,2.91-2.8s2.3-2.05,3.66-3.15l0,0c1.16-.91,2.29-1.85,3.5-2.7a82,82,0,0,1,25-12.42l-4.85-3.9c-.87,12.35-1.76,24.57-4.55,36.24a85.22,85.22,0,0,1-5.8,16.8,61.22,61.22,0,0,1-9.52,14.63,48.21,48.21,0,0,1-5.32,5.19A22.66,22.66,0,0,1,83.3,96.3a12.29,12.29,0,0,1-3.64,1.37C78.65,97.87,79.43,98.38,80.17,98.89Z" transform="translate(0 -0.41)"/><path d="M93.87,57.39c-.34,0-1.15,1.27-1.53.93s-.35-2.17-.71-2.26-1.8,1.3-2.17,1.1c-.57-.29-.84-.83-1.14-.68-.15.08-.31.33-.54.85l-1,2.54A39.28,39.28,0,0,1,77.17,74l-.59.55-.78.67-.62.54c-.26.23-.51.46-.75.7A7.38,7.38,0,0,0,73.25,78a5.16,5.16,0,0,0-.59,1.73,3.29,3.29,0,0,0,0,1.26c.35,1.12.63,0,1.25-.36.34-.19.73.28,1.22.54a1.52,1.52,0,0,0,1.37.14,2.81,2.81,0,0,0,.37-.29.9.9,0,0,1,.49-.17,1.52,1.52,0,0,1,.87.15,2.59,2.59,0,0,0,.68.4,1.17,1.17,0,0,1,.46.2c.09.11.07.28.23.17l.52-.4c.42-.34.91-.75,1.49-1.26h0l.71-.66a46.92,46.92,0,0,0,11.91-18c.89-2.46,1-3.54.86-4S94.47,57.37,93.87,57.39Z" transform="translate(0 -0.41)"/><path d="M56.7,137.34c.13-.38-1.46-3.44-.8-3.3s3.52,3.46,3.82,3.24-1.33-4.35-.87-4.42c.69-.11,1.69.62,1.55,0a11.93,11.93,0,0,0-1.22-2.28l-3.78-6.12A175.76,175.76,0,0,1,37.18,83c-.2-.69-.42-1.37-.59-2.06l-.71-2.64c-1.44-5.59-2-7.88-2.42-8.62s-.67.06-1.15.57S30.23,69,29.49,69.12c-.51.09-.44,4.57-.89,4.47-.68-.16-1.33-1.25-1.44-.58a9.46,9.46,0,0,0,.33,2.67c.31,1.55.84,3.88,1.79,7.29h0c.19.72.41,1.44.62,2.15a183.55,183.55,0,0,0,20.49,45.66c3.22,5.1,4.78,7,5.46,7.55S56.46,138,56.7,137.34Z" transform="translate(0 -0.41)"/></g></g></svg>