<?xml version="1.0" encoding="utf-8"?>
<!-- Generator: Adobe Illustrator 21.0.0, SVG Export Plug-In . SVG Version: 6.00 Build 0)  -->
<svg version="1.1" id="Layer_1" xmlns="http://www.w3.org/2000/svg" xmlns:xlink="http://www.w3.org/1999/xlink" x="0px" y="0px"
	 viewBox="0 0 185.8 182.1" style="enable-background:new 0 0 185.8 182.1;" xml:space="preserve">
<style type="text/css">
	.st0{fill:#3ACAAC;}
</style>
<title>icoon-eu</title>
<g id="Layer_2">
	<g id="Layer_2-2">
		<path class="st0" d="M116.9,175.2c-17.1-31-25.5-65.7-42.5-96.7L1,53.9c17,14.2,31.7,30.2,45.7,47.4c7.2,8.8,14.3,17.7,21.7,26.3
			c4.1,5,8.9,9.3,14.3,12.7c17.4,10.5,38.1,16.8,57.4,22.4c4.6,1.4,9.2,2.5,13.9,3.3c1.9,0.8,4,0.7,5.8-0.2
			c-18.9-34.8-33-72-51.9-106.8L34.5,34.3c0.4,0.7,0.9,1.3,1.3,2l-1-1.5c4.6,7.2,8.5,14.8,13.1,22c4.9,7.7,10.9,14.6,17.7,20.6
			c14.8,13.4,30.2,25.9,44.8,39.5c3.9,3.7,11.6,6.4,16.3,8.3c7.7,3.2,15.6,6.1,23.5,8.8c7.1,2.5,14.4,4.7,21.8,6.4
			c1.9,0.4,10.8,3.3,11.9,1.1c3.6-7.2-1.4-14.2-5-20.3c-4.6-7.8-9-15.8-13.2-23.8c-8.1-15.4-15.8-31-23.8-46.4
			c-1.7-3.2-7.2-5.3-9.9-6.6c-8.4-4-17-7.4-25.9-10.4c-8.8-3-17.7-6.1-26.7-8.1c-1.1-0.2-12.3-1.8-11.9-1
			c8.1,15.4,15.7,31,23.8,46.4c4.1,7.7,8.3,15.4,12.8,23c3.7,6.3,9.2,13.7,5.5,21.2l73.4,24.6c-10.7-10-21.9-19.4-32.9-29
			c-10.5-9.1-21.1-17.8-28.6-29.6l1,1.5c-5.3-8.4-9.8-17.3-15.4-25.5c-2.2-3.3-13.4-7.1-16.3-8.3C82.9,45.9,75,43,67.1,40.4
			C60,37.9,52.7,35.7,45.4,34c-1.1-0.2-12.2-1.8-11.9-1.1c18.9,34.8,33,72,51.9,106.8l19.6,3.1l-1.5-0.4l28.8,9.7l17.4,7.7
			c1.1,0.8,1.2,0.8,0.3,0.1c-0.9-0.8-2-1.6-2.9-2.4c-1.7-1.6-3.2-3.2-4.7-5c-3.4-3.8-6.6-7.7-9.9-11.6c-6.2-7.5-12.2-15.1-18.4-22.5
			c-12.2-15-25.8-28.8-40.7-41.2C69,73.6,62.2,71,57.1,68.9c-7.7-3.2-15.6-6.1-23.5-8.8c-7.1-2.5-14.4-4.7-21.7-6.4
			c-1.1-0.5-12.3-2-11.9-1.3c17.1,31,25.5,65.7,42.5,96.7c1.8,3.2,7,5.2,9.9,6.6c8.4,4,17.1,7.4,25.9,10.4s17.6,6.1,26.7,8.1
			C106.1,174.4,117.2,175.9,116.9,175.2z"/>
	</g>
	<g id="Layer_1-2">
		<path d="M105.6,92.8c1,0.5,2,1.1,2.9,1.8c0.5,0.5,1,1.1,1.2,1.7c0.2,0.5,0.2,0.8,0,0.6c-0.4-0.5-0.8-0.9-1.2-1.2
			c-0.8-0.5-1.6-0.9-2.5-1.1c-1.1-0.4-2.3-0.4-3.5-0.2c0,0.2,1.6,0.7,2.9,1.4c0.5,0.3,1,0.7,1.4,1.2c0.3,0.3,0.3,0.6,0.2,0.6
			c-0.5,0.1-1.5-0.1-1.2,0.4c0.1,0.1,0.2,0.3,0.3,0.4c0.1,0.2,0,0.1,0,0.3c-0.1,0.4-0.2,0.8-0.3,1.2c-0.2,0.7-0.5,1.5-0.8,2.2
			c-0.6,1.7-1.6,3.4-2.8,4.8c-0.6,0.7-1.4,1.2-2.3,1.4c-1.1,0.2-2.3,0.3-3.4,0.2c-2.5-0.2-4.9-1-7-2.3c-2-1.2-3.6-3.1-4.5-5.3
			c-0.9-2.4-1.3-5-1.1-7.6c0.2-5.7,1-11.4,2.4-17c0.5-2.4,1.6-4.7,3.2-6.5c0.7-0.7,1.6-1.2,2.5-1.5c1.1-0.3,2.3-0.4,3.5-0.3
			c1,0,1.9,0.1,2.8,0.3c1.1,0.2,2.2,0.6,3.2,1.1c1.2,0.5,2.1,1.4,2.7,2.6c0.4,0.8,0.5,1.6,0.5,2.4c0,0.7-0.2,1.5-0.6,2.2
			c-0.3,0.6,0.3,0.5,1,0.4c0.3-0.1,0.4,0.6,0.2,1.3s-0.8,1.4-0.7,1.7c0,0.1,0.5,0,1.2-0.3c0.8-0.4,1.5-1,2-1.7
			c1.2-1.6,1.5-3.6,1.7-3.4c0.1,0.2,0.2,0.5,0.3,0.7c0.1,0.3,0.1,0.6,0.1,0.9c0.1,0.6,0.1,0.9,0.4,0.3c0.2-0.6,0.3-1.2,0.4-1.8
			c0.1-1.3,0-2.5-0.3-3.8c-0.2-0.9-0.6-1.8-1.1-2.7c-0.6-1-1.4-1.9-2.3-2.7c-2.2-1.8-4.8-3-7.6-3.5l0,0c-1.3-0.2-2.6-0.4-3.9-0.4
			c-1.9-0.1-3.9,0.2-5.8,0.7c-2,0.7-3.9,1.9-5.3,3.5c-2.7,3.1-3.8,6.7-4.6,9.9c-0.7,3.2-1.3,6.5-1.7,9.7c-0.4,3.3-0.6,6.7-0.6,10
			c0,3.7,1.1,7.4,3,10.6c2.1,3.2,5.2,5.7,8.8,7.1c1.7,0.7,3.5,1.2,5.3,1.4c1.9,0.3,3.8,0.3,5.7,0c1.1-0.2,2.1-0.5,3.1-1
			s1.9-1.1,2.7-1.9c1.4-1.4,2.6-3,3.4-4.8c0.5-1.1,1-2.1,1.4-3.2l0.5-1.4c0.2-0.4,0.3-0.9,0.4-1.4c0.2-0.6,0.3-1.2,0.3-1.8
			c0-0.7,0-1.3-0.2-2c-0.3-1.1-0.9-2.2-1.7-3c-0.6-0.6-1.2-1-1.9-1.4c-0.5-0.3-1-0.5-1.5-0.6c-0.6-0.2-1.2-0.3-1.8-0.4
			C103.8,91.5,105.1,92.1,105.6,92.8z"/>
		<path d="M96.3,87.7c-0.1-0.3-1.2-0.5-1-0.9s1.4-0.9,1.4-1.2s-1.4-1-1.4-1.4c0.1-1.1,1.3-1.4-2.9-1.1c-4.7,0.3-9.4,0.6-14.1,0.7
			h-0.7h-0.8c-3.6,0.1-2.9,0.5-2.6,1.4c0.2,0.5-0.5,1.5-0.5,2.1c0,0.4,1.4,1.1,1.3,1.5c-0.2,1-1.4,1.4,2.8,1.3l0,0h0.7
			c5.1-0.2,10.1-0.4,15.2-0.8C97.4,89,96.7,88.7,96.3,87.7z"/>
		<path d="M91.7,95.3c0-0.3-0.6-0.7-0.5-1s0.9-0.7,0.9-1s-0.7-1.2-0.7-1.5c0.2-1,1-1.3-1.7-1.4c-3,0-6.1,0.4-9,1.1l-0.4,0.1
			l-0.5,0.1c-2.2,0.6-1.7,0.9-1.2,1.8c0.2,0.5,0.1,1.5,0.3,2.1C79,96,80,96.5,80,96.8c0.2,1-0.4,1.5,1.8,0.9l0,0l0.3-0.1
			c2.6-0.6,5.3-0.9,8-0.9C92.1,96.7,91.8,96.3,91.7,95.3z"/>
		<path d="M92.4,15.5c-0.8,0-1.7,0.1-2.5,0.3c-1.1,0.1-2.1,0.1-1.8-0.1s1.8-0.8,3.2-1.4c0.9-0.3,1.8-0.8,2.5-1.5
			c-0.1-0.2-1.5,0.1-2.8,0.2s-2.6,0.1-2.6-0.1c0.2-0.5,1.2-1.1,0.9-1.2c-0.5-0.1-1,0-1.5,0.1c-1.6,0.3-3.3,0.4-4.9,0.5l-7,0.2
			l4.8,5.1l4,4.3l2.1,2.2l0.4-0.3l0.3-0.2c0.2-0.1,0.3-0.2,0.5-0.3l0.3-0.1h-0.2c-0.3,0.1-0.6,0.1-0.8,0.1h-0.4h-0.4l0,0l-0.2,1.5
			l-1.1,6.5l-1.1,6.5l5.7-3.2l3.9-2.2l2-1.1l0.9-0.5l0,0c0,0,0,0.1-0.1-0.2L96.4,30c-0.1-0.3-0.2-0.6-0.3-0.9c0-0.1,0-0.2,0-0.2
			s0,0.1-0.1,0.1c0,0.1,0,0.3,0,0.4c0,0.3-0.1,0.5-0.2,0.8c0,0.2-0.1,0.4-0.2,0.6l0,0l0.3,0.1l1,0.4l2.1,0.9l4.2,1.8l5.6,2.4l-1.3-6
			l-1-4.9l-0.6-2.4l-0.3-1.2c0-0.2-0.1-0.3-0.1-0.3h-0.4h-0.5h-0.4c0.1,0,0.2,0.1,0.3,0.1c0.1,0.1,0.3,0.1,0.4,0.2l0.2,0.2l0.1,0.1
			l0,0c0.1-0.1,0.2-0.2,0.4-0.3l1.9-1.4l4.1-2.9l7.9-5.5l-9.6-0.2l-4.4-0.1h-2.2h-1.1H102V12l-0.1,0.7v0.4c0,0.3-0.1,0.6-0.2,0.9
			c0,0.1-0.1,0.1-0.1,0.2l0,0l0.1-0.1c0.1-0.1,0.2-0.2,0.3-0.2c0.3-0.2,0.5-0.3,0.8-0.4l1-0.5l0,0l-0.1-0.1l-0.1-0.3l-0.6-1.3
			L101.6,8l-1.4-3.1L98,0l-3.2,4.1c-1.4,1.7-2.6,3.6-3.6,5.5c-0.4,0.8-0.8,1.6-1,2.4c-0.1,0.8,0.6,0.1,1.2-0.2s0.3,2.7,0.9,2.9
			c0.2,0.1,1-1.1,1.9-2.1s1.8-2,1.9-1.8c0.2,0.5-0.1,1.5,0.2,1.6s0.3-0.2,0.8-0.9s1.3-1.8,2.6-3.4l-5.3-0.7l2.8,6.4l0,0l0.6,1.3
			l0.1,0.3c0,0.1,0.1,0.2,0.2,0.5c0.2,0.4,0.5,0.7,0.8,1.1c0.4,0.4,0.9,0.7,1.5,0.9c0.5,0.2,1,0.3,1.5,0.3h0.6h1.1h2.2l4.4,0.1
			l-1.7-5.7l-4.1,2.9l-2.1,1.5c-0.5,0.4-1,0.8-1.4,1.3c-0.6,0.8-1.1,1.7-1.2,2.6c-0.1,0.8-0.1,1.6,0.1,2.4l0.3,1.2l0.5,2.4l1,4.9
			l4.3-3.5l-4.1-1.7l-2.1-0.9l-1-0.4c-0.6-0.3-1.2-0.5-1.9-0.6c-0.6-0.1-1.2,0-1.8,0.1c-0.4,0.1-0.8,0.3-1.2,0.5l-1,0.6l-2,1.1l-4,2
			l4.7,3.3l0.7-4.1l0.3-2.1l0.2-1c0.1-0.4,0.1-0.6,0.2-1.3c0-0.4,0-0.8,0-1.2c-0.1-0.6-0.2-1.1-0.5-1.6c-0.3-0.6-0.7-1.1-1.2-1.5
			L89.7,18l-2.9-3l-1.6-1.7L83,18.6c2.5-0.1,5-0.5,7.4-1.2c1-0.3,1.9-0.6,2.8-1.1C94.1,15.8,93.1,15.8,92.4,15.5z"/>
		<path d="M42.1,36.9c-0.8,0.1-1.7,0.3-2.5,0.5c-1.1,0.2-2.1,0.3-1.8,0s1.7-0.9,3-1.7c0.9-0.4,1.7-1,2.4-1.7
			c-0.1-0.2-1.5,0.2-2.8,0.5s-2.6,0.4-2.5,0.2c0.2-0.5,1.1-1.2,0.8-1.3c-0.5,0-1,0.1-1.5,0.3c-1.6,0.4-3.2,0.7-4.8,0.9l-7,0.8
			l5.3,4.7l4.4,3.9l2.3,2l0.3-0.3l0.4-0.2c0.1-0.1,0.3-0.2,0.4-0.3l0.2-0.2h-0.1c-0.3,0-0.6,0-0.9,0h-0.4H37l0,0l-0.1,1.5L36.4,53
			l-0.5,6.6l5.4-3.6l3.7-2.5l1.8-1.3l0.9-0.6l0,0c0,0,0,0.1-0.1-0.2L47.3,51c-0.2-0.3-0.3-0.6-0.4-0.9c0-0.1,0-0.2-0.1-0.2V50
			c0,0.1,0,0.3,0,0.4c0,0.3,0,0.5-0.1,0.8c0,0.2-0.1,0.4-0.1,0.6l0,0l0.4,0.1l1.1,0.3l2.1,0.7l4.2,1.4l5.8,1.9l-1.8-5.8L57,45.7
			l-0.7-2.4L56,42.1c-0.1-0.2-0.1-0.3-0.1-0.3l-0.4,0.1l-0.5,0h-0.3l0,0c0.1,0,0.2,0.1,0.3,0.1c0.1,0.1,0.3,0.1,0.4,0.2l0.3,0.2
			l0.1,0.1l0,0c0.1-0.1,0.2-0.3,0.4-0.4l1.8-1.5l3.8-3.2l7.4-6.2l-9.6,0.6l-4.4,0.3L53,32.2l-1.1,0.1h-0.5l0,0v1.3
			c0,0.3,0,0.6-0.1,0.9c0,0.1,0,0.1-0.1,0.2l0,0v-0.1c0.1-0.1,0.2-0.2,0.3-0.2c0.2-0.2,0.5-0.4,0.8-0.5l0.9-0.6l0,0L53,33.2
			l-0.2-0.3l-0.7-1.2l-1.7-3.1l-1.7-3L46.2,21l-2.8,4.3c-1.2,1.8-2.3,3.8-3.1,5.8c-0.4,0.8-0.6,1.6-0.8,2.5c-0.1,0.8,0.6,0,1.2-0.3
			s0.5,2.6,1.2,2.8c0.2,0.1,0.9-1.2,1.7-2.3s1.6-2.1,1.7-1.9c0.2,0.5,0.1,1.5,0.3,1.5s0.3-0.3,0.8-1s1.1-1.9,2.3-3.6l-5.3-0.2
			l3.3,6.2l0,0l0.7,1.2l0.2,0.3c0,0.1,0.1,0.2,0.3,0.5c0.2,0.4,0.5,0.7,0.8,1c0.5,0.4,1,0.7,1.6,0.8c0.5,0.1,1,0.2,1.5,0.1h0.6
			l1.1-0.1l2.2-0.2l4.4-0.3l-2.2-5.6l-3.8,3.2l-2,1.7c-0.5,0.4-0.9,0.9-1.3,1.5c-0.6,0.8-0.9,1.8-1,2.7c0,0.8,0.1,1.6,0.3,2.3
			l0.4,1.2l0.8,2.3l1.5,4.7l4-3.9l-4.2-1.4l-2.1-0.7L49,45.9c-0.6-0.2-1.3-0.4-2-0.4c-0.6,0-1.2,0.1-1.8,0.3
			c-0.4,0.2-0.8,0.4-1.1,0.6l-1,0.7l-1.8,1.3l-3.7,2.5l4.9,2.8l0.3-4.2l0.2-2.1l0.1-1c0-0.3,0.1-0.6,0.1-1.3c0-0.4,0-0.8-0.1-1.2
			c-0.1-0.5-0.3-1-0.6-1.5c-0.4-0.5-0.8-1-1.3-1.4l-1.6-1.4l-3-2.8l-1.7-1.5l-1.7,5.5c2.5-0.3,5-0.9,7.3-1.8c1-0.3,1.9-0.8,2.7-1.4
			C43.8,37,42.8,37.1,42.1,36.9z"/>
		<path d="M18,88.2c-0.8,0.3-1.6,0.6-2.4,0.9c-1,0.4-2,0.6-1.8,0.3s1.5-1.2,2.7-2.2s2.1-2,2-2.1s-1.4,0.5-2.6,0.9s-2.5,0.8-2.5,0.6
			c0.1-0.5,0.9-1.4,0.6-1.4s-0.5,0.1-1.4,0.5c-1.5,0.7-3,1.3-4.5,1.7l-6.7,2l6,3.7l5,3.1l2.6,1.6l0.3-0.4l0.3-0.3
			c0.1-0.1,0.2-0.3,0.4-0.4c0.1-0.1,0.1-0.1,0.2-0.2l-0.1,0.1c-0.3,0.1-0.5,0.2-0.8,0.3L14.9,97l-0.4,0.1l0,0l0.1,1.5l0.6,6.5
			l0.6,6.6l4.7-4.6l3.2-3.1l1.6-1.6l0.8-0.8l0,0l-0.1-0.2l-0.3-0.3c-0.2-0.2-0.4-0.5-0.6-0.8c0-0.1-0.1-0.2-0.1-0.2v0.1
			c0,0.1,0.1,0.3,0.1,0.4c0,0.3,0,0.5,0,0.8c0,0.2,0,0.4,0,0.6l0,0h0.4l1.1,0.2l2.2,0.3l4.4,0.6l6,0.9l-2.8-5.4l-2.1-4.4L33.1,92
			l-0.6-1.1c-0.1-0.2-0.1-0.3-0.2-0.3L32,90.8l-0.5,0.1L31.2,91h-0.1h0.1c0.1,0,0.2,0,0.4,0c0.1,0,0.3,0.1,0.4,0.1l0.3,0.1l0.2,0.1
			l0,0c0.1-0.1,0.2-0.3,0.3-0.4l1.5-1.8l3.2-3.8l6.2-7.4l-9.3,2.3l-4.4,1l-2.1,0.5L26.8,82l-0.5,0.1l0,0v0.2l0.1,0.7l0.1,0.4
			c0.1,0.3,0.1,0.6,0.1,0.9c0,0.1,0,0.1,0,0.2l0,0v-0.1c0.1-0.1,0.1-0.2,0.2-0.3c0.2-0.2,0.4-0.4,0.6-0.7l0.8-0.7l0,0l-0.1-0.1
			l-0.2-0.3l-0.9-1l-2.2-2.8l-2.2-2.7l-3.3-4.1l-2,4.8c-0.9,2-1.6,4.1-2.1,6.3c-0.2,0.8-0.3,1.7-0.3,2.6c0.1,0.8,0.6-0.1,1.1-0.5
			c0.5-0.4,1,2.5,1.7,2.6c0.2,0,0.7-1.3,1.3-2.5s1.2-2.4,1.3-2.2c0.3,0.4,0.4,1.5,0.6,1.4s0.3-0.3,0.6-1.1s0.8-2.1,1.6-4l-5.3,0.7
			l4.4,5.5l0,0l0.9,1.1l0.2,0.3c0.1,0.1,0.1,0.2,0.4,0.4c0.3,0.3,0.6,0.6,1,0.8c0.5,0.3,1.1,0.5,1.7,0.5c0.5,0,1,0,1.5-0.1l0.6-0.1
			l1.1-0.3l2.1-0.5l4.2-1.1l-3.2-5.1L29.4,85l-1.6,2c-0.4,0.5-0.7,1.1-1,1.7c-0.4,0.9-0.6,1.9-0.5,2.9c0.1,0.8,0.4,1.6,0.8,2.2
			l0.6,1.1l1.1,2.2l2.3,4.4l3.2-4.6l-4.4-0.6L27.5,96l-1.1-0.2c-0.7-0.1-1.3-0.1-2-0.1c-0.6,0.1-1.2,0.3-1.7,0.6
			c-0.4,0.2-0.7,0.5-1,0.8L20.9,98l-1.6,1.6l-3.2,3.1l5.4,1.9l-0.4-4.2l-0.2-2.1l-0.1-1c0-0.3,0-0.6-0.1-1.3
			c-0.1-0.4-0.2-0.8-0.3-1.2c-0.2-0.5-0.5-0.9-0.9-1.3c-0.4-0.5-1-0.9-1.5-1.2l-2-1l-3.6-2.2l-2-1.2l-0.7,5.7
			c2.4-0.7,4.7-1.8,6.9-3.1c0.9-0.5,1.7-1.1,2.4-1.8C19.7,88,18.7,88.3,18,88.2z"/>
		<path d="M39.6,142.7c-0.2,0.8-0.4,1.6-0.5,2.5c-0.2,1.1-0.5,2-0.7,1.7s-0.2-1.9-0.4-3.4c0-1-0.3-1.9-0.7-2.8
			c-0.2,0-0.4,1.4-0.6,2.7s-0.7,2.6-0.8,2.4c-0.4-0.4-0.7-1.5-0.9-1.3c-0.2,0.5-0.3,1-0.3,1.5c-0.2,1.6-0.6,3.2-1,4.8l-1.9,6.8
			l6.3-3.1l5.3-2.6l2.7-1.3l-0.2-0.4l-0.1-0.4c-0.1-0.2-0.1-0.4-0.1-0.5s0-0.2,0-0.3v0.1c0,0.3-0.1,0.6-0.2,0.8l-0.1,0.4l-0.1,0.4
			l0,0l1.3,0.7l5.9,3l5.9,3L57,151l-0.9-4.4l-0.5-2.2l-0.2-1l0,0h-0.2l-0.5,0.1c-0.3,0-0.7,0.1-1,0.1h-0.2h0.1
			c0.1,0,0.2,0.1,0.4,0.1c0.2,0.1,0.5,0.2,0.7,0.4l0.5,0.4l0,0l0.2-0.3L56,143l1.5-1.7l2.9-3.4l4-4.6l-6.1-0.6l-4.9-0.5l-2.5-0.2
			l-1.2-0.1h-0.3c0-0.1-0.1,0.3-0.1,0.4s-0.1,0.3-0.1,0.5S49,133,49,133.1v0.1v-0.1c0.1-0.1,0.1-0.2,0.2-0.3
			c0.1-0.1,0.2-0.2,0.3-0.3l0.2-0.2l0.1-0.1l0,0c-0.1-0.1-0.1-0.3-0.2-0.5l-0.7-2.3l-1.5-4.7l-2.9-9.2l-3.1,9.1l-1.4,4.1l-0.7,2.1
			l-0.3,1l-0.2,0.5l0,0l0,0l0.2,0.1l0.6,0.2l0.4,0.2c0.3,0.1,0.5,0.3,0.8,0.4c0.1,0,0.1,0.1,0.2,0.1l0,0v-0.1
			c-0.1-0.1-0.1-0.2-0.1-0.4c-0.1-0.3-0.2-0.6-0.2-0.9l-0.2-1.1l0,0h-0.2H40l-1.4,0.2l-3.6,0.4l-3.4,0.4l-5.2,0.6l2.9,4.4
			c1.2,1.8,2.6,3.5,4.2,5.1c0.6,0.6,1.3,1.2,2,1.7c0.7,0.3,0.2-0.5,0.2-1.2s2.6,0.5,3,0c0.1-0.2-0.7-1.3-1.4-2.4s-1.4-2.3-1.2-2.3
			c0.5,0,1.5,0.5,1.5,0.3s-0.1-0.4-0.6-1.1s-1.3-1.8-2.5-3.5l-2.2,4.8l7-0.8l0,0l1.4-0.2H41c0.1,0,0.2,0,0.5-0.1
			c0.4-0.1,0.9-0.2,1.2-0.4c0.5-0.3,1-0.7,1.3-1.1c0.3-0.4,0.5-0.9,0.7-1.4L45,134l0.3-1l0.7-2.1l1.4-4.1l-6-0.1l1.6,4.7l0.8,2.5
			c0.2,0.6,0.5,1.2,0.8,1.8c0.5,0.9,1.3,1.5,2.2,2c0.7,0.3,1.5,0.5,2.3,0.6l1.2,0.1l2.5,0.2l4.9,0.5l-2.1-5.2l-2.9,3.4l-1.5,1.7
			l-0.7,0.9c-0.5,0.5-0.8,1-1.1,1.6c-0.2,0.5-0.4,1.1-0.4,1.7c0,0.4,0,0.9,0.1,1.3l0.2,1.1l0.5,2.2l0.9,4.4l4.5-3.5l-3.7-1.9
			l-1.9-0.9l-0.9-0.5c-0.3-0.1-0.5-0.3-1.2-0.6c-0.4-0.2-0.8-0.3-1.2-0.3c-0.5-0.1-1.1-0.1-1.6,0c-0.6,0.1-1.2,0.3-1.8,0.6L41,146
			l-3.8,1.8l-2.1,1l4.4,3.7c0.7-2.4,1-4.9,1.1-7.4c0-1,0-2-0.2-3C40.3,141.2,40,142.1,39.6,142.7z"/>
		<path d="M90,167.1c-0.2,0.8-0.3,1.7-0.4,2.5c-0.2,1.1-0.5,2-0.7,1.7s-0.2-1.9-0.4-3.4c-0.1-1-0.3-1.9-0.7-2.8
			c-0.2,0-0.3,1.4-0.6,2.8s-0.6,2.6-0.8,2.4c-0.4-0.4-0.7-1.4-0.9-1.2c-0.2,0.5-0.3,1-0.3,1.5c-0.2,1.6-0.5,3.2-0.9,4.8l-1.8,6.8
			l6.3-3.2l5.2-2.7l2.7-1.4l-0.2-0.4l-0.2-0.4c-0.1-0.2-0.1-0.4-0.2-0.5c0-0.1,0-0.2,0-0.3v0.1c0,0.3-0.1,0.6-0.2,0.8l-0.1,0.4
			l-0.1,0.4l0,0l1.3,0.6l5.9,2.9l5.9,2.9l-1.5-6.4l-1-4.4l-0.5-2.2l-0.2-1l0,0h-0.2l-0.4,0.1c-0.3,0.1-0.7,0.1-1,0.1h-0.2
			c0.1,0,0.2,0.1,0.4,0.1c0.2,0.1,0.5,0.2,0.7,0.4l0.5,0.3l0,0l0.2-0.3l0.7-0.9l1.4-1.7l2.8-3.4l3.9-4.7l-6.1-0.4l-4.9-0.4l-2.5-0.2
			l-1.2-0.1h-0.3c0-0.1-0.1,0.3-0.1,0.4s-0.1,0.3-0.1,0.5s-0.1,0.2-0.1,0.3v0.1v-0.1c0.1-0.1,0.1-0.2,0.2-0.3s0.2-0.2,0.3-0.3
			l0.2-0.2l0.1-0.1l0,0c-0.1-0.1-0.2-0.3-0.2-0.5l-0.8-2.2l-1.6-4.7l-3.1-9.1l-2.9,9l-1.3,4.2l-0.7,2.1l-0.3,1l-0.2,0.5l0,0l0,0
			L89,157l0.6,0.2l0.4,0.2c0.3,0.1,0.5,0.2,0.8,0.4c0.1,0,0.1,0.1,0.2,0.1l0,0v-0.1c-0.1-0.1-0.1-0.2-0.1-0.3
			c-0.1-0.3-0.2-0.6-0.2-0.9l-0.2-1.1l0,0h-0.2H90l-1.4,0.2l-3.6,0.5l-3.4,0.5l-5.2,0.7l3,4.2c1.3,1.8,2.7,3.5,4.3,5
			c0.6,0.6,1.3,1.2,2,1.6c0.7,0.3,0.2-0.5,0.2-1.2s2.6,0.4,3-0.1c0.1-0.2-0.7-1.3-1.5-2.4s-1.4-2.3-1.2-2.3c0.5-0.1,1.5,0.5,1.5,0.3
			s-0.1-0.4-0.7-1.1s-1.3-1.5-2.5-3.3l-2.2,4.9l7-0.9l0,0l1.4-0.2H91c0.1,0,0.2,0,0.5-0.1c0.4-0.1,0.8-0.2,1.2-0.4
			c0.5-0.3,1-0.7,1.3-1.2c0.3-0.4,0.5-0.9,0.7-1.4l0.2-0.6l0.3-1l0.7-2.1l1.3-4.2l-6,0.1l1.6,4.7l0.8,2.4c0.2,0.6,0.5,1.2,0.9,1.8
			c0.5,0.8,1.3,1.5,2.2,1.9c0.7,0.3,1.5,0.5,2.3,0.5l1.2,0.1l2.5,0.2l4.9,0.4l-2.2-5.1l-2.9,3.4l-1.4,1.7l-0.7,0.9
			c-0.4,0.5-0.8,1.1-1.1,1.7c-0.2,0.6-0.4,1.1-0.4,1.8c0,0.4,0,0.9,0.1,1.3l0.3,1.1l0.5,2.2l1,4.4l4.4-3.6l-3.7-1.8l-1.9-0.9
			l-0.9-0.4c-0.3-0.1-0.6-0.3-1.2-0.5c-0.4-0.1-0.8-0.3-1.2-0.3c-0.5-0.1-1.1-0.1-1.6,0c-0.6,0.1-1.2,0.4-1.8,0.7l-1.9,1l-3.7,1.9
			l-2,1.1l4.5,3.6c0.7-2.4,1-4.9,1-7.5c0-1-0.1-2-0.3-3C90.7,165.6,90.4,166.5,90,167.1z"/>
		<path d="M147.5,135.7c-0.4-0.8-0.8-1.5-1.2-2.2c-0.5-1-0.9-1.9-0.6-1.7s1.4,1.3,2.5,2.4c0.7,0.7,1.5,1.3,2.4,1.7
			c0.1-0.2-0.6-1.3-1.3-2.5s-1.2-2.4-1-2.4c0.6,0,1.5,0.7,1.5,0.4s-0.2-0.5-0.7-1.4c-0.9-1.4-1.7-2.8-2.4-4.3l-2.9-6.4l-2.8,6.5
			l-2.3,5.4l-1.2,2.8l0.4,0.2l0.4,0.2c0.2,0.1,0.3,0.2,0.4,0.3c0.1,0.1,0.2,0.1,0.2,0.2l-0.1-0.1c-0.2-0.2-0.3-0.5-0.4-0.8l-0.1-0.4
			l-0.1-0.4l0,0l-1.4,0.4l-6.4,1.6l-6.4,1.6l5.2,4l3.6,2.7l1.8,1.4l0.9,0.6l0,0l0.1-0.2l0.3-0.3c0.2-0.2,0.4-0.5,0.7-0.7l0.2-0.1
			h-0.1c-0.1,0.1-0.2,0.1-0.4,0.1c-0.3,0.1-0.5,0.1-0.8,0.2l-0.6,0.1V159l5-3.5l4.1-2.9l2-1.4l1-0.7l0.3-0.2
			c0.1,0.1-0.1-0.3-0.2-0.4s-0.1-0.3-0.2-0.4s-0.1-0.2-0.1-0.3v-0.1v0.1c0,0.1,0,0.2,0,0.4s0,0.3-0.1,0.4l-0.1,0.3v0.1l0,0
			c0.2,0.1,0.3,0.1,0.5,0.2l2,1.2l4.2,2.6l8.2,5.1l-3.6-8.9l-1.6-4.1l-0.8-2l-0.4-1l-0.2-0.5l0,0l0,0l-0.2,0.1l-0.6,0.2l-0.4,0.1
			c-0.3,0.1-0.6,0.2-0.9,0.2h-0.2h0.1c0.1,0.1,0.2,0.1,0.3,0.2c0.3,0.2,0.5,0.4,0.7,0.6l0.8,0.7l0,0l0.1-0.1l0.2-0.3l1-1l2.4-2.6
			l2.3-2.5l3.6-3.8l-5-1.4c-2.1-0.6-4.3-1-6.5-1.2c-0.9-0.1-1.7-0.1-2.6,0c-0.7,0.2,0.1,0.5,0.6,1s-2.3,1.3-2.3,2
			c0,0.2,1.4,0.5,2.7,0.9s2.5,0.9,2.4,1c-0.4,0.4-1.4,0.6-1.4,0.8s0.4,0.2,1.2,0.4s2.2,0.4,4.2,1l-1.4-5.1l-4.8,5.1l0,0l-1,1
			l-0.2,0.3c-0.1,0.1-0.2,0.2-0.4,0.4c-0.3,0.3-0.5,0.7-0.7,1.1c-0.2,0.6-0.3,1.1-0.3,1.7c0,0.5,0.2,1,0.4,1.5l0.2,0.5l0.4,1l0.8,2
			l1.6,4.1l4.6-3.9l-4.2-2.6l-2.2-1.4c-0.6-0.3-1.2-0.6-1.8-0.8c-0.9-0.3-2-0.3-2.9-0.1c-0.8,0.2-1.5,0.6-2.1,1.1l-1,0.7l-2,1.4
			l-4.1,2.9l5,2.6V145c0-0.7,0-1.3-0.2-2c-0.2-0.6-0.4-1.1-0.8-1.6c-0.3-0.3-0.6-0.6-0.9-0.9l-0.9-0.7l-1.8-1.4l-3.6-2.7l-1.2,5.6
			l4.1-1l2-0.5l1-0.2c0.3-0.1,0.6-0.1,1.2-0.3c0.4-0.1,0.7-0.3,1.1-0.5c0.5-0.3,0.9-0.6,1.2-1c0.4-0.5,0.8-1.1,1-1.7l0.8-1.9
			l1.6-3.8l0.9-2.1l-5.8,0.1c1.1,2.3,2.4,4.4,4,6.4c0.6,0.8,1.3,1.5,2.1,2.1C147.9,137.3,147.5,136.4,147.5,135.7z"/>
		<path d="M169.4,87.4c-0.4-0.8-0.8-1.5-1.3-2.2c-0.6-1-0.9-1.9-0.6-1.7s1.4,1.3,2.6,2.3c0.7,0.7,1.5,1.3,2.4,1.7
			c0.1-0.2-0.7-1.3-1.3-2.5s-1.2-2.3-1-2.3c0.6,0,1.5,0.6,1.5,0.3s-0.2-0.5-0.7-1.3c-0.9-1.4-1.7-2.8-2.4-4.3l-3-6.3l-2.7,6.5
			l-2.3,5.4l-1.2,2.8l0.4,0.2l0.4,0.2c0.2,0.1,0.3,0.2,0.5,0.3c0.1,0.1,0.2,0.1,0.2,0.2l-0.1-0.1c-0.2-0.2-0.3-0.5-0.4-0.7l-0.1-0.3
			l-0.1-0.3l0,0l-1.4,0.4l-6.4,1.7l-6.4,1.8l5.3,3.9l3.6,2.7l1.8,1.3l0.9,0.6l0,0l0.1-0.2l0.3-0.3c0.2-0.2,0.4-0.5,0.7-0.7l0.2-0.1
			h-0.1c-0.1,0.1-0.2,0.1-0.4,0.1c-0.2,0.1-0.5,0.1-0.8,0.2l-0.6,0.1V97v1.1v2.2l0.1,4.5l0.1,6.1l4.9-3.6l4-2.9l2-1.5l1-0.7l0.3-0.2
			c0.1,0.1-0.1-0.2-0.2-0.4s-0.2-0.3-0.2-0.4s-0.1-0.2-0.1-0.3v-0.1v0.1c0,0.1,0,0.2,0,0.4c0,0.2,0,0.3-0.1,0.5l-0.1,0.3v0.2l0,0
			c0.2,0.1,0.3,0.1,0.5,0.2l2.1,1.2l4.3,2.5l8.3,4.9l-3.8-8.9l-1.7-4l-0.9-2l-0.4-1l-0.2-0.5l0,0l0,0l-0.2,0.1l-0.6,0.2l-0.4,0.1
			c-0.3,0.1-0.6,0.2-0.9,0.2h-0.2h0.1c0.1,0,0.2,0.1,0.3,0.2c0.3,0.2,0.5,0.3,0.7,0.5l0.8,0.7l0,0l0.1-0.1l0.2-0.3l0.9-1l2.4-2.7
			l2.3-2.7l3.5-3.9l-5-1.3c-2.1-0.5-4.3-0.9-6.5-1c-0.9-0.1-1.7-0.1-2.6,0.1c-0.7,0.2,0.2,0.5,0.6,1s-2.3,1.4-2.3,2
			c0,0.2,1.4,0.5,2.7,0.9s2.5,0.8,2.4,1c-0.4,0.4-1.4,0.6-1.3,0.8s0.4,0.2,1.2,0.4s2.2,0.4,4.2,1l-1.5-5.1L173,91l0,0l-1,1l-0.2,0.3
			c-0.1,0.1-0.2,0.2-0.4,0.4c-0.3,0.3-0.5,0.7-0.6,1.1c-0.2,0.6-0.3,1.1-0.2,1.7c0.1,0.5,0.2,1,0.4,1.5l0.2,0.5l0.4,1l0.9,2l1.7,4
			l4.5-3.9l-4.3-2.5l-2.2-1.3c-0.6-0.3-1.2-0.6-1.8-0.8c-1-0.3-2-0.3-2.9,0c-0.8,0.2-1.5,0.6-2.1,1.1l-1,0.7l-2,1.5l-4,2.9l5,2.5
			l-0.1-4.5V98v-1.1c0-0.7-0.1-1.3-0.2-2c-0.2-0.6-0.5-1.1-0.9-1.6c-0.3-0.3-0.6-0.6-0.9-0.9l-0.9-0.7l-1.8-1.3l-3.6-2.7l-1.1,5.6
			l4-1.1l2-0.5l1-0.3c0.3-0.1,0.6-0.1,1.2-0.4c0.4-0.1,0.7-0.3,1.1-0.5c0.5-0.3,0.9-0.6,1.2-1.1c0.4-0.5,0.7-1.1,0.9-1.7l0.8-1.9
			l1.6-3.9l0.9-2.1l-5.8,0.2c1.1,2.3,2.5,4.4,4.1,6.3c0.6,0.8,1.4,1.5,2.2,2.1C169.9,89,169.4,88.1,169.4,87.4z"/>
		<path d="M149.2,37.4c-0.2-0.8-0.5-1.6-0.9-2.4c-0.4-1-0.6-2-0.3-1.8s1.2,1.5,2.1,2.7s1.9,2.2,2,2.1s-0.4-1.4-0.9-2.7
			s-0.8-2.5-0.6-2.5c0.5,0.1,1.4,0.9,1.4,0.6s-0.1-0.5-0.5-1.5c-0.7-1.5-1.2-3.1-1.6-4.6l-1.9-6.8l-3.8,5.9l-3.2,4.9l-1.6,2.6
			l0.4,0.3l0.3,0.3c0.1,0.1,0.3,0.2,0.4,0.4c0.1,0.1,0.1,0.1,0.2,0.2l-0.1-0.1c-0.1-0.3-0.2-0.5-0.3-0.8l-0.1-0.4l-0.1-0.4l0,0
			l-1.5,0.1l-6.5,0.5l-6.6,0.5l4.5,4.8l3.1,3.2l1.5,1.6l0.7,0.8l0,0l0.2-0.1l0.4-0.3c0.3-0.2,0.5-0.4,0.8-0.6l0.2-0.1h-0.1
			c-0.1,0-0.3,0.1-0.4,0.1c-0.3,0-0.5,0-0.8,0H135l0,0l-0.1,0.4l-0.2,1.1l-0.3,2.3l-0.7,4.4l-1,6l5.5-2.7l4.5-2.2l2.2-1.1l1.1-0.5
			l0.3-0.1c0,0.1-0.1-0.3-0.1-0.4s-0.1-0.3-0.1-0.5s-0.1-0.2-0.1-0.3v-0.1v0.1c0,0.1,0,0.2,0,0.3s-0.1,0.3-0.1,0.4l-0.1,0.3
			l-0.1,0.2l0,0c0.1,0.1,0.3,0.2,0.4,0.3l1.8,1.6l3.8,3.2l7.3,6.3l-2.3-9.4l-1-4.3l-0.5-2.1L155,46l-0.1-0.5l0,0l0,0h-0.2l-0.7,0.1
			l-0.4,0.1c-0.3,0-0.6,0-0.9,0h-0.2l0,0h0.1c0.1,0.1,0.2,0.1,0.3,0.2c0.2,0.2,0.4,0.4,0.6,0.7l0.7,0.8l0,0l0.1-0.1l0.3-0.2l1.1-0.9
			l2.8-2.2l2.7-2.1l4.2-3.2l-4.7-2.1c-2-0.9-4.1-1.7-6.2-2.2c-0.8-0.2-1.7-0.4-2.6-0.4c-0.8,0.1,0.1,0.6,0.4,1.1s-2.5,1-2.6,1.6
			c0,0.2,1.3,0.7,2.5,1.3s2.4,1.2,2.2,1.4c-0.4,0.3-1.5,0.3-1.5,0.5s0.3,0.3,1.1,0.6s2.1,0.8,4,1.7l-0.6-5.3l-5.6,4.3l0,0l-1.1,0.9
			l-0.3,0.2c-0.1,0.1-0.2,0.2-0.4,0.3c-0.3,0.3-0.6,0.6-0.8,1c-0.3,0.5-0.5,1.1-0.6,1.7c0,0.5,0,1,0.1,1.5l0.1,0.6l0.2,1.1l0.5,2.1
			l1,4.3l5-3.1l-3.8-3.2l-2-1.7c-0.5-0.4-1.1-0.8-1.6-1.1c-0.9-0.4-1.9-0.6-2.9-0.5c-0.8,0.1-1.6,0.3-2.3,0.7l-1.1,0.5l-2.2,1.1
			l-4.5,2.2l4.5,3.3L141,49l0.4-2.2l0.2-1.1c0.1-0.7,0.2-1.3,0.1-2c-0.1-0.6-0.3-1.2-0.6-1.7c-0.2-0.4-0.5-0.7-0.8-1l-0.8-0.8
			l-1.5-1.6l-3.1-3.2l-2,5.3l4.2-0.4l2.1-0.2l1-0.1c0.4,0,0.6,0,1.3-0.1c0.4-0.1,0.8-0.2,1.2-0.3c0.5-0.2,1-0.5,1.4-0.8
			c0.5-0.4,0.9-0.9,1.2-1.5l1.1-1.8l2.2-3.5l1.2-1.9l-5.7-0.9c0.7,2.4,1.7,4.8,3,6.9c0.5,0.9,1.1,1.7,1.8,2.4
			C149.4,39.1,149.1,38.1,149.2,37.4z"/>
	</g>
</g>
</svg>
