<svg xmlns="http://www.w3.org/2000/svg" viewBox="0 0 195.63 173.58"><defs><style>.cls-1{fill:#3acaac;}</style></defs><title>icoon-fair</title><g id="Layer_2" data-name="Layer 2"><g id="Layer_2-2" data-name="Layer 2"><path class="cls-1" d="M154.52,147.07a786.77,786.77,0,0,0,41.1-103.12c.5-1.56-13.8,1.68-11.68,1.17a245.07,245.07,0,0,0-26.3,8.14,245.51,245.51,0,0,0-25.52,10.34c-3.33,1.65-7.81,3.19-9.78,6.49q-2,3.39-4.18,6.71l1-1.47a218.46,218.46,0,0,1-34.33,40.34,242.43,242.43,0,0,1-43.62,32.09l69-22.47c-1.13-4.12.09-7.18,2.35-10.66l-1,1.47c5.07-6.87,10.78-13,15.5-20.22,5.48-8.31,10.55-16.87,15.39-25.56A501.92,501.92,0,0,0,166,23.08a7.11,7.11,0,0,0-5.68-.11,132.72,132.72,0,0,0-13.63,3.34,315.68,315.68,0,0,0-37,13.2C96.27,45.25,83.59,52,72.18,61.08A269.68,269.68,0,0,0,47.7,84C40,91.95,32.46,100.08,24.57,107.85c-3.67,3.61-7.41,7.15-11.32,10.49-1.83,1.57-3.69,3.09-5.61,4.55-1,.76-2,1.48-3,2.24-2.64,2,2.31-1.41-.68.47l68-21c7.7-10.86,10.49-23.83,17.34-35.09L88.3,71c5.41-8.2,12.4-15,17.19-23.71,4.48-8.11,7-16.92,6.13-26.21-.29-3.23-35.22,8.32-38,9.32A245.51,245.51,0,0,0,48.14,40.71c-1.9.94-10,3.91-9.78,6.49,1,11.49-3.12,21.9-9.28,31.4l1-1.47c-5.51,8.11-12.59,14.89-17,23.77C9,109.25,6.52,118.23,1.66,126.23l1-1.47q-1,1.56-2.08,3c-2.17,3.05,2.76,1.9,4.73,1.58a139.18,139.18,0,0,0,18.07-4.72c8.06-2.49,16.08-5.22,23.92-8.32,7.13-2.82,14.78-5.45,21.28-9.54,17.78-11.19,31.84-26.56,46.28-41.61C122.14,57.57,129.54,50,137.49,43a148.53,148.53,0,0,1,11.64-9.34c.31-.22,3.39-2.32,1.68-1.2s1.37-.83,1.7-1a36.31,36.31,0,0,0,3.41-1.93l-3.18,1.64q4.15-2-3.77,1.68L92.68,49.23a465,465,0,0,1-37.3,70.29l1-1.47a146.75,146.75,0,0,1-9.87,13.69c-4.62,5.54-11.81,11.76-9.63,19.7.89,3.24,27.44-5.73,28.19-6,13.75-4.53,28.17-9.21,40.76-16.49,36.33-21,68.1-48.83,89.83-85L122.33,70.1a786.77,786.77,0,0,1-41.1,103.12c-.66,1.38,14-1.72,11.68-1.17a245.07,245.07,0,0,0,26.3-8.14,245.51,245.51,0,0,0,25.52-10.34c3.12-1.55,8.19-3.18,9.78-6.49Z"/></g><g id="Layer_1-2" data-name="Layer 1"><path d="M96.38,139.93c0-.19-.08-1-.12-2a17.22,17.22,0,0,1,.23-3.47c.39-2.35,1.29-4.21,1.3-3.51s-.59,4,.13,7.06a11.72,11.72,0,0,0,1.54,3.8l.42.61.38.42c.21.23.35.34.39.31s0-.23-.09-.51-.27-.68-.43-1.16A12.35,12.35,0,0,1,99.5,138c-.1-2.58.76-4.94.93-4.66a12.81,12.81,0,0,1,.57,1.82c.17.57.36.84.49.21.08-.32.16-.86.35-1.73a16,16,0,0,1,1.22-3.53,21.62,21.62,0,0,1,3.81-5.37,70.42,70.42,0,0,1,8.29-7.17l12-9.43c4-3.17,8-6.2,12.07-9.56,8.21-6.7,15.35-15.57,18.91-26.08s3.22-22.59-2.29-32.67a31.82,31.82,0,0,0-5.13-7,21.91,21.91,0,0,0-3.55-2.93A19.28,19.28,0,0,0,143,27.81a29.88,29.88,0,0,0-4.23-1.13c-1.36-.27-2.7-.46-4.06-.63a57.91,57.91,0,0,0-14.32.09,57,57,0,0,0-7.72,1.56,32.43,32.43,0,0,0-10.26,4.62,21,21,0,0,0-5.77,6.09A27.76,27.76,0,0,0,94.32,43a22.67,22.67,0,0,0-.85,2.54c-.54,2.22.54.42,1.49-.4.54-.46.5.77.49,2.13s0,2.84.32,3,1.48-2.55,2.85-4.92,3-4.29,3.07-4c.08.91-.84,3.54.05,2.38.23-.28.56-.8,1.11-1.54a16,16,0,0,1,2.52-2.74A19.88,19.88,0,0,1,111,36.19a45.09,45.09,0,0,1,10.3-2.54h0a50.15,50.15,0,0,1,5.35-.41,49.54,49.54,0,0,1,7.51.39,28.48,28.48,0,0,1,6.9,1.58,13.62,13.62,0,0,1,5,3.78,25.81,25.81,0,0,1,3.83,5.9,32,32,0,0,1,3,14,36.6,36.6,0,0,1-3.16,14.25,48,48,0,0,1-8.09,12.58,81.54,81.54,0,0,1-11.48,10.38l-12.74,10-6.37,5c-2.11,1.66-4.3,3.35-6.46,5.26a35.38,35.38,0,0,0-7.24,8.44,21.84,21.84,0,0,0-2.82,7.9,15.72,15.72,0,0,0,.91,8.6C96.78,143.82,96.12,141.27,96.38,139.93Z"/><path d="M95,31.83c0,.21.42,1.27.57,2.19s.16,1.72-.13,1.55-.88-1.3-1.69-2.18S92,32,91.89,32.15s.35,1.08.49,2S92.52,36,92.3,36c-.68-.05-1.37-.59-1.43-.1a10,10,0,0,0,.36,1.91c.13.61.3,1.51.49,2.61s.4,2.42.6,4a62.49,62.49,0,0,1,.36,10.69c0,.89-.11,1.78-.2,2.67a19.93,19.93,0,0,1-.32,2.35,3.4,3.4,0,0,1-.43,1.18l0,0,0,0,0,0,.6,1c.07.13.14.26.2.39a3.7,3.7,0,0,1,.25.7,1.45,1.45,0,0,1,0,.44c0,.09,0,.11,0,0a2.38,2.38,0,0,1,.42-.53,12.37,12.37,0,0,1,1.49-1.23L95,62h0l0,0,0-.05-.07-.12a3.65,3.65,0,0,1-.28-.65A13,13,0,0,1,94.09,59c-.27-1.83-.55-3.71-.78-5.52a54.3,54.3,0,0,1-.49-10.59c0-.64.11-1.28.19-1.91.11-.8.24-1.6.42-2.37a28,28,0,0,1,1.68-5.15,15.26,15.26,0,0,0,.84-2c.15-.72-.51-.44-1.2-.44-.39,0-.56-.55-.69-1.18s-.18-1.32-.48-1.55-1.15.51-2,1.29S89.94,31.2,89.8,31c-.43-.56-.16-1.93-.7-1.43a8.86,8.86,0,0,0-1.49,2.57A29.1,29.1,0,0,0,85.51,40h0c-.1.79-.18,1.58-.24,2.37a63.75,63.75,0,0,0,.62,12.76l.42,3c.15,1,.27,1.95.49,3.13a13.93,13.93,0,0,0,1.27,3.9,9.54,9.54,0,0,0,.62,1,5.73,5.73,0,0,0,1.4,1.49,4.74,4.74,0,0,0,1.7.78,4.8,4.8,0,0,0,1.8.07,5.54,5.54,0,0,0,2.13-.81,7.68,7.68,0,0,0,2.15-2A9.38,9.38,0,0,0,99,63.54a16,16,0,0,0,.86-3.84c.24-2.13.38-4.23.42-6.36a69.6,69.6,0,0,0-.88-12.68c-.24-1.52-.5-2.77-.76-3.88a19.4,19.4,0,0,0-.94-3,8.19,8.19,0,0,0-2-3.07C94.72,29.95,95.18,31.09,95,31.83Z"/><path d="M91.74,168.45c.28-.37.46-5.36,1-4.68a20.54,20.54,0,0,1,.88,3.75c.34,1.66.67,3.22.85,3.21s.49-1.63.71-3.18.48-3.08.7-2.95c.65.4,1.15,2.08,1.35,1.18s0-4.37-.14-14.41c-.19-11.21-.12-22.47,0-33.75l.05-8.47q0-4.18.13-8.39c.13-5.61.33-11.27.37-17V80.56l0-4.14c-.22-8.78-.84-12.38-1.22-13.58s-.68,0-1.18.62-2-2.28-2.78-2.18c-.26,0-.42,1.65-.58,3.21s-.38,3.08-.6,2.95c-.66-.38-1.22-2-1.39-1.13a26.18,26.18,0,0,0,0,3.74c.07,2.21.21,5.53.22,10.51v3.17c0,5.91-.26,11.86-.39,17.87-.07,3-.11,6-.12,9l-.06,9c-.08,12-.14,23.94.14,36,.22,8.67.62,12.24,1,13.45S91.21,169.09,91.74,168.45Z"/><path d="M39.79,34.14c.27.19,1.33-.11,1.49.36s-.47,1.59-.22,1.86,1.76.32,2,.7c.32.54.38,1,.64,1.13s.71-.18,2-1a15.19,15.19,0,0,1,9.84-1.88l.47.08.64.13a12.09,12.09,0,0,0,1.89.31,1.68,1.68,0,0,0,1-.14c.33-.22.1-.66,0-1.25s.75-1.69.78-2.44c0-.51-.91-1.52-.76-1.93.19-.6.51-1,.42-1.23s-.17-.24-.52-.37a14.23,14.23,0,0,0-2-.52h0l-.72-.12a22.66,22.66,0,0,0-15.6,3.29c-1.65,1.07-2.16,1.74-2.2,2.1S39.32,33.78,39.79,34.14Z"/><path d="M29.93,55.56c.32-.07.73-.83,1.19-.73s1,1,1.34.95,1.35-.92,1.77-.88c1.29.09,1.59.76,1.65-1.59a19.57,19.57,0,0,1,2-7.63c.06-.11.11-.23.17-.33l.23-.42c1-1.72.49-1.66-.57-2.18-.59-.28-1.28-1.26-1.9-1.69-.42-.31-1.66,0-2-.25-.49-.39-.68-.85-1-.86s-.71.41-1.49,1.87h0c-.09.15-.16.31-.24.47a27.08,27.08,0,0,0-2.87,11.26c0,1.41.14,2,.4,2.16S29.36,55.68,29.93,55.56Z"/><path d="M31.77,83.16c.27-.19.32-1.21.8-1.25s1.35.84,1.69.68.85-1.56,1.26-1.67c.61-.16,1.1-.06,1.27-.29s0-.78-.49-2.32a32.69,32.69,0,0,1-1.58-10.74v-.51l0-.65c.21-2.75-.24-2.31-1.43-2.25-.66,0-1.7-.64-2.45-.75-.52-.08-1.51,1-1.92.91-.62-.15-1-.53-1.25-.38s-.47.84-.55,2.85h0l0,.64a40.17,40.17,0,0,0,2.2,14c.57,1.62,1,2.21,1.3,2.32S31.29,83.48,31.77,83.16Z"/><path d="M50.63,102.1c.12-.31-.41-1.13-.07-1.46s1.53-.16,1.73-.48-.24-1.75,0-2.09c.8-1,1.81-.78-1.07-2.56a24.73,24.73,0,0,1-7.63-6.74l-.24-.37c-.1-.16-.19-.31-.28-.47-.56-1-.8-1.38-1.1-1.44s-.63.22-1.14.51a15.82,15.82,0,0,1-2.5.49c-.51.15-.86,1.6-1.25,1.73-.61.17-1.13,0-1.28.26s0,1.08,1.14,2.93h0l.37.57a25.92,25.92,0,0,0,4.94,5.39,48.19,48.19,0,0,0,5.55,3.92C50.48,103.92,50.21,103.18,50.63,102.1Z"/><path d="M68.48,118.06c.2-.26.05-1,.44-1.3s1.34.06,1.61-.2.39-1.6.71-1.86c1-.78,1.87-.42-.16-2.48q-3.42-3.43-7.1-6.59l-.35-.3L63.2,105c-1.89-1.58-1.85-.9-2.44.09-.34.56-1.38,1.15-1.86,1.73-.33.41-.2,1.63-.5,1.92-.9.9-1.74.65.34,2.4h0l.33.28q3.66,3.13,7,6.57C67.71,119.6,67.76,119,68.48,118.06Z"/><path d="M90.23,137.68c.19-.27-.19-1.31.24-1.52s1.66.41,1.94.15.1-1.9.44-2.15c1-.73,2.19-.08-.76-3.12q-5-5.06-10.3-9.75l-.5-.44-.64-.56c-2.74-2.35-2.55-1.54-3.09-.5-.31.59-1.52,1-2,1.6-.33.4.1,1.9-.22,2.18-1,.85-2.1.32,1,3h0l.48.43q5.42,4.77,10.47,10C89.67,139.43,89.56,138.65,90.23,137.68Z"/><path d="M134.11,72.16A2.78,2.78,0,0,0,133,73.85a5.49,5.49,0,0,0-.25,2,10,10,0,0,0,.49,2.46c.54,1.67,1.38,3.34,1.84,4.42s.69,1.61.31,1.2a26.69,26.69,0,0,1-2.43-3.79,14.77,14.77,0,0,1-1.38-3.32,7.37,7.37,0,0,1,0-3.86,5.13,5.13,0,0,1,2.16-3.06,4.19,4.19,0,0,1,3.27-.37,3.8,3.8,0,0,1,2,1.37c.36.51.45.87.51.85s.08-.4-.2-1a4,4,0,0,0-2-1.87,5,5,0,0,0-3.93,0,6.24,6.24,0,0,0-3.13,3.24,8.84,8.84,0,0,0-.73,4.3,14.72,14.72,0,0,0,.73,3.5c.64,1.89,1.1,2.92.89,2.77a12.59,12.59,0,0,1-2.39-3.45c-.34-.67-.56-1.25-.68-1.4s-.15.13,0,1.05a19.85,19.85,0,0,0,1.69,4.38c.47.95,1,2,1.81,3.37a27.57,27.57,0,0,0,3.25,4.52,16.51,16.51,0,0,0,6.55,4.54,18.45,18.45,0,0,0,9.66.66,26.44,26.44,0,0,0,5.09-1.46,35.36,35.36,0,0,0,5-2.52,38.07,38.07,0,0,0,4.9-3.6A41.1,41.1,0,0,0,170.58,84,44.75,44.75,0,0,0,178,71,58.61,58.61,0,0,0,181.2,56.6a84.37,84.37,0,0,0,.14-14.44,55.08,55.08,0,0,0-2.79-14.52,38.79,38.79,0,0,0-7.84-13,43.7,43.7,0,0,0-11.88-9.21A47.82,47.82,0,0,0,129.74.48a50.18,50.18,0,0,0-14.26,4.3c-1.15.49-2.22,1.16-3.32,1.74S110,7.84,109,8.53s-2.06,1.49-3,2.25a23.35,23.35,0,0,1-2.36,1.78,4.88,4.88,0,0,1-1.89.73,6.9,6.9,0,0,1-2.29,0,41.77,41.77,0,0,1-6.09-1.58c-1.14-.34-2.39-.67-3.71-.93a20.19,20.19,0,0,0-4.29-.36,15.39,15.39,0,0,0-11.72,6.33,12.49,12.49,0,0,0-1.23,2.11,13.35,13.35,0,0,0-.82,2.3,12.7,12.7,0,0,0-.23,4.93,9.88,9.88,0,0,0,2.32,5A8.94,8.94,0,0,0,78.82,34a10.63,10.63,0,0,0,5.27-.48A12.55,12.55,0,0,0,88.33,31a14.33,14.33,0,0,0,2.94-3.71,16.12,16.12,0,0,0,1.86-8.73,16.76,16.76,0,0,0-2.86-8.36,16.93,16.93,0,0,0-6.79-5.61,19.9,19.9,0,0,0-8.29-1.79,20.13,20.13,0,0,0-12,4,21.51,21.51,0,0,0-8.43,13.32,23.44,23.44,0,0,0,.89,11.5A27.32,27.32,0,0,0,60.24,40a35.33,35.33,0,0,0,10.9,8.92,44.38,44.38,0,0,0,8.17,3.42,29.87,29.87,0,0,0,4.83,1.07c2.18.24,2.3,0,1.62-.25a31.4,31.4,0,0,1-3-1.33c-1.05-.61,1.12-.44,3.52-.59s5-.7,4.94-1.08A22.59,22.59,0,0,0,88,49.71a32.86,32.86,0,0,1-6.57-1.77,38.77,38.77,0,0,1-6-2.88c-1.49-.9-2.32-1.57-2.07-1.54.74.07,2.32.63,3.45.9s1.76.37.57-.29c-.59-.34-1.65-.87-3.22-1.81a32.41,32.41,0,0,1-6-4.56,22.8,22.8,0,0,1-3.38-4.16,19.29,19.29,0,0,1-2.49-6,15,15,0,0,1,.17-7.51,14.07,14.07,0,0,1,5.1-7.18l0,0a12.49,12.49,0,0,1,7.5-2.49c3.78,0,7.51,1.78,9.15,4.61a9.86,9.86,0,0,1,1,2.36,10.46,10.46,0,0,1,.28,2.6,7.77,7.77,0,0,1-1.54,4.59A5.16,5.16,0,0,1,82.45,26a4.33,4.33,0,0,1-1.81.58,1.65,1.65,0,0,1-1.1-.26,1.57,1.57,0,0,1-.6-.92,4.44,4.44,0,0,1-.09-1.91,5.5,5.5,0,0,1,.73-2,7.85,7.85,0,0,1,3.77-3A7.42,7.42,0,0,1,85.71,18a12.88,12.88,0,0,1,2.74.27c2,.41,4.25,1.21,6.85,1.9a24,24,0,0,0,4.3.75,13.46,13.46,0,0,0,5-.55,11.71,11.71,0,0,0,2.4-1,17.9,17.9,0,0,0,2-1.27c1.17-.86,2.05-1.68,2.93-2.29a41.2,41.2,0,0,1,25-8.24,38.55,38.55,0,0,1,24.63,8.68,33,33,0,0,1,8.26,10.08A37.19,37.19,0,0,1,173.44,39c1.05,9.19.82,18.78-1.88,27.36a38.28,38.28,0,0,1-6,11.81,30,30,0,0,1-9.74,8.46,19.6,19.6,0,0,1-7.74,2.43,9.07,9.07,0,0,1-5.68-1.25,13.45,13.45,0,0,1-3.74-3.89A47.6,47.6,0,0,1,136,79.38a13.41,13.41,0,0,1-1.32-3.31,6,6,0,0,1-.1-.6c0-.17,0-.32,0-.48a3.85,3.85,0,0,1,.09-.84,2.65,2.65,0,0,1,.67-1.34c0-.08.16-.19.2-.26s0-.18-.09-.28a1.23,1.23,0,0,0-.47-.23A1.78,1.78,0,0,0,134.11,72.16Z"/><path d="M99.78,42.92c-.16.05-.34.37-.56.62s-.47.41-.69.31-.4-.44-.64-.69-.48-.44-.66-.41a6.89,6.89,0,0,0-.9.43,1.71,1.71,0,0,1-.87.17c-.31,0-.57-.08-.78-.1l-.32,0-.27,0-.18,0h0a.34.34,0,0,0-.07.1c-.24.32-.56.6-1.67.81a13.24,13.24,0,0,1-1.9.16l-1.09,0a5.18,5.18,0,0,1-.7,0l-.18,0-.12,0h0l-.1.23c-.07.15-.11.26-.17.38a4.34,4.34,0,0,1-.32.54,1.75,1.75,0,0,1-.23.29.77.77,0,0,1-.14.14c-.11.09-.05,0-.05,0s0,0,0,0l-.23.11a3.78,3.78,0,0,1-.62.21c-.44.12-.93.13-1.29.21a1.19,1.19,0,0,0-.63.95c-.12.5-.06,1.06-.24,1.16-.55.35-1.29,0-1.29.43a2.33,2.33,0,0,0,.87,1.29,6.38,6.38,0,0,0,2.9,1.42h0l.73.14a12.81,12.81,0,0,0,1.85.13l1.44,0a18.87,18.87,0,0,0,3.24-.35,10.65,10.65,0,0,0,3.75-1.51,8.85,8.85,0,0,0,3-3.38,5.94,5.94,0,0,0,.67-2.66A1.92,1.92,0,0,0,101,42.7C100.71,42.36,100.35,42.75,99.78,42.92Z"/></g></g></svg>