<svg xmlns="http://www.w3.org/2000/svg" viewBox="0 0 324.84 107.25"><defs><style>.cls-1{fill:#3acaac;}</style></defs><title>icoon-vegan-mobile</title><g id="Layer_2" data-name="Layer 2"><g id="Layer_2-2" data-name="Layer 2"><path class="cls-1" d="M.28,62.75A82.81,82.81,0,0,0,20,93c4.78,4.75,19.38-6.29,22.67-8.6a85,85,0,0,0,13.18-11c2.9-3.07,6.35-6.48,7.37-10.72L71.5,28.16,28.27,58.44A106.64,106.64,0,0,0,60.58,88.19c6.29,3.8,18.06-5.37,22.67-8.6,7.8-5.46,17.2-12.4,20.56-21.68l9.75-27L70.34,61.21l25.1,30.94c1.83,2.26,7.67-.18,9.22-.84a74.23,74.23,0,0,0,13.46-7.76c7.57-5.3,17.62-12.44,20.56-21.68l3.92-12.31,1.68-5.27,1.12-3.52A5.44,5.44,0,0,1,144.07,43l-13.95,13,.93-.74-16.38,9.81-4.45,1.08,1,.79a15.39,15.39,0,0,0,2.36,2.24q3.19,3.06,6.35,6.13L132,87c4.87,4.71,19.3-6.24,22.67-8.6,7.44-5.21,17.84-12.48,20.56-21.68a65.29,65.29,0,0,1,4.54-11.51c1.07-2.09,2.27-4.08,3.47-6.1q1.7-2.58.45-.77,1-1.45,2.14-2.85L146.24,59.18l23.39,31.7c3.26,4.42,17.48-5,19.75-6.55a117.8,117.8,0,0,0,11.4-8.59c3.53-3,8.86-7.78,10.91-12.19l10.71-23.08L182.2,68.68a57.44,57.44,0,0,1,24.9,20.94c1.57,2.36,8-.31,9.22-.84A74.23,74.23,0,0,0,229.78,81a85,85,0,0,0,13.18-11c2.49-2.65,7.29-6.85,7.37-10.72a25.13,25.13,0,0,1,1.47-8.6c.15-.36,2.5-2.9,1.05-2-2.63,1.63-4.92,5.2-7.51,7.11L219.75,66.5,240.35,91c3.6,4.28,17.2-4.86,19.75-6.55,7.87-5.21,18-12.05,22.31-20.78a157.74,157.74,0,0,0,12.65-35.88L251.83,58.06A95.11,95.11,0,0,1,281.5,87c1.54,2.39,8-.36,9.22-.84a72,72,0,0,0,16.38-9.81c5-3.84,10.18-8,13.95-13,1.47-2,5.06-6,3.35-8.63a95.11,95.11,0,0,0-29.66-28.93c-6.18-3.88-18.16,5.44-22.67,8.6a85,85,0,0,0-13.18,11c-2.86,3-6.46,6.5-7.37,10.72a130.68,130.68,0,0,1-10.31,30l42.06-27.34L262.64,34.18c-1.88-2.24-7.61.15-9.22.84A82.34,82.34,0,0,0,237,44.83c-13.44,9.89-29.89,24.6-30.27,42.75L250,57.3c-7-10.6-17.06-17.72-28.64-22.71-1.76-.76-5.8,1.11-7.35,1.72a67.76,67.76,0,0,0-13.46,7.76c-6.63,4.65-15.85,11.1-19.39,18.73L170.46,85.89l42.06-27.34-23.39-31.7c-3-4.06-15,3.7-17,4.9-8.19,4.89-16.71,11.16-22.57,18.79a104.85,104.85,0,0,0-18,34.4l43.23-30.28L157.92,38.31c-2.3-2.22-4.62-4.94-7.83-5.86-5-1.44-11.72,2.13-16,4.47C121.25,44.06,106.86,54.57,101.81,69c-2.43,7-4.48,14.08-6.71,21.1l43.23-30.28-25.1-30.94c-1.83-2.26-7.67.18-9.22.84a74.23,74.23,0,0,0-13.46,7.76C82.76,43,73.35,49.88,70,59.16l-9.75,27,43.23-30.28A106.64,106.64,0,0,1,71.17,26.12c-1.64-2.33-7.89.27-9.22.84a74.23,74.23,0,0,0-13.46,7.76,85,85,0,0,0-13.18,11c-2.9,3.07-6.35,6.48-7.37,10.72L19.61,91,62.84,60.67A82.81,82.81,0,0,1,43.18,30.43c-.94-2.56-8.71.63-9.22.84a72,72,0,0,0-16.38,9.81c-5,3.84-10.18,8-13.95,13C1.86,56.51-.89,59.57.28,62.75Z"/></g><g id="Layer_1-2" data-name="Layer 1"><path d="M153.89,18.18a40.53,40.53,0,0,1,6.28,0c2.76.25,5.1,1,4.29.94a40.17,40.17,0,0,0-8.56.1A22,22,0,0,0,151,20.49a8.4,8.4,0,0,0-2,1,10.68,10.68,0,0,0,2.14-.49,24.88,24.88,0,0,1,4.62-.67,25.92,25.92,0,0,1,4.51.19c1.18.19,1.9.35,1.74.41-1,.29-4.56.49-2.7.72A38.23,38.23,0,0,1,167.09,23a44.63,44.63,0,0,1,8.42,3.36,17.53,17.53,0,0,1,4.59,3.28,17.1,17.1,0,0,1,3.38,5.8,58.39,58.39,0,0,1,3.36,17.68,137.34,137.34,0,0,1-.65,18.52c-.56,6.17-1.43,12.23-3.83,17.53S176,99,170.84,100.8a22.15,22.15,0,0,1-8.31,1.18c-.72,0-1.44-.08-2.16-.16s-1.67-.18-2.47-.23l-4.73-.25a26,26,0,0,1-4.25-.56,15.52,15.52,0,0,1-1.92-.58c-.72-.27-1.43-.55-2.11-.84a20.85,20.85,0,0,1-3.71-1.95,14.13,14.13,0,0,1-2.91-2.71,42,42,0,0,1-4.58-7.56,80.07,80.07,0,0,1-3.55-8.42A80.8,80.8,0,0,1,127.52,70a42.44,42.44,0,0,1-1.2-8.83,39.14,39.14,0,0,1,.36-6.71,41.07,41.07,0,0,1,2-8.33,45.24,45.24,0,0,1,5.16-10.47,45.93,45.93,0,0,1,5.12-6.43c.77-.8,1.45-1.52,2.12-2.1s1.2-1.13,1.72-1.55l1.31-1.12.94-.74c2-1.62-.06-.53-1.35-.11-.72.25.17-.78,1.26-1.92s2.46-2.27,2.33-2.51a8.35,8.35,0,0,0-2.06.9c-.61.28-1.26.71-2,1.14s-1.46.92-2.19,1.43c-2.93,2-5.46,4.43-5.34,4.08a14.93,14.93,0,0,1,1.47-2.25c.55-.69.84-1.1,0-.45A39.14,39.14,0,0,0,131,30.56a51.43,51.43,0,0,0-5.24,8.69c-.45.94-.91,1.93-1.31,3s-.83,2.2-1.21,3.4-.69,2.48-1,3.81-.58,2.75-.74,4.24v0a44.34,44.34,0,0,0-.41,7.54,48.15,48.15,0,0,0,1.48,10.45,87.33,87.33,0,0,0,3.05,9.86,80.9,80.9,0,0,0,4.2,9.46A33.48,33.48,0,0,0,136,99.94a19.54,19.54,0,0,0,4.72,3.28c.82.42,1.65.78,2.46,1.12l1.21.49c.4.16.78.31,1.26.47,3.7,1.29,7.39,1.29,10.63,1.46.81,0,1.61.09,2.39.16s1.64.19,2.55.25a31,31,0,0,0,5.46-.08,23.59,23.59,0,0,0,10.55-3.62,26.42,26.42,0,0,0,7.68-7.94,35.85,35.85,0,0,0,4.3-9.86,65.61,65.61,0,0,0,1.9-10.25c.38-3.4.64-6.73.85-10.13a95.39,95.39,0,0,0-.68-20.55,57.15,57.15,0,0,0-2.52-10.18,29.65,29.65,0,0,0-2.24-5A17.83,17.83,0,0,0,182.85,25a26.68,26.68,0,0,0-6.25-4A52.24,52.24,0,0,0,171,18.8a39.31,39.31,0,0,0-9.06-2,28.13,28.13,0,0,0-6.08.07,18.08,18.08,0,0,0-2,.32,10.5,10.5,0,0,0-1.35.33C149.74,18.46,152.44,18,153.89,18.18Z"/><path d="M186.69,33.92c.06.1.41.15.76.17s.7,0,.67.2-.44.56-.9.84-1,.48-1,.62.59.37,1.2.44,1.24,0,1.24.2c0,.47-.58,1-.15,1a3.76,3.76,0,0,0,1.55-.51,15.06,15.06,0,0,0,3.25-2.36,49.25,49.25,0,0,0,4.07-4.06,21.65,21.65,0,0,0,3.37-5.13,30.52,30.52,0,0,0,2.51-11.53l0-1.07,0-1.36c0-5.67-.41-4.57-1.18-4.18-.45.23-1.24-.76-1.77-.74-.36,0-.91,2.06-1.2,2s-.73-.67-.9-.38-.17,1.43-.23,4.54h0l0,1a24.56,24.56,0,0,1-2.27,10.06,17.29,17.29,0,0,1-2.92,4.07c-.6.64-1.24,1.28-1.91,1.91s-1.37,1.28-2,1.79a11.38,11.38,0,0,1-1.89,1.28,2.56,2.56,0,0,0-.66.42C186.22,33.32,186.46,33.55,186.69,33.92Z"/><path d="M201.91,7.49c-.23,0-1,1-1.19.75s0-1.8-.27-1.87-1.38,1-1.64.85-.51-.69-.73-.57-.49.79-1.51,2.56a16.55,16.55,0,0,1-4.62,5A69,69,0,0,1,185.4,18l-.66.36-.83.46-1.13.64c-.31.18-.59.36-.72.45s-.23.22-.22.32l.07.34a2.17,2.17,0,0,0,.18.48,1.49,1.49,0,0,1,.08.85c0,.33-.22.66-.22.92s.49.42,1,.46,1,0,1,.2c.12.43-.29.94.06,1s1.16-.35,3.24-1.49h0l.66-.36a65.44,65.44,0,0,0,7.51-4.5A21.84,21.84,0,0,0,201.6,11c1.06-2,1.22-3,1.17-3.32S202.34,7.48,201.91,7.49Z"/><path d="M130.4,26.92c0-.23-1.11-1.29-.75-1.44a3.29,3.29,0,0,1,1.2.18c.5.1,1,.2,1,.08.15-.32-1.08-1.72-.84-1.93s.87-.31.75-.58-.9-.73-2.92-2.42c-4.49-3.88-7.52-9.36-9.49-15.26l-.28-.84-.34-1.08c-.68-2.3-1-3.24-1.24-3.53s-.46.08-.81.34-1.36-.39-1.87-.27c-.36.08-.48,2-.78,2-.45,0-.86-.44-1-.14s.07,1.35,1,4.25h0l.3.92a47.29,47.29,0,0,0,4.6,10,33,33,0,0,0,7.43,8.42c2.17,1.68,3.26,2.11,3.67,2.14S130.36,27.36,130.4,26.92Z"/><path d="M126,38.91c0-.25-1.42-1.56-1-1.67s2.61.93,2.75.7-1.51-2.1-1.24-2.29,1.06-.16.88-.49a4.81,4.81,0,0,0-1.05-.92,32.73,32.73,0,0,1-2.84-2.32,11.94,11.94,0,0,1-3-4.39c-.72-1.76-1.4-3.9-2.09-5.89a88.78,88.78,0,0,1-3.35-12c-.07-.38-.15-.76-.2-1.14s-.16-1-.21-1.45a39.79,39.79,0,0,0-.59-4.72c-.19-.43-.47,0-.86.18s-1.23-.91-1.75-.93-.94,2.47-1.2,2.38c-.44-.15-.76-.84-.91-.47s-.27,1.84.35,5.84h0c.06.42.15.84.22,1.26a96.78,96.78,0,0,0,3.78,13.48l1.12,3.25a32.43,32.43,0,0,0,1.39,3.44,16.21,16.21,0,0,0,2.18,3.39,20.29,20.29,0,0,0,2.78,2.73,25.38,25.38,0,0,0,3.15,2.22,5.39,5.39,0,0,0,1.38.66C126.22,39.83,126,39.37,126,38.91Z"/><path d="M150.67,85.58c-.21.08-.41.58-.73.57s-.75-.36-1-.28-.82.64-1.12.65a5.82,5.82,0,0,0-.88.15l-.1.05,0,0h0l.12,0a6.05,6.05,0,0,1,.9-.07l.3,0,.1,0h0l.36.12h0c-.14-.06-.16-.14-.08,0a.55.55,0,0,1,.07.31h0l0,0h0l.05,0a1.3,1.3,0,0,1,.43-.15,4.4,4.4,0,0,1,.88-.07l.63,0c.07,0,0,0,0,0s0-.25,0-.24a4.11,4.11,0,0,1-1.29-.48l0,0h0l-.26-.22h0l.06.06s0,.05,0,0a.58.58,0,0,1,0-.37s0,0,0,0l.31-3.05h-.13a3.85,3.85,0,0,0-.87.15,3.44,3.44,0,0,0-1.07.54,2.66,2.66,0,0,0-.3.25s-.08.08-.06.07h0l1.16,1.37h0l0,0,.1.1.17.21c0,.06.11.18.13.19a0,0,0,0,1,0,.05s0,0,0,0a.18.18,0,0,0,.11,0,1.55,1.55,0,0,1,.33,0l.15,0,.43.09.89.19.42.1.09,0h0s0,0,0,0a.35.35,0,0,0-.1-.1c-.15-.13-.45-.12-.84-.19s-1.14-.47-1.65-.6a1.65,1.65,0,0,0-.69.05.72.72,0,0,0-.19.07s-.06,0-.1.1l-.05.1,0,0v0a1.47,1.47,0,0,0,0,.21,1.28,1.28,0,0,0,1.5,1.1,1.41,1.41,0,0,0,.4-.13c.07,0,0,0,.07,0h.07c.08,0,.14,0,.14,0a.54.54,0,0,1,0,.2l0,.11a1.72,1.72,0,0,1-1,.32,1.89,1.89,0,0,1-.59-.1,1.69,1.69,0,0,1-.51-.27,2,2,0,0,1-.71-1.2c0-.09,0-.24,0-.26v0l0-.05,0-.11c-.06-.13-.1-.28-.16-.28s-.1-.06-.18.14a1.27,1.27,0,0,0,0,.16l0,.1v.06a2.46,2.46,0,0,0,.09.7,2.52,2.52,0,0,0,1.06,1.44,2.49,2.49,0,0,0,1.78.34,2.52,2.52,0,0,0,.48-.14l.21-.1.13-.07.08,0,.16-.1c.3-.21.22-.11.22-.08a1,1,0,0,1-.73.33h0l1.67-4.59a3.23,3.23,0,0,0-.84-.53,3.37,3.37,0,0,0-2.7,0,3.58,3.58,0,0,0-1,.63,3.67,3.67,0,0,0-.68.83,4.48,4.48,0,0,0-.53,1.38,7.43,7.43,0,0,0-.14,1,3.9,3.9,0,0,0,.27,1.81,3.23,3.23,0,0,0,1,1.3,3.17,3.17,0,0,0,1.73.66,3.35,3.35,0,0,0,2.56-1,3.48,3.48,0,0,0,.73-1c0-.11.09-.21.13-.32l.08-.25a3.94,3.94,0,0,0,.1-.49,3.1,3.1,0,0,0-.14-1.53c-.1-.23-.19-.31-.29-.34S151,85.43,150.67,85.58Z"/><path d="M162.53,86.22c.16-.16.2-.71.52-.79s.84.16,1.05,0,.6-.84.88-.95c.81-.37,1-.4.88-.81V83.6l-2.25,1.07a.1.1,0,1,0,.15,0,.1.1,0,1,0,0,.15l1-.87a.83.83,0,0,1,.33-.28c.19-.1.32-.08.2-.08h-.08l-.14,0c-.35-.12-.36-.21-.36-.19l-.11-.11a7.34,7.34,0,0,1-1.07-1.39,1,1,0,0,0-.67-.27c-.28,0-.58,0-.69-.11-.32-.3-.34-.71-.57-.71s-.31.12-.54.45a3.74,3.74,0,0,0-.64,1.68h0a4.48,4.48,0,0,0,0,.5,4.83,4.83,0,0,0,.52,2.39,4.45,4.45,0,0,0,2,2l1.2.59,1.17-.61a3.4,3.4,0,1,0-3.25-6l-1.63.91.35,1.85a6.52,6.52,0,0,0,.21.83c.35,1,.72,1.32.94,1.34S162.23,86.48,162.53,86.22Z"/><path d="M174.7,56.62a.32.32,0,0,0-.06.23.39.39,0,0,0,0,.13.83.83,0,0,0,.06.16l0,.14,0,.15a1.31,1.31,0,0,1,0,.24,1.19,1.19,0,0,1-.09.47,1.14,1.14,0,0,1-.19.32s-.12.11-.09.07,0-.07,0-.11-.09-.15-.17-.15a.6.6,0,0,1-.23,0,.51.51,0,0,1-.19-.18s-.08,0-.05-.13a.59.59,0,0,0,0-.11.31.31,0,0,0,0-.17.23.23,0,0,0-.08-.12l-.11-.06c-.27-.12-.52-.24-.63-.17s-.22.44-.27.77c0,0,0,.09,0,.09l.19-.12.3-.17.1-.07a.8.8,0,0,1,.23-.1s0,0,0,0h0l-.81-.6h0v0c0-.07,0,0-.06,0a1.84,1.84,0,0,0-.21.16c-.24.21-.33.27-.4.23a.84.84,0,0,1-.14-.87c0-.15.11-.34,0-.26s0-.22-.16,0a2.49,2.49,0,0,0-.59.81,3.84,3.84,0,0,0-.29.92l0,.21,0,.05v0h0l.14,0,.26.07a3,3,0,0,1,.68.26,1.4,1.4,0,0,1-.16-.16,1.71,1.71,0,0,1-.27-.47,1.49,1.49,0,0,1-.06-.18v-.21h-.06a.48.48,0,0,1-.24-.21.51.51,0,0,1,.07-.33c.18-.23-.12,0,.92-.66l.36-.21.38-.2.28-.13s0,0,0,0l0-.19c0-.12,0-.28-.05-.35a3,3,0,0,1,0-.43c0-.42.06-.31,0-.32s0,0,0,0a2.26,2.26,0,0,1,.31-.53c.2-.24.5-.43.68-.62s0-.53-.28-.9-.75-.58-.7-.72c.11-.45.83-.63.51-.85a2.34,2.34,0,0,0-1.38-.14,6.37,6.37,0,0,0-2.34.88h0l-.48.28-.56.34-.42.26a6,6,0,0,0-.51.39,5.87,5.87,0,0,0-1.47,2,5.62,5.62,0,0,0,0,4.92,5.7,5.7,0,0,0,3.9,3A5.18,5.18,0,0,0,173,62.6a4.37,4.37,0,0,0,2.53-2.13,4.55,4.55,0,0,0,.47-1.71c0-.13,0-.09,0-.11s0,0,0,0,0,0,0,.06l-.07.17a2.47,2.47,0,0,1-.19.32,1.85,1.85,0,0,1-.16.19l-.06.06.17-.21.12-.18a2.61,2.61,0,0,0,.16-.3,2.58,2.58,0,0,0,.2-.64,2.6,2.6,0,0,0,0-1c0-.09-.07-.24-.07-.24a2.82,2.82,0,0,0-.15-.34l-.09-.16,0,0-.1-.13,0,0a.34.34,0,0,0-.21-.1C175.14,56.06,175,56.33,174.7,56.62Z"/><path d="M147,57.42c-.06.1,0,.51,0,.84s-.17.59-.33.54-.39-.37-.68-.55-.56-.24-.65-.14-.16.45-.31.65a.84.84,0,0,1-.5.36l-.29.07h0a1.11,1.11,0,0,1-.33.06.75.75,0,0,1-.21,0,.82.82,0,0,1,.27.17l.11.11,0,.05v0h0l-.14-.25a.58.58,0,0,1-.05-.18,1.16,1.16,0,0,1,0-.34c0-.13,0,0,0-.07l0,0s0-.05-.07,0l-.12.09h0l.21-.13h0v0l0-.08a2,2,0,0,1,.18-1.08,4.82,4.82,0,0,1,.91-1.45l.2-.2a2.34,2.34,0,0,1,.24-.19c.24-.17.27-.14.26-.21a.78.78,0,0,1,0-.22,4.19,4.19,0,0,0,.06-.83,2.11,2.11,0,0,1,.18-.83c.12-.3.32-.59.39-.84s-.19-.49-.53-.73-.75-.4-.73-.55c0-.46.54-.77.25-.93a2,2,0,0,0-1.19.05A5.92,5.92,0,0,0,141.65,52h0c-.18.17-.36.34-.52.52a9.94,9.94,0,0,0-2,3.32,6.79,6.79,0,0,0-.15,4.58,5.74,5.74,0,0,0,.61,1.22,5.07,5.07,0,0,0,1,1.08A5.39,5.39,0,0,0,143,64a4.9,4.9,0,0,0,3-.36,4.6,4.6,0,0,0,2.25-2.32,4.49,4.49,0,0,0,.21-3.22,2.47,2.47,0,0,0-.82-1.27C147.22,56.52,147.27,57.06,147,57.42Z"/><path d="M192.59,51.84c.19.17,1.94-.19,1.83.2s-2.13,1.51-2,1.75,2.49.08,2.5.38c0,.46-.48,1-.11,1s1.62-.34,5-1.81,6.48-3,9.63-4.68l2.9-1.56-2.17-2.48a27.66,27.66,0,0,0-5.71-5.06A18.16,18.16,0,0,0,197,36.72c-.45-.06-.91-.1-1.37-.12a16.58,16.58,0,0,0-1.76,0,12.28,12.28,0,0,0-4,.94,5,5,0,0,0-1.49.91c-.37.43.19.41.59.67s-.25,1.55.07,2c.11.16.69.05,1.25,0s1.08,0,1.09.18c0,.45-.31.91,0,1a4,4,0,0,0,1.05-.17,11.3,11.3,0,0,1,3-.27h0c.31,0,.61,0,.92.08,3.69.46,7.17,3,9.92,6.16l.74-4q-5.15,2.77-10.55,5.05C190.78,51.4,191.9,51.22,192.59,51.84Z"/><path d="M98.1,44.66c.22,0,1.16-1,1.33-.63s-.3,1.85,0,2,1.52-.86,1.75-.62.38.74.63.67.53-.69,1.93-2.09a11.41,11.41,0,0,1,5.82-3,9.74,9.74,0,0,1,3.23-.08,24.93,24.93,0,0,1,3.59.92l.76.23,1,.29c2.24.6,3.44.51,3.78.35s0-.46-.11-.87.7-1.21.66-1.74c0-.34-1.4-1-1.28-1.33s.51-.66.36-.85-.73-.24-2.94-.9h0l-.73-.22a26.69,26.69,0,0,0-4.66-1.12,15.31,15.31,0,0,0-5.22.27A16.6,16.6,0,0,0,99.22,41a10.8,10.8,0,0,0-1.58,2.26,2.52,2.52,0,0,0-.37,1.09C97.27,44.78,97.67,44.62,98.1,44.66Z"/><path d="M121.47,56.18c-.16-.17-1.44-.18-1.32-.54.06-.16.43-.42.77-.66s.62-.52.57-.64-.48-.29-.85-.41-.72-.29-.72-.44c0-.45.22-.8,0-.93a16.58,16.58,0,0,0-2.61,0A16.05,16.05,0,0,1,111,50.77a24.22,24.22,0,0,1-5.7-4l-.47-.46-.59-.6c-1.2-1.3-1.67-1.85-2-1.94s-.39.26-.63.6-1.31.29-1.74.59.13,1.77-.13,1.89c-.4.19-.89,0-.89.31s.46,1.07,2.25,2.88h0l.58.56a29.25,29.25,0,0,0,7.42,5.05,20.11,20.11,0,0,0,9.1,2.15c2.4-.11,3.37-.62,3.63-.87S121.73,56.52,121.47,56.18Z"/></g></g></svg>