<?xml version="1.0" encoding="utf-8"?>
<!-- Generator: Adobe Illustrator 21.0.0, SVG Export Plug-In . SVG Version: 6.00 Build 0)  -->
<svg version="1.1" id="Layer_1" xmlns="http://www.w3.org/2000/svg" xmlns:xlink="http://www.w3.org/1999/xlink" x="0px" y="0px"
	 viewBox="0 0 212.6 181.6" style="enable-background:new 0 0 212.6 181.6;" xml:space="preserve">
<style type="text/css">
	.st0{fill:#3ACAAC;}
</style>
<title>icoon-fair</title>
<g id="Layer_2">
	<g id="Layer_2-2">
		<path class="st0" d="M167.9,142.5c17.5-36.3,32.4-73.7,44.7-112.1c0.5-1.7-15,1.8-12.7,1.3c-9.7,2.4-19.2,5.4-28.6,8.8
			c-9.4,3.2-18.7,7-27.7,11.2c-3.6,1.8-8.5,3.5-10.6,7.1c-1.4,2.5-3,4.9-4.5,7.3l1.1-1.6c-10.6,16.1-23.1,30.8-37.3,43.8
			c-14.5,13.4-30.4,25.1-47.4,34.9l75-24.4c-1.2-4.5,0.1-7.8,2.6-11.6l-1.1,1.6c5.5-7.5,11.7-14.1,16.8-22c6-9,11.5-18.3,16.7-27.8
			c9.4-16.7,18-33.8,25.6-51.3c-2-0.9-4.2-0.9-6.2-0.1c-5,0.9-9.9,2.2-14.8,3.6c-13.7,3.9-27.1,8.7-40.2,14.3
			C104.6,31.8,90.8,39.2,78.4,49C69,56.8,60.1,65.1,51.8,74c-8.4,8.6-16.6,17.5-25.1,25.9c-4,3.9-8.1,7.8-12.3,11.4
			c-2,1.7-4,3.4-6.1,4.9c-1.1,0.8-2.2,1.6-3.3,2.4c-2.9,2.2,2.5-1.5-0.7,0.5l73.9-22.8C86.5,84.5,89.6,70.4,97,58.2l-1.1,1.6
			c5.9-8.9,13.5-16.3,18.7-25.8c4.9-8.8,7.6-18.4,6.7-28.5C121,2.1,83,14.6,80,15.7c-9.4,3.2-18.7,7-27.7,11.2
			c-2.1,1-10.9,4.2-10.6,7.1c1.1,12.5-3.4,23.8-10.1,34.1l1.1-1.6c-6,8.8-13.7,16.2-18.5,25.8c-4.4,9.1-7.1,18.8-12.4,27.5l1.1-1.6
			c-0.7,1.1-1.5,2.2-2.3,3.3c-2.4,3.3,3,2.1,5.1,1.7c6.7-1.3,13.2-3,19.6-5.1c8.8-2.7,17.5-5.7,26-9c7.7-3.1,16.1-5.9,23.1-10.4
			c19.3-12.2,34.6-28.9,50.3-45.2c7.9-8.2,16-16.5,24.6-24.1c4-3.6,8.3-7,12.7-10.2c0.3-0.2,3.7-2.5,1.8-1.3s1.5-0.9,1.8-1.1
			c1.3-0.6,2.5-1.3,3.7-2.1l-3.5,1.8c3-1.4,1.6-0.8-4.1,1.8l-61.2,17.8C89.2,62.7,75.6,88.2,60,112.5l1.1-1.6
			c-3.3,5.2-6.9,10.1-10.7,14.9c-5,6-12.8,12.8-10.5,21.4c1,3.5,29.8-6.2,30.6-6.5c14.9-4.9,30.6-10,44.3-17.9
			c39.5-22.8,74-53.1,97.6-92.4l-79.7,28.4c-12.2,38.4-27.2,75.8-44.7,112.1c-0.7,1.5,15.2-1.9,12.7-1.3c9.7-2.4,19.2-5.4,28.6-8.8
			c9.4-3.2,18.7-7,27.7-11.2C160.7,147.9,166.2,146.1,167.9,142.5L167.9,142.5z"/>
	</g>
	<g id="Layer_1-2">
		<path d="M103.6,146.5c0-0.2-0.1-1-0.1-2.1c0-1.2,0-2.4,0.2-3.6c0.4-2.5,1.3-4.4,1.4-3.7c0,0.7-0.6,4.2,0.1,7.4
			c0.3,1.4,0.8,2.8,1.6,4l0.4,0.6l0.4,0.4c0.2,0.2,0.4,0.4,0.4,0.3c0,0,0-0.2-0.1-0.5s-0.3-0.7-0.4-1.2c-0.4-1.2-0.6-2.4-0.7-3.6
			c-0.1-2.7,0.8-5.2,1-4.9c0.2,0.6,0.4,1.3,0.6,1.9c0.2,0.6,0.4,0.9,0.5,0.2c0.1-0.3,0.2-0.9,0.4-1.8c0.3-1.3,0.7-2.5,1.3-3.7
			c1-2.1,2.4-4,4-5.6c2.7-2.7,5.6-5.2,8.7-7.5l12.6-9.9c4.2-3.3,8.4-6.5,12.6-10c8.6-7,16.1-16.3,19.8-27.3s3.4-23.6-2.4-34.2
			c-1.4-2.7-3.3-5.1-5.4-7.3c-1.1-1.1-2.4-2.2-3.7-3.1c-1.4-0.9-2.8-1.6-4.4-2.2c-1.4-0.5-2.9-0.9-4.4-1.2c-1.4-0.3-2.8-0.5-4.2-0.7
			c-5-0.6-10-0.6-15,0.1c-2.7,0.4-5.4,0.9-8.1,1.6c-3.8,1-7.5,2.6-10.7,4.8c-2.4,1.7-4.5,3.9-6,6.4c-1,1.5-1.8,3.1-2.4,4.8
			c-0.3,0.9-0.6,1.8-0.9,2.7c-0.6,2.3,0.6,0.4,1.6-0.4c0.6-0.5,0.5,0.8,0.5,2.2s0,3,0.3,3.1c0.3,0.2,1.5-2.7,3-5.1
			c1.4-2.5,3.1-4.5,3.2-4.2c0.1,1-0.9,3.7,0.1,2.5c0.2-0.3,0.6-0.8,1.2-1.6c0.8-1.1,1.6-2,2.6-2.9c1.8-1.5,3.8-2.6,5.9-3.4
			c3.5-1.3,7.1-2.2,10.8-2.7l0,0c1.9-0.2,3.7-0.4,5.6-0.4c2.6-0.1,5.3,0.1,7.9,0.4c2.5,0.2,4.9,0.8,7.2,1.7c2,0.9,3.8,2.2,5.2,4
			c1.6,1.9,3,3.9,4,6.2c2.1,4.6,3.2,9.6,3.1,14.6c-0.1,5.1-1.2,10.2-3.3,14.9c-2.1,4.8-5,9.2-8.5,13.2c-3.6,4-7.7,7.6-12,10.9
			l-13.3,10.5l-6.7,5.2c-2.2,1.7-4.5,3.5-6.8,5.5c-3,2.5-5.5,5.5-7.6,8.8c-1.5,2.5-2.5,5.3-2.9,8.3c-0.5,3-0.2,6.1,1,9
			C104,150.6,103.3,147.9,103.6,146.5z"/>
		<path d="M102.2,33.4c0,0.2,0.4,1.3,0.6,2.3s0.2,1.8-0.1,1.6c-0.3-0.2-0.9-1.4-1.8-2.3c-0.8-0.9-1.8-1.5-1.9-1.3s0.4,1.1,0.5,2.1
			s0.1,1.9-0.1,1.9c-0.7-0.1-1.4-0.6-1.5-0.1c0.1,0.7,0.2,1.3,0.4,2c0.1,0.6,0.3,1.6,0.5,2.7s0.4,2.5,0.6,4.2
			c0.4,3.7,0.6,7.5,0.4,11.2c0,0.9-0.1,1.9-0.2,2.8c-0.1,0.8-0.2,1.6-0.3,2.5c-0.1,0.4-0.2,0.9-0.4,1.2l0,0l0,0l0,0l0.6,1
			c0.1,0.1,0.1,0.3,0.2,0.4c0.1,0.2,0.2,0.5,0.3,0.7c0,0.2,0,0.3,0,0.5c0,0.1,0,0.1,0,0c0.1-0.2,0.3-0.4,0.4-0.6
			c0.5-0.5,1-0.9,1.6-1.3l0.3-0.1l0,0l0,0v-0.1l-0.1-0.1c-0.1-0.2-0.2-0.4-0.3-0.7c-0.3-0.7-0.5-1.5-0.6-2.3
			c-0.3-1.9-0.6-3.9-0.8-5.8c-0.5-3.7-0.7-7.4-0.5-11.1c0-0.7,0.1-1.3,0.2-2c0.1-0.8,0.3-1.7,0.4-2.5c0.4-1.8,1-3.7,1.8-5.4
			c0.3-0.7,0.6-1.4,0.9-2.1c0.2-0.8-0.5-0.5-1.3-0.5c-0.4,0-0.6-0.6-0.7-1.2c-0.1-0.7-0.2-1.4-0.5-1.6s-1.2,0.5-2.1,1.3
			s-1.7,1.7-1.9,1.5c-0.4-0.6-0.2-2-0.7-1.5c-0.7,0.8-1.2,1.7-1.6,2.7c-1.1,2.6-1.9,5.4-2.2,8.2l0,0c-0.1,0.8-0.2,1.7-0.3,2.5
			c-0.2,4.5,0,8.9,0.6,13.3l0.4,3.1c0.2,1,0.3,2,0.5,3.3c0.2,1.4,0.7,2.8,1.3,4.1c0.2,0.4,0.4,0.7,0.6,1c0.4,0.6,0.9,1.1,1.5,1.6
			c0.5,0.4,1.1,0.7,1.8,0.8c0.6,0.1,1.3,0.2,1.9,0.1c0.8-0.1,1.6-0.4,2.2-0.8c0.9-0.5,1.6-1.3,2.2-2.1c0.5-0.7,0.9-1.5,1.2-2.2
			c0.5-1.3,0.8-2.6,0.9-4c0.3-2.2,0.4-4.4,0.4-6.7c0.1-4.4-0.2-8.9-0.9-13.3c-0.3-1.6-0.5-2.9-0.8-4.1c-0.2-1.1-0.6-2.1-1-3.1
			c-0.4-1.2-1.2-2.3-2.1-3.2C101.9,31.5,102.4,32.7,102.2,33.4z"/>
		<path d="M98.8,176.3c0.3-0.4,0.5-5.6,1-4.9c0.4,1.3,0.7,2.6,0.9,3.9c0.4,1.7,0.7,3.4,0.9,3.4s0.5-1.7,0.7-3.3s0.5-3.2,0.7-3.1
			c0.7,0.4,1.2,2.2,1.4,1.2s0-4.6-0.1-15.1c-0.2-11.7-0.1-23.5,0-35.3l0.1-8.9c0-2.9,0-5.8,0.1-8.8c0.1-5.9,0.3-11.8,0.4-17.8v-3.3
			V80c-0.2-9.2-0.9-12.9-1.3-14.2c-0.4-1.3-0.7,0-1.2,0.6s-2.1-2.4-2.9-2.3c-0.3,0-0.4,1.7-0.6,3.4c-0.2,1.6-0.4,3.2-0.6,3.1
			c-0.7-0.4-1.3-2.1-1.5-1.2c-0.1,1.3-0.1,2.6,0,3.9c0.1,2.3,0.2,5.8,0.2,11v3.3c0,6.2-0.3,12.4-0.4,18.7c-0.1,3.1-0.1,6.3-0.1,9.4
			l-0.1,9.4c-0.1,12.6-0.1,25,0.1,37.7c0.2,9.1,0.6,12.8,1,14.1C98,178.2,98.2,177,98.8,176.3z"/>
		<path d="M44.4,35.9c0.3,0.2,1.4-0.1,1.6,0.4s-0.5,1.7-0.2,1.9c0.3,0.3,1.8,0.3,2.1,0.7c0.3,0.6,0.4,1,0.7,1.2
			c0.3,0.1,0.7-0.2,2.1-1c3.1-1.8,6.7-2.5,10.3-2l0.5,0.1l0.7,0.1c0.6,0.2,1.3,0.3,2,0.3c0.4,0.1,0.7,0,1-0.1c0.3-0.2,0.1-0.7,0-1.3
			s0.8-1.8,0.8-2.6c0-0.5-1-1.6-0.8-2c0.2-0.6,0.5-1,0.4-1.3c-0.1-0.2-0.2-0.3-0.5-0.4c-0.7-0.2-1.4-0.4-2.1-0.5l0,0l-0.8-0.1
			c-5.7-0.9-11.5,0.4-16.3,3.4c-1.7,1.1-2.3,1.8-2.3,2.2S43.9,35.5,44.4,35.9z"/>
		<path d="M34.1,58.3c0.3-0.1,0.8-0.9,1.2-0.8c0.5,0.1,1,1,1.4,1s1.4-1,1.9-0.9c1.3,0.1,1.7,0.8,1.7-1.7c0.1-2.8,0.9-5.5,2.1-8
			c0.1-0.1,0.1-0.2,0.2-0.3l0.2-0.4c1-1.8,0.5-1.7-0.6-2.3c-0.6-0.3-1.3-1.3-2-1.8c-0.4-0.3-1.7,0-2.1-0.3c-0.5-0.4-0.7-0.9-1-0.9
			s-0.7,0.4-1.6,2l0,0c-0.1,0.2-0.2,0.3-0.3,0.5c-1.8,3.7-2.9,7.7-3,11.8c0,1.5,0.1,2.1,0.4,2.3C33,58.6,33.5,58.4,34.1,58.3z"/>
		<path d="M36,87.1c0.3-0.2,0.3-1.3,0.8-1.3s1.4,0.9,1.8,0.7c0.4-0.2,0.9-1.6,1.3-1.7c0.6-0.2,1.2-0.1,1.3-0.3
			c0.2-0.2,0-0.8-0.5-2.4c-1.2-3.6-1.7-7.4-1.7-11.2v-0.5v-0.7c0.2-2.9-0.3-2.4-1.5-2.4c-0.7,0-1.8-0.7-2.6-0.8c-0.5-0.1-1.6,1-2,1
			c-0.6-0.2-1-0.6-1.3-0.4s-0.5,0.9-0.6,3l0,0v0.7c-0.1,5,0.7,9.9,2.3,14.6c0.6,1.7,1,2.3,1.4,2.4S35.5,87.5,36,87.1z"/>
		<path d="M55.8,106.9c0.1-0.3-0.4-1.2-0.1-1.5s1.6-0.2,1.8-0.5s-0.3-1.8,0-2.2c0.8-1,1.9-0.8-1.1-2.7c-3.1-1.8-5.8-4.2-8-7.1
			l-0.3-0.4c-0.1-0.2-0.2-0.3-0.3-0.5c-0.6-1-0.8-1.4-1.2-1.5s-0.7,0.2-1.2,0.5c-0.9,0.2-1.7,0.4-2.6,0.5c-0.5,0.2-0.9,1.7-1.3,1.8
			c-0.6,0.2-1.2,0-1.3,0.3c-0.2,0.3,0,1.1,1.2,3.1l0,0l0.4,0.6c1.4,2.1,3.2,4,5.2,5.6c1.8,1.5,3.8,2.9,5.8,4.1
			C55.6,108.8,55.3,108.1,55.8,106.9z"/>
		<path d="M74.4,123.6c0.2-0.3,0.1-1,0.5-1.4s1.4,0.1,1.7-0.2s0.4-1.7,0.7-1.9c1-0.8,2-0.4-0.2-2.6c-2.4-2.4-4.9-4.7-7.4-6.9
			l-0.4-0.3l-0.4-0.3c-2-1.7-1.9-0.9-2.6,0.1c-0.4,0.6-1.4,1.2-1.9,1.8c-0.3,0.4-0.2,1.7-0.5,2c-0.9,0.9-1.8,0.7,0.4,2.5l0,0
			l0.3,0.3c2.6,2.2,5,4.5,7.3,6.9C73.6,125.2,73.7,124.6,74.4,123.6z"/>
		<path d="M97.2,144.2c0.2-0.3-0.2-1.4,0.3-1.6c0.4-0.2,1.7,0.4,2,0.2c0.3-0.3,0.1-2,0.5-2.2c1-0.8,2.3-0.1-0.8-3.3
			c-3.5-3.5-7.1-6.9-10.8-10.2l-0.5-0.5l-0.7-0.6c-2.9-2.5-2.7-1.6-3.2-0.5c-0.3,0.6-1.6,1-2.1,1.7c-0.3,0.4,0.1,2-0.2,2.3
			c-1,0.9-2.2,0.3,1,3.1l0,0l0.5,0.4c3.8,3.3,7.4,6.8,11,10.5C96.6,146,96.5,145.2,97.2,144.2z"/>
		<path d="M143.1,75.6c-0.6,0.4-1,1.1-1.2,1.8c-0.2,0.7-0.3,1.4-0.3,2.1c0.1,0.9,0.2,1.7,0.5,2.6c0.6,1.7,1.4,3.5,1.9,4.6
			s0.7,1.7,0.3,1.3c-1-1.2-1.8-2.6-2.5-4c-0.6-1.1-1.1-2.3-1.4-3.5c-0.4-1.3-0.4-2.7,0-4c0.3-1.3,1.1-2.5,2.3-3.2
			c1-0.6,2.3-0.7,3.4-0.4c0.8,0.2,1.6,0.7,2.1,1.4c0.4,0.5,0.5,0.9,0.5,0.9c0.1,0,0.1-0.4-0.2-1c-0.4-0.9-1.2-1.6-2.1-2
			c-1.3-0.6-2.8-0.6-4.1,0c-1.5,0.7-2.6,1.9-3.3,3.4c-0.6,1.4-0.9,3-0.8,4.5c0.1,1.2,0.4,2.5,0.8,3.7c0.7,2,1.2,3.1,0.9,2.9
			c-1-1.1-1.9-2.3-2.5-3.6c-0.4-0.7-0.6-1.3-0.7-1.5s-0.2,0.1,0,1.1c0.4,1.6,1,3.1,1.8,4.6c0.5,1,1,2.1,1.9,3.5
			c1,1.7,2.1,3.3,3.4,4.7c1.9,2.1,4.2,3.7,6.9,4.7c3.2,1.1,6.7,1.4,10.1,0.7c1.8-0.3,3.6-0.8,5.3-1.5c1.8-0.7,3.6-1.6,5.2-2.6
			c1.8-1.1,3.5-2.4,5.1-3.8c1.7-1.5,3.3-3.2,4.8-5c3.3-4.1,6-8.7,7.8-13.6c1.7-4.9,2.9-9.9,3.3-15.1c0.5-5,0.5-10.1,0.1-15.1
			c-0.3-5.2-1.3-10.3-2.9-15.2c-1.8-5-4.6-9.7-8.2-13.6c-3.6-3.9-7.8-7.2-12.4-9.6c-9.3-4.9-20-6.7-30.4-5.2
			c-5.2,0.7-10.2,2.3-14.9,4.5c-1.2,0.5-2.3,1.2-3.5,1.8s-2.3,1.4-3.3,2.1c-1,0.7-2.2,1.6-3.1,2.4c-0.8,0.7-1.6,1.3-2.5,1.9
			c-0.6,0.4-1.3,0.7-2,0.8c-0.8,0.1-1.6,0.1-2.4,0c-2.2-0.4-4.3-0.9-6.4-1.7c-1.2-0.4-2.5-0.7-3.9-1C95,11.1,93.5,11,92,11
			c-4.9,0.2-9.4,2.7-12.3,6.6c-0.5,0.7-0.9,1.4-1.3,2.2c-0.4,0.8-0.6,1.6-0.9,2.4c-0.4,1.7-0.5,3.4-0.2,5.2c0.3,1.9,1.1,3.8,2.4,5.2
			c1.4,1.6,3.3,2.7,5.4,3c1.9,0.3,3.7,0.1,5.5-0.5c1.6-0.6,3.1-1.5,4.4-2.6c1.2-1.1,2.3-2.4,3.1-3.9c1.5-2.8,2.2-6,1.9-9.1
			c-0.2-3.1-1.2-6.1-3-8.7c-1.8-2.5-4.3-4.6-7.1-5.9C87.2,3.7,84.2,3,81.2,3c-4.5,0-8.9,1.5-12.6,4.2c-4.6,3.4-7.7,8.3-8.8,13.9
			c-0.7,4-0.4,8.2,0.9,12c1.1,3.2,2.7,6.1,4.8,8.8c3.1,3.8,7,7,11.4,9.3c2.7,1.5,5.6,2.7,8.5,3.6c1.7,0.5,3.3,0.9,5.1,1.1
			c2.3,0.3,2.4,0,1.7-0.3c-1.1-0.4-2.1-0.9-3.1-1.4c-1.1-0.6,1.2-0.5,3.7-0.6c2.5-0.2,5.2-0.7,5.2-1.1c-1.1-0.2-2.2-0.4-3.4-0.5
			c-2.3-0.4-4.7-1-6.9-1.9c-2.2-0.8-4.3-1.8-6.3-3c-1.6-0.9-2.4-1.6-2.2-1.6c0.8,0.1,2.4,0.7,3.6,0.9s1.8,0.4,0.6-0.3
			c-0.6-0.4-1.7-0.9-3.4-1.9c-2.3-1.3-4.4-2.9-6.3-4.8c-1.3-1.3-2.5-2.8-3.5-4.4c-1.2-1.9-2.1-4.1-2.6-6.3c-0.6-2.6-0.5-5.3,0.2-7.9
			c0.9-3,2.8-5.6,5.3-7.5l0,0c2.3-1.7,5-2.6,7.8-2.6c4,0,7.9,1.9,9.6,4.8c0.5,0.8,0.8,1.6,1,2.5s0.3,1.8,0.3,2.7
			c0,1.7-0.6,3.4-1.6,4.8c-0.4,0.6-1,1.1-1.6,1.5c-0.6,0.3-1.2,0.5-1.9,0.6c-0.4,0-0.8,0-1.2-0.3c-0.3-0.2-0.5-0.6-0.6-1
			c-0.2-0.7-0.2-1.3-0.1-2s0.4-1.5,0.8-2.1c1-1.4,2.3-2.5,3.9-3.1c0.8-0.3,1.6-0.5,2.5-0.5c1,0,1.9,0.1,2.9,0.3
			c2.1,0.4,4.4,1.3,7.2,2c1.5,0.4,3,0.7,4.5,0.8c1.8,0.1,3.5-0.1,5.2-0.6c0.9-0.3,1.7-0.6,2.5-1c0.7-0.4,1.4-0.8,2.1-1.3
			c1.2-0.9,2.1-1.8,3.1-2.4C127.4,11,136.6,8,146,8.1c9.4-0.1,18.5,3.1,25.8,9.1c3.6,2.9,6.5,6.5,8.6,10.5c2,4.2,3.3,8.6,3.8,13.3
			c1.1,9.6,0.9,19.6-2,28.6c-1.4,4.5-3.5,8.6-6.3,12.4c-2.7,3.7-6.2,6.7-10.2,8.8c-2.5,1.4-5.2,2.3-8.1,2.5
			c-2.1,0.2-4.2-0.2-5.9-1.3c-1.6-1.1-2.9-2.5-3.9-4.1c-1-1.5-1.9-3.1-2.8-4.7c-0.6-1.1-1.1-2.3-1.4-3.5c0-0.2-0.1-0.4-0.1-0.6
			s0-0.3,0-0.5c0-0.3,0-0.6,0.1-0.9c0.1-0.5,0.3-1,0.7-1.4c0-0.1,0.2-0.2,0.2-0.3c0-0.1,0-0.2-0.1-0.3c-0.1-0.1-0.3-0.2-0.5-0.2
			C143.7,75.5,143.4,75.5,143.1,75.6z"/>
		<path d="M107.2,45c-0.2,0.1-0.4,0.4-0.6,0.6c-0.2,0.3-0.5,0.4-0.7,0.3c-0.2-0.1-0.4-0.5-0.7-0.7s-0.5-0.5-0.7-0.4
			c-0.3,0.1-0.6,0.3-0.9,0.4c-0.3,0.1-0.6,0.2-0.9,0.2s-0.6-0.1-0.8-0.1h-0.3h-0.3H101l0,0l-0.1,0.1c-0.3,0.3-0.6,0.6-1.7,0.8
			c-0.7,0.1-1.3,0.2-2,0.2h-1.1c-0.2,0-0.5,0-0.7,0h-0.2H95l0,0l-0.1,0.2c-0.1,0.2-0.1,0.3-0.2,0.4c-0.1,0.2-0.2,0.4-0.3,0.6
			c-0.1,0.1-0.1,0.2-0.2,0.3c0,0.1-0.1,0.1-0.1,0.1C94,48.1,94,48,94,48l0,0l-0.2,0.1c-0.2,0.1-0.4,0.2-0.6,0.2
			c-0.5,0.1-1,0.1-1.3,0.2c-0.4,0.2-0.6,0.6-0.7,1c-0.1,0.5-0.1,1.1-0.3,1.2c-0.6,0.4-1.3,0-1.3,0.4c0.1,0.5,0.5,1,0.9,1.3
			c0.9,0.7,1.9,1.3,3,1.5l0,0l0.8,0.1c0.6,0.1,1.3,0.1,1.9,0.1h1.5c1.1,0,2.3-0.1,3.4-0.4c1.4-0.3,2.7-0.8,3.9-1.6
			c1.3-0.9,2.4-2.1,3.1-3.5c0.4-0.9,0.7-1.8,0.7-2.8c0.1-0.5-0.1-1-0.3-1.4C108.1,44.5,107.8,44.9,107.2,45z"/>
	</g>
</g>
</svg>
