<?xml version="1.0" encoding="UTF-8"?>
<svg width="443px" height="148px" viewBox="0 0 443 148" version="1.1" xmlns="http://www.w3.org/2000/svg" xmlns:xlink="http://www.w3.org/1999/xlink">
    <!-- Generator: Sketch 42 (36781) - http://www.bohemiancoding.com/sketch -->
    <title>Fill 1</title>
    <desc>Created with Sketch.</desc>
    <defs></defs>
    <g id="Desktop-app" stroke="none" stroke-width="1" fill="none" fill-rule="evenodd">
        <g id="Desktop-Home-Copy-6" transform="translate(-412.000000, -189.000000)" fill="#59ECFF">
            <path d="M854.373659,223.831107 C854.225615,222.104311 852.081812,200.421044 849.969651,201.014348 C821.899048,208.90811 794.252233,218.284566 767.18403,229.125635 C748.214138,236.72331 729.536943,245.046511 711.189737,254.042123 C711.404456,252.596723 711.376204,251.048483 711.415757,249.980537 C711.616916,244.579779 711.311788,239.017417 710.851837,233.642652 C710.709444,231.975752 708.246952,210.181735 706.447829,210.825893 L573.544445,258.405447 C580.848294,250.170394 588.636957,242.363649 596.878791,235.042849 C598.290288,233.788435 598.09139,229.446584 598.138855,228.154877 C598.340013,222.75299 598.034885,217.190628 597.576064,211.815863 C597.112722,206.401544 596.634689,200.920549 595.518148,195.597769 C595.297778,194.544514 594.602766,188.95842 593.172056,189.000234 C579.775828,189.391249 566.6124,191.998394 553.633178,195.187542 C541.760327,198.105465 529.994835,201.453957 518.362695,205.217197 C494.878046,212.812612 471.939236,222.102051 449.788107,232.990583 C437.371676,239.094264 425.210649,245.703101 413.324236,252.78206 C411.909348,253.623986 412.089034,258.951286 412.063042,259.670031 C411.861884,265.070789 412.167012,270.634281 412.625833,276.009046 C413.089175,281.423364 413.567208,286.904359 414.683749,292.227139 C414.822751,292.889379 416.181134,299.33096 417.02984,298.824675 C457.080655,274.977263 500.337569,256.581462 545.316758,244.351499 C543.13001,247.669478 541.005419,251.029271 538.958804,254.438789 C534.838452,261.303029 531.028878,268.348084 527.515391,275.541183 C527.176361,276.918778 526.997805,278.315584 526.979723,279.731602 C526.810208,281.898007 526.763873,284.068933 526.842981,286.244379 C526.936779,291.156933 527.254338,296.057055 527.7222,300.948136 C527.886065,302.665891 530.125927,321.319355 531.833511,320.70797 C570.797167,306.759121 609.759693,292.810272 648.72222,278.861423 C646.770534,282.92414 645.159008,287.14168 643.95658,291.506134 C643.052498,294.78795 643.220883,298.904912 643.284169,302.2082 C643.379097,307.120753 643.696656,312.022006 644.163388,316.911957 C644.582656,321.299013 645.023396,325.758395 645.928608,330.074255 C646.06648,330.731974 647.441814,337.181466 648.275829,336.67292 C673.155025,321.465138 698.833202,307.576185 725.191701,295.106639 C751.67112,282.580589 778.824081,271.476207 806.494628,261.862429 C822.068563,256.451501 837.805234,251.520866 853.676386,247.058093 C855.033638,246.676119 854.934189,240.244708 854.93758,240.170121 C855.137608,234.768234 854.83361,229.205872 854.373659,223.831107" id="Fill-1"></path>
        </g>
    </g>
</svg>