<svg xmlns="http://www.w3.org/2000/svg" viewBox="0 0 463.17 179.12"><defs><style>.cls-1{fill:#6ef;}</style></defs><title>logo-liggend-blue</title><g id="Layer_2" data-name="Layer 2"><g id="Layer_1-2" data-name="Layer 1"><path class="cls-1" d="M5.26,139.52A538.57,538.57,0,0,1,147.77,80.35c14.93-3.8,30.07-7.07,45.52-7.52L189.42,24.7a293.9,293.9,0,0,0-56.68,68.42q-6.46,10.77-12,22.06a19.36,19.36,0,0,0-.56,4.38,59.73,59.73,0,0,0-.14,6.81c.1,5.14.43,10.26.92,15.37.17,1.8,2.51,21.3,4.3,20.66l145.11-51.95,41.33-14.8-3.88-48.14c-17.74,21.86-41.14,39-56,63.16a82.3,82.3,0,0,0-9.33,21.19c-.94,3.43-.77,7.74-.7,11.19.1,5.14.43,10.26.92,15.37a125.12,125.12,0,0,0,1.85,13.76c.14.69,1.58,7.43,2.45,6.9a854.43,854.43,0,0,1,165.42-78.22q24.42-8.49,49.33-15.48c1.42-.4,1.32-7.12,1.32-7.2a141.09,141.09,0,0,0-.59-17.08c-.15-1.81-2.4-24.48-4.6-23.85a854.43,854.43,0,0,0-169.85,68.06q-22.83,12.13-44.9,25.63l4.52,47.22a86.91,86.91,0,0,1,12.69-26.32l-.64.92c14.86-21.19,35.76-37.1,52-57.12,1.42-1.75,1.25-5.25,1.32-7.2a141.09,141.09,0,0,0-.59-17.08c-.15-1.74-2.72-24.53-4.6-23.85L162.75,99.46l-41.33,14.8,4.52,47.22A292.76,292.76,0,0,1,148.5,123l-.64.92a291.81,291.81,0,0,1,45.43-51.11c1.48-1.31,1.27-5.85,1.32-7.2A141.09,141.09,0,0,0,194,48.55a141.23,141.23,0,0,0-2.15-17c-.23-1.1-1-6.94-2.45-6.9-14,.41-27.77,3.14-41.34,6.47q-18.62,4.58-36.88,10.49a537.81,537.81,0,0,0-71.7,29Q20,80.26,1.38,91.38C-.1,92.26.09,97.83.07,98.59a141.09,141.09,0,0,0,.59,17.08,141.23,141.23,0,0,0,2.15,17c.15.69,1.57,7.43,2.45,6.9Z"/><path d="M392,73.86v52.09c0,2.31,1.87,1,4.18,1s4.18,1.26,4.18-1V75.11S397.87,71,395.23,71,392,73.86,392,73.86Z"/><path d="M392,56V11.56c0-2.31,1.87-1.27,4.18-1.27s4.18-1,4.18,1.27V56A8.5,8.5,0,0,0,392,56Z"/><path d="M230.94,127c-2.31,0-4.18,1.26-4.18-1V85.72L235.12,80v45.9C235.12,128.24,233.25,127,230.94,127Z"/><path d="M338.7,78.78v46.63c0,2.31-1.87,1-4.18,1s-4.18,1.26-4.18-1V85Zm-.78-13c4.15-2.94,8.81-5.59,13.49-5.59,9.95,0,21.07,9,21.07,21.07v44.7c0,2.31-1.87,1-4.18,1s-4.18,1.26-4.18-1V81.25c0-5.88-5.55-12.71-12.71-12.71-3.45,0-8.67,4-12.47,6.9l-.24.18s-6.51,4.29-8.36,5a6.65,6.65,0,0,1-1.47.17A11,11,0,0,1,318,69.92C318,64.53,323.49,59,328.88,59c2.67,0,6,1.9,7.94,4.37l-6.48,5.36c0-1.14-1-1.3-1.48-1.37a2.44,2.44,0,0,0-2.5,2.51,2.18,2.18,0,0,0,2.27,2.5,10.68,10.68,0,0,0,1.7-1"/><path d="M236.27,64.49c-.63.41-1.26.84-1.87,1.27L227,71.25a12,12,0,0,1-1.92,1.17c-2,0-2.8-1.09-2.8-2.5a2.27,2.27,0,0,1,2.2-2.51c.23,0,1.41-.18,1.74.86l6.67-5.12A9.88,9.88,0,0,0,225.36,59c-5.38,0-10.87,5.49-10.87,10.87a11,11,0,0,0,10.87,10.87c3.05,0,6-2.25,10.06-5.36,3.81-2.91,9-6.9,12.47-6.9A12.58,12.58,0,0,1,257,72.28c1.59,1.67,1.73-.77,3.4-2.36s4.24-1.73,2.65-3.4a21,21,0,0,0-15.18-6.34c-4,0-8,1.93-11.62,4.32"/><path d="M182.53,70.87c-2.66,0-4.18,2.6-4.18,2.6v52.46c0,2.31,1.87,1,4.18,1s4.18,1.26,4.18-1V73.47S185.19,70.87,182.53,70.87Z"/><path d="M178.35,55.5V29a4.18,4.18,0,0,1,8.36,0V55.5S183.21,53,178.35,55.5Z"/><path d="M175.46,86c-4.57-2.8-8.45-7.59-8.45-12.63,0-7.62,7.74-15.1,15.62-15.1,3.9,0,7.71,2.36,11.1,5.6l-4.91,7c-2.05-2-4.77-4.23-6.19-4.23-3.26,0-7.27,3.72-7.27,6.74v.78L175.46,86M196.05,66.3c.89-1.47,1.77-3,2.61-4.69,1.05-2.05,2,.22,4.06,1.27s4.43.48,3.38,2.53a85.52,85.52,0,0,1-4.67,8,85.46,85.46,0,0,1,4.67,8c1,2.06-1.33,1.58-3.38,2.63s-3,3.22-4.06,1.17h0c-.8-1.56-1.68-3.13-2.62-4.67a34.48,34.48,0,0,1-5.9,5.22L190,75.3a11.07,11.07,0,0,1,1.11-1.91M175.46,86"/><path d="M182.53,34.16c-2.31,0-4.18-1.42-4.18-3.72A30.47,30.47,0,0,1,208.79,0a4.18,4.18,0,0,1,0,8.36,22.1,22.1,0,0,0-22.08,22.08C186.71,32.74,184.84,34.16,182.53,34.16Z"/><path d="M223.76,14.21a22,22,0,0,0-15-5.85,4.18,4.18,0,1,1,0-8.36,30.34,30.34,0,0,1,20.64,8.07c1.7,1.57.44,1.8-1.13,3.49C227.48,12.45,224.56,15,223.76,14.21Z"/><path d="M310,116.2v9.73c0,2.31-1.87,1-4.18,1s-4.18,1.26-4.18-1h0"/><path d="M301.64,104.77V81.87c0-7.77-5.2-13.42-12.37-13.42-8,0-10.8,6.93-10.8,13.42,0,2.31-1.83.34-4.14.34s-4.22,2-4.22-.34c0-12.82,7.88-21.77,19.16-21.77,11.82,0,20.73,9.36,20.73,21.77V92.41"/><path d="M285.86,129.07a19.41,19.41,0,0,1,0-38.82c4.09,0,7.8,1,12.32,4.56l.08,10.75s-3.69-2.61-4.63-3.35c-3-2.35-5.65-3.59-7.78-3.59a11.05,11.05,0,0,0,0,22.11c4.29,0,10.55-5,17.19-13.6a122.76,122.76,0,0,0,9.58-14.66c1.09-2,2.41,0,4.44,1.11s4,.81,2.92,2.85a129.81,129.81,0,0,1-10.31,15.8C301.09,123.39,293.07,129.07,285.86,129.07Z"/><path d="M411.4,68.88c3.39-3.42,7.49-7.83,12.43-13.52,11.31-13,16.06-18.6,16.16-18.73,1.4-1.84,2.83.54,4.66,1.94s3.39,1.29,2,3.12c-.1.13-5.09,6-16.65,19.32-4.78,5.49-9.14,10.22-13,14.11C420.69,79.51,425,85,430.2,92c11.55,15.64,22.35,30.26,22.45,30.42,1.25,1.94-1.06,1.8-3,3.05-.7.45-3.23,2.72-4,1.48-.1-.15-10.51-14.16-21.7-29.37-5.22-7.1-9.52-12.54-13-16.7A40,40,0,0,1,404.11,86l0-10.24a11.93,11.93,0,0,0,1.26-1.07m-2.93-2.95c-4.12-3.92-5.78-4.4-6.13-4.45-4.07,0-7.22,3.64-7.22,6.74a5,5,0,0,0,.15,1.29l-.65,9.95-1.09-.33C382.91,82.11,380.7,79,380.7,74c0-8,7.3-15.1,15.62-15.1,2.5,0,6.65,1.93,12.59,7.53Z"/><path d="M77.21,68.94a23.77,23.77,0,0,1,3.44.53c2.19.73,1.63-1.8,2.37-4s2.48-3.2.29-3.93c-3.36-1.13-7.87-.94-10.67.79A12.46,12.46,0,0,1,77.21,68.94Z"/><path d="M39.1,89.16a29.62,29.62,0,0,1-2.3-10.45C36.8,66.77,44.53,59,56.48,59,68,59,76.69,68.41,76.69,80.82a4.18,4.18,0,1,1-8.36,0c0-9.22-6.14-13.42-11.85-13.42-7.41,0-11.33,3.91-11.33,11.3,0,2.76,2.07,8.22,2.52,9.27Z"/><path d="M57,100.48a4.18,4.18,0,0,1,0-8.36c7.82,0,11.33-6.74,11.33-13.42h8.36C76.69,91.33,68.41,100.48,57,100.48Z"/><path d="M43.74,120.15a17.08,17.08,0,0,0-7.54,14.16c0,9.1,8.45,17.08,18.09,17.08h9a4.18,4.18,0,0,1,0,8.36h-9c-14.33,0-26.44-11.65-26.44-25.44a25.38,25.38,0,0,1,8.48-18.94Z"/><path d="M64.16,116.9H49.5a4.18,4.18,0,1,1,0-8.36H64.16a4.18,4.18,0,1,1,0,8.36Z"/><path d="M84,138.49a4.18,4.18,0,0,1-4.18-4.18c0-9.27-7.68-17.41-16.44-17.41a4.18,4.18,0,1,1,0-8.36c13.44,0,24.8,11.8,24.8,25.77A4.18,4.18,0,0,1,84,138.49Z"/><path d="M61.72,159.75a4.18,4.18,0,0,1,0-8.36c9.63,0,18.09-8,18.09-17.08a4.18,4.18,0,0,1,8.36,0C88.16,148.1,76.05,159.75,61.72,159.75Z"/><path d="M47.76,116.9a12.39,12.39,0,1,1,0-24.78H59.07a4.18,4.18,0,0,1,0,8.36H47.76a4,4,0,1,0,0,8.06,4.18,4.18,0,1,1,0,8.36Z"/><path d="M386.48,83"/><path d="M111.3,123.1c-12.61,0-21.77-10.15-21.77-24.14a4.14,4.14,0,0,1,8.29,0c0,7.89,4.17,15.86,13.48,15.86A15.88,15.88,0,0,0,127.16,99L127,95.23c1.43-.08,5.83-2.36,6.62-2.58.47-.13,1.38-1.2,1.5-.89.37,1,.29,3.84.29,7.64A24.27,24.27,0,0,1,111.3,123.1Z"/><path d="M93.68,101.91a4.15,4.15,0,0,1-4.14-4.14V84.31c0-13.76,9.87-24.14,23-24.14S137,72,135.45,83.45c-.31,2.26-1.86,5-4.15,5a4.15,4.15,0,0,1-4.14-4.14c0-9.19-6.17-15.86-14.67-15.86S97.82,75.12,97.82,84.31V97.77A4.15,4.15,0,0,1,93.68,101.91Z"/><path d="M119.2,74.16c-.51-.3-1,.63-1.36,1a10.21,10.21,0,0,0,.1,14.23c3.55,3.5,10.73,3.45,14.23-.1a9.4,9.4,0,0,0,2.71-7.65l-7.71.58c.47.89-.92,2-1.05,2.19a2.1,2.1,0,0,1-3.08-.19,2.94,2.94,0,0,1,.41-4.07A9.87,9.87,0,0,0,119.2,74.16Z"/><path d="M136.29,74.86s8.39-2.35,9.16-3.47-1.84-6.32-2.54-7.33-10.24,3.63-10.24,3.63A26.07,26.07,0,0,1,136.29,74.86Z"/></g></g></svg>