<svg xmlns="http://www.w3.org/2000/svg" viewBox="0 0 804.06 490.41"><defs><style>.cls-1{fill:#fff;}</style></defs><title>logo-staand-blackwhite</title><g id="Layer_2" data-name="Layer 2"><g id="Layer_1-2" data-name="Layer 1"><path class="cls-1" d="M647,482.7c-5.79,0-16.36,2.63-16.36-3.15v-145c.21-.92,1.82-7,7.75-7,5.35,0,11.19,7.48,13.23,10.73v131C651.59,475.06,652.76,482.7,647,482.7Z"/><path class="cls-1" d="M651.59,282.11a26.78,26.78,0,0,0-10.82-2.36,23.2,23.2,0,0,0-10.16,2.32v-155c0-5.79,2.71-2.69,8.49-2.69s12.49-3.1,12.49,2.69Z"/><path class="cls-1" d="M178.34,475c-5.79,0-10.49,8.5-10.49,2.72V366.39s2.41.68,7.56-3.47l13.42-10.8V471.48C188.83,477.27,184.13,475,178.34,475Z"/><path class="cls-1" d="M562.75,482.7c-5.79,0-10.49-1.77-10.49-7.56v-120c0-17.09-16.14-37-37-37-10.11,0-25,11.34-35.79,19.62l-.66.51c-.13.08-18,11.82-23.11,13.87a17.47,17.47,0,0,1-3.75.42c-17.52,0-29.29-15.14-29.29-29.29,0-14.51,14.78-29.28,29.29-29.28,6.67,0,15.14,4.51,20.56,10.85l-15.67,13c-.73-1.51-2.32-2.46-4.73-2.83l-.11,0h-.11c-3.06.08-8.24,1.93-8.24,8.3,0,5.11,2.39,7.73,7.51,8.26l.31,0,.29-.12a30.12,30.12,0,0,0,5-3l21.33-15.84c10.15-7.19,23.57-15.46,37.15-15.46,27.35,0,57.94,24.78,57.94,57.94V479.54C573.24,485.33,568.53,482.7,562.75,482.7Zm-94.9-3.25c-5.79,0-10.49-.3-10.49-6.09V366.22l21-15.52V476.29C478.34,482.08,473.63,479.44,467.85,479.44Z"/><path class="cls-1" d="M162.66,352.62c-17.52,0-29.28-15.14-29.28-29.29,0-14.51,14.78-29.28,29.28-29.28,7,0,14.37,3.82,19.5,10L165.61,316.8a5.33,5.33,0,0,0-4.45-1.75h-.85c-4.3,0-7.42,3.49-7.42,8.31,0,5.25,3.32,8.26,9.1,8.26h.24l.23-.09a33.63,33.63,0,0,0,5.64-3.42l20.71-15.41c1.81-1.28,3.52-2.44,5.18-3.53,12.45-8.14,22.61-11.93,32-11.93a57.67,57.67,0,0,1,41.74,17.41c4,4.19-1.49,4.71-5.67,8.7-2,1.86-7.52,7.87-9.53,5.76A36.6,36.6,0,0,0,226,318.21c-10.11,0-25,11.34-35.79,19.63C178.94,346.42,170.82,352.62,162.66,352.62Z"/><path class="cls-1" d="M43.35,489.85c-2.09,0-5.17-.67-7-.53-3.19.25-4.52.94-4.52-2.76V333.69c.83-1.25,4.63-6.41,10.49-6.41s9.66,5.16,10.49,6.41v152c0,4.34-1,3-4.5,2.85C47.18,488.48,44.8,489.85,43.35,489.85Z"/><path class="cls-1" d="M31.86,176.12a10.49,10.49,0,1,1,21,0v104.6a23.69,23.69,0,0,0-10.07-2.2,27.45,27.45,0,0,0-10.91,2.35Z"/><path class="cls-1" d="M68,333.12l-.63.78a28.42,28.42,0,0,0-2.85,4.84l.41,26.58a95.66,95.66,0,0,0,14.42-13.1L80.48,351l.88,1.44c2.69,4.4,5.18,8.85,7.41,13.21,1.8,3.53,4.17-2,8.14-2a10.37,10.37,0,0,0,4.76-1.15c5.15-2.63,8.42-1.23,5.79-6.39a239.83,239.83,0,0,0-13-22.29l-.46-.69.46-.69a240.18,240.18,0,0,0,13-22.29c2.63-5.15-2.36-4.11-7.51-6.74a10.37,10.37,0,0,0-4.76-1.15c-4,0-4.62-5.18-6.42-1.65-2.31,4.52-4.8,9-7.37,13.24l-.88,1.45Z"/><path class="cls-1" d="M60.77,324.72c-5.68-6-12.63-11.82-18.13-11.82-9.92,0-21.66,10.94-21.66,20.19v2.2l.24,31C8.26,357.65,0,344.82,0,333.08c0-20.78,21.12-41.17,42.64-41.17,9.56,0,19.83,5.26,30.61,15.66"/><path class="cls-1" d="M42.35,189.36c-6.18,0-10.49-3.79-10.49-9.21A84.34,84.34,0,0,1,116.1,95.9a10.49,10.49,0,1,1,0,21,63.34,63.34,0,0,0-63.26,63.26C52.84,185.57,48.53,189.36,42.35,189.36Z"/><path class="cls-1" d="M159,133.65a63.07,63.07,0,0,0-42.9-16.77,10.49,10.49,0,0,1,0-21,84,84,0,0,1,57.14,22.34c2.06,1.9,1.27,1.38,1.38,4.18s-3.29,2.72-5.19,4.78S160.95,135.44,159,133.65Z"/><path class="cls-1" d="M385.75,483.85c-5.62,0-10.22,2.89-10.48-2.66l21-23.8v23.31C396.24,486.48,391.53,483.85,385.75,483.85Z"/><path class="cls-1" d="M375.26,356.91c0-22.56-15.14-38.94-36-38.94-23.3,0-31.6,20.11-31.6,38.94,0,5.79-4.64,1.64-10.43,1.64s-10.56,4.14-10.56-1.64c0-35.28,21.62-59.92,52.58-59.92,32.49,0,57,25.76,57,59.92v30.17l-21,31Z"/><path class="cls-1" d="M329.68,489.18a53.28,53.28,0,0,1,0-106.56c12.65,0,22.36,3.53,33.38,12.16l.2,27.15c-3.14-2.23-9.08-6.47-11-8-8.55-6.78-16.37-10.37-22.63-10.37a32.3,32.3,0,0,0,0,64.6c12.43,0,30.4-14.1,49.29-38.69a349,349,0,0,0,27-41.36c1.83-3.41,7.32,3.61,8.85,4.43,5.1,2.74,12.38.4,9.64,5.5a366.32,366.32,0,0,1-28.86,44.22C371.71,473.41,349.52,489.18,329.68,489.18Z"/><path class="cls-1" d="M683.77,322.21l.9-.91c10.37-10.47,22.14-23.27,35-38,31-35.68,45.06-52.17,45.44-52.68,2-2.63,7.4,2.25,9.25,3.65,4.6,3.5,11,4.46,7.45,9.06-.47.59-14.55,17.27-46.72,54.21-13.37,15.36-25.66,28.67-36.51,39.57l-.81.81.74.88c10.85,12.8,23.33,28.75,37.11,47.41,25.48,34.5,50.68,64.31,60.61,77.5,2.57,3.42,4.27,5.67,4.41,5.86,1.5,2.32,8.32,7.19-2.82,11.6-3.59,0-8.49,8.62-10.43,5.61-.07-.11-.39-.53-3.43-4.55-8.71-11.51-38.45-47.19-64-81.84-13.49-18.33-25.83-34.14-36.66-47l-.83-1-1,.85a113,113,0,0,1-17,12.93l-.07-25.94.79-.61a5.9,5.9,0,0,0,.59-.5l1.74-1.56,1-.86Z"/><path class="cls-1" d="M662.47,330.43c-13.75-13.66-19.42-15.56-20.94-15.8l-.1,0h-.11c-10,.07-21.52,8.9-21.52,20.19a16.1,16.1,0,0,0,.42,3.73l-1.71,26.18-1.41-.42c-13-8-18.3-16.54-18.3-29.49,0-21.93,19.93-41.17,42.64-41.17,6.41,0,16.18,2.62,35.56,21.68Z"/><path class="cls-1" d="M613.79,360.08"/><path class="cls-1" d="M420.8,28.88a52.78,52.78,0,0,0,4.9-6c2.52-4.46,5.37.56,9.83,3.08s8.84,1.59,6.32,6.06c-3.87,6.84-11.59,13.23-18.78,14.54A27.67,27.67,0,0,0,420.8,28.88Z"/><path class="cls-1" d="M328.2,53.73c-.1-1.31-.91-13.13,2.67-23.62C339.44,5,361.21-5.66,386.34,2.92c24.21,8.26,35.75,34.17,26.84,60.25a9.28,9.28,0,1,1-17.56-6c6.61-19.37-3.28-32.6-15.27-36.69-15.57-5.32-26.6.09-31.91,15.63-2,5.79-1.54,18.75-1.35,21.29Z"/><path class="cls-1" d="M357.71,90.37a9.28,9.28,0,0,1,6-17.56c16.44,5.61,28.63-6,33.43-20.06l17.56,6C405.64,85.25,381.68,98.55,357.71,90.37Z"/><path class="cls-1" d="M315.73,122.17a37.92,37.92,0,0,0-26,24.35c-6.53,19.12,5.5,42,25.75,48.87l19,6.48a9.28,9.28,0,0,1-6,17.56l-19-6.48c-30.12-10.28-47.21-43.45-37.31-72.43a56.36,56.36,0,0,1,31.4-33.72Z"/><path class="cls-1" d="M361,130l-30.8-10.52a9.28,9.28,0,0,1,6-17.56L367,112.43A9.28,9.28,0,1,1,361,130Z"/><path class="cls-1" d="M387.13,189.58a9.28,9.28,0,0,1-5.78-11.78c6.65-19.49-3.65-42.09-22-48.38a9.28,9.28,0,0,1,6-17.56c28.24,9.64,43.64,42.59,33.61,71.94A9.28,9.28,0,0,1,387.13,189.58Z"/><path class="cls-1" d="M325.1,218.28a9.28,9.28,0,1,1,6-17.56c20.24,6.91,43.73-3.8,50.26-22.92a9.28,9.28,0,1,1,17.56,6C389,212.77,355.22,228.56,325.1,218.28Z"/><path class="cls-1" d="M326.51,118.23a27.51,27.51,0,0,1,17.78-52.07l23.76,8.11a9.28,9.28,0,0,1-6,17.56L338.3,83.72a9,9,0,1,0-5.78,16.94,9.28,9.28,0,0,1-6,17.56Z"/><path class="cls-1" d="M455.58,176.84c-26.5-9-38.46-37-28.42-66.35a9.2,9.2,0,0,1,17.41,5.94c-5.66,16.59-2.62,36.31,17,43a35.25,35.25,0,0,0,44.7-21.94l2.4-7.92c3.07.85,13.94-.77,15.76-.67,1.08.06,3.76-1.54,3.79-.8.1,2.27-2.14,8.29-4.87,16.26A53.88,53.88,0,0,1,455.58,176.84Z"/><path class="cls-1" d="M433.74,119.67A9.21,9.21,0,0,1,428,108l9.66-28.29c9.87-28.92,38.06-43.65,65.56-34.26s43,42.5,31.53,65.41c-2.27,4.53-7.5,9.16-12.3,7.52a9.21,9.21,0,0,1-5.73-11.68c6.59-19.31-1.59-37.75-19.45-43.85s-35.61,3.49-42.2,22.8l-9.66,28.29A9.21,9.21,0,0,1,433.74,119.67Z"/><path class="cls-1" d="M507.29,79.68c-.85-1-2.48.64-3.6,1.2-12,6-14.83,20.32-10,30,4.94,9.9,20.07,14.95,30,10,5-2.5,10-7.65,11.18-14.13l-16.62-4.31c.36,2.21-3.38,3.56-3.78,3.84-2.28,1.14-4.94.21-6.35-2.6-1.29-2.59.08-6.41,3.78-8.26C511.87,95.4,513.07,86.41,507.29,79.68Z"/><path class="cls-1" d="M542.69,93.41s19.32,1.08,21.74-.71.67-14.61-.08-17.22-24.13.27-24.13.27A57.88,57.88,0,0,1,542.69,93.41Z"/><path class="cls-1" d="M188.83,463.57v22.13c0,4.09-1.29,4.5-4.09,4.39-1.16,0-2.58-.18-4.27-.18-1.45,0-3,.15-4.41.29-1,.1-2-.81-2.93-.78s-1.77,1-2.51.83c-1.68-.36-2.77-1.36-2.77-3.67v-23"/><path class="cls-1" d="M478.43,463.57v22.13c0,5.79-4.71,4.2-10.49,4.2s-10.49,2.45-10.49-3.33v-23"/><path class="cls-1" d="M573.24,463.57v22.13c0,2.57-.93,3.68-2.47,4.11-.9.25-2-.72-3.27-.77-1.43-.05-3,.81-4.75.81-5.79,0-10.49,2.5-10.49-3.28v-23"/><path class="cls-1" d="M651.64,463.57v22.13c0,5.79-4.71,4.15-10.49,4.15s-10.49,2.5-10.49-3.28v-23"/><path class="cls-1" d="M396.25,463.57v22.13c0,5.79-3.75,4.2-9.53,4.2s-11.45,2.45-11.45-3.33v-5.38"/></g></g></svg>