<svg xmlns="http://www.w3.org/2000/svg" viewBox="0 0 353.9 207.59"><defs><style>.cls-1{isolation:isolate;}.cls-2{mix-blend-mode:overlay;}.cls-3{fill:#00e2ff;}.cls-4{fill:#231f20;}</style></defs><title>logo-staand-blue-2</title><g class="cls-1"><g id="Layer_2" data-name="Layer 2"><g id="Layer_2-2" data-name="Layer 2"><g class="cls-2"><path class="cls-3" d="M135.5,90.73a22,22,0,0,1,8.25-7.66L110.21,60.9c.82,5.61,2.16,11,6.09,15.25,4.55,4.92,10.42,8.78,16,12.43s12,8.15,18.63,10.07c14.6,4.21,17.2-15.68,25.25-22.83L142.59,53.65a53.06,53.06,0,0,0,4.87,22c5.28,11.29,18.71,18.38,29.08,24.18,3,1.67,8.66,5.73,12.26,3.47,2.65-1.66,4.14-6.35,5.65-9.06l13.12-23.44L174,48.69a39.64,39.64,0,0,0,10,18.65c9.66,10.25,23.33,19.41,36.05,25.16,3.83,1.73,7.31,3.07,11.08.54,3.36-2.25,6.3-5.49,9.19-8.31a223.11,223.11,0,0,0,17.8-19.59l-31.9-19.68c4.15,3.82,2,13.17,4,18.28,1.74,4.43,6.1,7.63,9.72,10.41,7.85,6,16.46,11.78,25.6,15.65,7.4,3.13-3.38-6-4.25-6.65-7.2-5.46-15-10.93-23.41-14.47l-1.17-.49,15.12,8.61-1-.68,13.84,10.54c-2.94-2.83-2.25-8.58-2.62-12.27-.47-4.78-1.94-8.44-5.53-11.74A115.35,115.35,0,0,0,238.2,49.24c-1.55-.94-12.06-8.11-13.55-6.26a221.76,221.76,0,0,1-21.77,23.36,45,45,0,0,1-5.22,4.53c-8.65,5.8-3-9.51,17.73,14.75-.55-.64-1.13-1.21-1.66-1.87a33.11,33.11,0,0,1-6.15-12.89c-1.17-5-32.06-24.82-33.54-22.18L163.74,67.11l-4.68,8.37c-1.19,2.13-2.62,6.57-5.68,5.92l8.48,3.93-1.1-.63,20.12,13.74-1-.9,3.74,3.71c-5.6-6.86-7.4-16.81-7.48-25.42,0-1.63-3.19-3.93-4-4.63a112.08,112.08,0,0,0-11.48-8.41,121.54,121.54,0,0,0-12.24-7.27c-1.06-.53-4.73-2.84-5.82-1.87-7,6.17-10.74,26.67-23.36,22.58l4.88,2L147.25,94a11.59,11.59,0,0,1-.91-1.55c-.34-1-.88-1.87-1.21-2.85a37.21,37.21,0,0,1-1.38-6.51c-.26-1.79-2.88-3.67-4-4.63A112.08,112.08,0,0,0,128.27,70,121.54,121.54,0,0,0,116,62.77c-1.32-.66-4.35-2.67-5.82-1.87A22,22,0,0,0,102,68.56c-1.93,3,31.7,25,33.54,22.18Z"/></g><g class="cls-2"><path class="cls-3" d="M1.62,151.27a503.34,503.34,0,0,0,36.27,36.61c2.38,2.18,28.28,21.94,29.64,19.51a158.37,158.37,0,0,0,14.18-34L48.28,150,64.6,177.8c2,3.38,31.73,26.07,33.44,23.37l16.5-26.1L81.1,151.7a128.66,128.66,0,0,0,11.8,20.65c8.33,11.81,21.75,21,34.22,27.82,2.88,1.57,6.21,3.55,9.49,1.9,2.88-1.45,4.25-5.21,5.59-7.88l12-23.92-32-21.75c5.89,6.61,8.79,15.89,13.4,23.36A55,55,0,0,0,145.87,184c9.09,8.12,19.68,16.19,30.68,21.55,5.34,2.6,8.75,2.28,11.41-3.22,1.79-3.69,3.41-7.47,5.11-11.21,3.89-8.58,7.76-17.17,11.69-25.73l-33.44-23.37,21.37,34.41c2.07,3.33,32.2,25.76,33.44,23.37l9.78-18.89c1.47-2.85,5.54-14.46,10.65-12l-10.63-6.47q-22-19-14-10.55l1.3,1.46c1.31,1.46,2.6,2.93,3.9,4.39l8.44,9.52,16.24,18.3c2.39,2.7,30.68,24.24,32,21.75,3.89-7.23,3.05-15.36,3.83-23.27.68-6.92,3.61-17.53,12.07-17.52l1,.24-25.16-18.11c-.11-.22-.91-1.44,0,0,.52.89,1.15,1.72,1.65,2.62a50.1,50.1,0,0,1,2.86,6.24c1.76,4.49,3.13,9.13,4.78,13.67,1.5,4.13,3.17,7.88,6.19,11.13,5,5.36,11.39,9.76,17.35,13.93C313,199.56,319.2,205,325,206c6.53,1.16,10.67-7.12,13.75-11.62l15.1-22c1.89-2.76-32.1-26.61-33.72-24.25L307,167.23c-3.71,5.4-7.07,12.17-13.45,14.57.06,0-.49-.06-.44-.08l-.43-.12,29.79,21.28c-.41-.7-1-1.34-1.37-2a38.63,38.63,0,0,1-2.61-5.85c-1.69-4.49-3-9.09-4.73-13.58s-3.53-8.53-6.6-12.09c-3.52-4.09-7.91-7.44-12.17-10.72-7.08-5.46-14.65-11-22.8-14.7-4.24-2-8.77-2.77-12.28.91a22.38,22.38,0,0,0-5.41,11.4c-1.67,9,.18,18.57-4.32,26.94l32,21.75c-15.55-17.53-30-36.13-49.36-49.66-6.77-4.73-20.42-17.2-26.73-6-4.85,8.61-9.13,17.6-13.67,26.37L225.86,199l-21.37-34.41c-2.1-3.38-32.46-25.5-33.44-23.37q-4.43,9.65-8.79,19.32c-2.9,6.39-5.25,13.85-9.09,19.73-4.43,6.79-10-2.19,8.27,11.4q16.73,14,11.12,8.16a2.42,2.42,0,0,1-.49-.55c-.53-.71-1.07-1.41-1.57-2.14a89.81,89.81,0,0,1-5.7-9.77c-3.64-6.94-7-13.67-12.28-19.56-2.39-2.68-30.83-24.13-32-21.75l-9.78,19.49c-1,2-5.9,14.92-10,12.79l23.5,16c8.11,6.55,2.76,1.85.83-1q-2.08-3-4-6.18a131.2,131.2,0,0,1-6.78-13c-1.7-3.7-31.89-25.83-33.44-23.37l-16.5,26.1,33.44,23.37L81.44,172.46c-1.41-2.4-5-5-7-6.58-3.44-2.77-7-5.4-10.61-7.93-1.24-.87-15.5-10-15.81-8.86a158.37,158.37,0,0,1-14.18,34l29.64,19.51A439.89,439.89,0,0,1,32,170.51c-6.12-6.88-14.87-12.37-22.63-17.2-2.24-1.4-5.82-4.5-8.47-4.56-2,0,.1,1.78.76,2.53Z"/></g></g><g id="Layer_1-2" data-name="Layer 1"><path class="cls-4" d="M276.39,174.13c-2,0-5.66.91-5.66-1.09V115.65c.07-.32.63-2.42,2.68-2.42,1.85,0,3.87,2.58,4.57,3.71v52.55C278,171.49,278.39,174.13,276.39,174.13Z"/><path class="cls-4" d="M278,97.52a9.26,9.26,0,0,0-3.74-.82,8,8,0,0,0-3.51.8V43.93c0-2,.94-.93,2.94-.93s4.32-1.07,4.32.93Z"/><path class="cls-4" d="M114.39,164.22c-2,0-3.63,2.94-3.63.94v-38.5s.83.23,2.61-1.2l4.64-3.73V163C118,165,116.39,164.22,114.39,164.22Z"/><path class="cls-4" d="M247.27,174.13c-2,0-3.63-.61-3.63-2.61V122.78c0-5.91-5.58-12.78-12.78-12.78-3.5,0-8.63,3.92-12.37,6.78l-.23.17a92.15,92.15,0,0,1-8,4.8,6,6,0,0,1-1.3.15,10.27,10.27,0,0,1-10.12-10.12c0-5,5.11-10.12,10.12-10.12,2.31,0,5.23,1.56,7.11,3.75l-5.42,4.48a2,2,0,0,0-1.64-1H209a2.78,2.78,0,0,0-2.85,2.87,2.53,2.53,0,0,0,2.59,2.85h.11l.1,0a10.41,10.41,0,0,0,1.74-1l7.37-5.48c3.51-2.49,8.15-5.34,12.84-5.34,9.45,0,20,8.57,20,20V173C250.9,175,249.27,174.13,247.27,174.13Zm-32.81-8.4c-2,0-3.63-.11-3.63-2.11v-37l7.25-5.36v43.41C218.09,166.65,216.47,165.74,214.47,165.74Z"/><path class="cls-4" d="M109,121.9a10.27,10.27,0,0,1-10.12-10.12c0-5,5.11-10.12,10.12-10.12a9.08,9.08,0,0,1,6.74,3.47L110,109.51a1.84,1.84,0,0,0-1.54-.61h-.29a2.64,2.64,0,0,0-2.56,2.87c0,1.82,1.15,2.86,3.15,2.86h.08l.08,0a11.63,11.63,0,0,0,2-1.18l7.16-5.33c.63-.44,1.22-.85,1.79-1.22,4.3-2.81,7.82-4.12,11.05-4.12a19.94,19.94,0,0,1,14.43,6c1.38,1.45-.51,1.63-2,3-.68.64-2.6,2.72-3.29,2a12.65,12.65,0,0,0-9.17-3.77c-3.5,0-8.63,3.92-12.37,6.78S111.79,121.9,109,121.9Z"/><path class="cls-4" d="M67.72,170.25c-.72,0-1.79-.23-2.41-.18-1.1.09-1.56.32-1.56-1V115.35a4.75,4.75,0,0,1,3.63-2.22A4.75,4.75,0,0,1,71,115.35v53.46c0,1.5-.35,1.05-1.56,1C69,169.78,68.22,170.25,67.72,170.25Z"/><path class="cls-4" d="M63.75,60.88a3.63,3.63,0,0,1,7.25,0V97a8.19,8.19,0,0,0-3.48-.76,9.49,9.49,0,0,0-3.77.81Z"/><path class="cls-4" d="M76.25,115.15l-.22.27a9.83,9.83,0,0,0-1,1.67l.14,9.19a33.07,33.07,0,0,0,5-4.53l.39-.43.3.5c.93,1.52,1.79,3.06,2.56,4.57.62,1.22,1.44-.69,2.81-.69a3.58,3.58,0,0,0,1.64-.4c1.78-.91,2.91-.43,2-2.21a82.91,82.91,0,0,0-4.51-7.71l-.16-.24.16-.24a83,83,0,0,0,4.51-7.71c.91-1.78-.81-1.42-2.6-2.33a3.58,3.58,0,0,0-1.65-.4c-1.37,0-1.6-1.79-2.22-.57-.8,1.56-1.66,3.1-2.55,4.58l-.3.5Z"/><path class="cls-4" d="M73.75,112.25c-2-2.07-4.36-4.09-6.27-4.09-3.43,0-7.49,3.78-7.49,7v.76l.08,10.71c-4.48-3-7.34-7.42-7.34-11.47,0-7.18,7.3-14.23,14.74-14.23,3.3,0,6.85,1.82,10.58,5.41"/><path class="cls-4" d="M67.38,65.46c-2.14,0-3.63-1.31-3.63-3.19A29.16,29.16,0,0,1,92.87,33.15a3.63,3.63,0,1,1,0,7.25A21.89,21.89,0,0,0,71,62.27C71,64.15,69.51,65.46,67.38,65.46Z"/><path class="cls-4" d="M107.7,46.2a21.8,21.8,0,0,0-14.83-5.8,3.63,3.63,0,1,1,0-7.25,29,29,0,0,1,19.75,7.72c.71.66.44.48.48,1.44s-1.14.94-1.79,1.65S108.38,46.82,107.7,46.2Z"/><path class="cls-4" d="M186.09,167.26c-1.94,0-3.53,1-3.62-.92l7.25-8.23v8.06C189.71,168.17,188.09,167.26,186.09,167.26Z"/><path class="cls-4" d="M182.46,123.38c0-7.8-5.23-13.46-12.45-13.46-8.05,0-10.92,7-10.92,13.46,0,2-1.6.57-3.6.57s-3.65,1.43-3.65-.57c0-12.2,7.47-20.71,18.18-20.71,11.23,0,19.7,8.9,19.7,20.71v10.43l-7.25,10.73Z"/><path class="cls-4" d="M166.7,169.1a18.42,18.42,0,0,1,0-36.84,17.32,17.32,0,0,1,11.54,4.2l.07,9.39c-1.08-.77-3.14-2.24-3.79-2.75-3-2.34-5.66-3.58-7.82-3.58a11.16,11.16,0,0,0,0,22.33c4.3,0,10.51-4.87,17-13.37a120.63,120.63,0,0,0,9.34-14.3c.63-1.18,2.53,1.25,3.06,1.53,1.76.95,4.28.14,3.33,1.9a126.63,126.63,0,0,1-10,15.28C181.23,163.65,173.56,169.1,166.7,169.1Z"/><path class="cls-4" d="M289.11,111.38l.31-.32c3.58-3.62,7.65-8,12.09-13.15,10.73-12.34,15.58-18,15.71-18.21.69-.91,2.56.78,3.2,1.26,1.59,1.21,3.79,1.54,2.58,3.13-.16.21-5,6-16.15,18.74-4.62,5.31-8.87,9.91-12.62,13.68l-.28.28.26.3c3.75,4.43,8.07,9.94,12.83,16.39,8.81,11.93,17.52,22.23,21,26.79l1.52,2c.52.8,2.88,2.49-1,4-1.24,0-2.93,3-3.6,1.94l-1.19-1.57c-3-4-13.29-16.31-22.11-28.29-4.66-6.34-8.93-11.8-12.67-16.24l-.29-.34-.33.29a39.06,39.06,0,0,1-5.87,4.47l0-9,.27-.21.2-.17.6-.54.33-.3Z"/><path class="cls-4" d="M281.74,114.23c-4.75-4.72-6.71-5.38-7.24-5.46h-.07c-3.44,0-7.44,3.08-7.44,7a5.57,5.57,0,0,0,.15,1.29l-.59,9.05-.49-.15c-4.49-2.76-6.32-5.72-6.32-10.19,0-7.58,6.89-14.23,14.74-14.23,2.22,0,5.59.9,12.29,7.49Z"/><path class="cls-4" d="M264.92,124.47"/><path class="cls-4" d="M198.2,10a18.25,18.25,0,0,0,1.69-2.07c.87-1.54,1.86.19,3.4,1.06s3.06.55,2.19,2.09a10.55,10.55,0,0,1-6.49,5A9.57,9.57,0,0,0,198.2,10Z"/><path class="cls-4" d="M166.19,18.57a22.73,22.73,0,0,1,.92-8.16C170.08,1.73,177.6-2,186.29,1c8.37,2.86,12.36,11.81,9.28,20.83a3.21,3.21,0,1,1-6.07-2.07c2.29-6.7-1.13-11.27-5.28-12.68-5.38-1.84-9.2,0-11,5.4-.68,2-.53,6.48-.47,7.36Z"/><path class="cls-4" d="M176.39,31.24a3.21,3.21,0,1,1,2.07-6.07c5.68,1.94,9.9-2.09,11.55-6.94l6.07,2.07C193,29.47,184.68,34.07,176.39,31.24Z"/><path class="cls-4" d="M161.88,42.23a13.11,13.11,0,0,0-9,8.42c-2.26,6.61,1.9,14.5,8.9,16.89l6.56,2.24a3.21,3.21,0,0,1-2.07,6.07l-6.56-2.24c-10.41-3.55-16.32-15-12.9-25a19.48,19.48,0,0,1,10.85-11.66Z"/><path class="cls-4" d="M177.52,44.94,166.87,41.3a3.21,3.21,0,1,1,2.07-6.07l10.65,3.64a3.21,3.21,0,1,1-2.07,6.07Z"/><path class="cls-4" d="M186.56,65.53a3.21,3.21,0,0,1-2-4.07c2.3-6.74-1.26-14.55-7.62-16.72A3.21,3.21,0,1,1,179,38.67c9.76,3.33,15.08,14.72,11.62,24.87A3.21,3.21,0,0,1,186.56,65.53Z"/><path class="cls-4" d="M165.12,75.46a3.21,3.21,0,1,1,2.07-6.07c7,2.39,15.12-1.31,17.37-7.92a3.21,3.21,0,0,1,6.07,2.07C187.22,73.55,175.53,79,165.12,75.46Z"/><path class="cls-4" d="M165.61,40.87a9.51,9.51,0,0,1,6.15-18l8.21,2.8a3.21,3.21,0,1,1-2.07,6.07l-8.21-2.8a3.09,3.09,0,1,0-2,5.86,3.21,3.21,0,0,1-2.07,6.07Z"/><path class="cls-4" d="M210.22,61.13c-9.16-3.13-13.29-12.77-9.82-22.94a3.18,3.18,0,0,1,6,2.05c-2,5.73-.9,12.55,5.86,14.86a12.19,12.19,0,0,0,15.45-7.59l.83-2.74c1.06.29,4.82-.27,5.45-.23.37,0,1.3-.53,1.31-.28,0,.78-.74,2.86-1.68,5.62A18.63,18.63,0,0,1,210.22,61.13Z"/><path class="cls-4" d="M202.68,41.37a3.18,3.18,0,0,1-2-4L204,27.55c3.41-10,13.16-15.09,22.66-11.84s14.87,14.69,10.9,22.61c-.79,1.57-2.59,3.17-4.25,2.6a3.18,3.18,0,0,1-2-4c2.28-6.67-.55-13-6.72-15.16s-12.31,1.21-14.59,7.88l-3.34,9.78A3.18,3.18,0,0,1,202.68,41.37Z"/><path class="cls-4" d="M228.1,27.55c-.29-.34-.86.22-1.24.42a7.83,7.83,0,0,0-3.46,10.36c1.71,3.42,6.94,5.17,10.36,3.46a7.21,7.21,0,0,0,3.86-4.89l-5.74-1.49c.12.76-1.17,1.23-1.31,1.33a1.61,1.61,0,0,1-2.19-.9A2.26,2.26,0,0,1,229.69,33,7.58,7.58,0,0,0,228.1,27.55Z"/><path class="cls-4" d="M240.34,32.29s6.68.37,7.51-.25.23-5.05,0-6-8.34.09-8.34.09A20,20,0,0,1,240.34,32.29Z"/><path class="cls-4" d="M118,160.25v7.65c0,1.41-.45,1.56-1.41,1.52-.4,0-.89-.06-1.48-.06s-1,.05-1.53.1-.7-.28-1-.27-.61.34-.87.29a1.13,1.13,0,0,1-1-1.27v-7.95"/><path class="cls-4" d="M218.13,160.25v7.65c0,2-1.63,1.45-3.63,1.45s-3.63.85-3.63-1.15v-7.95"/><path class="cls-4" d="M250.9,167.52v7.65c0,.89-.32,1.27-.85,1.42-.31.09-.7-.25-1.13-.26s-1.05.28-1.64.28c-2,0-3.63.86-3.63-1.14v-7.95"/><path class="cls-4" d="M278,167.52v7.65c0,2-1.63,1.44-3.63,1.44s-3.63.86-3.63-1.14v-7.95"/><path class="cls-4" d="M189.71,160.25v7.65c0,2-1.3,1.45-3.3,1.45s-4,.85-4-1.15v-1.86"/></g></g></g></svg>