<svg xmlns="http://www.w3.org/2000/svg" viewBox="0 0 607.27 384.67"><title>Asset 1</title><g id="Layer_2" data-name="Layer 2"><g id="Layer_1-2" data-name="Layer 1"><path d="M303.14,266.11c-.58,4.36,0,8.69.33,13,.19,2.75-.4,5.54-.36,8.31.06,4.59.35,9.18.51,13.77.17,4.83.5,9.68.38,14.51-.15,6-.72,12-1,18-.13,2.6,0,5.22-.08,7.82-.08,3.09-.53,6.19-.28,9.25a73.12,73.12,0,0,1-.38,10.58,7.36,7.36,0,0,0,0,1c.06.84.52,2,.13,2.47a15.18,15.18,0,0,1-3.51,3.12c-1.12.74-1.8.36-2.42-.93-.13-.29-.18-.61-.31-.9a2.83,2.83,0,0,0-4.07-1.43c-1,.5-1.83,1.24-2.79,1.77-.5.27-1.27.58-1.67.37a2,2,0,0,1-.61-1.58c.31-6.09.72-12.18,1-18.28.14-2.62.12-5.24.18-7.86a3.81,3.81,0,0,0,0-1c-1.38-5.69-3.46-11-7.68-15.29-1.89-1.91-3.69-3.91-5.52-5.88a21,21,0,0,0-6.51-5.11,29.73,29.73,0,0,1-3.84-2.37c-3.37-2.23-7.31-2.54-11.11-3.26a83.31,83.31,0,0,0-9-1.09c-4.15-.32-8,1.11-11.75,2.59-1.39.55-2.62,1.49-4,2.15-2.51,1.23-3.92,3.63-5.84,5.47a3.88,3.88,0,0,0-1,1.88c-.81,3.63-1.68,7.25-2.27,10.92s.35,7.08,1.43,10.51c.83,2.64,1.63,5.3,2.29,8,.51,2.09,1.82,3.64,3,5.29,2.63,3.56,6.43,4.28,10.48,4.52,2.42.15,4.84.36,7.26.63a29,29,0,0,0,7.05-.56c2.27-.32,4.49-1,6.77-1.24,2.77-.34,4.4-2.43,6.36-3.95,1.39-1.07,2.17-2.92,3.55-4a36.15,36.15,0,0,0,4-4.35,3.56,3.56,0,0,1,1.33-.95,5.88,5.88,0,0,0,3.26-3,2.19,2.19,0,0,1,2.78-1.15,1.68,1.68,0,0,1,1.36,1.72c-.14,4-.18,7.92-.48,11.86a20.07,20.07,0,0,1-2.6,7.83c-.57,1.07-1.21,1.73-2.64,1.44a3.08,3.08,0,0,0-2.1.78,20.64,20.64,0,0,1-6.49,3.88,1.19,1.19,0,0,0-.6.37c-1.47,2.11-3.81,2.38-6,3a25.73,25.73,0,0,0-2.64,1,9.88,9.88,0,0,1-2,.68c-3.3.47-6.61.89-9.92,1.3a3.74,3.74,0,0,1-1.41,0c-2.9-.79-5.79-1.63-8.68-2.46-.84-.24-1.66-.53-2.51-.73a67.69,67.69,0,0,1-11.67-3.9,28,28,0,0,1-6.79-4.76c-3.89-3.33-6.25-7.58-8.13-12.36a47.39,47.39,0,0,1-3.45-13.75,22.41,22.41,0,0,1,.32-6.62c1.28-5.64,2.72-11.26,4.41-16.8.6-2,2.08-3.7,3.23-5.49a54,54,0,0,1,6.37-7.61c1.64-1.75,3.79-2.57,5.55-4,3.66-3,8-4.87,12.29-6.66a22.41,22.41,0,0,1,7.66-1.54c3.25-.14,6.51-.15,9.74-.45,4.57-.43,9,.46,13.52.85a11.24,11.24,0,0,1,3.18.92c3.37,1.37,6.79,2.66,10,4.29a26,26,0,0,1,4.91,3.67c1.14,1,2.1,2.16,3.17,3.21a4.73,4.73,0,0,0,1.17.8c1.07.54,1.37.41,1.57-.83a14.57,14.57,0,0,0,.12-2.6c-.06-3.32-.61-6.73.67-9.9a14.23,14.23,0,0,0,.49-8.06c-.84-5.08-1.12-10.25-1.65-15.38a14.58,14.58,0,0,0-.46-2.58c-1.85-6.32-3.67-12.65-5.63-18.93a15.11,15.11,0,0,0-7.35-9,31.35,31.35,0,0,0-12-3.55c-1.81-.22-3.63-.39-5.42-.69-4.6-.78-8.87.54-12.9,2.4a13.91,13.91,0,0,0-4.91,4.37c-3.64,4.89-5,10.56-4.78,16.61a3,3,0,0,0,.17,1.17c1.21,2.54,0,5-.3,7.44-.13.92-.66,1.29-1.68,1.61-2.55.8-4.55.65-6.23-1.68-.35-.48-1.44-.53-2.21-.57s-1.74.17-2.61.21c-2.35.1-3.57-1.12-3.32-3.48s.59-4.72,1-7.05c.84-4.59,1.2-9.3,3.09-13.66.44-1,.82-2.07,1.35-3,2.47-4.51,4.54-9.28,7.71-13.37,2.4-3.09,5.29-5.63,9.25-6.73,3.73-1,7.38-2.31,11.08-3.47a5.19,5.19,0,0,1,1.58-.36c5.78.11,11.55.37,17.13,2.13a16.24,16.24,0,0,1,5.49,2.73,19.48,19.48,0,0,0,3.78,2,30.81,30.81,0,0,1,13.3,11.51,45.13,45.13,0,0,1,5.15,12.25C301.95,247.1,302.57,256.59,303.14,266.11Z"/><path d="M341.38,252.7a43.72,43.72,0,0,1-12-1.74,6.28,6.28,0,0,1-2.36-1.05c-3.41-2.73-5.9-5.84-6.7-10.5a40.07,40.07,0,0,1,1.16-17.15,15.77,15.77,0,0,1,1.45-3.21,30.49,30.49,0,0,1,1.61-2.63,6.18,6.18,0,0,1,1.42-1.86,7.66,7.66,0,0,0,2.92-3.63,2.67,2.67,0,0,1,2.53-1.87c3,.25,5.6-1,8.36-1.62A20.59,20.59,0,0,1,355.27,210a8.5,8.5,0,0,1,1.65,1.67c1.49,1.63,2.93,3.33,4.48,4.91,1.3,1.32,1.29,2.15-.29,3.17-.53.34-1.17.52-1.66.9-1,.82-2,1.7-3,2.59a19.67,19.67,0,0,1-2.42,2.22c-2,1.22-3.65.44-4.27-1.81-.52-1.86-1.35-2.2-3.08-1.52-4.24,1.67-5.42,5.13-5.58,9.31-.06,1.66.36,1.87,2.07,2.17,1.07.18,2.08.71,3.14,1a7.08,7.08,0,0,0,2.71.32,17.89,17.89,0,0,0,3.6-1.2c2.57-1,5.14-2.1,7.68-3.23a37.28,37.28,0,0,0,5.09-2.54,45.86,45.86,0,0,1,11.7-5.19c4.62-1.4,9.21-2.9,13.84-4.24a76.13,76.13,0,0,1,11.28-2.83,38.72,38.72,0,0,1,10.16.32,25.39,25.39,0,0,1,12.55,5.91c.91.75,2.12,1.13,3,1.89a19.37,19.37,0,0,1,4.19,4.12c1.69,2.73,4,5.15,4.69,8.48a6.38,6.38,0,0,0,1.25,2.29c1.59,2.17,2.06,4.77,2.69,7.26,1,4,2.47,7.85,2.73,12,.28,4.64.79,9.27,1.31,13.89a33.56,33.56,0,0,0,1.13,5.82,24.77,24.77,0,0,1,.59,8.71c-.13,2.29,0,4.59,0,6.88,0,4.67.09,9.34,0,14-.22,9.82-.56,19.64-.81,29.46a52.28,52.28,0,0,0,.13,6.42c.46,4.7-.1,9.35-.38,14-.07,1.26,0,2.53,0,3.8q.06,6.75.12,13.5c0,.08,0,.16,0,.24,0,.74.32,1.83,0,2.13a8.72,8.72,0,0,1-2.78,1.18,1.41,1.41,0,0,1-.94,0c-3.35-1.49-5,1.3-7.07,2.87a7.72,7.72,0,0,0-1.66,2,3.54,3.54,0,0,1-4.32,1.54l-.69-.18c-2.93-.87-2.92-1.13-2.87-4.15s-.35-6.3-.52-9.45c-.11-2-.08-4-.25-5.92-.28-3.32,0-6.63,0-9.94,0-6.57-.44-13.15-.72-19.72a23,23,0,0,0-.27-2.6c-.85-5.38-.23-10.74.15-16.11.36-5.21.73-10.43.81-15.64,0-2.74-.61-5.48-.77-8.23-.2-3.24-.21-6.49-.31-9.74-.1-3.41-.27-6.82-.28-10.22a131.55,131.55,0,0,1,.29-14.26,13.09,13.09,0,0,0-.71-6.18,96.93,96.93,0,0,0-3.6-9.55,39.26,39.26,0,0,0-4.55-6.34c-3.17-4.08-7.69-5.41-12.56-5.88a10.52,10.52,0,0,0-3.06.33c-3.25.67-6.43,1.37-9.32,3.28-2,1.34-4.46,2.06-6.71,3.06a17.5,17.5,0,0,0-2.6,1.17c-4.42,2.91-9.3,4.72-14.25,6.45-3.49,1.22-6.81,2.94-10.24,4.35a69.09,69.09,0,0,1-8,3A39.13,39.13,0,0,1,341.38,252.7Z"/><path d="M488.44,222.46l3.75-.43a4.71,4.71,0,0,1,1.42-.12c3.08.65,6.33.62,9.17,2.29,3.41,2,7,3.8,10.28,5.95,2.65,1.72,5.05,3.83,7.55,5.79a37.13,37.13,0,0,1,3.11,2.58c1.24,1.21,2.37,2.52,3.52,3.81a11.65,11.65,0,0,1,.63,1c4.16,5.78,8.53,11.42,12.41,17.38a72.24,72.24,0,0,1,7.12,12.86,42.78,42.78,0,0,0,3.31,6c2.18,3.66,4.47,7.26,6.61,10.94,1.15,2,2.11,4.08,3.09,6.16a65,65,0,0,0,6,10.52c1,1.4,1.62,3.08,2.5,4.58,2.78,4.71,5.67,9.35,8.4,14.09,1.85,3.22,3.5,6.56,5.25,9.84.93,1.75,1.78,3.56,2.87,5.2a75.47,75.47,0,0,1,5.54,10.77c3.15,6.86,6.68,13.53,11.85,19.14a7.62,7.62,0,0,0,2.2,1.27,19.29,19.29,0,0,1,1.89.88c.25.16.48.88.37,1-1.71,1.6-.48,3.82-1.21,5.6a11.92,11.92,0,0,1-.94,2.39c-1.07,1.53-2.3,1.74-3.89.75a2.13,2.13,0,0,0-2.55-.22,3.92,3.92,0,0,1-4.62-.72c-.71-.63-1.42-1.27-2.08-2a61.24,61.24,0,0,1-10.12-14c-4.6-8.77-9.23-17.54-14-26.21-2.48-4.51-5.32-8.82-8-13.23q-1.59-2.65-3.06-5.37c-2.79-5.16-5.51-10.35-8.33-15.49-1.26-2.29-2.69-4.47-4-6.7-.86-1.42-1.81-2.8-2.59-4.27A154.6,154.6,0,0,0,532.31,279c-3.28-4.76-6.47-9.59-9.73-14.37-1.25-1.83-2.57-3.61-3.9-5.39q-4.47-6-9-12a26,26,0,0,0-9.45-7.78c-4.77-2.36-9.44-4.89-14.84-5.65a8.8,8.8,0,0,0-4.64.54,12.68,12.68,0,0,0-7,7.05,18.68,18.68,0,0,0-1.87,9.9,19.94,19.94,0,0,0,2,7.68,4.47,4.47,0,0,0,2.89,2.59c3.47.72,5.06,2.1,5.11,5.52a18.62,18.62,0,0,0,2,8.21,11.48,11.48,0,0,1,.37,1.13c.42,1.14,0,1.78-1.13,2.18a7.16,7.16,0,0,1-6.61-.82,68.66,68.66,0,0,1-6.27-5.34,23.41,23.41,0,0,0-3.55-3.1,14.56,14.56,0,0,1-6.3-7.8c-1.17-2.93-2.51-5.79-2.95-9A20.8,20.8,0,0,1,460.88,238c1.58-2.47,3.15-4.94,4.72-7.41s4.07-3.49,6-5.34a2.27,2.27,0,0,1,1.09-.43c4.13-.82,8.25-1.66,12.39-2.42a27.56,27.56,0,0,1,3.32-.22Z"/><path d="M368.38,130.44c-2.38.21-5.77.56-9.18.8a15.28,15.28,0,0,1-2.91-.31c-1.45-.18-2.9-.37-4.35-.58-1.28-.19-2.56-.4-3.84-.62-.56-.1-1.11-.24-1.67-.35-3.11-.65-6.34-1-9.29-2a19.32,19.32,0,0,1-8.84-6.28c-2.24-2.89-4.75-5.56-7.15-8.32a26.12,26.12,0,0,1-4.7-6.82c-.76-1.8-1.62-3.57-2.49-5.32-1.58-3.15-1.58-6.64-2.25-10-.46-2.31-.8-4.65-1.38-6.94a6.45,6.45,0,0,1,.12-4.55,9.72,9.72,0,0,0,.89-5,25.73,25.73,0,0,1,1.84-11c1.26-2.95,2.29-6.34,5.44-8.17a3.2,3.2,0,0,0,1.25-1.14c2.33-4.55,6.6-7,10.61-9.65a7.81,7.81,0,0,1,3.2-1.15,8.26,8.26,0,0,0,3.63-1.24,2.57,2.57,0,0,1,1.83-.17,6.93,6.93,0,0,0,4.76-.48,5,5,0,0,1,4.92.14c1.16.71,1.26,1.54.32,2.57-1.64,1.78-1.63,1.78-.47,3.89.9,1.64,1.76,3.3,2.7,4.92.79,1.36.62,2.37-.88,2.89a11,11,0,0,1-7,.44c-2.67-.82-2.57-.73-4.32,1.61a26.27,26.27,0,0,1-4.59,5,9.44,9.44,0,0,0-3.13,4.83c-2.5,7.87-2.87,16-2.6,24.17A12.19,12.19,0,0,0,330,96.14a47.1,47.1,0,0,0,8.51,13,6.8,6.8,0,0,0,1.44,1.31c4.09,2.36,8,5.07,12.68,6.22a24.78,24.78,0,0,0,4.6.55c1.7.09,3.42,0,5.13,0a5.4,5.4,0,0,0,3.89-1.16c2.85-2.56,5.9-4.92,8.51-7.7a45.16,45.16,0,0,0,6.47-8.54,25.68,25.68,0,0,0,3.47-13.32,37.59,37.59,0,0,1,.57-6.81,11,11,0,0,0-2.77-9.3A116.62,116.62,0,0,0,373.68,61,29.45,29.45,0,0,0,364.23,55a27,27,0,0,1-10.17-6.54,8,8,0,0,1-2.13-6.78c.38-2.79,4.4-5.3,7.11-4.51,2.34.68,4.69,1.34,7,2.11a32.13,32.13,0,0,1,8.35,3.83c2.85,2,6.07,3.4,9.05,5.2a21,21,0,0,1,3.82,3,49.57,49.57,0,0,1,8.43,11,69,69,0,0,1,4.39,10.86c3.13,8.81,3,17.93,2.26,27.07a17.6,17.6,0,0,1-.75,3.08,6.87,6.87,0,0,0-.62,2.34c.3,2.18-1.35,3.76-1.58,5.76,0,.4-.58.75-.9,1.11a13.08,13.08,0,0,0-1.3,1.45,23,23,0,0,1-9,8,5,5,0,0,0-.86.46C382,126.67,375.59,128.07,368.38,130.44Z"/><path d="M280.48,119.93c-.62-1.89-1.68-5.14-2.77-8.38a3.09,3.09,0,0,0-.64-1c-1.79-2-3.75-3.84-5.35-6-1.73-2.29-4.13-3.65-6.35-5.26a51.19,51.19,0,0,0-4.45-2.93c-3.49-2-7.44-2.7-11.26-3.78a80.2,80.2,0,0,1-9.45-3.24c-1.61-.68-2.93-2-4.37-3.09-1.69-1.25-3.32-2.57-5.06-3.75a12.71,12.71,0,0,1-4.84-5.68,22.06,22.06,0,0,1-2.1-9A11.3,11.3,0,0,1,225.3,62a17.14,17.14,0,0,0,1.82-4.5c.66-2.54,2.7-3.61,4.71-4.62.59-.3,1.69.18,2.45.53s1.06,1,1.68,1.37a27.49,27.49,0,0,1,4.89,3.87,5.11,5.11,0,0,1,1.65,4.91,3.83,3.83,0,0,1-1.81,2.66c-1.28.59-1.5,1.58-1.82,2.61-.17.53-.08,1.15-.26,1.68a3,3,0,0,0,1.6,4,28.85,28.85,0,0,1,3.81,3c.32.25.68.67,1,.65,3-.15,5.61,1.51,8.41,2.24,3,.79,6.24,1.05,9.06,2.71A20.3,20.3,0,0,0,267.21,85c4.09,1.16,7.36,3.62,10.57,6.25s6.87,5,9.84,7.93a23,23,0,0,1,6.26,10.35c.33,1.25.8,2.47,1.22,3.7a29,29,0,0,1,1.64,10.56,21.8,21.8,0,0,0,.73,5.08c.46,2.2-.5,4.05-1.5,5.76a45.53,45.53,0,0,1-3.65,4.53c-1.38,1.78-2.66,3.64-4,5.45a9.31,9.31,0,0,1-1.37,1.7q-5.16,4.31-10.39,8.52a10.83,10.83,0,0,1-2.38,1.23c-2.53,1.13-5,2.35-7.63,3.31a19.08,19.08,0,0,1-5.21,1.2,52.23,52.23,0,0,0-11.55,2,11.18,11.18,0,0,1-7-.09,20.61,20.61,0,0,0-2.38-.49c-1.91-.39-3.81-.77-5.71-1.19-.47-.1-.93-.44-1.39-.44-2.79,0-4.83-1.83-7.21-2.82-1.71-.72-3.24-1.88-4.89-2.76a18.34,18.34,0,0,1-6.49-5.81,7.93,7.93,0,0,0-1.1-1.32c-3.39-3.1-5.28-7.22-7.41-11.14A26.23,26.23,0,0,1,203,123a58,58,0,0,1,1.08-7.47c.24-1.44.73-2.84.92-4.28.33-2.48,1.7-4.55,2.54-6.83a41.37,41.37,0,0,0,1.7-4c.64-2.54,2.83-4.15,3.66-6.54.29-.83.63-1.65,1-2.45.23-.51.42-1.19.83-1.45,1.78-1.13,2-3,2.63-4.79a4.8,4.8,0,0,1,6.52-2.63,43,43,0,0,1,6.31,4,8.69,8.69,0,0,1,3.4,7,2.24,2.24,0,0,1-.63,1.2,1.69,1.69,0,0,1-.86.44c-2.73.69-4.59,2.72-6.62,4.43a11.31,11.31,0,0,0-2,3c-1.08,1.81-2.2,3.6-3.12,5.49a13.67,13.67,0,0,0-.77,8.87c.64,3.11,1.46,6.18,2.23,9.26.9,3.59,3.12,6.38,5.35,9.22,2.87,3.65,7,5.54,10.66,8.05a9.67,9.67,0,0,0,2.73,1c1.72.51,3.44,1,5.18,1.44a9.81,9.81,0,0,0,3.07.44c3.16-.28,6.3-.72,9.45-1.1.32,0,.71-.2,1-.08,2.67,1.3,5.07-.44,7.6-.64a.91.91,0,0,0,.47-.14c3.61-2.81,8.26-3.83,11.74-6.84a7.74,7.74,0,0,0,1.38-2C283.09,130.91,281.84,126.12,280.48,119.93Z"/><path d="M22.29,196.15c.37-5,.75-9.8,1.08-14.63.2-3,.27-6,.5-9,.33-4.43.83-8.84,1.12-13.27.34-5.14.54-10.3.81-15.45.2-4,.49-7.92.61-11.88.22-7.73,2.26-15.21,3.19-22.84a31.68,31.68,0,0,1,4.35-12.45,31.1,31.1,0,0,0,1.51-2.93,22.15,22.15,0,0,1,5.47-7c1.83-1.64,3.25-3.75,5.62-4.94,1.76-.88,3.07-2.64,4.61-4a5.58,5.58,0,0,1,1.56-1,8.63,8.63,0,0,0,3.39-2.11,4.71,4.71,0,0,1,2.33-1c1.55-.36,3.15-.5,4.39-1.66a1.51,1.51,0,0,1,.65-.29c5.2-1.36,10.07-3.78,15.51-4.46,3-.37,6-.35,8.85-1.57a4.21,4.21,0,0,1,1.63-.22c4.74,0,9.48,0,14.21.13a34,34,0,0,1,4.89,1,60.8,60.8,0,0,0,6.32,1A13.09,13.09,0,0,1,121,69.46a3.87,3.87,0,0,0,1.48.73c3,.29,5.33,2.06,7.55,3.77a35,35,0,0,1,5.26,4.67c1.87,2.16,3.51,4.46,5.18,6.75,1.23,1.69,1.12,1.71,0,3.41a24.89,24.89,0,0,0-2.24,4.66,3.34,3.34,0,0,0,0,1.86c.49,2.14,0,3.4-1.83,4.47a5.26,5.26,0,0,1-.85.42c-3.57,1.28-4.35,1.74-5.86-2.36a9.61,9.61,0,0,0-2.45-3.73,36.57,36.57,0,0,1-3.33-4.24,3.8,3.8,0,0,0-1.12-1.19c-3.09-1.46-5.52-4-8.59-5.37A34.35,34.35,0,0,0,102.32,80c-4.79-.35-9.52.08-14.25.26-2.89.11-5.74,1.09-8.61,1.69a26.38,26.38,0,0,1-3,.66,11.44,11.44,0,0,0-5.82,1.73c-1.23.84-3,.88-4.55,1.24a4.47,4.47,0,0,0-3,1.67,3,3,0,0,1-.89.78,65.72,65.72,0,0,0-5.57,3.56,33.94,33.94,0,0,0-4.29,4.32,32.44,32.44,0,0,0-2.78,3.77c-.77,1.18-1.37,2.46-2.07,3.68-1.09,1.9-2.31,3.74-3.27,5.71a16.1,16.1,0,0,0-1.36,6.22c-.21,3.48-.75,6.94-1,10.42-.22,3.69-1.11,7.36-.52,11.1a7.73,7.73,0,0,1-.28,1.87c-.61,5.59-1.29,11.17-1.75,16.77-.17,2.11.3,4.26.28,6.38s-.25,4.26-.47,6.38a68.35,68.35,0,0,0,.23,13c.33,3.86.26,7.76.61,11.63a28.55,28.55,0,0,0,1.43,6.42,4.29,4.29,0,0,1-.2,3.64c-.41.77-.86,1.51-1.26,2.28-.9,1.72-2.92,2.21-4.07.65-1.44-2-3.16-1.72-5.06-1.48-1.65.21-3.3.41-5,.53A2.29,2.29,0,0,1,23.14,203C22.78,200.68,22.55,198.33,22.29,196.15Z"/><path d="M29.57,345.36c-.23-5.15-.57-10.3-.66-15.45-.07-4.59.31-9.19.19-13.78-.15-5.7-.54-11.4-1-17.09-.68-9.1-1.5-18.18-2.22-27.28Q24.66,256,23.47,240.21a18.3,18.3,0,0,1,0-3.55,2.12,2.12,0,0,1,2.25-2,9.36,9.36,0,0,1,5.66,1.44A56.19,56.19,0,0,0,37,239.57a4.53,4.53,0,0,1,2.6,3.45,47.29,47.29,0,0,1,.41,5.66c.17,3.72.25,7.44.45,11.15.15,2.85.35,5.7.67,8.53.51,4.56,1.1,9.12,1.71,13.67,1,7.46,2.09,14.9,3.06,22.36.55,4.24.74,8.54,1.45,12.74,1.37,8.06,1.86,16.21,2.82,24.3.34,2.82.15,5.7.32,8.55a43,43,0,0,0,.72,6.6,8.67,8.67,0,0,1-1.27,6.32A3.1,3.1,0,0,1,45.45,364a8.67,8.67,0,0,1-1.59-1.42A4,4,0,0,0,40,361.37c-1.58.25-2.53.75-3,2.45s-1.2,3.17-3.24,3.41c-1.45.17-2-.1-2.5-1.53a8.38,8.38,0,0,1-.48-2.08c-.49-6.08-.94-12.16-1.4-18.24Z"/><path d="M499.57,281.53c0,5.15,0,10.31,0,15.46,0,3.32-.21,6.64-.19,10q.09,12,.31,24c.1,5.63.33,11.27.37,16.9,0,4.2-.18,8.41-.24,12.61a14.33,14.33,0,0,0,.19,2.84,10.87,10.87,0,0,1-.12,4.21,18.12,18.12,0,0,0,.18,4.22,12.4,12.4,0,0,1,0,2.37,4.9,4.9,0,0,1-6.21,3.64,2,2,0,0,1-1.05-1.15c-.32-1.11-1.12-1.29-2.07-1.64a11.21,11.21,0,0,0-5.3-.78c-1.7.19-2.22-.32-2.26-2.22a31.16,31.16,0,0,1,.32-5.93,49.23,49.23,0,0,0,.46-8.53c0-5.23.31-10.46.38-15.69,0-2.37-.36-4.74-.28-7.11.21-6.66.56-13.31.87-20,.38-8.3.66-16.61,1.22-24.9.33-4.84-.07-9.65-.09-14.47,0-7.3.05-14.6.08-21.9,0-2.14,0-4.29,0-6.43a7.66,7.66,0,0,0-.39-2.33c-.26-.72-.91-1.3-.23-2.15a4.06,4.06,0,0,1,2.58-1.94,4.42,4.42,0,0,1,4.28,1.53,3.35,3.35,0,0,0,2.63,1.27c2.66.29,3.63,1.3,3.75,4,.07,1.58-.13,3.18,0,4.76.2,3,.52,6,.84,9,.07.71.28,1,.94.24a23.7,23.7,0,0,1,2.06-1.55,15.19,15.19,0,0,0,2-2.29c1.41-2,3.9-2.15,5.28-.12a6.29,6.29,0,0,0,2.47,2.44,2,2,0,0,1,.81.84c1.06,2,2.1,4.07,3.12,6.12s1.06,2.36-.61,3.89-2.76,3.46-5,4.27a2.25,2.25,0,0,0-1,1.66c-.15,1.61-1.39,1.78-2.5,2.12a2.19,2.19,0,0,1-2.7-1,9.92,9.92,0,0,1-1-2.37c-1-3.49-2-7-3.05-10.5a2.79,2.79,0,0,0-.49-.71,3,3,0,0,0-.16.64q-.15,6.18-.27,12.36c0,1.42,0,2.84,0,4.26Z"/><path d="M485.69,203c0-5.95,0-11.89,0-17.84,0-2.78-.09-5.55-.21-8.33a16.88,16.88,0,0,0-.46-4,32.24,32.24,0,0,1-1.21-10.36,94.05,94.05,0,0,0-.73-12.57c-.49-5.11-.45-10.29-.5-15.43,0-5.47.23-10.95.05-16.41-.11-3.39-.9-6.76-1.23-10.15-.35-3.62-.58-7.25-.73-10.88a32,32,0,0,1,.36-4.19,2.34,2.34,0,0,1,1.68-2.09,5.8,5.8,0,0,1,6.34,1.36c2.21,2.51,3,2.6,5.86,1a5.11,5.11,0,0,1,3.88-.63c.94.23,1.39.7,1.74,1.84,1.44,4.62-.25,9.08-.26,13.61,0,2.3-.1,4.6-.14,6.89a1.94,1.94,0,0,0,.1.94c1.71,3,1.47,6.31,1.37,9.52-.31,9.77.68,19.5.72,29.25,0,5.63-.29,11.27-.72,16.88a196.92,196.92,0,0,0-.51,23.3c.14,3.24-.17,6.49-.17,9.74a34.21,34.21,0,0,0,.39,4c.1.86.28,1.72.37,2.58.24,2.26.12,2.38-2,2.93a17.46,17.46,0,0,0-2.91,1c-1.28.58-2.47.72-3.49-.38a2.07,2.07,0,0,0-2.38-.45,42.19,42.19,0,0,1-4.63,1.11c-1.36.23-1.58-.17-1.48-1.56.28-3.55.49-7.1.73-10.66Z"/><path d="M524.47,231.87a2.66,2.66,0,0,1,1.17-2.32,19.46,19.46,0,0,0,3.1-3.23,130.76,130.76,0,0,0,8.89-14.07c1.2-2.22,2.91-4.15,4.33-6.25.8-1.18,1.47-2.43,2.22-3.64,1-1.69,2.09-3.37,3.13-5,.88-1.41,1.84-2.77,2.62-4.23a47.9,47.9,0,0,1,5.23-7.63,28.8,28.8,0,0,0,3.32-5.43A37.43,37.43,0,0,1,566,169.09a14.74,14.74,0,0,0,3.21-5.5,51.68,51.68,0,0,1,6.45-11c1.35-1.82,2.14-4,3.29-6a26.72,26.72,0,0,1,2.78-4.08c1.24-1.44,2.58-1.54,4.22-.59a10.79,10.79,0,0,1,1.55,1.1c.52.44.83.89.27,1.61a3.94,3.94,0,0,0-.6,1.67,8.17,8.17,0,0,0,0,1.58,5.63,5.63,0,0,1,1.36-.6,4.45,4.45,0,0,1,2.08,0,3.87,3.87,0,0,0,3.18-.22,4.08,4.08,0,0,1,5.17,2.1,2.49,2.49,0,0,1-.4,1.72c-3.08,5.35-6.15,10.7-9.33,16a36.7,36.7,0,0,1-4.2,6c-3,3.23-4.52,7.24-6.65,10.94-2.88,5-5.9,9.94-9,14.82-2.08,3.27-4.51,6.33-6.61,9.59-1.15,1.79-1.89,3.84-2.91,5.72a47.77,47.77,0,0,1-2.93,4.87c-1.79,2.52-3.8,4.89-5.55,7.43s-3.3,5.21-5,7.81c-1,1.53-2,3-2.94,4.56a7.74,7.74,0,0,0-1,2.61A3.61,3.61,0,0,1,540.2,244c-.64.3-1.37.43-2,.74-1.12.56-2.22,1.61-3.51.91-1.65-.89-3.44-1.75-4.13-3.74a20.86,20.86,0,0,1-.84-2.48,4.64,4.64,0,0,0-2.32-3.13C525.79,235.34,524.47,234.08,524.47,231.87Z"/><path d="M276,63.14l-7.76.51a18.84,18.84,0,0,0-2.19.13,17.2,17.2,0,0,1-10.66-1.6,5.79,5.79,0,0,0-2.1-.6c-2.8-.14-4.86-1.63-6.77-3.48-.92-.89-2.13-1.51-3-2.47a49.35,49.35,0,0,1-4.56-6A80.12,80.12,0,0,1,233.7,40c-1.46-3.32-3.49-6.55-3.36-10.38.1-2.89,0-5.82,1.2-8.58a20.75,20.75,0,0,0,.85-3.31,8.5,8.5,0,0,1,2.44-4.42,2.85,2.85,0,0,0,.94-1.37c.34-1.71,1.62-2.31,3-2.94a16.5,16.5,0,0,0,3.14-1.76c3-2.26,6.44-3.44,9.77-5,4.45-2,9.18-2.32,13.88-2.26,2.32,0,4.64,1.26,6.94,2a22.4,22.4,0,0,0,3.38,1.28,26.33,26.33,0,0,1,11.76,5.07,78.7,78.7,0,0,1,6,5.37,24,24,0,0,0,7.76,4.93,9.27,9.27,0,0,0,4.77.56c3-.61,6.13-.16,9-1.47,1.63-.73,3.26.4,2.46,2.44a6.62,6.62,0,0,0-.39,2.62,3.47,3.47,0,0,1-2.11,3.55,27.86,27.86,0,0,1-4.95,2c-3.75,1-7.54,1.3-11.3-.15-3-1.14-6.07-1.95-8.9-3.32a32.78,32.78,0,0,1-6.88-4.54,40.59,40.59,0,0,0-12.25-7.43,10.5,10.5,0,0,0-3.13-.52c-3.34-.16-6.68-.28-10-.32s-5.88.95-7.5,4.06c-.94,1.79-2.32,3.35-3.29,5.13a8.62,8.62,0,0,0-.87,3.26c-.57,5.95,1.35,11.43,3.37,16.86a12.43,12.43,0,0,0,2.08,3c.5.64,1.18,1.14,1.66,1.8,2.26,3.1,5.47,3.75,9,3.67,2.28,0,4.56,0,6.84,0a5.19,5.19,0,0,0,1.89-.36c2.84-1.2,5.68-2.4,8.46-3.73a4.41,4.41,0,0,0,1.86-1.86c1.33-2.6,2.58-5.25,3.74-7.93a3.58,3.58,0,0,1,5.89-1.43c.49.43,1,.82,1.47,1.29a5.79,5.79,0,0,0,4.11,1.84,2.52,2.52,0,0,1,2.36,3.74,22.06,22.06,0,0,1-2.18,3.76c-2.11,3.09-4,6.35-7,8.75-1.89,1.54-3.93,2.9-5.8,4.45-1.36,1.12-2.34,2.68-4.13,3.29C278.45,62.07,277.27,62.62,276,63.14Z"/><path d="M14.26,241.26l1.52,7.23a1.79,1.79,0,0,0,1.68,1.44c2.72.45,3.79,2.3,4.07,4.82.26,2.35.55,4.7.74,7.06a2.77,2.77,0,0,1-1.87,3c-1.66.68-3.1,2-5,1.83a3.77,3.77,0,0,1-2.1-.79A64,64,0,0,1,7.45,260C2,253.33-.91,245.8.25,237.09c.42-3.12,1.21-6.2,1.83-9.29a4,4,0,0,0,.21-1.16c-.3-2.58,1.3-4.2,3-5.63,2.34-2,4.84-3.8,7.32-5.61A17.18,17.18,0,0,1,15.35,214a25.75,25.75,0,0,1,15.2-2.32c3.6.53,7.18,1.18,10.76,1.85a8,8,0,0,1,2.17.93q4.09,2.18,8.15,4.42a8.6,8.6,0,0,1,3.26,3,49.78,49.78,0,0,0,10.48,11.89,31.51,31.51,0,0,1,5.51,5.85c2.3,3.21,4.27,6.66,6.27,10.08a16.77,16.77,0,0,1,1.2,3.34c.76,2.33,1.45,4.68,2.24,7,.72,2.13.58,2.9-1.13,4.28-1.22,1-2.2,2.29-3.84,2.71-.3.08-.61.69-.66,1.09a11.66,11.66,0,0,0,0,2.14c.1,2.44.09,2.46-2,3s-3.28.2-4.12-1.51c-.94-1.92-1.71-3.93-2.65-5.85-1.49-3-3.06-6.05-4.61-9.07a2.53,2.53,0,0,0-.43-.56c-4.68-4.93-8.67-10.52-14.12-14.73a24.18,24.18,0,0,1-3.56-3.82,40.77,40.77,0,0,0-11.7-10c-3.76-2.06-7.62-1.78-11.48-.4a3.72,3.72,0,0,0-1.62,1.34A21.58,21.58,0,0,0,14.26,241.26Z"/><path d="M118.64,241.66a5.52,5.52,0,0,0,6.6,5.79,13.76,13.76,0,0,0,9.19-4.91q3.48-4.21,7.24-8.19a64.19,64.19,0,0,1,4.93-4.47c3.12-2.68,6.31-5.3,9.42-8a37.35,37.35,0,0,1,17-8.49c3.17-.67,6.37-1.25,9.56-1.81a9.37,9.37,0,0,1,2.6-.11c4.17.45,8.42.63,12.49,1.55A48.61,48.61,0,0,1,210.81,218a4.69,4.69,0,0,1,.78.54c1.51,1.32,1.55,2-.11,3.07a9.6,9.6,0,0,0-3.85,4.33c-.3.72-1.22,1.2-1.89,1.75s-1.16.82-1.71,1.27c-1.37,1.11-2.12,1.14-3.54,0-1-.8-2-1.58-2.92-2.45a9.32,9.32,0,0,0-5.16-2.16c-6.08-1.1-11.51,1-16.73,3.51-4.77,2.29-9.2,5.29-13.89,7.77-4.41,2.33-7.83,5.91-11.62,9-2.21,1.79-4.31,3.66-6.69,5.26-2,1.34-3.51,3.36-5.41,4.86-2.28,1.8-4.72,3.4-7.13,5a21.1,21.1,0,0,1-1.94.89c-3.22,1.73-6.57,1.58-9.9.52a19.69,19.69,0,0,1-5.88-2.53,14.86,14.86,0,0,1-5.55-7c-.89-2.7-1.43-5.51-2.2-8.25-1-3.7.22-7,1.43-10.42a19.26,19.26,0,0,1,6-8.05,13.15,13.15,0,0,1,8.27-3.14A30.24,30.24,0,0,1,132,223.43a10.64,10.64,0,0,1,2.53,1.28c1.33.9,1.6,2,.71,3.19-1.25,1.71-2.25,3.59-4,4.93a26.46,26.46,0,0,0-3.15,3.53,2.84,2.84,0,0,1-3.83.77,5.47,5.47,0,0,0-2.06-.54,2.65,2.65,0,0,0-3.14,2.24,8.62,8.62,0,0,0-.19,1.18C118.73,240.72,118.67,241.43,118.64,241.66Z"/><path d="M132.06,314.13c.27-3.14.62-6.28.79-9.43.29-5.31.64-10.62.66-15.93s-.33-10.45-.53-15.67a12.76,12.76,0,0,0-.24-3.08c-.78-2.65.55-4.39,2.3-6,2.61-2.4,5.22-4.8,7.86-7.17.65-.58,1.44-1,2.11-1.55a15.75,15.75,0,0,0,2.19-2.08,2.49,2.49,0,0,1,2.92-1c1.85.53,2.11.79,2.35,2.48a67.1,67.1,0,0,1,0,15.6c-.39,4.49-1.21,8.93-1,13.5.11,3.06-.55,6.15-.91,9.22a42.17,42.17,0,0,0,0,10.67,70.69,70.69,0,0,1,.13,16.62c-.06.63-.2,1.26-.23,1.89-.17,4.91-.35,9.81-.49,14.72-.21,7.21-.38,14.41-.57,21.62a2.8,2.8,0,0,0,0,.71c.74,3-1.44,4.27-3.43,5.57a1.89,1.89,0,0,1-1.66-.15c-1-.67-1.86-1.7-2.93-2.29-1.88-1-3.82-.43-5.68.23a14.84,14.84,0,0,0-1.8,1.14c-1.66.9-2.2.56-2.58-1.24-.66-3.16-.1-6.32-.14-9.47,0-1.35,0-2.69.06-4q.19-6.76.39-13.53c.06-1.9.11-3.8.2-5.69.12-2.45.36-4.89.42-7.34.07-2.76,0-5.52,0-8.28Z"/><path d="M363.11,363.9c-1.9.06-3.84.28-5.15-1.61-.12-.17-.69-.16-1-.05s-.59.55-.94.68a4.92,4.92,0,0,1-4.36-.27c-1.22-.74-.26-2.1-.06-3.09a31.64,31.64,0,0,0,.18-10.89,43.17,43.17,0,0,1-.07-8.77c.24-3.7.15-7.43.14-11.14,0-6.82,0-13.65-.15-20.47-.07-3.33-.5-6.64-.71-10-.12-1.82-.12-3.64-.17-5.46-.09-3.25-.13-6.5-.28-9.75-.19-4.12-.45-8.23-.7-12.34-.06-.95-.2-1.89-.31-2.83-.23-1.89-.42-3.78-.71-5.66a17.29,17.29,0,0,0-.82-3.41c-.59-1.58-.34-2.59,1.14-3.32,2.4-1.19,4.83-2.33,7.21-3.57a14.15,14.15,0,0,0,2.53-1.76c2-1.7,4.16-1.31,6.24-.35,1.89.88,2.33,2.71,2.26,4.61s-.41,3.79-.45,5.69q-.11,5.94,0,11.89c.18,10.3.41,20.61.64,30.91,0,.79.19,1.57.23,2.36.13,2.13.23,4.27.34,6.4.24,4.91.5,9.81.71,14.72a9.83,9.83,0,0,1-.16,3.53c-1.06,3.06-.48,6.13-.42,9.2.07,3.78.44,7.58.2,11.34a61.76,61.76,0,0,0-.21,6.59,30.29,30.29,0,0,1-.56,5.18,1.74,1.74,0,0,1-2,1.61Z"/><path d="M318.11,288.72c1.88.54,3.8.85,5.12,2.66s1.81,1.67,3.56.52c.33-.22.64-.47,1-.69,1.89-1.25,2.59-1.22,4,.15s1.56,2.67.54,4.42c-.82,1.42-1.34,3-2,4.49a15.87,15.87,0,0,1-1.39,2.46c-2.72,3.78-5.48,7.54-8.24,11.29-.52.7-1.08,1.37-1.64,2-1.64,1.93-3.32,3.82-4.93,5.77a2.56,2.56,0,0,1-2.71,1c-1.09-.22-1.35-.95-1.7-1.94-1.06-3-.85-5.88-.47-8.9.35-2.81.38-5.65.56-8.48,0-.39,0-.88.17-1.15,1.21-1.55,1.41-3.6,2.89-5.09a10.34,10.34,0,0,0,3.31-6.89C316.11,289,316.82,288.58,318.11,288.72Z"/><path d="M75.95,211c.87-.11,1.56.28,2.37,1.34A11.21,11.21,0,0,1,80.88,218c.14,1.36.85,1.6,2.11,1.53a13.36,13.36,0,0,1,4,.41c1.42.37,1.75,1.46,1,2.72a11.43,11.43,0,0,1-1.56,2.09,25.15,25.15,0,0,0-5.27,8.13c-1.45,3.46-3,3.68-6.2,2.37a18.11,18.11,0,0,1-8.37-6.82,5.2,5.2,0,0,1,0-6.39c1.35-1.95,2.83-3.81,4.16-5.78a17.4,17.4,0,0,0,1.59-3.15C73.06,211.21,73.53,210.86,75.95,211Z"/><path d="M396,51.5c-1.59.14-2-.06-2.66-1.38a4.93,4.93,0,0,0-.91-1.38,25.63,25.63,0,0,1-3.26-2.93c-1.86-2.51-4.61-3.16-7.3-4.1a29,29,0,0,1-5.29-2.44c-1.6-1-1.12-3.73.73-4.63a3.91,3.91,0,0,1,4,0c1.64,1.06,3.35.93,5.18.75a28.57,28.57,0,0,1,6.79-.12c3.81.56,7.28-.48,10.8-1.53.62-.19,1.23-.43,1.87-.57,1-.21,2.11-.66,2.91.46a3.82,3.82,0,0,1,.46,3.92,4,4,0,0,1-1,1.35c-1.4,1.24-2.9,2.38-4.28,3.64-2,1.85-4,3.67-4.92,6.47C398.73,50.07,397.06,50.68,396,51.5Z"/><path d="M49.17,265.13c-2.08.09-2.9-.48-3.45-2.16-.46-1.42-.85-2.88-1.42-4.26-.87-2.12-.25-4.19.15-6.23.21-1.11,2.35-1.69,3.95-1.28a7.35,7.35,0,0,1,4.22,3.23c1.07,1.56,2.1,3.14,3.17,4.69a1.89,1.89,0,0,1-.26,2.77C53.46,263.23,51.71,265.32,49.17,265.13Z"/></g></g></svg>