<svg xmlns="http://www.w3.org/2000/svg" viewBox="0 0 813.84 306.79"><title>logo-liggend-black</title><g id="Layer_2" data-name="Layer 2"><g id="Layer_1-2" data-name="Layer 1"><path d="M697.1,142.39v99.7c0,4.42,3.58,2,8,2s8,2.42,8-2V144.77s-4.81-7.92-9.87-7.92S697.1,142.39,697.1,142.39Z"/><path d="M697.1,108.13v-85c0-4.42,3.58-2.43,8-2.43s8-2,8,2.43v85S705.26,103.29,697.1,108.13Z"/><path d="M388.77,244.06c-4.42,0-8,2.42-8-2v-77l16-10.88v87.86C396.77,246.48,393.18,244.06,388.77,244.06Z"/><path d="M595,151.79v89.26c0,4.42-3.58,2-8,2s-8,2.42-8-2V163.62Zm-1.49-24.9c7.94-5.63,16.87-10.7,25.82-10.7,19,0,40.33,17.25,40.33,40.33v85.57c0,4.42-3.58,2-8,2s-8,2.42-8-2V156.52c0-11.25-10.63-24.33-24.33-24.33-6.6,0-16.59,7.63-23.88,13.2l-.46.35s-12.46,8.2-16,9.58a12.73,12.73,0,0,1-2.81.32c-12.45,0-20.81-10.76-20.81-20.81,0-10.31,10.5-20.81,20.81-20.81,5.11,0,11.5,3.64,15.21,8.36L579,132.66c0-2.18-1.94-2.49-2.83-2.63a4.66,4.66,0,0,0-4.79,4.81c0,3.28,1.53,4.49,4.35,4.78a20.45,20.45,0,0,0,3.26-2"/><path d="M399,124.45c-1.21.79-2.4,1.61-3.57,2.44L381.3,137.38a22.92,22.92,0,0,1-3.68,2.24c-3.86,0-5.35-2.08-5.35-4.78,0-2.93,1.83-4.81,4.2-4.81.44.07,2.71-.35,3.33,1.64l12.76-9.8c-3.71-4.9-9.28-7.84-14.49-7.84-10.31,0-20.81,10.5-20.81,20.81,0,10,8.36,20.81,20.81,20.81,5.85,0,11.47-4.3,19.26-10.25,7.29-5.57,17.27-13.2,23.88-13.2a24.09,24.09,0,0,1,17.47,7.16c3,3.2,3.32-1.47,6.52-4.52s8.12-3.32,5.07-6.52a40.15,40.15,0,0,0-29.06-12.13c-7.64,0-15.25,3.69-22.25,8.27"/><path d="M296.1,136.67c-5.08,0-8,5-8,5V242.06c0,4.42,3.58,2,8,2s8,2.42,8-2V141.64S301.18,136.67,296.1,136.67Z"/><path d="M288.1,107.23V55.52a8,8,0,0,1,16,0v51.72S297.41,102.53,288.1,107.23Z"/><path d="M282.57,165.65c-8.75-5.35-16.18-14.54-16.18-24.18,0-14.59,14.81-28.91,29.91-28.91,7.47,0,14.76,4.52,21.24,10.71l-9.39,13.38c-3.93-3.87-9.13-8.1-11.85-8.1-6.24,0-13.91,7.12-13.91,12.91V143l.18,22.68M322,127.9c1.71-2.82,3.38-5.82,5-9,2-3.93,3.84.42,7.77,2.42s8.49.92,6.48,4.85a163.7,163.7,0,0,1-8.94,15.27,163.59,163.59,0,0,1,8.94,15.27c2,3.94-2.54,3-6.48,5S329,168,327,164h0c-1.52-3-3.22-6-5-8.95a66,66,0,0,1-11.29,10l-.31-19.94a21.19,21.19,0,0,1,2.13-3.65m-29.93,24.16"/><path d="M296.1,65.39c-4.42,0-8-2.71-8-7.13A58.32,58.32,0,0,1,346.36,0a8,8,0,0,1,0,16A42.31,42.31,0,0,0,304.1,58.26C304.1,62.68,300.52,65.39,296.1,65.39Z"/><path d="M375,27.2A42.12,42.12,0,0,0,346.36,16a8,8,0,0,1,0-16,58.08,58.08,0,0,1,39.51,15.45c3.25,3,.84,3.44-2.16,6.69C382.13,23.84,376.55,28.62,375,27.2Z"/><path d="M540.1,223.43v18.63c0,4.42-3.58,2-8,2s-8,2.42-8-2h0"/><path d="M524.1,201.55V157.71c0-14.88-10-25.68-23.68-25.68-15.25,0-20.68,13.27-20.68,25.68,0,4.42-3.51.66-7.92.66s-8.08,3.76-8.08-.66c0-24.54,15.08-41.68,36.68-41.68,22.62,0,39.68,17.92,39.68,41.68v20.18"/><path d="M493.89,248.06a37.16,37.16,0,0,1,0-74.32c7.83,0,14.94,1.86,23.59,8.72l.15,20.57s-7.06-5-8.85-6.41c-5.67-4.5-10.82-6.88-14.89-6.88a21.16,21.16,0,0,0,0,42.32c8.21,0,20.2-9.49,32.91-26A235,235,0,0,0,545.14,178c2.09-3.89,4.62,0,8.51,2.12s7.68,1.56,5.59,5.45a248.49,248.49,0,0,1-19.74,30.25C523,237.2,507.69,248.06,493.89,248.06Z"/><path d="M734.19,132.84c6.49-6.55,14.34-15,23.8-25.87,21.66-24.9,30.74-35.6,30.93-35.85,2.68-3.52,5.41,1,8.93,3.71s6.48,2.46,3.81,6c-.2.26-9.74,11.57-31.87,37-9.16,10.52-17.5,19.55-24.92,27,7.11,8.39,15.45,19,25.32,32.35,22.1,29.94,42.79,57.92,43,58.23,2.4,3.71-2,3.45-5.74,5.85-1.34.87-6.18,5.2-7.71,2.83-.19-.29-20.11-27.1-41.55-56.23-10-13.59-18.22-24-24.95-32a76.58,76.58,0,0,1-13,9.69l-.05-19.59a22.83,22.83,0,0,0,2.41-2M717,138.26c-7.89-7.49-11.06-8.41-11.74-8.53-7.79.05-13.82,7-13.82,12.91a9.65,9.65,0,0,0,.3,2.46l-1.24,19-2.09-.63c-8.74-5.35-13-11.24-13-20.88,0-15.4,14-28.91,29.91-28.91,4.79,0,12.73,3.69,24.1,14.41Z"/><path d="M94.49,133a45.5,45.5,0,0,1,6.59,1c4.19,1.4,3.12-3.45,4.53-7.64s4.75-6.12.56-7.53c-6.43-2.15-15.06-1.79-20.42,1.51A23.85,23.85,0,0,1,94.49,133Z"/><path d="M21.54,171.68c-.45-1-4.4-10.46-4.4-20C17.14,128.8,31.93,114,54.82,114c22.05,0,38.68,17.92,38.68,41.68a8,8,0,0,1-16,0C77.5,138.06,65.74,130,54.82,130c-14.18,0-21.68,7.48-21.68,21.64,0,5.28,4,15.73,4.82,17.74Z"/><path d="M55.82,193.35a8,8,0,0,1,0-16c15,0,21.68-12.9,21.68-25.68h16C93.5,175.82,77.65,193.35,55.82,193.35Z"/><path d="M30.43,231A32.69,32.69,0,0,0,16,258.09c0,17.42,16.18,32.7,34.62,32.7h17.3a8,8,0,0,1,0,16H50.62C23.18,306.79,0,284.49,0,258.09a48.59,48.59,0,0,1,16.22-36.26Z"/><path d="M69.52,224.76H41.46a8,8,0,1,1,0-16H69.52a8,8,0,1,1,0,16Z"/><path d="M107.46,266.09a8,8,0,0,1-8-8c0-17.75-14.7-33.33-31.46-33.33a8,8,0,0,1,0-16c25.73,0,47.46,22.59,47.46,49.33A8,8,0,0,1,107.46,266.09Z"/><path d="M64.84,306.79a8,8,0,0,1,0-16c18.44,0,34.62-15.28,34.62-32.7a8,8,0,0,1,16,0C115.46,284.49,92.28,306.79,64.84,306.79Z"/><path d="M38.13,224.76a23.72,23.72,0,0,1,0-47.43H59.77a8,8,0,0,1,0,16H38.13a7.72,7.72,0,0,0,0,15.43,8,8,0,0,1,0,16Z"/><path d="M686.49,159.87"/><path d="M159.75,236.63c-24.14,0-41.67-19.44-41.67-46.22a7.93,7.93,0,0,1,15.86,0c0,15.11,8,30.35,25.81,30.35a30.39,30.39,0,0,0,30.35-30.35l-.24-7.13c2.75-.16,11.16-4.51,12.67-4.94.89-.25,2.64-2.3,2.87-1.71.71,1.82.56,7.36.56,14.62A46.45,46.45,0,0,1,159.75,236.63Z"/><path d="M126,196.07a7.94,7.94,0,0,1-7.93-7.93V162.38c0-26.35,18.89-46.21,43.94-46.21S209,138.86,206,160.75c-.59,4.33-3.56,9.56-7.94,9.56a7.94,7.94,0,0,1-7.93-7.93C190.11,144.79,178.3,132,162,132s-28.08,12.77-28.08,30.35v25.77A7.94,7.94,0,0,1,126,196.07Z"/><path d="M174.88,143c-1-.57-1.84,1.21-2.6,2-8.09,8.2-6.44,20.71.19,27.24,6.79,6.7,20.54,6.61,27.24-.18,3.39-3.44,6-9,5.18-14.65l-14.76,1.12c.91,1.7-1.77,3.85-2,4.18-1.55,1.57-4,1.55-5.9-.36-1.78-1.75-1.72-5.25.79-7.79C183,154.51,181.47,146.84,174.88,143Z"/><path d="M207.59,144.3s16.07-4.51,17.53-6.64-3.53-12.11-4.86-14-19.61,6.94-19.61,6.94A49.9,49.9,0,0,1,207.59,144.3Z"/></g></g></svg>