<svg xmlns="http://www.w3.org/2000/svg" viewBox="0 0 328.18 172.59"><defs><style>.cls-1{fill:#94f3ff;}.cls-2{opacity:0.37;}.cls-3{fill:#00e2ff;}</style></defs><title>logo-staand-blue-3</title><g id="Layer_2" data-name="Layer 2"><g id="Layer_2-2" data-name="Layer 2"><path class="cls-1" d="M40.2,135.49C59.78,107,90,86.31,117.51,66.1c14.73-10.83,29.68-21.37,44.69-31.82,14-9.79,28.05-21.39,44.45-27L167.17,8.38c-23,26.2-48,50.56-71.19,76.61a466.76,466.76,0,0,0-32.32,40.08c-4.88,6.88-9.5,13.93-13.8,21.19-4.47,7.55-9.81,15.59-9.52,24.68.07,2.05,14.23,1.61,14.84,1.6,7.53-.12,15.26-.39,22.64-2,15.15-3.39,28.17-12.8,40.39-22,12-9,23.27-18.89,34.44-28.87C174.92,99.73,197,79.24,223,64.15l-39.48,1.08L147.34,113.5C141.51,121.28,135.67,129,130,137c-4.87,6.84-11.36,14.24-11.09,23.11.1,3.39,36.14,1.59,39.48-1.08L256,81.15l-39.48,1.08-29.58,40.33c-4.58,6.24-9.91,12.37-13.8,19.07-3.53,6.07-3,12.38,4.69,13.94,12.73,2.57,27.32,1.14,40.05-.91A66.29,66.29,0,0,0,240,146.93c12.08-6.8,22.73-15.86,33.47-24.54,12.13-9.81,24.57-19.34,39-25.45L273.06,98c1,4.57-1.49,8.32-3.85,12-2.66,4.2-5.5,8.27-8.35,12.35-5.49,7.86-11.06,15.75-15.32,24.37a69.8,69.8,0,0,0-5,12.9c-1.32,5,.3,7.85,5.4,8.86,9.44,1.88,19.81,1.26,29.32.53,7.59-.58,15.22-1.46,22.35-4.26,2.46-1-2.43-1.76-2.1-1.7a65.09,65.09,0,0,0-12-.55c-7.82.12-17.2-.25-24.64,2.68q-12.79,5,22.11-.85l-.67-1.25a16.59,16.59,0,0,1,.45-5.19,64.91,64.91,0,0,1,3.28-9.21,117.68,117.68,0,0,1,10-17.82c3.65-5.53,7.55-10.9,11.28-16.38,3.49-5.13,9.34-11.63,7.94-18.24-.57-2.71-16.13-1.57-17.51-1.53-6.93.19-15.45-.14-22,2.61-28.06,11.84-47.45,36.56-74,50.81a69.81,69.81,0,0,1-9.53,4.15q-14.31,3.48,22.89-.66a4.7,4.7,0,0,1-1.86-2.41,7.55,7.55,0,0,1-.18-3.89c.6-3.58,2.92-6.64,5-9.5,2.69-3.71,5.41-7.38,8.12-11.07L256.68,80.5c.58-.78-7.08-1.47-6-1.39-3.85-.27-7.71-.25-11.56-.14-4.26.12-8.56.31-12.79.83-2.55.31-7.14.16-9.17,1.78l-97.56,77.85,39.48-1.08c-.26-8.6,5.82-15.68,10.53-22.32,5.81-8.19,11.85-16.21,17.86-24.24l36.14-48.27c.58-.78-7.09-1.47-6-1.39-3.85-.27-7.71-.25-11.56-.14-4.26.12-8.56.31-12.79.83-2.84.34-6.66.33-9.17,1.78C158.67,79.39,137,99.4,115.09,119c-10.75,9.63-21.59,19.18-33,28s-24.63,19.49-39,22.71l37.48-.44c-.29-9.1,5-17.14,9.52-24.68,4.3-7.26,8.92-14.31,13.8-21.19a466.77,466.77,0,0,1,32.32-40.08c23.18-26,48.18-50.41,71.19-76.61.62-.71-7.16-1.47-6-1.39-3.85-.27-7.71-.25-11.56-.14-7.22.2-15.06.26-22,2.61-16.39,5.57-30.41,17.18-44.45,27-15.53,10.82-31,21.73-46.24,33C49.72,87.91,19.6,108.74,0,137.22c-.55.8,7.05,1.47,6,1.39a112.87,112.87,0,0,0,14.23.07,122.41,122.41,0,0,0,14.17-1.29c1.67-.28,4.77-.38,5.81-1.89Z"/></g><g id="Layer_1-2" data-name="Layer 1"><g class="cls-2"><path class="cls-3" d="M211.81,139.9a133.11,133.11,0,0,1-13.73,8.58,69.82,69.82,0,0,1-9.53,4.15q-14.31,3.48,22.89-.66a4.7,4.7,0,0,1-1.86-2.41,7.55,7.55,0,0,1-.18-3.89A15.87,15.87,0,0,1,211.81,139.9Z"/><path class="cls-3" d="M271.38,98.33c1,4.57-1.49,8.32-3.85,12-2.66,4.2-5.5,8.27-8.35,12.35-4.44,6.36-8.93,12.75-12.74,19.52,8.86-5.93,17.09-12.83,25.36-19.52,12.13-9.81,24.57-19.34,39-25.45Z"/><path class="cls-3" d="M278.6,163.44c0-.19,0-.37,0-.55-7.08.05-15,.11-21.42,2.65q-12.79,5,22.11-.85Z"/><path class="cls-3" d="M102.68,76c4.42-3.24,8.82-6.44,13.15-9.62C130.57,55.58,145.52,45,160.52,34.59c14-9.79,28.05-21.39,44.45-27L165.49,8.7C145.22,31.77,123.43,53.42,102.68,76Z"/><path class="cls-3" d="M151,120c22.28-19.92,44.33-40.41,70.32-55.5L181.8,65.55l-36.14,48.27c-5.82,7.78-11.67,15.54-17.3,23.46-1.27,1.78-2.64,3.59-4,5.46C133.49,135.46,142.26,127.75,151,120Z"/><path class="cls-3" d="M214.83,82.55l-29.58,40.33c-4.58,6.24-9.91,12.37-13.8,19.07a13.29,13.29,0,0,0-2.07,7.29l84.93-67.77Z"/><path class="cls-3" d="M168,136.34c5.81-8.19,11.85-16.21,17.86-24.24l12.1-16.16-80,63.81,39.48-1.08C157.17,150.07,163.25,143,168,136.34Z"/><path class="cls-3" d="M88.34,144.85c1.59-2.68,3.24-5.33,4.91-8-4.22,3.54-8.51,7-12.88,10.37-11.48,8.82-24.63,19.48-39,22.71l37.48-.44C78.53,160.44,83.87,152.4,88.34,144.85Z"/></g><path d="M260.57,163.81c0,7.33.46,5.35,1.55,4.85.62-.29,1.33.59,2.05.59.5,0,1.65-.52,2-.39a4,4,0,0,1,1,.42c.6.48.54-.74.54-7.2"/><path d="M260.35,164.06c0,.54-.37,5.41.61,5.46.28,0,.6-.48.86-.57.7-.26,1.14.32,1.78.49s1.33-.3,2.05-.32c1,0,1.57,1,2.15-.11a4.71,4.71,0,0,0,.19-1.87c0-1.77,0-3.54,0-5.31,0,.17-.45.34-.45.51,0,1.77,0,3.54,0,5.31,0,.51.12,1.49-.23,1.93l.44-.5c-.17.13-.45-.16-.58-.21-1-.43-1.5,0-2.52.1-.83.08-1.49-.8-2.3-.56-.23.07-.39.3-.59.4-.44.23-.48.3-.71-.18a4.73,4.73,0,0,1-.18-1.64c-.06-1.14-.06-2.29-.06-3.43,0,.17-.45.34-.45.51Z"/><path d="M56.14,163.81c0,7.33.46,5.35,1.55,4.85.62-.29,1.33.59,2.05.59.5,0,1.66-1.63,2.05-1.5,1.19.37,1.54,3,1.54-5.66"/><path d="M55.92,164.06a19.9,19.9,0,0,0,.2,4.87c.14.53.16.63.63.48.17-.06.31-.27.48-.36.62-.33,1,0,1.58.24,1.5.6,1.63-1.41,2.84-1.26.73.09.75,1,1.4.23a1.92,1.92,0,0,0,.39-1.11,45.71,45.71,0,0,0,.13-5.32c0,.17-.45.34-.45.51,0,1.56,0,3.13-.08,4.69a3.18,3.18,0,0,1-.28,1.55l.45-.51c-.27.26-.75-.43-1-.5-.64-.18-1.06.55-1.51.94s-.57.52-1.09.42-1-.73-1.69-.53c-.39.11-.75.8-1.16.54s-.27-1.13-.29-1.4c-.11-1.32-.09-2.66-.09-4,0,.17-.45.34-.45.51Z"/><path d="M99.42,45.78c5.12,5.24,4.07,3.51,4.49,2.38.24-.64,1.37-.51,1.88-1,.35-.35,0-2.32.42-2.51,1.11-.57,3.17,1-2.85-5.13"/><path d="M99.19,46c.63.64,3.17,4,4.28,3.46.65-.31.5-1.36.85-1.85l-.45.51c.67-.4,1.53-.42,2-1.1s0-2,.55-2.66l-.44.5c.51-.23,1.41,0,1.62-.75.11-.37-.08-.57-.32-.9a37.76,37.76,0,0,0-3.7-4s-.47.5-.45.51c.3.31,4.59,4.22,4.09,4.82l.42-.48c-.36.25-.89.09-1.27.34-1,.67-.3,2.06-.8,3l.45-.51c-.72.49-1.59.48-2.11,1.23-.3.43-.19,1.06-.49,1.44l.44-.5c-.76.54-3.86-3.18-4.21-3.53,0,0-.47.5-.45.51Z"/><path d="M188.48,139.18c3.53-5.81,2.43-5.37,1.23-5.44-.68,0-.9-1.15-1.53-1.49-.44-.23-2.23.65-2.52.36-.88-.89,0-3.33-4,4.26"/><path d="M188.71,138.93c.41-.67,3.44-4.76,2-5.4-.2-.09-.46,0-.67,0-.77-.22-.75-.87-1.34-1.31-.89-.66-2.06.7-2.86.06-.55-.44-.21-1.32-1-.67a4.48,4.48,0,0,0-.75.93,46.21,46.21,0,0,0-2.62,4.62c.1-.19.34-.32.45-.51.28-.52,2.41-5.08,3-4.79.22.11.23.57.37.74.52.64,1.17.18,1.9,0,1.39-.31,1.25,1.07,2.37,1.42.29.09.74-.09,1,.14,1,.91-1.82,4.63-2.22,5.3.12-.19.33-.32.45-.51Z"/><path d="M233.81,163.81c0,7.33.46,4.67,1.55,4.16.62-.29,1.33.59,2.05.59.5,0,1.66-.95,2.05-.82,1.19.37,1.54,3,1.54-5.66"/><path d="M233.58,164.06c0,1.31-.3,3.32.18,4.59.18.47.14.47.54.29.85-.38.57-1.05,1.81-.53a1.81,1.81,0,0,0,2,0c.45-.23.82-.54,1.33-.37.66.23.78.93,1.34.12a2.37,2.37,0,0,0,.35-1.24c.16-1.7.11-3.43.11-5.13,0,.17-.45.34-.45.51,0,1.56,0,3.13-.08,4.69a3.18,3.18,0,0,1-.28,1.55l.45-.51c-.26.25-.71-.37-.93-.46-.7-.3-1.19.33-1.84.56-1,.34-1.73-.8-2.65-.38-.32.15-.71.95-1.08.77s-.23-.92-.25-1.13c-.11-1.28-.09-2.59-.09-3.87,0,.17-.45.34-.45.51Z"/><path d="M201.43,161.88c0,2.33-.1,4.25,0,5,.21,1.51.76,1.48,1.5,1.14s1.4.15,2.12.15c.5,0,1.59-.5,2-.38.75.23,1.39.29,1.59-1,.12-.79,0-1.4,0-4.63"/><path d="M201.2,162.14c0,1.33-.06,2.65,0,4,0,.65-.07,1.88.6,2.23.36.18.61,0,1-.12a6.54,6.54,0,0,1,1.9.13,5,5,0,0,0,1.41-.26,3.31,3.31,0,0,1,1.2,0c2.54.17,1.59-5,1.59-6.27,0,.17-.45.34-.45.51,0,1.15,0,2.3.08,3.45a3.16,3.16,0,0,1-.42,2.14l.44-.5c-.45.3-.7.09-1.19.06a5.9,5.9,0,0,0-1.45.28,4.46,4.46,0,0,1-1.64-.08c-.65-.1-1,.22-1.59.21-1.65,0-.93-5.32-.93-6.27,0,.17-.45.34-.45.51Z"/><path d="M102.57,162.2c0,2.33-.1,4.25,0,5,.21,1.51.76.8,1.5.45s1.4.83,2.12.83c.5,0,1.59-.5,2-.38.75.23,1.39.29,1.59-1,.12-.79,0-1.4,0-4.63"/><path d="M102.35,162.46c0,.78-.58,6,.73,5.82.36-.05.62-.46,1-.46s.82.43,1.19.62c.95.5,1.69-.17,2.67-.12s1.35,0,1.81-.79a3.69,3.69,0,0,0,.26-1.93c0-1.15-.08-2.3-.08-3.45,0,.17-.45.34-.45.51,0,1.15,0,2.3.08,3.45a3.16,3.16,0,0,1-.42,2.14l.44-.5c-.45.3-.72.07-1.19.06a9.42,9.42,0,0,0-1.6.31c-1.1.16-1.69-1-2.75-.64-.29.11-.61.48-.95.29s-.32-.93-.35-1.27c-.11-1.5,0-3,0-4.54,0,.17-.45.34-.45.51Z"/><path d="M312.74,165.46a9.22,9.22,0,0,0,9.89,2.76c7.29-.75,5.28-1,4.66-2-.35-.59.45-1.39.38-2.1-.05-.49-1.79-1.48-1.71-1.89.25-1.23,2.78-1.84-5.79-1,0,0-.92.78-4.42-3.66"/><path d="M312.51,165.72a9.07,9.07,0,0,0,7.8,3.15c1.29-.11,2.56-.43,3.85-.59a17.67,17.67,0,0,0,2.82-.44c.36-.1,1-.33,1.14-.76s-.16-.49-.42-.89c-.53-.82.19-1.3.16-2.15s-1.29-1.06-1.58-1.86c-.21-.58.51-.84.42-1.29s-1.31-.33-1.69-.31c-1.54.06-3.38.63-4.88.45-1.7-.21-3.22-2.54-4.16-3.71,0,0-.48.48-.45.51,1,1.3,2.56,3.63,4.41,3.67,1.52,0,3.1-.34,4.64-.41.28,0,1.49-.19,1.68.17s-.24.51-.31.7c-.36.91.38,1.1,1,1.75,1,1-.36,2,.37,3.06.14.21.61.46.4.75l.45-.51c-.71.61-2.2.58-3.06.69-2.18.28-4.42.92-6.62.58a8.83,8.83,0,0,1-5.53-3.09s-.48.47-.45.51Z"/><path d="M173.4,164.39a4.61,4.61,0,0,1,.08.76c0,1.1.09,1.88.15,2.44s.19.48.3.6.57.28,1-.11.59-.24,1,.1,1,.2,1.37.2,1.24-1.31,1.64-1.08c.85.49,1.33,2.55,1.5-2.08.07-1.86.1-4.22.1-8.78Z"/><path d="M173.17,164.64c.16.88-.26,3.09.42,3.74s1-.2,1.6-.21,1,.65,1.76.47,1.21-1.36,2.07-.86c.33.19.41.7.83.6,1-.23.82-2.91.84-3.42.12-2.92.1-5.85.1-8.78l0,0-7.16,8-.39.45,6.36-7.07c.07-.08.68-.9.79-.88s0,4.52,0,5c0,1.08,0,2.16-.06,3.24,0,.93.2,2.66-.41,3.45l.44-.5c-.34.19-.64-.54-.88-.66-.84-.44-1.27.8-2.16.93-.72.11-1.13-.55-1.78-.5s-.77.75-1.39.25-.31-2.89-.47-3.77C173.65,164.26,173.15,164.5,173.17,164.64Z"/><path d="M130.87,112s.2.18.56.52c2.28,2.19,2.69,2.1,2.85,1,.06-.4-.31-1.45.37-1.32a1.37,1.37,0,0,0,1.28-.55c.37-.33.38-1.41.82-1.5,1-.19,2.86,1.1-.07-2.49C135.51,106.26,130.87,112,130.87,112Z"/><path d="M130.64,112.27c.61.54,2.27,2.72,3.22,2.14s.36-1.58.66-2.34l-.45.51c.41-.29.93-.05,1.4-.44a3.81,3.81,0,0,0,.39-.39c.48-.52.53-1.2.95-1.74l-.44.5c.67-.35,1.55.4,2-.5.21-.44-.08-.76-.36-1.17-.45-.67-1-1.81-1.93-1.59-1.4.32-2.69,1.93-3.62,2.94-.62.67-1.22,1.35-1.8,2.06.1-.13.31-.33.44-.49a14.74,14.74,0,0,1,4-3.75c.74-.41,1.15-.38,1.68.27.26.32,1.53,1.6,1.26,2.14l.45-.51c-.37.34-1.16-.18-1.62.09-.67.39-.68,1.38-1.11,1.92l.44-.5a2,2,0,0,1-.71.52c-.32.11-.63,0-.92.13a1.39,1.39,0,0,0-.31.35c-.4.61.11,1.43-.37,2l.42-.48c-.78.58-2.71-1.78-3.18-2.19Z"/><path d="M309.15,86.93c1.5-1.77,2.83-3.17,3.21-3.77.82-1.29,0-1.23-.77-1.45s-.61-1.4-1.16-1.87c-.38-.32-1.54-.64-1.76-1-.42-.66-.87-1.11-1.88-.25-.6.52-.87,1.1-3,3.57"/><path d="M309.34,86.71c.28-.32,3.8-3.63,3.58-4.62-.15-.69-1.29-.59-1.67-1.31-.22-.41-.25-.87-.6-1.2s-1-.43-1.44-.74c-.9-.65-1.11-1.43-2.26-.45a5.14,5.14,0,0,0-.48.5c-1,1.11-1.88,2.34-2.84,3.49l.39-.44c.57-.68,1.14-1.36,1.69-2.06.28-.35.7-.89.74-.92,1-.89,1.24-.55,2,.14.5.47,1.27.54,1.76,1s.41,1.3.92,1.73,1.2.11,1.36.78c.21.91-1.65,2.4-2.15,3l-1.37,1.58.39-.44Z"/><path d="M233.84,32.33c2.14,0,3.91.05,4.56,0,1.39-.21,1.36-.71,1-1.4s.12-1.29.11-1.95c0-.46-.48-1.46-.37-1.83.21-.69.25-1.28-1-1.46-.73-.11-1.29.06-4.26.1"/><path d="M233.61,32.58c1.22,0,2.44,0,3.67,0a3.07,3.07,0,0,0,2-.5c.78-.66.29-1.12.29-2,0-.51.23-1,.18-1.51s-.28-.84-.33-1.27c-.1-.78.41-1.46-.59-1.81a4,4,0,0,0-1.49-.1c-1.06,0-2.11.1-3.17.11-.16,0-.3.51-.45.51,1.12,0,2.24-.09,3.36-.12.59,0,1.63-.08,1.92.56.17.38-.07.74-.07,1.11a12.73,12.73,0,0,0,.36,1.41c.09.68-.26,1.32-.13,2,.08.42.35.7.12,1.13l.45-.51a3.17,3.17,0,0,1-2.16.49c-1.17,0-2.34,0-3.51,0-.16,0-.3.51-.45.51Z"/><path d="M266.16,165.07c-2,0-5.59.9-5.59-1.08v-49.5c.07-.31.62-2.39,2.65-2.39,1.82,0,3.82,2.55,4.52,3.66v44.72C267.74,162.46,268.14,165.07,266.16,165.07Z"/><path d="M266.39,164.81c-1.53,0-5.3,1.09-5.59-1.15a18.58,18.58,0,0,1,0-2.32V115.41a3.71,3.71,0,0,1,.69-2.61l-.38.44c1.2-1.34,2.83-.9,4.07.09.7.56,2.1,1.8,2.34,2.72a8.72,8.72,0,0,1,0,1.95v38.18q0,2,0,3.92c0,1.53.39,3.4-.45,4.73l.44-.5a1.45,1.45,0,0,1-1.12.49c-.17,0-.29.5-.45.51,2.86-.27,2-4.55,2-6.65V118a11.26,11.26,0,0,0,0-2.4,6.66,6.66,0,0,0-2-2.45c-1.23-1.11-2.87-1.83-4.26-.55s-1.35,2.77-1.35,4.59v43.5c0,1.11-.07,2.25,0,3.36.16,2.44,4,1.36,5.59,1.32C266.09,165.32,266.24,164.82,266.39,164.81Z"/><path d="M267.74,96.59a9.14,9.14,0,0,0-3.69-.81,7.92,7.92,0,0,0-3.47.79V43.66c0-2,.92-.92,2.9-.92s4.26-1.06,4.26.92Z"/><path d="M268,96.33a8.77,8.77,0,0,0-6-.45c-1,.31-.87.7-1.11.1a9.84,9.84,0,0,1,0-2.88v-48c0-.71-.2-2.19.26-2.77l-.44.5c.44-.25,1,0,1.43,0a8.87,8.87,0,0,0,2.49,0c1.21-.15,2.82-.61,3,1,.06.64,0,1.31,0,2v51c0-.17.45-.34.45-.51V45.89c0-.79.07-1.62,0-2.41-.09-1-.59-1.29-1.57-1.26-.83,0-1.64.24-2.48.26s-1.55-.31-2.29-.27c-1.79.12-1.27,3.22-1.27,4.42V95.26a4.45,4.45,0,0,0,0,1.19c.19.56-.18.39.83,0a8.71,8.71,0,0,1,6.33.36C267.58,96.88,267.9,96.31,268,96.33Z"/><path d="M106.17,162.46c-2,0-3.58,2.9-3.58.93v-38s.82.23,2.58-1.18l4.58-3.69v40.75C109.75,163.22,108.15,162.46,106.17,162.46Z"/><path d="M106.4,162.2c-1.19.1-1.76.89-2.76,1.37-.64.31-.73.27-.82-.46a12.6,12.6,0,0,1,0-1.47V125.11l-.45.51c.9.18,1.93-.69,2.58-1.18,1.32-1,2.58-2.08,3.87-3.12.82-.66.71-.68.71.23V160.1a5.2,5.2,0,0,1-.24,2.37l.45-.51c-.78.76-2.37.27-3.34.24-.15,0-.31.52-.45.51,1.36,0,3.26.6,3.92-1a6.29,6.29,0,0,0,.11-2.13V122.37c0-.23.19-2,0-2.14a43.36,43.36,0,0,0-3.51,2.82c-.88.71-2.38,2.31-3.66,2a2.66,2.66,0,0,0-.45.51v35.83c0,.69-.06,1.42,0,2.11,0,.53,0,.71.52.7.34,0,.95-.66,1.21-.83a3.86,3.86,0,0,1,1.85-.71C106.11,162.7,106.24,162.21,106.4,162.2Z"/><path d="M237.41,165.07c-2,0-3.58-.6-3.58-2.58v-41c0-5.83-5.51-12.62-12.62-12.62-3.45,0-8.52,3.87-12.22,6.7l-.23.17a91,91,0,0,1-7.89,4.74,6,6,0,0,1-1.28.14,10.14,10.14,0,0,1-10-10c0-5,5-10,10-10,2.28,0,5.17,1.54,7,3.71l-5.35,4.43a2,2,0,0,0-1.62-1h-.08a2.75,2.75,0,0,0-2.81,2.84,2.5,2.5,0,0,0,2.56,2.82h.11l.1,0a10.28,10.28,0,0,0,1.72-1l7.28-5.41c3.47-2.45,8-5.28,12.68-5.28,9.34,0,19.78,8.46,19.78,19.78V164C241,166,239.38,165.07,237.41,165.07ZM205,164c-2,0-3.58-.1-3.58-2.08V125.3l7.16-5.3v42.88C208.59,164.86,207,164,205,164Z"/><path d="M237.63,164.81c-1.89,0-3.49-.61-3.58-2.71,0-.64,0-1.29,0-1.94V127.42c0-2,0-4,0-6a13.49,13.49,0,0,0-6.84-11.2,10.1,10.1,0,0,0-7.69-1.26c-3,.91-5.77,3-8.28,4.85a53.08,53.08,0,0,1-9.56,6.17c-2.82,1.26-6.53-.31-8.63-2.3a10,10,0,0,1-3.17-8.21,10.22,10.22,0,0,1,7.18-8.21c3.55-1.05,7,.73,9.33,3.36l.45-.51L203,107.27c-.27.23-1.13,1.22-1.48,1.22-.1,0-.61-.56-.83-.67a2.11,2.11,0,0,0-1.32-.21,3.57,3.57,0,0,0-2.45,1.71c-1.43,2.3.73,5.43,3.22,3.91,2.81-1.71,5.34-3.93,8-5.87,5.37-3.91,11.35-6.61,18-4.54a21.39,21.39,0,0,1,13,11.51,22.17,22.17,0,0,1,1.58,9.21V163a4.75,4.75,0,0,1-.24,2.24l.45-.51c-.79.71-2.39.15-3.34.12-.15,0-.31.52-.45.51,1.22,0,3,.71,3.76-.6a3.29,3.29,0,0,0,.27-1.77V129.3c0-2.51,0-5,0-7.52a19.61,19.61,0,0,0-4.51-12.64c-3.67-4.44-9.42-7.67-15.28-7.64s-10.77,3.86-15.25,7.18c-1.55,1.15-3.08,2.35-4.67,3.47-1,.72-1.76,1.37-3,.85a2.85,2.85,0,0,1-1.27-3.85,2.41,2.41,0,0,1,3-.8c.32.16.66.66.86.64s.62-.52.78-.65l4.47-3.7a6.46,6.46,0,0,0,.45-.51c-2.23-2.47-5.47-4.29-8.87-3.48a11.41,11.41,0,0,0-5.85,3.83c-3.48,4-3.62,9.51.16,13.42,1.93,2,5.52,3.77,8.37,2.88,2-.62,3.92-2.19,5.66-3.3,4.13-2.62,7.83-6.41,12.56-7.92,5.66-1.81,11.62,2.81,13.76,7.8,1,2.34,1,4.64,1,7.1v35.07c0,1,0,2,0,2.93,0,2.17,1.57,2.83,3.58,2.88C237.33,165.33,237.49,164.81,237.63,164.81Z"/><path d="M205.23,163.7c-1.72,0-3.46-.06-3.58-2.15,0-.54,0-1.1,0-1.64V125l-.45.51c.83-.61,7-5.41,7.16-5.19s0,2,0,2.44v38.58a6,6,0,0,1-.24,2.71l.45-.51c-.79.71-2.39.15-3.34.12-.15,0-.31.52-.45.51,1.25,0,3,.7,3.79-.64a4.15,4.15,0,0,0,.24-2V125.16c0-.47.36-5.23,0-5.4-.12-.06-1.18.87-1.31,1l-2.79,2.06a18.77,18.77,0,0,0-3.16,2.38c-.87,1-.34,3.45-.34,4.71v27.71c0,1.34,0,2.68,0,4,0,2.27,1.47,2.6,3.58,2.61C204.93,164.22,205.09,163.7,205.23,163.7Z"/><path d="M100.82,120.66a10.14,10.14,0,0,1-10-10c0-5,5-10,10-10a9,9,0,0,1,6.66,3.43l-5.65,4.34a1.82,1.82,0,0,0-1.52-.6H100a2.61,2.61,0,0,0-2.53,2.84c0,1.79,1.13,2.82,3.11,2.82h.08l.08,0a11.48,11.48,0,0,0,1.93-1.17l7.07-5.26c.62-.44,1.2-.83,1.77-1.21,4.25-2.78,7.72-4.07,10.91-4.07a19.69,19.69,0,0,1,14.25,5.95c1.36,1.43-.51,1.61-1.94,3-.67.64-2.57,2.69-3.25,2a12.5,12.5,0,0,0-9.06-3.72c-3.45,0-8.52,3.87-12.22,6.7S103.6,120.66,100.82,120.66Z"/><path d="M101,120.41c-5.91-.15-11.23-5.78-9.77-11.85a10.34,10.34,0,0,1,7-7.28c3.42-1,6.71.48,9,3.08l.45-.51-3.35,2.57c-.58.45-1.15,1-1.78,1.36-.1.06-.35.36-.48.37s-.93-.5-1.31-.55c-3.11-.43-5.07,4.57-1.91,5.89,1.7.71,2.89-.42,4.19-1.38l4.39-3.27c3.69-2.75,7.6-5.63,12.2-6.56a18.14,18.14,0,0,1,9.9,1.09c1.3.5,8.63,4.13,7.12,6l.44-.5c-1.1.91-2.23,1.75-3.32,2.69-.4.34-1.1,1.06-1.68,1s-1.08-.84-1.53-1.19c-2.82-2.24-7-3.42-10.45-2.15s-6.56,3.78-9.49,6c-2.76,2.11-5.92,5.07-9.59,5.2-.16,0-.3.51-.45.51,3.6-.12,6.69-3,9.39-5.05,2.95-2.25,6-4.74,9.48-6.09s7.38-.32,10.25,1.76c1.31.95,1.66,2,3.18.88a14.2,14.2,0,0,0,1.24-1.12c.7-.67,1.51-1.12,2.26-1.72a3.12,3.12,0,0,0,.64-.65c.79-1.21-.75-2.14-1.66-2.9a19.76,19.76,0,0,0-10.56-4.41c-6.37-.67-11.67,2.79-16.57,6.44-1.77,1.31-3.51,2.66-5.3,3.95-1.13.81-2,1.53-3.46,1-2-.67-2.25-3.11-1.08-4.66l-.44.5a2.93,2.93,0,0,1,3-.65c.7.31.36.4.86.26.3-.08.72-.56,1-.74l4.45-3.42a5.9,5.9,0,0,0,.45-.51c-2.72-3.13-6.71-4.36-10.53-2.45a13.18,13.18,0,0,0-4.72,4.2c-4.61,6.49.46,15.15,8.14,15.34C100.74,120.92,100.9,120.4,101,120.41Z"/><path d="M60.08,167.51c-.71,0-1.77-.23-2.38-.18-1.09.09-1.54.32-1.54-.94V114.2A4.69,4.69,0,0,1,59.74,112a4.69,4.69,0,0,1,3.58,2.19v51.89c0,1.48-.35,1-1.54,1C61.39,167,60.58,167.51,60.08,167.51Z"/><path d="M60.31,167.25c-.93,0-1.83-.17-2.76-.14-.64,0-.94.12-1.14-.57a3.74,3.74,0,0,1,0-.82c0-1,0-2,0-3v-47a6.37,6.37,0,0,1,0-1.71c.46-1.39,2.91-1.87,4.07-1.55a4.34,4.34,0,0,1,2.64,2.08,7.42,7.42,0,0,1,0,2v48.24a7.91,7.91,0,0,1-.13,2.58l.45-.51c-.33.32-.82.06-1.22.06a14.2,14.2,0,0,0-1.89.43c-.17,0-.28.49-.45.51a11.63,11.63,0,0,1,2.22-.39c.42,0,.57.09.91-.14a1.6,1.6,0,0,0,.55-1.4c0-.62,0-1.24,0-1.85V115.12a2.24,2.24,0,0,0-1-2.3c-2.17-1.87-4.59-.86-6.19,1.1-.52.64-.42,1-.42,1.83v44.11c0,2.25-.14,4.55,0,6.8,0,.73.13.95.84,1,1,.09,2.07.06,3.08.11C60,167.78,60.17,167.25,60.31,167.25Z"/><path d="M56.16,60.4a3.58,3.58,0,0,1,7.16,0V96.11a8.09,8.09,0,0,0-3.44-.75,9.37,9.37,0,0,0-3.72.8Z"/><path d="M56.39,60.15a3.3,3.3,0,0,1,6.07-1.53,4.4,4.4,0,0,1,.64,2.64c0,2.36,0,4.73,0,7.09v28l.45-.51a8.37,8.37,0,0,0-3.44-.75,9.09,9.09,0,0,0-2.49.36,7.84,7.84,0,0,1-1.24.41c-.14-.11,0-1.29,0-1.46V60.15c0,.17-.45.34-.45.51V94.2c0,.34-.23,1.85,0,2.12a15.94,15.94,0,0,0,2.48-.61,8.52,8.52,0,0,1,4.68.66,3.55,3.55,0,0,0,.45-.51v-17c0-6.18.28-12.43,0-18.6a3.63,3.63,0,0,0-4.88-3.45,4.62,4.62,0,0,0-2.74,3.85C55.95,60.48,56.37,60.33,56.39,60.15Z"/><path d="M68.5,114l-.22.27a9.7,9.7,0,0,0-1,1.65l.14,9.08a32.66,32.66,0,0,0,4.92-4.47l.38-.43.3.49c.92,1.5,1.77,3,2.53,4.51.62,1.2,1.51-1.61,2.86-1.61.57,0,1,.8,1.54.53,1.76-.9,2.87-.42,2-2.18a81.88,81.88,0,0,0-4.45-7.61l-.16-.23.16-.23A82,82,0,0,0,82,106.15c.9-1.76-.8-1.4-2.56-2.3a3.54,3.54,0,0,0-1.63-.39c-1.35,0-1.58-1.77-2.19-.56-.79,1.54-1.64,3.07-2.52,4.52l-.3.49Z"/><path d="M68.29,114.25a4.71,4.71,0,0,0-1.19,2.18,22.35,22.35,0,0,0,0,3.11l.06,3.76a7.62,7.62,0,0,0,0,1.41c.13.58-.22.42.25.37.72-.08,2-1.66,2.58-2.15s1.18-1.14,1.74-1.74c.29-.32.59-.76.82-.7.55.12,1.58,2.68,1.86,3.19.51.94.81,2.56,1.88,1.52.54-.52,1-1.49,1.87-1.45.61,0,.91.58,1.54.53a6.31,6.31,0,0,0,2.08-.83,2.27,2.27,0,0,0,.59-.66c.31-.91-.87-2.41-1.29-3.17s-1-1.72-1.47-2.57q-.45-.75-.91-1.49c-.27-.43-1-1.22-1.1-1.7s.52-1,.77-1.42q.93-1.45,1.79-2.94.67-1.16,1.31-2.33c.27-.5,1-1.46.91-2s-.55-.71-1-.89a21.59,21.59,0,0,0-2.84-1,4.71,4.71,0,0,1-1.25-.22c-.26-.13-.44-.45-.68-.56-.44-.2-.3-.24-.71,0-.74.38-1.14,1.84-1.47,2.44a42,42,0,0,1-2.28,3.82c-1.29,1.86-2.6,3.71-3.9,5.57.13-.18.32-.33.45-.51L72,109.11c1.51-2.16,2.61-4.53,4-6.75l-.45.51c.45-.36,1.29.69,1.83.82a18.12,18.12,0,0,1,3.94,1.18c1,.52.58,1.25.15,2.09-.57,1.11-1.19,2.2-1.82,3.28q-.57,1-1.17,1.94c-.29.47-1.2,1.45-1.26,2-.09.79,1.43,2.46,1.87,3.19q1,1.73,2,3.5c.36.66,1.18,1.72.91,2.48l.44-.5a5.08,5.08,0,0,1-2,.86c-.84.23-1-.4-1.78-.43s-1.15.63-1.56,1.08-.68,1-1.3.54-1.14-2.13-1.53-2.82-.86-1.46-1.3-2.19l-.11.13c-.32.36-4.75,5.07-5.19,4.63s0-3.07-.05-3.55l-.07-4.33a4,4,0,0,1,1.17-3C68.62,113.88,68.42,114.09,68.29,114.25Z"/><path d="M66,111.14c-1.94-2-4.31-4-6.19-4-3.39,0-7.39,3.74-7.39,6.89v.75l.08,10.58c-4.43-2.94-7.25-7.32-7.25-11.33,0-7.09,7.21-14.06,14.56-14.06,3.26,0,6.77,1.8,10.45,5.35"/><path d="M66.26,110.88c-1.51-1.56-3.49-3.7-5.78-4a6.93,6.93,0,0,0-5,1.92c-1.61,1.36-3.13,3.29-3.23,5.45-.18,3.76.05,7.57.08,11.33l.45-.51c-3.19-2.19-6.07-5.3-7-9.16s.72-8,3.37-10.85a14.68,14.68,0,0,1,10.48-4.87c4.09,0,7.61,2.66,10.45,5.35,0,0,.46-.5.45-.51-3.4-3.22-7.52-6-12.4-5.19a15.87,15.87,0,0,0-9.18,5.37c-2.3,2.6-4,5.9-3.86,9.47.23,4.59,3.63,8.43,7.24,10.9a5.22,5.22,0,0,0,.45-.51c0-3.45-.06-6.91-.08-10.36a6.92,6.92,0,0,1,3.65-6.34,5.45,5.45,0,0,1,4.56-.75c1.93.69,3.53,2.34,4.92,3.78,0,0,.47-.5.45-.51Z"/><path d="M59.74,64.92c-2.11,0-3.58-1.29-3.58-3.15A28.79,28.79,0,0,1,84.92,33a3.58,3.58,0,1,1,0,7.16,21.62,21.62,0,0,0-21.6,21.6C63.32,63.63,61.85,64.92,59.74,64.92Z"/><path d="M60,64.67c-4.23-.2-3.74-4.25-3.27-7.39a28.63,28.63,0,0,1,3.18-9.48A28.1,28.1,0,0,1,76.4,34.49a28.47,28.47,0,0,1,5-1c1.57-.18,3.55-.54,5,.23a3.62,3.62,0,0,1,1.79,4c-.56,2.19-2.64,2.12-4.46,2.23a22,22,0,0,0-15,7.59,22.32,22.32,0,0,0-4.58,8,21.54,21.54,0,0,0-1,5.51c-.1,2.26-.65,3.47-3.15,3.59-.16,0-.3.51-.45.51a4,4,0,0,0,4-3.66c.31-4,1-7.55,3-11a20.64,20.64,0,0,1,9.51-8.27,21.46,21.46,0,0,1,5.29-1.54c1.87-.29,4.17.16,5.69-1.16s2.31-3.81.75-5.57c-1.31-1.47-3.28-1.25-5.06-1.11A28.62,28.62,0,0,0,76.85,34,29.87,29.87,0,0,0,62.15,44.2a28.8,28.8,0,0,0-5.36,10.87c-.84,3.38-2.46,9.87,2.73,10.12C59.66,65.19,59.83,64.66,60,64.67Z"/><path d="M99.57,45.91a21.53,21.53,0,0,0-14.65-5.72,3.58,3.58,0,1,1,0-7.16,28.67,28.67,0,0,1,19.51,7.63c.7.65.43.47.47,1.43s-1.12.93-1.77,1.63S100.23,46.52,99.57,45.91Z"/><path d="M99.79,45.65A21.92,21.92,0,0,0,87.38,40c-1.91-.2-3.93.14-5.18-1.65a3.19,3.19,0,0,1,1.4-4.94c1.94-.62,4.64,0,6.58.35a28.63,28.63,0,0,1,11.89,5.32c1.12.85,3.46,2.14,2.37,3.83l.45-.51c-.87.69-1.73,1.26-2.58,2-.55.48-1.73,1.66-2.53,1.21,0,0-.41.53-.45.51,1.07.6,2.71-1.42,3.4-2s1.6-.87,2.1-1.62c1-1.55-.56-2.51-1.66-3.39a28.64,28.64,0,0,0-13.89-6.06c-2-.29-4.82-.87-6.52.61-2.07,1.81-2.32,5.38.64,6.53,1.24.48,2.78.25,4.08.42a21.56,21.56,0,0,1,4,.93,22.14,22.14,0,0,1,7.82,4.62S99.8,45.65,99.79,45.65Z"/><path d="M173.4,122.13c0-7.7-5.17-13.29-12.29-13.29-8,0-10.79,6.87-10.79,13.29,0,2-1.58.56-3.56.56s-3.6,1.41-3.6-.56c0-12,7.38-20.46,18-20.46,11.09,0,19.45,8.79,19.45,20.46v10.3L173.4,143Z"/><path d="M173.62,121.87a13.77,13.77,0,0,0-4.51-10.52,12.12,12.12,0,0,0-11.21-2.27,10.36,10.36,0,0,0-5.18,3.94,13.41,13.41,0,0,0-2.14,4.88,19,19,0,0,0-.43,2.84c-.06.79.14,1.86-.3,2.53l.45-.51c-.5.33-1.11.06-1.64-.06a6.46,6.46,0,0,0-3-.09c-.48.1-1.4.54-1.88.27-.68-.37-.42-1.63-.4-2.26a23,23,0,0,1,3.16-11c4.24-6.92,13-9.17,20.51-6.7,7.28,2.41,12.15,9.09,13.08,16.58a57.33,57.33,0,0,1,.18,7v4a8.4,8.4,0,0,1,0,2.14,7.18,7.18,0,0,1-1,1.51l-2.47,3.65-3.68,5.44.45-.51V121.87c0,.17-.45.34-.45.51v20.89c0-.12.37-.4.45-.51l5.31-7.85a13.06,13.06,0,0,0,1.85-2.74,13.8,13.8,0,0,0,0-3.5c0-3.8.3-7.8-.48-11.54a19.87,19.87,0,0,0-8.88-12.93,18.37,18.37,0,0,0-24.5,4.72,20.55,20.55,0,0,0-3.28,7.25c-.31,1.29-1.78,7.18.2,7.26,1.22,0,2.28-.6,3.57-.4.79.13,1.74.67,2.47.21,1.07-.68.67-2.59.78-3.63.32-2.94,1.29-6.31,3.63-8.29a10.7,10.7,0,0,1,8.57-2.07c6.51,1,10.21,6.88,10.3,13.14C173.17,122.22,173.62,122,173.62,121.87Z"/><path d="M157.84,167.29a18.19,18.19,0,0,1,0-36.38,17.11,17.11,0,0,1,11.39,4.15l.07,9.27c-1.07-.76-3.1-2.21-3.74-2.72-2.92-2.32-5.59-3.54-7.72-3.54a11,11,0,0,0,0,22.05c4.24,0,10.38-4.81,16.83-13.21a119.13,119.13,0,0,0,9.22-14.12c.63-1.16,2.5,1.23,3,1.51,1.74.93,4.22.14,3.29,1.88a125.06,125.06,0,0,1-9.85,15.1C172.18,161.9,164.61,167.29,157.84,167.29Z"/><path d="M158.06,167c-11.52-.15-20.38-11-17.71-22.36a17.49,17.49,0,0,1,11.34-12.52,18.59,18.59,0,0,1,8.6-.81,16,16,0,0,1,4.41,1.28,18,18,0,0,1,1.89,1c.59.36,2.16,1.07,2.41,1.68a4.74,4.74,0,0,1,0,1.39l0,3.08,0,4.8.45-.51c-2.75-2-5.41-4.41-8.57-5.64a9.9,9.9,0,0,0-9,1.21,11.73,11.73,0,0,0-5.05,12.5c1.48,5.68,7.92,9.87,13.62,7.6,5-2,8.89-6.46,12.25-10.49a101,101,0,0,0,7.62-10.55c1.3-2,2.34-4.44,3.82-6.35l-.44.5c1.07-.58,2.57,1.69,3.65,2s3.23,0,2.42,1.74a74.28,74.28,0,0,1-6.36,10.24c-4.08,5.92-8.66,11.78-14.54,16-3.21,2.32-6.9,4.1-10.93,4.16-.16,0-.3.51-.45.51,8.74-.12,15.72-7.68,20.89-13.92A114.53,114.53,0,0,0,188.68,139a15.71,15.71,0,0,0,1.81-3.21c.25-.88-.24-1-1-1.13a5.49,5.49,0,0,1-2.72-.91c-.79-.64-1.71-2-2.7-1.13a5.8,5.8,0,0,0-1,1.49,110.7,110.7,0,0,1-9.46,14.13c-3.38,4.26-8.3,10.12-14,11.46-4.55,1.07-9.44-1.91-11.44-5.93a10.65,10.65,0,0,1,5.35-14.63c6.17-2.47,10.84,2.13,15.54,5.48a5.48,5.48,0,0,0,.45-.51l0-4.47,0-2.89a6.5,6.5,0,0,0,0-1.88c-.16-.4-1.06-.84-1.45-1.11a20.14,20.14,0,0,0-2.37-1.4,16,16,0,0,0-4.88-1.51A18.57,18.57,0,0,0,151.3,132c-9.85,4-14.79,16-9.93,25.59a18.43,18.43,0,0,0,16.24,10C157.76,167.54,157.92,167,158.06,167Z"/><path d="M278.72,110.28,279,110c3.54-3.58,7.56-7.94,11.94-13,10.6-12.18,15.38-17.81,15.51-18,.68-.9,2.53.77,3.16,1.25,1.57,1.2,3.74,1.52,2.54,3.09-.16.2-5,5.9-15.95,18.51-4.57,5.24-8.76,9.79-12.46,13.51l-.28.28.25.3c3.7,4.37,8,9.82,12.67,16.19,8.7,11.78,15.95,21,19.33,25.47l1.5,2c.51.79,2.84,2.46-1,4-1.22,0-2.9,2.94-3.56,1.92l-1.17-1.55c-3-3.93-11.77-15.12-20.48-27-4.61-6.26-8.82-11.66-12.52-16l-.28-.33-.33.29a38.58,38.58,0,0,1-5.8,4.42l0-8.85.27-.21.2-.17.59-.53.33-.29Z"/><path d="M278.51,110.53c6.79-6.86,13.06-14.2,19.38-21.5,2.95-3.4,6-6.74,8.82-10.28l-.44.5c1.09-.94,3.78,1.64,4.78,2.23,1.18.69,1.53,1.31.68,2.39-1.31,1.68-2.77,3.26-4.16,4.88-7.76,9-15.44,18.19-23.85,26.63a6.11,6.11,0,0,0-.44.5c7.78,9.18,14.72,19,22,28.59,2.79,3.66,5.61,7.31,8.42,11,1.06,1.39,2.1,2.8,3.17,4.18.67.87,1.78,1.82,1.08,3l.28-.33c-.8.91-2.12,1-3,1.74-.47.4-1.36,1.62-2.09,1.34-.48-.18-1-1.35-1.32-1.71l-1.55-2c-3.68-4.79-7.38-9.56-11-14.37-4.68-6.17-9.2-12.46-13.95-18.57-2-2.58-4-5.13-6.14-7.63-.42-.5-.38-.66-.85-.49s-1.37,1.19-1.89,1.62a35.73,35.73,0,0,1-3.28,2.42c-.9.58-.7.38-.71-.52v-7.89l-.45.51a86.15,86.15,0,0,0,6.58-6.16c.16-.16.29-.36.45-.51-2,1.91-3.94,3.93-6.05,5.73-.38.33-.83.62-1,1.09a6.86,6.86,0,0,0,0,1.71v3.08c0,.43-.32,3.7,0,3.92s2.87-2,3.19-2.23c.6-.47,2.55-2.57,3.07-2.31s1.1,1.31,1.43,1.71l1.33,1.62q1.67,2.06,3.3,4.15c2.38,3.05,4.7,6.15,7,9.27q6.63,9,13.46,17.81l4.85,6.29L311.2,164a7.88,7.88,0,0,0,1.31,1.74c.76.49,1.4-.44,2-.95,1-.86,2.16-1,3.11-1.81.59-.51,1.23-1.2,1-2a4.86,4.86,0,0,0-1.06-1.54c-.64-.82-1.25-1.67-1.88-2.5-1.27-1.67-2.55-3.33-3.83-5-9.37-12.16-18.17-24.82-28.1-36.53l-.44.5c9.87-9.91,18.87-20.71,27.92-31.37.41-.48,1.5-1.42,1.54-2.12.08-1.23-2.29-2-3.08-2.56s-2-1.81-3-1.05a8.86,8.86,0,0,0-1.2,1.4q-2.12,2.49-4.26,5c-7.26,8.43-14.44,17-22.28,24.88C278.8,110.18,278.62,110.41,278.51,110.53Z"/><path d="M271.45,113.09c-4.69-4.66-6.63-5.31-7.15-5.4h-.07c-3.4,0-7.35,3-7.35,6.89a5.5,5.5,0,0,0,.14,1.27l-.58,8.94-.48-.14c-4.44-2.73-6.25-5.65-6.25-10.07,0-7.49,6.8-14.06,14.56-14.06,2.19,0,5.52.89,12.14,7.4Z"/><path d="M271.68,112.83a37.17,37.17,0,0,0-4.91-4.26,6.23,6.23,0,0,0-2.12-1.11c-2.35-.46-4.92,1.52-6.32,3.21a6.38,6.38,0,0,0-1.64,4.73,15.39,15.39,0,0,1,0,2.64l-.46,7,.45-.51a11,11,0,0,1-4.8-3.86,10.05,10.05,0,0,1-1.9-5.43,13.52,13.52,0,0,1,6.66-12.37c2.78-1.67,6.49-2.72,9.69-1.75,3.84,1.16,7.08,4.33,9.87,7.05l.44-.5-5,5.16c-.14.15-.32.38-.43.5l5-5.16s.45-.5.44-.5c-2.64-2.58-5.56-5.37-9-6.76a11.15,11.15,0,0,0-8,.25c-5.79,2.13-10.4,8.09-10.1,14.38a10.15,10.15,0,0,0,1.91,5.65,10.86,10.86,0,0,0,4.8,3.86,2.9,2.9,0,0,0,.45-.51l.38-5.79c.06-1,.21-1.94.19-2.9a8.27,8.27,0,0,1,.4-3.92c1-2.2,4.32-4.62,6.88-3.85s4.91,3.5,6.71,5.27C271.22,113.34,271.69,112.84,271.68,112.83Z"/><path d="M254.83,123.21"/><path d="M254.61,123.46c.15,0,.3-.51.45-.51-.15,0-.3.51-.45.51Z"/><path d="M188.95,10.14a18,18,0,0,0,1.67-2c.86-1.52,1.83.19,3.36,1.05s3,.54,2.16,2.07a10.42,10.42,0,0,1-6.41,5A9.45,9.45,0,0,0,188.95,10.14Z"/><path d="M188.73,10.39a27.69,27.69,0,0,0,2.35-2.89l-.45.51c.69-.55,1.23,0,1.82.44a8.64,8.64,0,0,0,2.39,1.41c.71.26,1.4.32,1.25,1.19-.2,1.23-1.8,2.55-2.72,3.24a9.13,9.13,0,0,1-2.56,1.39c-.78.26-.75.39-.78-.2s.12-1.32.08-2a10.74,10.74,0,0,0-.94-3.62c0,.08-.49.42-.45.51a10.35,10.35,0,0,1,.94,4.94,5.8,5.8,0,0,0-.14,1c.17.22,1.41-.36,1.73-.51a12.21,12.21,0,0,0,4.14-3.48c.62-.77,1.88-2.1.64-2.76-.72-.39-1.52-.51-2.22-1a11.24,11.24,0,0,0-1.67-1.25c-1.26-.52-2.34,1.83-3,2.51Z"/><path d="M157.33,18.62a22.45,22.45,0,0,1,.91-8.06C161.17,2,168.6-1.65,177.18,1.28c8.26,2.82,12.2,11.66,9.16,20.57a3.17,3.17,0,1,1-6-2c2.26-6.61-1.12-11.13-5.21-12.53-5.32-1.81-9.08,0-10.89,5.33-.68,2-.53,6.4-.46,7.27Z"/><path d="M157.56,18.37c-.34-4.66.72-9.7,3.75-13.36s8-5,12.6-4.24a15.54,15.54,0,0,1,11.37,7.78,15.87,15.87,0,0,1,1.84,6.76c.12,2.44-.08,6-1.71,8l.44-.5a3.21,3.21,0,0,1-5.36-1.42c-.34-1.34.42-2.67.63-4a10.7,10.7,0,0,0,.05-3.4c-.66-4.26-4.2-7-8.35-7.55a7.35,7.35,0,0,0-6.9,2.87c-2.5,3.07-2.63,7.06-2.38,10.84l.45-.51-6.45-1.25c-.12,0-.34.53-.45.51l6.45,1.25a2.7,2.7,0,0,0,.45-.51c-.21-3.19-.19-6.59,1.42-9.44,2-3.62,6.28-3.91,9.84-2.52a8.82,8.82,0,0,1,5.57,7.73,11.4,11.4,0,0,1-.25,3c-.23,1.07-.77,2.11-.57,3.23A3.2,3.2,0,0,0,184.32,24c2.23-.91,2.79-3.79,3.09-5.87a16.26,16.26,0,0,0-2.35-11.26C181,.72,171.86-2,165.28,1.63c-6,3.32-8.65,10.68-8.17,17.25C157.09,18.72,157.57,18.53,157.56,18.37Z"/><path d="M167.41,31.13a3.17,3.17,0,1,1,2-6c5.61,1.92,9.78-2.06,11.41-6.85l6,2C183.77,29.38,175.59,33.92,167.41,31.13Z"/><path d="M167.63,30.87a3.21,3.21,0,0,1-1.27-5.18l-.44.5c1.85-1.68,3.62-.42,5.76-.32a7.84,7.84,0,0,0,5.43-1.92,13.87,13.87,0,0,0,4-5.92l-.45.51,4.54,1.55a4.4,4.4,0,0,1,1.13.39c.43.36.34-.36.16.61a12.81,12.81,0,0,1-2.17,4.25,14.53,14.53,0,0,1-16.66,5.54c-.09,0-.37.54-.45.51a14.82,14.82,0,0,0,16.15-4.75,19.33,19.33,0,0,0,2.18-3.07,20.07,20.07,0,0,0,1.21-2.51c.34-.85.46-.71,0-1.1-.66-.61-2.46-.84-3.3-1.13L181.09,18a3,3,0,0,0-.45.51c-.93,2.59-2.47,5-5.07,6.17a7.54,7.54,0,0,1-3.44.65c-1.22-.06-2.38-.69-3.58-.64-3.5.13-4.79,5.21-1.36,6.67C167.25,31.42,167.57,30.85,167.63,30.87Z"/><path d="M153.07,42a13,13,0,0,0-8.88,8.31C142,56.83,146.08,64.62,153,67l6.48,2.21a3.17,3.17,0,0,1-2,6L150.94,73c-10.28-3.51-16.12-14.83-12.74-24.73a19.24,19.24,0,0,1,10.72-11.51Z"/><path d="M153.3,41.73a14.24,14.24,0,0,0-8,6.11,12.71,12.71,0,0,0,.36,13.79c2.26,3.45,5.55,5.07,9.3,6.35,1.38.47,2.79.88,4.15,1.42a3.22,3.22,0,0,1,1.44,5.24l.44-.5c-2.36,2.14-6.42-.25-9-1.12a21.42,21.42,0,0,1-10.28-7c-6.67-8.56-5.31-21.45,4.12-27.46.57-.36,2.36-1.67,2.93-1.4s1,1.24,1.28,1.62l2.79,3.52s.48-.48.45-.51l-2.08-2.62-1.35-1.7c-.15-.19-.5-.84-.73-.92-.52-.18-2.62,1.35-3.06,1.64A19.48,19.48,0,0,0,143,40.63a25.23,25.23,0,0,0-1.79,2,19.28,19.28,0,0,0,.93,24.88,21.55,21.55,0,0,0,9.41,6L155.88,75c1.31.45,2.6,1,3.94.19,2.48-1.44,2.71-5.1-.19-6.28-2.16-.87-4.44-1.46-6.63-2.27a14.19,14.19,0,0,1-9.08-11.35,12.12,12.12,0,0,1,8.94-13C153,42.19,153.12,41.78,153.3,41.73Z"/><path d="M168.52,44.66,158,41.07a3.17,3.17,0,0,1,2-6l10.52,3.59a3.17,3.17,0,1,1-2,6Z"/><path d="M168.74,44.4l-7.3-2.49c-1-.35-2.09-.65-3.1-1.06A3.22,3.22,0,0,1,157,35.63l-.44.5c1.39-1.25,2.77-1,4.35-.45l5,1.72c1.38.47,2.78.91,4.15,1.42,2.29.84,3.24,3.28,1.58,5.29l.44-.5a3.34,3.34,0,0,1-3.31.81c-.1,0-.36.54-.45.51,3.43.9,6.64-4,3.12-6.21a14.07,14.07,0,0,0-2.85-1.06l-5.08-1.74c-2.27-.77-4.79-2.17-6.75,0a3.32,3.32,0,0,0-.43,4.41c.76,1,2.06,1.24,3.17,1.62l8.81,3C168.38,44.94,168.67,44.37,168.74,44.4Z"/><path d="M177.45,65a3.17,3.17,0,0,1-2-4c2.27-6.65-1.25-14.37-7.53-16.52a3.17,3.17,0,0,1,2-6C179.64,41.76,184.9,53,181.47,63A3.17,3.17,0,0,1,177.45,65Z"/><path d="M177.68,64.74c-3.24-1.38-1.64-4.22-1.36-6.79A13.81,13.81,0,0,0,175,50.36,12.47,12.47,0,0,0,170,45c-1.09-.62-2.5-.84-3.3-1.87a3.23,3.23,0,0,1,.2-4.14l-.44.5c2.33-2.11,5.62,0,7.75,1.46a18.88,18.88,0,0,1,5.59,6.29,20.1,20.1,0,0,1,2.42,7.94c.24,2.76.19,7-1.67,9.22l.44-.5a3.34,3.34,0,0,1-3.31.81c-.1,0-.36.54-.45.51,4.52,1.18,5.38-5,5.5-8A20,20,0,0,0,177.51,43c-2.28-2.45-7.81-7-10.88-3.64a3.24,3.24,0,0,0,.47,5.08c1.09.67,2.33,1,3.4,1.72a12.25,12.25,0,0,1,2.83,2.81,13.79,13.79,0,0,1,2.61,8.12c0,2.85-2.33,6.64,1.28,8.18C177.3,65.29,177.62,64.72,177.68,64.74Z"/><path d="M156.27,74.8a3.17,3.17,0,0,1,2-6c6.91,2.36,14.93-1.3,17.16-7.82a3.17,3.17,0,1,1,6,2C178.1,72.92,166.56,78.31,156.27,74.8Z"/><path d="M156.5,74.54a3.21,3.21,0,0,1-1.27-5.18l-.44.5c2.11-1.91,5-.13,7.44-.09a14.75,14.75,0,0,0,12.08-6.29c.84-1.23,1.16-2.8,2.1-3.93l-.44.5c2.74-2.48,6.31.36,5.13,3.66a17.27,17.27,0,0,1-6.65,8.4,20.64,20.64,0,0,1-17.94,2.42c-.09,0-.37.54-.45.51,9.46,3.1,20.32-1.15,24.76-10.15a6.37,6.37,0,0,0,1-3.72,3.19,3.19,0,0,0-3-2.61,3.78,3.78,0,0,0-3.14,1.83c-.71,1-1,2.34-1.7,3.41a11.46,11.46,0,0,1-3.9,3.53,14.38,14.38,0,0,1-7.86,1.9c-2.48-.13-5.13-1.86-7.15.29-1.71,1.81-1.44,4.49,1,5.52C156.12,75.08,156.44,74.52,156.5,74.54Z"/><path d="M156.76,40.64a9.39,9.39,0,0,1,6.07-17.78l8.11,2.77a3.17,3.17,0,0,1-2,6l-8.11-2.77a3.06,3.06,0,0,0-2,5.78,3.17,3.17,0,0,1-2,6Z"/><path d="M157,40.38a9.53,9.53,0,0,1-6.28-10.07,8.89,8.89,0,0,1,9.82-7.64c2.5.26,5,1.46,7.4,2.27.92.31,1.88.58,2.78.95A3.21,3.21,0,0,1,172,31.07l.44-.5c-1.9,1.72-4,.55-6.11-.15a54,54,0,0,0-5.54-1.87,3.71,3.71,0,0,0-4.17,2.69c-.52,2,.85,3,2.39,3.84a3.22,3.22,0,0,1,.84,5l.44-.5a3.34,3.34,0,0,1-3.31.81c-.1,0-.36.54-.45.51a3.81,3.81,0,0,0,4.53-2.71c.55-2.09-.86-3.11-2.45-4a3.1,3.1,0,0,1-.81-4.82l-.44.5c1.56-1.41,3.12-.8,4.84-.22l5.54,1.89c1.57.54,3,.72,4.31-.56a3.39,3.39,0,0,0,.59-4.59c-.91-1.16-2.79-1.49-4.11-1.94-1.72-.59-3.43-1.19-5.15-1.76a9.72,9.72,0,0,0-10.75,3,9.51,9.51,0,0,0,3.91,15.22C156.61,40.93,156.91,40.36,157,40.38Z"/><path d="M200.82,60.65c-9-3.09-13.13-12.62-9.7-22.65a3.14,3.14,0,0,1,5.94,2c-1.93,5.66-.89,12.4,5.79,14.68a12,12,0,0,0,15.26-7.49l.82-2.7c1,.29,4.76-.26,5.38-.23.37,0,1.28-.52,1.29-.27,0,.77-.73,2.83-1.66,5.55A18.39,18.39,0,0,1,200.82,60.65Z"/><path d="M201,60.39a16,16,0,0,1-9.7-9.13,17.77,17.77,0,0,1-1.21-6.66c0-2.45.27-6.06,1.9-8l-.44.5A3.17,3.17,0,0,1,197,38.94c.12,1.14-.49,2.3-.71,3.4a14.71,14.71,0,0,0-.3,3.34,9.83,9.83,0,0,0,7.8,9.6,12.22,12.22,0,0,0,11.85-3.86c1.9-2.11,2.73-4.52,3.53-7.18l-.45.51a14.73,14.73,0,0,0,4.18-.14c.44,0,.91,0,1.34-.11s1-.56,1.15,0-.39,1.62-.54,2.07c-.35,1.1-.72,2.2-1.12,3.28A18.08,18.08,0,0,1,221,54.7c-4.64,5.94-13,8-20,5.69-.09,0-.37.54-.45.51a18.73,18.73,0,0,0,20.11-5.78,25.36,25.36,0,0,0,4.78-9.75c.1-.33.58-1.44.24-1.69-.08-.06-1.46.34-1.78.37a17.19,17.19,0,0,1-4.79.2,2.47,2.47,0,0,0-.45.51,22.31,22.31,0,0,1-1.8,4.86A11.41,11.41,0,0,1,209,54.91c-5.32.95-11-1.84-12.31-7.31a14.55,14.55,0,0,1,.42-7.43,3.39,3.39,0,0,0-.67-3.69,3.17,3.17,0,0,0-3.75-.45,4.92,4.92,0,0,0-2,2.71,20.39,20.39,0,0,0-.91,8.69,16.14,16.14,0,0,0,10.78,13.46C200.68,60.94,201,60.37,201,60.39Z"/><path d="M193.36,41.13a3.14,3.14,0,0,1-2-4l3.3-9.66c3.37-9.87,13-14.9,22.38-11.7s14.69,14.51,10.77,22.33c-.78,1.55-2.56,3.13-4.2,2.57a3.14,3.14,0,0,1-2-4c2.25-6.59-.54-12.89-6.64-15s-12.16,1.19-14.41,7.78l-3.3,9.66A3.14,3.14,0,0,1,193.36,41.13Z"/><path d="M193.59,40.88c-3.75-1.6-1.28-6-.36-8.65,1.07-3.12,2-6.42,3.71-9.24,5.92-9.5,19.44-10.33,27-2.34a17.74,17.74,0,0,1,5,12.51c-.08,2.33-.71,5.58-2.83,6.92-2.51,1.58-4.79-1.18-4.17-3.63.66-2.61,1.09-5.07.33-7.73a10.62,10.62,0,0,0-4.08-5.78,11,11,0,0,0-13.53.56A16.61,16.61,0,0,0,200,31l-1.83,5.34c-.47,1.37-.81,3.1-1.75,4.24l.44-.5a3.31,3.31,0,0,1-3.28.8c-.1,0-.36.54-.45.51,3.26.85,4.33-2.16,5.15-4.56,1.08-3.18,1.92-6.68,3.49-9.66a10.85,10.85,0,0,1,15.57-4,10.65,10.65,0,0,1,4.52,6.24,12.07,12.07,0,0,1,.35,3.87c-.1,1.55-.85,3-.91,4.55a3.15,3.15,0,0,0,1.91,3c1.4.58,2.64-.27,3.58-1.26a8.62,8.62,0,0,0,1.9-3.22c1.64-4.79.2-10.19-2.66-14.22a17.43,17.43,0,0,0-27.19-1.74c-2.6,2.88-4,6.22-5.22,9.82l-2,5.93c-.7,2.06-.88,4.18,1.54,5.21C193.21,41.42,193.53,40.85,193.59,40.88Z"/><path d="M218.47,27.48c-.29-.34-.85.22-1.23.41a7.74,7.74,0,0,0-3.42,10.23c1.69,3.38,6.85,5.1,10.23,3.42a7.12,7.12,0,0,0,3.82-4.83l-5.67-1.47c.12.75-1.15,1.22-1.29,1.31a1.59,1.59,0,0,1-2.17-.89A2.23,2.23,0,0,1,220,32.85,7.48,7.48,0,0,0,218.47,27.48Z"/><path d="M218.7,27.22c-1-.41-2.92,1.51-3.6,2.26a8.37,8.37,0,0,0-2,3.51c-1.19,4.51,1.76,8.51,6.23,9.32a7.6,7.6,0,0,0,7.78-3.53c.26-.39,1.25-2,.88-2.35s-1.38-.36-1.78-.46l-3.8-1a2.75,2.75,0,0,0-.45.51.71.71,0,0,1-.18.57l.45-.51a2.38,2.38,0,0,1-2.31.8c-1.46-.54-1.27-2.19-.48-3.18l-.44.5c.4-.35,1-.64,1.26-1.17.62-1.58-.66-4.12-1.57-5.29,0,0-.48.48-.45.51a7.37,7.37,0,0,1,1.57,5.36l.45-.51c-1.3.8-3.06,3.1-1,4.18A2.49,2.49,0,0,0,222.43,35l-.45.51,2.51.65c.62.16,2.5.3,3,.77,1,1-1.92,3.66-2.76,4.15a7.06,7.06,0,0,1-4.67.76,7.6,7.6,0,0,1-6.6-6,8,8,0,0,1,.56-4.53,6.26,6.26,0,0,1,2.26-2.71c.49-.32,1.47-1.1,2-.87C218.32,27.77,218.63,27.2,218.7,27.22Z"/><path d="M231.16,32.17s6.6.37,7.42-.24.23-5,0-5.88-8.24.09-8.24.09A19.76,19.76,0,0,1,231.16,32.17Z"/><path d="M230.94,32.42a35.87,35.87,0,0,0,6.38,0c1.47-.19,1.87-1.09,1.91-2.54,0-1,.13-3-.41-4-.37-.64-1.36-.52-2-.52a50.09,50.09,0,0,0-6.23.47,2.57,2.57,0,0,0-.45.51,19,19,0,0,1,.84,6c0-.17.45-.34.45-.51a19,19,0,0,0-.84-6l-.45.51a36.16,36.16,0,0,1,7-.44c1.27.1,1.27.41,1.45,1.64s.58,3.28-.1,4.48l.44-.5c-.77.8-3.13.46-4.12.45s-2.27,0-3.4-.11C231.25,31.9,231.08,32.43,230.94,32.42Z"/><path d="M109.75,158.54v7.55c0,1.4-.44,1.54-1.4,1.5-.4,0-.88-.06-1.46-.06s-1,.05-1.51.1-.69-.28-1-.27-.6.34-.86.28a1.11,1.11,0,0,1-.94-1.25v-7.85"/><path d="M109.53,158.8v4.28c0,1.11.42,3.6-.33,4.56l.44-.5c-.7.44-1.73.14-2.52.15-1,0-2-.07-3,0-1.39.1-1.35-1-1.35-2.07v-6.92c0,.17-.45.34-.45.51v6.56c0,.72-.22,2.1.63,2.44.51.21,1-.16,1.5-.11a8,8,0,0,0,1.18.15,17.34,17.34,0,0,0,2.94,0c1.38-.3,1.37-1.77,1.37-2.95v-6.61c0,.17-.45.34-.45.51Z"/><path d="M208.62,158.54v7.55c0,2-1.61,1.44-3.58,1.44s-3.58.84-3.58-1.14v-7.85"/><path d="M208.4,158.8v4.28c0,1.23.34,3.14-.24,4.28l.42-.48c-.61.66-1.63.46-2.43.43-1,0-1.94.11-2.93.14-1.47,0-1.54-.81-1.54-2v-7.14c0,.17-.45.34-.45.51v6.81c0,.78-.19,1.89.64,2.28.65.31,1.82-.05,2.49-.09.88,0,1.78.14,2.66,0,1.57-.18,1.82-1.49,1.82-2.83v-6.73c0,.17-.45.34-.45.51Z"/><path d="M241,158.54v7.55c0,.88-.32,1.26-.84,1.4-.31.09-.69-.25-1.12-.26s-1,.28-1.62.28c-2,0-3.58.85-3.58-1.12v-7.85"/><path d="M240.76,158.8v4.28c0,1.21.38,3.3-.32,4.38l.45-.51c-.51.41-.65.22-1.23.14a3.94,3.94,0,0,0-1.46.11,14.8,14.8,0,0,1-2.95.26c-1.3-.08-1.2-1.11-1.2-2.12v-7c0,.17-.45.34-.45.51v6.56c0,.68-.19,2,.42,2.42s1.65.09,2.28,0,1-.05,1.45-.12a8.23,8.23,0,0,1,1.65,0c1.62,0,1.81-1.36,1.81-2.76v-6.61c0,.17-.45.34-.45.51Z"/><path d="M267.76,158.54v7.55c0,2-1.61,1.42-3.58,1.42s-3.58.85-3.58-1.12v-7.85"/><path d="M267.53,158.8v4.28c0,1.23.34,3.14-.24,4.28l.44-.5c-.63.68-1.63.47-2.45.44-1,0-1.94.11-2.93.14-1.47,0-1.54-.8-1.54-2v-7.14c0,.17-.45.34-.45.51v6.81c0,.78-.19,1.89.64,2.28.65.31,1.82-.06,2.49-.1.88,0,1.78.14,2.66,0,1.57-.17,1.82-1.48,1.82-2.82v-6.73c0,.17-.45.34-.45.51Z"/></g></g></svg>