<svg xmlns="http://www.w3.org/2000/svg" viewBox="0 0 234.2 264.74"><defs><style>.cls-1{fill:#fff;}</style></defs><title>logo-initials-blackwhite</title><g id="Layer_2" data-name="Layer 2"><g id="Layer_1-2" data-name="Layer 1"><path class="cls-1" d="M142.89,127.67c-5.08,0-8,5-8,5V233.06c0,4.42,3.58,2,8,2s8,2.42,8-2V132.64S148,127.67,142.89,127.67Z"/><path class="cls-1" d="M179.07,132.48A163.7,163.7,0,0,0,188,117.2c2-3.93-2.54-2.84-6.48-4.85s-5.76-6.36-7.77-2.42c-1.61,3.15-3.29,6.15-5,9l-9.48,13.59a21.19,21.19,0,0,0-2.13,3.65l.31,19.94a66,66,0,0,0,11.29-10c1.8,3,3.5,6,5,8.95,2,3.93,3.84-.23,7.77-2.23s8.49-1.11,6.48-5A163.59,163.59,0,0,0,179.07,132.48Z"/><path class="cls-1" d="M143.09,103.57c-15.09,0-29.91,14.32-29.91,28.91,0,9.64,7.43,18.83,16.18,24.18L129.18,134v-1.5c0-5.79,7.67-12.91,13.91-12.91,2.71,0,7.92,4.23,11.85,8.1l9.39-13.38C157.84,108.09,150.55,103.57,143.09,103.57Z"/><path class="cls-1" d="M232.65,15.45a58.25,58.25,0,0,0-97.58,38.36,8,8,0,0,0-.19,1.71V98.23c9.31-4.7,16,0,16,0v-40A42.26,42.26,0,0,1,221.8,27.2c1.54,1.42,7.12-3.36,8.69-5.07C233.49,18.89,235.9,18.44,232.65,15.45Z"/><path class="cls-1" d="M94.49,90.91a45.5,45.5,0,0,1,6.59,1c4.19,1.4,3.12-3.45,4.53-7.64s4.75-6.12.56-7.53C99.74,74.59,91.11,75,85.75,78.26A23.85,23.85,0,0,1,94.49,90.91Z"/><path class="cls-1" d="M70.61,166.79a8,8,0,0,0-1.09-.08H41.46a8,8,0,0,0-1.66.18,8,8,0,0,0-1.66-.18,7.72,7.72,0,1,1,0-15.43H55.51l.31,0,.62,0h3.33a8,8,0,0,0,3.14-.64c16.2-3,27.92-16.33,30.19-34.48a8,8,0,0,0,.4-2.5c0-.66,0-1.31,0-2s0-1.38,0-2.08h-.17C91.56,87.89,75.6,72,54.82,72c-22.89,0-37.68,14.77-37.68,37.64,0,9.55,3.95,19,4.4,20L38,127.36c-.86-2-4.83-12.47-4.82-17.74C33.14,95.46,40.64,88,54.82,88c10.49,0,21.75,7.42,22.62,23.64-.66,11.92-7.25,23.35-21,23.66H38.13a23.72,23.72,0,1,0,0,47.43,8,8,0,0,0,1.66-.18,8,8,0,0,0,1.66.18H68c16.76,0,31.46,15.57,31.46,33.33,0,17.42-16.18,32.7-34.62,32.7H50.62C32.18,248.74,16,233.46,16,216a32.69,32.69,0,0,1,14.43-27.11l-14.21-9.15A48.59,48.59,0,0,0,0,216c0,26.4,23.18,48.7,50.62,48.7h17.3a8,8,0,0,0,2-.25C95.06,262,115.46,240.8,115.46,216,115.46,190.21,95.18,168.26,70.61,166.79Z"/></g></g></svg>