<svg xmlns="http://www.w3.org/2000/svg" viewBox="0 0 320.83 173.09"><defs><style>.cls-1{fill:#99f3ff;}.cls-2{fill:#59ecff;}</style></defs><title>logo-staand-blue_1</title><g id="Layer_2" data-name="Layer 2"><g id="Layer_1-2" data-name="Layer 1"><path class="cls-1" d="M40.87,135.4a158.76,158.76,0,0,1,22.69-26l-.7.66c17-15.87,35.78-29.84,54.44-43.62,19.5-14.39,39.38-28.26,59.29-42.08C187.17,17,197.74,9.15,210.1,5.07L170,6.16c-18.17,20.71-37.58,40.29-56.39,60.4S76.7,107.16,61.24,129.8c-4.36,6.38-8.49,12.92-12.34,19.61s-8.37,14-7.89,22l.76.6a15.81,15.81,0,0,0,3.69.64,88.38,88.38,0,0,0,10.64.39,121.22,121.22,0,0,0,23-2.07c12.56-2.64,23.44-9.78,33.79-17.05,9.68-6.8,18.88-14.25,27.86-22,17.91-15.37,34.92-31.78,53.35-46.53a262.32,262.32,0,0,1,32.58-22.59L186.55,64l-28.21,37.68c-9.3,12.43-18.75,24.76-27.69,37.45-4.4,6.24-10.23,13.19-9.72,21.3.08,1.19,6.25,1.42,6.05,1.41,3.91.27,7.84.25,11.75.15,4.34-.12,8.7-.32,13-.84l4.12-.55a22.62,22.62,0,0,0,5.21-1.27l77.19-61.59,22-17.56-40.14,1.1-28.7,39.13c-4.69,6.4-9.53,12.72-14.09,19.22-3.11,4.44-6.17,11.21-.45,14.91a14.17,14.17,0,0,0,5.83,1.69,116.52,116.52,0,0,0,20.18.46c8.34-.36,17-1,25.08-3.07a72.81,72.81,0,0,0,20.8-9.41c11.2-7.09,21.3-15.71,31.61-24,11.57-9.29,23.57-18.26,37.36-24l-40.14,1.1c1,3.53-.61,6.83-2.4,9.81s-3.66,5.77-5.58,8.6c-3.86,5.67-7.89,11.22-11.66,16.94A120.42,120.42,0,0,0,248,150.31a70.64,70.64,0,0,0-3.42,9.51c-.9,3.25-1.28,6.46,2.2,8.25,2.5,1.29,6.26,1.42,9,1.64a148.58,148.58,0,0,0,18.34.15c9.46-.39,19.64-1,28.5-4.67,2.43-1-2.36-1.77-2.14-1.73a66.18,66.18,0,0,0-12.25-.56,151.28,151.28,0,0,0-15.73.91c-3.09.37-6.42.6-9.32,1.81l-1.31.53c-.77.3-.71.16,0,0-.34.07-1,.42-1.37.34l1.79-.35a65.48,65.48,0,0,1,11.27-.72c4.14-.18,8.11-.58,12.19-.16q1.49.18.64.05-.66-.11.24.08c.88.57.09,0-.25-.16a5.55,5.55,0,0,1-1.12-.69l.76.6c-2.3-2.34-.93-5.94-.1-8.65a73.4,73.4,0,0,1,3.5-9.12,127,127,0,0,1,10-17.31c3.68-5.52,7.57-10.9,11.3-16.39,1.86-2.73,3.69-5.49,5.4-8.32s3.38-6.28,2.4-9.81c-.35-1.26-5.87-1.4-6.05-1.41-3.91-.27-7.84-.25-11.75-.15-4.34.12-8.7.32-13,.84-3.1.37-6.42.61-9.32,1.81-27.11,11.27-46.44,34.45-71.26,49.4a71.35,71.35,0,0,1-11.86,5.89l-1.31.47c1.09-.39.46-.14-.28.07l-1.33.35c-2,.49.08.2.81-.1a8,8,0,0,1-1.36.22,56,56,0,0,1,6.86-.68,100.39,100.39,0,0,1,18.67,0c.37.08,1.5.62.3,0a13.62,13.62,0,0,1-1.59-.85l.76.6c-4.76-4-1.05-10.65,1.78-14.59,4.67-6.52,9.49-12.94,14.23-19.4L261,79.49c.58-.8-7.2-1.49-6.05-1.41-3.91-.27-7.84-.25-11.75-.15-4.34.12-8.7.32-13,.84l-4.12.55a22.62,22.62,0,0,0-5.21,1.27l-77.19,61.59-22,17.56,40.14-1.1c-.46-7.15,4.07-13.19,7.95-18.77,4.4-6.34,9-12.56,13.57-18.75q14-18.82,28.11-37.56l16-21.35c.59-.79-7.21-1.49-6.05-1.41-3.91-.27-7.84-.25-11.75-.15-4.34.12-8.7.32-13,.84-2.89.35-6.77.34-9.32,1.81C167,75,149.08,90,131.68,105.47S97,137.19,78,151.1c-5.3,3.89-10.73,7.62-16.34,11.05a90.3,90.3,0,0,1-9,4.92c-1.6.74-3.23,1.4-4.88,2-.12,0-1.23.43-.32.12s-.8.23-1,.28c-.91.25-1.82.46-2.74.65l38.1-.44C81.42,162.5,85,156.06,88.41,150s6.92-11.79,10.69-17.5a386,386,0,0,1,24.43-32.84c17.49-21.24,36.68-41,55.63-60.92,10.73-11.28,21.39-22.63,31.66-34.33.63-.72-7.28-1.5-6.05-1.41-3.91-.27-7.84-.25-11.75-.15-7.37.2-15.27.32-22.33,2.65-13.2,4.36-24.44,13-35.72,20.83-12,8.37-24.08,16.76-36,25.28C75.62,68.25,52.25,85.17,30.64,104,19.27,113.89,8.54,124.65,0,137.15c-.56.82,7.17,1.5,6.05,1.41a114.76,114.76,0,0,0,14.47.07A114.82,114.82,0,0,0,35,137.33c1.69-.3,4.86-.38,5.91-1.92Z"/><path class="cls-2" d="M191.93,152.89c-1.3.34.32.11,1.07-.16h-.07A8.18,8.18,0,0,1,191.93,152.89Z"/><path class="cls-2" d="M277.63,97.29c1,3.53-.61,6.83-2.4,9.81s-3.66,5.77-5.58,8.6c-3.86,5.67-7.89,11.22-11.66,16.94-2,3-3.91,6.09-5.68,9.24,9.83-6.61,18.89-14.29,28.11-21.7,11.57-9.29,23.57-18.26,37.36-24Z"/><path class="cls-2" d="M285.76,165.26l.61.07c-.33-.07-.33-.08,0,0l.21,0-.22-.12a4.65,4.65,0,0,1-.53-.28l.16.19-.76-.6a7,7,0,0,0,.59.41,4.26,4.26,0,0,1-1-2c-4.14.12-8.28.35-12.38.84-3.09.37-6.42.6-9.32,1.81l-1.31.53h0l-.08,0-.4.14-.08,0,1-.19a65.48,65.48,0,0,1,11.27-.72C277.71,165.24,281.68,164.84,285.76,165.26Z"/><path class="cls-2" d="M286.61,165.35h0C286.73,165.37,286.72,165.37,286.61,165.35Z"/><path class="cls-2" d="M286.64,165.39c.7.45.34.18,0,0l-.27,0Z"/><path class="cls-2" d="M113.57,66.57q-3.93,4.2-7.82,8.44,5.76-4.31,11.54-8.56c19.5-14.39,39.38-28.26,59.29-42.08C187.17,17,197.74,9.15,210.1,5.07L170,6.16C151.8,26.88,132.39,46.45,113.57,66.57Z"/><path class="cls-2" d="M63.21,109.74l.35-.34-.7.66Z"/><path class="cls-2" d="M140.76,132c17.91-15.37,34.92-31.78,53.35-46.53a262.33,262.33,0,0,1,32.58-22.59L186.55,64l-28.21,37.68c-9.3,12.43-18.75,24.76-27.69,37.45-.74,1-1.51,2.11-2.3,3.2Q134.65,137.26,140.76,132Z"/><path class="cls-2" d="M260.27,80.15l-40.14,1.1-28.7,39.13c-4.69,6.4-9.53,12.72-14.09,19.22-1.92,2.74-3.83,6.38-3.65,9.63l64.56-51.51Z"/><path class="cls-2" d="M96.48,136.53c-6,5-12.12,9.92-18.45,14.56-5.3,3.89-10.73,7.62-16.34,11.05a90.32,90.32,0,0,1-9,4.92c-1.6.74-3.23,1.4-4.88,2l-.14,0c.19-.06.22-.06-.18.07-.75.25-.13,0,.18-.07l-1.18.36c-.91.25-1.82.46-2.74.65l38.1-.44C81.42,162.5,85,156.06,88.41,150Q92.25,143.16,96.48,136.53Z"/><path class="cls-2" d="M217.23,139.29c-3.31,2.37-6.68,4.63-10.16,6.73a71.36,71.36,0,0,1-11.86,5.89l-.95.34h0l-.19.07-.2.07.2-.07.16-.06-.63.19-1.33.35-.35.09,1-.14.18-.05-.1,0a56,56,0,0,1,5.6-.5,100.4,100.4,0,0,1,18.67,0c.37.08,1.5.62.3,0-.44-.22-.86-.41-1.28-.66.14.14.29.27.45.4l-.76-.6.31.19C212.84,148.19,214.87,143.09,217.23,139.29Z"/><path class="cls-2" d="M169.72,139.87c4.4-6.34,9-12.56,13.57-18.75q9.78-13.15,19.63-26.25l-59.28,47.3-22,17.56,40.14-1.1C161.32,151.49,165.85,145.44,169.72,139.87Z"/><path d="M266.22,167.81c-2,0-5.69.91-5.69-1.1v-50.4c.07-.32.63-2.43,2.69-2.43,1.86,0,3.89,2.6,4.6,3.73v45.54C267.83,165.15,268.23,167.81,266.22,167.81Z"/><path d="M267.83,98.07a9.31,9.31,0,0,0-3.76-.82,8.07,8.07,0,0,0-3.53.81V44.18c0-2,.94-.93,3-.93s4.34-1.08,4.34.93Z"/><path d="M103.3,165.14c-2,0-3.65,3-3.65.94V127.37s.84.24,2.63-1.21l4.67-3.75v41.5C107,165.92,105.32,165.14,103.3,165.14Z"/><path d="M236.94,167.81c-2,0-3.65-.62-3.65-2.63V123.47c0-5.94-5.61-12.85-12.85-12.85-3.51,0-8.67,3.94-12.44,6.82l-.23.18a92.67,92.67,0,0,1-8,4.82,6.07,6.07,0,0,1-1.3.15,10.33,10.33,0,0,1-10.18-10.18c0-5,5.14-10.18,10.18-10.18,2.32,0,5.26,1.57,7.15,3.77l-5.45,4.51a2,2,0,0,0-1.64-1h-.08a2.8,2.8,0,0,0-2.86,2.89,2.55,2.55,0,0,0,2.61,2.87h.11l.1,0a10.47,10.47,0,0,0,1.75-1l7.41-5.51c3.53-2.5,8.19-5.37,12.92-5.37,9.51,0,20.14,8.61,20.14,20.14v43.24C240.59,168.72,239,167.81,236.94,167.81Zm-33-1.13c-2,0-3.65-.11-3.65-2.12V127.31l7.29-5.39v43.66C207.6,167.59,206,166.68,203.95,166.68Z"/><path d="M97.85,122.59a10.33,10.33,0,0,1-10.18-10.18c0-5,5.14-10.18,10.18-10.18a9.13,9.13,0,0,1,6.78,3.49l-5.75,4.42a1.85,1.85,0,0,0-1.55-.61H97a2.66,2.66,0,0,0-2.58,2.89c0,1.83,1.15,2.87,3.16,2.87h.08l.08,0a11.69,11.69,0,0,0,2-1.19l7.2-5.36c.63-.45,1.22-.85,1.8-1.23,4.33-2.83,7.86-4.15,11.11-4.15a20,20,0,0,1,14.51,6.05c1.39,1.46-.52,1.64-2,3-.68.65-2.62,2.73-3.31,2a12.73,12.73,0,0,0-9.23-3.79c-3.52,0-8.68,3.94-12.44,6.82S100.69,122.59,97.85,122.59Z"/><path d="M56.37,170.29c-.73,0-1.8-.23-2.43-.18-1.11.09-1.57.33-1.57-1V116A4.78,4.78,0,0,1,56,113.77,4.78,4.78,0,0,1,59.67,116v52.84c0,1.51-.35,1.06-1.56,1C57.71,169.82,56.88,170.29,56.37,170.29Z"/><path d="M52.38,61.23a3.65,3.65,0,1,1,7.29,0V97.59a8.24,8.24,0,0,0-3.5-.76,9.54,9.54,0,0,0-3.79.82Z"/><path d="M64.95,115.81l-.22.27a9.88,9.88,0,0,0-1,1.68l.14,9.24a33.25,33.25,0,0,0,5-4.56l.39-.44.3.5c.93,1.53,1.8,3.08,2.58,4.59.63,1.23,1.45-.7,2.83-.7a3.6,3.6,0,0,0,1.65-.4c1.79-.91,2.93-.43,2-2.22A83.38,83.38,0,0,0,74.13,116l-.16-.24.16-.24a83.5,83.5,0,0,0,4.54-7.75c.91-1.79-.82-1.43-2.61-2.34a3.6,3.6,0,0,0-1.66-.4c-1.38,0-1.6-1.8-2.23-.57-.8,1.57-1.67,3.12-2.56,4.6l-.3.5Z"/><path d="M62.43,112.89c-2-2.08-4.39-4.11-6.3-4.11-3.45,0-7.53,3.8-7.53,7v.76l.08,10.77c-4.51-3-7.38-7.46-7.38-11.54,0-7.22,7.34-14.31,14.82-14.31,3.32,0,6.89,1.83,10.64,5.44"/><path d="M56,65.83c-2.15,0-3.65-1.32-3.65-3.2A29.32,29.32,0,0,1,81.67,33.34a3.65,3.65,0,0,1,0,7.29,22,22,0,0,0-22,22C59.67,64.51,58.17,65.83,56,65.83Z"/><path d="M96.58,46.46a21.92,21.92,0,0,0-14.91-5.83,3.65,3.65,0,0,1,0-7.29,29.2,29.2,0,0,1,19.86,7.76c.72.66.44.48.48,1.45s-1.14.94-1.8,1.66S97.26,47.09,96.58,46.46Z"/><path d="M175.41,168.21c-2,0-3.55,1-3.64-.93l7.29-8.28v8.1C179.05,169.12,177.42,168.21,175.41,168.21Z"/><path d="M171.76,124.08c0-7.84-5.26-13.54-12.52-13.54-8.1,0-11,7-11,13.54,0,2-1.61.57-3.63.57s-3.67,1.44-3.67-.57c0-12.26,7.52-20.83,18.28-20.83,11.29,0,19.81,9,19.81,20.83v10.49l-7.29,10.79Z"/><path d="M155.92,170.06a18.52,18.52,0,0,1,0-37,17.42,17.42,0,0,1,11.6,4.23l.07,9.44c-1.09-.78-3.16-2.25-3.81-2.77-3-2.36-5.69-3.6-7.87-3.6a11.23,11.23,0,0,0,0,22.46c4.32,0,10.57-4.9,17.14-13.45a121.31,121.31,0,0,0,9.39-14.38c.64-1.19,2.55,1.26,3.08,1.54,1.77,1,4.3.14,3.35,1.91a127.35,127.35,0,0,1-10,15.37C170.53,164.58,162.81,170.06,155.92,170.06Z"/><path d="M279,112l.31-.32c3.61-3.64,7.7-8.09,12.16-13.22,10.79-12.41,15.66-18.14,15.8-18.31.7-.91,2.57.78,3.21,1.27,1.6,1.22,3.81,1.55,2.59,3.15-.16.21-5.06,6-16.24,18.85-4.65,5.34-8.92,10-12.69,13.75l-.28.28.26.3c3.77,4.45,8.11,10,12.9,16.48,8.86,12,17.62,22.36,21.07,26.94l1.53,2c.52.81,2.89,2.5-1,4-1.25,0-3,3-3.63,2l-1.19-1.58c-3-4-13.37-16.4-22.23-28.45-4.69-6.37-9-11.87-12.75-16.33l-.29-.34-.33.3a39.28,39.28,0,0,1-5.9,4.5l0-9,.27-.21.2-.17.6-.54.34-.3Z"/><path d="M271.61,114.87c-4.78-4.75-6.75-5.41-7.28-5.49h-.07c-3.46,0-7.48,3.09-7.48,7a5.6,5.6,0,0,0,.15,1.3l-.59,9.1-.49-.15c-4.52-2.78-6.36-5.75-6.36-10.25,0-7.63,6.93-14.31,14.82-14.31,2.23,0,5.63.91,12.36,7.54Z"/><path d="M254.68,125.18"/><path d="M187.59,10A18.35,18.35,0,0,0,189.3,8c.88-1.55,1.87.19,3.42,1.07s3.07.55,2.2,2.11a10.61,10.61,0,0,1-6.53,5.06A9.62,9.62,0,0,0,187.59,10Z"/><path d="M155.4,18.68a22.86,22.86,0,0,1,.93-8.21C159.31,1.74,166.88-2,175.61,1,184,3.89,188,12.89,184.94,22a3.23,3.23,0,0,1-6.11-2.08c2.3-6.73-1.14-11.33-5.31-12.76-5.41-1.85-9.25,0-11.09,5.43-.69,2-.54,6.52-.47,7.4Z"/><path d="M165.66,31.42a3.23,3.23,0,0,1,2.08-6.11c5.72,2,10-2.1,11.62-7l6.11,2.08C182.32,29.64,174,34.26,165.66,31.42Z"/><path d="M151.07,42.47a13.18,13.18,0,0,0-9,8.46c-2.27,6.65,1.91,14.59,9,17l6.6,2.25a3.23,3.23,0,0,1-2.08,6.11L148.89,74c-10.47-3.57-16.41-15.11-13-25.18a19.59,19.59,0,0,1,10.92-11.72Z"/><path d="M166.79,45.19l-10.71-3.66a3.23,3.23,0,0,1,2.08-6.11l10.71,3.66a3.23,3.23,0,0,1-2.08,6.11Z"/><path d="M175.89,65.9a3.23,3.23,0,0,1-2-4.1c2.31-6.77-1.27-14.63-7.66-16.82a3.23,3.23,0,0,1,2.08-6.11c9.82,3.35,15.17,14.8,11.69,25A3.23,3.23,0,0,1,175.89,65.9Z"/><path d="M154.32,75.88a3.23,3.23,0,0,1,2.08-6.11c7,2.4,15.2-1.32,17.47-8A3.23,3.23,0,0,1,180,63.89C176.55,74,164.79,79.46,154.32,75.88Z"/><path d="M154.82,41.1A9.56,9.56,0,0,1,161,23l8.26,2.82a3.23,3.23,0,1,1-2.08,6.11l-8.26-2.82a3.11,3.11,0,0,0-2,5.89,3.23,3.23,0,1,1-2.08,6.11Z"/><path d="M199.68,61.48c-9.21-3.15-13.37-12.85-9.88-23.07a3.2,3.2,0,0,1,6.05,2.07c-2,5.77-.91,12.62,5.89,14.95a12.25,12.25,0,0,0,15.54-7.63l.84-2.75c1.07.3,4.85-.27,5.48-.23.37,0,1.31-.53,1.32-.28,0,.79-.74,2.88-1.69,5.65A18.73,18.73,0,0,1,199.68,61.48Z"/><path d="M192.09,41.6a3.2,3.2,0,0,1-2-4.06l3.36-9.83c3.43-10.05,13.23-15.18,22.79-11.91s15,14.78,11,22.74c-.79,1.58-2.61,3.18-4.27,2.61a3.2,3.2,0,0,1-2-4.06c2.29-6.71-.55-13.12-6.76-15.24s-12.38,1.21-14.67,7.92l-3.36,9.83A3.2,3.2,0,0,1,192.09,41.6Z"/><path d="M217.66,27.7c-.3-.34-.86.22-1.25.42a7.88,7.88,0,0,0-3.48,10.42c1.72,3.44,7,5.2,10.42,3.48a7.25,7.25,0,0,0,3.89-4.91l-5.78-1.5c.12.77-1.18,1.24-1.31,1.33a1.62,1.62,0,0,1-2.21-.91,2.27,2.27,0,0,1,1.32-2.87A7.62,7.62,0,0,0,217.66,27.7Z"/><path d="M230,32.47s6.72.37,7.56-.25.23-5.08,0-6-8.39.1-8.39.1A20.12,20.12,0,0,1,230,32.47Z"/><path d="M107,161.16v7.69c0,1.42-.45,1.56-1.42,1.52-.4,0-.9-.06-1.49-.06s-1,.05-1.53.1c-.35,0-.7-.28-1-.27s-.62.34-.87.29a1.13,1.13,0,0,1-1-1.28v-8"/><path d="M207.63,161.16v7.69c0,2-1.64,1.46-3.65,1.46s-3.65.85-3.65-1.16v-8"/><path d="M240.59,161.16v7.69c0,.89-.32,1.28-.86,1.43-.31.09-.7-.25-1.14-.27s-1.06.28-1.65.28c-2,0-3.65.87-3.65-1.14v-8"/><path d="M267.84,161.16v7.69c0,2-1.64,1.44-3.65,1.44s-3.65.87-3.65-1.14v-8"/><path d="M179.06,161.16v7.69c0,2-1.3,1.46-3.31,1.46s-4,.85-4-1.16v-1.87"/></g></g></svg>