<svg xmlns="http://www.w3.org/2000/svg" viewBox="0 0 275 35"><defs><style>.cls-1{fill:#fff;}</style></defs><title>swash-07</title><g id="Layer_2" data-name="Layer 2"><g id="Layer_2-2" data-name="Layer 2"><path class="cls-1" d="M272.92,20.36c-1.08-.8-2.21-1.44-2-2.31a4.52,4.52,0,0,1,.28-.7c.35-.23.62-.43.84-.59a3.25,3.25,0,0,0,.89-.88c.23-.43-.06-.7-.54-1a6.79,6.79,0,0,1-1.72-1.08c-.17-.18,0-.63.4-1.2a17.5,17.5,0,0,1,1.44-1.87c.55-.63,1.13-1.2,1.61-1.66S275,8.27,275,8a2.47,2.47,0,0,0-.63-1.37,8.06,8.06,0,0,0-1.45-1.3c-1.08-.8-2.68-1.41-2.43-2.29s1.21-.53,1.44-1.07.12-.92-1-.93c-.54,0-1.3-.88-2.26-.6C267.9.64,267.06-.1,266,0H8.43a2.26,2.26,0,0,0-.58,0c-1.14.42-1.43,1-2.16,1.42s-1.29.73-1.75,1-.77.52-1,.71A3.25,3.25,0,0,0,2,4c-.23.43.06.7.54,1A6.79,6.79,0,0,1,4.29,6.11c.17.18,0,.63-.4,1.2A17.46,17.46,0,0,1,2.45,9.18c-.55.63-1.13,1.2-1.61,1.66S0,11.67,0,12a2.47,2.47,0,0,0,.63,1.36,8,8,0,0,0,1.45,1.3c1.08.8,2.21,1.44,2,2.31a4.52,4.52,0,0,1-.28.7c-.35.23-.62.43-.84.59a3.25,3.25,0,0,0-.89.88c-.23.43.06.7.54,1a6.8,6.8,0,0,1,1.72,1.08c.17.18,0,.63-.4,1.2a17.46,17.46,0,0,1-1.44,1.87c-.55.63-1.13,1.2-1.61,1.66S0,26.73,0,27A2.47,2.47,0,0,0,.63,28.4a8,8,0,0,0,1.45,1.3c1.08.8,2.68,1.41,2.43,2.29s-1.21.53-1.44,1.07S2.95,34,4,34c.54,0,1.3.88,2.26.6A3.31,3.31,0,0,1,8,34.88V35H266v0c.19-.06,1,.06,1.15,0,1.14-.42,1.43-1,2.16-1.42s1.29-.73,1.75-1,.77-.52,1-.71A3.25,3.25,0,0,0,273,31c.23-.43-.06-.7-.54-1a6.79,6.79,0,0,1-1.72-1.08c-.17-.18,0-.63.4-1.2a17.5,17.5,0,0,1,1.44-1.87c.55-.63,1.13-1.2,1.61-1.66s.85-.82.84-1.13a2.47,2.47,0,0,0-.63-1.36A8.06,8.06,0,0,0,272.92,20.36Z"/></g></g></svg>