<svg xmlns="http://www.w3.org/2000/svg" viewBox="0 0 223.09 52.23"><defs><style>.cls-1{fill:#80f1ff;}</style></defs><title>swash-02</title><g id="Layer_2" data-name="Layer 2"><g id="Layer_2-2" data-name="Layer 2"><path class="cls-1" d="M210.27,35.35c.39-.72-.5-2.87-1.74-4.92s-2.64-4-1.5-4.57,4.94.25,8.37,2A48.92,48.92,0,0,1,220,30.56c1.26.79,2.15,1.34,2.54,1.08s.59-1.56.23-3.22a24.21,24.21,0,0,0-2.15-5.77c-2-4.06-5-7.57-4.09-8.2,1.31-.93,3.36-1.06,4.91-1.15s2.59-.28,1.73-1.65a13,13,0,0,0-3-2.91,42,42,0,0,0-7.06-4.33l-1.22-.59c-.47-.22-1.16-.5-1.77-.75a34.79,34.79,0,0,0-4.1-1.34A36.91,36.91,0,0,0,195.83.55a34.92,34.92,0,0,0-13.1,2.85,34,34,0,0,0-7.09,4.21,36.39,36.39,0,0,0-3.28,2.92c-1,1-1.79,1.94-2.5,2.81-1.54,1.91-2.47,3.23-3,3.84l-.27.33-.06.06h0l.87.88.69.7.62.67.34.38,0,0,.05.06a2.16,2.16,0,0,1,.23.3,5.25,5.25,0,0,1-.33-.94,6.35,6.35,0,0,1-.17-.74l-.12-.86c0-.34,0-.57-.06-1q0-.27,0-.54c0-.05,0,0,0,0a5.21,5.21,0,0,1-1.79-.59,6.83,6.83,0,0,1-1.24-.78l-.28-.21-.51-.44-1.4-1.31c-1.11-1.05-2.54-2.47-4.5-4.1a39.23,39.23,0,0,0-7.33-4.83,38.76,38.76,0,0,0-8.44-3.13,41.56,41.56,0,0,0-4.3-.78L136.75.1,134.63,0a43.85,43.85,0,0,0-16,2.64c-1.25.42-2.45,1-3.66,1.49s-2.37,1.14-3.5,1.81-2.27,1.33-3.34,2.1c-.53.37-1.11.76-1.59,1.13l-1.38,1.07c-1.7,1.37-3,2.47-3.89,3.23a12.4,12.4,0,0,1-1.6,1.19c-.12.06-.25.11-.43.19a7,7,0,0,1-.83.13,8.64,8.64,0,0,1-3-.47,10.81,10.81,0,0,1-1.83-.76,10.23,10.23,0,0,1-.9-.5c-.3-.17-.72-.45-1.16-.76C89.67,11.24,87.05,9,83,6.45a43,43,0,0,0-7.34-3.78A35.91,35.91,0,0,0,66.15.38a38.46,38.46,0,0,0-9.36.35,44.45,44.45,0,0,0-8,2.16,54.45,54.45,0,0,0-6.7,3.07c-2,1.12-3.92,2.3-5.7,3.52-1.31.91-2.64,1.89-3.8,2.8L29.73,14.5c-1,.8-1.83,1.37-2.35,1.7l-.33.2a2,2,0,0,1-.21.11l0,0h0s0,0,0,0l.07.16.44,1c.13.32.25.69.35,1A10.21,10.21,0,0,1,28,20a7.27,7.27,0,0,1,.22.86c.1.36.14,1,.1.54a12.39,12.39,0,0,1,.22-2.91q.09-.63.23-1.21c0-.17.1-.41.15-.66l0-.18s0,0,0,0h0s-.08,0-.15,0a8.18,8.18,0,0,1-.81-.29c-1.49-.61-3.56-1.84-6-3.18A49.73,49.73,0,0,0,15.3,9.65a19.94,19.94,0,0,0-5.07-1.28,3.19,3.19,0,0,0-2.33.37c-.34.32-.28.79,0,1.37a24.39,24.39,0,0,1,1.93,4.37c.41,1.84-2.25,2.93-4.73,4.44a14.71,14.71,0,0,0-3.29,2.54A4.84,4.84,0,0,0,.38,24.25c0,.63.69,1.38,1.54,2.34a38.57,38.57,0,0,1,2.81,3.48A33.68,33.68,0,0,1,7.18,34c.61,1.2.92,2.14.52,2.46A16.92,16.92,0,0,1,3.8,38.41c-1.1.5-1.73,1-1.41,1.9A5.74,5.74,0,0,0,4,42.18c.5.44,1.12.95,2,1.61s2.09,1.49,3.6,2.41a44.31,44.31,0,0,0,6,3.07,36.65,36.65,0,0,0,4.56,1.54,31.81,31.81,0,0,0,6,1,29.89,29.89,0,0,0,7.49-.37,32.73,32.73,0,0,0,7.34-2.22,48.78,48.78,0,0,0,10.53-6.51l0,0,2.91-2.29c.77-.6,1.4-1.06,2.09-1.54a21.68,21.68,0,0,1,4.82-2.6,11.29,11.29,0,0,1,1.33-.34c-.1,0-.28-.11,0,0a14.53,14.53,0,0,1,1.93,1.19c1,.66,2.17,1.57,3.65,2.68s3.25,2.4,5.49,3.78A48.2,48.2,0,0,0,89,49.72a45,45,0,0,0,8.59,1,40.87,40.87,0,0,0,9.14-.92,37.83,37.83,0,0,0,9.1-3.25q1.09-.57,2.16-1.17c.68-.41,1.34-.83,1.95-1.24,1.21-.82,2.26-1.62,3.17-2.34,1.82-1.46,3.15-2.63,4.1-3.4a10.9,10.9,0,0,1,1.08-.82l.38-.27.41-.23a10.33,10.33,0,0,1,3.43-1.25,5.83,5.83,0,0,1,2.44.09,2.3,2.3,0,0,1,.59.24c.07.08.13,0,.32.21s.49.39.89.75c.8.71,2,1.87,3.57,3.37.83.76,1.68,1.54,2.9,2.5s2.33,1.75,3.53,2.56a42.07,42.07,0,0,0,16.64,6.34,36.6,36.6,0,0,0,10.2,0,33.42,33.42,0,0,0,10.82-3.55,32.25,32.25,0,0,0,4.88-3.29,30.42,30.42,0,0,0,3.89-3.7c2-2.31,3.24-4,4-5,.36-.47.6-.74.66-.81a1,1,0,0,1-.21.19,2.44,2.44,0,0,1-.66.38c-.19.08-.11,0,.11,0a3.62,3.62,0,0,1,.74.06,1.27,1.27,0,0,0,.17,0,1.91,1.91,0,0,1,.3.11l.37.15c.48.2.93.38,1.34.56.82.36,1.53.68,2.11,1,2.34,1.18,3.4,1.75,4.34,1.82a2.28,2.28,0,0,0,2.13-1.2A28.13,28.13,0,0,0,210.27,35.35Z" transform="translate(-0.37)"/></g></g></svg>