<svg xmlns="http://www.w3.org/2000/svg" viewBox="0 0 281.71 77.03"><defs><style>.cls-1{fill:#00e1ff;}</style></defs><title>swash-06</title><g id="Layer_2" data-name="Layer 2"><g id="Layer_2-2" data-name="Layer 2"><path class="cls-1" d="M272.6,50.17c-.6-.14-2.71.38-5.56,1.25s-6.43,2.09-9.88,3.18c-6.89,2.23-13.32,3.78-11.77,2,.77-.9,3.47-2.68,7-4.92l12.17-7.57c4.26-2.61,8.43-5.1,11.65-6.83.79-.46,1.55-.82,2.22-1.17s1.24-.67,1.75-.89c1-.48,1.57-.85,1.53-1.07-.06-.6-2.89-.82-6.65-.18a120.52,120.52,0,0,0-13,3.17c-4.54,1.3-9,2.58-12.2,3.35s-5.29,1-5.12.38c.42-1.49,2-3.35,3.35-4.95s2.56-3,2.19-3.46c-.18-.24-.75-.26-1.87,0a50.35,50.35,0,0,0-5.15,1.74L234,37.74a120.25,120.25,0,0,1-13.52,4.37l8.64,14.28a1.9,1.9,0,0,1-.33.22l-.2.09-.11,0,0,0s-.32.09-.14.06h.11a1.61,1.61,0,0,1,.36,0c.07,0,.3,0,.5.08a6,6,0,0,1,.6.17,10.56,10.56,0,0,1,1.68.68c.32.15.6.33.92.52a10.6,10.6,0,0,1,1,.64l.49.36.56.39q.55.4,1.05.85a26.52,26.52,0,0,1,2.09,1.87q.5.47,1,1c.16.18.31.34.45.48l.21.23,0,0,.07,0a2.89,2.89,0,0,1,.33-.2l2.59-1.58c.54-.34,1.06-.65,1.62-1l1.86-1.37c.64-.49,1.21-.9,1.9-1.49s1.47-1.36,2.2-2.08l.54-.54a8.08,8.08,0,0,0,.56-.61q.63-.75,1.24-1.55T253.52,52l.28-.41.3-.52L254.7,50a23,23,0,0,0,1.92-4.55c.24-.8.48-1.65.65-2.43s.23-1.37.33-2.06l.13-1,0-.65.08-1.26,0-.36V37.5h0l-3-.27h-.78l-1-.06a27.46,27.46,0,0,1-4.16-.64,1.5,1.5,0,0,0-.42-.09l-.14,0-.3-.07-.31-.1-.08,0,0,0,0,0,.19.07a3.59,3.59,0,0,1,.67.35l.31.22q.42.23.81.48a11.49,11.49,0,0,1,1.47,1.13q.34.31.65.64a4.91,4.91,0,0,0,.5.43l.58.49a28.28,28.28,0,0,1,2.16,2.1l.5.56.11.13h0l-.05,0,.19-.12a3.84,3.84,0,0,0,.44-.34c.49-.31,1.17-.7,1.74-1.09l1.15-.77A17.81,17.81,0,0,0,246.22,8.16l-4,.66c-1.58.26-3.35.55-5.2.91a167.94,167.94,0,0,0-24.37,6.1,121.75,121.75,0,0,0-12.2,5.08c-3.82,1.86-7.45,3.78-10.8,5.64-6.76,3.74-13,7.3-19.46,10.73A60.32,60.32,0,0,1,162.68,41c-.35.13-.57.17-.7.21h0s0,0,0,.06c0,.26.07.55.11.73q.11.62.17,1.25l0,.64,0,.49a10.49,10.49,0,0,1-.21,3.47l8.75,22.25L201,36.86h0A17.85,17.85,0,0,0,184.88,7.23c-9.15,1.49-18.37,3.12-27.66,5.09s-18.64,4.3-27.89,7.12S111,25.57,102.16,29.18,84.75,36.67,76.33,40.67L94.39,71.33c3.95-2.85,7.91-5.75,11.9-9s8.06-6.85,11.46-10.07,6.11-5.65,9.37-8.25,6.72-5.16,10.27-7.72l0,0A17.87,17.87,0,0,0,120.92,5c-7.86,2.83-15.73,5.49-23.68,7.92s-16,4.63-24.25,6.79-16.79,4.34-25.37,6.77-17.18,5.07-25.63,8C18.6,35.61,15.27,36.83,11.92,38L29.46,68.5l3-2.47,3.11-2.41c2.92-2.21,6-4.35,9.2-6.58s6.7-4.56,10.31-7.18a135.44,135.44,0,0,0,12.71-10.4c3.78-3.51,6.9-6.93,9.58-10A17.76,17.76,0,0,0,60.64.32C52.18,2,45,3.11,38.35,4.28A127.57,127.57,0,0,0,20.67,8.44a78.45,78.45,0,0,0-11,4.5A31.62,31.62,0,0,0,4.57,16C2.7,17.61,3.38,18.14,5,18.38s4.28.24,6.34.71c1.31.3,1.21,1.31.42,2.69A44.77,44.77,0,0,1,8,26.85c-3,3.75-6,7.91-5.22,9.45.58,1.14,9.64-2,18.31-3.54a63.65,63.65,0,0,1,11.67-1.09c3.12,0,5.12.32,4.8.88a9.11,9.11,0,0,1-1.8,2.07c-.77.67-1.62,1.34-2.36,2-1.53,1.23-2.67,2.33-2.32,2.84s2.09.45,7.06-.15L49,38c4.81-.62,11-1.47,18.4-2.83l-16.64-29L48.09,9c-1,.93-1.92,2-3,3a90.15,90.15,0,0,1-7.36,6.33c-2.83,2.21-6.17,4.55-10.16,7.27S19,31.41,14.14,35.07l-.09.07-3.77,2.92-3.71,3A17.82,17.82,0,0,0,23.67,71.74l.44-.16c3.13-1.1,6.26-2.25,9.4-3.3,7.88-2.72,15.79-5.14,23.83-7.42S73.59,56.48,82,54.27s17.07-4.55,25.63-7.18,17.06-5.49,25.45-8.51L116.64,7.26c-3.95,2.85-7.91,5.75-11.9,9s-8.06,6.85-11.46,10.07-6.11,5.65-9.37,8.25-6.72,5.16-10.27,7.72l-.06,0A17.86,17.86,0,0,0,91.7,72.92c16-7.61,31.84-14.38,48.06-19.31S173,45.35,190.57,42.5L174.49,12.87,144.37,46.1a17.87,17.87,0,0,0,6,28.31l.12,0a30.33,30.33,0,0,0,14.8,2.31A39.92,39.92,0,0,0,176,74.12a74,74,0,0,0,7.39-3.42l5.66-3c3.71-2,7.38-4,11-6.05s7.15-4,10.48-5.78a85.83,85.83,0,0,1,19.13-7.91,202.42,202.42,0,0,1,22.11-4.5L240.13,10.3l-2.28,1.4-1.13.71-.56.36c-.19.13-.42.3-.63.46q-1.29.94-2.55,1.93c-.22.17-.4.3-.64.52l-.74.68q-.74.69-1.45,1.39l-.71.71c-.12.13-.23.23-.36.37l-.41.49q-.82,1-1.58,2l-.74,1.05c-.24.35-.51.86-.76,1.29-.49.9-1,1.83-1.37,2.77a25.42,25.42,0,0,0-1,3q-.21.76-.4,1.52c-.09.45-.15.85-.22,1.28l-.18,1.27c-.05.42-.11.91-.12,1.09l-.1,1.53,0,.5s0,.12,0,0v-.18a3,3,0,0,1,.05-.36l0-.18,0-.09,0-.17a5.79,5.79,0,0,1,.16-.67c.13-.44.34-.85.47-1.25a5.55,5.55,0,0,1,.62-1.13A6.11,6.11,0,0,1,224,32a3.12,3.12,0,0,1,.24-.27c.07-.08.21-.19.18-.19a.23.23,0,0,1,.06-.11.23.23,0,0,1,.11-.06l-.25.16c-.19.12-.28.23-.51.4l-.95.58-.46.3-.27.18-.73.44a38.36,38.36,0,0,0-5.4,4,31.85,31.85,0,0,0-5.19,5.77c-.45.67-.87,1.31-1.28,2s-.84,1.58-1.22,2.44a29.47,29.47,0,0,0-1.05,2.94,26.43,26.43,0,0,0-.71,3.49,24.4,24.4,0,0,0-.14,3.93,23.58,23.58,0,0,0,.6,4,24.33,24.33,0,0,0,1.29,3.75A28.38,28.38,0,0,0,210,68.94a17.38,17.38,0,0,0,19.23,7.49l0,0A126.7,126.7,0,0,0,242.59,72c1.93-.75,3.69-1.52,5.41-2.23l4.77-2.15c6-2.78,10.55-5.18,14.15-7.1,7.22-3.89,10.53-5.92,11.85-7.14C281.44,50.9,276.42,51,272.6,50.17Z"/></g></g></svg>