<svg xmlns="http://www.w3.org/2000/svg" viewBox="0 0 425.08 72.2"><defs><style>.cls-1{fill:#7ff0ff;}</style></defs><title>swash-05-blue</title><g id="Layer_2" data-name="Layer 2"><g id="Layer_2-2" data-name="Layer 2"><path class="cls-1" d="M211.59,30.85c.24-.69-1-2.61-2.52-4.39s-3.16-3.42-2.15-4,4.74-.1,8.18,1.17a42.22,42.22,0,0,1,4.62,2.05c1.26.63,2.16,1.07,2.47.81s.31-1.49-.26-3a23.33,23.33,0,0,0-2.85-5.07c-2.45-3.46-5.55-6.28-4.83-6.92,1.08-1,2.9-1.26,4.28-1.51s2.29-.5,1.35-1.65-3.79-3.17-9.67-5.43c-.32-.13-.85-.31-1.36-.48s-1-.35-1.6-.49c-1.1-.32-2.27-.58-3.51-.83a39.53,39.53,0,0,0-8.49-.63,36.85,36.85,0,0,0-10.94,2,33,33,0,0,0-6.46,3.14A32.29,32.29,0,0,0,174.63,8c-1,.81-1.82,1.61-2.5,2.29-1.55,1.56-2.4,2.49-2.69,2.73l-.08.07h0l.06.07.52.68.42.56.2.29.1.15h0l0,0-.07-.1a2.56,2.56,0,0,1-.22-.38,4.82,4.82,0,0,1-.33-.65c-.06-.17-.22-.51-.32-.8,0,0,0,0,0,0a.14.14,0,0,0-.09,0s-.12,0-.18,0a.51.51,0,0,1-.23,0l-.28,0c-.24,0-.44,0-.73,0a12.09,12.09,0,0,1-3.78-.93,12.09,12.09,0,0,1-1.68-.89c-.55-.33-1.55-1.09-2.86-2.08a56.78,56.78,0,0,0-5.26-3.59c-1.1-.67-2.35-1.26-3.55-1.85s-2.44-1-3.66-1.44A43.3,43.3,0,0,0,132.93,0,49.44,49.44,0,0,0,119.4,2.13,48.18,48.18,0,0,0,113,4.63c-1.06.47-2.11,1.06-3.15,1.63s-1.91,1.14-2.72,1.65c-1.6,1-2.78,1.85-3.64,2.38a9,9,0,0,1-1.67.88,7.14,7.14,0,0,1-1.47.41,10.47,10.47,0,0,1-2,.19,17.46,17.46,0,0,1-4.79-.61,19,19,0,0,1-2.41-.82c-.4-.14-.75-.34-1.13-.5l-.66-.34-.73-.4c-2.07-1.13-4.92-3-8.93-5a42,42,0,0,0-6.92-2.63,37.47,37.47,0,0,0-8-1.28A43,43,0,0,0,50.29,2.08,60.45,60.45,0,0,0,38.71,7c-.64.36-1.3.72-1.93,1.09L35,9.17l-2.87,1.77c-1,.63-1.89,1.1-2.51,1.39a6.08,6.08,0,0,1-1.15.45l-.14,0-.37,0a10.72,10.72,0,0,1-2.1-.52c-1.86-.63-4-1.64-6.39-2.68a47.88,47.88,0,0,0-6.51-2.37,18.16,18.16,0,0,0-4.52-.73c-2.17,0-2.4.72-1.94,1.7a26.9,26.9,0,0,1,1.95,3.73c.5,1.6-1.77,2.76-3.92,4.23a15.69,15.69,0,0,0-2.89,2.38A4.34,4.34,0,0,0,.36,21c0,.55.72,1.22,1.68,2.06s2.13,1.89,3.22,3a32.43,32.43,0,0,1,2.88,3.42c.73,1,1.14,1.87.8,2.19a13.86,13.86,0,0,1-3.44,2c-1,.52-1.55,1-1.09,1.8a6.23,6.23,0,0,0,1.78,1.6c.52.36,1.18.78,2,1.3s2.06,1.17,3.51,1.87a46,46,0,0,0,5.51,2.25A36.46,36.46,0,0,0,26,44.34a32.36,32.36,0,0,0,12.16-1.42,47,47,0,0,0,10.29-4.85l0,0,3.09-1.91c.87-.54,1.54-.92,2.3-1.35a28.39,28.39,0,0,1,5.73-2.43,10.4,10.4,0,0,1,3.82-.46,4.32,4.32,0,0,1,1.24.27,16.71,16.71,0,0,1,2.24,1c2,1,4.84,2.93,8.91,5a51.34,51.34,0,0,0,13.5,4.48,46.87,46.87,0,0,0,14.78.4,39.42,39.42,0,0,0,7.83-1.87,39.12,39.12,0,0,0,3.9-1.59c1.26-.6,2.4-1.23,3.41-1.83,2-1.21,3.56-2.28,4.7-3,.57-.37,1-.67,1.42-.89s.64-.38,1-.53a16.57,16.57,0,0,1,9.49-1.45,8,8,0,0,1,1.67.47,6.16,6.16,0,0,1,1.4.74c.7.46,1.77,1.28,3.28,2.41.76.56,1.63,1.2,2.62,1.87s2.25,1.45,3.39,2a42.35,42.35,0,0,0,7,3,42.6,42.6,0,0,0,7.48,1.79,39,39,0,0,0,8.16.37,33.76,33.76,0,0,0,8.94-1.73c.77-.28,1.54-.54,2.3-.87s1.54-.72,2.3-1.1a32.8,32.8,0,0,0,4.36-2.82A48.82,48.82,0,0,0,194,33.24c.47-.49.77-.77.9-.89s.06,0,0,0,0,0,.3-.1a8.07,8.07,0,0,1,1.88-.24,11.75,11.75,0,0,1,2.09.2c.15,0,.31,0,.44.09l.2,0,.11,0,.2.06,1.53.48c.94.31,1.74.61,2.44.86,2.73,1.05,3.84,1.54,4.72,1.53A1.91,1.91,0,0,0,210.57,34,23.1,23.1,0,0,0,211.59,30.85Z" transform="translate(-0.36)"/><path class="cls-1" d="M211.59,58.38c.24-.69-1-2.61-2.52-4.39s-3.16-3.42-2.15-4,4.74-.1,8.18,1.17a42.22,42.22,0,0,1,4.62,2.05c1.26.63,2.16,1.07,2.47.81s.31-1.49-.26-3a23.33,23.33,0,0,0-2.85-5.07c-2.45-3.46-5.55-6.28-4.83-6.92,1.08-1,2.9-1.26,4.28-1.51s2.29-.5,1.35-1.64-3.79-3.17-9.67-5.43c-.32-.13-.85-.31-1.36-.48s-1-.35-1.6-.49c-1.1-.32-2.27-.58-3.51-.83a39.53,39.53,0,0,0-8.49-.63,36.85,36.85,0,0,0-10.94,2,33,33,0,0,0-6.46,3.14,32.29,32.29,0,0,0-3.22,2.35c-1,.81-1.82,1.61-2.5,2.29-1.55,1.56-2.4,2.49-2.69,2.73l-.08.07h0l.06.07.52.68.42.56.2.29.1.15h0l0,0-.07-.1a2.56,2.56,0,0,1-.22-.38,4.8,4.8,0,0,1-.33-.65c-.06-.17-.22-.51-.32-.8,0,0,0,0,0,0a.14.14,0,0,0-.09,0s-.12,0-.18,0a.51.51,0,0,1-.23,0l-.28,0c-.24,0-.44,0-.73,0a11.93,11.93,0,0,1-5.46-1.82c-.55-.33-1.55-1.09-2.86-2.08A56.82,56.82,0,0,0,154.55,33c-1.1-.67-2.35-1.26-3.55-1.85s-2.44-1-3.66-1.44a43.3,43.3,0,0,0-14.42-2.19,49.44,49.44,0,0,0-13.52,2.13A48.18,48.18,0,0,0,113,32.15c-1.06.47-2.11,1.06-3.15,1.63s-1.91,1.14-2.72,1.65c-1.6,1-2.78,1.85-3.64,2.38a9,9,0,0,1-1.67.88,7.15,7.15,0,0,1-1.47.41,10.49,10.49,0,0,1-2,.19,17.46,17.46,0,0,1-4.79-.61,18.93,18.93,0,0,1-2.41-.82c-.4-.14-.75-.34-1.13-.5L89.34,37l-.73-.4c-2.07-1.13-4.92-3-8.93-5A42,42,0,0,0,72.76,29a37.49,37.49,0,0,0-8-1.28,43,43,0,0,0-14.48,1.85,60.45,60.45,0,0,0-11.58,4.9c-.64.36-1.3.72-1.93,1.09L35,36.7l-2.87,1.77c-1,.63-1.89,1.1-2.51,1.39a6.09,6.09,0,0,1-1.15.44l-.14,0-.37,0a10.72,10.72,0,0,1-2.1-.52c-1.86-.63-4-1.64-6.39-2.68a47.86,47.86,0,0,0-6.51-2.37A18.16,18.16,0,0,0,8.42,34c-2.17,0-2.4.72-1.94,1.7a26.93,26.93,0,0,1,1.95,3.73c.5,1.6-1.77,2.76-3.92,4.23a15.69,15.69,0,0,0-2.89,2.38A4.34,4.34,0,0,0,.36,48.57c0,.55.72,1.22,1.68,2.06s2.13,1.89,3.22,3a32.41,32.41,0,0,1,2.88,3.42c.73,1,1.14,1.87.8,2.19a13.84,13.84,0,0,1-3.44,2c-1,.52-1.55,1-1.09,1.8a6.23,6.23,0,0,0,1.78,1.6c.52.36,1.18.78,2,1.3s2.06,1.17,3.51,1.87a46.06,46.06,0,0,0,5.51,2.25A36.46,36.46,0,0,0,26,71.87a32.36,32.36,0,0,0,12.16-1.42A47,47,0,0,0,48.46,65.6l0,0,3.09-1.91c.87-.54,1.54-.92,2.3-1.35a28.38,28.38,0,0,1,5.73-2.43,10.4,10.4,0,0,1,3.82-.46,4.31,4.31,0,0,1,1.24.27,16.68,16.68,0,0,1,2.24,1c2,1,4.84,2.93,8.91,5a51.33,51.33,0,0,0,13.5,4.48,46.86,46.86,0,0,0,14.78.4,39.91,39.91,0,0,0,11.74-3.46c1.26-.6,2.4-1.23,3.41-1.83,2-1.21,3.56-2.28,4.7-3,.57-.37,1-.67,1.42-.89s.64-.38,1-.53a16.57,16.57,0,0,1,9.49-1.45,8,8,0,0,1,1.67.47,6.15,6.15,0,0,1,1.4.74c.7.46,1.77,1.28,3.28,2.41.76.56,1.63,1.2,2.62,1.87s2.25,1.45,3.39,2a44.29,44.29,0,0,0,14.51,4.84,39,39,0,0,0,8.16.37,33.76,33.76,0,0,0,8.94-1.73c.77-.28,1.54-.54,2.3-.87s1.54-.72,2.3-1.1a32.8,32.8,0,0,0,4.36-2.82A48.82,48.82,0,0,0,194,60.76c.47-.49.77-.77.9-.89s.06,0,0,0,0,0,.3-.1a8.05,8.05,0,0,1,1.88-.24,11.75,11.75,0,0,1,2.09.2c.15,0,.31,0,.44.09l.2,0,.11,0,.2.06,1.53.48c.94.31,1.74.61,2.44.86,2.73,1.05,3.84,1.54,4.72,1.53a1.91,1.91,0,0,0,1.77-1.27A23.08,23.08,0,0,0,211.59,58.38Z" transform="translate(-0.36)"/><path class="cls-1" d="M414.59,30.85c.24-.69-1-2.61-2.52-4.39s-3.16-3.42-2.15-4,4.74-.1,8.18,1.17a42.22,42.22,0,0,1,4.62,2.05c1.26.63,2.16,1.07,2.47.81s.31-1.49-.26-3a23.33,23.33,0,0,0-2.85-5.07c-2.45-3.46-5.55-6.28-4.83-6.92,1.08-1,2.9-1.26,4.28-1.51s2.29-.5,1.35-1.65-3.8-3.17-9.67-5.43c-.32-.13-.85-.31-1.36-.48s-1-.35-1.6-.49c-1.1-.32-2.27-.58-3.51-.83a39.53,39.53,0,0,0-8.49-.63,36.85,36.85,0,0,0-10.94,2,33,33,0,0,0-6.46,3.14A32.29,32.29,0,0,0,377.63,8c-1,.81-1.82,1.61-2.5,2.29-1.55,1.56-2.4,2.49-2.69,2.73l-.08.07h0l.06.07.52.68.42.56.2.29.1.15h0l0,0-.07-.1a2.56,2.56,0,0,1-.22-.38,4.82,4.82,0,0,1-.33-.65c-.06-.17-.22-.51-.32-.8,0,0,0,0,0,0a.14.14,0,0,0-.09,0s-.12,0-.18,0a.51.51,0,0,1-.23,0l-.28,0c-.24,0-.44,0-.73,0a12.09,12.09,0,0,1-3.78-.93,12.09,12.09,0,0,1-1.68-.89c-.55-.33-1.55-1.09-2.86-2.08a56.78,56.78,0,0,0-5.26-3.59c-1.1-.67-2.35-1.26-3.55-1.85s-2.44-1-3.66-1.44A43.3,43.3,0,0,0,335.93,0,49.44,49.44,0,0,0,322.4,2.13,48.18,48.18,0,0,0,316,4.63c-1.06.47-2.11,1.06-3.15,1.63s-1.91,1.14-2.72,1.65c-1.6,1-2.78,1.85-3.64,2.38a9,9,0,0,1-1.67.88,7.14,7.14,0,0,1-1.47.41,10.47,10.47,0,0,1-2,.19,17.46,17.46,0,0,1-4.79-.61,19,19,0,0,1-2.41-.82c-.4-.14-.75-.34-1.13-.5l-.66-.34-.73-.4c-2.07-1.13-4.92-3-8.93-5a42,42,0,0,0-6.92-2.63,37.47,37.47,0,0,0-8-1.28,43,43,0,0,0-14.48,1.85A60.45,60.45,0,0,0,241.71,7c-.64.36-1.3.72-1.93,1.09L238,9.17l-2.87,1.77c-1,.63-1.89,1.1-2.51,1.39a6.08,6.08,0,0,1-1.15.45l-.14,0-.37,0a10.72,10.72,0,0,1-2.1-.52c-1.86-.63-4-1.64-6.39-2.68a47.89,47.89,0,0,0-6.51-2.37,18.16,18.16,0,0,0-4.52-.73c-2.17,0-2.4.72-1.94,1.7a26.89,26.89,0,0,1,1.95,3.73c.5,1.6-1.77,2.76-3.92,4.23a15.69,15.69,0,0,0-2.89,2.38A4.34,4.34,0,0,0,203.36,21c0,.55.72,1.22,1.68,2.06s2.13,1.89,3.22,3a32.44,32.44,0,0,1,2.88,3.42c.73,1,1.14,1.87.8,2.19a13.86,13.86,0,0,1-3.44,2c-1,.52-1.55,1-1.09,1.8a6.23,6.23,0,0,0,1.78,1.6c.52.36,1.18.78,2,1.3s2.06,1.17,3.51,1.87a46,46,0,0,0,5.51,2.25,36.46,36.46,0,0,0,8.76,1.8,32.36,32.36,0,0,0,12.16-1.42,47,47,0,0,0,10.29-4.85l0,0,3.09-1.91c.87-.54,1.54-.92,2.3-1.35a28.4,28.4,0,0,1,5.73-2.43,10.4,10.4,0,0,1,3.82-.46,4.32,4.32,0,0,1,1.24.27,16.71,16.71,0,0,1,2.24,1c2,1,4.84,2.93,8.91,5a51.34,51.34,0,0,0,13.5,4.48,46.87,46.87,0,0,0,14.78.4,39.42,39.42,0,0,0,7.83-1.87,39.12,39.12,0,0,0,3.9-1.59c1.26-.6,2.4-1.23,3.41-1.83,2-1.21,3.56-2.28,4.7-3,.57-.37,1-.67,1.42-.89s.64-.38,1-.53a16.57,16.57,0,0,1,9.49-1.45,8,8,0,0,1,1.67.47,6.16,6.16,0,0,1,1.4.74c.7.46,1.77,1.28,3.28,2.41.76.56,1.63,1.2,2.62,1.87s2.25,1.45,3.39,2a42.35,42.35,0,0,0,7,3,42.6,42.6,0,0,0,7.48,1.79,39,39,0,0,0,8.16.37,33.76,33.76,0,0,0,8.94-1.73c.77-.28,1.54-.54,2.3-.87s1.54-.72,2.3-1.1a32.8,32.8,0,0,0,4.36-2.82A48.82,48.82,0,0,0,397,33.24c.47-.49.77-.77.9-.89s.06,0,0,0,0,0,.3-.1a8.07,8.07,0,0,1,1.88-.24,11.75,11.75,0,0,1,2.09.2c.15,0,.31,0,.44.09l.2,0,.11,0,.2.06,1.53.48c.94.31,1.74.61,2.44.86,2.73,1.05,3.84,1.54,4.72,1.53A1.91,1.91,0,0,0,413.57,34,23.09,23.09,0,0,0,414.59,30.85Z" transform="translate(-0.36)"/><path class="cls-1" d="M414.59,58.38c.24-.69-1-2.61-2.52-4.39s-3.16-3.42-2.15-4,4.74-.1,8.18,1.17a42.22,42.22,0,0,1,4.62,2.05c1.26.63,2.16,1.07,2.47.81s.31-1.49-.26-3a23.33,23.33,0,0,0-2.85-5.07c-2.45-3.46-5.55-6.28-4.83-6.92,1.08-1,2.9-1.26,4.28-1.51s2.29-.5,1.35-1.64-3.8-3.17-9.67-5.43c-.32-.13-.85-.31-1.36-.48s-1-.35-1.6-.49c-1.1-.32-2.27-.58-3.51-.83a39.53,39.53,0,0,0-8.49-.63,36.85,36.85,0,0,0-10.94,2,33,33,0,0,0-6.46,3.14,32.29,32.29,0,0,0-3.22,2.35c-1,.81-1.82,1.61-2.5,2.29-1.55,1.56-2.4,2.49-2.69,2.73l-.08.07h0l.06.07.52.68.42.56.2.29.1.15h0l0,0-.07-.1a2.56,2.56,0,0,1-.22-.38,4.8,4.8,0,0,1-.33-.65c-.06-.17-.22-.51-.32-.8,0,0,0,0,0,0a.14.14,0,0,0-.09,0s-.12,0-.18,0a.51.51,0,0,1-.23,0l-.28,0c-.24,0-.44,0-.73,0a11.93,11.93,0,0,1-5.46-1.82c-.55-.33-1.55-1.09-2.86-2.08A56.82,56.82,0,0,0,357.55,33c-1.1-.67-2.35-1.26-3.55-1.85s-2.44-1-3.66-1.44a43.3,43.3,0,0,0-14.42-2.19,49.44,49.44,0,0,0-13.52,2.13A48.18,48.18,0,0,0,316,32.15c-1.06.47-2.11,1.06-3.15,1.63s-1.91,1.14-2.72,1.65c-1.6,1-2.78,1.85-3.64,2.38a9,9,0,0,1-1.67.88,7.15,7.15,0,0,1-1.47.41,10.49,10.49,0,0,1-2,.19,17.46,17.46,0,0,1-4.79-.61,18.93,18.93,0,0,1-2.41-.82c-.4-.14-.75-.34-1.13-.5l-.66-.34-.73-.4c-2.07-1.13-4.92-3-8.93-5A42,42,0,0,0,275.76,29a37.49,37.49,0,0,0-8-1.28,43,43,0,0,0-14.48,1.85,60.45,60.45,0,0,0-11.58,4.9c-.64.36-1.3.72-1.93,1.09L238,36.7l-2.87,1.77c-1,.63-1.89,1.1-2.51,1.39a6.09,6.09,0,0,1-1.15.44l-.14,0-.37,0a10.72,10.72,0,0,1-2.1-.52c-1.86-.63-4-1.64-6.39-2.68a47.86,47.86,0,0,0-6.51-2.37,18.16,18.16,0,0,0-4.52-.73c-2.17,0-2.4.72-1.94,1.7a26.92,26.92,0,0,1,1.95,3.73c.5,1.6-1.77,2.76-3.92,4.23a15.69,15.69,0,0,0-2.89,2.38,4.34,4.34,0,0,0-1.26,2.49c0,.55.72,1.22,1.68,2.06s2.13,1.89,3.22,3a32.41,32.41,0,0,1,2.88,3.42c.73,1,1.14,1.87.8,2.19a13.84,13.84,0,0,1-3.44,2c-1,.52-1.55,1-1.09,1.8a6.23,6.23,0,0,0,1.78,1.6c.52.36,1.18.78,2,1.3s2.06,1.17,3.51,1.87a46.07,46.07,0,0,0,5.51,2.25,36.46,36.46,0,0,0,8.76,1.8,32.36,32.36,0,0,0,12.16-1.42,47,47,0,0,0,10.29-4.85l0,0,3.09-1.91c.87-.54,1.54-.92,2.3-1.35a28.38,28.38,0,0,1,5.73-2.43,10.4,10.4,0,0,1,3.82-.46,4.31,4.31,0,0,1,1.24.27,16.68,16.68,0,0,1,2.24,1c2,1,4.84,2.93,8.91,5a51.33,51.33,0,0,0,13.5,4.48,46.86,46.86,0,0,0,14.78.4,39.91,39.91,0,0,0,11.74-3.46c1.26-.6,2.4-1.23,3.41-1.83,2-1.21,3.56-2.28,4.7-3,.57-.37,1-.67,1.42-.89s.64-.38,1-.53a16.57,16.57,0,0,1,9.49-1.45,8,8,0,0,1,1.67.47,6.15,6.15,0,0,1,1.4.74c.7.46,1.77,1.28,3.28,2.41.76.56,1.63,1.2,2.62,1.87s2.25,1.45,3.39,2a44.29,44.29,0,0,0,14.51,4.84,39,39,0,0,0,8.16.37,33.76,33.76,0,0,0,8.94-1.73c.77-.28,1.54-.54,2.3-.87s1.54-.72,2.3-1.1a32.8,32.8,0,0,0,4.36-2.82A48.82,48.82,0,0,0,397,60.76c.47-.49.77-.77.9-.89s.06,0,0,0,0,0,.3-.1a8.05,8.05,0,0,1,1.88-.24,11.75,11.75,0,0,1,2.09.2c.15,0,.31,0,.44.09l.2,0,.11,0,.2.06,1.53.48c.94.31,1.74.61,2.44.86,2.73,1.05,3.84,1.54,4.72,1.53a1.91,1.91,0,0,0,1.77-1.27A23.06,23.06,0,0,0,414.59,58.38Z" transform="translate(-0.36)"/></g></g></svg>