<svg xmlns="http://www.w3.org/2000/svg" viewBox="0 0 221.35 51.64"><defs><style>.cls-1{fill:#fff;}</style></defs><title>swash-03</title><g id="Layer_2" data-name="Layer 2"><g id="Layer_2-2" data-name="Layer 2"><path class="cls-1" d="M213.73,22.68c0-.59-1.94-2-4-3.27s-3.92-2.38-3.08-2.94,4.47-.49,7.9.06c1.72.27,3.38.66,4.65,1s2.15.56,2.33.31-.22-1.25-1.15-2.36A25.44,25.44,0,0,0,216.62,12c-2.94-2.28-6.05-4-5.57-4.63a8,8,0,0,1,3.24-1.7c1.07-.38,1.73-.72.76-1.43a12,12,0,0,0-2.79-1.3c-.71-.25-1.55-.52-2.54-.8l-1.59-.42c-.57-.14-1.13-.28-1.93-.44a49.58,49.58,0,0,0-11.43-1,44.27,44.27,0,0,0-8.14,1,32.78,32.78,0,0,0-5.14,1.53,33.13,33.13,0,0,0-5.12,2.56,22.79,22.79,0,0,1-2.46,1.39,9.41,9.41,0,0,1-1.68.47,23.34,23.34,0,0,1-5.68.24,32.72,32.72,0,0,1-6.29-1c-.51-.12-1-.29-1.43-.42s-.82-.28-1.36-.51L153.57,3.8A43.87,43.87,0,0,0,148,1.86,46.78,46.78,0,0,0,142.27.63,62,62,0,0,0,131.33,0a66.9,66.9,0,0,0-10.64,1.2c-1.77.34-3.56.78-5.37,1.3s-3.63,1.19-5,1.74-2.6,1-3.58,1.32a20.23,20.23,0,0,1-2.74.7,33.08,33.08,0,0,1-6.37.52,46,46,0,0,1-6.88-.61c-1.14-.19-2.25-.42-3.34-.69s-2.13-.58-3.38-1c-2.46-.8-5.51-1.95-9.12-2.88A47.72,47.72,0,0,0,63.36.11,67,67,0,0,0,42.28,3.57l-1.82.6-1.73.61-3,1.06a27.45,27.45,0,0,1-5.7,1.46,23.7,23.7,0,0,1-7.41-.5c-2.49-.5-4.83-1.15-7.13-1.7A51.28,51.28,0,0,0,9.66,4a16.85,16.85,0,0,0-3.61-.12c-3.29.41-.49,2.06.56,4.11.61,1.17-1.11,2.26-2.84,3.5S.32,14.15.3,15.34c0,.42.76.92,1.84,1.53S4.62,18.25,6,19.07c2.65,1.64,5.26,3.52,4.81,4.07A9.71,9.71,0,0,1,8,24.95c-.85.47-1.33.88-.64,1.47a8.53,8.53,0,0,0,2.12,1.11c.56.23,1.27.5,2.13.81s2,.67,3.27,1.05a50.56,50.56,0,0,0,11.16,2A39.78,39.78,0,0,0,34.58,31a52.75,52.75,0,0,0,9-2.35h0l3.27-1.17,1.4-.49,1.33-.44a42.06,42.06,0,0,1,14.14-2.31A25.26,25.26,0,0,1,70,25.33c2.34.67,5.2,1.77,8.78,2.85a65.73,65.73,0,0,0,11.13,2.28,67,67,0,0,0,11.35.4,56.21,56.21,0,0,0,5.93-.63,46.56,46.56,0,0,0,6.14-1.43c2-.61,3.73-1.29,5.15-1.84S121,26,122,25.7a41.76,41.76,0,0,1,14.11-1.5,26.53,26.53,0,0,1,6.16,1.1c.88.29,1.91.72,3.31,1.33s3.07,1.37,5.19,2.09a54.58,54.58,0,0,0,11.68,2.58,52.19,52.19,0,0,0,6,.34,44.91,44.91,0,0,0,6.29-.4,34.16,34.16,0,0,0,6.91-1.64,27.73,27.73,0,0,0,3.59-1.53c1.11-.56,2-1.11,2.75-1.55a14.43,14.43,0,0,1,2.35-1.29,11.69,11.69,0,0,1,2.16-.57,25.81,25.81,0,0,1,4.15-.37,34.67,34.67,0,0,1,3.81.15c1.17.11,2.05.25,3.31.47s2.13.4,3,.57c3.51.72,5.09,1.15,6,1.1C214.59,26.56,214,24.77,213.73,22.68Z" transform="translate(-0.3)"/><path class="cls-1" d="M213.73,42.68c0-.59-1.94-2-4-3.27s-3.92-2.38-3.08-2.94,4.47-.49,7.9.06c1.72.27,3.38.66,4.65,1s2.15.56,2.33.31-.22-1.25-1.15-2.36A25.44,25.44,0,0,0,216.62,32c-2.94-2.28-6.05-4-5.57-4.63a8,8,0,0,1,3.24-1.7c1.07-.38,1.73-.72.76-1.43a12,12,0,0,0-2.79-1.3c-.71-.25-1.55-.52-2.54-.8l-1.59-.42c-.57-.14-1.13-.28-1.93-.44a49.58,49.58,0,0,0-11.43-1,44.27,44.27,0,0,0-8.14,1,32.78,32.78,0,0,0-5.14,1.53,33.13,33.13,0,0,0-5.12,2.56,22.79,22.79,0,0,1-2.46,1.39,9.41,9.41,0,0,1-1.68.47,23.34,23.34,0,0,1-5.68.24,32.72,32.72,0,0,1-6.29-1c-.51-.12-1-.29-1.43-.42s-.82-.28-1.36-.51l-3.92-1.68A43.87,43.87,0,0,0,148,21.86a46.78,46.78,0,0,0-5.77-1.23,62,62,0,0,0-10.94-.6,66.9,66.9,0,0,0-10.64,1.2c-1.77.34-3.56.78-5.37,1.3s-3.63,1.19-5,1.74-2.6,1-3.58,1.32a20.23,20.23,0,0,1-2.74.7,33.08,33.08,0,0,1-6.37.52,46,46,0,0,1-6.88-.61c-1.14-.19-2.25-.42-3.34-.69s-2.13-.58-3.38-1c-2.46-.8-5.51-1.95-9.12-2.88a47.72,47.72,0,0,0-11.53-1.55,67,67,0,0,0-21.08,3.46l-1.82.6-1.73.61-3,1.06a27.45,27.45,0,0,1-5.7,1.46,23.7,23.7,0,0,1-7.41-.5c-2.49-.5-4.83-1.15-7.13-1.7A51.28,51.28,0,0,0,9.66,24a16.85,16.85,0,0,0-3.61-.12c-3.29.41-.49,2.06.56,4.11.61,1.17-1.11,2.26-2.84,3.5S.32,34.15.3,35.34c0,.42.76.92,1.84,1.53S4.62,38.25,6,39.07c2.65,1.64,5.26,3.52,4.81,4.07A9.71,9.71,0,0,1,8,44.95c-.85.47-1.33.88-.64,1.47a8.53,8.53,0,0,0,2.12,1.11c.56.23,1.27.5,2.13.81s2,.67,3.27,1.05a50.56,50.56,0,0,0,11.16,2A39.78,39.78,0,0,0,34.58,51a52.75,52.75,0,0,0,9-2.35h0l3.27-1.17,1.4-.49,1.33-.44a42.06,42.06,0,0,1,14.14-2.31A25.26,25.26,0,0,1,70,45.33c2.34.67,5.2,1.77,8.78,2.85a65.73,65.73,0,0,0,11.13,2.28,67,67,0,0,0,11.35.4,56.21,56.21,0,0,0,5.93-.63,46.56,46.56,0,0,0,6.14-1.43c2-.61,3.73-1.29,5.15-1.84S121,46,122,45.7a41.76,41.76,0,0,1,14.11-1.5,26.53,26.53,0,0,1,6.16,1.1c.88.29,1.91.72,3.31,1.33s3.07,1.37,5.19,2.09a54.58,54.58,0,0,0,11.68,2.58,52.19,52.19,0,0,0,6,.34,44.91,44.91,0,0,0,6.29-.4,34.16,34.16,0,0,0,6.91-1.64,27.73,27.73,0,0,0,3.59-1.53c1.11-.56,2-1.11,2.75-1.55a14.43,14.43,0,0,1,2.35-1.29,11.69,11.69,0,0,1,2.16-.57,25.81,25.81,0,0,1,4.15-.37,34.67,34.67,0,0,1,3.81.15c1.17.11,2.05.25,3.31.47s2.13.4,3,.57c3.51.72,5.09,1.15,6,1.1C214.59,46.56,214,44.77,213.73,42.68Z" transform="translate(-0.3)"/></g></g></svg>