<svg id="Layer_2" data-name="Layer 2" xmlns="http://www.w3.org/2000/svg" viewBox="0 0 10 35"><defs><style>.cls-1{fill:#7ff0ff;}</style></defs><title>swash-beginning</title><path class="cls-1" d="M9.56,35c-1.08.11-1.93-.63-2.75-.4-1,.28-1.74-.6-2.29-.6-1.1,0-1.22-.39-1-.93S4.78,32.78,5,32s-1.37-1.49-2.46-2.29a8.12,8.12,0,0,1-1.47-1.3A2.46,2.46,0,0,1,.44,27c0-.3.37-.67.85-1.13s1.08-1,1.63-1.66a17.52,17.52,0,0,0,1.46-1.87c.37-.57.58-1,.41-1.2A6.9,6.9,0,0,0,3,20.1c-.5-.29-.79-.55-.55-1a3.27,3.27,0,0,1,.9-.88c.22-.17.5-.36.85-.59a4.49,4.49,0,0,0,.28-.7c.26-.88-.9-1.51-2-2.32a8.12,8.12,0,0,1-1.47-1.3A2.46,2.46,0,0,1,.44,12c0-.3.37-.67.85-1.13s1.08-1,1.63-1.66A17.52,17.52,0,0,0,4.38,7.31c.37-.57.58-1,.41-1.2A6.89,6.89,0,0,0,3,5c-.5-.29-.79-.55-.55-1a3.27,3.27,0,0,1,.9-.88c.26-.2.6-.43,1-.71s1-.64,1.78-1,1-1,2.18-1.42c.18-.06,1,.06,1.17,0Z"/></svg>